<svg width="32" height="32" viewBox="0 0 32 32" fill="none" xmlns="http://www.w3.org/2000/svg">
<path d="M22.9756 12.9472C24.6204 11.9497 26.7626 12.4732 27.7599 14.1166C28.7583 15.7599 28.2343 17.9003 26.5895 18.8967C26.5456 18.9232 26.5018 18.9486 26.4579 18.9728L8.3122 29.4129C6.66742 30.4104 4.52516 29.8868 3.52675 28.2435C2.52833 26.6002 3.05236 24.4598 4.69714 23.4623C4.741 23.4357 4.78486 23.4104 4.82872 23.3861L22.9756 12.9472Z" fill="#81C995"/>
<path d="M9.93729 5.50171C9.94537 3.58391 8.39523 2.02129 6.47574 2.01322C6.22874 2.01207 5.98288 2.03744 5.7405 2.08818C4.11418 2.48719 2.97726 3.95409 3.00035 5.62856V26.3646L9.93036 26.4903L9.93729 5.50171Z" fill="#34A853"/>
<path d="M23.0543 18.9855C24.7314 19.8539 26.7952 19.298 27.8086 17.7043C28.7828 16.0667 28.2437 13.9494 26.6047 12.9761C26.592 12.9691 26.5805 12.9622 26.5678 12.9541L8.30089 2.4956C6.67458 1.51421 4.55887 2.03547 3.57546 3.66035C3.55122 3.70072 3.52698 3.74223 3.5039 3.78375C2.53896 5.434 3.0953 7.55477 4.74701 8.52002C4.75855 8.52694 4.77009 8.5327 4.78163 8.53962L23.0543 18.9855Z" fill="#5BB974"/>
<path d="M26.4476 19.0098L9.93164 28.2275V20.3095L23.0368 13.0085C24.7739 12.0467 26.9635 12.6741 27.9261 14.4108C28.0162 14.5723 28.0924 14.7406 28.1558 14.9136C28.6475 16.5108 27.9296 18.2326 26.4476 19.0098Z" fill="#81C995"/>
<path d="M6.47184 30.0001C8.38551 30.0001 9.93685 28.4501 9.93685 26.5381C9.93685 24.6261 8.38551 23.0762 6.47184 23.0762C4.55817 23.0762 3.00684 24.6261 3.00684 26.5381C3.00684 28.4501 4.55817 30.0001 6.47184 30.0001Z" fill="#1E8E3E"/>
</svg>
