<svg width="203" height="204" viewBox="0 0 203 204" fill="none" xmlns="http://www.w3.org/2000/svg">
<path fill-rule="evenodd" clip-rule="evenodd" d="M186.583 121.413L181.402 111.655L181.914 111.239L190.161 98.0944C190.403 97.7074 190.562 97.274 190.628 96.822C190.693 96.37 190.663 95.9093 190.54 95.4695C190.417 95.0297 190.203 94.6204 189.912 94.2681C189.622 93.9157 189.261 93.628 188.853 93.4233L180.186 89.0736L179.9 89.0251C180.496 82.283 180.868 75.5649 181.051 68.5153C181.193 62.4948 180.323 56.493 178.477 50.7609L177.908 49.4632C178.282 49.0566 178.532 48.5521 178.629 48.0087C178.786 47.0854 178.891 46.6284 178.944 46.4331C178.944 46.4331 178.949 46.4007 178.952 46.3823C178.956 46.3656 178.959 46.3486 178.961 46.3315C179.149 45.4137 178.846 44.3699 178.049 43.2995C177.72 41.9331 176.398 37.4306 171.596 28.4354C164.114 35.3508 161.355 39.1623 160.595 40.3443C159.479 40.991 158.851 41.8346 158.714 42.7564C158.542 43.3578 158.413 43.9707 158.328 44.5905C158.297 45.1857 158.338 45.7826 158.449 46.3681C154.472 51.4066 151.425 57.114 149.451 63.2223C147.369 69.6858 145.491 76.2076 143.816 82.7876L134.235 84.0146C133.78 84.0723 133.342 84.2249 132.95 84.4624C132.557 84.6999 132.219 85.0171 131.957 85.3935C131.695 85.7698 131.515 86.197 131.429 86.6473C131.342 87.0976 131.351 87.5611 131.455 88.0078L134.803 102.645L135.473 103.822L127.097 111.588C126.349 112.283 125.843 113.199 125.654 114.201C125.464 115.204 125.601 116.241 126.044 117.161L132.717 131.036L134.541 131.877L136.912 116.023L140.767 113.081L140.852 113.229C140.506 115.269 141.716 117.573 144.564 119.66C144.601 119.666 145.205 120.049 145.235 120.073L145.706 122.309C147.156 129.506 149.727 136.761 152.722 140.473C157.502 137.483 163.846 131.311 167.492 123.357C170.632 122.312 172.41 120.59 172.742 118.628L172.856 117.954L176.657 121.979L172.853 138.363L174.897 137.931L185.766 127.025C186.482 126.299 186.947 125.362 187.094 124.353C187.241 123.344 187.062 122.313 186.583 121.413Z" fill="white"/>
<path fill-rule="evenodd" clip-rule="evenodd" d="M189.037 93.4298L180.072 88.9346L178.172 105.234L181.297 112.444L190.346 98.0962C190.587 97.7094 190.746 97.2763 190.811 96.8248C190.875 96.3732 190.845 95.9131 190.722 95.4738C190.599 95.0346 190.385 94.6259 190.095 94.2739C189.805 93.9219 189.444 93.6344 189.037 93.4298Z" fill="white"/>
<path fill-rule="evenodd" clip-rule="evenodd" d="M134.421 84.0317C133.968 84.0906 133.533 84.2434 133.142 84.4805C132.752 84.7176 132.416 85.0336 132.154 85.4084C131.893 85.7831 131.714 86.2083 131.626 86.6566C131.539 87.105 131.547 87.5666 131.649 88.0118L135.42 104.582L140.052 100.618L144 82.7662L134.421 84.0317Z" fill="white"/>
<path fill-rule="evenodd" clip-rule="evenodd" d="M145.134 122.211C146.579 129.408 149.902 136.766 152.896 140.478C157.677 137.489 164.044 131.292 167.674 123.316L144.819 118.995L145.134 122.211Z" fill="url(#paint0_linear_3160_19087)"/>
<path fill-rule="evenodd" clip-rule="evenodd" d="M148.445 123.327C148.745 126.939 150.004 130.301 151.11 131.452C152.269 130.585 154.028 127.288 155.154 123.418L148.391 121.119L148.445 123.327Z" fill="#FFECFA"/>
<path fill-rule="evenodd" clip-rule="evenodd" d="M140.885 113.201C140.539 115.246 141.749 117.55 144.601 119.633C150.301 123.803 160.398 125.513 167.153 123.451C170.532 122.423 172.433 120.646 172.78 118.601L173.099 117.358L169.83 118.101L156.982 118.619L141.098 111.94L140.885 113.201Z" fill="#FFECFA"/>
<path fill-rule="evenodd" clip-rule="evenodd" d="M140.993 112.678C141.704 113.383 142.46 114.04 143.257 114.647C150.102 119.653 162.23 121.706 170.341 119.233C171.298 118.948 172.226 118.574 173.114 118.116L171.645 115.569C171.645 115.569 164.475 117.921 156.605 116.275C151.667 115.266 146.961 113.342 142.731 110.602L140.993 112.678Z" fill="white"/>
<path d="M160.385 97.5928C162.807 98.0029 165.103 96.3718 165.513 93.9497C165.923 91.5276 164.292 89.2317 161.87 88.8216C159.448 88.4115 157.152 90.0426 156.742 92.4647C156.332 94.8868 157.963 97.1827 160.385 97.5928Z" fill="url(#paint1_linear_3160_19087)"/>
<path fill-rule="evenodd" clip-rule="evenodd" d="M166.838 58.9757C164.515 58.5824 162.128 58.8868 159.978 59.8503C157.828 60.8137 156.012 62.3931 154.76 64.3885C153.508 66.384 152.876 68.706 152.943 71.0609C153.011 73.4157 153.775 75.6977 155.139 77.6183C156.504 79.5388 158.407 81.0116 160.608 81.8505C162.81 82.6893 165.21 82.8565 167.507 82.331C169.803 81.8054 171.892 80.6107 173.51 78.8979C175.127 77.185 176.2 75.031 176.594 72.7082C176.855 71.1659 176.811 69.5871 176.462 68.0621C176.113 66.537 175.468 65.0957 174.562 63.8204C173.655 62.545 172.507 61.4607 171.182 60.6295C169.857 59.7982 168.38 59.2362 166.838 58.9757ZM163.446 79.011C161.802 78.7327 160.278 77.9733 159.066 76.8289C157.854 75.6845 157.009 74.2064 156.637 72.5815C156.265 70.9567 156.384 69.2581 156.977 67.7004C157.571 66.1428 158.613 64.7962 159.972 63.8308C161.331 62.8655 162.945 62.3248 164.611 62.277C166.278 62.2293 167.92 62.6768 169.332 63.5628C170.744 64.4488 171.862 65.7335 172.543 67.2546C173.225 68.7757 173.44 70.4648 173.162 72.1083C172.98 73.2015 172.583 74.2479 171.996 75.1877C171.408 76.1275 170.641 76.9421 169.738 77.585C168.835 78.2279 167.815 78.6864 166.734 78.9342C165.654 79.1821 164.535 79.2144 163.443 79.0294L163.446 79.011Z" fill="white"/>
<path fill-rule="evenodd" clip-rule="evenodd" d="M179.168 46.3372C179.163 46.3539 179.16 46.3711 179.16 46.3885C179.164 46.3716 179.167 46.3544 179.168 46.3372Z" fill="#67DAFF"/>
<path fill-rule="evenodd" clip-rule="evenodd" d="M175.661 49.2483C171.35 50.5604 164.91 49.4701 161.271 46.8121C159.476 45.4966 158.704 44.0506 158.899 42.7587C158.727 43.3601 158.598 43.973 158.513 44.5927C158.207 46.3978 159.809 48.521 163.452 50.1445C166.239 51.3904 169.297 51.9081 172.338 51.649C176.313 51.3152 178.518 49.846 178.825 48.0318C178.981 47.1085 179.087 46.6515 179.138 46.4608C178.84 47.6354 177.689 48.6277 175.661 49.2483Z" fill="#FFECFA"/>
<path fill-rule="evenodd" clip-rule="evenodd" d="M178.36 43.7684C178.36 43.7684 177.661 39.4807 171.781 28.4368C162.579 36.9273 160.536 40.7507 160.536 40.7507C159.342 42.5288 160.59 44.9482 164.595 46.7281C167.092 47.8347 169.827 48.2977 172.549 48.0748C176.899 47.7096 178.888 45.8381 178.36 43.7684Z" fill="url(#paint2_linear_3160_19087)"/>
<path fill-rule="evenodd" clip-rule="evenodd" d="M143.943 96.1477L127.28 111.595C126.533 112.29 126.027 113.205 125.837 114.208C125.648 115.211 125.785 116.248 126.228 117.168L132.901 131.043L134.725 131.884L131.697 115.577L145.783 97.3378L143.943 96.1477Z" fill="url(#paint3_linear_3160_19087)"/>
<path fill-rule="evenodd" clip-rule="evenodd" d="M186.768 121.415L176.12 101.368L173.944 102.106L180.511 122.92L173.028 138.369L175.072 137.932L185.941 127.026C186.659 126.301 187.126 125.365 187.274 124.356C187.423 123.347 187.246 122.317 186.768 121.415Z" fill="url(#paint4_linear_3160_19087)"/>
<path fill-rule="evenodd" clip-rule="evenodd" d="M145.941 97.3641L143.662 110.821L137.515 116.276L134.87 131.898L128.354 118.33C127.912 117.41 127.776 116.373 127.965 115.371C128.155 114.368 128.66 113.452 129.406 112.757L145.941 97.3641Z" fill="white"/>
<path fill-rule="evenodd" clip-rule="evenodd" d="M174.1 102.132L171.822 115.589L175.831 122.764L173.186 138.386L183.807 127.709C184.527 126.986 184.997 126.052 185.148 125.043C185.299 124.034 185.124 123.003 184.648 122.101L174.1 102.132Z" fill="white"/>
<path d="M182.3 111.37L181.9 111.122L190.147 97.9775C190.372 97.6178 190.519 97.2153 190.579 96.7955C190.64 96.3758 190.612 95.9481 190.498 95.5397C190.384 95.1312 190.186 94.751 189.917 94.4233C189.648 94.0955 189.313 93.8275 188.935 93.6361L181.274 89.7986L181.486 89.3596L189.146 93.2018C189.582 93.4207 189.967 93.728 190.277 94.104C190.587 94.48 190.815 94.9165 190.947 95.3857C191.079 95.8548 191.111 96.3463 191.043 96.8288C190.974 97.3113 190.806 97.7741 190.548 98.1879L182.3 111.37Z" fill="#081E7A"/>
<path d="M134.769 102.705L131.445 88.067C131.338 87.5915 131.331 87.099 131.425 86.6208C131.519 86.1426 131.712 85.6893 131.991 85.2897C132.27 84.8901 132.629 84.5531 133.046 84.3001C133.462 84.0471 133.927 83.8837 134.41 83.8203L142.307 82.7829L142.363 83.2672L134.463 84.2615C134.043 84.3163 133.638 84.4585 133.275 84.6789C132.912 84.8993 132.599 85.193 132.356 85.5413C132.114 85.8896 131.946 86.2848 131.865 86.7015C131.784 87.1182 131.791 87.5472 131.885 87.9611L135.234 102.599L134.769 102.705Z" fill="#081E7A"/>
<path d="M152.853 140.708C152.825 140.704 152.798 140.695 152.773 140.68C152.749 140.665 152.728 140.646 152.711 140.623C149.48 136.619 146.264 129.084 144.898 122.257L145.356 122.163C146.694 128.815 149.803 136.175 152.944 140.168C157.393 137.341 163.797 131.264 167.472 123.22L167.913 123.418C164.143 131.665 157.546 137.87 153.034 140.677C153.008 140.695 152.978 140.707 152.947 140.712C152.916 140.718 152.884 140.716 152.853 140.708Z" fill="#081E7A"/>
<path d="M151.071 131.683C151.021 131.676 150.975 131.651 150.94 131.614C149.859 130.481 148.533 127.207 148.214 123.345L148.695 123.308C148.984 126.761 150.141 129.911 151.169 131.135C152.229 130.203 153.783 127.612 154.884 123.833L155.336 123.967C154.171 128.043 152.406 130.808 151.286 131.648C151.255 131.671 151.22 131.686 151.183 131.692C151.145 131.698 151.107 131.695 151.071 131.683Z" fill="#081E7A"/>
<path d="M155.63 124.14C151.507 123.442 147.522 121.96 144.649 119.859C141.776 117.758 140.466 115.423 140.844 113.193L141.305 113.272C140.96 115.312 142.244 117.514 144.928 119.474C150.564 123.601 160.591 125.298 167.276 123.258C170.45 122.29 172.393 120.634 172.738 118.593L172.881 117.749L173.343 117.827L173.2 118.672C172.823 120.897 170.768 122.686 167.409 123.708C164.049 124.73 159.752 124.838 155.63 124.14Z" fill="#081E7A"/>
<path d="M156.284 119.967C151.344 119.131 146.557 117.371 143.115 114.836L143.394 114.456C150.155 119.4 162.236 121.445 170.275 119.007L170.408 119.457C166.327 120.699 161.228 120.804 156.284 119.967Z" fill="#081E7A"/>
<path d="M162.992 81.3658C160.913 81.0138 158.986 80.0534 157.453 78.6059C155.92 77.1584 154.851 75.2889 154.381 73.2339C153.911 71.1788 154.061 69.0304 154.812 67.0606C155.563 65.0907 156.881 63.3878 158.6 62.1672C160.319 60.9466 162.361 60.2631 164.469 60.2033C166.576 60.1434 168.654 60.7099 170.439 61.831C172.224 62.952 173.637 64.5774 174.499 66.5015C175.36 68.4256 175.632 70.5619 175.279 72.6404C174.8 75.4235 173.239 77.9038 170.936 79.5388C168.634 81.1739 165.777 81.8308 162.992 81.3658ZM166.481 60.7577C164.483 60.4194 162.429 60.6812 160.58 61.5101C158.73 62.339 157.168 63.6977 156.091 65.4144C155.013 67.1311 154.469 69.1287 154.527 71.1546C154.585 73.1805 155.243 75.1436 156.417 76.7959C157.59 78.4481 159.228 79.7152 161.122 80.4368C163.016 81.1585 165.081 81.3024 167.057 80.8502C169.032 80.3981 170.829 79.3703 172.221 77.8967C173.612 76.4232 174.536 74.5701 174.874 72.5718C175.321 69.8931 174.689 67.1464 173.116 64.9324C171.543 62.7185 169.158 61.2175 166.481 60.7577Z" stroke="#FFECFA" stroke-width="5"/>
<path d="M156.881 116.44C151.941 115.604 147.154 113.844 143.713 111.305C143.536 111.175 143.363 111.046 143.195 110.913L143.486 110.544C143.649 110.676 143.818 110.8 143.99 110.929C150.751 115.873 162.833 117.918 170.872 115.48L171.005 115.925C166.924 117.172 161.825 117.277 156.881 116.44Z" fill="#081E7A"/>
<path d="M178.107 104.16C179.739 92.3394 180.696 80.4357 180.971 68.5065C181.122 62.5162 180.263 56.5433 178.43 50.8383L178.877 50.6955C180.725 56.4508 181.592 62.4763 181.439 68.5192C181.165 80.4658 180.207 92.3868 178.571 104.224L178.107 104.16Z" fill="#081E7A"/>
<path d="M140.723 98.0529L140.262 97.9747C142.687 86.2098 145.749 74.5852 149.434 63.1523C151.418 57.0174 154.479 51.2852 158.474 46.2243L158.842 46.5147C154.88 51.5314 151.847 57.2158 149.884 63.2997C146.203 74.7096 143.145 86.3111 140.723 98.0529Z" fill="#081E7A"/>
<path d="M160.076 98.0154C159.163 97.8608 158.317 97.439 157.643 96.8032C156.97 96.1674 156.5 95.3462 156.294 94.4435C156.087 93.5408 156.153 92.5971 156.483 91.7318C156.813 90.8665 157.391 90.1183 158.146 89.582C158.901 89.0457 159.798 88.7453 160.724 88.7188C161.65 88.6923 162.562 88.9409 163.347 89.4331C164.131 89.9253 164.752 90.6391 165.131 91.4841C165.509 92.3292 165.629 93.2675 165.474 94.1806C165.267 95.4049 164.582 96.4968 163.57 97.216C162.557 97.9351 161.301 98.2227 160.076 98.0154ZM161.561 89.2442C160.74 89.1051 159.895 89.2128 159.135 89.5536C158.374 89.8945 157.732 90.4532 157.289 91.1591C156.846 91.8651 156.622 92.6865 156.646 93.5196C156.67 94.3527 156.94 95.16 157.423 95.8395C157.905 96.5189 158.579 97.0399 159.358 97.3367C160.136 97.6335 160.986 97.6926 161.798 97.5067C162.611 97.3208 163.35 96.8981 163.922 96.2922C164.494 95.6862 164.874 94.9242 165.013 94.1024C165.199 93.0005 164.941 91.8696 164.293 90.9585C163.646 90.0474 162.663 89.4308 161.561 89.2442Z" fill="#081E7A"/>
<path d="M162.823 82.6903C160.455 82.2893 158.258 81.1949 156.511 79.5454C154.765 77.8959 153.547 75.7656 153.011 73.4237C152.475 71.0819 152.646 68.6338 153.502 66.389C154.358 64.1442 155.86 62.2037 157.819 60.8128C159.777 59.4218 162.104 58.643 164.506 58.5748C166.907 58.5066 169.275 59.1521 171.309 60.4296C173.344 61.7072 174.954 63.5593 175.936 65.7519C176.917 67.9445 177.227 70.379 176.825 72.7474C176.279 75.9189 174.5 78.7453 171.876 80.6085C169.252 82.4717 165.997 83.2202 162.823 82.6903ZM166.799 59.2066C164.522 58.8211 162.182 59.1194 160.074 60.064C157.967 61.0085 156.186 62.5568 154.959 64.5131C153.731 66.4693 153.111 68.7457 153.177 71.0543C153.244 73.3629 153.993 75.6 155.33 77.4828C156.668 79.3656 158.534 80.8094 160.692 81.6318C162.85 82.4542 165.204 82.6181 167.455 82.1029C169.706 81.5877 171.754 80.4164 173.34 78.7372C174.926 77.0581 175.978 74.9464 176.363 72.6693C176.872 69.6168 176.152 66.4868 174.36 63.9639C172.568 61.441 169.849 59.7305 166.799 59.2066Z" fill="#081E7A"/>
<path d="M173.284 72.6228L172.822 72.5446C172.848 72.3923 172.873 72.2446 172.901 72.083L173.362 72.1612C173.345 72.3197 173.314 72.4759 173.284 72.6228Z" fill="#081E7A"/>
<path d="M164.858 79.3638L164.858 78.8889C165.164 78.8895 165.469 78.873 165.773 78.8396L165.824 79.3232C165.503 79.3536 165.181 79.3672 164.858 79.3638ZM166.795 79.1455L166.691 78.6911C166.988 78.6213 167.282 78.5363 167.57 78.4363L167.728 78.8762C167.418 78.9848 167.102 79.074 166.781 79.1432L166.795 79.1455ZM168.622 78.5052L168.419 78.0813C168.69 77.9472 168.954 77.7967 169.207 77.6307L169.458 78.0293C169.183 78.2018 168.9 78.3599 168.608 78.5028L168.622 78.5052ZM170.26 77.4718L169.965 77.1085C170.205 76.9178 170.435 76.7141 170.653 76.4983L170.981 76.8294C170.747 77.0555 170.502 77.2692 170.246 77.4694L170.26 77.4718ZM171.626 76.1029L171.262 75.8133C171.452 75.5738 171.629 75.3248 171.792 75.0672L172.187 75.3145C172.013 75.5888 171.821 75.8513 171.613 76.1005L171.626 76.1029ZM172.659 74.4637L172.219 74.2609C172.35 73.9833 172.467 73.6986 172.567 73.4081L173.015 73.5648C172.908 73.8699 172.784 74.1692 172.645 74.4613L172.659 74.4637Z" fill="#081E7A"/>
<path d="M163.407 79.2419L163.485 78.7803C163.637 78.8061 163.785 78.8311 163.947 78.8584L163.868 79.3201C163.726 79.2912 163.568 79.2693 163.407 79.2419Z" fill="#081E7A"/>
<path d="M163.407 79.2416C161.72 78.9569 160.155 78.1783 158.911 77.0042C157.667 75.8301 156.799 74.3134 156.416 72.6458C156.034 70.9782 156.155 69.2348 156.764 67.6361C157.373 66.0373 158.443 64.6551 159.837 63.6643C161.232 62.6735 162.889 62.1187 164.599 62.0699C166.31 62.0212 167.996 62.4807 169.445 63.3905C170.893 64.3002 172.04 65.6193 172.739 67.1807C173.438 68.7422 173.658 70.4759 173.372 72.1625L172.91 72.0843C173.179 70.4902 172.969 68.8521 172.307 67.3772C171.645 65.9022 170.561 64.6567 169.191 63.7979C167.822 62.9392 166.228 62.5059 164.612 62.5528C162.996 62.5996 161.43 63.1246 160.113 64.0612C158.795 64.9979 157.784 66.3042 157.209 67.815C156.634 69.3258 156.519 70.9733 156.88 72.5492C157.241 74.125 158.061 75.5585 159.237 76.6684C160.412 77.7783 161.89 78.5147 163.484 78.7846L163.407 79.2416Z" fill="#081E7A"/>
<path d="M167.761 51.6723C166.243 51.4156 164.763 50.9688 163.356 50.3424C159.834 48.7677 157.936 46.5991 158.285 44.5356C158.377 43.9172 158.505 43.3046 158.667 42.7007L159.119 42.8343C158.965 43.4207 158.84 44.0146 158.747 44.6137C158.44 46.4234 160.281 48.454 163.548 49.9142C166.3 51.14 169.317 51.6508 172.319 51.3992C175.884 51.0958 178.291 49.7842 178.597 47.9746C178.678 47.3988 178.795 46.8286 178.948 46.2674L179.399 46.4102C179.255 46.951 179.142 47.4994 179.059 48.0528C178.709 50.1163 176.203 51.5393 172.358 51.8665C170.824 51.995 169.279 51.9297 167.761 51.6723Z" fill="#081E7A"/>
<path d="M168.174 49.7426C165.652 49.3656 163.247 48.4295 161.134 47.0027C159.444 45.7668 158.563 44.3497 158.635 42.999C158.688 41.873 159.387 40.885 160.652 40.1446L160.888 40.5501C159.77 41.2061 159.15 42.0605 159.101 43.0256C159.038 44.2116 159.861 45.4907 161.408 46.6216C164.987 49.241 171.348 50.318 175.589 49.0227C177.382 48.4761 178.515 47.6185 178.858 46.5464C179.153 45.6465 178.882 44.5559 178.059 43.443L178.433 43.1646C179.354 44.4031 179.651 45.6216 179.299 46.6922C178.897 47.9158 177.657 48.874 175.713 49.471C173.251 50.1213 170.676 50.214 168.174 49.7426Z" fill="#081E7A"/>
<path d="M168.446 48.1306C167.085 47.902 165.758 47.5019 164.497 46.9397C162.019 45.8411 160.42 44.4068 159.984 42.9132C159.865 42.5255 159.835 42.1159 159.897 41.7151C159.959 41.3143 160.111 40.9328 160.342 40.5995C160.413 40.4642 162.495 36.6901 171.625 28.2634C171.652 28.2409 171.683 28.2245 171.717 28.2153C171.751 28.2062 171.786 28.2045 171.821 28.2103C171.856 28.2162 171.889 28.2295 171.918 28.2493C171.947 28.2691 171.971 28.295 171.989 28.3251C177.281 38.2437 178.424 42.7681 178.53 43.7121L178.563 43.7175C178.677 44.1066 178.702 44.5169 178.634 44.9169C178.567 45.3169 178.408 45.6962 178.172 46.0258C177.272 47.2981 175.291 48.1213 172.584 48.3468C171.201 48.4509 169.81 48.3783 168.446 48.1306ZM171.716 28.8155C162.852 37.0213 160.761 40.8222 160.74 40.8614C160.543 41.135 160.412 41.4498 160.356 41.7818C160.299 42.1138 160.32 42.4543 160.415 42.7773C160.811 44.1407 162.333 45.4763 164.67 46.5083C167.132 47.6051 169.832 48.0621 172.518 47.8371C175.08 47.625 176.955 46.874 177.759 45.7137C177.954 45.4429 178.084 45.1312 178.14 44.8023C178.195 44.4734 178.175 44.1362 178.08 43.8164L178.087 43.7794C178.084 43.627 177.389 39.4871 171.716 28.8155Z" fill="#081E7A"/>
<path d="M134.615 132.084L132.792 131.243C132.74 131.222 132.699 131.18 132.678 131.129L126.026 117.266C125.558 116.303 125.412 115.214 125.611 114.162C125.81 113.109 126.342 112.149 127.129 111.422L143.792 95.9988C143.83 95.9633 143.878 95.9413 143.93 95.9363C143.982 95.9313 144.033 95.9435 144.077 95.9711L145.916 97.1419L145.669 97.5369L143.98 96.4627L127.433 111.763C126.72 112.423 126.239 113.295 126.058 114.249C125.878 115.203 126.008 116.19 126.431 117.064L133.059 130.87L134.822 131.677L134.615 132.084Z" fill="#081E7A"/>
<path d="M173.079 138.596L172.981 138.138L174.952 137.716L185.761 126.858C186.448 126.171 186.897 125.282 187.04 124.322C187.184 123.361 187.016 122.38 186.56 121.522L176.01 101.653L173.997 102.323L173.844 101.88L176.025 101.143C176.077 101.125 176.134 101.126 176.185 101.146C176.237 101.166 176.279 101.203 176.306 101.252L186.948 121.303C187.452 122.248 187.639 123.33 187.48 124.39C187.321 125.449 186.825 126.429 186.066 127.185L175.197 138.09C175.166 138.123 175.126 138.146 175.082 138.156L173.079 138.596Z" fill="#081E7A"/>
<path d="M134.602 132.081C134.565 132.075 134.529 132.059 134.499 132.036C134.469 132.012 134.446 131.982 134.43 131.948L127.911 118.393C127.444 117.429 127.3 116.341 127.498 115.289C127.697 114.236 128.229 113.276 129.015 112.549L145.55 97.1509C145.586 97.1185 145.632 97.0978 145.68 97.0916C145.729 97.0855 145.778 97.094 145.821 97.1162C145.864 97.1401 145.899 97.1768 145.92 97.2213C145.942 97.2657 145.949 97.3157 145.941 97.3643L143.662 110.821C143.653 110.875 143.627 110.924 143.587 110.96L137.5 116.369L134.869 131.908C134.86 131.957 134.837 132.001 134.801 132.036C134.765 132.07 134.719 132.091 134.67 132.098C134.647 132.096 134.623 132.091 134.602 132.081ZM145.367 97.9463L129.332 112.892C128.619 113.553 128.137 114.425 127.957 115.38C127.777 116.336 127.909 117.324 128.333 118.198L134.527 131.119L137.052 116.208C137.061 116.156 137.088 116.109 137.127 116.073L143.213 110.674L145.367 97.9463Z" fill="#081E7A"/>
<path d="M172.917 138.568C172.894 138.569 172.87 138.565 172.848 138.557C172.804 138.535 172.768 138.499 172.745 138.455C172.723 138.411 172.715 138.361 172.723 138.312L175.353 122.778L171.407 115.68C171.382 115.632 171.373 115.577 171.382 115.524L173.662 102.058C173.669 102.009 173.692 101.963 173.726 101.928C173.761 101.893 173.806 101.869 173.855 101.861C173.904 101.853 173.954 101.861 173.998 101.883C174.043 101.905 174.079 101.941 174.101 101.985L184.646 121.968C185.148 122.913 185.333 123.995 185.175 125.054C185.016 126.112 184.522 127.092 183.764 127.849L173.144 138.521C173.113 138.548 173.077 138.566 173.037 138.575C172.997 138.583 172.956 138.581 172.917 138.568ZM171.837 115.501L175.806 122.603C175.831 122.649 175.84 122.703 175.832 122.755L173.305 137.684L183.406 127.523C184.094 126.836 184.542 125.947 184.686 124.987C184.83 124.026 184.661 123.045 184.205 122.187L173.985 102.811L171.837 115.501Z" fill="#081E7A"/>
<path d="M107.178 25.4608V0.217773L69.4018 21.9956L62.6725 33.4657C61.179 32.6806 59.2771 32.6148 57.1599 33.378C52.5477 28.8075 47.9356 24.3028 47.2987 23.9475C47.1565 23.8663 47.0098 23.7931 46.8594 23.7282C46.8594 23.7282 32.3246 15.3153 30.3655 14.1968C28.4064 13.0783 25.7006 13.245 22.7093 14.9688C16.7311 18.4208 11.8818 26.7767 11.8818 33.6412C11.8818 36.9572 13.0106 39.3126 14.8555 40.4794C15.0092 40.5803 25.2306 46.3965 25.2306 46.3965L26.7944 47.1597L0 62.5862V87.8292L37.7757 66.0777L43.9252 55.6077L44.505 55.8928C44.9443 57.7964 45.9018 59.2 47.1932 60.0159C47.325 60.0992 58.7851 66.626 62.9009 68.9639C63.3353 69.3176 63.825 69.5977 64.3504 69.7929C66.0152 70.4069 68.0929 70.2315 70.3726 69.1349L70.724 68.4945C71.3916 68.8805 73.3068 70.1087 73.746 70.2754C75.1648 70.7973 76.9789 70.5561 78.9556 69.3981C78.9556 69.3981 80.3612 68.0077 80.493 68.0822C81.2485 68.5208 82.2895 68.4331 83.4359 67.784C85.742 66.4681 87.6088 63.3143 87.6088 60.7177C87.6088 59.3755 87.1037 58.45 86.2911 58.0464L87.1344 55.2787C87.1344 52.5066 86.089 50.6161 84.4243 49.8572C84.086 49.6599 82.9923 49.0107 81.7887 48.3177L82.0215 47.879C81.6174 45.2473 80.3568 43.427 78.5515 42.6155L77.9497 42.269L107.178 25.4608Z" fill="#FFECFA"/>
<path d="M40.0112 24.5765C42.7829 22.9799 45.2822 22.7211 47.2193 23.5852C47.2193 23.5852 32.6757 15.1723 30.7166 14.0538C28.7576 12.9353 26.0518 13.102 23.0605 14.8258C17.0823 18.2778 12.2329 26.6337 12.2329 33.4982C12.2329 36.8142 13.3618 39.1696 15.2066 40.3364C15.3648 40.4373 27.1367 47.0167 27.1367 47.0167L29.3813 45.7271C29.3813 45.7271 29.1793 43.2533 29.232 42.4286C29.7108 34.5904 34.2702 27.8881 40.0112 24.5765Z" fill="white"/>
<path d="M37.7757 66.078L0 87.8295V62.5865L37.7757 40.835V66.078Z" fill="white"/>
<path d="M12.2995 67.3189V58.2568L2.63599 63.8274V72.8894L12.2995 67.3189Z" fill="url(#paint5_linear_3160_19087)"/>
<path d="M2.63599 75.3723V84.0133L12.2995 78.4427V69.8018L2.63599 75.3723Z" fill="url(#paint6_linear_3160_19087)"/>
<path d="M35.5793 53.6822V44.6201L25.9158 50.1951V59.2571L35.5793 53.6822Z" fill="url(#paint7_linear_3160_19087)"/>
<path d="M25.9158 61.74V70.3766L35.5793 64.806V56.165L25.9158 61.74Z" fill="url(#paint8_linear_3160_19087)"/>
<path d="M23.7199 60.5035V51.4414L14.0564 57.012V66.074L23.7199 60.5035Z" fill="url(#paint9_linear_3160_19087)"/>
<path d="M14.0564 68.5559V77.1969L23.7199 71.6219V62.9854L14.0564 68.5559Z" fill="url(#paint10_linear_3160_19087)"/>
<path d="M69.4023 21.9956V37.33L77.9985 42.2865L107.178 25.4608V0.217773L69.4023 21.9956Z" fill="white"/>
<path d="M81.7004 26.7198V17.6621L72.0369 23.2327V32.2947L81.7004 26.7198Z" fill="url(#paint11_linear_3160_19087)"/>
<path d="M76.179 41.028L81.7004 37.8436V29.207L72.0369 34.7776V38.8656L76.179 41.028Z" fill="url(#paint12_linear_3160_19087)"/>
<path d="M104.98 13.0874V4.02539L95.3169 9.59596V18.658L104.98 13.0874Z" fill="url(#paint13_linear_3160_19087)"/>
<path d="M95.3169 21.1409V29.7818L104.98 24.2113V15.5703L95.3169 21.1409Z" fill="url(#paint14_linear_3160_19087)"/>
<path d="M93.5608 19.9038V10.8418L83.8972 16.4124V25.4744L93.5608 19.9038Z" fill="url(#paint15_linear_3160_19087)"/>
<path d="M83.8972 27.9573V36.5983L93.5608 31.0277V22.3867L83.8972 27.9573Z" fill="url(#paint16_linear_3160_19087)"/>
<path d="M63.1903 33.4059C61.2136 32.2786 58.4903 32.4497 55.477 34.1867C51.963 36.2219 48.3172 40.981 46.3274 45.1173L49.4021 46.784L44.667 55.1706C45.1062 57.0742 46.2615 59.0568 47.5573 59.8727C47.7154 59.9736 64.7145 69.6497 64.7145 69.6497C64.7145 69.6497 62.6368 56.333 64.6178 52.5432C66.6472 48.6526 79.078 42.5732 79.078 42.5732C79.078 42.5732 65.1625 34.5332 63.1903 33.4059Z" fill="white"/>
<path d="M67.3243 66.5394C65.7166 65.7498 64.6887 63.8813 64.6887 61.1618C64.6887 55.9685 68.3565 49.6478 72.8808 47.0424C75.1385 45.7265 77.1899 45.6081 78.6701 46.4546C79.351 46.845 80.9015 47.7705 82.1227 48.4723V47.9109C81.2793 42.45 76.7814 40.4981 71.361 43.6255C65.3388 47.095 60.4587 55.5123 60.4587 62.425C60.4587 69.0045 64.8513 71.8292 70.4473 69.136L70.7987 68.4957C69.4546 67.7017 68.0007 66.8727 67.3243 66.5394Z" fill="url(#paint17_linear_3160_19087)"/>
<path d="M77.8264 66.2318C77.0226 65.837 76.5086 64.9159 76.5086 63.5474C76.5086 60.9595 78.3359 57.8014 80.5937 56.503C81.7226 55.8539 82.7416 55.7881 83.484 56.2092C83.9847 56.4987 86.3567 58.0163 87.0683 58.433L87.2264 55.2924C87.2264 50.1035 83.5586 48.0068 79.0343 50.6167C74.51 53.2265 70.8467 59.5427 70.8467 64.7361C70.8467 69.9294 74.5144 72.0217 79.0343 69.4119L80.8484 68.3021C80.2071 67.8372 78.314 66.4774 77.8264 66.2318Z" fill="url(#paint18_linear_3160_19087)"/>
<path d="M87.8502 60.6261C87.8502 63.2228 85.9834 66.3853 83.6773 67.6924C81.3712 68.9995 79.5044 67.9468 79.5044 65.3501C79.5044 62.7535 81.3712 59.591 83.6773 58.2882C85.9834 56.9855 87.8502 58.0294 87.8502 60.6261Z" fill="white"/>
<path d="M25.1911 46.5859C24.7519 46.349 14.9653 40.7697 14.8072 40.6688C12.8262 39.4099 11.7324 36.9185 11.7324 33.6508C11.7324 26.7292 16.6389 18.2681 22.6698 14.7898C25.6348 13.0791 28.4328 12.8072 30.5456 14.0134C32.4827 15.1231 46.9033 23.4614 47.0483 23.5448L46.8287 23.9264C46.6837 23.8343 32.2631 15.4916 30.3084 14.3862C28.3537 13.2809 25.6962 13.5353 22.8719 15.1626C16.9639 18.5663 12.1541 26.8564 12.1541 33.642C12.1541 36.7606 13.1732 39.1248 15.0268 40.296C15.1849 40.3968 21.8791 44.2041 25.3932 46.2043L25.1911 46.5859Z" fill="#081E7A"/>
<path d="M29.1482 43.3481H28.709C28.709 36.4397 33.6023 27.9961 39.62 24.5266C42.5762 22.8247 45.3698 22.5484 47.4782 23.7546C48.3831 24.2722 51.7346 27.4522 57.4405 33.2026L57.1286 33.5097C51.5325 27.8689 48.1195 24.6274 47.2586 24.123C45.2907 22.9958 42.6552 23.2721 39.8396 24.895C33.9449 28.3075 29.1482 36.58 29.1482 43.3481Z" fill="#081E7A"/>
<path d="M0.219626 88.0485C0.180796 88.0493 0.142602 88.0386 0.109813 88.0178C0.0766192 87.9987 0.0490184 87.9712 0.0297538 87.9381C0.0104891 87.905 0.000231348 87.8675 0 87.8292L0 62.5862C0.000330751 62.5474 0.0105914 62.5093 0.0298093 62.4755C0.0490272 62.4417 0.0765653 62.4134 0.109813 62.3932L37.8855 40.6417C37.9189 40.6224 37.9568 40.6123 37.9953 40.6123C38.0339 40.6123 38.0717 40.6224 38.1051 40.6417C38.1384 40.6619 38.1659 40.6902 38.1851 40.7239C38.2043 40.7577 38.2146 40.7958 38.2149 40.8347V66.0777C38.2147 66.116 38.2044 66.1535 38.1852 66.1866C38.1659 66.2197 38.1383 66.2472 38.1051 66.2663L0.329439 88.0178C0.29665 88.0386 0.258456 88.0493 0.219626 88.0485ZM0.439252 62.7222V87.4608L37.7757 65.968V41.2294L0.439252 62.7222Z" fill="#081E7A"/>
<path d="M38.0345 66.1873L37.6567 65.9679L48.8313 47.0149L37.7402 41.0276L37.951 40.6416L49.2398 46.7341C49.2658 46.7483 49.2886 46.7677 49.3067 46.7911C49.3249 46.8145 49.338 46.8414 49.3452 46.8701C49.357 46.8971 49.363 46.9262 49.363 46.9556C49.363 46.9851 49.357 47.0142 49.3452 47.0412L38.0345 66.1873Z" fill="#081E7A"/>
<path d="M2.63505 73.0783H2.1958V63.8276C2.19603 63.7894 2.20629 63.7518 2.22555 63.7187C2.24482 63.6856 2.27242 63.6581 2.30561 63.639L11.9692 58.0684C12.0025 58.0492 12.0404 58.0391 12.079 58.0391C12.1175 58.0391 12.1554 58.0492 12.1888 58.0684C12.222 58.0876 12.2496 58.1151 12.2688 58.1481C12.2881 58.1812 12.2984 58.2188 12.2986 58.2571V67.3761H11.8593V58.6387L2.63505 63.9548V73.0783Z" fill="#081E7A"/>
<path d="M2.41543 84.2152C2.3766 84.216 2.3384 84.2053 2.30561 84.1845C2.27242 84.1654 2.24482 84.1379 2.22555 84.1048C2.20629 84.0717 2.19603 84.0342 2.1958 83.9959V75.355C2.19603 75.3167 2.20629 75.2791 2.22555 75.2461C2.24482 75.213 2.27242 75.1855 2.30561 75.1664L11.9692 69.5958C12.0025 69.5765 12.0404 69.5664 12.079 69.5664C12.1175 69.5664 12.1554 69.5765 12.1888 69.5958C12.222 69.6149 12.2496 69.6424 12.2688 69.6755C12.2881 69.7086 12.2984 69.7461 12.2986 69.7844V78.4254C12.2975 78.4635 12.2869 78.5007 12.2677 78.5336C12.2486 78.5666 12.2214 78.5942 12.1888 78.614L2.52524 84.2152C2.48937 84.2256 2.4513 84.2256 2.41543 84.2152ZM2.63505 75.4997V83.6319L11.8593 78.3157V70.1792L2.63505 75.4997Z" fill="#081E7A"/>
<path d="M25.9163 59.0424H25.4771V50.1909C25.4781 50.1528 25.4887 50.1156 25.5079 50.0826C25.5271 50.0497 25.5542 50.0221 25.5869 50.0023L35.2504 44.4317C35.2838 44.4125 35.3217 44.4023 35.3602 44.4023C35.3988 44.4023 35.4366 44.4125 35.47 44.4317C35.5032 44.4509 35.5308 44.4783 35.5501 44.5114C35.5694 44.5445 35.5796 44.5821 35.5798 44.6203V53.7789H35.1406V45.0063L25.9163 50.3181V59.0424Z" fill="#081E7A"/>
<path d="M25.6967 70.618C25.6579 70.6188 25.6197 70.6081 25.5869 70.5873C25.5534 70.5685 25.5255 70.5411 25.5062 70.508C25.4869 70.4748 25.4768 70.4371 25.4771 70.3987V61.7402C25.4774 61.7014 25.4876 61.6633 25.5069 61.6295C25.5261 61.5957 25.5536 61.5674 25.5869 61.5472L35.2504 55.9767C35.2838 55.9574 35.3217 55.9473 35.3602 55.9473C35.3988 55.9473 35.4367 55.9574 35.47 55.9767C35.5027 55.9964 35.5298 56.024 35.549 56.057C35.5682 56.0899 35.5788 56.1272 35.5799 56.1653V64.8062C35.5796 64.8445 35.5694 64.882 35.5501 64.9151C35.5308 64.9482 35.5032 64.9757 35.47 64.9948L25.8065 70.5654C25.7764 70.594 25.7379 70.6125 25.6967 70.618ZM25.9163 61.8455V69.982L35.1406 64.6615V56.5469L25.9163 61.8455Z" fill="#081E7A"/>
<path d="M13.8361 66.2931C13.7973 66.2938 13.7591 66.2832 13.7263 66.2624C13.6931 66.2432 13.6655 66.2158 13.6462 66.1827C13.6269 66.1496 13.6167 66.112 13.6165 66.0738V57.0205C13.6168 56.9816 13.627 56.9435 13.6463 56.9098C13.6655 56.876 13.693 56.8477 13.7263 56.8275L23.3898 51.2569C23.4232 51.2377 23.4611 51.2275 23.4996 51.2275C23.5382 51.2275 23.5761 51.2377 23.6094 51.2569C23.6427 51.2771 23.6702 51.3054 23.6894 51.3392C23.7087 51.373 23.7189 51.4111 23.7193 51.4499V60.512C23.719 60.5502 23.7088 60.5878 23.6895 60.6209C23.6702 60.654 23.6426 60.6814 23.6094 60.7006L13.9459 66.2711C13.9122 66.2889 13.874 66.2965 13.8361 66.2931ZM14.0557 57.1389V65.6922L23.28 60.376V51.8184L14.0557 57.1389Z" fill="#081E7A"/>
<path d="M13.8361 77.4123C13.7979 77.4125 13.7602 77.4035 13.7263 77.386C13.6936 77.3662 13.6665 77.3386 13.6473 77.3056C13.6281 77.2727 13.6175 77.2355 13.6165 77.1974V68.6924H14.0557V76.8158L23.28 71.4952V62.9902H23.7193V71.6224C23.7189 71.6613 23.7087 71.6994 23.6894 71.7332C23.6702 71.7669 23.6427 71.7952 23.6094 71.8154L13.9459 77.386C13.9119 77.4035 13.8743 77.4125 13.8361 77.4123Z" fill="#081E7A"/>
<path d="M79.2811 41.9271L79.0615 41.5455L107.174 25.3163V0.599598L69.8416 22.123V36.2337H69.4023V21.9958C69.4026 21.9576 69.4128 21.92 69.4321 21.8869C69.4514 21.8538 69.479 21.8264 69.5122 21.8072L107.288 0.0293825C107.321 0.0101337 107.359 0 107.398 0C107.436 0 107.474 0.0101337 107.507 0.0293825C107.541 0.0485188 107.568 0.0759964 107.588 0.109084C107.607 0.142173 107.617 0.179719 107.617 0.217992V25.461C107.617 25.4998 107.607 25.538 107.587 25.5717C107.568 25.6055 107.541 25.6338 107.507 25.654L79.2811 41.9271Z" fill="#081E7A"/>
<path d="M69.2878 21.8904L63.541 31.7305L63.9205 31.9514L69.6672 22.1114L69.2878 21.8904Z" fill="#081E7A"/>
<path d="M72.0374 32.2862H71.5981V23.2461C71.5985 23.2072 71.6087 23.1691 71.628 23.1353C71.6472 23.1016 71.6747 23.0732 71.708 23.0531L81.3715 17.4825C81.4049 17.4633 81.4428 17.4531 81.4813 17.4531C81.5199 17.4531 81.5577 17.4633 81.5911 17.4825C81.6238 17.5023 81.6509 17.5299 81.6701 17.5629C81.6893 17.5958 81.6999 17.633 81.7009 17.6711V26.584H81.2617V18.0396L72.0374 23.3601V32.2862Z" fill="#081E7A"/>
<path d="M76.0697 41.23L75.8501 40.8528L81.2617 37.721V29.5845L72.0374 34.905V38.8527H71.5981V34.7778C71.5984 34.7395 71.6086 34.702 71.6279 34.6689C71.6472 34.6358 71.6748 34.6083 71.708 34.5892L81.3715 29.0186C81.4048 28.9994 81.4425 28.9893 81.481 28.9893C81.5194 28.9892 81.5572 28.9992 81.5906 29.0183C81.6239 29.0374 81.6516 29.0649 81.671 29.0981C81.6904 29.1312 81.7007 29.1689 81.7009 29.2073V37.8438C81.7006 37.8827 81.6903 37.9208 81.6711 37.9546C81.6519 37.9883 81.6244 38.0167 81.5911 38.0368L76.0697 41.23Z" fill="#081E7A"/>
<path d="M95.3174 18.6883H94.8782V9.59559C94.8784 9.55732 94.8887 9.51977 94.9079 9.48668C94.9272 9.4536 94.9548 9.42612 94.988 9.40698L104.652 3.83203C104.686 3.8147 104.723 3.80566 104.761 3.80566C104.8 3.80566 104.837 3.8147 104.871 3.83203C104.904 3.8522 104.932 3.88051 104.951 3.91428C104.97 3.94806 104.981 3.98618 104.981 4.02502V12.9862H104.542V4.3847L95.3174 9.72279V18.6883Z" fill="#081E7A"/>
<path d="M95.0978 30.0014C95.0593 30 95.0216 29.9895 94.988 29.9707C94.9548 29.9515 94.9272 29.9241 94.9079 29.891C94.8887 29.8579 94.8784 29.8203 94.8782 29.7821V21.1411C94.8784 21.1028 94.8887 21.0653 94.9079 21.0322C94.9272 20.9991 94.9548 20.9716 94.988 20.9525L104.652 15.3819C104.685 15.3627 104.723 15.3525 104.761 15.3525C104.8 15.3525 104.838 15.3627 104.871 15.3819C104.904 15.4011 104.932 15.4285 104.951 15.4616C104.97 15.4947 104.981 15.5323 104.981 15.5705V24.2071C104.981 24.2459 104.97 24.2841 104.951 24.3178C104.932 24.3516 104.904 24.3799 104.871 24.4001L95.2076 29.9707C95.174 29.9895 95.1363 30 95.0978 30.0014ZM95.3174 21.2683V29.3873L104.542 24.0711V15.9521L95.3174 21.2683Z" fill="#081E7A"/>
<path d="M83.6781 25.6939C83.6399 25.6941 83.6023 25.6851 83.5683 25.6676C83.5351 25.6475 83.5075 25.6191 83.4883 25.5854C83.4691 25.5516 83.4588 25.5135 83.4585 25.4746V16.4126C83.4587 16.3743 83.469 16.3368 83.4882 16.3037C83.5075 16.2706 83.5351 16.2431 83.5683 16.224L93.2319 10.6534C93.2652 10.6342 93.3031 10.624 93.3417 10.624C93.3802 10.624 93.4181 10.6342 93.4515 10.6534C93.4847 10.6725 93.5123 10.7 93.5315 10.7331C93.5508 10.7662 93.5611 10.8037 93.5613 10.842V19.9041C93.561 19.9429 93.5507 19.981 93.5315 20.0148C93.5123 20.0486 93.4847 20.0769 93.4515 20.0971L83.7879 25.6676C83.754 25.6851 83.7163 25.6941 83.6781 25.6939ZM83.8977 16.5398V25.0974L93.122 19.7769V11.2236L83.8977 16.5398Z" fill="#081E7A"/>
<path d="M83.6781 36.8177C83.6393 36.8185 83.6011 36.8078 83.5683 36.787C83.5351 36.7679 83.5075 36.7404 83.4882 36.7073C83.469 36.6742 83.4587 36.6367 83.4585 36.5984V27.9004H83.8977V36.2343L93.122 30.9182V22.1982H93.5613V31.0278C93.5611 31.0661 93.5508 31.1036 93.5315 31.1367C93.5123 31.1698 93.4847 31.1973 93.4515 31.2164L83.7879 36.787C83.7551 36.8078 83.717 36.8185 83.6781 36.8177Z" fill="#081E7A"/>
<path d="M46.7318 44.3398L46.3364 44.1512C48.4361 39.7649 51.6075 36.1374 55.0863 34.1417C58.0732 32.4223 60.8889 32.1459 63.0148 33.3609C64.9651 34.475 78.7796 42.4449 78.9201 42.5458L78.7005 42.9274C78.56 42.8441 64.7499 34.8786 62.7996 33.7645C60.8493 32.6504 58.1479 32.8872 55.306 34.5408C51.9193 36.4752 48.7962 40.05 46.7318 44.3398Z" fill="#081E7A"/>
<path d="M64.3376 69.9817C62.5805 68.9948 47.3297 60.3012 47.1716 60.2047C45.8055 59.3274 44.8435 57.8668 44.3823 55.9456L44.8216 55.8447C45.2608 57.6519 46.1393 59.0292 47.4132 59.8319C47.6591 59.981 64.3947 69.508 64.544 69.6001L64.3376 69.9817Z" fill="#081E7A"/>
<path d="M66.4888 70.3637C65.389 70.3804 64.3071 70.0837 63.3702 69.5083C61.3628 68.2495 60.2559 65.7318 60.2559 62.4245C60.2559 55.4547 65.1974 46.9366 71.2679 43.4319C74.0747 41.8178 76.7674 41.4757 78.8538 42.4713C80.7118 43.3486 81.9593 45.2829 82.3678 47.8796L81.9286 47.9454C81.5508 45.4979 80.3912 43.6951 78.6693 42.8705C76.719 41.9362 74.1714 42.2696 71.4919 43.8135C65.5445 47.2436 60.6995 55.5951 60.6995 62.4245C60.6995 65.5782 61.7317 67.96 63.6074 69.1355C65.3644 70.254 67.789 70.1838 70.3718 68.9381L70.5651 69.3329C69.3012 69.978 67.9079 70.3303 66.4888 70.3637Z" fill="#081E7A"/>
<path d="M73.7289 70.4592C73.6762 70.4328 68.6643 67.437 67.228 66.7352C65.471 65.858 64.4915 63.8491 64.4915 61.1603C64.4915 55.8967 68.2119 49.4884 72.7889 46.8478C75.0467 45.532 77.1814 45.339 78.7979 46.2645C80.265 47.1023 84.697 49.7209 84.741 49.7472L84.517 50.1244C84.473 50.0981 80.0454 47.4926 78.5783 46.6461C77.1112 45.7995 75.1257 46.0101 73.0086 47.2295C68.5545 49.7998 64.9307 56.0459 64.9307 61.1603C64.9307 63.678 65.84 65.5465 67.4213 66.3405C68.8752 67.051 73.7465 69.9591 73.9529 70.0863L73.7289 70.4592Z" fill="#081E7A"/>
<path d="M75.3797 70.7624C74.5929 70.7705 73.8181 70.5692 73.1351 70.179C71.5274 69.2535 70.6401 67.3192 70.6401 64.7356C70.6401 59.4721 74.365 53.0638 78.9376 50.4232C81.2041 49.1074 83.3301 48.9144 84.9641 49.8486C86.5982 50.7829 87.4591 52.7085 87.4591 55.292H87.0198C87.0198 52.8708 86.2116 51.0724 84.7445 50.2259C83.2774 49.3793 81.2832 49.5811 79.1572 50.8048C74.7032 53.3708 71.0794 59.6212 71.0794 64.7356C71.0794 67.1569 71.8876 68.9552 73.3547 69.8018C74.8218 70.6483 76.816 70.4466 78.9376 69.2228L79.1572 69.6044C78.0204 70.312 76.7183 70.7111 75.3797 70.7624Z" fill="#081E7A"/>
<path d="M80.4571 68.275C79.5797 67.6151 78.6693 67.0003 77.7293 66.4328C76.8201 65.9942 76.3018 64.9371 76.3018 63.551C76.3018 60.9193 78.1818 57.6515 80.4966 56.3181C81.6606 55.647 82.7632 55.5417 83.6065 56.0242C84.3445 56.4628 86.5715 57.7787 86.5715 57.7787L86.3475 58.1559C86.3475 58.1559 84.1248 56.84 83.3869 56.4014C82.6489 55.9628 81.7353 56.1031 80.7162 56.6909C78.52 57.9541 76.763 61.0289 76.763 63.5466C76.763 64.7573 77.2022 65.6652 77.9446 66.0337C78.9089 66.6142 79.8428 67.2437 80.7426 67.9198L80.4571 68.275Z" fill="#081E7A"/>
<path d="M81.5872 68.6923C81.1606 68.6977 80.7404 68.5887 80.3705 68.3764C79.5271 67.8896 79.0527 66.8939 79.0527 65.5692C79.0527 62.9068 80.9767 59.6521 83.3354 58.3143C84.539 57.6345 85.6723 57.538 86.5332 58.038C87.3941 58.538 87.851 59.5249 87.851 60.8452C87.851 63.5077 85.927 66.7667 83.5682 68.1001C82.9699 68.4642 82.2876 68.6682 81.5872 68.6923ZM85.3296 58.1652C84.7077 58.1901 84.1026 58.3744 83.5726 58.7003C81.3324 59.968 79.5096 63.0515 79.5096 65.5736C79.5096 66.7316 79.8961 67.5957 80.5945 68.0036C81.2929 68.4115 82.2944 68.3238 83.353 67.7229C85.5932 66.4553 87.4161 63.3717 87.4161 60.8496C87.4161 59.6916 87.0295 58.8319 86.3311 58.424C86.0269 58.2483 85.681 58.1575 85.3296 58.1608V58.1652Z" fill="#081E7A"/>
<path d="M104.184 159.439C103.236 154.075 98.2127 149.46 89.3246 146.817C86.7813 146.078 84.1836 145.541 81.5558 145.211L81.4526 145.229C78.773 142.265 75.4513 139.953 71.7413 138.47C68.0314 136.986 64.0314 136.371 60.047 136.67L59.7788 136.717L57.5242 128.145C57.7949 128.02 58.0534 127.871 58.2963 127.698C59.1917 127.034 59.6144 126.15 59.4599 125.276C59.3054 124.401 58.6071 123.724 57.5375 123.402C57.2358 123.313 56.926 123.254 56.6126 123.225L56.4641 123.252C56.1182 121.823 55.6914 120.082 55.4982 119.277C56.2259 118.873 56.7907 118.229 57.0958 117.454C57.401 116.68 57.4276 115.824 57.1713 115.032C56.9149 114.24 56.3914 113.562 55.6902 113.113C54.9891 112.664 54.1539 112.473 53.3274 112.572C52.5009 112.671 51.7345 113.054 51.1592 113.656C50.5839 114.257 50.2355 115.04 50.1734 115.87C50.1114 116.7 50.3396 117.526 50.8191 118.207C51.2986 118.887 51.9996 119.38 52.8021 119.6L53.215 123.817L53.0582 123.845C52.7649 123.981 52.4862 124.147 52.2266 124.34C51.3099 125.005 50.8821 125.931 51.0381 126.814C51.1941 127.697 51.9112 128.409 53.0029 128.735C53.2191 128.798 53.4394 128.846 53.6623 128.878L54.6493 138.032L53.2463 138.279C49.7082 139.435 46.465 141.348 43.7434 143.887C41.0218 146.426 38.8874 149.528 37.4894 152.978L37.1758 153.033C34.8227 154.243 32.569 155.637 30.4357 157.202C23.0525 162.694 19.9417 168.716 20.8791 174.022C22.0782 180.811 26.7674 185.676 33.0169 188.606C34.1342 189.13 34.723 189.374 37.0513 190.174C37.2227 190.229 37.39 190.285 37.5648 190.335C46.2176 191.576 104.184 190.174 104.184 159.439Z" fill="white"/>
<path d="M94.5116 176.348C79.6855 187.354 53.3168 192.012 35.6214 186.75C26.7741 184.122 21.7691 179.516 20.824 174.19C22.3059 182.579 29.1262 188.042 37.5922 190.56C54.5323 195.593 79.7704 191.135 93.961 180.603C101.056 175.336 105.623 168.091 104.106 159.474C105.042 164.803 101.919 170.848 94.5116 176.348Z" fill="#FFECFA"/>
<path d="M60.1542 136.797L59.7706 136.818L61.5445 143.198L55.2427 144.26L54.6372 137.725L53.3864 138.111C47.4304 140.043 42.3735 144.063 39.1479 149.43C35.9223 154.796 34.7454 161.148 35.8341 167.314C36.4173 170.615 39.5351 173.499 45.0411 175.135C56.0489 178.407 72.4562 175.509 81.6808 168.662C86.2932 165.239 88.2345 161.462 87.6514 158.161C86.532 151.825 83.0988 146.13 78.0178 142.183C72.9368 138.235 66.5705 136.316 60.1542 136.797Z" fill="white"/>
<path d="M59.688 150.849C59.688 150.849 58.2765 151 57.5985 151.065C57.4605 151.078 57.3227 151.036 57.2154 150.948C57.1081 150.861 57.0401 150.734 57.0263 150.596C57.0137 150.457 57.0562 150.318 57.1445 150.21C57.2329 150.102 57.3601 150.034 57.4988 150.019L59.5541 149.826C59.9294 149.806 60.0954 149.879 60.1428 150.147C60.1902 150.415 60.2483 150.72 59.688 150.849ZM62.7802 150.022C62.6512 150.039 62.5205 150.007 62.4132 149.934C62.3059 149.86 62.2295 149.75 62.1988 149.623C62.168 149.497 62.185 149.363 62.2465 149.249C62.308 149.134 62.4097 149.046 62.532 149.002C63.2017 148.794 63.8491 148.556 64.459 148.3C64.5225 148.273 64.5906 148.259 64.6594 148.258C64.7283 148.258 64.7966 148.271 64.8605 148.297C64.9243 148.322 64.9824 148.361 65.0315 148.409C65.0806 148.457 65.1197 148.515 65.1465 148.578C65.1734 148.642 65.1875 148.71 65.188 148.779C65.1885 148.848 65.1755 148.916 65.1496 148.98C65.1238 149.044 65.0856 149.102 65.0373 149.151C64.9889 149.2 64.9314 149.239 64.868 149.266C64.2264 149.537 63.5468 149.784 62.8703 150.002L62.7802 150.022ZM54.4991 151.153C54.4628 151.163 54.4255 151.17 54.3877 151.172C53.6637 151.149 52.9417 151.083 52.2253 150.976C52.1573 150.965 52.0919 150.942 52.033 150.906C51.9741 150.87 51.9228 150.824 51.882 150.768C51.8412 150.713 51.8117 150.65 51.7952 150.583C51.7787 150.516 51.7755 150.447 51.7858 150.379C51.7962 150.311 51.8198 150.245 51.8554 150.186C51.891 150.128 51.9378 150.076 51.9932 150.035C52.0487 149.995 52.1116 149.965 52.1784 149.949C52.2452 149.932 52.3146 149.929 52.3827 149.939C53.0566 150.039 53.7354 150.103 54.4162 150.129C54.545 150.135 54.6671 150.188 54.7592 150.278C54.8513 150.368 54.907 150.489 54.9155 150.618C54.924 150.746 54.8847 150.874 54.8053 150.975C54.7258 151.077 54.6117 151.145 54.4848 151.168L54.4991 151.153ZM67.5307 147.838C67.4118 147.859 67.2893 147.838 67.1839 147.779C67.0785 147.72 66.9967 147.627 66.9523 147.515C66.908 147.402 66.9038 147.278 66.9404 147.163C66.9771 147.048 67.0524 146.949 67.1535 146.883C67.3746 146.738 67.595 146.588 67.8016 146.433C68.1359 146.19 68.4563 145.929 68.7613 145.65C68.863 145.556 68.9983 145.505 69.1372 145.51C69.2761 145.515 69.4074 145.575 69.5021 145.677C69.5969 145.779 69.6473 145.914 69.6423 146.053C69.6373 146.192 69.5773 146.323 69.4756 146.418C69.1483 146.72 68.8052 147.005 68.4477 147.272C68.2219 147.439 67.9906 147.599 67.7462 147.757C67.6839 147.799 67.6131 147.826 67.5389 147.836L67.5307 147.838ZM49.3707 150.161C49.2731 150.178 49.1725 150.168 49.0804 150.131C48.3832 149.859 47.7261 149.495 47.1271 149.046C47.0696 149.006 47.021 148.954 46.9841 148.894C46.9471 148.834 46.9227 148.767 46.9121 148.698C46.9015 148.628 46.9051 148.557 46.9226 148.489C46.9401 148.421 46.9712 148.357 47.0139 148.301C47.0567 148.245 47.1103 148.198 47.1715 148.163C47.2328 148.129 47.3004 148.107 47.3703 148.099C47.4402 148.091 47.5111 148.097 47.5786 148.117C47.6461 148.137 47.7089 148.17 47.7632 148.215C48.2896 148.604 48.8651 148.921 49.4747 149.159C49.5793 149.203 49.667 149.279 49.7249 149.377C49.7828 149.474 49.8078 149.588 49.7962 149.7C49.7847 149.813 49.7371 149.919 49.6606 150.003C49.5841 150.086 49.4827 150.143 49.3715 150.165L49.3707 150.161ZM70.9705 143.992C70.8849 144.007 70.7968 143.999 70.7153 143.969C70.6498 143.948 70.5891 143.914 70.5368 143.869C70.4845 143.825 70.4415 143.77 70.4105 143.709C70.3794 143.647 70.3609 143.58 70.356 143.512C70.351 143.443 70.3598 143.374 70.3817 143.309C70.5481 142.836 70.5918 142.329 70.5087 141.835C70.4921 141.742 70.4754 141.647 70.4584 141.551C70.439 141.484 70.4329 141.415 70.4404 141.347C70.4479 141.278 70.4688 141.212 70.502 141.151C70.5352 141.091 70.5801 141.037 70.6339 140.994C70.6877 140.951 70.7496 140.919 70.8158 140.9C70.9501 140.862 71.094 140.879 71.216 140.947C71.338 141.014 71.4282 141.128 71.4669 141.262C71.4895 141.39 71.5128 141.522 71.5398 141.674C71.6525 142.34 71.5947 143.024 71.3717 143.662C71.3397 143.747 71.2858 143.823 71.2154 143.881C71.1449 143.939 71.0605 143.977 70.9705 143.992ZM45.8925 146.562C45.8226 146.574 45.7509 146.572 45.6819 146.556C45.6128 146.539 45.5476 146.509 45.4903 146.468C45.433 146.426 45.3846 146.373 45.3479 146.312C45.3113 146.251 45.2872 146.184 45.2771 146.114C45.1867 145.315 45.3244 144.507 45.6741 143.784C45.703 143.721 45.744 143.664 45.7949 143.617C45.8458 143.57 45.9055 143.534 45.9706 143.51C46.0356 143.486 46.1047 143.476 46.1739 143.479C46.2431 143.482 46.311 143.499 46.3737 143.528C46.4364 143.557 46.4929 143.598 46.5397 143.648C46.5866 143.699 46.623 143.758 46.6467 143.823C46.6704 143.887 46.681 143.956 46.6778 144.025C46.6747 144.094 46.6579 144.161 46.6284 144.224C46.3608 144.768 46.2544 145.377 46.3216 145.98C46.3375 146.113 46.3025 146.247 46.2237 146.355C46.1448 146.462 46.0279 146.536 45.8967 146.562L45.8925 146.562ZM69.0824 139.543C68.9518 139.566 68.8173 139.538 68.7068 139.464C68.1488 139.113 67.5516 138.829 66.9274 138.617C66.7962 138.571 66.6887 138.474 66.6287 138.349C66.5686 138.223 66.5608 138.079 66.6071 137.948C66.6533 137.817 66.7498 137.709 66.8752 137.649C67.0007 137.589 67.1448 137.581 67.276 137.628C67.9789 137.867 68.6511 138.188 69.2791 138.584C69.3684 138.641 69.4382 138.724 69.4795 138.822C69.5207 138.919 69.5314 139.027 69.5101 139.131C69.4888 139.235 69.4365 139.33 69.3601 139.403C69.2838 139.477 69.1869 139.525 69.0824 139.543ZM48.2129 142.089C48.0994 142.11 47.982 142.093 47.8791 142.04C47.7763 141.987 47.6937 141.902 47.6441 141.798C47.5946 141.694 47.581 141.576 47.6054 141.463C47.6298 141.35 47.6908 141.248 47.779 141.174C47.9785 141.002 48.1911 140.833 48.4169 140.665C48.5286 140.582 48.6687 140.547 48.8064 140.568C48.9441 140.588 49.068 140.662 49.1509 140.774C49.2339 140.886 49.269 141.026 49.2487 141.163C49.2283 141.301 49.1541 141.425 49.0423 141.508C48.8358 141.664 48.6416 141.817 48.4605 141.972C48.389 142.031 48.3039 142.071 48.2129 142.089Z" fill="#081E7A"/>
<path d="M64.3893 177.729C63.8898 177.816 63.4123 178.001 62.9844 178.273C62.5564 178.545 62.1865 178.899 61.8957 179.315C61.605 179.73 61.3991 180.199 61.2901 180.694C61.181 181.19 61.1708 181.702 61.2601 182.201C61.3599 182.512 61.5389 182.792 61.7794 183.014C62.0199 183.236 62.3138 183.391 62.6323 183.465C63.544 183.679 64.4898 183.706 65.4121 183.543C66.3344 183.38 67.2139 183.031 67.9969 182.517C68.2717 182.34 68.4952 182.093 68.6454 181.802C68.7956 181.512 68.8671 181.187 68.853 180.86C68.7762 180.356 68.5982 179.873 68.3296 179.44C68.061 179.007 67.7074 178.633 67.2903 178.34C66.8731 178.048 66.401 177.843 65.9024 177.738C65.4038 177.633 64.8891 177.63 64.3893 177.729Z" fill="url(#paint19_linear_3160_19087)"/>
<path d="M40.7726 177.658C39.9015 177.968 39.1705 178.581 38.712 179.384C38.2535 180.187 38.098 181.128 38.2735 182.036L38.2837 182.093C38.445 182.741 39.2535 183.271 40.6881 183.371C41.7863 183.458 42.8884 183.263 43.8903 182.805C45.1977 182.208 45.7757 181.434 45.7074 180.782C45.7027 180.743 45.6959 180.705 45.687 180.666C45.5986 180.127 45.3948 179.613 45.0897 179.159C44.7846 178.705 44.3852 178.322 43.9188 178.037C43.4524 177.751 42.9299 177.57 42.387 177.504C41.8441 177.439 41.2934 177.491 40.7726 177.658Z" fill="url(#paint20_linear_3160_19087)"/>
<path d="M90.3292 172.785C90.2518 172.281 90.073 171.798 89.8037 171.365C89.5343 170.932 89.18 170.558 88.762 170.266C88.3441 169.974 87.8713 169.77 87.3721 169.666C86.873 169.562 86.3579 169.56 85.858 169.66C84.9176 169.825 84.0719 170.334 83.4848 171.087C82.8977 171.84 82.611 172.784 82.6802 173.736C82.681 174.116 82.8126 174.484 83.0529 174.778C83.2931 175.072 83.6274 175.274 83.9993 175.35C84.9108 175.567 85.857 175.595 86.7796 175.432C87.7023 175.269 88.5817 174.918 89.3638 174.403C90.0218 173.912 90.4196 173.297 90.3292 172.785Z" fill="url(#paint21_linear_3160_19087)"/>
<path d="M28.9797 166.997C28.4168 166.991 27.8598 167.112 27.3495 167.349C26.8393 167.587 26.3887 167.936 26.0308 168.37C25.673 168.805 25.417 169.314 25.2816 169.861C25.1461 170.407 25.1347 170.977 25.2482 171.528C25.3526 171.829 25.5328 172.098 25.7713 172.31C26.0099 172.521 26.2988 172.667 26.6102 172.734C27.5217 172.951 28.468 172.979 29.3906 172.816C30.3132 172.653 31.1927 172.303 31.9748 171.787C32.626 171.306 32.9344 170.715 32.8586 170.286C32.7188 169.361 32.2489 168.519 31.5358 167.914C30.8227 167.309 29.9146 166.983 28.9797 166.997Z" fill="url(#paint22_linear_3160_19087)"/>
<path d="M94.9312 155.305C94.4293 155.386 93.9489 155.567 93.5183 155.837C93.0876 156.107 92.7156 156.461 92.4241 156.877C92.1327 157.294 91.9277 157.765 91.8215 158.262C91.7152 158.759 91.7097 159.272 91.8053 159.772C91.9096 160.072 92.0892 160.341 92.3269 160.552C92.5647 160.763 92.8526 160.91 93.1632 160.979C94.0747 161.195 95.0209 161.223 95.9436 161.06C96.8662 160.897 97.7457 160.547 98.5277 160.031C98.7973 159.861 99.0186 159.625 99.1703 159.344C99.3221 159.064 99.3991 158.75 99.3941 158.431C99.3207 157.926 99.1449 157.441 98.8773 157.007C98.6096 156.572 98.2559 156.197 97.8379 155.904C97.4199 155.611 96.9464 155.407 96.4465 155.304C95.9466 155.201 95.4309 155.201 94.9312 155.305Z" fill="url(#paint23_linear_3160_19087)"/>
<path d="M63.0059 138.578C62.0803 138.316 61.1233 138.183 60.1616 138.182L60.967 141.393C61.0326 141.765 60.8176 142.185 60.2985 142.571C59.6979 142.97 59.0213 143.24 58.3113 143.366C57.6012 143.491 56.8729 143.469 56.1719 143.3C55.5563 143.115 55.2059 142.794 55.1403 142.422L54.7558 139.137C53.8657 139.465 53.0258 139.916 52.2603 140.476C49.5633 142.48 49.9875 144.882 53.2079 145.84C56.4283 146.799 61.2358 145.95 63.937 143.945C66.6382 141.94 66.2263 139.536 63.0059 138.578Z" fill="#FFECFA"/>
<path d="M57.5089 123.404C57.2013 123.315 56.8858 123.255 56.5667 123.226L56.4099 123.254C56.6995 124.411 56.9475 125.406 56.9434 125.406C56.998 125.716 56.7267 126.083 56.1039 126.363C55.6262 126.582 55.1006 126.674 54.577 126.633C53.8959 126.583 53.5152 126.331 53.4523 126.023L53.2242 123.816L53.0674 123.844C52.7776 123.981 52.5016 124.145 52.2434 124.334C51.3371 125.009 50.9076 125.902 51.065 126.794C51.2225 127.685 51.9326 128.381 53.0146 128.7C53.9081 128.927 54.8395 128.961 55.7472 128.801C56.6549 128.64 57.5182 128.289 58.2801 127.77C59.1871 127.099 59.6159 126.202 59.4584 125.311C59.301 124.42 58.5901 123.72 57.5089 123.404Z" fill="#FFECFA"/>
<path d="M54.495 119.447C56.4322 119.105 57.7252 117.257 57.383 115.32C57.0408 113.383 55.1931 112.09 53.2559 112.432C51.3187 112.774 50.0257 114.622 50.3679 116.559C50.7101 118.497 52.5579 119.79 54.495 119.447Z" fill="url(#paint24_linear_3160_19087)"/>
<path d="M67.6122 195.971C57.3701 197.78 46.7269 197.295 38.1231 194.093C28.6048 190.533 22.2197 183.294 20.616 174.215L21.0286 174.142C22.599 183.032 28.87 190.131 38.2249 193.61C55.3249 199.982 80.53 195.53 94.4122 183.685C99.8675 179.035 105.94 171.061 103.898 159.504L104.311 159.431C105.939 168.646 102.515 177.402 94.6718 184.094C87.6689 190.052 77.8543 194.162 67.6122 195.971Z" fill="#081E7A"/>
<path d="M66.1752 187.844C55.4792 189.733 44.4238 189.588 35.5585 186.954C26.9177 184.387 21.6118 179.86 20.6146 174.215C19.6174 168.57 23.0523 162.504 30.2906 157.131C32.0945 155.804 33.9859 154.6 35.9518 153.527L36.1523 153.892C34.2033 154.956 32.3288 156.151 30.5419 157.47C23.439 162.742 20.0593 168.662 21.0273 174.142C21.9953 179.622 27.1995 184.031 35.6786 186.55C53.2931 191.787 79.6123 187.138 94.3831 176.18C101.486 170.908 104.866 164.988 103.897 159.504C102.928 154.02 97.7254 149.62 89.2463 147.1C87.2103 146.502 85.1379 146.035 83.042 145.703L83.1055 145.291C85.2221 145.623 87.3148 146.092 89.3706 146.695C98.0113 149.263 103.317 153.789 104.314 159.43C105.31 165.071 101.873 171.147 94.6356 176.502C87.208 182.031 76.8713 185.954 66.1752 187.844Z" fill="#081E7A"/>
<path d="M81.8007 168.883L81.5501 168.548C85.9442 165.287 88.0383 161.628 87.4413 158.248C86.3526 151.955 82.9546 146.294 77.9121 142.375C72.8697 138.455 66.546 136.558 60.1786 137.055L60.147 136.635C66.62 136.127 73.0497 138.053 78.1769 142.037C83.304 146.021 86.7594 151.775 87.8663 158.173C88.4925 161.718 86.3426 165.519 81.8007 168.883Z" fill="#081E7A"/>
<path d="M69.5084 174.693L69.3901 174.289L69.7906 174.171L69.9089 174.576L69.5084 174.693Z" fill="#081E7A"/>
<path d="M70.7316 174.341L70.605 173.938L71.4099 173.676L71.5447 174.078L70.7316 174.341ZM72.3377 173.798L72.1988 173.397L72.9979 173.102L73.1451 173.502C72.8855 173.59 72.6193 173.681 72.3465 173.775L72.3377 173.798ZM73.933 173.192L73.7775 172.794C74.0404 172.693 74.3018 172.583 74.5715 172.471L74.7393 172.867L73.933 173.192ZM75.5173 172.525L75.3453 172.13L76.1121 171.773L76.2964 172.166L75.5173 172.525ZM77.0644 171.792L76.876 171.4L77.6245 171.013L77.8217 171.382L77.0644 171.792ZM78.5778 170.989L78.3687 170.6C78.6168 170.463 78.86 170.322 79.1025 170.177L79.3154 170.539C79.0812 170.683 78.8339 170.825 78.5824 170.967L78.5778 170.989ZM80.0484 170.112L79.828 169.755C80.069 169.602 80.3059 169.45 80.5379 169.294L80.7693 169.64C80.5344 169.779 80.2851 169.934 80.0531 170.09L80.0484 170.112Z" fill="#081E7A"/>
<path d="M81.475 169.128L81.2279 168.789L81.5638 168.546L81.8144 168.881L81.475 169.128Z" fill="#081E7A"/>
<path d="M64.0441 175.947C57.2147 177.154 50.3745 176.975 44.9853 175.373C39.5961 173.772 36.2603 170.932 35.6341 167.387C34.5585 161.176 35.7538 154.786 39.0015 149.383C42.2491 143.981 47.3323 139.928 53.3221 137.965L53.4527 138.367C47.5564 140.299 42.5528 144.289 39.3571 149.608C36.1615 154.926 34.9874 161.217 36.0497 167.331C36.6467 170.71 39.8635 173.431 45.1091 174.99C51.8677 176.996 60.9454 176.737 69.3901 174.292L69.5084 174.697C67.7101 175.209 65.8862 175.626 64.0441 175.947Z" fill="#081E7A"/>
<path d="M58.8195 146.203C56.9458 146.572 55.013 146.515 53.1645 146.035C51.5256 145.55 50.5161 144.678 50.3229 143.584C50.1298 142.491 50.775 141.326 52.1483 140.283C52.9952 139.671 53.9276 139.186 54.9156 138.845L55.0587 139.246C54.1107 139.575 53.2153 140.04 52.4004 140.626C51.1589 141.547 50.5687 142.566 50.7334 143.499C50.8981 144.432 51.8052 145.182 53.2794 145.602C56.4246 146.545 61.1702 145.706 63.8187 143.741C65.0602 142.819 65.6504 141.8 65.49 140.892C65.3296 139.984 64.4216 139.204 62.9396 138.764C62.0323 138.51 61.0947 138.381 60.1526 138.38L60.1581 137.953C61.139 137.952 62.1154 138.088 63.059 138.356C64.6986 138.845 65.7073 139.713 65.9048 140.832C66.1024 141.95 65.4527 143.09 64.0751 144.108C62.5028 145.192 60.7065 145.908 58.8195 146.203Z" fill="#081E7A"/>
<path d="M65.4525 183.75C64.4984 183.938 63.5143 183.908 62.5733 183.663C62.2151 183.58 61.8851 183.403 61.6166 183.152C61.3482 182.901 61.1506 182.583 61.0437 182.231C60.9446 181.714 60.9499 181.183 61.0592 180.668C61.1685 180.153 61.3796 179.666 61.6802 179.234C61.9895 178.784 62.3846 178.401 62.8429 178.105C63.3011 177.809 63.8134 177.607 64.3501 177.51C64.8868 177.414 65.4374 177.424 65.9701 177.541C66.5028 177.658 67.007 177.88 67.4537 178.192C67.8824 178.501 68.2452 178.892 68.5206 179.342C68.796 179.792 68.9786 180.293 69.0575 180.816C69.0803 181.183 69.0046 181.55 68.8383 181.879C68.6719 182.207 68.4209 182.486 68.1111 182.685C67.3155 183.234 66.4071 183.598 65.4525 183.75ZM64.4254 177.936C63.9454 178.023 63.4874 178.205 63.0778 178.47C62.6682 178.735 62.3151 179.079 62.0388 179.481C61.768 179.866 61.5776 180.302 61.4791 180.762C61.3806 181.223 61.3759 181.699 61.4654 182.161C61.5572 182.435 61.7182 182.68 61.9328 182.873C62.1473 183.066 62.4081 183.201 62.69 183.264C63.5721 183.472 64.4875 183.498 65.3801 183.34C66.2727 183.183 67.1238 182.845 67.8812 182.347C68.1244 182.191 68.3234 181.975 68.4587 181.72C68.5941 181.465 68.6613 181.18 68.6538 180.891C68.5847 180.425 68.4224 179.977 68.1765 179.574C67.9307 179.172 67.6064 178.823 67.2229 178.548C66.8217 178.263 66.3671 178.062 65.8865 177.957C65.4059 177.852 64.9089 177.845 64.4254 177.936Z" fill="#081E7A"/>
<path d="M42.5696 183.473C42.0127 183.572 41.4456 183.599 40.8818 183.554C39.4498 183.445 38.4814 182.902 38.2856 182.106L38.2732 182.036C38.0901 181.079 38.2556 180.087 38.7398 179.24C39.224 178.394 39.9949 177.749 40.9133 177.421C41.4509 177.241 42.0211 177.18 42.5846 177.242C43.1481 177.304 43.6914 177.488 44.1769 177.781C44.6807 178.084 45.1135 178.492 45.4459 178.978C45.7783 179.463 46.0026 180.014 46.1035 180.594C46.1148 180.635 46.1223 180.678 46.1261 180.721C46.2229 181.534 45.4994 182.377 44.1913 182.97C43.6744 183.206 43.1294 183.375 42.5696 183.473ZM41.0433 177.819C40.2203 178.115 39.5303 178.695 39.0979 179.455C38.6656 180.215 38.5194 181.105 38.6859 181.963L38.6961 182.021C38.8438 182.616 39.6719 183.04 40.915 183.14C41.9762 183.22 43.0406 183.032 44.0099 182.593C45.1437 182.074 45.7772 181.396 45.705 180.77C45.7013 180.761 45.6995 180.751 45.6999 180.741L45.6867 180.667C45.5977 180.147 45.3977 179.653 45.1004 179.217C44.8032 178.781 44.4156 178.414 43.964 178.142C43.5312 177.877 43.0458 177.709 42.5417 177.651C42.0375 177.594 41.5268 177.646 41.0452 177.806L41.0433 177.819Z" fill="#081E7A"/>
<path d="M86.8239 175.634C85.8701 175.821 84.8868 175.792 83.9454 175.551C83.5327 175.463 83.1623 175.237 82.895 174.911C82.6277 174.585 82.4796 174.177 82.475 173.755C82.399 172.75 82.7 171.752 83.3194 170.957C83.9389 170.161 84.8323 169.625 85.8256 169.453C86.3526 169.347 86.8955 169.35 87.4215 169.46C87.9475 169.57 88.4457 169.786 88.8862 170.094C89.3267 170.401 89.7002 170.795 89.9844 171.251C90.2685 171.708 90.4574 172.217 90.5396 172.748C90.6409 173.321 90.2405 174.018 89.4997 174.57C88.698 175.119 87.7839 175.483 86.8239 175.634ZM85.8985 169.865C85.0082 170.019 84.2071 170.499 83.6516 171.212C83.0961 171.924 82.8261 172.818 82.8942 173.719C82.8929 174.056 83.0086 174.382 83.2215 174.643C83.4344 174.903 83.7313 175.082 84.0613 175.147C84.9433 175.358 85.8591 175.385 86.7521 175.227C87.645 175.07 88.4961 174.73 89.2526 174.23C89.8545 173.784 90.1962 173.213 90.1233 172.8C90.0471 172.325 89.8758 171.871 89.6198 171.464C89.3638 171.058 89.0282 170.707 88.6334 170.433C88.2385 170.159 87.7923 169.967 87.3217 169.87C86.8511 169.773 86.3656 169.771 85.8944 169.866L85.8985 169.865Z" fill="#081E7A"/>
<path d="M29.4422 173.018C28.4887 173.206 27.5049 173.178 26.5638 172.935C26.2132 172.86 25.8885 172.694 25.6221 172.455C25.3557 172.215 25.157 171.909 25.0459 171.569C24.9257 171.003 24.9319 170.417 25.0641 169.854C25.1963 169.291 25.4513 168.764 25.8107 168.31C26.1948 167.843 26.6763 167.464 27.2216 167.202C27.7668 166.94 28.3628 166.799 28.9679 166.791C29.9605 166.76 30.93 167.094 31.6926 167.731C32.4552 168.367 32.9579 169.261 33.1053 170.243C33.2008 170.784 32.831 171.436 32.1305 171.951C31.3263 172.505 30.4073 172.869 29.4422 173.018ZM28.3846 167.247C27.5039 167.395 26.7069 167.858 26.1423 168.549C25.8205 168.955 25.5925 169.427 25.4748 169.931C25.3571 170.435 25.3526 170.959 25.4617 171.465C25.5587 171.731 25.7212 171.967 25.934 172.153C26.1468 172.338 26.4031 172.467 26.679 172.527C27.561 172.738 28.4768 172.765 29.3697 172.607C30.2627 172.449 31.1137 172.11 31.8702 171.61C32.4981 171.142 32.723 170.608 32.6713 170.315C32.5412 169.437 32.095 168.636 31.4163 168.063C30.7377 167.491 29.8734 167.185 28.9857 167.205C28.7853 167.211 28.5856 167.232 28.3883 167.268L28.3846 167.247Z" fill="#081E7A"/>
<path d="M95.9829 161.263C95.0293 161.451 94.0457 161.422 93.1044 161.18C92.7534 161.106 92.4281 160.941 92.1615 160.701C91.8949 160.462 91.6966 160.155 91.5866 159.814C91.4822 159.3 91.4825 158.769 91.5876 158.255C91.6927 157.741 91.9004 157.253 92.1983 156.821C92.8357 155.916 93.8054 155.3 94.8955 155.107C95.9857 154.914 97.1078 155.161 98.0167 155.793C98.4429 156.103 98.8025 156.495 99.0745 156.946C99.3464 157.397 99.525 157.898 99.5999 158.42C99.6131 158.778 99.5314 159.134 99.3632 159.45C99.195 159.767 98.9461 160.033 98.6418 160.223C97.8435 160.762 96.9353 161.118 95.9829 161.263ZM94.9668 155.51C94.4827 155.596 94.0203 155.777 93.6063 156.042C93.1923 156.307 92.8349 156.652 92.5547 157.056C92.2889 157.442 92.1036 157.878 92.0101 158.338C91.9165 158.797 91.9165 159.271 92.0101 159.731C92.1072 159.996 92.2697 160.232 92.4825 160.418C92.6953 160.603 92.9516 160.732 93.2275 160.792C94.1087 161.003 95.0238 161.03 95.9161 160.872C96.8084 160.715 97.6587 160.376 98.4145 159.876C98.6532 159.725 98.8498 159.516 98.9861 159.269C99.1225 159.022 99.1941 158.744 99.1945 158.462C99.1276 157.996 98.9684 157.548 98.7261 157.144C98.4838 156.74 98.1633 156.389 97.7835 156.111C97.3778 155.828 96.9195 155.629 96.4358 155.526C95.9521 155.423 95.4526 155.418 94.9668 155.51Z" fill="#081E7A"/>
<path d="M58.3539 143.56C57.6172 143.705 56.8575 143.683 56.1301 143.498C55.4516 143.294 55.0333 142.925 54.9502 142.455L53.6465 129.919L54.0642 129.875L55.372 142.41C55.4223 142.695 55.7452 142.957 56.2524 143.106C56.9199 143.264 57.6128 143.285 58.2884 143.165C58.964 143.046 59.608 142.789 60.1809 142.412C60.6063 142.098 60.8199 141.742 60.7696 141.457L57.4789 128.345L57.8865 128.243L61.1907 141.336C61.2768 141.823 61.0101 142.312 60.4438 142.744C59.817 143.169 59.1028 143.448 58.3539 143.56Z" fill="#081E7A"/>
<path d="M55.7801 128.986C54.8424 129.166 53.8761 129.131 52.9538 128.885C51.7902 128.537 51.0271 127.783 50.8558 126.813C50.6845 125.843 51.1422 124.869 52.1169 124.148C52.3806 123.951 52.6625 123.78 52.9587 123.637L53.143 124.03C52.8632 124.159 52.5972 124.316 52.3491 124.498C51.5105 125.123 51.1113 125.946 51.2542 126.755C51.397 127.564 52.0596 128.183 53.0697 128.481C53.9327 128.696 54.8313 128.728 55.7072 128.573C56.583 128.418 57.4165 128.081 58.1536 127.583C58.9922 126.959 59.3921 126.139 59.2493 125.33C59.1064 124.521 58.4492 123.884 57.4473 123.585C57.1598 123.499 56.8646 123.441 56.5659 123.413L56.6003 122.981C56.9332 123.01 57.2623 123.073 57.5825 123.169C58.7453 123.513 59.5083 124.267 59.6804 125.241C59.8524 126.215 59.3748 127.197 58.3967 127.923C57.6158 128.47 56.7212 128.833 55.7801 128.986Z" fill="#081E7A"/>
<path d="M55.3894 126.774C54.9336 126.862 54.464 126.846 54.0152 126.727C53.8359 126.695 53.669 126.615 53.5328 126.494C53.3965 126.373 53.2963 126.217 53.2432 126.043L52.5775 119.624L52.9959 119.584L53.658 125.982C53.6813 126.114 53.8617 126.244 54.1436 126.322C54.5308 126.411 54.9321 126.422 55.3235 126.353C55.7149 126.284 56.0883 126.136 56.4214 125.919C56.6505 125.747 56.7838 125.562 56.7575 125.413C56.7313 125.265 55.8342 121.704 55.4925 120.347L55.9 120.246C56.858 124.055 57.1061 125.05 57.1537 125.343C57.2013 125.637 57.0572 125.977 56.6885 126.251C56.3014 126.523 55.8569 126.702 55.3894 126.774Z" fill="#081E7A"/>
<path d="M54.5072 119.759C53.7726 119.889 53.0161 119.798 52.3333 119.498C51.6504 119.197 51.072 118.702 50.671 118.073C50.27 117.444 50.0646 116.71 50.0806 115.964C50.0967 115.218 50.3335 114.494 50.7611 113.883C51.1888 113.272 51.7881 112.801 52.4832 112.531C53.1783 112.26 53.938 112.202 54.6663 112.363C55.3946 112.524 56.0587 112.898 56.5747 113.436C57.0906 113.975 57.4353 114.655 57.565 115.389C57.739 116.374 57.5146 117.388 56.9412 118.207C56.3677 119.027 55.4922 119.585 54.5072 119.759ZM53.268 112.744C52.6151 112.859 52.011 113.166 51.5322 113.624C51.0534 114.083 50.7213 114.673 50.578 115.321C50.4347 115.968 50.4866 116.643 50.7271 117.261C50.9676 117.879 51.3859 118.412 51.9291 118.792C52.4724 119.172 53.1162 119.383 53.779 119.397C54.4419 119.411 55.0941 119.228 55.6532 118.872C56.2123 118.516 56.6532 118.001 56.92 117.394C57.1869 116.787 57.2677 116.115 57.1524 115.462C56.9977 114.586 56.5016 113.808 55.7731 113.299C55.0447 112.789 54.1435 112.589 53.268 112.744Z" fill="#081E7A"/>
<defs>
<linearGradient id="paint0_linear_3160_19087" x1="144.819" y1="118.995" x2="160.295" y2="144.907" gradientUnits="userSpaceOnUse">
<stop stop-color="#E64C4E"/>
<stop offset="1" stop-color="#EF33F9"/>
</linearGradient>
<linearGradient id="paint1_linear_3160_19087" x1="157.485" y1="88.0791" x2="164.771" y2="98.3353" gradientUnits="userSpaceOnUse">
<stop stop-color="#E64C4E"/>
<stop offset="1" stop-color="#EF33F9"/>
</linearGradient>
<linearGradient id="paint2_linear_3160_19087" x1="162.648" y1="26.8906" x2="178.985" y2="48.4146" gradientUnits="userSpaceOnUse">
<stop stop-color="#E64C4E"/>
<stop offset="1" stop-color="#EF33F9"/>
</linearGradient>
<linearGradient id="paint3_linear_3160_19087" x1="129.314" y1="93.6709" x2="154.645" y2="110.904" gradientUnits="userSpaceOnUse">
<stop stop-color="#E64C4E"/>
<stop offset="1" stop-color="#EF33F9"/>
</linearGradient>
<linearGradient id="paint4_linear_3160_19087" x1="174.126" y1="101.03" x2="199.531" y2="118.235" gradientUnits="userSpaceOnUse">
<stop stop-color="#E64C4E"/>
<stop offset="1" stop-color="#EF33F9"/>
</linearGradient>
<linearGradient id="paint5_linear_3160_19087" x1="2.63599" y1="58.2568" x2="16.0936" y2="67.1444" gradientUnits="userSpaceOnUse">
<stop stop-color="#E64C4E"/>
<stop offset="1" stop-color="#EF33F9"/>
</linearGradient>
<linearGradient id="paint6_linear_3160_19087" x1="2.63599" y1="69.8018" x2="15.8522" y2="78.7885" gradientUnits="userSpaceOnUse">
<stop stop-color="#E64C4E"/>
<stop offset="1" stop-color="#EF33F9"/>
</linearGradient>
<linearGradient id="paint7_linear_3160_19087" x1="25.9158" y1="44.6201" x2="39.3759" y2="53.5066" gradientUnits="userSpaceOnUse">
<stop stop-color="#E64C4E"/>
<stop offset="1" stop-color="#EF33F9"/>
</linearGradient>
<linearGradient id="paint8_linear_3160_19087" x1="25.9158" y1="56.165" x2="39.132" y2="65.1518" gradientUnits="userSpaceOnUse">
<stop stop-color="#E64C4E"/>
<stop offset="1" stop-color="#EF33F9"/>
</linearGradient>
<linearGradient id="paint9_linear_3160_19087" x1="14.0564" y1="51.4414" x2="27.514" y2="60.329" gradientUnits="userSpaceOnUse">
<stop stop-color="#E64C4E"/>
<stop offset="1" stop-color="#EF33F9"/>
</linearGradient>
<linearGradient id="paint10_linear_3160_19087" x1="14.0564" y1="62.9854" x2="27.2727" y2="71.9721" gradientUnits="userSpaceOnUse">
<stop stop-color="#E64C4E"/>
<stop offset="1" stop-color="#EF33F9"/>
</linearGradient>
<linearGradient id="paint11_linear_3160_19087" x1="72.0369" y1="17.6621" x2="85.4945" y2="26.5497" gradientUnits="userSpaceOnUse">
<stop stop-color="#E64C4E"/>
<stop offset="1" stop-color="#EF33F9"/>
</linearGradient>
<linearGradient id="paint12_linear_3160_19087" x1="72.0369" y1="29.207" x2="83.6218" y2="38.6776" gradientUnits="userSpaceOnUse">
<stop stop-color="#E64C4E"/>
<stop offset="1" stop-color="#EF33F9"/>
</linearGradient>
<linearGradient id="paint13_linear_3160_19087" x1="95.3169" y1="4.02539" x2="108.775" y2="12.913" gradientUnits="userSpaceOnUse">
<stop stop-color="#E64C4E"/>
<stop offset="1" stop-color="#EF33F9"/>
</linearGradient>
<linearGradient id="paint14_linear_3160_19087" x1="95.3169" y1="15.5703" x2="108.533" y2="24.5571" gradientUnits="userSpaceOnUse">
<stop stop-color="#E64C4E"/>
<stop offset="1" stop-color="#EF33F9"/>
</linearGradient>
<linearGradient id="paint15_linear_3160_19087" x1="83.8972" y1="10.8418" x2="97.3548" y2="19.7294" gradientUnits="userSpaceOnUse">
<stop stop-color="#E64C4E"/>
<stop offset="1" stop-color="#EF33F9"/>
</linearGradient>
<linearGradient id="paint16_linear_3160_19087" x1="83.8972" y1="22.3867" x2="97.1135" y2="31.3735" gradientUnits="userSpaceOnUse">
<stop stop-color="#E64C4E"/>
<stop offset="1" stop-color="#EF33F9"/>
</linearGradient>
<linearGradient id="paint17_linear_3160_19087" x1="60.4587" y1="42.1318" x2="87.5744" y2="63.0986" gradientUnits="userSpaceOnUse">
<stop stop-color="#E64C4E"/>
<stop offset="1" stop-color="#EF33F9"/>
</linearGradient>
<linearGradient id="paint18_linear_3160_19087" x1="70.8467" y1="49.4941" x2="91.2447" y2="65.3733" gradientUnits="userSpaceOnUse">
<stop stop-color="#E64C4E"/>
<stop offset="1" stop-color="#EF33F9"/>
</linearGradient>
<linearGradient id="paint19_linear_3160_19087" x1="60.5886" y1="178.399" x2="67.4965" y2="184.739" gradientUnits="userSpaceOnUse">
<stop stop-color="#E64C4E"/>
<stop offset="1" stop-color="#EF33F9"/>
</linearGradient>
<linearGradient id="paint20_linear_3160_19087" x1="37.5928" y1="178.185" x2="44.4471" y2="184.392" gradientUnits="userSpaceOnUse">
<stop stop-color="#E64C4E"/>
<stop offset="1" stop-color="#EF33F9"/>
</linearGradient>
<linearGradient id="paint21_linear_3160_19087" x1="82.0537" y1="170.331" x2="88.886" y2="176.672" gradientUnits="userSpaceOnUse">
<stop stop-color="#E64C4E"/>
<stop offset="1" stop-color="#EF33F9"/>
</linearGradient>
<linearGradient id="paint22_linear_3160_19087" x1="24.5723" y1="167.71" x2="31.4321" y2="174.046" gradientUnits="userSpaceOnUse">
<stop stop-color="#E64C4E"/>
<stop offset="1" stop-color="#EF33F9"/>
</linearGradient>
<linearGradient id="paint23_linear_3160_19087" x1="91.134" y1="155.974" x2="97.9682" y2="162.304" gradientUnits="userSpaceOnUse">
<stop stop-color="#E64C4E"/>
<stop offset="1" stop-color="#EF33F9"/>
</linearGradient>
<linearGradient id="paint24_linear_3160_19087" x1="49.7483" y1="113.052" x2="58.0026" y2="118.828" gradientUnits="userSpaceOnUse">
<stop stop-color="#E64C4E"/>
<stop offset="1" stop-color="#EF33F9"/>
</linearGradient>
</defs>
</svg>
