<svg width="162" height="184" viewBox="0 0 162 184" fill="none" xmlns="http://www.w3.org/2000/svg">
<path opacity="0.08" d="M0.778137 154.51L50.7853 183.332C51.5418 183.768 52.4 183.997 53.2736 183.997C54.1472 183.997 55.0054 183.768 55.7619 183.332L161.287 122.572C161.505 122.437 161.685 122.249 161.81 122.026C161.935 121.803 162 121.551 162 121.296C162 121.04 161.935 120.789 161.81 120.565C161.685 120.342 161.505 120.154 161.287 120.019L111.295 91.1971C110.54 90.7622 109.683 90.5332 108.811 90.5332C107.939 90.5332 107.082 90.7622 106.326 91.1971L0.778137 151.957C0.560242 152.092 0.380417 152.28 0.255722 152.503C0.131027 152.727 0.0655823 152.978 0.0655823 153.234C0.0655823 153.489 0.131027 153.741 0.255722 153.964C0.380417 154.187 0.560242 154.375 0.778137 154.51Z" fill="black"/>
<path d="M17.7859 60.8132C21.7536 58.4482 34.4023 51.0531 46.8401 43.7631C46.8401 43.6805 49.8516 37.0061 49.8516 37.0061C54.3012 26.8556 61.7248 18.079 69.6602 13.5143L81.6388 6.75734C87.6619 3.31128 93.3312 2.59053 97.6905 4.57258C98.609 4.99302 106.017 9.07723 106.017 9.07723C113.787 4.55757 119.125 1.50191 119.938 1.12652C123.364 -0.465121 127.912 0.000359699 132.896 2.85331C143.549 9.00966 152.192 23.86 152.192 36.0751V114.907C152.191 115.984 151.907 117.042 151.368 117.976C150.829 118.91 150.054 119.687 149.121 120.23L54.3313 175.351C53.7623 175.683 53.1044 175.83 52.4479 175.774C51.7914 175.717 51.1686 175.46 50.6648 175.036L14.6463 154.262C13.8883 153.823 13.2592 153.193 12.8219 152.436C12.3845 151.678 12.1543 150.819 12.1543 149.945V73.0808C12.1543 67.4725 14.3075 62.9228 17.7859 60.8132Z" fill="white"/>
<path d="M20.0215 59.702C23.1159 59.0488 26.8728 59.7771 30.9158 62.1045C41.5467 68.2308 50.1749 83.0736 50.1749 95.2662V109.696C50.1708 111.154 50.5537 112.586 51.2845 113.848C52.0154 115.111 53.0682 116.157 54.3361 116.883C55.6039 117.608 57.0417 117.986 58.5033 117.977C59.9648 117.969 61.3982 117.575 62.6578 116.836L141.584 71.1363C144.696 69.3254 147.278 66.7334 149.073 63.6182C150.868 60.503 151.813 56.9733 151.815 53.3804V36.3754C151.815 24.1828 143.187 9.34748 132.556 3.21364C127.58 0.345682 123.04 -0.0972753 119.622 1.50188C118.778 1.87726 24.0269 57.337 20.0215 59.702Z" fill="#FFECFA"/>
<path d="M114.924 82.9685L96.8544 93.3668V88.8621C96.9361 87.4096 97.3588 85.9965 98.0885 84.7368C98.8183 83.4771 99.8346 82.4059 101.056 81.6096L110.685 76.0689C113.011 74.725 114.909 75.8061 114.909 78.4789L114.924 82.9685Z" fill="url(#paint0_linear_2912_18319)"/>
<path d="M114.051 91.1065L96.9674 100.949C95.6574 101.7 94.5958 101.084 94.5958 99.5828V96.8499C94.641 96.028 94.8791 95.2282 95.291 94.5149C95.703 93.8016 96.2772 93.1947 96.9674 92.7432L114.051 82.908C115.361 82.1573 116.43 82.7729 116.43 84.2745V87.0073C116.383 87.8286 116.143 88.6273 115.729 89.3393C115.316 90.0513 114.741 90.6566 114.051 91.1065Z" fill="#FFECFA"/>
<path d="M21.6251 59.3112C38.234 58.6129 50.4911 83.6888 50.0092 92.1576C48.8949 112.091 50.9277 112.977 50.9277 112.977V174.78L15.0223 154.074C14.2642 153.635 13.6351 153.005 13.1978 152.248C12.7604 151.49 12.5302 150.631 12.5302 149.757V73.2381C12.5302 66.1132 16.2871 59.5139 21.6251 59.3112Z" fill="white"/>
<path d="M48.0449 46.826C47.4999 46.5074 47.0913 46.0001 46.897 45.4007C46.7026 44.8013 46.736 44.1516 46.9909 43.5751L49.8594 37.0359C54.3767 26.9605 61.7626 18.2064 69.6831 13.6417L81.639 6.88472C87.6621 3.43866 93.3088 2.72542 97.6606 4.69996C99.076 5.33812 107.96 10.2107 110.174 12.6582L112.899 15.6613C113.046 15.7913 113.159 15.9543 113.229 16.1367C113.3 16.319 113.326 16.5156 113.306 16.71C113.285 16.9044 113.218 17.0912 113.111 17.2548C113.004 17.4184 112.859 17.5542 112.688 17.6508C112.267 17.9136 111.77 18.1764 111.273 18.4542C109.895 19.2049 107.629 17.5457 107.629 17.5457C103.623 13.1162 96.9604 12.9134 89.8455 17.0127L80.8108 22.0729C73.6884 26.1721 67.0329 34.0403 63.0199 43.0946L62.7489 43.7178C61.7643 45.9253 60.1038 47.7651 58.0057 48.9732L57.6142 49.1909C56.776 49.6761 55.824 49.9317 54.8548 49.9317C53.8856 49.9317 52.9337 49.6761 52.0955 49.1909L48.0449 46.826Z" fill="#FFECFA"/>
<path d="M59.3157 38.6576C62.2358 33.5914 65.459 28.7051 68.9678 24.025C72.1977 19.9784 90.1919 10.6387 94.664 9.0846C99.1362 7.5305 102.78 8.46146 106.424 9.97803C106.916 10.1873 107.396 10.4229 107.862 10.6838C108.694 11.2467 109.469 11.8905 110.174 12.6057L112.899 15.6088C113.046 15.7389 113.159 15.9019 113.229 16.0842C113.3 16.2666 113.326 16.4631 113.306 16.6576C113.285 16.852 113.218 17.0387 113.111 17.2023C113.004 17.366 112.859 17.5017 112.688 17.5984C112.267 17.8612 111.77 18.1314 111.273 18.4092C109.895 19.16 107.629 17.5008 107.629 17.5008C103.623 13.0637 96.9604 12.861 89.8455 16.9602L80.8108 22.028C73.6884 26.1272 67.0329 33.9953 63.02 43.0497L62.7489 43.6803C61.7635 45.8873 60.1032 47.7268 58.0057 48.9357L57.6142 49.161C56.8684 49.6042 56.0265 49.8617 55.1597 49.9118C54.9038 49.9643 55.1598 48.4928 55.2501 48.0874C55.8825 45.6248 56.1912 44.2509 59.3157 38.6576Z" fill="url(#paint1_linear_2912_18319)"/>
<path d="M52.6449 176.335C53.1982 176.317 53.7366 176.151 54.2034 175.854L148.932 120.515C149.921 119.937 150.742 119.113 151.314 118.123C151.885 117.133 152.188 116.011 152.192 114.869V59.9795H151.439V114.869C151.437 115.881 151.17 116.876 150.665 117.754C150.159 118.633 149.432 119.364 148.556 119.876L53.8194 175.216C53.5912 175.379 53.3305 175.491 53.055 175.544C52.7795 175.597 52.4958 175.59 52.2232 175.524C52.0102 175.447 51.8156 175.326 51.6522 175.17C51.4888 175.014 51.3602 174.825 51.2746 174.615L50.5819 174.916C50.7119 175.222 50.9041 175.498 51.1464 175.727C51.3887 175.956 51.6759 176.132 51.9898 176.245C52.2021 176.309 52.4231 176.339 52.6449 176.335Z" fill="#081E7A"/>
<path d="M58.4573 118.142C59.9911 118.139 61.4961 117.727 62.8166 116.949L93.0527 99.4405L92.6763 98.7873L62.4401 116.303C61.2389 117.002 59.874 117.372 58.4834 117.376C57.0928 117.381 55.7256 117.02 54.5197 116.329C53.3139 115.638 52.312 114.643 51.6154 113.442C50.9188 112.242 50.5519 110.88 50.5519 109.493V95.0559C50.5519 82.7657 41.8259 67.7427 31.1047 61.5714C27.8221 59.6869 24.6223 58.7785 21.7688 58.8986C26.512 56.0982 35.8404 50.6401 46.9305 44.0783L46.5465 43.4326C34.0786 50.7677 23.8317 56.8039 19.8263 59.1989C19.7489 59.2432 19.6901 59.3141 19.661 59.3983C19.632 59.4825 19.6345 59.5744 19.6682 59.6569C19.7003 59.7402 19.7612 59.8094 19.8398 59.8521C19.9185 59.8947 20.0098 59.908 20.0974 59.8896C23.2219 59.2214 26.8734 60.0398 30.7282 62.2471C41.2687 68.2983 49.799 83.0285 49.799 95.0785V109.516C49.805 111.805 50.7186 113.999 52.3406 115.62C53.9627 117.24 56.1614 118.155 58.4573 118.165V118.142Z" fill="#081E7A"/>
<path d="M117.815 85.1231L141.772 71.2487C144.936 69.3994 147.561 66.7591 149.389 63.5886C151.216 60.418 152.182 56.827 152.192 53.1701V36.165C152.192 23.8748 143.466 8.85932 132.745 2.68044C127.844 -0.142473 123.123 -0.750601 119.464 0.938643C118.659 1.31403 114.104 3.94174 105.528 8.89686L105.912 9.54253C114.344 4.64747 119.005 1.98222 119.78 1.62185C123.214 0.00017436 127.686 0.638333 132.369 3.33362C142.909 9.38486 151.439 24.1151 151.439 36.165V53.1701C151.425 56.6908 150.491 60.1472 148.73 63.1987C146.969 66.2503 144.441 68.7918 141.396 70.573L117.431 84.4474L117.815 85.1231Z" fill="#081E7A"/>
<path d="M68.6809 103.93C69.5407 103.763 70.3657 103.45 71.1202 103.006L71.459 102.811L70.9772 101.993L70.6384 102.188C69.9769 102.577 69.2538 102.851 68.5002 102.999L68.6809 103.93ZM65.6693 103.93L65.8651 102.999C64.9901 102.818 64.159 102.469 63.4181 101.97L62.8911 102.759C63.7346 103.316 64.6778 103.706 65.6693 103.907V103.93ZM73.9511 101.4L76.4206 99.9658L75.9388 99.1474L73.4768 100.581L73.9511 101.4ZM60.783 100.649L61.5736 100.131C61.0829 99.3889 60.745 98.5569 60.5797 97.6834L59.6462 97.8636C59.8248 98.84 60.1959 99.7714 60.7378 100.604L60.783 100.649ZM78.8525 98.5693L81.3144 97.1354L80.8401 96.317L78.3706 97.7435L78.8525 98.5693ZM83.7387 95.6488L86.2007 94.2148L85.7188 93.3965L83.2569 94.8305L83.7387 95.6488ZM59.1794 95.1383H59.9323V92.1352H59.1794V95.1383ZM88.6627 92.7809L91.1321 91.3469L90.6503 90.5285L88.1883 91.9625L88.6627 92.7809ZM93.5941 89.9204L96.0561 88.4864L95.5817 87.6681L93.1122 89.0946L93.5941 89.9204ZM60.384 89.1696C60.3473 88.2 60.2618 87.2328 60.128 86.2717L59.1869 86.3993C59.3149 87.3453 59.3977 88.2687 59.4353 89.1621L60.384 89.1696ZM58.6824 83.6965L59.6085 83.4863C59.4052 82.5778 59.1568 81.6394 58.8556 80.7009L57.9446 80.9787C58.2759 81.8346 58.5093 82.7805 58.7126 83.6665L58.6824 83.6965ZM57.0713 78.3059L57.9597 77.9756C57.6359 77.0972 57.2745 76.2038 56.8906 75.3103L56.0172 75.6932C56.4238 76.5341 56.7852 77.4125 57.1014 78.2759L57.0713 78.3059ZM118.244 75.6181L120.706 74.1842L120.224 73.3658L117.762 74.7998L118.244 75.6181ZM54.8201 73.1331L55.6709 72.7126C55.2417 71.8568 54.79 71.0009 54.3232 70.175L53.495 70.6405C53.9844 71.4288 54.4286 72.2622 54.8502 73.103L54.8201 73.1331ZM123.168 72.7502L125.667 71.3237L125.148 70.4753L122.686 71.9018L123.168 72.7502ZM128.159 69.8597L130.621 68.4257L130.147 67.6074L127.647 69.0714L128.159 69.8597ZM52.1172 68.193L52.8701 67.69C52.3431 66.8641 51.801 66.0608 51.2664 65.3025L50.5136 65.8581C51.018 66.6013 51.5526 67.3897 52.0721 68.193H52.1172ZM133.061 66.9917L135.523 65.5578L135.041 64.7394L132.579 66.1734L133.061 66.9917ZM137.902 63.816C138.644 63.1839 139.336 62.4962 139.972 61.7588L139.219 61.1357C138.618 61.838 137.961 62.4908 137.254 63.0877L137.902 63.816ZM48.7819 63.5757L49.5348 62.9826C48.9174 62.2318 48.2775 61.481 47.6526 60.8053L46.9524 61.451C47.5547 62.1417 48.1721 62.855 48.7819 63.6057V63.5757ZM44.9422 59.469L45.5821 58.7707C44.8645 58.1181 44.1104 57.5065 43.3234 56.9389L42.7663 57.6896C43.5267 58.2495 44.2533 58.8537 44.9422 59.499V59.469ZM141.711 59.4314C142.217 58.5995 142.66 57.7312 143.037 56.8337L142.163 56.4659C141.805 57.3177 141.382 58.1409 140.898 58.9284L141.711 59.4314ZM143.97 54.0559C144.198 53.1107 144.351 52.1493 144.429 51.1804L143.481 51.1053C143.406 52.0262 143.26 52.9399 143.044 53.8382L143.97 54.0559ZM143.579 48.5902H144.332V45.5871H143.579V48.5902ZM143.579 42.584H144.332V39.5809H143.579V42.584ZM143.518 36.9307H144.475C144.442 35.9635 144.359 34.9987 144.226 34.0402L143.278 34.1753C143.396 35.0893 143.461 36.0093 143.473 36.9307H143.518ZM142.766 31.405L143.692 31.1798C143.473 30.2638 143.21 29.3328 142.939 28.4094L142.035 28.7022C142.246 29.6031 142.464 30.5116 142.713 31.405H142.766ZM140.959 26.067L141.839 25.7066C141.478 24.8357 141.087 23.9573 140.642 23.0864L139.792 23.5143C140.206 24.3552 140.62 25.2186 140.959 26.067ZM138.451 21.0218L139.272 20.5413C138.79 19.7154 138.263 18.8971 137.721 18.1088L136.968 18.6418C137.473 19.4376 137.947 20.271 138.451 21.0218ZM135.267 16.382L136.02 15.7964C135.417 15.0456 134.785 14.2948 134.137 13.6116L133.43 14.2648C134.055 14.948 134.672 15.6687 135.267 16.4045V16.382ZM131.427 12.2827L132.067 11.5845C131.347 10.9325 130.593 10.3185 129.808 9.74512L129.244 10.4959C129.996 11.0665 130.719 11.6671 131.427 12.3053V12.2827Z" fill="#081E7A"/>
<path d="M99.1131 99.7107V102.969C99.1131 104.974 100.529 105.777 102.275 104.771L109.495 100.604C110.416 100.006 111.183 99.2005 111.734 98.2523C112.284 97.3041 112.603 96.2399 112.665 95.146V91.6398L114.924 90.5137V94.9658C114.841 96.4227 114.416 97.8399 113.682 99.1025C112.948 100.365 111.927 101.438 110.7 102.233L101.056 107.789C98.7291 109.133 96.8393 108.052 96.8393 105.379V101.265L99.1131 99.7107Z" fill="url(#paint2_linear_2912_18319)"/>
<path d="M100.86 105.582C101.428 105.562 101.981 105.393 102.464 105.094L109.684 100.942C110.66 100.309 111.472 99.4559 112.056 98.4515C112.639 97.4471 112.977 96.3198 113.042 95.1609V91.6548H112.289V95.1609C112.227 96.1916 111.922 97.1932 111.399 98.0842C110.875 98.9752 110.149 99.7305 109.278 100.289L102.057 104.448C101.793 104.645 101.481 104.769 101.154 104.809C100.826 104.848 100.494 104.801 100.19 104.673C99.925 104.481 99.7158 104.221 99.5836 103.922C99.4513 103.623 99.4009 103.294 99.4372 102.969V99.7106H98.6843V102.969C98.6412 103.424 98.7211 103.881 98.9157 104.295C99.1104 104.708 99.4127 105.062 99.7911 105.319C100.116 105.503 100.486 105.594 100.86 105.582Z" fill="#081E7A"/>
<path d="M96.478 92.6759H97.2309V88.877C97.31 87.4857 97.7157 86.1324 98.4154 84.9262C99.115 83.7199 100.089 82.6944 101.259 81.9323L110.888 76.3916C111.258 76.1149 111.695 75.9413 112.154 75.8885C112.613 75.8358 113.078 75.9057 113.501 76.0912C113.87 76.3631 114.16 76.7267 114.344 77.1456C114.528 77.5646 114.598 78.0242 114.547 78.4787V82.5855H115.3V78.4637C115.353 77.8822 115.248 77.2972 114.998 76.7693C114.748 76.2414 114.361 75.7896 113.877 75.4606C112.959 74.9275 111.762 75.0327 110.512 75.7534L100.882 81.2941C99.6044 82.1297 98.5404 83.2522 97.7756 84.5716C97.0107 85.8909 96.5664 87.3706 96.478 88.892V92.6759Z" fill="#081E7A"/>
<path d="M99.1813 108.743C99.9165 108.718 100.633 108.503 101.259 108.119L110.889 102.579C112.168 101.744 113.234 100.622 114 99.3024C114.766 97.983 115.212 96.503 115.301 94.9809V90.5288H114.548V94.9809C114.467 96.3727 114.06 97.7262 113.359 98.9324C112.658 100.139 111.683 101.164 110.512 101.926L100.883 107.466C100.512 107.739 100.075 107.911 99.6167 107.964C99.1584 108.016 98.6942 107.948 98.2703 107.767C97.9025 107.494 97.6128 107.131 97.4305 106.712C97.2481 106.292 97.1794 105.833 97.2314 105.379V101.265H96.4785V105.379C96.4785 106.813 96.9754 107.887 97.8939 108.382C98.2824 108.616 98.7274 108.741 99.1813 108.743Z" fill="#081E7A"/>
<path d="M95.9132 101.648C96.3532 101.634 96.7816 101.504 97.1555 101.272L114.239 91.4373C114.985 90.9513 115.606 90.2972 116.052 89.5278C116.498 88.7583 116.756 87.8951 116.806 87.0077V84.2749C116.867 83.9104 116.815 83.536 116.657 83.2019C116.498 82.8678 116.241 82.5901 115.92 82.4061C115.598 82.2222 115.228 82.1408 114.859 82.1729C114.49 82.2049 114.139 82.349 113.855 82.5856L96.7715 92.4208C96.0255 92.9063 95.4048 93.5604 94.96 94.3301C94.5152 95.0998 94.2588 95.9633 94.2117 96.8504V99.5832C94.1782 99.9427 94.2423 100.305 94.3973 100.631C94.5523 100.957 94.7924 101.236 95.0926 101.438C95.3436 101.576 95.6262 101.649 95.9132 101.648ZM115.104 82.961C115.258 82.9579 115.409 82.9969 115.541 83.0736C115.725 83.211 115.87 83.3945 115.959 83.6055C116.049 83.8165 116.082 84.0474 116.053 84.2749V87.0077C116.002 87.7593 115.778 88.4891 115.398 89.1402C115.018 89.7913 114.492 90.3462 113.862 90.7616L96.7791 100.604C96.61 100.768 96.3922 100.872 96.1586 100.901C95.925 100.93 95.6882 100.882 95.4841 100.765C95.28 100.648 95.1197 100.468 95.0273 100.252C94.9349 100.036 94.9156 99.7961 94.9721 99.5682V96.8504C95.0227 96.0995 95.246 95.3704 95.6246 94.7194C96.0032 94.0685 96.5271 93.5131 97.1555 93.0965L114.239 83.2313C114.501 83.0719 114.798 82.9791 115.104 82.961Z" fill="#081E7A"/>
<path d="M50.9282 175.134C50.9947 175.134 51.0599 175.116 51.1165 175.081C51.1734 175.048 51.2207 175.001 51.2537 174.945C51.2867 174.888 51.3043 174.824 51.3047 174.758V116.536H50.5518V174.105L15.2261 153.729C14.5265 153.321 13.9459 152.738 13.5418 152.037C13.1377 151.337 12.9241 150.543 12.9222 149.735V73.2385C12.9222 66.5341 15.0981 62.5249 20.2102 59.8296L19.8563 59.1689C14.4656 62.0069 12.1693 66.2112 12.1693 73.2385V149.735C12.1698 150.675 12.4176 151.598 12.8879 152.412C13.3583 153.226 14.0347 153.903 14.8496 154.375L50.74 175.081C50.7958 175.118 50.8616 175.136 50.9282 175.134Z" fill="#081E7A"/>
<path d="M54.9037 50.3025C55.9313 50.3117 56.9435 50.0529 57.84 49.5517L58.2314 49.3265C60.4043 48.0805 62.1195 46.1728 63.1253 43.8834L63.4114 43.2452C67.3942 34.2359 73.9519 26.4654 81.0441 22.4037L90.0261 17.3359C96.9904 13.3268 103.465 13.4995 107.343 17.8014C107.501 17.9215 109.872 19.6708 111.446 18.7849L111.86 18.5597C112.221 18.357 112.568 18.1618 112.876 17.9666C113.091 17.8533 113.277 17.6921 113.42 17.4954C113.562 17.2988 113.657 17.0721 113.697 16.8329C113.709 16.5703 113.668 16.3079 113.577 16.0615C113.485 15.8151 113.344 15.5897 113.163 15.3989L110.445 12.3958C108.186 9.88825 99.234 4.99319 97.811 4.34002C93.3012 2.29791 87.5039 3.07872 81.4808 6.5473L69.5324 13.3043C61.5291 17.9065 54.068 26.7131 49.5732 36.8711L46.6745 43.4104C46.3749 44.0747 46.3329 44.8263 46.5568 45.5197C46.7807 46.2131 47.2546 46.7991 47.8867 47.1642L51.9448 49.5517C52.8469 50.0591 53.8681 50.3182 54.9037 50.3025ZM99.5502 13.6872C96.0538 13.8133 92.6512 14.8485 89.6798 16.6903L80.6451 21.7505C73.4549 25.8873 66.7467 33.8155 62.7036 42.9449L62.4251 43.568C61.4792 45.7083 59.8728 47.4916 57.84 48.6583L57.4484 48.8835C56.6667 49.3336 55.78 49.5705 54.8773 49.5705C53.9747 49.5705 53.0879 49.3336 52.3062 48.8835L48.218 46.5036C47.7521 46.2334 47.4029 45.8011 47.2375 45.2896C47.0721 44.7782 47.1022 44.2238 47.322 43.7332L50.2131 37.1939C54.6552 27.1861 61.9959 18.4996 69.8561 13.98L81.8121 7.22299C87.647 3.85201 93.2109 3.07872 97.5023 5.03073C98.8576 5.64637 107.742 10.5189 109.895 12.9064L112.62 15.9095C112.835 16.1338 112.954 16.4327 112.952 16.7428C112.925 16.8697 112.868 16.9886 112.787 17.0902C112.706 17.1918 112.603 17.2734 112.485 17.3284C112.191 17.5161 111.852 17.7038 111.499 17.899L111.085 18.1318C110.091 18.6723 108.427 17.6738 107.832 17.2684C106.791 16.1128 105.512 15.1947 104.083 14.5767C102.654 13.9587 101.108 13.6553 99.5502 13.6872Z" fill="#081E7A"/>
<path d="M55.2117 50.3023H55.2794C55.3839 50.2815 55.4895 50.2664 55.5957 50.2572C56.397 50.1863 57.1706 49.9292 57.8543 49.5065L58.2458 49.2887C60.417 48.0407 62.1317 46.1336 63.1397 43.8456L63.4182 43.215C67.401 34.2057 73.9587 26.4351 81.051 22.3734L90.0255 17.3207C96.9897 13.3116 103.465 13.4843 107.342 17.7787C107.5 17.9063 109.872 19.6556 111.445 18.7697L111.844 18.5445C112.213 18.3418 112.597 18.1466 112.876 17.9514C113.091 17.836 113.276 17.6732 113.418 17.4754C113.561 17.2777 113.656 17.0501 113.696 16.8102C113.708 16.5488 113.666 16.2879 113.574 16.0428C113.483 15.7978 113.342 15.5736 113.162 15.3837L110.451 12.3806C109.726 11.6478 108.929 10.9889 108.072 10.4136C107.585 10.1349 107.082 9.88428 106.567 9.66281C103.118 8.22133 99.271 7.11018 94.5202 8.75438C90.3718 10.2109 72.0389 19.5956 68.681 23.8149C65.159 28.5042 61.9232 33.4006 58.9912 38.4776C55.9796 43.8982 55.5806 45.4298 55.0009 47.7421L54.9331 48.0199C54.9331 48.0199 54.4889 49.7767 54.8804 50.1747C54.9709 50.2571 55.0891 50.3026 55.2117 50.3023ZM99.5496 13.672C96.0531 13.7974 92.6503 14.8327 89.6791 16.6751L80.6444 21.7353C73.4543 25.8796 66.746 33.8002 62.703 42.9297L62.4244 43.5528C61.4785 45.695 59.8724 47.4807 57.8393 48.6506L57.4478 48.8758C56.858 49.2416 56.1898 49.4628 55.4978 49.5215H55.4451C55.4756 49.0771 55.5385 48.6354 55.6333 48.2001L55.7086 47.9298C56.2959 45.5874 56.6497 44.176 59.6312 38.8455C62.5429 33.8067 65.7534 28.9455 69.2456 24.2879C72.3174 20.4364 90.1535 11.0743 94.7762 9.46761C99.0075 7.96606 102.433 8.75438 106.265 10.3535C106.741 10.5594 107.206 10.7899 107.658 11.0442C108.457 11.5842 109.2 12.2002 109.879 12.8836L112.605 15.8867C112.818 16.1088 112.937 16.4049 112.936 16.7126C112.909 16.8404 112.853 16.9604 112.772 17.0632C112.691 17.166 112.587 17.2489 112.469 17.3057C112.168 17.4934 111.829 17.6811 111.475 17.8838L111.069 18.109C110.12 18.6421 108.419 17.6511 107.839 17.2231C106.795 16.0709 105.514 15.157 104.083 14.5441C102.653 13.9312 101.106 13.6337 99.5496 13.672Z" fill="#081E7A"/>
<defs>
<linearGradient id="paint0_linear_2912_18319" x1="114.924" y1="75.4912" x2="97.0493" y2="93.5596" gradientUnits="userSpaceOnUse">
<stop stop-color="#E64C4E"/>
<stop offset="1" stop-color="#EF33F9"/>
</linearGradient>
<linearGradient id="paint1_linear_2912_18319" x1="113.312" y1="8.28369" x2="73.9294" y2="63.4032" gradientUnits="userSpaceOnUse">
<stop stop-color="#E64C4E"/>
<stop offset="1" stop-color="#EF33F9"/>
</linearGradient>
<linearGradient id="paint2_linear_2912_18319" x1="114.924" y1="90.5137" x2="97.0723" y2="108.597" gradientUnits="userSpaceOnUse">
<stop stop-color="#E64C4E"/>
<stop offset="1" stop-color="#EF33F9"/>
</linearGradient>
</defs>
</svg>
