<svg width="90" height="24" viewBox="0 0 90 24" fill="none" xmlns="http://www.w3.org/2000/svg">
<path d="M2.39579 15.0938C0.798588 13.4024 0 11.3043 0 8.79935C0 6.29441 0.803984 4.20164 2.41197 2.52098C4.01997 0.840319 6.05421 0 8.51476 0C10.9321 0 12.8369 0.674396 14.229 2.02321C15.6212 3.37202 16.4144 4.88138 16.6086 6.55134H11.8818C11.7091 5.82341 11.3098 5.22395 10.6839 4.75293C10.058 4.28192 9.32415 4.04642 8.48238 4.04642C7.27369 4.04642 6.32402 4.47996 5.63334 5.34705C4.94266 6.21414 4.59732 7.3649 4.59732 8.79935C4.59732 10.2338 4.94266 11.3846 5.63334 12.2516C6.32402 13.1187 7.27369 13.5523 8.48238 13.5523C9.32415 13.5523 10.058 13.3168 10.6839 12.8458C11.3098 12.3748 11.7091 11.7753 11.8818 11.0474H16.6086C16.4144 12.7173 15.6212 14.2267 14.229 15.5755C12.8369 16.9243 10.9321 17.5987 8.51476 17.5987C6.05421 17.5987 4.01457 16.7637 2.39579 15.0938ZM29.7207 9.63432L25.6414 10.3087C23.9147 10.6085 23.0514 11.2722 23.0514 12.2998C23.0514 13.4774 23.9039 14.0661 25.609 14.0661C26.9256 14.0661 27.9401 13.7236 28.6523 13.0385C29.3646 12.3533 29.7207 11.4434 29.7207 10.3087V9.63432ZM24.573 17.5987C22.6736 17.5987 21.206 17.1277 20.1699 16.1857C19.1339 15.2436 18.6159 13.9912 18.6159 12.4283C18.6159 10.951 19.1501 9.77349 20.2185 8.89569C21.2869 8.01789 22.9434 7.40773 25.1881 7.06517L29.7207 6.39077V6.2302C29.7207 4.58165 28.7063 3.75739 26.6774 3.75739C24.778 3.75739 23.7312 4.44249 23.537 5.81271H19.0044C19.1555 4.16416 19.8462 2.78325 21.0765 1.66995C22.3067 0.556644 24.1629 0 26.645 0C29.1056 0 30.9618 0.54594 32.2136 1.63783C33.4655 2.72973 34.0914 4.27121 34.0914 6.26231V14.1946C34.0914 15.4577 34.2533 16.464 34.577 17.2133H30.1416C30.1215 17.2133 30.1015 17.1487 30.0815 17.0195L30.0679 16.9243C30.048 16.7759 30.024 16.5671 29.9959 16.2981C29.9635 15.9876 29.9473 15.6718 29.9473 15.3507C28.8897 16.8494 27.0983 17.5987 24.573 17.5987ZM42.8004 15.4149V23.8931H38.2031V0.385373H42.4443V2.4407C43.5666 0.813557 45.3581 0 47.8186 0C50.2144 0 52.1138 0.834966 53.5167 2.50492C54.9196 4.17488 55.6211 6.273 55.6211 8.79935C55.6211 11.3257 54.9196 13.4238 53.5167 15.0938C52.1138 16.7637 50.2144 17.5987 47.8186 17.5987C46.6963 17.5987 45.698 17.39 44.8239 16.9725C43.9497 16.555 43.2753 16.0358 42.8004 15.4149ZM43.8041 5.36311C43.0486 6.26231 42.6709 7.40772 42.6709 8.79935C42.6709 10.191 43.054 11.3364 43.8202 12.2356C44.5865 13.1348 45.5955 13.5844 46.8474 13.5844C48.0992 13.5844 49.1082 13.1348 49.8745 12.2356C50.6407 11.3364 51.0238 10.191 51.0238 8.79935C51.0238 7.40772 50.6407 6.26231 49.8745 5.36311C49.1082 4.4639 48.0992 4.0143 46.8474 4.0143C45.5955 4.0143 44.5811 4.4639 43.8041 5.36311ZM66.2079 0C68.69 0 70.7135 0.829614 72.2783 2.48887C73.8431 4.14812 74.6255 6.24089 74.6255 8.76723L74.5608 10.116H62.2581C62.4092 11.2722 62.8408 12.1553 63.5531 12.7655C64.2654 13.3757 65.2043 13.6807 66.3698 13.6807C67.1036 13.6807 67.7673 13.5255 68.3609 13.2151C68.9544 12.9046 69.3807 12.4497 69.6397 11.8502H74.2694C73.773 13.563 72.7963 14.9493 71.3394 16.009C69.8825 17.0688 68.1828 17.5987 66.2403 17.5987C63.7366 17.5987 61.6861 16.7744 60.0889 15.1259C58.4917 13.4773 57.6931 11.3578 57.6931 8.76723C57.6931 6.2623 58.4917 4.17488 60.0889 2.50492C61.6861 0.834966 63.7258 0 66.2079 0ZM66.1755 3.66104C65.1395 3.66104 64.2869 3.94472 63.6179 4.51207C62.9488 5.07943 62.5171 5.85552 62.3228 6.84037H70.0282C69.8555 5.87693 69.4347 5.10619 68.7656 4.52813C68.0965 3.95007 67.2331 3.66104 66.1755 3.66104Z" fill="#1F2021"/>
<path fill-rule="evenodd" clip-rule="evenodd" d="M89.1556 0H83.8331L78.5106 17.5987H83.8331L89.1556 0Z" fill="url(#paint0_linear_2986_17698)"/>
<defs>
<linearGradient id="paint0_linear_2986_17698" x1="85.7492" y1="1.15596e-07" x2="77.0124" y2="14.6797" gradientUnits="userSpaceOnUse">
<stop stop-color="#E64C4E"/>
<stop offset="1" stop-color="#EF33F9"/>
</linearGradient>
</defs>
</svg>
