<svg width="254" height="182" viewBox="0 0 254 182" fill="none" xmlns="http://www.w3.org/2000/svg">
<path opacity="0.08" fill-rule="evenodd" clip-rule="evenodd" d="M247.212 134.69L172.543 177.8C163.483 183.03 148.793 183.03 139.733 177.8L7.5625 101.49C-1.4975 96.2601 -1.4975 87.7801 7.5625 82.5501L82.2325 39.4401C91.2925 34.2101 105.982 34.2101 115.042 39.4401L247.212 115.75C256.262 121 256.262 129.46 247.212 134.69Z" fill="black"/>
<path d="M4.89279 79.0003C5.13995 78.5551 5.49638 78.1801 5.92851 77.9107C6.36064 77.6413 6.85422 77.4863 7.36279 77.4603V62.6103C7.36127 61.5114 7.63503 60.4295 8.15906 59.4635C8.68309 58.4976 9.44072 57.6782 10.3628 57.0803C10.8657 56.6647 11.4473 56.3549 12.0727 56.1693C12.6982 55.9837 13.3546 55.9263 14.0028 56.0003C16.3528 49.0003 19.0028 41.8903 21.3528 36.6303C22.8273 33.045 25.4051 30.0223 28.7128 28.0003C33.2328 24.7903 57.9628 11.1803 64.5928 7.50032C83.5828 -2.99968 101.453 -0.249683 117.003 6.56032C131.333 12.8303 149.453 23.4803 159.243 30.9203C160.153 31.6103 167.083 35.8603 170.073 39.8003C172.663 43.2003 176.343 48.3503 179.963 53.5103C180.412 53.1394 180.89 52.805 181.393 52.5103C183.913 51.0003 185.003 51.0003 184.753 53.8703C184.631 55.699 184.38 57.5169 184.003 59.3103C188.653 66.0003 192.383 71.4503 192.383 71.4503L239.983 101.45C241.341 102.309 242.457 103.502 243.224 104.915C243.991 106.328 244.383 107.913 244.363 109.52L244.293 117.47L247.583 120.33C248.394 120.806 249.066 121.485 249.534 122.301C250.001 123.116 250.247 124.04 250.247 124.98C250.247 125.92 250.001 126.844 249.534 127.66C249.066 128.476 248.394 129.155 247.583 129.63L176.903 170.48C175.452 171.316 173.807 171.754 172.133 171.75C170.768 171.495 169.429 171.117 168.133 170.62L156.513 177.25L156.443 177.2C155.049 177.79 153.531 178.03 152.023 177.897C150.515 177.765 149.063 177.264 147.793 176.44C141.193 172.63 135.663 163.12 134.433 154.08L56.0028 112C54.0028 117.57 49.0828 119.52 43.3428 116.2C37.2828 112.7 32.1328 104.41 30.3428 96.0803L6.09279 83.0003C5.74915 82.8188 5.44508 82.5706 5.19826 82.2704C4.95143 81.9702 4.76682 81.6239 4.65514 81.2516C4.54346 80.8794 4.50696 80.4886 4.54776 80.1021C4.58856 79.7156 4.70584 79.3411 4.89279 79.0003Z" fill="white"/>
<path fill-rule="evenodd" clip-rule="evenodd" d="M12.753 61.78C11.143 63.02 7.85299 63.78 7.75299 62.01C7.62299 58.82 11.693 55.37 14.303 56.01C14.613 57.24 14.683 60.3 12.753 61.78Z" fill="url(#paint0_linear_2912_18391)"/>
<path fill-rule="evenodd" clip-rule="evenodd" d="M168.273 41.6904L185.963 69.3904L134.973 99.0204L119.413 69.9704L168.273 41.6904Z" fill="white"/>
<path fill-rule="evenodd" clip-rule="evenodd" d="M180.233 53.5403C180.697 53.1526 181.188 52.7983 181.703 52.4803C184.223 51.0003 185.283 51.0003 185.063 53.8603C184.947 55.8325 184.672 57.7921 184.243 59.7203L180.233 53.5403Z" fill="url(#paint1_linear_2912_18391)"/>
<path fill-rule="evenodd" clip-rule="evenodd" d="M104.643 93.5803L26.5532 49.0003C27.0653 47.1436 27.7 45.3229 28.4532 43.5503C29.0672 41.9754 29.9958 40.5421 31.1821 39.338C32.3685 38.1339 33.7878 37.1842 35.3535 36.5469C36.9191 35.9096 38.5982 35.5981 40.2883 35.6313C41.9783 35.6646 43.6439 36.0419 45.1832 36.7403L65.5232 45.4803C65.5232 45.4803 99.8432 60.5103 109.293 71.1003C119.163 82.1603 119.293 90.5903 123.853 102.54C123.917 102.73 123.922 102.935 123.868 103.128C123.814 103.321 123.704 103.493 123.551 103.623C123.398 103.752 123.209 103.832 123.01 103.853C122.811 103.874 122.61 103.835 122.433 103.74L115.763 99.9303L104.643 93.5803Z" fill="#FFECFA"/>
<path fill-rule="evenodd" clip-rule="evenodd" d="M134.423 150.43C134.423 160.43 140.543 172.13 148.043 176.43C155.543 180.73 161.673 176.14 161.673 166.14L161.812 160.14C161.812 160.14 152.072 142.25 146.022 140.47C136.362 137.62 134.423 150.43 134.423 150.43Z" fill="url(#paint2_linear_2912_18391)"/>
<path fill-rule="evenodd" clip-rule="evenodd" d="M153.113 152.4C155.356 155.699 156.609 159.572 156.723 163.56C156.723 169.93 152.823 172.87 148.043 170.11C143.263 167.35 139.373 159.91 139.373 153.54C139.373 150.32 140.373 147.46 141.993 146.29H147.363L153.113 152.4Z" fill="#FFECFA"/>
<path fill-rule="evenodd" clip-rule="evenodd" d="M148.003 164C145.673 162.65 143.773 159 143.773 155.9C143.773 152.8 145.673 151.36 148.003 152.71C150.333 154.06 152.243 157.71 152.243 160.8C152.243 163.89 150.383 165.29 148.003 164Z" fill="#081E7A"/>
<path fill-rule="evenodd" clip-rule="evenodd" d="M104.293 94.0602C101.703 95.4702 100.163 96.5602 102.733 97.7902C105.303 99.0202 110.123 101.85 112.433 101.21C114.743 100.57 118.333 98.0702 117.553 96.9102C116.773 95.7502 115.113 94.5902 112.003 93.9102C108.893 93.2302 106.603 92.7902 104.293 94.0602Z" fill="url(#paint3_linear_2912_18391)"/>
<path fill-rule="evenodd" clip-rule="evenodd" d="M191.223 76.4102L211.223 105.86C212.692 108.53 213.09 111.66 212.336 114.613C211.582 117.566 209.733 120.121 207.163 121.76L203.813 123.36C200.266 125.624 196.245 127.04 192.062 127.498C187.879 127.956 183.646 127.443 179.693 126C179.049 125.752 178.43 125.444 177.843 125.08L143.003 103.75L191.223 76.4102Z" fill="#FFECFA"/>
<path fill-rule="evenodd" clip-rule="evenodd" d="M215.363 135L193.363 147.71V139.3C193.363 138.023 193.699 136.768 194.338 135.662C194.977 134.556 195.897 133.638 197.003 133L210.493 125.21C210.985 124.927 211.543 124.778 212.111 124.777C212.678 124.777 213.236 124.925 213.729 125.207C214.222 125.49 214.632 125.896 214.918 126.386C215.205 126.876 215.358 127.432 215.363 128V135Z" fill="url(#paint4_linear_2912_18391)"/>
<path fill-rule="evenodd" clip-rule="evenodd" d="M239.363 110C239.316 111.309 238.977 112.59 238.371 113.751C237.766 114.912 236.909 115.923 235.863 116.71C233.923 117.95 232.363 116.96 232.363 114.49C232.409 113.182 232.747 111.9 233.352 110.739C233.958 109.577 234.816 108.567 235.863 107.78C237.793 106.58 239.363 107.58 239.363 110Z" fill="url(#paint5_linear_2912_18391)"/>
<path fill-rule="evenodd" clip-rule="evenodd" d="M183.363 141C183.316 142.309 182.977 143.59 182.371 144.751C181.766 145.912 180.909 146.923 179.863 147.71C177.923 148.95 176.363 147.96 176.363 145.49C176.409 144.182 176.747 142.9 177.352 141.739C177.958 140.577 178.816 139.567 179.863 138.78C181.793 137.58 183.363 138.58 183.363 141Z" fill="url(#paint6_linear_2912_18391)"/>
<path fill-rule="evenodd" clip-rule="evenodd" d="M57.3633 108.17C56.4933 116.59 50.7433 120.17 43.8233 116.17C37.0633 112.27 31.4233 102.41 30.3633 93.17V87.39L43.8233 83.75L57.3633 102.66V108.17Z" fill="url(#paint7_linear_2912_18391)"/>
<path fill-rule="evenodd" clip-rule="evenodd" d="M36.4525 87.4102L44.3625 83.4102L50.5625 95.0502C51.6707 97.5743 52.2656 100.294 52.3125 103.05C52.3125 109.42 48.4225 112.36 43.6425 109.6C38.8625 106.84 35.0025 99.3802 35.0025 93.0002C34.898 91.0319 35.4045 89.0795 36.4525 87.4102Z" fill="#FFECFA"/>
<path fill-rule="evenodd" clip-rule="evenodd" d="M43.6431 103.67C41.3031 102.32 39.403 98.6701 39.403 95.5801C39.403 92.4901 41.3031 91.0301 43.6431 92.3801C45.9831 93.7301 47.873 97.3801 47.873 100.47C47.873 103.56 46.0031 105 43.6431 103.67Z" fill="#081E7A"/>
<path d="M5.16281 79.0005C5.34538 78.6578 5.59401 78.3547 5.89436 78.1086C6.19472 77.8626 6.54082 77.6784 6.91272 77.5669C7.28462 77.4553 7.67493 77.4185 8.06113 77.4586C8.44733 77.4987 8.82176 77.6149 9.16281 77.8005L22.3528 84.8705C21.9187 82.6006 22.0976 80.256 22.871 78.0782C23.6444 75.9004 24.9843 73.9682 26.7528 72.4805C37.2528 64.4805 50.3828 77.9805 55.5628 86.2305C60.0221 93.2509 62.9019 101.157 64.0028 109.4L125.093 142.17C124.993 137.74 127.513 132.3 130.963 130.17C142.533 123.17 154.833 137.09 159.963 145.8C163.379 151.277 165.816 157.307 167.163 163.62C167.413 163.68 170.633 165.38 170.633 165.38C171.182 165.697 171.804 165.864 172.438 165.864C173.072 165.864 173.694 165.697 174.243 165.38L244.223 125C243.895 124.79 243.611 124.518 243.388 124.198C243.165 123.878 243.007 123.518 242.924 123.137C242.84 122.756 242.832 122.363 242.901 121.979C242.969 121.595 243.113 121.229 243.323 120.9C243.533 120.572 243.806 120.288 244.125 120.066C244.445 119.843 244.806 119.685 245.186 119.601C245.567 119.518 245.961 119.51 246.344 119.578C246.728 119.647 247.095 119.79 247.423 120L247.913 120.29C248.726 120.764 249.401 121.442 249.871 122.258C250.34 123.074 250.587 123.999 250.587 124.94C250.587 125.882 250.34 126.807 249.871 127.623C249.401 128.438 248.726 129.117 247.913 129.59L177.213 170.5C175.762 171.336 174.117 171.774 172.443 171.77C170.843 171.77 166.673 169.94 166.673 169.94C165.133 169.3 164.053 168.66 163.673 167.55C162.097 163.074 159.643 158.957 156.456 155.44C153.269 151.924 149.413 149.078 145.113 147.07C139.523 144.56 135.613 146.29 133.553 147.82C133.661 148.253 133.669 148.705 133.576 149.141C133.483 149.577 133.292 149.986 133.017 150.337C132.742 150.688 132.391 150.971 131.99 151.166C131.589 151.361 131.149 151.462 130.703 151.46C130.221 151.462 129.746 151.342 129.323 151.11L60.3828 114.11C59.9057 113.855 59.5091 113.472 59.2372 113.004C58.9652 112.536 58.8287 112.002 58.8428 111.46C58.8428 111.46 58.8428 111.46 58.8428 111.4C58.5028 103.87 52.0828 93.5705 41.6128 88.8705C35.4428 86.1005 31.3228 88.5005 29.4628 90.0905C29.5141 90.5017 29.4769 90.9192 29.3538 91.3149C29.2307 91.7106 29.0246 92.0755 28.749 92.3851C28.4735 92.6947 28.1351 92.9419 27.7563 93.1101C27.3775 93.2783 26.9672 93.3637 26.5528 93.3605C26.0688 93.3609 25.5919 93.2443 25.1628 93.0205L6.36281 83.0005C6.02014 82.8179 5.71703 82.5693 5.47096 82.2689C5.2249 81.9686 5.04077 81.6225 4.9292 81.2506C4.81763 80.8787 4.78082 80.4883 4.82092 80.1021C4.86102 79.716 4.97722 79.3415 5.16281 79.0005Z" fill="#FFECFA"/>
<path d="M9.21337 63.5701C10.6065 63.5007 11.9472 63.0167 13.0634 62.1801C15.2934 60.4601 15.0634 57.0601 14.8234 55.8901C14.8009 55.8008 14.7546 55.7192 14.6894 55.6541C14.6243 55.5889 14.5427 55.5426 14.4534 55.5201C13.6483 55.4208 12.8311 55.502 12.0614 55.758C11.2916 56.014 10.5886 56.4384 10.0034 57.0001C9.20718 57.5793 8.54998 58.3285 8.07949 59.1934C7.60901 60.0582 7.33705 61.017 7.28337 62.0001C7.28288 62.2825 7.36372 62.559 7.51623 62.7966C7.66874 63.0343 7.88646 63.223 8.14337 63.3401C8.48077 63.4885 8.84481 63.5668 9.21337 63.5701ZM13.9034 56.4401C14.0734 57.6001 14.0834 60.1301 12.4534 61.4401C11.2934 62.3301 9.33337 62.8701 8.57337 62.5101C8.48162 62.4724 8.40415 62.4066 8.35206 62.3222C8.29997 62.2378 8.27592 62.1391 8.28337 62.0401C8.32983 61.2063 8.56121 60.3933 8.96075 59.6599C9.36028 58.9266 9.91796 58.2913 10.5934 57.8001C11.4852 56.9449 12.6678 56.459 13.9034 56.4401Z" fill="#081E7A"/>
<path d="M166.591 171.038L167.091 171.904L157.028 177.714L156.528 176.848L166.591 171.038Z" fill="#081E7A"/>
<path d="M58.7363 112.729L59.2363 113.595L52.4553 117.51L51.9553 116.644L58.7363 112.729Z" fill="#081E7A"/>
<path d="M184.723 59.8406C185.167 57.8873 185.448 55.9005 185.563 53.9006C185.643 52.9006 185.633 51.6706 184.833 51.1806C184.033 50.6906 182.703 51.2906 181.453 52.0506C180.909 52.3803 180.391 52.7514 179.903 53.1606L180.553 53.9206C180.996 53.5506 181.468 53.2162 181.963 52.9206C183.613 51.9206 184.143 51.9206 184.313 52.0406C184.483 52.1606 184.673 52.4306 184.563 53.8306C184.451 55.7728 184.18 57.7026 183.753 59.6006L184.723 59.8406Z" fill="#081E7A"/>
<path d="M133.233 105.54L134.013 104.91C128.013 97.4804 125.853 91.5103 123.783 85.7403C121.193 78.5004 118.783 71.6504 108.463 63.8604C99.2227 56.8604 91.0027 50.9404 83.3427 45.8604L82.7827 46.6903C90.4327 51.8003 98.6327 57.6904 107.863 64.6904C117.863 72.3104 120.193 78.6904 122.863 86.1204C124.843 91.6604 127.103 98.0004 133.233 105.54Z" fill="#081E7A"/>
<path d="M7.36298 77.2903H8.36298V62.5803C8.36825 60.9694 9.01052 59.426 10.1496 58.2869C11.2887 57.1478 12.8321 56.5055 14.443 56.5003C14.5473 56.501 14.6492 56.4684 14.7337 56.4073C14.8182 56.3461 14.881 56.2596 14.913 56.1603C17.703 47.9203 20.173 41.4103 22.253 36.8203C27.423 25.4403 37.583 25.2403 45.203 27.0703C50.803 28.4203 58.073 31.6203 66.803 36.5803L67.293 35.7103C58.483 30.7103 51.133 27.4703 45.433 26.1003C37.433 24.1803 26.793 24.4103 21.343 36.4103C19.273 40.9703 16.833 47.4103 14.083 55.5103C12.2709 55.605 10.5641 56.3908 9.314 57.706C8.06388 59.0213 7.36562 60.7657 7.36298 62.5803V77.2903Z" fill="#081E7A"/>
<path d="M122.933 104.39C123.281 104.388 123.617 104.264 123.883 104.04C124.125 103.843 124.297 103.573 124.374 103.271C124.452 102.969 124.43 102.65 124.313 102.36C123.053 99.0704 122.133 96.0604 121.243 93.1504C118.903 85.4804 116.883 78.8504 109.673 70.7704C100.253 60.2204 67.1229 45.6004 65.7229 45.0004L45.3729 36.2604C43.7739 35.5403 42.0454 35.1524 40.2921 35.1203C38.5388 35.0882 36.7973 35.4126 35.173 36.0737C33.5488 36.7348 32.0758 37.7188 30.8433 38.9662C29.6108 40.2136 28.6444 41.6984 28.0029 43.3304C27.2287 45.1312 26.587 46.9861 26.0829 48.8804C26.064 48.9798 26.077 49.0827 26.1201 49.1743C26.1633 49.2659 26.2342 49.3415 26.3229 49.3904L101.163 92.1704L101.663 91.3004L27.1229 48.7104C27.6379 47.0144 28.2387 45.3455 28.9229 43.7104C29.5082 42.1929 30.3979 40.8112 31.5372 39.6505C32.6765 38.4897 34.0413 37.5743 35.5475 36.9608C37.0538 36.3472 38.6698 36.0484 40.2959 36.0827C41.922 36.117 43.5238 36.4838 45.0029 37.1604L65.3229 45.9004C65.6629 46.0504 99.6529 61.0404 108.923 71.4404C115.993 79.3504 117.983 85.8804 120.293 93.4404C121.183 96.3704 122.103 99.4404 123.383 102.72C123.423 102.815 123.431 102.92 123.405 103.019C123.38 103.118 123.323 103.206 123.243 103.27C123.164 103.331 123.067 103.364 122.968 103.364C122.868 103.364 122.772 103.331 122.693 103.27L117.513 100.27L117.023 101.14L122.183 104.14C122.405 104.292 122.664 104.379 122.933 104.39Z" fill="#081E7A"/>
<path d="M153.443 178.58C154.763 178.588 156.061 178.242 157.203 177.58C160.363 175.76 162.203 171.58 162.203 166.15H161.203C161.203 171.22 159.573 175.07 156.733 176.71C154.423 178.05 151.433 177.8 148.323 176.01C140.953 171.75 134.953 160.27 134.953 150.41H133.953C133.953 160.58 140.173 172.41 147.823 176.87C149.514 177.923 151.452 178.512 153.443 178.58Z" fill="#081E7A"/>
<path d="M151.483 171.4C152.355 171.404 153.214 171.18 153.973 170.75C156.043 169.55 157.223 166.84 157.223 163.31C157.105 159.227 155.825 155.262 153.533 151.88L152.693 152.42C154.881 155.641 156.105 159.418 156.223 163.31C156.223 166.47 155.223 168.87 153.473 169.88C152.053 170.7 150.213 170.54 148.293 169.43C143.653 166.75 139.873 159.51 139.873 153.29C139.873 150.21 140.823 147.52 142.283 146.44L141.693 145.64C139.983 146.9 138.873 149.9 138.873 153.29C138.873 159.83 142.873 167.45 147.793 170.29C148.905 170.975 150.177 171.358 151.483 171.4Z" fill="#081E7A"/>
<path d="M75.7829 111.68C76.2929 107.24 76.7829 103.13 77.3029 99.4602C79.3029 84.3702 80.7029 80.6602 81.4729 80.2102C81.5324 80.1746 81.5837 80.1268 81.6233 80.0699C81.663 80.013 81.6901 79.9484 81.7029 79.8802L85.2129 63.1702L84.2129 62.9702L80.7429 79.4902C79.7429 80.3802 78.4029 83.8302 76.2929 99.3302C75.7929 103 75.2929 107.12 74.7729 111.57L75.7829 111.68Z" fill="#081E7A"/>
<path d="M191.793 71.4503L192.543 70.7903C190.043 67.9403 186.063 61.9203 181.843 55.5403C178.003 49.8003 174.123 43.8703 170.783 39.4803C168.253 36.1503 163.003 32.6303 160.783 31.1303C160.343 30.8303 160.023 30.6203 159.873 30.5003C149.433 22.5803 131.223 12.0803 117.523 6.0803C98.283 -2.3397 80.983 -2.0197 64.653 7.0803L61.163 9.0003C51.003 14.6103 30.003 26.2803 28.003 28.1203L28.693 28.8503C30.553 27.0903 52.313 15.0303 61.603 9.8503L65.113 8.0003C81.113 -0.929699 98.113 -1.2397 117.113 7.0003C130.753 13.0003 148.873 23.4203 159.263 31.3103C159.423 31.4303 159.753 31.6603 160.263 31.9703C162.463 33.4403 167.603 36.8903 170.043 40.1003C173.353 44.4603 177.273 50.3803 181.043 56.1003C185.243 62.5003 189.243 68.5503 191.793 71.4503Z" fill="#081E7A"/>
<path d="M168.024 41.2585L168.525 42.124L119.668 70.4002L119.167 69.5347L168.024 41.2585Z" fill="#081E7A"/>
<path d="M185.713 68.9528L186.216 69.8174L135.229 99.4449L134.726 98.5803L185.713 68.9528Z" fill="#081E7A"/>
<path d="M111.673 101.801C111.973 101.806 112.273 101.769 112.563 101.691C114.613 101.131 117.563 99.2605 118.063 97.7905C118.144 97.6046 118.178 97.4016 118.162 97.1993C118.147 96.9971 118.082 96.8018 117.973 96.6305C117.273 95.6305 115.683 94.1905 112.103 93.4705L111.703 93.3905C108.633 92.7705 106.423 92.3205 104.053 93.6205C102.253 94.6205 100.883 95.4405 100.913 96.5305C100.913 97.3905 101.843 97.9205 102.513 98.2405L104.003 99.0005C106.513 100.261 109.553 101.801 111.673 101.801ZM107.423 93.8005C108.798 93.8682 110.164 94.0658 111.503 94.3905L111.903 94.4705C115.153 95.1305 116.543 96.3205 117.143 97.2105C117.143 97.2105 117.193 97.2905 117.143 97.4605C116.773 98.4605 114.203 100.231 112.323 100.751C110.603 101.221 106.923 99.3505 104.483 98.1105C103.923 97.8305 103.413 97.5705 102.963 97.3605C102.013 96.9005 101.963 96.6005 101.963 96.5205C101.963 95.9605 103.793 94.9505 104.583 94.5205C105.449 94.0319 106.428 93.7769 107.423 93.7805V93.8005Z" fill="#081E7A"/>
<path d="M227.363 131.29H228.363V117.4C228.364 116.345 228.156 115.299 227.751 114.325C227.346 113.35 226.752 112.465 226.003 111.72L194.533 73.0805L240.213 101.87C241.494 102.69 242.546 103.82 243.272 105.156C243.997 106.492 244.373 107.99 244.363 109.51L244.213 117.28H245.213L245.363 109.51C245.377 107.817 244.96 106.147 244.152 104.659C243.344 103.17 242.171 101.912 240.743 101L192.483 70.6105C192.381 70.5466 192.26 70.5206 192.142 70.537C192.023 70.5535 191.913 70.6114 191.833 70.7005C191.758 70.7903 191.717 70.9035 191.717 71.0205C191.717 71.1374 191.758 71.2506 191.833 71.3405L225.283 112.39C226.611 113.716 227.359 115.514 227.363 117.39V131.29Z" fill="#081E7A"/>
<path d="M222.363 128.29H223.363V120.68C223.361 117.792 222.345 114.997 220.493 112.78L192.783 70.8403L191.953 71.4003L219.693 113.4C221.408 115.451 222.352 118.037 222.363 120.71V128.29Z" fill="#081E7A"/>
<path d="M172.363 162.29H173.363V147.92C173.361 146.868 173.152 145.826 172.747 144.855C172.342 143.884 171.749 143.002 171.003 142.26L135.143 106.26L134.583 105.4L185.243 132.62C186.52 133.434 187.568 134.56 188.289 135.891C189.01 137.223 189.38 138.716 189.363 140.23V153.29H190.363V140.23C190.373 138.543 189.955 136.88 189.149 135.397C188.343 133.914 187.175 132.66 185.753 131.75L133.363 103.61C133.266 103.561 133.155 103.545 133.048 103.565C132.941 103.584 132.843 103.639 132.769 103.719C132.696 103.799 132.65 103.902 132.64 104.01C132.63 104.119 132.656 104.228 132.713 104.32L134.363 106.86C134.381 106.891 134.405 106.918 134.433 106.94L170.323 143C170.97 143.66 171.48 144.442 171.823 145.3C172.166 146.158 172.336 147.076 172.323 148L172.363 162.29Z" fill="#081E7A"/>
<path d="M189.093 128.16C194.408 128.159 199.612 126.639 204.093 123.78L207.543 121.78C210.206 120.162 212.129 117.566 212.901 114.547C213.673 111.529 213.232 108.328 211.673 105.63L191.673 76.1505C191.64 76.0961 191.595 76.0489 191.543 76.0118C191.491 75.9747 191.432 75.9484 191.37 75.9344C191.307 75.9205 191.243 75.9191 191.18 75.9305C191.117 75.9418 191.057 75.9656 191.003 76.0005L142.753 103.34C142.678 103.382 142.615 103.442 142.571 103.516C142.527 103.59 142.504 103.674 142.503 103.76C142.501 103.848 142.522 103.935 142.564 104.013C142.606 104.09 142.668 104.155 142.743 104.2L168.433 119.9L168.953 119.05L143.953 103.77L191.073 77.0705L210.823 106.14C212.243 108.613 212.638 111.544 211.924 114.304C211.21 117.065 209.444 119.436 207.003 120.91L203.563 122.91C198.352 126.246 192.152 127.69 186.003 127L185.883 128C186.949 128.114 188.021 128.168 189.093 128.16Z" fill="#081E7A"/>
<path d="M193.863 148.201C193.951 148.196 194.036 148.172 194.113 148.131L216.113 135.431C216.189 135.385 216.252 135.32 216.295 135.243C216.339 135.166 216.363 135.079 216.363 134.991V127.991C216.361 127.334 216.187 126.689 215.858 126.12C215.528 125.552 215.055 125.08 214.486 124.752C213.917 124.424 213.272 124.251 212.615 124.251C211.958 124.251 211.313 124.423 210.743 124.751L197.253 132.541C196.072 133.225 195.09 134.208 194.408 135.391C193.725 136.574 193.365 137.915 193.363 139.281V147.691C193.364 147.778 193.387 147.863 193.431 147.939C193.475 148.014 193.538 148.077 193.613 148.121C193.688 148.168 193.774 148.196 193.863 148.201ZM215.363 134.711L194.363 146.831V139.291C194.363 138.099 194.676 136.929 195.271 135.897C195.866 134.864 196.722 134.007 197.753 133.411L211.243 125.621C211.661 125.38 212.135 125.254 212.616 125.255C213.098 125.256 213.572 125.383 213.989 125.624C214.406 125.865 214.753 126.211 214.994 126.628C215.235 127.045 215.363 127.519 215.363 128.001V134.711Z" fill="#081E7A"/>
<path d="M234.623 117.79C235.282 117.762 235.92 117.547 236.463 117.17C237.588 116.337 238.509 115.258 239.155 114.016C239.801 112.773 240.156 111.4 240.193 110C240.258 109.422 240.164 108.836 239.921 108.308C239.678 107.779 239.294 107.327 238.813 107C238.345 106.787 237.828 106.707 237.318 106.768C236.808 106.83 236.325 107.031 235.923 107.35L236.463 108.19C236.719 107.977 237.027 107.837 237.356 107.782C237.684 107.728 238.021 107.761 238.333 107.88C238.646 108.127 238.89 108.452 239.041 108.822C239.192 109.191 239.244 109.594 239.193 109.99C239.15 111.216 238.834 112.417 238.269 113.505C237.703 114.593 236.901 115.541 235.923 116.28C235.666 116.496 235.357 116.64 235.026 116.696C234.696 116.752 234.356 116.719 234.043 116.6C233.73 116.35 233.488 116.023 233.339 115.652C233.19 115.28 233.139 114.877 233.193 114.48H232.193C232.125 115.058 232.217 115.643 232.458 116.172C232.7 116.701 233.082 117.153 233.563 117.48C233.883 117.673 234.248 117.78 234.623 117.79Z" fill="#081E7A"/>
<path d="M178.623 148.79C179.282 148.762 179.92 148.547 180.463 148.17C181.588 147.337 182.509 146.258 183.155 145.016C183.801 143.773 184.156 142.4 184.193 141C184.258 140.422 184.164 139.836 183.921 139.308C183.678 138.779 183.294 138.327 182.813 138C182.345 137.787 181.828 137.707 181.318 137.768C180.808 137.83 180.325 138.031 179.923 138.35L180.463 139.19C180.718 138.976 181.026 138.834 181.355 138.779C181.684 138.724 182.022 138.759 182.333 138.88C182.646 139.127 182.89 139.452 183.041 139.822C183.192 140.191 183.244 140.594 183.193 140.99C183.15 142.216 182.834 143.417 182.269 144.505C181.703 145.593 180.901 146.541 179.923 147.28C179.666 147.496 179.357 147.64 179.026 147.696C178.696 147.752 178.356 147.719 178.043 147.6C177.73 147.35 177.488 147.023 177.339 146.652C177.19 146.28 177.139 145.877 177.193 145.48H176.193C176.125 146.058 176.217 146.643 176.458 147.172C176.7 147.701 177.082 148.153 177.563 148.48C177.883 148.673 178.248 148.78 178.623 148.79Z" fill="#081E7A"/>
<path d="M49.0033 118.3C50.1942 118.312 51.3706 118.038 52.4333 117.5C55.3033 116.03 57.1533 112.73 57.6133 108.21L56.6133 108.11C56.1933 112.28 54.5433 115.3 51.9733 116.61C49.7033 117.77 46.8233 117.46 43.8533 115.75C37.3833 112.01 31.7133 102.3 30.6533 93.1602L29.6533 93.2701C30.7533 102.86 36.5133 112.67 43.3433 116.61C45.0495 117.659 47.0012 118.242 49.0033 118.3Z" fill="#081E7A"/>
<path d="M47.0825 111.12C47.952 111.125 48.8074 110.901 49.5625 110.47C51.6325 109.27 52.8125 106.56 52.8125 103.03C52.7588 100.213 52.1434 97.4359 51.0025 94.8601L50.0825 95.2501C51.165 97.7037 51.7464 100.349 51.7925 103.03C51.7925 106.2 50.7925 108.59 49.0425 109.6C47.6225 110.42 45.7925 110.26 43.8725 109.15C39.2225 106.47 35.4425 99.2301 35.4425 93.0101C35.3509 91.1395 35.8361 89.2859 36.8325 87.7001L36.0225 87.1201C34.9118 88.8737 34.3672 90.9265 34.4625 93.0001C34.4625 99.5401 38.4625 107.16 43.3925 110C44.5033 110.69 45.7757 111.076 47.0825 111.12Z" fill="#081E7A"/>
<path d="M49.0831 73.5406C50.4231 65.9806 51.5431 64.1606 52.0831 63.7606C52.1753 63.682 52.2415 63.5775 52.2731 63.4606L55.7031 48.0706L54.7031 47.8506L51.3331 63.0806C50.5631 63.7706 49.4231 65.7506 48.0831 73.3606L49.0831 73.5406Z" fill="#081E7A"/>
<path d="M125.083 142.671C125.175 142.668 125.265 142.641 125.343 142.591C125.418 142.548 125.481 142.485 125.523 142.41C125.566 142.334 125.586 142.247 125.583 142.161C125.483 137.751 128.003 132.581 131.213 130.641C140.303 125.131 149.483 133.271 154.133 138.641L154.893 137.981C150.023 132.401 140.413 123.911 130.693 129.801C127.423 131.801 124.803 136.801 124.593 141.361L64.4526 109.101C63.8396 104.467 62.64 99.9311 60.8826 95.6006L59.9526 95.9706C61.7086 100.303 62.8984 104.844 63.4926 109.481C63.5038 109.56 63.5331 109.635 63.5782 109.701C63.6233 109.767 63.683 109.821 63.7526 109.861L124.853 142.631C124.925 142.663 125.004 142.677 125.083 142.671Z" fill="#081E7A"/>
<path d="M172.443 172.27C174.198 172.27 175.923 171.808 177.443 170.93L248.123 130.06C249.011 129.543 249.748 128.801 250.26 127.91C250.772 127.018 251.042 126.008 251.042 124.98C251.042 123.952 250.772 122.942 250.26 122.051C249.748 121.16 249.011 120.418 248.123 119.9L247.633 119.61C246.855 119.172 245.937 119.053 245.073 119.278C244.209 119.504 243.467 120.057 243.003 120.82C242.636 121.452 242.478 122.183 242.549 122.91C242.621 123.637 242.92 124.323 243.403 124.87L174.003 165C173.529 165.27 172.993 165.412 172.448 165.412C171.903 165.412 171.367 165.27 170.893 165C169.233 164.12 168.143 163.56 167.613 163.32C166.523 158.146 164.655 153.166 162.073 148.55L161.193 149.02C163.768 153.623 165.62 158.595 166.683 163.76C166.703 163.856 166.748 163.944 166.816 164.015C166.883 164.086 166.969 164.136 167.063 164.16C167.273 164.24 169.153 165.16 170.413 165.88C171.036 166.236 171.741 166.424 172.458 166.424C173.175 166.424 173.88 166.236 174.503 165.88L244.473 125.39C244.544 125.347 244.604 125.287 244.647 125.215C244.691 125.144 244.717 125.064 244.723 124.98C244.725 124.897 244.707 124.815 244.67 124.74C244.634 124.665 244.58 124.6 244.513 124.55C244.015 124.18 243.677 123.633 243.568 123.022C243.459 122.411 243.587 121.781 243.926 121.261C244.265 120.741 244.79 120.369 245.393 120.223C245.996 120.076 246.633 120.164 247.173 120.47L247.663 120.76C248.4 121.191 249.01 121.808 249.435 122.548C249.859 123.288 250.083 124.127 250.083 124.98C250.083 125.834 249.859 126.672 249.435 127.413C249.01 128.153 248.4 128.769 247.663 129.2L177.003 170.06C175.629 170.855 174.07 171.273 172.483 171.27C171.253 171.27 168.043 169.98 166.913 169.48C165.503 168.9 164.513 168.33 164.193 167.39C162.597 162.849 160.11 158.671 156.878 155.103C153.647 151.535 149.735 148.647 145.373 146.61C139.373 143.94 135.253 145.97 133.303 147.42C133.224 147.479 133.163 147.559 133.13 147.652C133.096 147.744 133.09 147.845 133.113 147.94C133.262 148.523 133.187 149.14 132.903 149.67C132.588 150.231 132.069 150.648 131.454 150.834C130.839 151.02 130.176 150.962 129.603 150.67L60.6631 113.67C60.2683 113.457 59.9405 113.139 59.7162 112.75C59.4919 112.362 59.3801 111.919 59.3931 111.47C59.3974 111.414 59.3974 111.357 59.3931 111.3C59.0631 103.91 52.8131 93.3004 41.8731 88.4204C35.4931 85.5504 31.1931 88.0004 29.2031 89.7104C29.14 89.7635 29.0914 89.8316 29.0616 89.9086C29.0319 89.9855 29.0221 90.0686 29.0331 90.1504C29.0856 90.6432 28.9917 91.1406 28.7631 91.5804C28.4484 92.1407 27.9292 92.5576 27.3142 92.744C26.6991 92.9304 26.0359 92.8717 25.4631 92.5804L6.66307 82.5004C6.23105 82.2832 5.87328 81.9425 5.63521 81.5216C5.39714 81.1008 5.28947 80.6186 5.32591 80.1365C5.36235 79.6543 5.54121 79.1938 5.83983 78.8135C6.13844 78.4332 6.5433 78.1502 7.00307 78.0004C7.3084 77.9062 7.62955 77.8745 7.94739 77.9072C8.26523 77.9398 8.57326 78.0361 8.85307 78.1904L22.0431 85.2604C22.1236 85.312 22.2173 85.3395 22.3131 85.3395C22.4088 85.3395 22.5025 85.312 22.5831 85.2604C22.6617 85.2017 22.7209 85.1207 22.753 85.028C22.785 84.9353 22.7886 84.8351 22.7631 84.7404C22.3606 82.5607 22.5407 80.3133 23.2852 78.2256C24.0297 76.1378 25.3122 74.2836 27.0031 72.8504C37.7431 64.6504 50.3931 80.0504 52.8231 83.2304L53.6231 82.6204C46.2931 73.0504 35.3031 65.2504 26.3931 72.0604C24.6862 73.4944 23.3584 75.3262 22.5265 77.3945C21.6947 79.4628 21.3844 81.7039 21.6231 83.9204L9.35307 77.3404C8.95779 77.1242 8.52339 76.989 8.07526 76.9426C7.62712 76.8962 7.17422 76.9397 6.74307 77.0704C6.08916 77.2628 5.50742 77.6457 5.07208 78.1702C4.63675 78.6947 4.36757 79.3371 4.29889 80.0152C4.23021 80.6934 4.36514 81.3767 4.68649 81.9778C5.00784 82.579 5.50102 83.0707 6.10307 83.3904L24.9031 93.4804C25.4025 93.7435 25.9586 93.8808 26.5231 93.8804C26.9884 93.8889 27.4505 93.8023 27.8812 93.626C28.3119 93.4497 28.7021 93.1874 29.0278 92.855C29.3536 92.5227 29.6081 92.1274 29.7758 91.6933C29.9435 91.2592 30.0208 90.7954 30.0031 90.3304C31.8931 88.7804 35.7431 86.7904 41.4231 89.3304C52.0031 94.1004 58.0031 104.27 58.3431 111.44C58.3387 111.47 58.3387 111.501 58.3431 111.53C58.3431 112.147 58.5105 112.751 58.8276 113.28C59.1446 113.808 59.5993 114.24 60.1431 114.53L129.083 151.53C129.642 151.826 130.271 151.961 130.902 151.921C131.533 151.882 132.14 151.669 132.657 151.306C133.174 150.942 133.581 150.444 133.833 149.864C134.085 149.284 134.171 148.646 134.083 148.02C136.273 146.49 139.873 145.25 144.893 147.51C149.139 149.485 152.946 152.29 156.091 155.759C159.235 159.228 161.654 163.292 163.203 167.71C163.643 169 164.833 169.71 166.483 170.4C166.903 170.59 170.783 172.27 172.443 172.27Z" fill="#081E7A"/>
<defs>
<linearGradient id="paint0_linear_2912_18391" x1="14.4697" y1="55.9326" x2="7.3611" y2="62.6411" gradientUnits="userSpaceOnUse">
<stop stop-color="#E64C4E"/>
<stop offset="1" stop-color="#EF33F9"/>
</linearGradient>
<linearGradient id="paint1_linear_2912_18391" x1="185.091" y1="51.501" x2="177.89" y2="55.7572" gradientUnits="userSpaceOnUse">
<stop stop-color="#E64C4E"/>
<stop offset="1" stop-color="#EF33F9"/>
</linearGradient>
<linearGradient id="paint2_linear_2912_18391" x1="161.812" y1="140.057" x2="125.771" y2="166.044" gradientUnits="userSpaceOnUse">
<stop stop-color="#E64C4E"/>
<stop offset="1" stop-color="#EF33F9"/>
</linearGradient>
<linearGradient id="paint3_linear_2912_18391" x1="117.662" y1="93.25" x2="111.254" y2="106.18" gradientUnits="userSpaceOnUse">
<stop stop-color="#E64C4E"/>
<stop offset="1" stop-color="#EF33F9"/>
</linearGradient>
<linearGradient id="paint4_linear_2912_18391" x1="215.363" y1="124.777" x2="192.45" y2="146.758" gradientUnits="userSpaceOnUse">
<stop stop-color="#E64C4E"/>
<stop offset="1" stop-color="#EF33F9"/>
</linearGradient>
<linearGradient id="paint5_linear_2912_18391" x1="239.363" y1="107.272" x2="229.984" y2="113.856" gradientUnits="userSpaceOnUse">
<stop stop-color="#E64C4E"/>
<stop offset="1" stop-color="#EF33F9"/>
</linearGradient>
<linearGradient id="paint6_linear_2912_18391" x1="183.363" y1="138.272" x2="173.984" y2="144.856" gradientUnits="userSpaceOnUse">
<stop stop-color="#E64C4E"/>
<stop offset="1" stop-color="#EF33F9"/>
</linearGradient>
<linearGradient id="paint7_linear_2912_18391" x1="57.3633" y1="83.75" x2="24.2039" y2="110.038" gradientUnits="userSpaceOnUse">
<stop stop-color="#E64C4E"/>
<stop offset="1" stop-color="#EF33F9"/>
</linearGradient>
</defs>
</svg>
