<svg width="146" height="184" viewBox="0 0 146 184" fill="none" xmlns="http://www.w3.org/2000/svg">
<g opacity="0.08">
<path opacity="0.08" d="M68.5348 184C61.0193 184 53.8712 182.262 48.4144 179.117L0 151.16L91.1807 98.5972L134.307 123.493C140.582 127.113 144.187 132.463 144.187 138.157C144.187 143.851 140.582 149.2 134.307 152.828L88.6475 179.086C83.1908 182.262 76.0503 184 68.5348 184Z" fill="black"/>
</g>
<path d="M144.532 38.1217C144.532 33.3384 142.634 29.2133 136.817 25.8765L93.0789 0.605469L5.83191 50.8184V151.244L49.5778 176.5C60.0016 182.515 76.9152 182.515 87.3466 176.5L136.672 148.091C142.09 144.961 144.692 140.828 144.486 136.726C144.486 136.06 144.486 131.683 144.424 125.101C144.363 116.192 130.58 110.276 130.58 110.276V72.9286L138.524 68.4744C140.367 67.4337 141.9 65.921 142.965 64.0918C144.031 62.2626 144.59 60.1828 144.585 58.066C144.555 50.3209 144.532 38.8105 144.532 38.1217Z" fill="white"/>
<path d="M55.6697 150.953C55.8737 151.051 56.0458 151.205 56.1663 151.396C56.2868 151.588 56.3507 151.81 56.3507 152.036C56.3507 152.262 56.2868 152.484 56.1663 152.676C56.0458 152.867 55.8737 153.021 55.6697 153.119C55.1793 153.412 54.6186 153.567 54.0472 153.567C53.4758 153.567 52.9151 153.412 52.4247 153.119C52.2232 153.019 52.0535 152.864 51.935 152.673C51.8164 152.482 51.7535 152.261 51.7535 152.036C51.7535 151.811 51.8164 151.59 51.935 151.399C52.0535 151.208 52.2232 151.053 52.4247 150.953C52.9151 150.66 53.4758 150.505 54.0472 150.505C54.6186 150.505 55.1793 150.66 55.6697 150.953Z" fill="url(#paint0_linear_2940_24598)"/>
<path d="M69.4456 158.606C69.6496 158.704 69.8217 158.858 69.9422 159.05C70.0627 159.241 70.1266 159.463 70.1266 159.689C70.1266 159.916 70.0627 160.137 69.9422 160.329C69.8217 160.521 69.6496 160.674 69.4456 160.772C68.9552 161.066 68.3945 161.22 67.8231 161.22C67.2517 161.22 66.691 161.066 66.2006 160.772C65.999 160.672 65.8294 160.518 65.7108 160.326C65.5922 160.135 65.5294 159.914 65.5294 159.689C65.5294 159.464 65.5922 159.244 65.7108 159.052C65.8294 158.861 65.999 158.707 66.2006 158.606C66.691 158.313 67.2517 158.158 67.8231 158.158C68.3945 158.158 68.9552 158.313 69.4456 158.606Z" fill="url(#paint1_linear_2940_24598)"/>
<path d="M102.508 140.231C102.706 140.299 102.878 140.427 103 140.597C103.121 140.767 103.187 140.971 103.187 141.18C103.187 141.39 103.121 141.594 103 141.764C102.878 141.934 102.706 142.062 102.508 142.129C102 142.39 101.437 142.526 100.866 142.526C100.295 142.526 99.7324 142.39 99.2244 142.129C99.0263 142.062 98.8543 141.934 98.7325 141.764C98.6107 141.594 98.5452 141.39 98.5452 141.18C98.5452 140.971 98.6107 140.767 98.7325 140.597C98.8543 140.427 99.0263 140.299 99.2244 140.231C99.7336 139.975 100.296 139.841 100.866 139.841C101.436 139.841 101.998 139.975 102.508 140.231Z" fill="url(#paint2_linear_2940_24598)"/>
<path d="M113.459 133.167C113.657 133.235 113.829 133.363 113.951 133.533C114.073 133.703 114.138 133.907 114.138 134.116C114.138 134.326 114.073 134.53 113.951 134.7C113.829 134.87 113.657 134.998 113.459 135.065C112.951 135.326 112.388 135.462 111.818 135.462C111.247 135.462 110.684 135.326 110.176 135.065C109.978 134.998 109.806 134.87 109.684 134.7C109.562 134.53 109.497 134.326 109.497 134.116C109.497 133.907 109.562 133.703 109.684 133.533C109.806 133.363 109.978 133.235 110.176 133.167C110.685 132.911 111.247 132.777 111.818 132.777C112.388 132.777 112.95 132.911 113.459 133.167Z" fill="url(#paint3_linear_2940_24598)"/>
<path d="M124.411 127.603C124.609 127.671 124.781 127.799 124.903 127.969C125.025 128.139 125.091 128.343 125.091 128.552C125.091 128.762 125.025 128.966 124.903 129.136C124.781 129.306 124.609 129.434 124.411 129.501C123.902 129.758 123.34 129.891 122.77 129.891C122.2 129.891 121.637 129.758 121.128 129.501C120.93 129.434 120.758 129.306 120.636 129.136C120.514 128.966 120.449 128.762 120.449 128.552C120.449 128.343 120.514 128.139 120.636 127.969C120.758 127.799 120.93 127.671 121.128 127.603C121.637 127.347 122.2 127.213 122.77 127.213C123.34 127.213 123.902 127.347 124.411 127.603Z" fill="url(#paint4_linear_2940_24598)"/>
<path d="M135.363 120.516C135.561 120.584 135.733 120.712 135.855 120.882C135.977 121.052 136.042 121.256 136.042 121.465C136.042 121.675 135.977 121.879 135.855 122.049C135.733 122.219 135.561 122.347 135.363 122.414C134.854 122.671 134.291 122.804 133.721 122.804C133.151 122.804 132.589 122.671 132.08 122.414C131.882 122.347 131.71 122.219 131.588 122.049C131.466 121.879 131.4 121.675 131.4 121.465C131.4 121.256 131.466 121.052 131.588 120.882C131.71 120.712 131.882 120.584 132.08 120.516C132.589 120.26 133.151 120.126 133.721 120.126C134.291 120.126 134.854 120.26 135.363 120.516Z" fill="url(#paint5_linear_2940_24598)"/>
<path d="M57.2004 157.841C57.4043 157.939 57.5765 158.093 57.697 158.285C57.8174 158.476 57.8813 158.698 57.8813 158.924C57.8813 159.151 57.8174 159.372 57.697 159.564C57.5765 159.755 57.4043 159.909 57.2004 160.007C56.71 160.3 56.1493 160.455 55.5779 160.455C55.0065 160.455 54.4458 160.3 53.9554 160.007C53.7538 159.907 53.5842 159.753 53.4656 159.561C53.347 159.37 53.2842 159.149 53.2842 158.924C53.2842 158.699 53.347 158.478 53.4656 158.287C53.5842 158.096 53.7538 157.941 53.9554 157.841C54.4458 157.548 55.0065 157.393 55.5779 157.393C56.1493 157.393 56.71 157.548 57.2004 157.841Z" fill="url(#paint6_linear_2940_24598)"/>
<path d="M81.6907 159.372C81.8947 159.47 82.0668 159.623 82.1873 159.815C82.3078 160.006 82.3717 160.228 82.3717 160.454C82.3717 160.681 82.3078 160.903 82.1873 161.094C82.0668 161.286 81.8947 161.439 81.6907 161.537C81.2003 161.831 80.6396 161.986 80.0682 161.986C79.4968 161.986 78.9361 161.831 78.4457 161.537C78.2442 161.437 78.0745 161.283 77.9559 161.092C77.8374 160.9 77.7745 160.68 77.7745 160.454C77.7745 160.229 77.8374 160.009 77.9559 159.817C78.0745 159.626 78.2442 159.472 78.4457 159.372C78.9361 159.078 79.4968 158.923 80.0682 158.923C80.6396 158.923 81.2003 159.078 81.6907 159.372Z" fill="url(#paint7_linear_2940_24598)"/>
<path d="M92.8564 152.882C93.0555 152.947 93.2288 153.074 93.3517 153.244C93.4745 153.413 93.5407 153.617 93.5407 153.827C93.5407 154.036 93.4745 154.241 93.3517 154.41C93.2288 154.58 93.0555 154.707 92.8564 154.772C92.3484 155.033 91.7857 155.169 91.2148 155.169C90.6439 155.169 90.0812 155.033 89.5732 154.772C89.3741 154.707 89.2008 154.58 89.0779 154.41C88.9551 154.241 88.8889 154.036 88.8889 153.827C88.8889 153.617 88.9551 153.413 89.0779 153.244C89.2008 153.074 89.3741 152.947 89.5732 152.882C90.0812 152.621 90.6439 152.485 91.2148 152.485C91.7857 152.485 92.3484 152.621 92.8564 152.882Z" fill="url(#paint8_linear_2940_24598)"/>
<path d="M103.809 146.56C104.008 146.625 104.181 146.752 104.304 146.922C104.427 147.091 104.493 147.296 104.493 147.505C104.493 147.715 104.427 147.919 104.304 148.089C104.181 148.258 104.008 148.385 103.809 148.45C103.301 148.711 102.738 148.847 102.167 148.847C101.596 148.847 101.033 148.711 100.525 148.45C100.326 148.385 100.153 148.258 100.03 148.089C99.9073 147.919 99.8412 147.715 99.8412 147.505C99.8412 147.296 99.9073 147.091 100.03 146.922C100.153 146.752 100.326 146.625 100.525 146.56C101.033 146.299 101.596 146.164 102.167 146.164C102.738 146.164 103.301 146.299 103.809 146.56Z" fill="url(#paint9_linear_2940_24598)"/>
<path d="M114.798 140.231C114.997 140.299 115.169 140.427 115.29 140.597C115.412 140.767 115.478 140.971 115.478 141.18C115.478 141.39 115.412 141.594 115.29 141.764C115.169 141.934 114.997 142.062 114.798 142.129C114.29 142.39 113.728 142.526 113.157 142.526C112.586 142.526 112.023 142.39 111.515 142.129C111.317 142.062 111.145 141.934 111.023 141.764C110.901 141.594 110.836 141.39 110.836 141.18C110.836 140.971 110.901 140.767 111.023 140.597C111.145 140.427 111.317 140.299 111.515 140.231C112.024 139.975 112.587 139.841 113.157 139.841C113.727 139.841 114.289 139.975 114.798 140.231Z" fill="url(#paint10_linear_2940_24598)"/>
<path d="M125.704 133.932C125.902 134 126.074 134.128 126.196 134.298C126.318 134.468 126.384 134.672 126.384 134.881C126.384 135.091 126.318 135.295 126.196 135.465C126.074 135.635 125.902 135.763 125.704 135.83C125.195 136.087 124.633 136.22 124.063 136.22C123.493 136.22 122.93 136.087 122.421 135.83C122.223 135.763 122.051 135.635 121.929 135.465C121.807 135.295 121.742 135.091 121.742 134.881C121.742 134.672 121.807 134.468 121.929 134.298C122.051 134.128 122.223 134 122.421 133.932C122.93 133.676 123.493 133.542 124.063 133.542C124.633 133.542 125.195 133.676 125.704 133.932Z" fill="url(#paint11_linear_2940_24598)"/>
<path d="M136.657 127.588C136.855 127.656 137.027 127.783 137.148 127.954C137.27 128.124 137.336 128.328 137.336 128.537C137.336 128.746 137.27 128.951 137.148 129.121C137.027 129.291 136.855 129.419 136.657 129.486C136.147 129.743 135.585 129.876 135.015 129.876C134.445 129.876 133.883 129.743 133.373 129.486C133.175 129.419 133.003 129.291 132.881 129.121C132.76 128.951 132.694 128.746 132.694 128.537C132.694 128.328 132.76 128.124 132.881 127.954C133.003 127.783 133.175 127.656 133.373 127.588C133.883 127.332 134.445 127.198 135.015 127.198C135.585 127.198 136.147 127.332 136.657 127.588Z" fill="url(#paint12_linear_2940_24598)"/>
<path d="M124.419 85.4262C122.192 84.2158 119.73 83.5005 117.202 83.3292L113.306 83.0308L102.676 89.5437C102.278 91.7708 103.189 94.2121 106.204 95.9571C111.232 98.8577 119.391 98.8577 124.419 95.9571C129.447 93.0565 129.455 88.3345 124.419 85.4262Z" fill="#FFECFA"/>
<path d="M107 122.254C105.967 118.373 102.929 115.366 99.4464 114.815C97.8907 114.543 96.2891 114.751 94.8545 115.412C94.8545 114.868 94.8545 114.332 94.8545 113.766H94.7856C95.0305 116.621 93.255 119.521 89.5202 121.695C82.4333 125.789 70.9534 125.789 63.8665 121.695C60.5526 119.782 58.8154 117.317 58.6011 114.807C58.8077 131.606 63.9583 142.359 63.9583 145.94V148.236C63.9583 150.969 66.6064 153.701 71.9024 155.04C74.9791 155.818 78.2009 155.818 81.2776 155.04C86.566 153.693 89.214 150.961 89.214 148.229V145.871C89.214 145.695 89.214 145.496 89.214 145.313C91.51 143.667 95.9795 140.3 101.605 135.731C106.334 131.958 108.271 127.044 107 122.254ZM99.2398 132.731C96.5382 134.912 92.9871 137.66 90.5074 139.55C91.8544 134.881 93.8443 128.46 94.5713 120.126C95.1053 119.557 95.7617 119.116 96.4909 118.838C97.2201 118.559 98.0031 118.45 98.7806 118.519C100.778 118.84 102.607 120.761 103.273 123.187C104.146 126.463 102.676 129.945 99.2398 132.731Z" fill="#FFECFA"/>
<path d="M58.6007 113.72C58.5893 113.786 58.5893 113.853 58.6007 113.919C58.5966 113.853 58.5966 113.786 58.6007 113.72Z" fill="#67DAFF"/>
<path d="M79.2186 111.447C79.2186 111.447 80.2595 117.57 80.2595 118.113C80.2237 118.444 80.1016 118.759 79.9055 119.028C79.7094 119.297 79.4461 119.509 79.1421 119.644C78.2999 120.07 77.3692 120.292 76.4252 120.292C75.4812 120.292 74.5505 120.07 73.7083 119.644C73.4028 119.51 73.138 119.298 72.9405 119.029C72.743 118.761 72.6198 118.445 72.5833 118.113C72.5833 117.539 73.6317 111.447 73.6317 111.447H79.2186Z" fill="url(#paint13_linear_2940_24598)"/>
<path d="M69.7513 102.317C70.2947 105.646 70.8611 108.96 70.8611 108.96C70.902 109.453 71.0749 109.927 71.3617 110.331C71.6485 110.735 72.0386 111.054 72.4912 111.256C73.7101 111.875 75.0579 112.198 76.425 112.198C77.7921 112.198 79.1399 111.875 80.3587 111.256C80.8113 111.054 81.2015 110.735 81.4883 110.331C81.775 109.927 81.948 109.453 81.9889 108.96C81.9889 108.96 82.8996 103.717 83.5195 99.7759L76.777 101.643L69.7513 102.317Z" fill="#FFECFA"/>
<path d="M137.085 47.5579L87.6298 76.0356C77.1755 82.0664 60.2312 82.0664 49.7769 76.0356L5.92383 50.7187L93.232 0.383301L137.085 25.7002C147.539 31.7386 147.539 41.5195 137.085 47.5579Z" fill="#FFECFA"/>
<path d="M93.3697 27.5904C94.4794 26.9552 94.4794 25.9144 93.3697 25.2944C92.7488 24.9773 92.0616 24.812 91.3645 24.812C90.6674 24.812 89.9802 24.9773 89.3594 25.2944L49.1569 48.4838C48.0472 49.1266 48.0472 50.1598 49.1569 50.7797C49.7803 51.0928 50.4683 51.2558 51.1659 51.2558C51.8635 51.2558 52.5514 51.0928 53.1748 50.7797L93.3697 27.5904Z" fill="white"/>
<path d="M85.7622 20.9017C85.1403 20.5881 84.4536 20.4248 83.7571 20.4248C83.0606 20.4248 82.3738 20.5881 81.7519 20.9017L41.5495 44.1139C40.4474 44.7492 40.4474 45.79 41.5495 46.4099C42.1729 46.7229 42.8608 46.886 43.5584 46.886C44.256 46.886 44.944 46.7229 45.5674 46.4099L85.7622 23.1976C86.872 22.5777 86.872 21.5445 85.7622 20.9017Z" fill="white"/>
<path d="M101.352 29.8941C100.731 29.577 100.044 29.4116 99.3468 29.4116C98.6497 29.4116 97.9625 29.577 97.3417 29.8941L57.1392 53.0987C56.0371 53.7416 56.0371 54.7747 57.1392 55.3947C57.7614 55.7118 58.4498 55.8772 59.1481 55.8772C59.8465 55.8772 60.5349 55.7118 61.1571 55.3947L101.352 32.1824C102.462 31.5701 102.462 30.5293 101.352 29.8941Z" fill="white"/>
<path d="M109.296 34.5171C108.675 34.2 107.988 34.0347 107.291 34.0347C106.594 34.0347 105.906 34.2 105.286 34.5171L65.0525 57.7217C63.9504 58.3646 63.9504 59.3978 65.0525 60.0177C65.6759 60.3307 66.3639 60.4937 67.0615 60.4937C67.7591 60.4937 68.447 60.3307 69.0705 60.0177L109.265 36.8054C110.406 36.1932 110.406 35.1523 109.296 34.5171Z" fill="white"/>
<path d="M89.2059 92.1612C89.2059 92.1612 87.9278 91.4571 86.9099 90.8371C86.3919 90.4909 85.9636 90.0265 85.6603 89.4823C85.3569 88.9381 85.1871 88.3296 85.1649 87.707C85.0873 86.1241 85.4675 84.5524 86.2602 83.1801C87.0529 81.8078 88.2245 80.6931 89.6344 79.9695C90.2228 79.6487 90.8837 79.4844 91.5537 79.4925C92.2238 79.5005 92.8806 79.6806 93.4611 80.0155C94.3948 80.6048 95.4509 81.1788 95.4509 81.1788L89.2059 92.1612Z" fill="url(#paint14_linear_2940_24598)"/>
<path d="M97.3035 84.3849C97.3777 85.9662 96.9959 87.5356 96.2035 88.906C95.4111 90.2764 94.2415 91.3902 92.834 92.1147C90.0788 93.3775 87.6145 91.9693 87.3313 88.9616C87.258 87.3748 87.6444 85.8006 88.4441 84.4281C89.2437 83.0555 90.4225 81.943 91.839 81.2241C94.5559 79.9614 97.0203 81.3696 97.3035 84.3849Z" fill="#FFECFA"/>
<path d="M16.8368 115.519L17.7552 137.062C17.7778 137.554 17.7004 138.046 17.5277 138.507C17.355 138.968 17.0905 139.389 16.7504 139.746C16.4103 140.102 16.0014 140.385 15.5487 140.579C15.0959 140.772 14.6085 140.872 14.1161 140.872C13.6236 140.872 13.1363 140.772 12.6835 140.579C12.2307 140.385 11.8219 140.102 11.4818 139.746C11.1416 139.389 10.8772 138.968 10.7045 138.507C10.5318 138.046 10.4544 137.554 10.477 137.062L11.3954 115.519H16.8368Z" fill="url(#paint15_linear_2940_24598)"/>
<path d="M16.0029 114.409C17.059 115.021 17.059 116.016 16.0029 116.629C15.4092 116.927 14.754 117.082 14.0896 117.082C13.4252 117.082 12.77 116.927 12.1763 116.629C11.1201 116.016 11.1201 115.021 12.1763 114.409H16.0029Z" fill="#FFECFA"/>
<path d="M22.9598 93.7762C20.4725 92.6359 18.0158 93.8986 17.9928 96.6309C17.9597 98.7498 18.7594 100.797 20.2199 102.333C20.7467 102.861 21.3602 103.296 22.0337 103.618C24.521 104.759 26.7405 103.481 27.0007 100.764C27.0681 99.334 26.723 97.9152 26.0066 96.6763C25.2901 95.4375 24.2325 94.4307 22.9598 93.7762Z" fill="#FFECFA"/>
<path d="M21.1307 97.1969C21 97.1273 20.8541 97.0908 20.706 97.0908C20.5578 97.0908 20.4119 97.1273 20.2812 97.1969L16.2556 99.7072C14.9716 100.623 13.9157 101.822 13.1698 103.212C12.4239 104.601 12.0081 106.144 11.9545 107.72V114.922C11.9635 115.065 12.01 115.203 12.0892 115.323C12.1684 115.442 12.2777 115.539 12.406 115.603C12.7366 115.776 13.1054 115.863 13.4785 115.856C13.8516 115.85 14.2171 115.749 14.5413 115.565C14.6691 115.501 14.7777 115.404 14.8557 115.284C14.9337 115.165 14.9784 115.026 14.9852 114.884V107.682C15.0477 106.674 15.331 105.692 15.815 104.806C16.2991 103.92 16.972 103.151 17.7862 102.554L21.8118 100.044C21.9335 99.9456 22.0327 99.8223 22.1027 99.6823C22.1726 99.5424 22.2118 99.3891 22.2175 99.2327C22.2439 98.8258 22.1562 98.4197 21.9642 98.06C21.7721 97.7003 21.4835 97.4014 21.1307 97.1969Z" fill="#FFECFA"/>
<path d="M107.237 77.3595L104.942 78.6759C104.306 79.0432 103.786 78.7447 103.786 78.01V75.4003C103.808 75 103.925 74.6107 104.125 74.2637C104.326 73.9167 104.606 73.6218 104.942 73.4028L107.237 72.0864C107.873 71.7191 108.393 72.0175 108.393 72.7522V75.3697C108.37 75.7687 108.253 76.1568 108.053 76.5024C107.852 76.8481 107.573 77.1417 107.237 77.3595Z" fill="#FFECFA"/>
<path d="M114.117 73.5099L111.821 74.8263C111.186 75.1936 110.666 74.8875 110.666 74.1604V71.543C110.688 71.1428 110.804 70.7534 111.005 70.4064C111.206 70.0595 111.485 69.7645 111.821 69.5455L114.117 68.2292C114.752 67.8618 115.265 68.1603 115.265 68.8874V71.5048C115.243 71.9054 115.128 72.2954 114.929 72.6435C114.73 72.9917 114.452 73.2884 114.117 73.5099Z" fill="url(#paint16_linear_2940_24598)"/>
<path d="M120.24 69.6451L117.944 70.9615C117.309 71.3289 116.788 71.0304 116.788 70.3033V67.6859C116.811 67.2867 116.927 66.8984 117.128 66.5527C117.329 66.2069 117.608 65.9134 117.944 65.6961L120.24 64.3721C120.875 64.0047 121.388 64.3032 121.388 65.0379V67.6553C121.364 68.0533 121.248 68.4402 121.048 68.7855C120.849 69.1309 120.572 69.4252 120.24 69.6451Z" fill="#FFECFA"/>
<path d="M127.136 65.8185L124.84 67.1425C124.205 67.5022 123.684 67.2037 123.684 66.4767V63.8286C123.708 63.4297 123.825 63.0419 124.026 62.6963C124.226 62.3508 124.505 62.0571 124.84 61.8388L127.136 60.5224C127.771 60.1551 128.292 60.4536 128.292 61.1883V63.8057C128.272 64.2087 128.157 64.6013 127.956 64.9513C127.755 65.3012 127.474 65.5984 127.136 65.8185Z" fill="#FFECFA"/>
<path d="M134.024 61.9381L131.728 63.2621C131.093 63.6295 130.572 63.3233 130.572 62.5963V59.9789C130.596 59.5789 130.713 59.19 130.913 58.8432C131.114 58.4964 131.393 58.2013 131.728 57.9814L134.024 56.6574C134.659 56.2977 135.172 56.5962 135.172 57.3232V59.9483C135.15 60.3467 135.034 60.7343 134.835 61.0799C134.635 61.4255 134.358 61.7195 134.024 61.9381Z" fill="#FFECFA"/>
<path d="M68.2287 181.605C61.3026 181.605 54.384 180.074 49.0956 177.013L5.25786 151.719C5.20002 151.685 5.15194 151.637 5.11837 151.58C5.0848 151.522 5.06693 151.456 5.06653 151.39V139.022H5.83185V151.168L49.4936 176.377C59.8255 182.339 76.6397 182.339 86.9945 176.377L136.442 147.9C141.585 144.93 144.294 141.012 144.095 136.856C143.904 133.091 144.004 126.578 144.004 126.517H144.769C144.769 126.578 144.669 133.06 144.861 136.803C145.083 141.196 142.159 145.474 136.84 148.543L87.3925 177.02C82.0811 180.082 75.1549 181.605 68.2287 181.605Z" fill="#081E7A"/>
<path d="M68.6418 169.252C61.7539 169.252 54.866 167.721 49.57 164.66L32.817 155.262L33.192 154.596L49.945 164.025C60.2539 169.994 77.0298 169.994 87.3311 164.025L136.664 135.547C141.378 132.823 144.003 129.18 144.065 125.292C144.126 121.404 141.424 117.309 136.649 114.348L133.465 112.503L133.847 111.837L137.047 113.689C142.067 116.804 144.899 121.037 144.83 125.299C144.761 129.562 142.006 133.343 137.047 136.213L87.7137 164.691C82.4559 167.729 75.5527 169.252 68.6418 169.252Z" fill="#081E7A"/>
<path d="M5.83185 50.604H5.06653V142.849H5.83185V50.604Z" fill="#081E7A"/>
<path d="M33.0008 155.316C32.9333 155.316 32.867 155.297 32.8095 155.262C32.7517 155.229 32.7036 155.181 32.67 155.123C32.6364 155.065 32.6186 155 32.6182 154.933V93.8677H33.3835V154.267L59.0448 139.481L59.4275 140.147L33.1922 155.262C33.1354 155.299 33.0686 155.318 33.0008 155.316Z" fill="#081E7A"/>
<path d="M54.4301 153.563C53.7834 153.574 53.1476 153.396 52.601 153.05C52.344 152.917 52.1286 152.716 51.9782 152.469C51.8278 152.222 51.7483 151.939 51.7483 151.649C51.7483 151.36 51.8278 151.077 51.9782 150.83C52.1286 150.583 52.344 150.382 52.601 150.249C53.1534 149.913 53.7874 149.735 54.4339 149.735C55.0804 149.735 55.7145 149.913 56.2669 150.249C56.5216 150.384 56.7347 150.585 56.8834 150.832C57.0321 151.079 57.1106 151.361 57.1106 151.649C57.1106 151.937 57.0321 152.22 56.8834 152.467C56.7347 152.714 56.5216 152.915 56.2669 153.05C55.7179 153.397 55.0793 153.575 54.4301 153.563ZM54.4301 150.501C53.9338 150.492 53.4452 150.625 53.0219 150.884C52.8821 150.961 52.7631 151.071 52.6751 151.205C52.5871 151.338 52.5328 151.49 52.5168 151.649C52.5321 151.808 52.5862 151.961 52.6742 152.095C52.7623 152.228 52.8816 152.338 53.0219 152.415C53.4499 152.666 53.9374 152.799 54.4339 152.799C54.9304 152.799 55.4179 152.666 55.8459 152.415C55.9856 152.338 56.1041 152.228 56.1909 152.095C56.2778 151.961 56.3301 151.808 56.3434 151.649C56.3288 151.491 56.2759 151.339 56.1892 151.205C56.1026 151.072 55.9847 150.962 55.8459 150.884C55.4203 150.624 54.9289 150.491 54.4301 150.501Z" fill="#081E7A"/>
<path d="M68.206 161.216C67.5593 161.227 66.9234 161.049 66.3768 160.703C66.1199 160.57 65.9045 160.37 65.7541 160.123C65.6037 159.876 65.5242 159.592 65.5242 159.303C65.5242 159.014 65.6037 158.73 65.7541 158.483C65.9045 158.236 66.1199 158.035 66.3768 157.902C66.9292 157.566 67.5633 157.389 68.2098 157.389C68.8563 157.389 69.4903 157.566 70.0427 157.902C70.2974 158.037 70.5106 158.238 70.6593 158.485C70.808 158.732 70.8865 159.015 70.8865 159.303C70.8865 159.591 70.808 159.873 70.6593 160.12C70.5106 160.367 70.2974 160.569 70.0427 160.703C69.4938 161.05 68.8552 161.228 68.206 161.216ZM68.206 158.155C67.7097 158.145 67.2211 158.278 66.7978 158.537C66.6579 158.615 66.5389 158.725 66.451 158.858C66.363 158.991 66.3087 159.144 66.2926 159.303C66.308 159.462 66.3621 159.615 66.4501 159.748C66.5382 159.882 66.6575 159.991 66.7978 160.068C67.2258 160.32 67.7133 160.452 68.2098 160.452C68.7063 160.452 69.1938 160.32 69.6218 160.068C69.7615 159.991 69.88 159.882 69.9668 159.748C70.0536 159.614 70.106 159.461 70.1193 159.303C70.1047 159.144 70.0518 158.992 69.9651 158.859C69.8784 158.725 69.7606 158.615 69.6218 158.537C69.1961 158.277 68.7048 158.144 68.206 158.155Z" fill="#081E7A"/>
<path d="M100.892 142.91C100.254 142.919 99.6239 142.764 99.0633 142.458C98.8052 142.359 98.5833 142.183 98.4268 141.955C98.2703 141.727 98.1865 141.457 98.1865 141.18C98.1865 140.903 98.2703 140.633 98.4268 140.405C98.5833 140.177 98.8052 140.002 99.0633 139.902C99.6306 139.611 100.259 139.459 100.896 139.459C101.534 139.459 102.162 139.611 102.729 139.902C102.984 140.004 103.203 140.181 103.357 140.409C103.511 140.637 103.593 140.905 103.593 141.18C103.593 141.455 103.511 141.723 103.357 141.951C103.203 142.179 102.984 142.356 102.729 142.458C102.166 142.763 101.533 142.919 100.892 142.91ZM100.892 140.223C100.389 140.212 99.8905 140.331 99.446 140.568C99.1322 140.744 98.9562 140.973 98.9562 141.18C98.9562 141.387 99.1322 141.616 99.446 141.8C99.897 142.023 100.393 142.138 100.896 142.138C101.399 142.138 101.896 142.023 102.347 141.8C102.653 141.616 102.829 141.394 102.829 141.18C102.806 141.046 102.75 140.919 102.666 140.812C102.582 140.705 102.472 140.621 102.347 140.568C101.899 140.332 101.399 140.213 100.892 140.223Z" fill="#081E7A"/>
<path d="M111.844 135.838C111.203 135.847 110.571 135.691 110.007 135.386C109.752 135.284 109.534 135.107 109.38 134.88C109.226 134.652 109.144 134.383 109.144 134.108C109.144 133.833 109.226 133.565 109.38 133.337C109.534 133.109 109.752 132.933 110.007 132.83C110.576 132.54 111.206 132.389 111.844 132.389C112.483 132.389 113.112 132.54 113.681 132.83C113.936 132.933 114.155 133.109 114.308 133.337C114.462 133.565 114.545 133.833 114.545 134.108C114.545 134.383 114.462 134.652 114.308 134.88C114.155 135.107 113.936 135.284 113.681 135.386C113.117 135.691 112.485 135.847 111.844 135.838ZM111.844 133.152C111.338 133.141 110.838 133.26 110.39 133.496C110.084 133.672 109.908 133.894 109.908 134.108C109.908 134.323 110.084 134.545 110.39 134.728C110.843 134.951 111.34 135.067 111.844 135.067C112.349 135.067 112.846 134.951 113.298 134.728C113.605 134.545 113.781 134.323 113.781 134.108C113.781 133.894 113.605 133.672 113.298 133.496C112.849 133.265 112.349 133.152 111.844 133.167V133.152Z" fill="#081E7A"/>
<path d="M122.796 130.274C122.156 130.287 121.523 130.134 120.959 129.831C120.701 129.731 120.479 129.556 120.323 129.327C120.166 129.099 120.083 128.829 120.083 128.552C120.083 128.276 120.166 128.006 120.323 127.778C120.479 127.549 120.701 127.374 120.959 127.274C121.526 126.981 122.154 126.827 122.792 126.827C123.43 126.827 124.059 126.981 124.625 127.274C124.883 127.374 125.105 127.549 125.262 127.778C125.418 128.006 125.502 128.276 125.502 128.552C125.502 128.829 125.418 129.099 125.262 129.327C125.105 129.556 124.883 129.731 124.625 129.831C124.064 130.134 123.434 130.287 122.796 130.274ZM122.796 127.596C122.29 127.585 121.79 127.704 121.342 127.94C121.036 128.116 120.852 128.338 120.852 128.552C120.852 128.767 121.036 128.989 121.342 129.172C121.793 129.395 122.289 129.511 122.792 129.511C123.295 129.511 123.792 129.395 124.243 129.172C124.556 128.989 124.732 128.767 124.732 128.552C124.732 128.338 124.556 128.116 124.243 127.94C123.798 127.703 123.3 127.584 122.796 127.596Z" fill="#081E7A"/>
<path d="M133.748 123.218C133.108 123.231 132.475 123.078 131.912 122.774C131.654 122.674 131.432 122.499 131.275 122.271C131.119 122.043 131.035 121.772 131.035 121.496C131.035 121.219 131.119 120.949 131.275 120.721C131.432 120.493 131.654 120.317 131.912 120.218C132.478 119.924 133.107 119.771 133.745 119.771C134.383 119.771 135.011 119.924 135.578 120.218C135.836 120.317 136.058 120.493 136.214 120.721C136.371 120.949 136.454 121.219 136.454 121.496C136.454 121.772 136.371 122.043 136.214 122.271C136.058 122.499 135.836 122.674 135.578 122.774C135.016 123.077 134.386 123.23 133.748 123.218ZM133.748 120.539C133.243 120.53 132.744 120.645 132.294 120.876C131.988 121.06 131.805 121.282 131.805 121.496C131.805 121.71 131.988 121.932 132.294 122.116C132.745 122.338 133.242 122.454 133.745 122.454C134.248 122.454 134.744 122.338 135.195 122.116C135.509 121.932 135.685 121.71 135.685 121.496C135.685 121.282 135.509 121.06 135.195 120.876C134.751 120.634 134.254 120.508 133.748 120.509V120.539Z" fill="#081E7A"/>
<path d="M55.9607 160.451C55.314 160.462 54.6782 160.284 54.1316 159.938C53.8747 159.806 53.6592 159.605 53.5089 159.358C53.3585 159.111 53.2789 158.827 53.2789 158.538C53.2789 158.249 53.3585 157.965 53.5089 157.718C53.6592 157.471 53.8747 157.27 54.1316 157.137C54.6834 156.8 55.3177 156.621 55.9645 156.621C56.6114 156.621 57.2457 156.8 57.7975 157.137C58.0522 157.272 58.2654 157.473 58.414 157.72C58.5627 157.967 58.6413 158.25 58.6413 158.538C58.6413 158.826 58.5627 159.109 58.414 159.355C58.2654 159.602 58.0522 159.804 57.7975 159.938C57.2485 160.285 56.6099 160.463 55.9607 160.451ZM55.9607 157.39C55.4644 157.38 54.9758 157.513 54.5525 157.772C54.4127 157.85 54.2937 157.96 54.2057 158.093C54.1177 158.226 54.0634 158.379 54.0474 158.538C54.0628 158.697 54.1168 158.85 54.2049 158.983C54.2929 159.117 54.4123 159.226 54.5525 159.303C54.9805 159.555 55.468 159.687 55.9645 159.687C56.4611 159.687 56.9486 159.555 57.3766 159.303C57.5162 159.227 57.6348 159.117 57.7216 158.983C57.8084 158.849 57.8608 158.696 57.874 158.538C57.8595 158.379 57.8066 158.227 57.7199 158.094C57.6332 157.96 57.5154 157.85 57.3766 157.772C56.9509 157.512 56.4595 157.379 55.9607 157.39Z" fill="#081E7A"/>
<path d="M80.4511 161.982C79.8044 161.993 79.1686 161.815 78.622 161.469C78.365 161.336 78.1496 161.135 77.9992 160.888C77.8488 160.641 77.7693 160.358 77.7693 160.068C77.7693 159.779 77.8488 159.496 77.9992 159.248C78.1496 159.001 78.365 158.801 78.622 158.668C79.1743 158.332 79.8084 158.154 80.4549 158.154C81.1014 158.154 81.7355 158.332 82.2878 158.668C82.5426 158.802 82.7557 159.004 82.9044 159.251C83.0531 159.498 83.1316 159.78 83.1316 160.068C83.1316 160.356 83.0531 160.639 82.9044 160.886C82.7557 161.133 82.5426 161.334 82.2878 161.469C81.7389 161.816 81.1003 161.994 80.4511 161.982ZM80.4511 158.92C79.9548 158.911 79.4662 159.044 79.0429 159.303C78.9031 159.38 78.7841 159.49 78.6961 159.623C78.6081 159.757 78.5538 159.909 78.5378 160.068C78.5531 160.227 78.6072 160.38 78.6952 160.514C78.7833 160.647 78.9026 160.757 79.0429 160.834C79.4709 161.085 79.9584 161.218 80.4549 161.218C80.9514 161.218 81.4389 161.085 81.8669 160.834C82.0066 160.757 82.1251 160.647 82.2119 160.514C82.2987 160.38 82.3511 160.227 82.3644 160.068C82.3498 159.91 82.2969 159.758 82.2102 159.624C82.1236 159.491 82.0057 159.381 81.8669 159.303C81.4413 159.043 80.9499 158.91 80.4511 158.92Z" fill="#081E7A"/>
<path d="M91.2417 155.553C90.602 155.561 89.9704 155.408 89.4049 155.109C89.1475 155.008 88.9265 154.831 88.7708 154.602C88.615 154.374 88.5317 154.104 88.5317 153.827C88.5317 153.55 88.615 153.28 88.7708 153.051C88.9265 152.823 89.1475 152.646 89.4049 152.545C89.9722 152.254 90.6004 152.103 91.2379 152.103C91.8753 152.103 92.5036 152.254 93.0708 152.545C93.3283 152.646 93.5492 152.823 93.705 153.051C93.8607 153.28 93.944 153.55 93.944 153.827C93.944 154.104 93.8607 154.374 93.705 154.602C93.5492 154.831 93.3283 155.008 93.0708 155.109C92.5083 155.409 91.8791 155.561 91.2417 155.553ZM91.2417 152.866C90.7356 152.856 90.2352 152.975 89.7876 153.211C89.4815 153.387 89.2978 153.616 89.2978 153.823C89.3205 153.959 89.3773 154.088 89.463 154.196C89.5486 154.304 89.6603 154.389 89.7876 154.443C90.2386 154.666 90.7349 154.782 91.2379 154.782C91.7409 154.782 92.2371 154.666 92.6882 154.443C92.8163 154.391 92.9287 154.306 93.0145 154.197C93.1003 154.089 93.1566 153.96 93.178 153.823C93.178 153.616 93.0019 153.387 92.6882 153.211C92.2436 152.974 91.7454 152.855 91.2417 152.866Z" fill="#081E7A"/>
<path d="M102.194 149.239C101.554 149.247 100.923 149.094 100.357 148.795C100.1 148.694 99.8787 148.517 99.7229 148.288C99.5672 148.06 99.4839 147.79 99.4839 147.513C99.4839 147.236 99.5672 146.966 99.7229 146.737C99.8787 146.509 100.1 146.332 100.357 146.231C100.924 145.941 101.553 145.79 102.19 145.79C102.827 145.79 103.456 145.941 104.023 146.231C104.28 146.332 104.501 146.509 104.657 146.737C104.813 146.966 104.896 147.236 104.896 147.513C104.896 147.79 104.813 148.06 104.657 148.288C104.501 148.517 104.28 148.694 104.023 148.795C103.46 149.095 102.831 149.247 102.194 149.239ZM102.194 146.552C101.688 146.542 101.187 146.661 100.74 146.897C100.434 147.073 100.25 147.303 100.25 147.509C100.273 147.645 100.329 147.774 100.415 147.882C100.501 147.99 100.612 148.075 100.74 148.129C101.191 148.352 101.687 148.468 102.19 148.468C102.693 148.468 103.189 148.352 103.64 148.129C103.768 148.077 103.881 147.992 103.967 147.883C104.052 147.775 104.109 147.646 104.13 147.509C104.13 147.303 103.954 147.073 103.64 146.897C103.196 146.657 102.698 146.536 102.194 146.545V146.552Z" fill="#081E7A"/>
<path d="M113.145 142.91C112.504 142.92 111.871 142.765 111.308 142.458C111.05 142.359 110.828 142.183 110.672 141.955C110.515 141.727 110.432 141.457 110.432 141.18C110.432 140.903 110.515 140.633 110.672 140.405C110.828 140.177 111.05 140.002 111.308 139.902C111.876 139.612 112.504 139.46 113.141 139.46C113.779 139.46 114.407 139.612 114.974 139.902C115.232 140.002 115.454 140.177 115.611 140.405C115.767 140.633 115.851 140.903 115.851 141.18C115.851 141.457 115.767 141.727 115.611 141.955C115.454 142.183 115.232 142.359 114.974 142.458C114.414 142.764 113.784 142.919 113.145 142.91ZM113.145 140.223C112.639 140.211 112.138 140.33 111.691 140.568C111.377 140.744 111.201 140.973 111.201 141.18C111.201 141.387 111.377 141.616 111.691 141.8C112.142 142.023 112.638 142.139 113.141 142.139C113.644 142.139 114.141 142.023 114.592 141.8C114.905 141.616 115.081 141.394 115.081 141.18C115.081 140.966 114.905 140.744 114.592 140.568C114.147 140.331 113.649 140.212 113.145 140.223Z" fill="#081E7A"/>
<path d="M124.09 136.581C123.452 136.593 122.822 136.44 122.261 136.137C122.003 136.037 121.781 135.862 121.624 135.634C121.468 135.405 121.384 135.135 121.384 134.859C121.384 134.582 121.468 134.312 121.624 134.084C121.781 133.856 122.003 133.68 122.261 133.581C122.827 133.287 123.456 133.133 124.094 133.133C124.732 133.133 125.36 133.287 125.927 133.581C126.185 133.68 126.407 133.856 126.563 134.084C126.72 134.312 126.803 134.582 126.803 134.859C126.803 135.135 126.72 135.405 126.563 135.634C126.407 135.862 126.185 136.037 125.927 136.137C125.363 136.441 124.73 136.594 124.09 136.581ZM124.09 133.902C123.586 133.891 123.088 134.009 122.643 134.246C122.33 134.422 122.154 134.644 122.154 134.859C122.154 135.073 122.33 135.295 122.643 135.479C123.094 135.701 123.591 135.817 124.094 135.817C124.597 135.817 125.093 135.701 125.544 135.479C125.858 135.295 126.034 135.073 126.034 134.859C126.034 134.644 125.858 134.422 125.544 134.246C125.094 134.02 124.593 133.912 124.09 133.933V133.902Z" fill="#081E7A"/>
<path d="M135.041 130.259C134.403 130.271 133.773 130.118 133.212 129.815C132.954 129.715 132.732 129.54 132.576 129.312C132.419 129.084 132.335 128.814 132.335 128.537C132.335 128.26 132.419 127.99 132.576 127.762C132.732 127.534 132.954 127.358 133.212 127.259C133.778 126.965 134.407 126.812 135.045 126.812C135.683 126.812 136.312 126.965 136.878 127.259C137.136 127.358 137.358 127.534 137.515 127.762C137.671 127.99 137.755 128.26 137.755 128.537C137.755 128.814 137.671 129.084 137.515 129.312C137.358 129.54 137.136 129.715 136.878 129.815C136.314 130.118 135.681 130.271 135.041 130.259ZM135.041 127.58C134.539 127.57 134.041 127.686 133.595 127.917C133.281 128.101 133.105 128.323 133.105 128.537C133.105 128.751 133.281 128.973 133.595 129.157C134.046 129.379 134.542 129.495 135.045 129.495C135.548 129.495 136.044 129.379 136.495 129.157C136.801 128.973 136.985 128.751 136.985 128.537C136.985 128.323 136.801 128.101 136.495 127.917C136.046 127.686 135.546 127.571 135.041 127.58Z" fill="#081E7A"/>
<path d="M99.7252 93.8689L98.96 93.8789L99.2004 112.245L99.9656 112.235L99.7252 93.8689Z" fill="#081E7A"/>
<path d="M115.457 126.907C113.471 126.912 111.491 126.689 109.557 126.241L109.733 125.476C115.419 126.8 121.886 126.05 126.21 123.547C129.011 121.932 130.557 119.804 130.557 117.562C130.557 115.32 130.557 75.4692 130.557 75.4692H131.322C131.322 75.4692 131.322 115.266 131.322 117.562C131.322 120.095 129.639 122.452 126.593 124.213C123.171 126.045 119.338 126.973 115.457 126.907Z" fill="#081E7A"/>
<path d="M114.691 123.983C112.594 123.99 110.508 123.685 108.5 123.08L108.729 122.353C113.589 123.846 119.704 123.325 123.599 121.075C125.895 119.743 127.181 118.014 127.181 116.146C127.181 114.279 127.518 91.0361 127.518 90.7988H128.283C128.283 91.0361 127.947 114.256 127.947 116.131C127.947 118.266 126.538 120.249 123.982 121.726C121.128 123.257 117.93 124.035 114.691 123.983Z" fill="#081E7A"/>
<path d="M103.028 90.8062H102.263V112.235H103.028V90.8062Z" fill="#081E7A"/>
<path d="M115.181 98.4977C111.98 98.5622 108.816 97.7976 105.997 96.2782C103.189 94.6404 101.857 92.1531 102.332 89.4669L103.097 89.597C102.852 90.9822 102.951 93.6073 106.388 95.6201C111.248 98.4518 119.146 98.4518 123.99 95.6201C126.286 94.2807 127.526 92.5588 127.526 90.6914C127.526 88.824 126.271 87.0944 123.99 85.755C121.844 84.5723 119.464 83.8748 117.018 83.7116L117.087 82.9463C119.647 83.119 122.137 83.8533 124.381 85.0969C126.906 86.5739 128.291 88.5561 128.291 90.6914C128.291 92.8266 126.906 94.8012 124.381 96.2782C121.556 97.7966 118.388 98.561 115.181 98.4977Z" fill="#081E7A"/>
<path d="M89.7186 145.412L89.2671 144.792C91.2034 143.392 95.3897 140.3 101.413 135.394C105.944 131.721 107.834 126.976 106.602 122.315C105.607 118.572 102.691 115.695 99.3541 115.151C97.859 114.893 96.3205 115.098 94.9458 115.741L94.6244 115.052C96.1363 114.341 97.8299 114.112 99.4765 114.394C103.112 114.991 106.273 118.09 107.344 122.116C108.653 127.06 106.671 132.111 101.895 135.983C95.8259 140.897 91.6626 143.996 89.7186 145.412Z" fill="#081E7A"/>
<path d="M90.9663 139.741L90.5071 139.129C93.1474 137.124 96.0174 134.874 99.0251 132.432C102.339 129.746 103.762 126.409 102.928 123.248C102.324 120.952 100.632 119.169 98.742 118.863C98.0733 118.765 97.3906 118.834 96.755 119.063C96.1193 119.293 95.5504 119.676 95.099 120.179L94.5633 119.636C95.0971 119.044 95.7697 118.595 96.5205 118.327C97.2713 118.06 98.0768 117.984 98.8644 118.105C101.015 118.458 102.99 120.493 103.671 123.057C104.581 126.486 103.066 130.106 99.5073 133.006C96.4919 135.463 93.6219 137.759 90.9663 139.741Z" fill="#081E7A"/>
<path d="M76.2419 155.989C74.6314 155.989 73.0271 155.789 71.4663 155.392C66.3845 154.106 63.2314 151.359 63.2314 148.213V145.917C63.2314 144.808 62.711 142.948 61.9839 140.376C59.3391 131.742 57.9523 122.772 57.8665 113.743H58.6318C58.6318 125.613 61.0961 134.407 62.7263 140.17C63.4916 142.802 63.9967 144.708 63.9967 145.917V148.213C63.9967 150.991 66.9279 153.456 71.6499 154.65C74.6639 155.411 77.8199 155.411 80.8338 154.65C85.5559 153.448 88.4871 150.984 88.4871 148.206V145.81C88.4871 143.996 89.2065 141.509 90.1249 138.371C91.8162 132.516 94.1428 124.503 94.1428 113.712H94.9081C94.9081 124.611 92.5663 132.685 90.8596 138.585C89.9642 141.647 89.2524 144.103 89.2524 145.81V148.206C89.2524 151.351 86.0993 154.099 81.0252 155.392C79.461 155.785 77.8547 155.985 76.2419 155.989Z" fill="#081E7A"/>
<path d="M76.716 125.086C72.0016 125.086 67.2948 124.052 63.7054 121.978C60.1161 119.904 58.2028 117.18 58.2028 114.241C58.2028 111.302 60.1543 108.555 63.7054 106.511C65.5788 105.46 67.5947 104.687 69.6903 104.215L69.8663 104.981C67.8456 105.419 65.8993 106.149 64.0881 107.146C60.7819 109.052 58.9681 111.57 58.9681 114.218C58.9681 116.866 60.7819 119.384 64.0881 121.29C71.0526 125.315 82.387 125.315 89.3438 121.29C92.6423 119.384 94.4638 116.874 94.4638 114.218C94.4638 111.562 92.6423 109.052 89.3438 107.146C87.3993 106.059 85.3016 105.272 83.1217 104.812L83.2824 104.047C85.5415 104.519 87.7148 105.334 89.7265 106.465C93.2776 108.509 95.2291 111.256 95.2291 114.195C95.2291 117.134 93.2776 119.881 89.7265 121.933C86.1754 123.984 81.4303 125.086 76.716 125.086Z" fill="#081E7A"/>
<path d="M61.991 117.646L61.394 117.172C62.2902 116.092 63.3804 115.188 64.6084 114.509C66.201 113.613 67.9081 112.939 69.6825 112.503L69.8738 113.269C68.1619 113.695 66.5164 114.355 64.9834 115.228C63.8482 115.847 62.8344 116.666 61.991 117.646Z" fill="#081E7A"/>
<path d="M91.5024 117.646C90.6662 116.639 89.6485 115.798 88.5023 115.166C86.9666 114.293 85.3186 113.634 83.6042 113.207L83.7956 112.442C85.5801 112.887 87.2951 113.574 88.8926 114.485C90.1192 115.167 91.2091 116.07 92.107 117.149L91.5024 117.646Z" fill="#081E7A"/>
<path d="M76.4481 120.715C75.4371 120.731 74.4387 120.489 73.5476 120.011C73.18 119.839 72.8646 119.573 72.6333 119.239C72.4021 118.906 72.2633 118.517 72.2312 118.113C72.2312 117.523 73.1726 111.99 73.2874 111.378L74.0527 111.508C73.6471 113.858 73.0118 117.722 73.0118 118.113C73.0441 118.383 73.1476 118.639 73.3117 118.855C73.4758 119.072 73.6945 119.241 73.9455 119.345C74.7271 119.741 75.591 119.947 76.4673 119.947C77.3435 119.947 78.2074 119.741 78.989 119.345C79.24 119.241 79.4588 119.072 79.6229 118.855C79.7869 118.639 79.8904 118.383 79.9227 118.113C79.9227 117.722 79.2798 113.858 78.8819 111.508L79.6472 111.378C79.7543 112.005 80.7033 117.501 80.7033 118.113C80.6712 118.517 80.5325 118.906 80.3012 119.239C80.07 119.573 79.7545 119.839 79.387 120.011C78.4843 120.495 77.472 120.737 76.4481 120.715Z" fill="#081E7A"/>
<path d="M76.448 112.549C75.0139 112.577 73.5966 112.237 72.3306 111.562C71.821 111.332 71.3828 110.969 71.0623 110.512C70.7417 110.054 70.5506 109.518 70.5091 108.96C70.5091 108.96 69.9351 105.677 69.3994 102.378L70.1647 102.256C70.7081 105.585 71.2745 108.899 71.2745 108.899C71.3123 109.33 71.4649 109.744 71.7166 110.097C71.9683 110.449 72.3098 110.728 72.7056 110.904C73.8651 111.489 75.1456 111.793 76.4442 111.793C77.7428 111.793 79.0233 111.489 80.1828 110.904C80.5726 110.735 80.911 110.467 81.1636 110.126C81.4163 109.784 81.5743 109.382 81.6216 108.96C81.6216 108.845 82.5477 103.603 83.1523 99.6997L83.9176 99.8145C83.313 103.733 82.387 108.998 82.387 108.998C82.3391 109.544 82.1455 110.067 81.8264 110.513C81.5074 110.959 81.0746 111.31 80.5731 111.532C79.3078 112.218 77.8875 112.568 76.448 112.549Z" fill="#081E7A"/>
<path d="M68.7341 102.7C61.8462 102.7 54.8817 101.169 49.601 98.1078L9.74292 75.1174L10.1256 74.4516L49.9913 97.4726C60.3232 103.442 77.1374 103.442 87.4922 97.4726L136.917 68.9948C142.06 66.033 144.769 62.1069 144.57 57.9589C144.379 54.1935 144.486 36.6829 144.486 36.5298H145.251C145.251 36.7058 145.144 54.1935 145.335 57.9589C145.565 62.3442 142.641 66.63 137.315 69.6989L87.8672 98.1767C82.5788 101.177 75.6526 102.7 68.7341 102.7Z" fill="#081E7A"/>
<path d="M68.7339 80.926C61.846 80.926 54.8816 79.3954 49.6008 76.3341L5.25794 50.933C5.19886 50.9007 5.14956 50.8531 5.11521 50.7952C5.08087 50.7373 5.06274 50.6712 5.06274 50.6039C5.06274 50.5365 5.08087 50.4705 5.11521 50.4126C5.14956 50.3546 5.19886 50.3071 5.25794 50.2748L93.0713 0.0541967C93.1294 0.0206111 93.1954 0.00292969 93.2626 0.00292969C93.3298 0.00292969 93.3957 0.0206111 93.4539 0.0541967L137.299 25.3711C142.481 28.3559 145.335 32.3585 145.335 36.629C145.335 40.8996 142.481 44.8945 137.299 47.887L87.8517 76.3647C82.5787 79.4107 75.6525 80.926 68.7339 80.926ZM6.22225 50.6039L49.9911 75.6989C60.323 81.6684 77.1372 81.6684 87.492 75.6989L136.94 47.2288C141.876 44.3741 144.593 40.6164 144.593 36.629C144.593 32.6417 141.876 28.8763 136.94 26.0293L93.3162 0.827174L6.22225 50.6039Z" fill="#081E7A"/>
<path d="M43.6234 47.2979C42.8576 47.3088 42.1017 47.1244 41.4269 46.7622C41.1255 46.6459 40.8663 46.4411 40.6836 46.1747C40.5008 45.9083 40.403 45.5928 40.403 45.2698C40.403 44.9467 40.5008 44.6312 40.6836 44.3648C40.8663 44.0984 41.1255 43.8936 41.4269 43.7774L81.5835 20.5728C82.2638 20.2217 83.0182 20.0386 83.7838 20.0386C84.5493 20.0386 85.3038 20.2217 85.9841 20.5728C86.2723 20.707 86.5189 20.9165 86.698 21.1791C86.8772 21.4418 86.9822 21.7479 87.002 22.0651C86.9816 22.3813 86.8763 22.6862 86.6972 22.9475C86.518 23.2088 86.2717 23.4169 85.9841 23.5499L45.7816 46.7622C45.1182 47.1182 44.3762 47.3023 43.6234 47.2979ZM83.8259 20.81C83.1923 20.7973 82.5658 20.9447 82.0044 21.2386L41.7713 44.4432C41.6028 44.5151 41.4554 44.6287 41.3429 44.7733C41.2304 44.9179 41.1566 45.0888 41.1284 45.2698C41.1559 45.451 41.2295 45.6222 41.342 45.7669C41.4546 45.9116 41.6024 46.0251 41.7713 46.0963C42.3352 46.3756 42.9559 46.5209 43.5851 46.5209C44.2144 46.5209 44.8351 46.3756 45.3989 46.0963L85.6014 22.8917C85.7689 22.8194 85.9152 22.7055 86.0263 22.5609C86.1375 22.4162 86.2099 22.2456 86.2366 22.0651C86.2113 21.8842 86.1395 21.7129 86.0281 21.568C85.9168 21.4232 85.7698 21.3097 85.6014 21.2386C85.0424 20.9457 84.4186 20.7983 83.7876 20.81H83.8259Z" fill="#081E7A"/>
<path d="M72.6456 39.1425L59.1101 46.9541L59.4927 47.617L73.0282 39.8054L72.6456 39.1425Z" fill="#081E7A"/>
<path d="M51.1922 51.668C50.426 51.6827 49.6691 51.4981 48.9957 51.1323C48.6936 51.0178 48.4335 50.814 48.2499 50.5482C48.0663 50.2823 47.968 49.9668 47.968 49.6437C47.968 49.3206 48.0663 49.0052 48.2499 48.7393C48.4335 48.4734 48.6936 48.2697 48.9957 48.1552L89.1906 24.9429C89.8709 24.5919 90.6253 24.4087 91.3909 24.4087C92.1564 24.4087 92.9109 24.5919 93.5912 24.9429C93.8926 25.0591 94.1518 25.2639 94.3345 25.5303C94.5173 25.7967 94.6151 26.1122 94.6151 26.4353C94.6151 26.7583 94.5173 27.0738 94.3345 27.3402C94.1518 27.6066 93.8926 27.8114 93.5912 27.9276L73.0346 39.7978L72.6519 39.1396L93.2085 27.2695C93.376 27.1972 93.5223 27.0833 93.6334 26.9387C93.7446 26.794 93.817 26.6234 93.8437 26.4429C93.817 26.2625 93.7446 26.0918 93.6334 25.9472C93.5223 25.8025 93.376 25.6887 93.2085 25.6164C92.6433 25.337 92.0213 25.1917 91.3909 25.1917C90.7604 25.1917 90.1384 25.337 89.5732 25.6164L49.3784 48.8133C49.2099 48.8852 49.0625 48.9988 48.95 49.1434C48.8375 49.288 48.7637 49.4589 48.7355 49.6399C48.763 49.8212 48.8366 49.9923 48.9491 50.1371C49.0617 50.2818 49.2095 50.3952 49.3784 50.4664C49.9411 50.7498 50.5623 50.8973 51.1922 50.8973C51.8222 50.8973 52.4434 50.7498 53.006 50.4664L59.1286 46.946L59.5113 47.6041L53.3887 51.1323C52.7153 51.4981 51.9584 51.6827 51.1922 51.668Z" fill="#081E7A"/>
<path d="M59.1751 56.2828C58.4089 56.2974 57.652 56.1128 56.9786 55.747C56.6765 55.6325 56.4164 55.4288 56.2328 55.1629C56.0492 54.897 55.9509 54.5816 55.9509 54.2585C55.9509 53.9354 56.0492 53.6199 56.2328 53.354C56.4164 53.0881 56.6765 52.8844 56.9786 52.7699L97.1964 29.5576C97.8768 29.2066 98.6312 29.0234 99.3967 29.0234C100.162 29.0234 100.917 29.2066 101.597 29.5576C101.898 29.6739 102.158 29.8787 102.34 30.1451C102.523 30.4115 102.621 30.7269 102.621 31.05C102.621 31.3731 102.523 31.6886 102.34 31.955C102.158 32.2213 101.898 32.4261 101.597 32.5424L101.214 31.8766C101.382 31.8043 101.528 31.6904 101.639 31.5457C101.75 31.4011 101.823 31.2305 101.85 31.05C101.823 30.8696 101.75 30.6989 101.639 30.5543C101.528 30.4096 101.382 30.2958 101.214 30.2235C100.649 29.9441 100.027 29.7988 99.3967 29.7988C98.7663 29.7988 98.1443 29.9441 97.5791 30.2235L57.3996 53.4357C57.2307 53.507 57.0829 53.6204 56.9703 53.7651C56.8577 53.9099 56.7842 54.081 56.7567 54.2623C56.7824 54.446 56.8551 54.6201 56.9677 54.7675C57.0804 54.915 57.2291 55.0309 57.3996 55.1042C57.9634 55.3834 58.5842 55.5287 59.2134 55.5287C59.8426 55.5287 60.4634 55.3834 61.0272 55.1042L61.4099 55.7623C60.7237 56.1293 59.9529 56.3089 59.1751 56.2828Z" fill="#081E7A"/>
<path d="M67.1191 60.9053C66.353 60.919 65.5964 60.7344 64.9226 60.3696C64.6205 60.2551 64.3604 60.0513 64.1768 59.7855C63.9932 59.5196 63.8949 59.2041 63.8949 58.881C63.8949 58.5579 63.9932 58.2425 64.1768 57.9766C64.3604 57.7107 64.6205 57.507 64.9226 57.3925L105.117 34.1802C105.798 33.8292 106.552 33.646 107.318 33.646C108.083 33.646 108.838 33.8292 109.518 34.1802C109.819 34.2964 110.079 34.5012 110.261 34.7676C110.444 35.034 110.542 35.3495 110.542 35.6726C110.542 35.9956 110.444 36.3111 110.261 36.5775C110.079 36.8439 109.819 37.0487 109.518 37.165L69.3156 60.3696C68.6422 60.7354 67.8853 60.92 67.1191 60.9053ZM107.322 34.4404C106.688 34.4277 106.062 34.5751 105.5 34.869L65.3053 58.0506C65.1368 58.1225 64.9893 58.2361 64.8769 58.3807C64.7644 58.5253 64.6906 58.6962 64.6624 58.8772C64.6911 59.0571 64.7652 59.2267 64.8777 59.37C64.9902 59.5133 65.1374 59.6255 65.3053 59.6961C65.8679 59.9794 66.4891 60.127 67.1191 60.127C67.7491 60.127 68.3703 59.9794 68.9329 59.6961L109.135 36.4991C109.316 36.4494 109.476 36.3416 109.59 36.1922C109.704 36.0429 109.766 35.8603 109.766 35.6726C109.766 35.4848 109.704 35.3022 109.59 35.1529C109.476 35.0036 109.316 34.8958 109.135 34.846C108.574 34.5611 107.951 34.4216 107.322 34.4404Z" fill="#081E7A"/>
<path d="M89.0457 92.4978C89.0457 92.4978 87.7523 91.7784 86.7498 91.1661C86.1814 90.7865 85.7105 90.2782 85.3754 89.6824C85.0403 89.0867 84.8504 88.4204 84.8211 87.7375C84.7416 86.0698 85.1447 84.4145 85.9823 82.9702C86.8198 81.5258 88.0562 80.3537 89.5432 79.5944C90.1845 79.2568 90.9003 79.0855 91.625 79.0962C92.3497 79.1069 93.0602 79.2992 93.6913 79.6557C94.6096 80.2373 95.6505 80.8036 95.6658 80.8113L95.2984 81.4848C95.2984 81.4848 94.2193 80.8955 93.2856 80.3062C92.7606 80.0168 92.1708 79.865 91.5713 79.865C90.9718 79.865 90.382 80.0168 89.857 80.3062C88.5195 80.9952 87.4082 82.054 86.6551 83.3565C85.9021 84.659 85.5392 86.1504 85.6094 87.6533C85.6242 88.2145 85.7703 88.7644 86.0361 89.2588C86.302 89.7533 86.6801 90.1785 87.1401 90.5003C88.1273 91.1049 89.3978 91.809 89.436 91.8167L89.0457 92.4978Z" fill="#081E7A"/>
<path d="M90.8825 92.9645C90.2171 92.9686 89.5624 92.797 88.9845 92.467C88.3912 92.0958 87.8977 91.5851 87.5469 90.9795C87.1961 90.3739 86.9986 89.6918 86.9717 88.9924C86.8974 87.3315 87.3005 85.6839 88.1332 84.2449C88.966 82.8058 90.1936 81.6355 91.6708 80.8723C92.2819 80.5195 92.975 80.3335 93.6807 80.333C94.3863 80.3325 95.0797 80.5175 95.6914 80.8694C96.303 81.2214 96.8114 81.7279 97.1655 82.3382C97.5197 82.9486 97.7072 83.6413 97.7092 84.3469C97.7881 86.0077 97.3877 87.6562 96.5559 89.0959C95.7242 90.5356 94.496 91.7058 93.0178 92.467C92.3496 92.783 91.6216 92.9526 90.8825 92.9645ZM93.7984 81.1249C93.1726 81.137 92.5567 81.2832 91.9922 81.5535C90.6527 82.2427 89.5395 83.3024 88.7851 84.6063C88.0307 85.9102 87.6669 87.4035 87.737 88.9083C87.7279 89.4918 87.8753 90.0672 88.1638 90.5746C88.4523 91.082 88.8714 91.5029 89.3776 91.7934C89.8838 92.084 90.4585 92.2337 91.0422 92.227C91.6258 92.2203 92.197 92.0574 92.6963 91.7553C94.0358 91.066 95.1491 90.0064 95.9035 88.7024C96.6579 87.3985 97.0217 85.9053 96.9515 84.4005C96.9337 83.8246 96.7759 83.2617 96.4919 82.7603C96.2079 82.259 95.8062 81.8343 95.3214 81.5229C94.8591 81.2549 94.3327 81.1174 93.7984 81.1249Z" fill="#081E7A"/>
<path d="M14.1052 141.264C13.5603 141.265 13.0211 141.155 12.5202 140.941C12.0192 140.726 11.5671 140.412 11.1913 140.018C10.8155 139.624 10.5238 139.157 10.334 138.646C10.1442 138.135 10.0602 137.591 10.0872 137.047L11.0056 115.503H11.7709L10.8525 137.055C10.8525 137.482 10.9367 137.905 11.1001 138.3C11.2636 138.694 11.5032 139.053 11.8052 139.355C12.1072 139.657 12.4658 139.897 12.8604 140.06C13.2551 140.223 13.678 140.308 14.1052 140.308C14.5323 140.308 14.9553 140.223 15.3499 140.06C15.7445 139.897 16.1031 139.657 16.4051 139.355C16.7071 139.053 16.9467 138.694 17.1102 138.3C17.2737 137.905 17.3578 137.482 17.3578 137.055L16.4394 115.565H17.2047L18.1231 137.109C18.1501 137.653 18.0661 138.197 17.8763 138.707C17.6865 139.218 17.3948 139.685 17.019 140.079C16.6432 140.474 16.1911 140.787 15.6902 141.002C15.1892 141.216 14.65 141.326 14.1052 141.325V141.264Z" fill="#081E7A"/>
<path d="M14.1053 117.47C13.3687 117.484 12.6411 117.308 11.993 116.958C11.6949 116.852 11.4368 116.656 11.2543 116.398C11.0719 116.14 10.9739 115.831 10.9739 115.515C10.9739 115.199 11.0719 114.89 11.2543 114.632C11.4368 114.373 11.6949 114.178 11.993 114.072L12.3756 114.738C12.1727 114.738 11.978 114.819 11.8345 114.962C11.6909 115.106 11.6103 115.3 11.6103 115.503C11.6103 115.706 11.6909 115.901 11.8345 116.045C11.978 116.188 12.1727 116.269 12.3756 116.269C12.9128 116.537 13.5049 116.676 14.1053 116.676C14.7056 116.676 15.2978 116.537 15.8349 116.269C16.0379 116.269 16.2325 116.188 16.3761 116.045C16.5196 115.901 16.6002 115.706 16.6002 115.503C16.6002 115.3 16.5196 115.106 16.3761 114.962C16.2325 114.819 16.0379 114.738 15.8349 114.738L16.2176 114.072C16.5157 114.178 16.7737 114.373 16.9562 114.632C17.1387 114.89 17.2367 115.199 17.2367 115.515C17.2367 115.831 17.1387 116.14 16.9562 116.398C16.7737 116.656 16.5157 116.852 16.2176 116.958C15.5695 117.308 14.8418 117.484 14.1053 117.47Z" fill="#081E7A"/>
<path d="M23.8322 104.421C23.1587 104.41 22.4956 104.253 21.8882 103.962C21.1738 103.627 20.5256 103.165 19.9749 102.6L20.5106 102.064C20.9975 102.56 21.5673 102.966 22.1944 103.266C22.6534 103.507 23.1643 103.633 23.6829 103.633C24.2016 103.633 24.7124 103.507 25.1715 103.266C25.6042 102.985 25.9625 102.604 26.2157 102.155C26.469 101.706 26.6096 101.202 26.6256 100.687C26.6878 99.3357 26.3601 97.9955 25.6816 96.8258C25.0031 95.656 24.0024 94.7062 22.799 94.0895C22.3399 93.8481 21.829 93.722 21.3104 93.722C20.7918 93.722 20.2809 93.8481 19.8219 94.0895C19.3887 94.3694 19.03 94.7504 18.7767 95.1997C18.5234 95.649 18.3831 96.1531 18.3677 96.6686L17.6024 96.5921C17.6238 95.9554 17.8019 95.3339 18.121 94.7825C18.4401 94.2312 18.8902 93.7671 19.4315 93.4313C19.9972 93.1311 20.6279 92.9741 21.2683 92.9741C21.9087 92.9741 22.5394 93.1311 23.1051 93.4313C24.4485 94.1205 25.5649 95.1821 26.3209 96.4891C27.0768 97.7961 27.4404 99.2932 27.368 100.801C27.3459 101.438 27.1675 102.059 26.8485 102.61C26.5295 103.162 26.0797 103.626 25.5388 103.962C25.0203 104.263 24.4315 104.421 23.8322 104.421Z" fill="#081E7A"/>
<path d="M13.8678 116.261C13.4166 116.267 12.9723 116.151 12.582 115.924C12.4002 115.823 12.2472 115.677 12.1374 115.5C12.0276 115.324 11.9646 115.122 11.9545 114.914V107.712C12.0118 106.072 12.4454 104.466 13.2217 103.02C13.9979 101.573 15.0962 100.325 16.4316 99.3701C19.225 97.6252 20.1434 97.0742 20.4955 96.8828C20.6767 96.7773 20.8827 96.7217 21.0924 96.7217C21.3022 96.7217 21.5082 96.7773 21.6894 96.8828C22.1009 97.1249 22.4373 97.476 22.6616 97.8975C22.8858 98.3189 22.989 98.7942 22.9598 99.2706C22.9454 99.481 22.8876 99.6862 22.7902 99.8732C22.6927 100.06 22.5577 100.225 22.3935 100.357L18.3679 102.883C17.6159 103.456 16.9958 104.183 16.5495 105.016C16.1032 105.85 15.8412 106.769 15.7811 107.712V111.317C15.7811 113.467 15.7811 114.455 15.7199 114.914H15.7811C15.7747 115.123 15.7132 115.326 15.6031 115.503C15.4929 115.681 15.3378 115.826 15.1535 115.924C14.7636 116.151 14.319 116.268 13.8678 116.261ZM20.8475 97.5257L16.8372 100.021C15.608 100.902 14.5975 102.054 13.8836 103.387C13.1697 104.721 12.7716 106.2 12.7198 107.712V114.914C12.732 114.991 12.7627 115.064 12.8094 115.127C12.856 115.189 12.9172 115.24 12.9877 115.274C13.2578 115.42 13.5604 115.497 13.8678 115.497C14.1752 115.497 14.4777 115.42 14.7479 115.274C14.8182 115.242 14.8794 115.193 14.9262 115.131C14.9729 115.07 15.0037 114.998 15.0158 114.922V107.712C15.0714 106.638 15.3645 105.589 15.874 104.642C16.3835 103.694 17.0967 102.871 17.9623 102.232L21.9879 99.7222C22.0599 99.6559 22.1174 99.5754 22.1569 99.4859C22.1964 99.3964 22.217 99.2996 22.2175 99.2018C22.2344 98.8742 22.1622 98.5483 22.0085 98.2585C21.8549 97.9688 21.6256 97.7261 21.345 97.5563C21.2683 97.5161 21.1829 97.4951 21.0963 97.4951C21.0096 97.4951 20.9243 97.5161 20.8475 97.5563V97.5257Z" fill="#081E7A"/>
<path d="M104.849 79.2194C104.677 79.2198 104.509 79.1749 104.36 79.0893C104.183 78.9731 104.04 78.8119 103.946 78.6223C103.851 78.4326 103.809 78.2214 103.824 78.0102V75.4004C103.853 74.939 103.99 74.4909 104.224 74.0921C104.458 73.6934 104.782 73.3551 105.171 73.1045L107.467 71.7881C107.636 71.6567 107.841 71.5788 108.056 71.5644C108.27 71.5501 108.483 71.5999 108.669 71.7075C108.855 71.8151 109.004 71.9757 109.098 72.1686C109.192 72.3616 109.226 72.5781 109.196 72.7907V75.4081C109.17 75.8693 109.035 76.3176 108.802 76.7166C108.569 77.1156 108.245 77.454 107.857 77.7041L105.561 79.0281C105.345 79.1532 105.099 79.2192 104.849 79.2194ZM108.156 72.3315C108.041 72.3411 107.931 72.3778 107.834 72.4386L105.538 73.755C105.262 73.9423 105.032 74.1897 104.865 74.4787C104.698 74.7676 104.598 75.0906 104.574 75.4234V78.0332C104.564 78.1093 104.573 78.1867 104.599 78.2586C104.626 78.3306 104.67 78.3951 104.727 78.4464C104.799 78.4708 104.876 78.4766 104.951 78.4632C105.026 78.4498 105.096 78.4177 105.155 78.3699L107.451 77.0535C107.726 76.8674 107.955 76.6212 108.121 76.3334C108.287 76.0457 108.385 75.724 108.408 75.3928V72.7524C108.408 72.5458 108.355 72.3851 108.263 72.3391C108.243 72.3252 108.221 72.3153 108.197 72.3101C108.173 72.3048 108.149 72.3043 108.125 72.3085L108.156 72.3315Z" fill="#081E7A"/>
<path d="M111.737 75.3622C111.565 75.3665 111.395 75.3214 111.248 75.2321C111.071 75.1177 110.928 74.958 110.833 74.7696C110.739 74.5811 110.697 74.3709 110.712 74.1607V71.5433C110.738 71.0811 110.874 70.6319 111.108 70.2326C111.342 69.8334 111.668 69.4956 112.059 69.2473L114.355 67.9233C114.524 67.7952 114.727 67.7198 114.939 67.7067C115.151 67.6935 115.362 67.7431 115.546 67.8493C115.73 67.9555 115.878 68.1136 115.973 68.3037C116.067 68.4938 116.103 68.7076 116.077 68.9182V71.5356C116.049 71.9975 115.913 72.4463 115.679 72.8453C115.445 73.2444 115.12 73.5824 114.73 73.8316L112.434 75.148C112.224 75.2786 111.984 75.3524 111.737 75.3622ZM115.051 68.4743C114.937 68.4827 114.826 68.5196 114.73 68.5815L112.434 69.9055C112.157 70.0904 111.926 70.3362 111.759 70.624C111.592 70.9119 111.493 71.2342 111.469 71.5662V74.1607C111.46 74.2368 111.468 74.3142 111.495 74.3862C111.522 74.4582 111.566 74.5226 111.623 74.574C111.695 74.5966 111.773 74.6008 111.848 74.5861C111.922 74.5714 111.992 74.5383 112.051 74.4898L114.347 73.1734C114.625 72.9882 114.857 72.7413 115.024 72.4519C115.192 72.1626 115.29 71.8385 115.311 71.505V68.88C115.322 68.8045 115.314 68.7277 115.288 68.6558C115.263 68.584 115.221 68.5192 115.166 68.4667C115.12 68.4469 115.069 68.4415 115.021 68.4514L115.051 68.4743Z" fill="#081E7A"/>
<path d="M117.86 71.5126C117.686 71.5122 117.515 71.4674 117.363 71.3825C117.188 71.2666 117.047 71.1063 116.954 70.9181C116.861 70.7299 116.82 70.5204 116.834 70.3111V67.686C116.862 67.2242 116.998 66.7754 117.232 66.3763C117.466 65.9773 117.792 65.6393 118.181 65.39L120.477 64.0737C120.646 63.9416 120.85 63.863 121.063 63.8479C121.276 63.8328 121.49 63.8819 121.675 63.9889C121.86 64.096 122.009 64.256 122.102 64.4484C122.196 64.6408 122.23 64.8568 122.199 65.0686V67.6554C122.172 68.1172 122.036 68.5661 121.802 68.9651C121.567 69.3642 121.242 69.7021 120.852 69.9514L118.556 71.2754C118.349 71.4141 118.109 71.4959 117.86 71.5126ZM121.174 64.6247C121.059 64.6331 120.949 64.6699 120.852 64.7319L118.556 66.0559C118.28 66.2416 118.05 66.4876 117.883 66.7753C117.716 67.063 117.617 67.3849 117.592 67.7166V70.3417C117.592 70.5407 117.646 70.7014 117.738 70.7473C117.811 70.7717 117.889 70.7774 117.965 70.7641C118.041 70.7507 118.113 70.7186 118.174 70.6708L120.47 69.3544C120.747 69.1683 120.978 68.9212 121.145 68.632C121.312 68.3429 121.411 68.0193 121.434 67.686V65.0533C121.445 64.9778 121.437 64.9008 121.412 64.8289C121.387 64.7569 121.344 64.6922 121.289 64.64C121.246 64.6101 121.195 64.5941 121.143 64.5941L121.174 64.6247Z" fill="#081E7A"/>
<path d="M124.748 67.6553C124.573 67.6585 124.401 67.6135 124.25 67.5252C124.076 67.4092 123.934 67.249 123.842 67.0608C123.749 66.8725 123.708 66.6631 123.722 66.4537V63.8287C123.749 63.3665 123.884 62.9172 124.119 62.518C124.353 62.1187 124.679 61.781 125.069 61.5327L127.365 60.2087C127.536 60.0908 127.738 60.0247 127.945 60.0185C128.153 60.0123 128.358 60.0662 128.536 60.1737C128.714 60.2812 128.857 60.4377 128.948 60.6245C129.039 60.8112 129.074 61.0203 129.049 61.2265V63.844C129.022 64.3051 128.887 64.7535 128.655 65.1525C128.422 65.5515 128.098 65.8898 127.71 66.1399L125.414 67.4639C125.211 67.5816 124.982 67.6473 124.748 67.6553ZM128.054 60.7674C127.94 60.777 127.83 60.8137 127.733 60.8745L125.437 62.1909C125.161 62.3766 124.93 62.6226 124.763 62.9103C124.596 63.198 124.497 63.5198 124.472 63.8516V66.4767C124.462 66.5522 124.469 66.6292 124.495 66.7011C124.52 66.773 124.562 66.8378 124.618 66.8899C124.691 66.9124 124.769 66.9171 124.845 66.9038C124.921 66.8905 124.992 66.8595 125.054 66.8134L127.35 65.4894C127.625 65.3033 127.854 65.057 128.02 64.7693C128.186 64.4816 128.284 64.1599 128.307 63.8287V61.2265C128.307 61.0199 128.253 60.8592 128.161 60.8133C128.145 60.7925 128.124 60.7756 128.1 60.7637C128.076 60.7518 128.05 60.7452 128.023 60.7444L128.054 60.7674Z" fill="#081E7A"/>
<path d="M131.636 63.7984C131.463 63.8027 131.293 63.7575 131.146 63.6683C130.969 63.5539 130.826 63.3942 130.732 63.2057C130.638 63.0173 130.596 62.807 130.61 62.5968V59.9794C130.639 59.518 130.777 59.0699 131.01 58.6711C131.244 58.2724 131.569 57.9341 131.957 57.6835L134.253 56.3595C134.428 56.2421 134.63 56.1731 134.84 56.1597C135.05 56.1462 135.259 56.1888 135.447 56.2829C135.623 56.3977 135.765 56.5577 135.858 56.7463C135.951 56.9348 135.991 57.1448 135.975 57.3544V59.9794C135.95 60.4409 135.815 60.8897 135.582 61.2889C135.349 61.6881 135.025 62.0262 134.636 62.2754L132.34 63.5994C132.127 63.726 131.884 63.7946 131.636 63.7984ZM134.95 56.9105C134.835 56.9189 134.725 56.9557 134.628 57.0176L132.332 58.334C132.056 58.5213 131.826 58.7687 131.659 59.0577C131.492 59.3466 131.392 59.6696 131.368 60.0024V62.6198C131.358 62.6959 131.367 62.7733 131.394 62.8453C131.42 62.9173 131.464 62.9817 131.521 63.0331C131.594 63.0557 131.671 63.0599 131.746 63.0452C131.821 63.0305 131.891 62.9974 131.95 62.9489L134.246 61.6325C134.521 61.4464 134.75 61.2002 134.915 60.9124C135.081 60.6247 135.179 60.303 135.202 59.9718V57.3238C135.202 57.1248 135.149 56.9641 135.057 56.9181C135.037 56.9038 135.015 56.8937 134.991 56.8884C134.967 56.8832 134.943 56.8829 134.919 56.8875L134.95 56.9105Z" fill="#081E7A"/>
<defs>
<linearGradient id="paint0_linear_2940_24598" x1="51.7535" y1="150.505" x2="54.5794" y2="154.747" gradientUnits="userSpaceOnUse">
<stop stop-color="#E64C4E"/>
<stop offset="1" stop-color="#EF33F9"/>
</linearGradient>
<linearGradient id="paint1_linear_2940_24598" x1="65.5294" y1="158.158" x2="68.3552" y2="162.4" gradientUnits="userSpaceOnUse">
<stop stop-color="#E64C4E"/>
<stop offset="1" stop-color="#EF33F9"/>
</linearGradient>
<linearGradient id="paint2_linear_2940_24598" x1="98.5452" y1="139.841" x2="100.872" y2="143.865" gradientUnits="userSpaceOnUse">
<stop stop-color="#E64C4E"/>
<stop offset="1" stop-color="#EF33F9"/>
</linearGradient>
<linearGradient id="paint3_linear_2940_24598" x1="109.497" y1="132.777" x2="111.823" y2="136.801" gradientUnits="userSpaceOnUse">
<stop stop-color="#E64C4E"/>
<stop offset="1" stop-color="#EF33F9"/>
</linearGradient>
<linearGradient id="paint4_linear_2940_24598" x1="120.449" y1="127.213" x2="122.767" y2="131.232" gradientUnits="userSpaceOnUse">
<stop stop-color="#E64C4E"/>
<stop offset="1" stop-color="#EF33F9"/>
</linearGradient>
<linearGradient id="paint5_linear_2940_24598" x1="131.4" y1="120.126" x2="133.719" y2="124.145" gradientUnits="userSpaceOnUse">
<stop stop-color="#E64C4E"/>
<stop offset="1" stop-color="#EF33F9"/>
</linearGradient>
<linearGradient id="paint6_linear_2940_24598" x1="53.2842" y1="157.393" x2="56.11" y2="161.635" gradientUnits="userSpaceOnUse">
<stop stop-color="#E64C4E"/>
<stop offset="1" stop-color="#EF33F9"/>
</linearGradient>
<linearGradient id="paint7_linear_2940_24598" x1="77.7745" y1="158.923" x2="80.6004" y2="163.166" gradientUnits="userSpaceOnUse">
<stop stop-color="#E64C4E"/>
<stop offset="1" stop-color="#EF33F9"/>
</linearGradient>
<linearGradient id="paint8_linear_2940_24598" x1="88.8889" y1="152.485" x2="91.2116" y2="156.512" gradientUnits="userSpaceOnUse">
<stop stop-color="#E64C4E"/>
<stop offset="1" stop-color="#EF33F9"/>
</linearGradient>
<linearGradient id="paint9_linear_2940_24598" x1="99.8412" y1="146.164" x2="102.164" y2="150.19" gradientUnits="userSpaceOnUse">
<stop stop-color="#E64C4E"/>
<stop offset="1" stop-color="#EF33F9"/>
</linearGradient>
<linearGradient id="paint10_linear_2940_24598" x1="110.836" y1="139.841" x2="113.163" y2="143.865" gradientUnits="userSpaceOnUse">
<stop stop-color="#E64C4E"/>
<stop offset="1" stop-color="#EF33F9"/>
</linearGradient>
<linearGradient id="paint11_linear_2940_24598" x1="121.742" y1="133.542" x2="124.06" y2="137.561" gradientUnits="userSpaceOnUse">
<stop stop-color="#E64C4E"/>
<stop offset="1" stop-color="#EF33F9"/>
</linearGradient>
<linearGradient id="paint12_linear_2940_24598" x1="132.694" y1="127.198" x2="135.012" y2="131.217" gradientUnits="userSpaceOnUse">
<stop stop-color="#E64C4E"/>
<stop offset="1" stop-color="#EF33F9"/>
</linearGradient>
<linearGradient id="paint13_linear_2940_24598" x1="72.5833" y1="111.447" x2="81.3403" y2="119.047" gradientUnits="userSpaceOnUse">
<stop stop-color="#E64C4E"/>
<stop offset="1" stop-color="#EF33F9"/>
</linearGradient>
<linearGradient id="paint14_linear_2940_24598" x1="85.155" y1="79.4922" x2="97.5563" y2="89.5705" gradientUnits="userSpaceOnUse">
<stop stop-color="#E64C4E"/>
<stop offset="1" stop-color="#EF33F9"/>
</linearGradient>
<linearGradient id="paint15_linear_2940_24598" x1="10.4731" y1="115.519" x2="23.9334" y2="119.387" gradientUnits="userSpaceOnUse">
<stop stop-color="#E64C4E"/>
<stop offset="1" stop-color="#EF33F9"/>
</linearGradient>
<linearGradient id="paint16_linear_2940_24598" x1="110.666" y1="68.0718" x2="117.04" y2="72.315" gradientUnits="userSpaceOnUse">
<stop stop-color="#E64C4E"/>
<stop offset="1" stop-color="#EF33F9"/>
</linearGradient>
</defs>
</svg>
