<svg width="240" height="241" viewBox="0 0 240 241" fill="none" xmlns="http://www.w3.org/2000/svg">
<path opacity="0.08" d="M49.5701 240.11C22.1934 240.11 0.000137329 227.297 0.000137329 211.49C0.000137329 195.684 22.1934 182.87 49.5701 182.87C76.9469 182.87 99.1401 195.684 99.1401 211.49C99.1401 227.297 76.9469 240.11 49.5701 240.11Z" fill="black"/>
<path d="M13.63 196.23C13.63 196.23 8.63 186.74 7.31 181.76C4.73999 172.17 6.21999 164.49 10.68 159.76L101.12 69.2804C105.12 65.0704 111.44 63.1804 119.42 64.3504C120.8 60.7204 123.56 58.1804 126.87 58.0104C131.87 57.7504 136.11 62.9104 136.44 69.5304C136.44 69.9404 136.44 70.3404 136.44 70.7404L145.69 77.0004C149.749 75.6861 154.046 75.2765 158.28 75.8004C166.14 76.6404 168.93 72.6104 169.04 72.4304L168.98 72.5304L176.75 77.1404C176.53 77.5104 171.16 86.2704 157.32 84.7904C156.201 84.6629 155.075 84.6161 153.95 84.6504C153.95 84.6504 162.78 96.0004 162.8 96.0004C166.242 95.8262 169.613 97.0262 172.171 99.3364C174.728 101.647 176.264 104.878 176.44 108.32C176.69 113.32 170.44 120.57 170.44 120.57C170.23 125.75 168.5 129.98 165.53 132.97L74.73 223.13C70.02 227.84 62.2 229.44 52.39 226.81C46.4104 225.111 40.7514 222.438 35.64 218.9C28.28 228.78 19.57 239.14 12.99 237.9C7.87 236.9 5.89 234.31 4.38 228.65C1.09001 216.36 6.14 205.25 13.63 196.23ZM6.48999 217C5.28999 225.68 8.44 233 10.36 234.16C18.79 239.09 33.36 217.31 33.36 217.31L24.62 209.81L15.27 198.88C15.27 198.88 7.56 209.22 6.48999 217Z" fill="white"/>
<path d="M216.829 98.1328C213.131 96.8692 209.475 96.7014 206.56 97.4285C203.64 98.1571 201.53 99.7606 200.763 101.992C200.002 104.218 200.683 106.775 202.541 109.138C204.395 111.497 207.385 113.603 211.082 114.867C214.779 116.13 218.435 116.295 221.35 115.567C224.271 114.837 226.381 113.234 227.147 111.007C227.914 108.781 227.233 106.224 225.374 103.861C223.518 101.503 220.526 99.3963 216.829 98.1328Z" fill="url(#paint0_linear_3161_19088)" stroke="#081E7A"/>
<path d="M149.12 28.0005C143.97 27.3605 140.62 20.6004 141.64 12.8904C142.66 5.18045 147.65 -0.589551 152.8 0.0504494C157.95 0.690449 161.29 7.45045 160.28 15.1604C159.27 22.8704 154.26 28.5905 149.12 28.0005Z" fill="#E3FFFF"/>
<path d="M209.08 62.7704C202.51 63.9104 196.46 60.6904 195.57 55.5704C194.68 50.4504 199.27 45.3704 205.84 44.2304C212.41 43.0904 218.45 46.3104 219.35 51.4304C220.25 56.5504 215.64 61.6304 209.08 62.7704Z" fill="#E3FFFF"/>
<path d="M157.111 62.9369C158.384 63.698 159.854 64.0647 161.335 63.9906C162.319 63.9414 163.285 63.6986 164.175 63.2761C165.066 62.8536 165.864 62.2596 166.525 61.5282C167.186 60.7968 167.696 59.9423 168.027 59.0136C168.357 58.0848 168.501 57.1001 168.451 56.1156C168.375 54.6347 167.861 53.2094 166.975 52.0201C166.09 50.8308 164.871 49.9307 163.474 49.4337C162.077 48.9367 160.564 48.8651 159.126 49.2279C157.688 49.5906 156.39 50.3715 155.396 51.4718C154.401 52.5721 153.756 53.9424 153.54 55.4096C153.325 56.8768 153.549 58.375 154.184 59.7148C154.82 61.0546 155.839 62.1759 157.111 62.9369Z" fill="white" stroke="#081E7A"/>
<path d="M214.46 80.5898C203.95 78.5898 199.05 82.4498 198.95 82.5198L191.37 74.0898C192.26 73.2898 200.51 66.3798 216.59 69.4498C226.33 71.3098 230.24 66.5498 230.4 66.3398L230.32 66.4498L239.56 72.9998C239.24 73.4698 231.63 83.8698 214.46 80.5898Z" fill="#E3FFFF"/>
<path d="M171.51 25.1996C168.23 7.99961 178.63 0.419609 179.07 0.0996094L185.64 9.33961L185.75 9.25961C185.55 9.41961 180.75 13.3296 182.65 23.0696C185.71 39.1496 178.81 47.3996 178.01 48.2896L169.56 40.7096C169.65 40.6096 173.51 35.7096 171.51 25.1996Z" fill="#E3FFFF"/>
<path d="M133.81 49.9999C133.81 49.9099 133.49 45.1599 126.99 40.2399C116.38 32.2399 118.38 22.5799 118.47 22.1699L126.9 24.0499V23.9499C126.9 24.1399 126.16 28.7799 132.18 33.3499C142.15 40.8999 142.45 49.0899 142.45 49.9999H133.81Z" fill="#E3FFFF"/>
<path d="M202.42 126.48C206.42 133.27 211.37 133.07 211.58 133.06H211.47L212.47 142.06C212.04 142.06 201.81 143.06 194.68 131.12C190.31 123.8 185.42 122.93 185.32 122.91L186.32 113.91C187.25 114 195.73 115.28 202.42 126.48Z" fill="#E3FFFF"/>
<path d="M13.6298 196.23L15.2298 198.87C8.54983 207.19 4.22982 217.16 7.06982 227.93C8.26982 232.38 10.0698 234.79 12.4698 235.08C17.9298 235.74 26.1398 227 33.5798 216.94L35.8198 218.68C28.4198 228.68 19.7398 237.9 12.9898 237.9C12.7025 237.899 12.4154 237.882 12.1298 237.85C8.49984 237.4 5.88984 234.31 4.37984 228.65C1.08984 216.36 6.13984 205.25 13.6298 196.23Z" fill="#1388FF"/>
<path d="M119.78 64.3897L136.96 70.8497C139.785 72.5035 142.491 74.3513 145.06 76.3797L154.43 85.0997C157.367 88.305 160.017 91.7616 162.35 95.4297L170.44 120.59C169.9 134.04 159.14 141.05 143.03 136.73C123.3 131.44 103.03 111.16 97.7299 91.4297C92.8199 73.0997 102.56 61.6997 119.78 64.3897ZM104.47 92.8697C108.69 108.6 124.86 124.77 140.56 129C150.88 131.76 158.44 128.7 161.24 121.83L156.62 97.1297C154.201 93.1418 151.325 89.4501 148.05 86.1297L140.05 79.2797C138.386 78.0854 136.653 76.9901 134.86 75.9997L119.13 70.9997C107.25 70.5297 100.84 79.3297 104.47 92.8697Z" fill="#FFECFA"/>
<path d="M28.6999 174.89C43.3399 191.17 72.5699 200.7 93.9899 196.16C100.45 194.79 105.45 192.3 108.9 189.03L95.5499 202.4C92.0899 206.08 86.7899 208.88 79.7799 210.4C58.3699 214.94 29.1399 205.4 14.4999 189.13C4.74991 178.29 3.9399 167.13 10.8199 159.63L25.2499 145.18C18.1399 152.69 18.8399 163.92 28.6999 174.89Z" fill="url(#paint1_linear_3161_19088)"/>
<path d="M56.51 147.08C71.15 163.37 100.38 172.89 121.79 168.35C128.26 166.99 133.26 164.49 136.71 161.23L123.35 174.6C119.9 178.27 114.6 181.07 107.59 182.6C86.17 187.13 56.95 177.6 42.31 161.33C32.56 150.48 31.75 139.33 38.62 131.82L53.06 117.33C45.94 124.89 46.65 136.12 56.51 147.08Z" fill="#FFECFA"/>
<path d="M84.8 118.8C99.44 135.08 128.66 144.6 150.08 140.07C156.56 138.7 161.56 136.2 165 132.94L151.64 146.31C148.19 149.98 142.89 152.79 135.88 154.31C114.46 158.84 85.23 149.31 70.6 133.04C60.85 122.19 60.03 111.04 66.91 103.53L81.35 89C74.23 96.6 74.94 107.83 84.8 118.8Z" fill="url(#paint2_linear_3161_19088)"/>
<path d="M126.896 58.4993C124.588 58.6194 122.539 59.9677 121.091 62.1236C119.644 64.2803 118.819 67.2215 118.979 70.435C119.139 73.6478 120.258 76.4893 121.914 78.4871C123.569 80.4847 125.738 81.6158 128.025 81.5005C130.311 81.3853 132.358 80.0383 133.81 77.8796C135.262 75.7209 136.096 72.7769 135.941 69.5641C135.785 66.3518 134.667 63.5106 133.01 61.5129C131.353 59.5154 129.183 58.3841 126.896 58.4993Z" fill="#FFECFA" stroke="#081E7A"/>
<path d="M142.151 12.789C141.631 16.5534 142.182 20.08 143.468 22.7344C144.756 25.3924 146.748 27.1234 149.099 27.4484C151.451 27.7735 153.838 26.6479 155.798 24.4388C157.756 22.2328 159.243 18.988 159.764 15.2235C160.284 11.459 159.733 7.93243 158.447 5.2781C157.159 2.62003 155.167 0.889116 152.816 0.564049C150.464 0.238982 148.077 1.36462 146.116 3.57369C144.159 5.77966 142.672 9.02449 142.151 12.789Z" fill="#FFECFA" stroke="#081E7A"/>
<path d="M196.053 55.4847C196.877 60.225 202.565 63.3917 208.985 62.2777C215.403 61.164 219.682 56.2571 218.858 51.516C218.445 49.1397 216.815 47.171 214.468 45.9244C212.121 44.6777 209.08 44.1707 205.927 44.7229C202.773 45.2751 200.083 46.7797 198.295 48.7444C196.508 50.7086 195.64 53.1083 196.053 55.4847Z" fill="url(#paint3_linear_3161_19088)" stroke="#081E7A"/>
<path d="M162.153 96.5696C155.287 97.2925 150.307 103.444 151.03 110.31C151.753 117.175 157.904 122.155 164.77 121.432C171.636 120.709 176.615 114.558 175.893 107.692C175.17 100.827 169.018 95.8468 162.153 96.5696Z" fill="white" stroke="#081E7A"/>
<path d="M214.554 80.0984L214.554 80.0984C229.754 83.0022 237.298 75.0178 238.849 73.1072L230.376 67.0733C229.093 68.332 224.869 71.5351 216.496 69.9106C202.005 67.1443 193.995 72.5815 192.086 74.1097L199.029 81.8585C199.198 81.7503 199.422 81.6157 199.702 81.4662C200.369 81.1101 201.352 80.6696 202.665 80.2973C205.292 79.5519 209.224 79.0841 214.554 80.0984Z" fill="#FFECFA" stroke="#081E7A"/>
<path d="M170.223 40.6329L177.96 47.5731C179.487 45.6635 184.916 37.6534 182.159 23.1642C180.524 14.7823 183.742 10.5612 184.988 9.28546L178.965 0.81446C177.04 2.39251 169.104 9.91782 171.991 25.1062C173.73 34.2431 171.112 39.2554 170.223 40.6329Z" fill="white" stroke="#081E7A"/>
<path d="M127.291 39.8407L127.292 39.8413C132.8 44.0103 134 48.0981 134.249 49.4999H141.93C141.783 47.4791 140.634 40.3788 131.878 33.7485L131.878 33.7482C128.79 31.4041 127.407 29.0177 126.807 27.1613C126.508 26.2362 126.406 25.451 126.379 24.8793C126.372 24.7161 126.37 24.5706 126.372 24.4444L118.875 22.7724C118.59 24.8486 118.161 32.9561 127.291 39.8407Z" fill="url(#paint4_linear_3161_19088)" stroke="#081E7A"/>
<path d="M185.3 122.9C185.4 122.9 190.3 123.79 194.66 131.11C201.79 143.11 212.02 142.11 212.45 142.05L211.45 133.05H211.56C211.35 133.05 206.45 133.26 202.4 126.47C195.71 115.27 187.23 114.01 186.29 113.91L185.3 122.9Z" fill="#67DAFF"/>
<path d="M169.087 73.1744C168.056 74.3268 164.871 77.0069 158.227 76.2969L158.227 76.2969C146.762 75.071 140.811 79.7016 139.272 81.1233L145.146 86.6665C145.266 86.577 145.416 86.4714 145.597 86.355C146.11 86.0245 146.869 85.6072 147.895 85.2238C149.949 84.4561 153.057 83.8294 157.373 84.2925C164.172 85.0196 168.866 83.2317 171.878 81.2413C173.388 80.2436 174.48 79.1909 175.205 78.3686C175.567 77.9576 175.837 77.6047 176.02 77.3462C176.03 77.3322 176.04 77.3186 176.049 77.3053L169.087 73.1744Z" fill="white" stroke="#081E7A"/>
<path d="M13.6298 196.23L15.2298 198.87C8.54983 207.19 4.22982 217.16 7.06982 227.93C8.26982 232.38 10.0698 234.79 12.4698 235.08C17.9298 235.74 26.1398 227 33.5798 216.94L35.8198 218.68C28.4198 228.68 19.7398 237.9 12.9898 237.9C12.7025 237.899 12.4154 237.882 12.1298 237.85C8.49984 237.4 5.88984 234.31 4.37984 228.65C1.08984 216.36 6.13984 205.25 13.6298 196.23Z" fill="#081E7A"/>
<path d="M156.22 97.3803L157.08 96.8603C154.639 92.8421 151.736 89.1235 148.43 85.7803L147.72 86.4803C150.973 89.7661 153.826 93.4248 156.22 97.3803Z" fill="#081E7A"/>
<path d="M147.64 130.48C154.35 130.48 159.5 127.48 161.74 122L160.81 121.63C157.99 128.55 150.48 131.12 140.72 128.5L140.46 129.5C142.8 130.139 145.214 130.468 147.64 130.48Z" fill="#081E7A"/>
<path d="M104.26 93.9995L105.26 93.7095L104.99 92.7695L103.99 93.0295C104.07 93.3195 104.17 93.6495 104.26 93.9995Z" fill="#081E7A"/>
<path d="M137.56 128.55L137.9 127.61C137.27 127.38 136.64 127.14 136.02 126.88L135.63 127.8C136.23 128.07 136.88 128.32 137.56 128.55ZM133.74 126.96L134.17 126.06C133.56 125.78 132.96 125.47 132.36 125.16L131.89 126.04C132.47 126.37 133.08 126.67 133.7 127L133.74 126.96ZM130.09 125.05L130.59 124.18C130.01 123.84 129.43 123.5 128.85 123.13L128.32 123.98C128.87 124.35 129.45 124.7 130.05 125.05H130.09ZM126.6 122.85L127.16 122.02C126.613 121.64 126.063 121.25 125.51 120.85L124.92 121.65C125.447 122.064 125.993 122.464 126.56 122.85H126.6ZM123.28 120.4L123.9 119.61C123.37 119.19 122.9 118.76 122.33 118.33L121.68 119.09C122.17 119.53 122.7 120 123.24 120.4H123.28ZM120.13 117.73L120.8 116.99L119.32 115.6L118.63 116.32C119.09 116.774 119.577 117.244 120.09 117.73H120.13ZM117.13 114.86L117.85 114.16C117.38 113.68 116.92 113.16 116.46 112.69L115.72 113.36C116.18 113.874 116.65 114.374 117.13 114.86ZM114.36 111.86L115.13 111.21C114.69 110.7 114.26 110.21 113.84 109.65L113.06 110.27C113.48 110.75 113.92 111.28 114.36 111.81V111.86ZM111.81 108.63L112.56 108C112.16 107.447 111.77 106.897 111.39 106.35L110.56 106.91C110.98 107.477 111.397 108.034 111.81 108.58V108.63ZM109.48 105.23L110.33 104.7C109.957 104.12 109.607 103.54 109.28 102.96L108.41 103.46C108.75 104 109.11 104.59 109.48 105.18V105.23ZM107.41 101.66L108.3 101.19C107.98 100.59 107.68 99.9904 107.4 99.3804L106.49 99.8104C106.78 100.38 107.09 101 107.41 101.61V101.66ZM105.65 97.9204L106.58 97.5304C106.32 96.9104 106.07 96.2804 105.85 95.6504L104.91 95.9904C105.14 96.5804 105.39 97.2304 105.65 97.8704V97.9204Z" fill="#081E7A"/>
<path d="M140.46 129.47L140.72 128.47L139.72 128.21L139.44 129.21L140.46 129.47Z" fill="#081E7A"/>
<path d="M103.99 93.0003L104.99 92.7403C103.18 85.9603 103.87 80.1203 106.99 76.2703C109.66 72.9403 113.88 71.2703 119.19 71.5203V70.5203C113.55 70.3003 109.04 72.0603 106.19 75.6503C102.85 79.7503 102.09 85.9103 103.99 93.0003Z" fill="#081E7A"/>
<path d="M139.8 79.6795L140.38 78.8695C138.686 77.652 136.923 76.5335 135.1 75.5195L134.62 76.3895C136.404 77.3931 138.133 78.4913 139.8 79.6795Z" fill="#081E7A"/>
<path d="M138.74 141.69C142.582 141.708 146.416 141.329 150.18 140.56L149.98 139.56C128.75 144.05 99.6802 134.56 85.1702 118.44C75.8802 108.13 74.5602 97 81.7102 89.39C81.8024 89.2949 81.854 89.1676 81.854 89.035C81.854 88.9025 81.8024 88.7752 81.7102 88.68C81.6167 88.5884 81.4911 88.5371 81.3602 88.5371C81.2293 88.5371 81.1036 88.5884 81.0102 88.68L66.5602 103.14L67.2602 103.84L77.7902 93.32C74.1702 100.85 76.4802 110.32 84.4302 119.13C96.6702 132.75 119.13 141.69 138.74 141.69Z" fill="#081E7A"/>
<path d="M124.56 155.89C128.402 155.913 132.236 155.534 136 154.76L135.8 153.76C114.57 158.25 85.5 148.76 70.99 132.65C61.81 122.43 60.4 111.38 67.3 103.81L66.56 103.13C59.28 111.13 60.69 122.69 70.25 133.31C82.47 147 104.93 155.89 124.56 155.89Z" fill="#081E7A"/>
<path d="M61.3199 228.6C66.9799 228.6 71.7099 226.88 75.0799 223.51L165.88 133.35L165.18 132.64L74.3799 222.8C69.5899 227.58 61.8299 228.8 52.5199 226.35C33.0699 221.14 13.0099 201.08 7.7999 181.63C5.2999 172.31 6.55988 164.55 11.3399 159.77L101.56 69.5203L100.85 68.8203L10.6099 159.06C5.55989 164.11 4.2099 172.21 6.7999 181.89C12.0899 201.64 32.4699 222.02 52.2299 227.31C55.1906 228.135 58.2466 228.569 61.3199 228.6Z" fill="#081E7A"/>
<path d="M151.95 138.49C156.256 138.631 160.494 137.387 164.04 134.94C168.3 131.8 170.69 126.85 170.94 120.61H169.94C169.7 126.53 167.46 131.22 163.45 134.17C158.6 137.74 151.39 138.5 143.16 136.29C123.56 131 103.45 110.84 98.2099 91.2996C95.8099 82.2996 96.8799 74.7296 101.21 69.8896C105.21 65.4296 111.77 63.6496 119.67 64.8896L119.83 63.8896C111.59 62.5996 104.71 64.4896 100.46 69.2096C95.8799 74.3096 94.7199 82.2096 97.2099 91.5496C102.53 111.4 123.02 131.88 142.87 137.2C145.826 138.028 148.88 138.462 151.95 138.49Z" fill="#081E7A"/>
<path d="M144.75 76.7704L145.36 76.0004C142.777 73.9587 140.053 72.1008 137.21 70.4404L136.71 71.3004C139.511 72.9394 142.197 74.7669 144.75 76.7704Z" fill="#081E7A"/>
<path d="M161.93 95.6998L162.77 95.1598C160.415 91.4645 157.737 87.9843 154.77 84.7598L154.03 85.4398C156.958 88.6226 159.601 92.0557 161.93 95.6998Z" fill="#081E7A"/>
<path d="M82.6502 197.79C86.4928 197.809 90.3269 197.427 94.0902 196.65C100.49 195.3 105.59 192.86 109.24 189.4L108.56 188.67C105.09 191.95 100.01 194.38 93.8802 195.67C72.6502 200.17 43.5802 190.67 29.0802 174.56C19.7802 164.22 18.4602 153.08 25.6202 145.48L24.8902 144.79C17.3402 152.79 18.6602 164.47 28.3302 175.23C40.5602 188.84 63.0402 197.78 82.6502 197.79Z" fill="#081E7A"/>
<path d="M68.4401 212C72.2861 212.019 76.1235 211.637 79.8901 210.86L79.6801 209.86C58.4501 214.36 29.3801 204.86 14.8801 188.75L14.1301 189.42C26.3701 203.05 48.8401 212 68.4401 212Z" fill="#081E7A"/>
<path d="M110.451 170C114.297 170.019 118.134 169.637 121.901 168.86C128.301 167.51 133.391 165.07 137.051 161.61L136.361 160.88C132.891 164.17 127.821 166.59 121.691 167.88C100.461 172.37 71.3908 162.88 56.8808 146.76C47.5908 136.42 46.2708 125.28 53.4308 117.68L52.7008 117C45.1508 125 46.4708 136.67 56.1408 147.43C68.3808 161 90.8508 170 110.451 170Z" fill="#081E7A"/>
<path d="M96.2499 184.18C100.092 184.198 103.926 183.819 107.69 183.05L107.49 182.05C86.2599 186.54 57.1899 177.05 42.6799 160.93C33.4999 150.72 32.0899 139.67 38.9899 132.1L38.2499 131.42C30.9699 139.42 32.3899 150.98 41.9399 161.6C54.1799 175.24 76.6499 184.18 96.2499 184.18Z" fill="#081E7A"/>
<path d="M120.97 101.33C121.035 102.614 121.48 103.85 122.247 104.882C123.014 105.914 124.071 106.694 125.282 107.125C126.493 107.557 127.805 107.619 129.052 107.305C130.298 106.99 131.424 106.313 132.286 105.359C133.147 104.405 133.707 103.216 133.893 101.944C134.08 100.672 133.885 99.3733 133.333 98.212C132.781 97.0508 131.897 96.0793 130.793 95.4204C129.689 94.7615 128.414 94.4448 127.13 94.5104C125.409 94.5984 123.793 95.3662 122.638 96.6451C121.483 97.924 120.883 99.6093 120.97 101.33Z" fill="white"/>
<path d="M211.56 142.09H211.575L211.589 142.091C211.859 142.106 212.129 142.107 212.399 142.092C212.4 142.087 212.401 142.082 212.401 142.077L211.453 133.424L211.433 133.242L211.53 133.099L211.521 133.1H211.501C211.501 133.1 211.499 133.1 211.495 133.1L211.476 133.1C211.46 133.101 211.439 133.101 211.413 133.101C211.361 133.101 211.292 133.1 211.207 133.096C211.038 133.089 210.809 133.07 210.529 133.026C209.969 132.938 209.209 132.748 208.333 132.345C206.574 131.537 204.374 129.882 202.371 126.526L202.371 126.526C195.671 115.301 187.138 114.058 186.257 113.957L185.257 122.955L185.257 122.955L185.257 122.957C185.292 122.962 185.323 122.968 185.345 122.972C185.404 122.984 185.477 123 185.563 123.023C185.736 123.069 185.968 123.141 186.249 123.249C186.812 123.464 187.576 123.824 188.461 124.407C190.235 125.575 192.487 127.63 194.589 131.193C200.7 141.235 208.973 142.09 211.56 142.09ZM211.536 133.091C211.535 133.091 211.535 133.091 211.535 133.091L211.536 133.091Z" fill="#FFECFA" stroke="#081E7A"/>
<defs>
<linearGradient id="paint0_linear_3161_19088" x1="227.958" y1="96.498" x2="209.037" y2="122.986" gradientUnits="userSpaceOnUse">
<stop stop-color="#E64C4E"/>
<stop offset="1" stop-color="#EF33F9"/>
</linearGradient>
<linearGradient id="paint1_linear_3161_19088" x1="108.9" y1="145.18" x2="48.3866" y2="238.744" gradientUnits="userSpaceOnUse">
<stop stop-color="#E64C4E"/>
<stop offset="1" stop-color="#EF33F9"/>
</linearGradient>
<linearGradient id="paint2_linear_3161_19088" x1="165" y1="89" x2="104.377" y2="182.618" gradientUnits="userSpaceOnUse">
<stop stop-color="#E64C4E"/>
<stop offset="1" stop-color="#EF33F9"/>
</linearGradient>
<linearGradient id="paint3_linear_3161_19088" x1="219.46" y1="44.001" x2="200.97" y2="67.3672" gradientUnits="userSpaceOnUse">
<stop stop-color="#E64C4E"/>
<stop offset="1" stop-color="#EF33F9"/>
</linearGradient>
<linearGradient id="paint4_linear_3161_19088" x1="142.45" y1="22.1699" x2="114.892" y2="46.12" gradientUnits="userSpaceOnUse">
<stop stop-color="#E64C4E"/>
<stop offset="1" stop-color="#EF33F9"/>
</linearGradient>
</defs>
</svg>
