<svg width="200" height="177" viewBox="0 0 200 177" fill="none" xmlns="http://www.w3.org/2000/svg">
<path d="M108.5 94.5V160L136.5 176V109L108.5 94.5Z" fill="white"/>
<path d="M111.5 152.5V135.5L132.5 148V164.5L111.5 152.5Z" fill="#FFECFA"/>
<path d="M111.5 131V114L132.5 126.5V143L111.5 131Z" fill="#FFECFA"/>
<path d="M111.5 110V93L132.5 105.5V122L111.5 110Z" fill="#FFECFA"/>
<path d="M137 102.5L190 79V145.5L137 176V102.5Z" fill="#FFECFA"/>
<path d="M199 69V76L136 110.5V105L199 69Z" fill="url(#paint0_linear_3156_18903)"/>
<path d="M199 69L136 105L17.5 38.5L83.5 1L199 69Z" fill="white"/>
<path d="M79.0524 41.6446L102 29L136 49.3191L113 63L79.035 43.3864C78.3607 42.997 78.3705 42.0204 79.0524 41.6446Z" fill="#FFECFA"/>
<path d="M136 110.5V105L46 53.5L45.5 59L136 110.5Z" fill="#FFECFA"/>
<path d="M90.5 38.5L101.5 32L130.5 49L119.5 55.5L90.5 38.5Z" fill="white"/>
<path d="M92.6503 48.7128L98.4999 45.5L108 51L102 54.5L92.6503 48.7128Z" fill="url(#paint1_linear_3156_18903)"/>
<path d="M51.0003 144.5V134.5L54.5 132.5V144.5L69.5 135.5L72.5 136.5L74 138.5L74.5 146.5L73 147.5C68.2 147.5 67.3333 142.833 67.5 140.5L70.5 138.5L71 138L70 137.5L54.5 146.5L68.5 155C70.9 156.6 72.1667 160 72.5 161.5L74.5 163L70.5 170.5C70.1667 170.5 69.2 170.2 68 169C66.8 167 68.1667 164.5 69 163.5L70.5 162.5C70.9 159.7 68.6667 157.333 67.5 156.5L52.5 147.5C48.5 149.833 39.9 154.9 37.5 156.5C35.1 158.1 34.5 160.833 34.5 162L35.5 169.5L33.5003 171C28.7003 169.4 28.5003 165.333 29.0003 163.5L31.0003 162.5C31.5003 163.333 32.5003 164.3 32.5003 161.5C32.5003 158.7 34.8336 156 36.0003 155L50.0003 146.5L35.0003 138H33.5003L35.0003 139.5L31.0003 147L29.0003 146V142.5L31.0003 139L32.0003 137L34.0003 135.5L36.0003 136L51.0003 144.5Z" fill="white"/>
<path d="M34.8648 165.999C36.0623 167.979 36.0377 170.186 34.8098 170.929C33.5819 171.671 31.6158 170.668 30.4182 168.688C29.2207 166.708 28.2721 164.243 29.5 163.5C30.7279 162.757 33.6673 164.019 34.8648 165.999Z" fill="#FFECFA"/>
<path d="M72.9896 142.205C74.1871 144.185 74.2279 146.757 73 147.5C71.7721 148.243 69.7406 146.875 68.543 144.895C67.3455 142.915 67.3969 140.449 68.6248 139.707C69.8527 138.964 71.7921 140.225 72.9896 142.205Z" fill="#FFECFA"/>
<ellipse cx="72.9997" cy="167.001" rx="2.59827" ry="4.18986" transform="rotate(27.7078 72.9997 167.001)" fill="url(#paint2_linear_3156_18903)"/>
<ellipse cx="34.2487" cy="143.918" rx="2.59827" ry="4.18986" transform="rotate(27.7078 34.2487 143.918)" fill="url(#paint3_linear_3156_18903)"/>
<ellipse cx="165" cy="66" rx="11" ry="6" fill="#FFECFA"/>
<path d="M32.5 161.5L30 163L32.5 163.5L34.5 166L35 168.5L34.5 170.5L36.5 169.5L37.5 168L37 165.5L35 162.5L33 164L32.5 161.5Z" fill="url(#paint4_linear_3156_18903)"/>
<path d="M71.5 138.5L69 139.5L71 140.5L73 142.5L74 145L73.5 147L75.5 146L76 144.5V142.5L74 140L73 140.5L71.5 138.5Z" fill="url(#paint5_linear_3156_18903)"/>
<path d="M29.0006 145.5L31 147L31.3498 144.688L31.9826 141.931L34 140L35.5303 139.118L33.621 137.954L32 140.5L30.5884 139.757L29.3331 142.411L28.5 143L29.0006 145.5Z" fill="#FFECFA"/>
<path d="M69.499 170L67.4996 168.5L67.6358 165.647L68.5 164.5L69.7242 162.403L71.9956 163.997L72.0014 163.993L72.5 161.5L74 163L73.5 163L72.0014 163.993L72 164L71.9956 163.997L71.1183 164.578L69.8488 167.688L69.499 170Z" fill="#FFECFA"/>
<path d="M136 105L199 69M136 105L19 38M136 105V110.5M199 69L83.5 1L19 38M199 69V75.5L136 110.5M19 38V44L136 110.5" stroke="#081E7A"/>
<path d="M102 29.5517V2L136.5 21.5V49L102 29.5517Z" fill="#FFECFA"/>
<path d="M105 27.6897V7L134.5 24.5L134 44L105 27.6897Z" fill="white"/>
<path d="M14.4998 114.5L47.9998 133.5L92.5 98.5L60.5 80L57 78.5L53 80L49 83.5L46.5 85L45.5 51L17 34.5L14 32.5H11.5L8.5 34L4.5 38L2.5 42L1 47L8.5 96L10 98.5L16.5 102C16.3333 102.167 15.7998 102.9 14.9998 104.5C12.1998 109.3 13.4998 113.167 14.4998 114.5Z" fill="#FFECFA"/>
<path d="M25.5 97.0001C23.9 94.2001 22.8333 95.8335 22.5 97.0001L25.5 125.5C26.3 126.7 27.8333 126 28.5 125.5C27.5 117 25.5 99.4001 25.5 97.0001Z" fill="white"/>
<path d="M89.4999 112L51.4999 134C49.4999 134.5 48.4999 134.5 46.9999 132.5C44.4999 125.5 50.9999 119.5 51.4999 119C51.9999 118.5 54.9999 117 57.9999 116C60.9999 115 67.9999 112 73.4999 109C78.9999 106 85.9999 99.5001 86.4999 99.0001C86.9999 98.5001 90.4999 96.0001 92.9999 99.5001C94.9999 102.3 92.8333 107 91.4999 109L89.4999 112Z" fill="url(#paint6_linear_3156_18903)"/>
<path d="M183 32L170 17.5L168.5 18L182 32.5L183 32Z" fill="white"/>
<path d="M170.5 9L164.5 11.5L167.5 18.5L174 15L170.5 9Z" fill="white"/>
<path d="M135.961 176.558C135.889 176.559 135.819 176.539 135.757 176.501L107.985 160.165C107.925 160.128 107.874 160.077 107.839 160.015C107.803 159.954 107.783 159.885 107.781 159.814V95.0811H108.598V159.61L135.553 175.439V111.417H136.37V176.15C136.371 176.223 136.352 176.294 136.317 176.357C136.281 176.421 136.229 176.473 136.166 176.509C136.103 176.543 136.033 176.56 135.961 176.558Z" fill="#081E7A"/>
<path d="M182 34L164.5 64L165.5 65L183 35L182 34Z" fill="white"/>
<path d="M132.694 144.09C132.624 144.09 132.554 144.073 132.49 144.041L111.253 131.568C111.191 131.531 111.14 131.478 111.104 131.415C111.069 131.352 111.049 131.281 111.049 131.209V114.423C111.051 114.352 111.071 114.282 111.108 114.22C111.145 114.159 111.198 114.108 111.26 114.073C111.323 114.037 111.393 114.019 111.465 114.019C111.537 114.018 111.607 114.037 111.67 114.072L132.907 126.545C132.966 126.582 133.016 126.634 133.05 126.695C133.084 126.757 133.103 126.826 133.103 126.896V143.682C133.104 143.754 133.085 143.826 133.05 143.889C133.014 143.952 132.962 144.005 132.899 144.041C132.836 144.075 132.766 144.092 132.694 144.09ZM111.866 131.021L132.286 143.012V127.133L111.866 115.142V131.021Z" fill="#081E7A"/>
<path d="M132.694 123.122C132.622 123.123 132.552 123.103 132.49 123.065L111.253 110.592C111.191 110.557 111.14 110.505 111.104 110.444C111.068 110.382 111.049 110.312 111.049 110.241V97.5312H111.866V110.004L132.286 122.003V109.751H133.103V122.681C133.105 122.753 133.087 122.824 133.051 122.886C133.015 122.948 132.962 122.999 132.899 123.032C132.842 123.084 132.77 123.115 132.694 123.122Z" fill="#081E7A"/>
<path d="M132.694 165.075C132.622 165.075 132.552 165.056 132.49 165.018L111.253 152.545C111.191 152.509 111.14 152.458 111.104 152.397C111.068 152.335 111.049 152.265 111.049 152.194V135.408C111.051 135.337 111.071 135.267 111.108 135.205C111.145 135.144 111.198 135.093 111.26 135.057C111.323 135.022 111.393 135.003 111.465 135.003C111.537 135.003 111.607 135.022 111.67 135.057L132.907 147.53C132.967 147.566 133.017 147.618 133.051 147.68C133.085 147.741 133.103 147.811 133.103 147.881V164.634C133.104 164.707 133.085 164.778 133.05 164.841C133.014 164.905 132.962 164.957 132.899 164.993C132.839 165.038 132.769 165.067 132.694 165.075ZM111.866 152.006L132.286 163.997V148.118L111.866 136.119V152.006Z" fill="#081E7A"/>
<path d="M136.408 176.804L136 176.094L189.167 145.414V81H189.983V145.651C189.984 145.724 189.966 145.795 189.93 145.858C189.894 145.922 189.842 145.974 189.779 146.01L136.408 176.804Z" fill="#081E7A"/>
<path d="M122.23 110.617C122.163 110.617 122.097 110.6 122.037 110.569C121.978 110.538 121.926 110.493 121.887 110.438L120.613 108.534C120.583 108.491 120.561 108.442 120.55 108.39C120.539 108.338 120.538 108.284 120.548 108.232C120.569 108.126 120.63 108.032 120.719 107.971C120.932 107.832 121.977 107.154 122.141 107.04C122.297 106.964 122.47 106.931 122.643 106.942C122.817 106.954 122.984 107.01 123.129 107.105C123.434 107.299 123.687 107.564 123.867 107.877C124.048 108.189 124.151 108.541 124.166 108.902C124.173 109.058 124.142 109.214 124.077 109.356C124.011 109.498 123.913 109.622 123.79 109.719C123.635 109.841 122.712 110.38 122.435 110.536C122.376 110.582 122.305 110.611 122.23 110.617ZM121.52 108.42L122.337 109.662L123.292 109.09C123.313 109.029 123.313 108.963 123.292 108.902C123.276 108.685 123.212 108.475 123.103 108.287C122.994 108.098 122.843 107.937 122.663 107.816C122.549 107.75 122.484 107.75 122.475 107.759C122.467 107.767 122.002 108.093 121.52 108.42Z" fill="#081E7A"/>
<path d="M121.333 111.818C121.045 111.813 120.763 111.731 120.516 111.581C120.067 111.294 119.693 110.903 119.426 110.441C119.159 109.979 119.006 109.46 118.981 108.927C118.962 108.691 119.006 108.455 119.11 108.242C119.213 108.03 119.372 107.848 119.569 107.718C119.782 107.611 120.021 107.562 120.259 107.578C120.498 107.594 120.727 107.673 120.925 107.808C121.374 108.095 121.748 108.487 122.015 108.948C122.282 109.41 122.435 109.929 122.46 110.462C122.479 110.699 122.434 110.937 122.331 111.151C122.228 111.364 122.069 111.547 121.872 111.679C121.706 111.769 121.522 111.816 121.333 111.818ZM120.141 108.388C120.092 108.378 120.042 108.378 119.994 108.388C119.879 108.453 119.814 108.641 119.814 108.894C119.838 109.283 119.953 109.662 120.148 109.999C120.344 110.336 120.615 110.624 120.941 110.838C121.016 110.897 121.105 110.937 121.199 110.954C121.293 110.971 121.389 110.965 121.48 110.936C121.595 110.871 121.66 110.683 121.66 110.43C121.636 110.04 121.521 109.662 121.325 109.325C121.13 108.987 120.858 108.7 120.533 108.486C120.421 108.428 120.299 108.394 120.173 108.388H120.141Z" fill="#081E7A"/>
<path d="M122.231 129.837C122.163 129.836 122.097 129.82 122.037 129.788C121.978 129.757 121.926 129.712 121.888 129.657L120.613 127.754C120.551 127.663 120.528 127.552 120.548 127.444C120.571 127.339 120.632 127.246 120.72 127.182C120.932 127.043 121.977 126.365 122.141 126.251C122.298 126.177 122.471 126.145 122.645 126.158C122.818 126.17 122.985 126.228 123.129 126.325C123.434 126.518 123.688 126.783 123.869 127.096C124.049 127.409 124.151 127.761 124.166 128.122C124.172 128.278 124.141 128.433 124.076 128.575C124.011 128.717 123.913 128.841 123.791 128.938C123.636 129.053 122.713 129.592 122.435 129.755C122.376 129.802 122.305 129.83 122.231 129.837ZM121.52 127.64L122.337 128.881C122.794 128.612 123.219 128.359 123.292 128.301C123.366 128.244 123.292 128.244 123.292 128.122C123.277 127.904 123.212 127.692 123.103 127.503C122.994 127.313 122.844 127.151 122.664 127.027C122.606 126.994 122.542 126.975 122.476 126.97L121.52 127.64Z" fill="#081E7A"/>
<path d="M121.333 131.037C121.045 131.032 120.763 130.95 120.516 130.8C120.067 130.512 119.693 130.121 119.426 129.659C119.159 129.198 119.006 128.678 118.981 128.146C118.962 127.909 119.007 127.671 119.11 127.457C119.213 127.244 119.372 127.061 119.569 126.928C119.784 126.825 120.022 126.779 120.26 126.797C120.498 126.814 120.727 126.893 120.925 127.026C121.374 127.314 121.748 127.705 122.015 128.167C122.282 128.629 122.435 129.148 122.46 129.681C122.479 129.917 122.435 130.153 122.331 130.366C122.228 130.578 122.069 130.759 121.872 130.89C121.708 130.985 121.523 131.036 121.333 131.037ZM120.141 127.606C120.092 127.593 120.042 127.593 119.994 127.606C119.879 127.672 119.814 127.86 119.814 128.113C119.838 128.502 119.953 128.88 120.148 129.218C120.344 129.555 120.615 129.842 120.941 130.057C121.016 130.116 121.105 130.155 121.199 130.172C121.292 130.19 121.389 130.184 121.48 130.155C121.548 130.09 121.599 130.011 121.63 129.923C121.662 129.835 121.672 129.741 121.66 129.648C121.635 129.258 121.52 128.879 121.325 128.54C121.129 128.202 120.858 127.913 120.533 127.696C120.421 127.639 120.298 127.608 120.173 127.606H120.141Z" fill="#081E7A"/>
<path d="M122.231 151.63C122.163 151.629 122.097 151.613 122.037 151.581C121.978 151.55 121.926 151.505 121.888 151.45L120.613 149.547C120.551 149.456 120.528 149.345 120.548 149.237C120.571 149.132 120.632 149.039 120.72 148.975C120.932 148.836 121.977 148.158 122.141 148.044C122.297 147.968 122.471 147.935 122.645 147.948C122.818 147.961 122.985 148.019 123.129 148.118C123.434 148.311 123.688 148.576 123.869 148.889C124.049 149.202 124.151 149.554 124.166 149.915C124.172 150.071 124.141 150.226 124.076 150.368C124.011 150.51 123.913 150.634 123.791 150.731C123.636 150.846 122.713 151.385 122.435 151.548C122.376 151.595 122.305 151.623 122.231 151.63ZM121.52 149.433L122.337 150.674C122.794 150.405 123.219 150.151 123.292 150.094C123.366 150.037 123.292 150.037 123.292 149.915C123.278 149.696 123.214 149.484 123.105 149.295C122.996 149.105 122.845 148.943 122.664 148.82C122.608 148.782 122.543 148.762 122.476 148.763L121.52 149.433Z" fill="#081E7A"/>
<path d="M121.334 152.831C121.045 152.825 120.763 152.743 120.517 152.594C120.066 152.305 119.692 151.913 119.424 151.449C119.157 150.986 119.005 150.465 118.981 149.931C118.964 149.695 119.009 149.46 119.113 149.247C119.216 149.035 119.373 148.854 119.569 148.722C119.784 148.618 120.022 148.573 120.26 148.59C120.498 148.607 120.727 148.686 120.925 148.82C121.374 149.109 121.747 149.5 122.014 149.962C122.281 150.423 122.434 150.942 122.461 151.475C122.48 151.71 122.435 151.947 122.332 152.159C122.228 152.372 122.07 152.553 121.873 152.683C121.709 152.779 121.523 152.829 121.334 152.831ZM120.141 149.4C120.093 149.387 120.042 149.387 119.994 149.4C119.926 149.462 119.874 149.54 119.843 149.627C119.812 149.714 119.802 149.807 119.814 149.898C119.837 150.289 119.951 150.669 120.147 151.008C120.343 151.346 120.615 151.635 120.941 151.85C121.017 151.909 121.105 151.949 121.199 151.966C121.293 151.983 121.389 151.977 121.481 151.948C121.548 151.884 121.599 151.804 121.631 151.717C121.662 151.629 121.672 151.535 121.66 151.442C121.635 151.052 121.521 150.673 121.325 150.334C121.13 149.995 120.859 149.706 120.533 149.49C120.422 149.433 120.299 149.402 120.174 149.4H120.141Z" fill="#081E7A"/>
<path d="M74.9869 163.538C74.2312 163.154 73.5001 162.723 72.7979 162.248C72.69 162.165 72.5684 162.101 72.4385 162.06L72.6835 161.243C72.9097 161.311 73.1206 161.422 73.3043 161.57C73.9777 162.01 74.6759 162.411 75.3954 162.771L74.9869 163.538Z" fill="#081E7A"/>
<path d="M70.3479 171.142C70.2825 171.142 68.6571 170.211 68.0771 169.827C67.7217 169.558 67.4401 169.204 67.2587 168.797C67.0773 168.389 67.002 167.943 67.0398 167.499C67.1013 166.413 67.3975 165.354 67.9079 164.393C68.4184 163.433 69.131 162.595 69.9966 161.937L70.4704 162.606C69.7059 163.185 69.0763 163.923 68.625 164.77C68.1738 165.616 67.9116 166.55 67.8566 167.507C67.8273 167.813 67.8729 168.122 67.9896 168.407C68.1063 168.691 68.2905 168.943 68.5264 169.141C69.0818 169.5 70.7236 170.415 70.74 170.423L70.3479 171.142Z" fill="#081E7A"/>
<path d="M71.4336 171.469C71.0726 171.473 70.7172 171.38 70.4044 171.199C70.0194 170.94 69.7115 170.581 69.5131 170.162C69.3147 169.742 69.2332 169.276 69.2772 168.814C69.3352 167.645 69.6716 166.507 70.2583 165.494C70.8451 164.481 71.6653 163.622 72.6507 162.99C73.0145 162.687 73.4625 162.502 73.9345 162.461C74.4064 162.42 74.8797 162.524 75.2907 162.76C75.7016 162.995 76.0305 163.351 76.2332 163.779C76.4359 164.208 76.5026 164.688 76.4244 165.155C76.3673 166.323 76.0322 167.461 75.4469 168.474C74.8616 169.487 74.043 170.346 73.0591 170.979C72.5691 171.281 72.0089 171.45 71.4336 171.469ZM74.268 163.301C73.8383 163.32 73.4214 163.453 73.0591 163.685C72.1978 164.244 71.4805 164.999 70.9654 165.887C70.4502 166.775 70.1517 167.773 70.0941 168.798C70.0556 169.117 70.1018 169.44 70.228 169.736C70.3542 170.031 70.5559 170.288 70.8128 170.481C71.1124 170.607 71.4398 170.652 71.7624 170.612C72.0849 170.572 72.3913 170.448 72.6507 170.252C73.5104 169.692 74.2261 168.937 74.7398 168.048C75.2535 167.16 75.5508 166.163 75.6076 165.139C75.646 164.82 75.5998 164.496 75.4736 164.201C75.3474 163.906 75.1457 163.649 74.8888 163.456C74.6965 163.359 74.4832 163.311 74.268 163.317V163.301Z" fill="#081E7A"/>
<path d="M36.3276 140.275C35.5643 139.885 34.8226 139.454 34.1059 138.985C33.8754 138.801 33.5827 138.713 33.2891 138.739V137.923C33.7716 137.903 34.2458 138.053 34.6286 138.347C35.3003 138.786 35.9957 139.186 36.7115 139.548L36.3276 140.275Z" fill="#081E7A"/>
<path d="M31.6629 147.846C31.5976 147.846 29.9803 146.915 29.3922 146.531C29.0372 146.26 28.7561 145.904 28.5749 145.496C28.3936 145.088 28.3179 144.64 28.3548 144.195C28.4469 142.388 29.1964 140.677 30.4622 139.384L31.0503 139.956C29.9363 141.098 29.2696 142.603 29.1716 144.195C29.1401 144.502 29.1848 144.811 29.3016 145.096C29.4185 145.381 29.6039 145.633 29.8414 145.829C30.405 146.197 32.0468 147.111 32.0632 147.12L31.6629 147.846Z" fill="#081E7A"/>
<path d="M32.7735 148.206C32.4126 148.209 32.0575 148.116 31.7443 147.936C31.3593 147.677 31.0513 147.319 30.853 146.899C30.6546 146.479 30.5731 146.014 30.6171 145.551C30.675 144.382 31.0114 143.244 31.5982 142.231C32.1849 141.218 33.0051 140.36 33.9905 139.727C34.3729 139.457 34.8203 139.294 35.2869 139.253C35.7534 139.213 36.2222 139.298 36.6452 139.499C37.0296 139.761 37.3369 140.121 37.5351 140.542C37.7333 140.963 37.8153 141.429 37.7724 141.892C37.7153 143.061 37.3802 144.199 36.7949 145.211C36.2096 146.224 35.391 147.083 34.4071 147.716C33.9156 148.021 33.3518 148.19 32.7735 148.206ZM35.6078 140.038C35.1786 140.06 34.7622 140.192 34.3989 140.422C33.5377 140.981 32.8204 141.736 32.3052 142.624C31.7901 143.512 31.4916 144.51 31.4339 145.535C31.3961 145.853 31.4427 146.175 31.5689 146.469C31.695 146.763 31.8964 147.018 32.1527 147.21C32.4513 147.338 32.7785 147.385 33.1013 147.346C33.424 147.308 33.7307 147.184 33.9905 146.989C34.8518 146.43 35.5691 145.675 36.0842 144.787C36.5994 143.898 36.8979 142.901 36.9556 141.876C36.9923 141.557 36.9454 141.234 36.8193 140.939C36.6933 140.644 36.4925 140.387 36.2368 140.193C36.043 140.092 35.826 140.044 35.6078 140.054V140.038Z" fill="#081E7A"/>
<path d="M71.3689 164.036C70.9963 164.036 70.639 163.888 70.3755 163.624C70.112 163.361 69.964 163.004 69.964 162.631C69.9622 161.39 69.6364 160.172 69.0189 159.096C68.4015 158.02 67.5137 157.124 66.4435 156.497L52.3779 148.263L52.7863 147.552L66.8928 155.786C68.0839 156.489 69.0716 157.489 69.7591 158.69C70.4465 159.89 70.8098 161.248 70.8135 162.631C70.8037 162.713 70.8115 162.797 70.8364 162.876C70.8613 162.956 70.9027 163.029 70.9579 163.091C71.013 163.153 71.0807 163.203 71.1565 163.237C71.2323 163.271 71.3144 163.288 71.3975 163.288C71.4806 163.288 71.5627 163.271 71.6385 163.237C71.7142 163.203 71.782 163.153 71.8371 163.091C71.8923 163.029 71.9337 162.956 71.9586 162.876C71.9835 162.797 71.9913 162.713 71.9815 162.631C71.9787 161.043 71.5612 159.484 70.7703 158.107C69.9795 156.73 68.8428 155.584 67.4727 154.781L54.6814 147.316L55.0979 146.605L67.8974 154.079C69.3879 154.955 70.6241 156.204 71.4836 157.704C72.3431 159.204 72.7963 160.902 72.7983 162.631C72.7984 162.818 72.7612 163.002 72.6891 163.174C72.617 163.346 72.5113 163.502 72.3782 163.633C72.2452 163.764 72.0874 163.867 71.9141 163.936C71.7408 164.005 71.5555 164.039 71.3689 164.036Z" fill="#081E7A"/>
<path d="M50.0899 146.94L35.2974 138.306C35.0846 138.185 34.8439 138.122 34.5991 138.123C34.3544 138.123 34.114 138.188 33.9019 138.31C33.6898 138.432 33.5133 138.608 33.3899 138.819C33.2664 139.03 33.2003 139.27 33.1982 139.515C33.1712 139.868 33.0119 140.198 32.7522 140.439C32.4924 140.679 32.1514 140.813 31.7973 140.813C31.4432 140.813 31.1022 140.679 30.8425 140.439C30.5828 140.198 30.4235 139.868 30.3965 139.515C30.3979 138.777 30.5937 138.053 30.9643 137.415C31.3349 136.777 31.8671 136.247 32.5073 135.88C33.1476 135.514 33.8732 135.322 34.6111 135.325C35.349 135.328 36.0731 135.525 36.7105 135.897L51.1109 144.302L50.6944 145.004L36.2939 136.599C35.781 136.298 35.1976 136.138 34.6029 136.135C34.0082 136.132 33.4233 136.287 32.9075 136.583C32.3917 136.879 31.9633 137.306 31.6658 137.821C31.3683 138.336 31.2122 138.92 31.2133 139.515C31.2302 139.658 31.2991 139.79 31.4067 139.886C31.5143 139.981 31.6533 140.034 31.7973 140.034C31.9413 140.034 32.0803 139.981 32.188 139.886C32.2956 139.79 32.3644 139.658 32.3813 139.515C32.3811 139.125 32.4838 138.742 32.6791 138.405C32.8744 138.067 33.1554 137.788 33.4936 137.594C33.8319 137.4 34.2153 137.298 34.6052 137.3C34.9951 137.302 35.3776 137.407 35.714 137.604L50.4983 146.213L50.0899 146.94Z" fill="#081E7A"/>
<path d="M29.8005 163.538L29.4248 162.811C30.1423 162.447 30.8403 162.046 31.5159 161.61C31.7534 161.418 32.0336 161.287 32.3327 161.226L32.4879 162.043C32.3132 162.081 32.1488 162.156 32.0059 162.263C31.296 162.73 30.5596 163.156 29.8005 163.538Z" fill="#081E7A"/>
<path d="M34.4647 171.142L34.0645 170.431C34.0645 170.431 35.6981 169.508 36.2862 169.149C36.522 168.951 36.7063 168.699 36.823 168.415C36.9397 168.13 36.9853 167.821 36.956 167.515C36.902 166.558 36.6411 165.625 36.1912 164.779C35.7414 163.933 35.1133 163.194 34.3503 162.614L34.8323 161.953C35.6925 162.611 36.4005 163.448 36.9079 164.405C37.4154 165.362 37.7104 166.417 37.7728 167.499C37.8083 167.943 37.7319 168.388 37.5507 168.795C37.3695 169.202 37.0892 169.556 36.7354 169.827C36.1473 170.211 34.53 171.109 34.4647 171.142Z" fill="#081E7A"/>
<path d="M33.3537 171.469C32.7754 171.453 32.2117 171.284 31.7201 170.979C30.7347 170.347 29.9145 169.489 29.3278 168.476C28.741 167.463 28.4046 166.324 28.3467 165.155C28.3061 164.69 28.3926 164.222 28.5968 163.802C28.8011 163.382 29.1155 163.025 29.5065 162.77C29.9282 162.565 30.397 162.478 30.8641 162.517C31.3311 162.556 31.7791 162.719 32.1612 162.991C33.1466 163.623 33.9668 164.481 34.5535 165.494C35.1403 166.507 35.4767 167.645 35.5346 168.815C35.5786 169.277 35.4971 169.742 35.2988 170.162C35.1004 170.582 34.7925 170.94 34.4074 171.2C34.087 171.383 33.7229 171.476 33.3537 171.469ZM30.5112 163.301C30.2947 163.301 30.0814 163.354 29.8904 163.456C29.6347 163.65 29.4339 163.907 29.3079 164.202C29.1819 164.497 29.1349 164.82 29.1716 165.139C29.2293 166.164 29.5278 167.161 30.043 168.05C30.5581 168.938 31.2754 169.693 32.1367 170.252C32.3961 170.448 32.7024 170.572 33.025 170.612C33.3476 170.652 33.675 170.607 33.9745 170.481C34.2302 170.287 34.431 170.03 34.5571 169.735C34.6831 169.44 34.7301 169.117 34.6933 168.798C34.6357 167.773 34.3371 166.776 33.822 165.887C33.3068 164.999 32.5895 164.244 31.7283 163.685C31.3611 163.46 30.9418 163.333 30.5112 163.317V163.301Z" fill="#081E7A"/>
<path d="M68.4519 140.274L68.0762 139.547C68.7956 139.187 69.4938 138.786 70.1672 138.347C70.5516 138.049 71.0295 137.898 71.515 137.922V138.739C71.222 138.718 70.9316 138.805 70.6982 138.984C69.9756 139.458 69.2255 139.889 68.4519 140.274Z" fill="#081E7A"/>
<path d="M73.1157 147.847L72.7236 147.136C72.7236 147.136 74.3573 146.213 74.9454 145.846C75.1803 145.648 75.3633 145.396 75.4786 145.111C75.5939 144.826 75.638 144.518 75.607 144.212C75.51 142.613 74.8401 141.102 73.7201 139.957L74.3083 139.393C75.584 140.683 76.3375 142.4 76.4238 144.212C76.4615 144.658 76.3861 145.105 76.2048 145.513C76.0235 145.922 75.742 146.278 75.3864 146.548C74.8065 146.949 73.1892 147.847 73.1157 147.847Z" fill="#081E7A"/>
<path d="M71.9811 148.206C71.4027 148.19 70.839 148.021 70.3474 147.716C69.362 147.084 68.5418 146.226 67.9551 145.213C67.3683 144.2 67.0319 143.061 66.974 141.892C66.9311 141.429 67.013 140.963 67.2113 140.542C67.4095 140.121 67.7168 139.761 68.1012 139.499C68.5242 139.298 68.993 139.213 69.4595 139.253C69.926 139.294 70.3734 139.457 70.7558 139.727C71.7397 140.36 72.5583 141.219 73.1436 142.232C73.7289 143.245 74.0641 144.383 74.1211 145.551C74.1651 146.014 74.0836 146.479 73.8852 146.899C73.6869 147.319 73.3789 147.677 72.9939 147.936C72.6865 148.115 72.3367 148.209 71.9811 148.206ZM69.1385 140.038C68.9214 140.033 68.707 140.087 68.5178 140.193C68.2608 140.386 68.0591 140.643 67.9329 140.938C67.8067 141.233 67.7605 141.557 67.799 141.876C67.8539 142.911 68.1544 143.918 68.6757 144.815C69.1969 145.711 69.924 146.47 70.7967 147.03C71.0549 147.225 71.3603 147.349 71.6817 147.387C72.0032 147.426 72.3291 147.379 72.6263 147.25C72.8839 147.06 73.0862 146.805 73.2125 146.51C73.3388 146.216 73.3846 145.894 73.3451 145.576C73.2884 144.551 72.9911 143.554 72.4774 142.666C71.9637 141.778 71.248 141.023 70.3883 140.463C70.0246 140.224 69.6053 140.083 69.1712 140.054L69.1385 140.038Z" fill="#081E7A"/>
<path d="M33.4186 164.036C33.046 164.036 32.6886 163.888 32.4252 163.624C32.1617 163.361 32.0137 163.004 32.0137 162.631C32.0165 160.902 32.47 159.204 33.3295 157.705C34.189 156.205 35.4246 154.955 36.9146 154.079L50.8004 145.976L51.217 146.678L37.3311 154.781C35.9622 155.585 34.8263 156.732 34.0356 158.108C33.245 159.485 32.8268 161.043 32.8223 162.631C32.8125 162.713 32.8204 162.797 32.8452 162.876C32.8701 162.956 32.9115 163.029 32.9667 163.091C33.0219 163.153 33.0896 163.203 33.1654 163.237C33.2411 163.271 33.3233 163.288 33.4063 163.288C33.4894 163.288 33.5715 163.271 33.6473 163.237C33.7231 163.203 33.7908 163.153 33.846 163.091C33.9012 163.029 33.9426 162.956 33.9674 162.876C33.9923 162.797 34.0001 162.713 33.9904 162.631C33.994 161.247 34.3583 159.888 35.0473 158.688C35.7362 157.487 36.7261 156.487 37.9193 155.786L69.0645 137.604C69.4009 137.407 69.7834 137.302 70.1732 137.3C70.5631 137.298 70.9466 137.399 71.2848 137.593C71.623 137.787 71.904 138.067 72.0993 138.405C72.2946 138.742 72.3973 139.125 72.3971 139.515C72.3971 139.669 72.4582 139.816 72.5669 139.925C72.6757 140.034 72.8232 140.095 72.977 140.095C73.1308 140.095 73.2783 140.034 73.3871 139.925C73.4958 139.816 73.5569 139.669 73.5569 139.515C73.5581 138.92 73.402 138.336 73.1045 137.821C72.8069 137.306 72.3786 136.879 71.8628 136.583C71.347 136.287 70.7621 136.132 70.1674 136.135C69.5727 136.138 68.9893 136.298 68.4763 136.599L54.6803 144.653L54.2719 143.95L68.0679 135.896C68.7047 135.524 69.4285 135.326 70.1662 135.323C70.9038 135.32 71.6292 135.512 72.269 135.879C72.9089 136.246 73.4404 136.776 73.81 137.414C74.1795 138.053 74.374 138.777 74.3738 139.515C74.3738 139.885 74.2266 140.241 73.9647 140.503C73.7027 140.765 73.3475 140.912 72.977 140.912C72.6066 140.912 72.2513 140.765 71.9894 140.503C71.7274 140.241 71.5803 139.885 71.5803 139.515C71.5814 139.269 71.5169 139.028 71.3934 138.815C71.2699 138.603 71.0919 138.427 70.8778 138.306C70.6645 138.182 70.4221 138.117 70.1753 138.117C69.9285 138.117 69.6862 138.182 69.4729 138.306L38.3358 156.497C37.2656 157.124 36.3779 158.02 35.7604 159.096C35.1429 160.172 34.8172 161.39 34.8154 162.631C34.8154 163.002 34.6685 163.358 34.4068 163.621C34.145 163.885 33.7898 164.034 33.4186 164.036Z" fill="#081E7A"/>
<path d="M52.6475 147.846C52.2734 147.847 51.9063 147.745 51.5856 147.552C51.2858 147.37 51.0381 147.113 50.8664 146.807C50.6947 146.501 50.6048 146.155 50.6055 145.804V134.434H51.4223V145.78C51.4209 145.991 51.4753 146.199 51.58 146.383C51.6847 146.566 51.836 146.719 52.0186 146.825C52.215 146.938 52.4375 146.997 52.6638 146.997C52.8902 146.997 53.1127 146.938 53.3091 146.825C53.4854 146.723 53.6307 146.574 53.7299 146.396C53.8291 146.218 53.8784 146.016 53.8727 145.812V132.817H54.6896V145.829C54.6946 146.182 54.6039 146.531 54.427 146.837C54.2502 147.143 53.9937 147.396 53.6849 147.569C53.3657 147.741 53.0103 147.836 52.6475 147.846Z" fill="#081E7A"/>
<path d="M91.8049 98.6171L58.5768 79.3729C56.9432 78.4417 54.4928 79.2503 52.1893 81.4476C51.25 82.3542 50.2535 83.2609 49.2243 84.1431L48.6934 83.5223C49.7144 82.6565 50.6946 81.758 51.6257 80.8595C54.1497 78.409 57.0412 77.5432 58.9771 78.6622L92.2052 97.9064L91.8049 98.6171Z" fill="#081E7A"/>
<path d="M24.5485 120.892C15.1306 115.436 14.6813 115.093 14.5343 114.978C13.3744 114.096 12.7373 112.528 12.7373 110.511C12.8715 107.466 13.9284 104.535 15.7677 102.105L16.4211 102.587C14.686 104.871 13.6862 107.629 13.5541 110.494C13.5541 112.234 14.0769 113.59 15.0326 114.317C15.2858 114.505 17.2135 115.681 24.9569 120.165L24.5485 120.892Z" fill="#081E7A"/>
<path d="M47.8857 134.296C47.8857 134.296 37.357 128.243 28.127 122.942L28.5354 122.231C37.7654 127.557 48.2941 133.585 48.2941 133.585L47.8857 134.296Z" fill="#081E7A"/>
<path d="M49.9265 134.843C49.2346 134.85 48.553 134.675 47.9498 134.336C46.5449 133.52 45.7607 131.845 45.7607 129.607C45.7607 126.176 47.6476 122.035 50.4574 119.291C51.415 118.339 52.5653 117.604 53.8309 117.134C56.7306 116.113 66.6957 112.478 73.2466 108.696C77.3904 106.252 81.2291 103.323 84.682 99.9729C87.0263 97.694 89.5829 96.7873 91.5678 97.5224C93.0544 98.1024 93.9447 99.5563 94.0673 101.607C94.0673 101.786 94.0673 101.974 94.0673 102.162C94.0673 106.597 90.9225 112.029 87.0671 114.259L53.1938 133.854C52.2096 134.463 51.0832 134.804 49.9265 134.843ZM90.0894 98.0861C88.6191 98.0861 86.8221 98.9519 85.1885 100.536C81.7004 103.947 77.8143 106.926 73.6142 109.407C66.998 113.222 56.9756 116.873 54.0596 117.902C52.9053 118.332 51.8577 119.006 50.9884 119.879C48.3255 122.476 46.5367 126.413 46.5367 129.607C46.5367 131.535 47.1738 132.964 48.3174 133.626C49.4609 134.287 51.0374 134.124 52.7282 133.144L86.6016 113.589C90.2364 111.49 93.1933 106.385 93.1933 102.203C93.1933 102.031 93.1933 101.86 93.1933 101.696C93.0871 99.9729 92.3764 98.764 91.2166 98.3148C90.8538 98.1778 90.469 98.1086 90.0812 98.1106L90.0894 98.0861Z" fill="#081E7A"/>
<path d="M41.857 117.191C41.857 117.191 34.0972 112.658 26.2803 108.125L26.6887 107.422C34.5056 111.956 42.2735 116.481 42.2735 116.481L41.857 117.191Z" fill="#081E7A"/>
<path d="M22.9719 106.188C13.2272 100.552 10.8095 99.1965 10.4909 99.0495C9.90515 98.7516 9.40368 98.3112 9.03258 97.7688C8.66149 97.2265 8.43268 96.5995 8.36718 95.9456L1.23638 49.6076C1.15172 49.3409 1.08889 49.0677 1.04851 48.7908C0.999498 48.5213 0.966826 48.1945 0.917817 47.9168C0.582922 43.0649 3.75217 36.8898 8.12214 33.8349C10.5726 32.1441 13.023 31.7357 14.8282 32.724L46.7902 51.1841L46.3818 51.8947C46.0959 51.7068 14.8037 33.6389 14.4606 33.4428C12.9168 32.626 10.785 32.9936 8.62039 34.5047C4.51998 37.3554 1.44875 43.3508 1.73463 47.8596C1.75068 48.1336 1.78341 48.4064 1.83265 48.6765C1.87065 48.9309 1.928 49.1822 2.00418 49.4279L9.11048 95.8068C9.16 96.3181 9.33502 96.8094 9.62 97.2368C9.90499 97.6643 10.2911 98.0148 10.7441 98.2572C11.2342 98.4777 15.4571 100.896 23.2986 105.437L22.9719 106.188Z" fill="#081E7A"/>
<path d="M48.4813 54.3948C47.5501 50.6457 43.9153 49.8288 40.0762 52.4672C35.7553 55.4731 32.7249 61.5828 33.0435 66.1733C33.0586 66.4637 33.0913 66.7528 33.1415 67.0392C33.1891 67.3147 33.2519 67.5873 33.3293 67.856L40.4193 114.178C40.9992 117.567 44.1032 118.262 47.3459 115.713C50.5887 113.165 52.7451 108.362 52.157 104.972L47.3786 72.0217C46.7502 68.0004 47.0293 63.8895 48.1954 59.99C48.7625 58.1792 48.8609 56.2541 48.4813 54.3948Z" fill="url(#paint7_linear_3156_18903)"/>
<path d="M43.6127 117.624C43.1689 117.626 42.7285 117.546 42.3139 117.387C41.6839 117.111 41.1389 116.672 40.7354 116.115C40.3319 115.558 40.0845 114.903 40.0187 114.218L32.9206 67.8964C32.8426 67.6284 32.7826 67.3555 32.7409 67.0796C32.6884 66.7796 32.653 66.4769 32.6347 66.1729C32.2998 61.3292 35.4609 55.1459 39.839 52.0992C42.0117 50.5799 44.2743 50.0898 46.0223 50.7514C46.7521 51.0548 47.3953 51.5344 47.8942 52.1474C48.3932 52.7603 48.7323 53.4875 48.8811 54.2637C49.28 56.193 49.1788 58.1922 48.5871 60.0713C47.4416 63.9129 47.1627 67.9608 47.7703 71.9233L52.5568 104.857C53.1613 108.37 50.9232 113.36 47.5906 115.982C46.4807 116.951 45.0829 117.528 43.6127 117.624ZM44.3723 51.2987C42.8922 51.3713 41.4686 51.8894 40.2882 52.7853C36.2042 55.636 33.1166 61.6232 33.4351 66.1321C33.4691 66.4182 33.5209 66.7019 33.5903 66.9815C33.6293 67.2359 33.6866 67.487 33.7619 67.733L40.86 114.104C40.8968 114.641 41.0748 115.158 41.376 115.605C41.6772 116.051 42.091 116.409 42.5753 116.644C43.8005 117.118 45.4423 116.644 47.0678 115.37C50.2044 112.919 52.2954 108.272 51.7318 105.021L46.9698 72.0867C46.3362 67.9923 46.6152 63.8085 47.7866 59.8344C48.346 58.0953 48.4473 56.2413 48.0807 54.4516C47.9661 53.8037 47.6907 53.1949 47.2797 52.6811C46.8687 52.1673 46.3352 51.765 45.7282 51.5111C45.292 51.3635 44.8325 51.2971 44.3723 51.315V51.2987Z" fill="#081E7A"/>
<path d="M26.8441 126.773C26.3785 126.774 25.9292 126.602 25.5823 126.292C25.2355 125.981 25.0158 125.553 24.9654 125.09L21.9432 97.3187C21.8903 96.8201 22.0371 96.3208 22.3516 95.9302C22.5066 95.7342 22.6992 95.5712 22.918 95.4506C23.1368 95.3299 23.3774 95.2542 23.6259 95.2277C24.1252 95.1793 24.6235 95.3283 25.0144 95.6428C25.4052 95.9573 25.6573 96.4123 25.7169 96.9103L28.731 124.682C28.7837 125.18 28.6372 125.679 28.3234 126.069C28.0097 126.459 27.5542 126.709 27.0565 126.765L26.8441 126.773ZM23.8301 96.02H23.7075C23.4241 96.0424 23.1604 96.1742 22.9724 96.3876C22.8806 96.501 22.813 96.6319 22.7737 96.7724C22.7343 96.9128 22.7241 97.0598 22.7437 97.2044L25.7578 124.976C25.7733 125.117 25.8165 125.254 25.8848 125.378C25.9532 125.503 26.0454 125.612 26.1561 125.701C26.2668 125.79 26.394 125.856 26.5302 125.895C26.6665 125.935 26.8092 125.947 26.9503 125.932C27.0914 125.916 27.228 125.873 27.3523 125.805C27.4767 125.736 27.5864 125.644 27.6751 125.533C27.7639 125.423 27.8299 125.296 27.8695 125.159C27.9092 125.023 27.9215 124.88 27.906 124.739L24.8838 96.9675C24.8556 96.7076 24.7325 96.4671 24.5381 96.2923C24.3436 96.1175 24.0915 96.0205 23.8301 96.02Z" fill="#081E7A"/>
<path d="M182.487 33.2795H182.365C182.271 33.2497 182.186 33.1962 182.119 33.1243L168.234 18.3154C168.189 18.27 168.155 18.2142 168.137 18.153C168.118 18.0918 168.115 18.027 168.127 17.9642C168.139 17.9016 168.165 17.8425 168.204 17.7915C168.242 17.7406 168.291 17.699 168.348 17.6701L169.688 16.9922C169.767 16.9543 169.857 16.9426 169.943 16.9587C170.03 16.9749 170.109 17.018 170.169 17.082L183.663 31.6459C183.72 31.7065 183.764 31.7787 183.791 31.8577C183.818 31.9366 183.827 32.0204 183.818 32.1033C183.733 32.4597 183.524 32.7747 183.23 32.9936C183.01 33.1488 182.755 33.247 182.487 33.2795ZM169.23 18.1521L182.585 32.43L182.781 32.332C182.863 32.258 182.937 32.1759 183.002 32.087L169.81 17.858L169.23 18.1521Z" fill="#081E7A"/>
<path fill-rule="evenodd" clip-rule="evenodd" d="M163.766 11.292L150.183 11.9128C150.093 11.8789 149.995 11.8789 149.905 11.9128C149.137 12.3048 150.166 16.5278 152.911 21.9514C154.781 25.6516 156.889 28.78 158.277 29.9236C158.686 30.2666 159.021 30.4055 159.192 30.3156H159.249L159.307 30.2503L167.736 19.1661L163.766 11.292Z" fill="#FFECFA"/>
<path d="M159.077 30.7564C158.676 30.7075 158.303 30.5264 158.016 30.2418C156.586 29.0656 154.438 25.88 152.543 22.1309C151.383 19.8977 150.432 17.5627 149.7 15.1552C148.884 12.3372 149.333 11.7491 149.7 11.5531C149.855 11.4783 150.032 11.4609 150.199 11.5041L163.725 10.8833V11.7001L150.141 12.3209C150.101 12.329 150.059 12.329 150.019 12.3209C149.733 12.7375 150.517 16.405 153.213 21.7715C155.067 25.4308 157.125 28.5102 158.481 29.6211C158.622 29.7466 158.782 29.8486 158.955 29.9233L167.36 18.8881L168.005 19.3782L159.633 30.4542C159.608 30.4887 159.581 30.5215 159.551 30.5522C159.5 30.6028 159.442 30.6467 159.38 30.6829C159.286 30.732 159.183 30.7573 159.077 30.7564Z" fill="#081E7A"/>
<path fill-rule="evenodd" clip-rule="evenodd" d="M167.083 19.0021C167.32 19.1981 167.516 19.2634 167.663 19.1818C168.276 18.8714 167.312 16.4046 166.511 14.8281C165.959 13.6032 165.205 12.4795 164.281 11.5037C164.036 11.2995 163.848 11.2423 163.701 11.3158C163.554 11.3893 163.432 11.9448 163.701 12.8351C164.004 13.816 164.395 14.7675 164.87 15.6776C165.419 16.9002 166.167 18.0235 167.083 19.0021Z" fill="url(#paint8_linear_3156_18903)"/>
<path d="M167.549 19.6066C167.283 19.5904 167.031 19.4805 166.838 19.2962C165.859 18.2897 165.063 17.1206 164.486 15.8411C164.001 14.9097 163.602 13.9365 163.293 12.9332C163.081 12.1654 162.901 11.2424 163.514 10.932C163.689 10.8626 163.881 10.8481 164.065 10.8904C164.249 10.9327 164.415 11.0298 164.543 11.1689C165.515 12.1808 166.31 13.3487 166.895 14.624C167.342 15.4995 167.719 16.409 168.022 17.344C168.284 18.1608 168.504 19.2064 167.859 19.5331C167.763 19.5813 167.656 19.6065 167.549 19.6066ZM163.914 11.7161C163.913 12.0524 163.969 12.3863 164.077 12.7045C164.366 13.675 164.741 14.618 165.196 15.5225C165.73 16.6988 166.456 17.7781 167.344 18.7163C167.377 18.7472 167.412 18.7746 167.451 18.7979C167.261 17.4731 166.817 16.1973 166.144 15.0406C165.608 13.8674 164.885 12.7889 164.004 11.8468L163.914 11.7161Z" fill="#081E7A"/>
<path fill-rule="evenodd" clip-rule="evenodd" d="M170.816 8.43262L164.175 11.7897L170.816 8.43262Z" fill="#37DD7A"/>
<path d="M170.658 8.06107L164.018 11.4185L164.386 12.1474L171.027 8.79002L170.658 8.06107Z" fill="#081E7A"/>
<path fill-rule="evenodd" clip-rule="evenodd" d="M167.605 18.5124L174.246 15.1553L167.605 18.5124Z" fill="#37DD7A"/>
<path d="M174.061 14.7823L167.42 18.1396L167.788 18.8686L174.429 15.5112L174.061 14.7823Z" fill="#081E7A"/>
<path fill-rule="evenodd" clip-rule="evenodd" d="M170.816 8.43241C170.407 8.64478 170.816 10.3193 171.772 12.1734C172.727 14.0276 173.805 15.3672 174.222 15.1548C174.639 14.9424 174.222 13.2761 173.274 11.4138C172.327 9.55145 171.265 8.22004 170.816 8.43241Z" fill="url(#paint9_linear_3156_18903)"/>
<path d="M174.156 15.5876C173.699 15.5876 173.233 15.0975 172.907 14.6973C172.334 13.9705 171.842 13.1846 171.436 12.353C171.014 11.54 170.674 10.6861 170.424 9.80457C170.268 9.19196 170.13 8.3588 170.669 8.08109C171.208 7.80337 171.796 8.42415 172.196 8.8979C172.761 9.62834 173.251 10.4137 173.658 11.2422C174.088 12.0588 174.43 12.9185 174.679 13.807C174.834 14.4196 174.973 15.2527 174.434 15.5304C174.347 15.5686 174.252 15.5881 174.156 15.5876ZM171.102 8.92241C171.271 9.99842 171.63 11.0357 172.163 11.9855C172.609 12.9947 173.231 13.9159 174.001 14.7055C173.828 13.6294 173.465 12.5924 172.931 11.6424C172.488 10.6342 171.868 9.71308 171.102 8.92241Z" fill="#081E7A"/>
<path d="M165.196 72.8222C162.477 72.875 159.789 72.2341 157.387 70.9599C155.231 69.7101 154.038 68.0275 154.038 66.2141C154.038 64.4008 155.231 62.7182 157.387 61.4684C160.203 59.9841 163.389 59.3459 166.56 59.6306L166.503 60.4474C163.495 60.1642 160.471 60.7601 157.795 62.1627C155.9 63.2573 154.855 64.6949 154.855 66.1978C154.855 67.7008 155.9 69.1384 157.795 70.2329C161.88 72.5853 168.512 72.5853 172.596 70.2329C174.491 69.1384 175.537 67.7008 175.537 66.1978C175.537 64.6949 174.491 63.2573 172.596 62.1627C171.278 61.4385 169.848 60.9415 168.365 60.6925L168.504 59.8757C170.096 60.1443 171.632 60.6801 173.045 61.4603C175.202 62.71 176.394 64.4008 176.394 66.206C176.394 68.0111 175.202 69.702 173.045 70.9517C170.632 72.2355 167.929 72.8795 165.196 72.8222Z" fill="#081E7A"/>
<path d="M165.343 65.2342C165.092 65.2244 164.847 65.1539 164.63 65.0287C164.412 64.9035 164.228 64.7274 164.093 64.5154C164.025 64.3989 163.989 64.2664 163.989 64.1315C163.989 63.9965 164.025 63.864 164.093 63.7476C164.093 63.7476 164.093 63.7476 181.753 33.6234C181.81 33.5306 181.901 33.4633 182.006 33.4355C182.092 33.4283 182.178 33.4483 182.251 33.4927L182.88 33.8684L183.501 34.2442C183.548 34.2704 183.589 34.3057 183.621 34.3481C183.654 34.3905 183.678 34.439 183.692 34.4908C183.706 34.5426 183.709 34.5966 183.701 34.6497C183.694 34.7027 183.676 34.7537 183.648 34.7996L166.029 64.8829C165.957 64.998 165.855 65.0914 165.735 65.1532C165.614 65.2151 165.479 65.243 165.343 65.2342ZM165.343 64.4174L182.766 34.7261L182.504 34.5709L182.251 34.3912C180.324 37.6585 165.654 62.6939 164.837 64.0988C164.892 64.1867 164.966 64.261 165.053 64.3162C165.141 64.3714 165.24 64.4059 165.343 64.4174Z" fill="#081E7A"/>
<path fill-rule="evenodd" clip-rule="evenodd" d="M182.611 35.1267C181.974 35.2247 181.647 34.5958 181.884 33.7218C181.978 33.32 182.171 32.9484 182.447 32.6414C182.722 32.3344 183.071 32.102 183.46 31.9656C184.097 31.8676 184.432 32.4966 184.195 33.3706C184.105 33.7751 183.912 34.1495 183.634 34.4573C183.357 34.765 183.004 34.9956 182.611 35.1267Z" fill="url(#paint10_linear_3156_18903)"/>
<path d="M182.48 35.5183C182.335 35.5189 182.192 35.4886 182.059 35.4294C181.927 35.3703 181.808 35.2836 181.712 35.1752C181.541 34.9437 181.43 34.6729 181.39 34.3875C181.35 34.1021 181.382 33.8113 181.483 33.5416C181.595 33.0611 181.831 32.6186 182.168 32.2586C182.505 31.8986 182.931 31.6339 183.403 31.4914C183.576 31.4573 183.755 31.4687 183.923 31.5246C184.09 31.5804 184.241 31.6787 184.359 31.8099C184.525 32.0358 184.634 32.2996 184.674 32.5775C184.713 32.8555 184.684 33.139 184.587 33.4027C184.477 33.883 184.242 34.3258 183.906 34.687C183.571 35.0482 183.147 35.3151 182.676 35.4611L182.48 35.5183ZM183.591 32.3327H183.526C183.207 32.4497 182.924 32.645 182.701 32.9006C182.478 33.1561 182.324 33.4636 182.251 33.7948C182.198 33.9261 182.175 34.0674 182.184 34.2087C182.192 34.3499 182.232 34.4876 182.3 34.6116C182.3 34.6116 182.382 34.6851 182.529 34.6688C182.841 34.5458 183.118 34.3483 183.336 34.0934C183.554 33.8385 183.706 33.534 183.779 33.2067C183.83 33.0751 183.853 32.9339 183.844 32.7928C183.836 32.6518 183.797 32.5143 183.73 32.3899C183.692 32.3538 183.643 32.3334 183.591 32.3327Z" fill="#081E7A"/>
<path d="M136.78 49.5758C136.707 49.5763 136.637 49.5565 136.575 49.5186L101.452 29.2452C101.39 29.2077 101.339 29.155 101.303 29.0921C101.268 29.0292 101.249 28.9582 101.248 28.8859V3.10713C101.229 2.84286 101.28 2.57826 101.396 2.34014C101.513 2.10202 101.69 1.89885 101.91 1.75121C102.147 1.63507 102.411 1.58373 102.675 1.60237C102.939 1.62102 103.194 1.70899 103.413 1.8574L135.44 20.3501C135.951 20.6797 136.377 21.1265 136.681 21.6536C136.985 22.1807 137.159 22.7727 137.188 23.3805V49.1674C137.189 49.239 137.171 49.3096 137.135 49.3715C137.099 49.4334 137.047 49.4843 136.984 49.5186C136.923 49.5583 136.852 49.5782 136.78 49.5758ZM102.065 28.6571L136.371 48.4568V23.3805C136.343 22.9164 136.207 22.4653 135.975 22.0627C135.742 21.6601 135.419 21.3171 135.032 21.0608L103.021 2.56803C102.926 2.49167 102.812 2.44165 102.692 2.42301C102.571 2.40437 102.448 2.41777 102.334 2.46184C102.242 2.53982 102.17 2.63968 102.126 2.75236C102.082 2.86505 102.066 2.98699 102.081 3.10713L102.065 28.6571Z" fill="#081E7A"/>
<path d="M134.108 44.4542C133.996 44.4524 133.886 44.4215 133.789 44.3643L105.07 27.7748C104.902 27.6785 104.761 27.5394 104.664 27.3716C104.566 27.2038 104.515 27.0132 104.515 26.8191V7.62392C104.514 7.49585 104.548 7.37001 104.613 7.25944C104.677 7.14886 104.77 7.05756 104.882 6.99497C104.994 6.93045 105.121 6.89648 105.25 6.89648C105.379 6.89648 105.506 6.93045 105.617 6.99497L134.059 23.4293C134.26 23.5466 134.427 23.7147 134.544 23.9168C134.66 24.1189 134.721 24.3479 134.721 24.581V43.817C134.723 43.9278 134.696 44.0372 134.641 44.1336C134.586 44.2299 134.507 44.3097 134.41 44.3643C134.318 44.4188 134.215 44.4497 134.108 44.4542ZM105.331 7.77912V26.8273C105.333 26.8785 105.347 26.9286 105.372 26.9729C105.398 27.0172 105.435 27.0542 105.478 27.0805L133.92 43.4985V24.581C133.921 24.4905 133.898 24.4013 133.854 24.3224C133.809 24.2435 133.745 24.1778 133.667 24.1318L105.331 7.77912Z" fill="#081E7A"/>
<path d="M112.935 63.0283C112.389 63.0426 111.848 62.9131 111.367 62.6526L78.9396 43.9393C78.7235 43.8341 78.5402 43.6721 78.4093 43.4707C78.2783 43.2692 78.2047 43.0359 78.1963 42.7958C78.2215 42.5002 78.3248 42.2166 78.4956 41.9741C78.6664 41.7315 78.8985 41.5387 79.1683 41.4153L101.525 28.5015L101.933 29.2039L79.5767 42.1178C79.2255 42.322 79.0131 42.5752 79.0131 42.7958C79.0131 43.0163 79.2255 43.1551 79.348 43.2287L111.776 61.9501C112.211 62.1397 112.685 62.2266 113.159 62.2039C113.634 62.1812 114.096 62.0497 114.512 61.8194L136.592 48.7894L137 49.5L114.92 62.5219C114.314 62.8596 113.63 63.0341 112.935 63.0283Z" fill="#081E7A"/>
<path d="M102.129 54.7952C101.898 54.7983 101.67 54.7421 101.468 54.6319L92.4009 49.3879C92.2864 49.3306 92.1895 49.2434 92.1205 49.1356C92.0515 49.0277 92.0129 48.9032 92.0088 48.7753C92.0167 48.6284 92.0641 48.4863 92.146 48.3641C92.228 48.2419 92.3414 48.1441 92.4744 48.081L97.5468 45.1486C97.7691 45.0242 98.0182 44.9555 98.2728 44.9484C98.5275 44.9413 98.78 44.996 99.0089 45.1078L108.084 50.3436C108.199 50.4023 108.296 50.4909 108.365 50.6001C108.434 50.7094 108.472 50.8352 108.476 50.9644C108.468 51.1113 108.421 51.2534 108.339 51.3756C108.257 51.4978 108.143 51.5956 108.01 51.6586L102.938 54.591C102.69 54.7255 102.412 54.7957 102.129 54.7952ZM92.9236 48.7589L101.909 53.9294C102.014 53.9656 102.125 53.9799 102.236 53.9715C102.347 53.9631 102.455 53.9321 102.554 53.8804L107.577 50.9807L98.5923 45.8102C98.4877 45.7728 98.3764 45.7571 98.2655 45.7641C98.1545 45.7711 98.0462 45.8007 97.947 45.8511L92.9236 48.7589Z" fill="#081E7A"/>
<path d="M119.594 55.8652C119.364 55.8701 119.136 55.8167 118.932 55.71L90.5317 39.3084C90.4178 39.2503 90.3214 39.163 90.2525 39.0553C90.1836 38.9476 90.1446 38.8235 90.1396 38.6957C90.1461 38.5474 90.1928 38.4036 90.2748 38.2798C90.3569 38.1561 90.4711 38.057 90.6052 37.9933L100.652 32.1939C100.876 32.0758 101.126 32.0142 101.379 32.0142C101.632 32.0142 101.882 32.0758 102.106 32.1939L130.515 48.5956C130.628 48.654 130.723 48.7416 130.791 48.8494C130.858 48.9571 130.895 49.081 130.899 49.2082C130.891 49.3551 130.843 49.4972 130.762 49.6194C130.68 49.7416 130.566 49.8394 130.433 49.9025L120.395 55.7019C120.146 55.8232 119.87 55.8794 119.594 55.8652ZM119.357 54.9994C119.459 55.0432 119.569 55.0658 119.68 55.0658C119.791 55.0658 119.901 55.0432 120.002 54.9994L129.976 49.1837L101.698 32.8473C101.594 32.8123 101.484 32.7985 101.374 32.807C101.265 32.8154 101.158 32.8458 101.06 32.8963L91.0626 38.6631L119.357 54.9994Z" fill="#081E7A"/>
<defs>
<linearGradient id="paint0_linear_3156_18903" x1="136" y1="69" x2="174.129" y2="126.883" gradientUnits="userSpaceOnUse">
<stop stop-color="#E64C4E"/>
<stop offset="1" stop-color="#EF33F9"/>
</linearGradient>
<linearGradient id="paint1_linear_3156_18903" x1="92.6503" y1="45.5" x2="100.504" y2="58.895" gradientUnits="userSpaceOnUse">
<stop stop-color="#E64C4E"/>
<stop offset="1" stop-color="#EF33F9"/>
</linearGradient>
<linearGradient id="paint2_linear_3156_18903" x1="70.4014" y1="162.811" x2="77.9078" y2="167.466" gradientUnits="userSpaceOnUse">
<stop stop-color="#E64C4E"/>
<stop offset="1" stop-color="#EF33F9"/>
</linearGradient>
<linearGradient id="paint3_linear_3156_18903" x1="31.6504" y1="139.728" x2="39.1568" y2="144.383" gradientUnits="userSpaceOnUse">
<stop stop-color="#E64C4E"/>
<stop offset="1" stop-color="#EF33F9"/>
</linearGradient>
<linearGradient id="paint4_linear_3156_18903" x1="30" y1="161.5" x2="38.8525" y2="168.877" gradientUnits="userSpaceOnUse">
<stop stop-color="#E64C4E"/>
<stop offset="1" stop-color="#EF33F9"/>
</linearGradient>
<linearGradient id="paint5_linear_3156_18903" x1="69" y1="138.5" x2="77.3423" y2="145.37" gradientUnits="userSpaceOnUse">
<stop stop-color="#E64C4E"/>
<stop offset="1" stop-color="#EF33F9"/>
</linearGradient>
<linearGradient id="paint6_linear_3156_18903" x1="46.4297" y1="97.668" x2="81.8549" y2="143.516" gradientUnits="userSpaceOnUse">
<stop stop-color="#E64C4E"/>
<stop offset="1" stop-color="#EF33F9"/>
</linearGradient>
<linearGradient id="paint7_linear_3156_18903" x1="33.0205" y1="50.9258" x2="68.503" y2="61.2152" gradientUnits="userSpaceOnUse">
<stop stop-color="#E64C4E"/>
<stop offset="1" stop-color="#EF33F9"/>
</linearGradient>
<linearGradient id="paint8_linear_3156_18903" x1="163.542" y1="11.2852" x2="170.201" y2="14.908" gradientUnits="userSpaceOnUse">
<stop stop-color="#E64C4E"/>
<stop offset="1" stop-color="#EF33F9"/>
</linearGradient>
<linearGradient id="paint9_linear_3156_18903" x1="170.658" y1="8.41016" x2="176.376" y2="11.5576" gradientUnits="userSpaceOnUse">
<stop stop-color="#E64C4E"/>
<stop offset="1" stop-color="#EF33F9"/>
</linearGradient>
<linearGradient id="paint10_linear_3156_18903" x1="181.807" y1="31.9556" x2="184.887" y2="34.3425" gradientUnits="userSpaceOnUse">
<stop stop-color="#E64C4E"/>
<stop offset="1" stop-color="#EF33F9"/>
</linearGradient>
</defs>
</svg>
