<svg width="153" height="184" viewBox="0 0 153 184" fill="none" xmlns="http://www.w3.org/2000/svg">
<path opacity="0.08" d="M4.5557 168.99C2.5394 170.136 2.5298 173.038 4.53848 174.197L18.2602 182.114C20.718 183.532 23.7431 183.542 26.2102 182.14L148.444 112.691C150.461 111.545 150.47 108.643 148.462 107.484L132.26 98.1362C131.338 97.6045 130.204 97.6007 129.279 98.1264L4.5557 168.99Z" fill="black"/>
<path d="M145.562 8.11615C145.562 5.99791 144.659 4.64502 143.273 4.25075L138.366 0.864652C137.727 0.621634 137.038 0.538246 136.359 0.621827C135.68 0.705408 135.032 0.953396 134.472 1.34396C99.7135 21.2826 16.8023 68.9963 16.8023 68.9963C15.0733 70.5811 12.7603 73.8976 12.2462 76.2169C11.1559 81.1568 11.997 169.907 11.997 169.907C11.997 171.746 12.6746 172.999 13.7571 173.556L19.9876 176.895C20.8988 177.119 22.4564 176.826 24.3645 175.728C137.567 110.859 139.612 109.707 139.612 109.707C141.239 108.654 142.594 107.235 143.565 105.565C144.537 103.896 145.098 102.023 145.204 100.097C145.204 69.0832 143.858 37.5982 145.562 8.11615Z" fill="#FFECFA"/>
<path d="M144.362 14.4028L133.637 20.878L19.125 87.7202V168.465L128.998 104.38L144.362 94.9776L144.5 56.5298L144.362 14.4028Z" fill="white"/>
<path d="M59.4996 76.0278L35.0621 89.2116V148.278L59.4996 135.172V76.0278Z" fill="url(#paint0_linear_2916_17830)"/>
<path d="M129.625 65.896L70.1254 100.465V128.09L129.625 93.5973V65.896Z" fill="url(#paint1_linear_2916_17830)"/>
<path d="M136.081 0.590332L17.4748 68.7285C16.9421 69.0343 16.4428 69.3939 15.9848 69.8016C14.1526 71.4771 12.8389 73.6348 12.1971 76.0229C11.9697 76.8005 11.8599 77.6326 11.6874 78.3558V171.13C11.8599 172.981 12.5422 174.241 13.6322 174.801L19.7097 178.028C18.5491 177.507 17.7884 176.193 17.961 174.248V81.5131C17.8177 80.8166 17.8473 80.0961 18.0472 79.4134C18.6362 77.0767 19.8625 74.9458 21.5918 73.2544C22.1412 72.7137 22.7548 72.241 23.419 71.8469L142.375 3.87201L136.081 0.590332Z" fill="url(#paint2_linear_2916_17830)"/>
<path d="M145.562 65.4028H144.563V7.95188C144.563 6.1344 143.883 5.05623 142.375 4.46324L142.824 3.77783C144.693 4.50945 145.562 5.83405 145.562 7.95188V65.4028Z" fill="#081E7A"/>
<path d="M21.1584 178.026C20.827 178.04 20.4964 177.984 20.1879 177.862L20.5217 177.162C20.5217 177.162 21.5388 177.574 23.4876 176.602L139.406 109.529C140.971 108.505 142.273 107.126 143.207 105.504C144.142 103.882 144.683 102.062 144.786 100.192V55.8403H145.563V100.192C145.454 102.197 144.875 104.148 143.873 105.887C142.87 107.625 141.473 109.103 139.794 110.199L23.8525 177.286C23.0244 177.74 22.1017 177.994 21.1584 178.026Z" fill="#081E7A"/>
<path d="M20.0293 178.02C19.978 178.03 19.9251 178.03 19.8738 178.02C19.7601 177.97 19.6509 177.91 19.5473 177.842C15.8 175.869 14.3618 175.108 13.8564 174.735V174.789C12.6125 174.137 11.8662 172.793 11.6874 170.774V78.09C11.7861 76.395 12.226 74.7373 12.9808 73.2161C13.7355 71.6948 14.7896 70.3412 16.0799 69.2362C16.5543 68.7993 17.0758 68.4164 17.6348 68.0946L131.024 2.71533L131.413 3.39101L18.0235 68.7625C17.5131 69.0601 17.0361 69.4116 16.6008 69.811C15.3897 70.8457 14.3994 72.1133 13.6889 73.5383C12.9783 74.9632 12.562 76.5165 12.4648 78.1055V170.743C12.6203 172.413 13.2423 173.57 14.1752 174.059L14.2374 174.098C14.4706 174.238 16.3442 175.24 18.2179 176.234C17.9248 175.467 17.8182 174.642 17.9069 173.826V81.1965C17.9005 79.5924 18.2283 78.0045 18.8694 76.5337C19.5105 75.063 20.4509 73.7416 21.6308 72.6535C22.1929 72.0884 22.8252 71.5977 23.5122 71.1934L138.799 4.75789L139.187 5.43358L23.9009 71.869C23.2713 72.243 22.6892 72.6915 22.1673 73.2049C21.0663 74.2249 20.1885 75.4615 19.5891 76.8368C18.9897 78.2121 18.6816 79.6965 18.6843 81.1965V173.857C18.5444 175.411 18.9953 176.568 19.9205 177.135L20.2159 177.29C20.3041 177.338 20.3703 177.418 20.4007 177.514C20.4312 177.609 20.4234 177.713 20.3791 177.803C20.3486 177.869 20.2992 177.925 20.237 177.964C20.1748 178.003 20.1025 178.022 20.0293 178.02Z" fill="#081E7A"/>
<path d="M135.048 8.02783L134.649 7.33522L139.44 4.58868C140.04 4.21638 140.699 3.94977 141.389 3.80054L137.396 1.59534C136.804 1.38656 136.17 1.32171 135.548 1.40617C134.926 1.49064 134.333 1.72198 133.818 2.08096L130.025 4.27024L129.625 3.57763L133.403 1.41223C134.031 0.982245 134.755 0.711163 135.512 0.622396C136.269 0.533628 137.036 0.629842 137.747 0.90273L143.234 3.93587C143.318 3.98304 143.382 4.05905 143.415 4.1498C143.447 4.24056 143.445 4.33992 143.41 4.42946C143.371 4.51925 143.302 4.59248 143.214 4.63619C143.126 4.6799 143.026 4.69127 142.931 4.66829C141.857 4.46191 140.746 4.68807 139.84 5.29721L135.048 8.02783Z" fill="#081E7A"/>
<path d="M144.451 13.8854L18.2532 87.1511L18.6419 87.8209L144.84 14.5553L144.451 13.8854Z" fill="#081E7A"/>
<path d="M35.45 148.278C35.3826 148.278 35.316 148.262 35.2561 148.231C35.1974 148.196 35.1487 148.146 35.1148 148.086C35.0808 148.027 35.0627 147.959 35.0621 147.891V88.9941C35.0625 88.9266 35.0807 88.8604 35.1147 88.802C35.1487 88.7436 35.1975 88.6952 35.2561 88.6614L58.9178 75.0172C58.9768 74.9832 59.0436 74.9653 59.1117 74.9653C59.1798 74.9653 59.2467 74.9832 59.3057 75.0172C59.3643 75.0509 59.4131 75.0994 59.4471 75.1578C59.4811 75.2162 59.4992 75.2824 59.4996 75.3499V134.247C59.4991 134.315 59.4809 134.382 59.447 134.442C59.413 134.502 59.3644 134.552 59.3057 134.587L35.644 148.231C35.584 148.262 35.5175 148.278 35.45 148.278ZM35.8379 89.2186V147.225L58.7238 134.03V76.0309L35.8379 89.2186Z" fill="#081E7A"/>
<path d="M18.4515 168.465L18.0621 167.796L129.278 103.433L145.173 94.0903L145.562 94.7593L129.675 104.102L18.4515 168.465Z" fill="#081E7A"/>
<path d="M70.512 128.09C70.4448 128.091 70.3786 128.075 70.3188 128.044C70.2603 128.008 70.2119 127.957 70.1781 127.897C70.1443 127.837 70.1262 127.769 70.1256 127.7L70.1254 100.606C70.1258 100.537 70.1438 100.471 70.1777 100.412C70.2116 100.353 70.2602 100.304 70.3185 100.27L129.046 65.9728C129.105 65.9385 129.171 65.9204 129.239 65.9204C129.307 65.9204 129.373 65.9385 129.432 65.9728C129.491 66.0069 129.539 66.0558 129.573 66.1148C129.607 66.1737 129.625 66.2406 129.625 66.3088L129.626 93.4029C129.625 93.4721 129.607 93.54 129.573 93.6002C129.539 93.6604 129.491 93.7108 129.432 93.7468L70.7052 128.044C70.6455 128.075 70.5792 128.091 70.512 128.09ZM70.8981 100.832L70.8984 127.027L128.853 93.184L128.853 66.9967L70.8981 100.832Z" fill="#081E7A"/>
<path d="M129.625 34.5903L70.1254 68.8701V87.7153L129.625 53.5137V34.5903Z" fill="url(#paint3_linear_2916_17830)"/>
<path d="M70.5117 87.7153C70.4445 87.7156 70.3783 87.6998 70.3185 87.669C70.2601 87.6336 70.2116 87.5838 70.1778 87.5243C70.144 87.4649 70.1259 87.3979 70.1254 87.3296V68.8269C70.1258 68.7595 70.1438 68.6935 70.1777 68.6353C70.2116 68.5771 70.2602 68.5288 70.3185 68.4951L129.046 34.642C129.105 34.6082 129.171 34.5903 129.239 34.5903C129.307 34.5903 129.373 34.6082 129.432 34.642C129.491 34.6757 129.539 34.724 129.573 34.7822C129.607 34.8404 129.625 34.9064 129.625 34.9738V53.4765C129.625 53.5448 129.607 53.6118 129.573 53.6713C129.539 53.7307 129.491 53.7805 129.432 53.8159L70.7049 87.669C70.6452 87.6998 70.5789 87.7156 70.5117 87.7153ZM70.8981 69.0506V86.6661L128.853 53.2605V35.6527L70.8981 69.0506Z" fill="#081E7A"/>
<defs>
<linearGradient id="paint0_linear_2916_17830" x1="35.0621" y1="76.0278" x2="78.9197" y2="90.862" gradientUnits="userSpaceOnUse">
<stop stop-color="#E64C4E"/>
<stop offset="1" stop-color="#EF33F9"/>
</linearGradient>
<linearGradient id="paint1_linear_2916_17830" x1="70.1254" y1="65.896" x2="132.259" y2="125.338" gradientUnits="userSpaceOnUse">
<stop stop-color="#E64C4E"/>
<stop offset="1" stop-color="#EF33F9"/>
</linearGradient>
<linearGradient id="paint2_linear_2916_17830" x1="11.6874" y1="0.590332" x2="181.139" y2="125.396" gradientUnits="userSpaceOnUse">
<stop stop-color="#E64C4E"/>
<stop offset="1" stop-color="#EF33F9"/>
</linearGradient>
<linearGradient id="paint3_linear_2916_17830" x1="70.1254" y1="34.5903" x2="122.911" y2="93.7103" gradientUnits="userSpaceOnUse">
<stop stop-color="#E64C4E"/>
<stop offset="1" stop-color="#EF33F9"/>
</linearGradient>
</defs>
</svg>
