<svg width="119" height="184" viewBox="0 0 119 184" fill="none" xmlns="http://www.w3.org/2000/svg">
<path opacity="0.08" d="M63 184C79.5685 184 93 176.389 93 167C93 157.611 79.5685 150 63 150C46.4315 150 33 157.611 33 167C33 176.389 46.4315 184 63 184Z" fill="black"/>
<path d="M102.75 26.6975C86.5057 17.7257 62.6726 15.4942 42.6529 20.0107L40.1056 21.1265C39.5946 20.0719 39.0455 19.0249 38.443 17.9779C30.6181 4.55842 17.9428 -2.9079 9.98062 1.06599C9.79758 1.15769 5.40467 3.96234 5.40467 3.96234C-2.00073 8.92205 -1.79482 23.6407 6.0148 37.0831C6.97911 38.7362 8.0358 40.3334 9.17983 41.8671L9.50014 41.7372C8.78265 43.5164 8.35768 45.4004 8.24176 47.3159C8.20363 47.3159 4.57338 69.7301 25.5617 81.3232C27.9384 82.6213 30.3998 83.7574 32.929 84.7239C32.929 84.7239 34.0501 89.8899 34.4543 91.6018C35.3314 95.5374 60.9795 112.167 60.9795 112.167V147.412H60.4685C54.9404 147.692 49.5568 149.279 44.7578 152.043C39.3048 155.153 37.1846 159.066 37.4134 163.147C37.3341 164.813 37.3673 166.483 37.5126 168.145C37.7871 171.836 39.8005 174.717 44.7654 177.529C55.2443 183.505 71.6262 183.475 82.1357 177.529C87.3751 174.541 89.9986 170.651 89.9986 166.716V162.719H89.8995C89.8995 158.776 87.3522 154.832 82.1509 151.829C77.2858 149.182 71.8862 147.672 66.3563 147.412V112.136C83.0051 110.76 90.5096 96.0877 91.524 91.9609C91.9053 90.3485 93.0493 85.4957 93.0493 85.4957C93.0493 85.4957 98.7845 82.9433 101.644 81.3232C116.722 72.8175 118.736 51.3891 118.736 51.3891C120.291 42.5778 114.983 33.4531 102.75 26.6975Z" fill="white"/>
<path d="M33 85L34.5238 91.75C35.4305 95.755 44.5276 112 63.3848 112C82.2419 112 90.44 96.31 91.4762 92.0875C91.8571 90.505 93 85.7425 93 85.7425C83.3909 89.034 73.2492 90.5593 63.08 90.2425C52.8509 89.9137 42.722 88.1483 33 85Z" fill="#FFECFA"/>
<path d="M9.23553 48C9.23553 48 5.66235 70.0087 26.3508 81.392C47.0392 92.7753 80.6242 92.9629 101.177 81.392C116.018 73.0403 118 51.9995 118 51.9995C118 51.9995 105.989 78.338 63.1486 77.0173C16.3669 75.5766 9.23553 48 9.23553 48Z" fill="#FFECFA"/>
<path d="M34.2105 20.0832C26.5592 6.27632 14.0382 -1.27143 6.45995 3.36921C6.29203 3.46893 6.15332 3.60699 6 3.71438L20.3973 28.5207L36.3277 52C41.9347 45.9864 41.0367 32.3559 34.2105 20.0832Z" fill="#E3FFFF"/>
<path d="M91 70.1395C90.7892 66.3101 88.1322 62.5039 82.9762 59.5814C72.2201 53.4729 54.7799 53.4729 44.0238 59.5814C38.8678 62.4884 36.2108 66.3101 36 70.1395C52.4992 76.6202 74.5008 76.6202 91 70.1395Z" fill="#FFECFA"/>
<path d="M38 87L38.8428 90.615C39.3101 92.6576 46.7573 107 63.3601 107C79.6565 107 86.4677 93.5246 87.1113 90.8722L88 87.3453C88 87.3453 73.0444 90.4019 62.977 90.1521C52.3503 89.8876 38 87 38 87Z" fill="url(#paint0_linear_2912_15089)"/>
<path d="M21 29L27 11L21 29Z" fill="#E3FFFF"/>
<path d="M38 32L4 27L38 32Z" fill="#E3FFFF"/>
<path d="M89.901 162C89.901 166.034 87.2956 170.061 82.161 173.146C71.8385 179.332 55.094 179.332 44.7638 173.146C39.8197 170.18 37.2524 166.327 37.0391 162.443C36.964 163.904 36.9971 165.369 37.1381 166.825C37.4124 170.654 39.9797 174.435 44.8553 177.354C55.1854 183.549 71.9223 183.549 82.2524 177.354C87.4175 174.261 90 170.235 90 166.145V162H89.901Z" fill="#FFECFA"/>
<path d="M36.7779 52L40.4028 49.4714C45.971 43.3784 44.9844 30.0118 38.0709 17.9172C30.425 4.54302 18.0032 -2.89807 10.2004 1.06239C10.021 1.1614 6 3.75093 6 3.75093L36.7779 52Z" fill="url(#paint1_linear_2912_15089)"/>
<path d="M5.36749 4C-1.98697 8.97218 -1.78247 23.7278 5.97342 37.204C6.93109 38.8613 7.98051 40.4625 9.11667 42L23 27.2444L5.36749 4Z" fill="#FFECFA"/>
<path d="M34.2105 20.0832C26.5592 6.27632 14.0382 -1.27143 6.45995 3.36921C6.29203 3.46893 6.15332 3.60699 6 3.71438L20.3973 28.5207L36.3277 52C41.9347 45.9864 41.0367 32.3559 34.2105 20.0832Z" fill="#FFECFA"/>
<path d="M102.888 26.9285C86.7589 17.9873 63.0911 15.7615 43.2113 20.2512L40.4385 20.9372L42.0901 24.3902L44.9917 23.628C62.7274 19.4661 84.0012 21.3946 98.4488 29.4059C117.48 39.9631 117.48 57.0681 98.4488 67.6177C79.4176 78.1672 48.5676 78.1672 29.5061 67.6177C13.119 58.5316 10.8461 44.5823 22.6876 34.1471L24.1044 33.118L21.7936 29.787L20.8087 29.5736L19.2935 30.717C3.83065 42.6234 5.80802 59.3472 25.0968 70.0645C46.5827 81.9785 81.4101 81.9785 102.888 70.0645C124.367 58.1505 124.374 38.8121 102.888 26.9285Z" fill="white"/>
<path d="M64.0749 182C57.1847 182 50.2946 180.466 45.0887 177.46C40.2579 174.661 37.433 170.926 37.142 166.946C36.8511 162.966 37.0885 162.161 37.142 162L37.8234 162.345C37.8234 162.345 37.5937 163.112 37.877 166.885C38.1603 170.658 40.8398 174.132 45.4408 176.793C55.6995 182.721 72.3813 182.721 82.64 176.793C87.532 173.963 90.2344 170.221 90.2344 166.256V162.238H91V166.256C91 170.505 88.1674 174.485 83.0227 177.46C77.8781 180.436 70.9497 182 64.0749 182Z" fill="#081E7A"/>
<path d="M64 178C57.0907 178 50.1814 176.438 44.9687 173.377C39.756 170.316 37 166.295 37 161.977C37 157.658 39.8405 153.598 44.9918 150.568C49.406 147.976 55.2482 146.351 61.4436 146.008L61.4896 146.789C55.4094 147.124 49.6901 148.71 45.3679 151.247C40.4623 154.129 37.76 157.939 37.76 161.977C37.76 166.014 40.4623 169.785 45.3679 172.698C55.6474 178.742 72.3756 178.742 82.6551 172.698C87.5684 169.816 90.2707 166.006 90.2707 161.977C90.2707 157.947 87.5684 154.129 82.6551 151.247C78.3099 148.694 72.5445 147.109 66.4259 146.781V146C72.6673 146.336 78.5556 147.96 83.0006 150.568C88.1595 153.598 91 157.651 91 161.977C91 166.303 88.1825 170.324 83.062 173.377C77.9414 176.43 70.8863 178 64 178Z" fill="#081E7A"/>
<path d="M63.5 163C63.2086 163 62.9182 162.963 62.6357 162.887C61.6214 162.61 61 161.979 61 161.236V114H61.7143V161.236C61.7143 161.611 62.1429 161.987 62.8143 162.159C63.2619 162.279 63.731 162.279 64.1786 162.159C64.85 161.979 65.2857 161.611 65.2857 161.236V114H66V161.236C66 161.987 65.3714 162.61 64.3571 162.887C64.077 162.962 63.7891 163 63.5 163Z" fill="#081E7A"/>
<path d="M9.3789 42C8.20473 40.4728 7.12122 38.8815 6.13367 37.2339C-1.83966 23.9102 -2.07257 9.0002 5.62903 4L6.05604 4.63447C-1.30396 9.42318 -0.931303 23.8799 6.83241 36.8638C7.79532 38.4922 8.8529 40.0658 10 41.577L9.3789 42Z" fill="#081E7A"/>
<path d="M37.7341 52.9983C37.6717 52.9986 37.6101 52.9841 37.5545 52.956C37.499 52.9278 37.4511 52.8868 37.4149 52.8365L20.4253 29.2361L5.05535 4.31043C5.00409 4.22471 4.98764 4.12293 5.00932 4.02567C5.031 3.9284 5.0892 3.84292 5.17215 3.78649L5.35123 3.65551C5.46024 3.57846 5.56924 3.50141 5.68604 3.43206C9.7193 1.12056 15.0996 1.61368 20.8458 4.86519C26.592 8.1167 31.8321 13.5718 35.8109 20.3214C43.1299 32.7573 44.0799 46.7496 38.0066 52.9136C37.9692 52.945 37.9259 52.9688 37.8791 52.9833C37.8322 52.9979 37.7829 53.003 37.7341 52.9983ZM5.90405 4.21027L21.0794 28.8123L37.773 52.0044C43.2234 45.9482 42.1567 32.634 35.1335 20.7144C31.2404 14.0727 26.0158 8.67917 20.4565 5.53553C14.8971 2.39189 9.85945 1.91418 6.07535 4.09469L5.90405 4.21027Z" fill="#081E7A"/>
<path d="M36.7508 70L36 69.955C36.2253 65.9605 39.1385 62.2208 44.1991 59.4629C55.0111 53.5124 72.6032 53.5124 83.4152 59.4629C86.0528 60.8056 88.3154 62.7807 90 65.2111L89.3618 65.6158C87.7484 63.2909 85.581 61.4031 83.0548 60.1224C72.438 54.2843 55.1763 54.2843 44.5595 60.1224C39.7392 62.7529 36.9611 66.2678 36.7508 70Z" fill="#081E7A"/>
<path d="M63.3648 112C44.8992 112 35.5348 96.25 34.5043 91.7943L33 85.1549L33.7522 85L35.2565 91.6393C36.2343 95.9697 45.3731 111.27 63.3798 111.27C81.9808 111.27 89.8033 95.7779 90.7435 91.9713L92.2478 85.7303L93 85.9L91.4957 92.141C90.4953 96.073 82.4547 112 63.3648 112Z" fill="#081E7A"/>
<path d="M63.3521 108C46.8727 108 39.4719 92.3953 39 90.1728L39.7491 90C40.206 92.144 47.367 107.215 63.3745 107.215C79.0599 107.215 85.6142 93.0785 86.2509 90.2749L87 90.4555C86.2959 93.3377 79.5243 108 63.3521 108Z" fill="#081E7A"/>
<path d="M64.4005 90C50.7488 90 37.0443 87.1401 26.5384 81.4277C5.83497 70.1663 9.17641 48.208 9.22909 48L9.98167 48.1189C9.98167 48.3343 6.69291 69.7874 26.9297 80.8037C47.7309 92.1245 81.2206 92.1245 101.578 80.8037C116.11 72.6919 118.225 52.2119 118.247 51.9667L119 52.041C119 52.249 116.833 73.1525 101.954 81.4277C91.6664 87.1252 78.0673 90 64.4005 90Z" fill="#081E7A"/>
<path d="M63.1638 79C48.8829 79 35.2477 75.8912 24.9749 70.1892C15.2736 64.801 9.61767 57.6343 9.04614 50.0117C8.54141 43.1962 12.1933 36.4479 19.2373 31L19.6901 31.5904C12.8168 36.8963 9.29851 43.4129 9.78839 49.9444C10.3377 57.3204 15.86 64.2854 25.3312 69.539C37.1182 76.078 53.3809 79.1719 69.948 78.021L70 78.7683C67.7139 78.9178 65.4277 79 63.1638 79Z" fill="#081E7A"/>
<path d="M72.0707 79L72 78.1612L73.5705 77.9935L73.6491 78.8322C73.1229 78.8993 72.5968 78.9497 72.0707 79ZM75.2118 78.6393L75.1175 77.8006L76.6881 77.5825L76.798 78.4212L75.2118 78.6393ZM78.3528 78.1696L78.235 77.3308C78.7533 77.247 79.2637 77.1547 79.8056 77.054L79.9391 77.8928C79.3894 77.9935 78.8711 78.0773 78.345 78.1696H78.3528ZM81.4939 77.5909L81.3447 76.7521C81.863 76.6514 82.3734 76.5424 82.9152 76.425L83.0802 77.2637L81.4939 77.5909ZM84.5879 76.8947L84.4151 76.0559L85.9385 75.6701L86.127 76.5089L84.5879 76.8947ZM87.6583 76.0559L87.4541 75.2171C87.9645 75.0746 88.4671 74.9236 88.9697 74.7642L89.1817 75.603C88.632 75.7791 88.1373 75.9301 87.6269 76.0727L87.6583 76.0559ZM90.7051 75.1249L90.4695 74.2861L91.9615 73.7745L92.205 74.6132L90.7051 75.1249ZM93.7048 74.0513L93.4379 73.2628L94.9063 72.6841L95.189 73.4641C94.6707 73.6822 94.176 73.8751 93.6734 74.068L93.7048 74.0513ZM96.6653 72.8434L96.3669 72.0634L97.8118 71.4175L98.1259 72.1808L96.6653 72.8434ZM99.5708 71.4846L99.2331 70.7213C99.7122 70.4865 100.183 70.2432 100.647 70L101 70.7465C100.497 71.0149 100.018 71.2665 99.5394 71.5014L99.5708 71.4846Z" fill="#081E7A"/>
<path d="M102.755 70L102.385 69.3269C112.614 63.6206 118.238 56.0479 118.238 48.0239C118.238 39.9998 112.606 32.4271 102.385 26.7132C86.82 18.016 63.5701 15.4 43.1661 20.0507L43 19.2858C63.5777 14.5892 87.0314 17.2664 102.755 26.063C113.233 31.9146 119 39.7168 119 48.0392C119 56.3615 113.233 64.1484 102.755 70Z" fill="#081E7A"/>
<path d="M64.0073 76C51.4984 76 38.9819 73.3384 29.4509 68.0306C20.9251 63.2735 15.846 56.9408 15.0902 50.1951C14.4704 44.3672 17.0553 38.7229 22.5653 33.8204L23.0641 34.394C17.7733 39.113 15.2489 44.5431 15.846 50.111C16.5413 56.6043 21.4996 62.7305 29.8061 67.3576C48.6564 77.8738 79.3355 77.8738 98.1858 67.3576C107.256 62.3098 112.229 55.6177 112.229 48.5278C112.229 41.438 107.241 34.7459 98.1707 29.6904C84.2105 21.8893 63.4026 19.6255 45.1418 23.9314L44.968 23.1665C63.38 18.83 84.4222 21.1168 98.5637 29.0097C107.876 34.1952 113 41.1244 113 48.5125C113 55.9006 107.876 62.8222 98.5637 68.0153C89.0403 73.3384 76.5238 76 64.0073 76Z" fill="#081E7A"/>
<path d="M37.5213 53L37.0908 52.3641L40.7157 49.8433C46.153 43.9052 45.1109 30.4737 38.284 18.5899C30.7322 5.42661 18.317 -2.09747 10.6217 1.7795C10.448 1.87144 8.00878 3.43449 6.4078 4.4612L6 3.83292C6.95908 3.19697 10.0704 1.18953 10.2819 1.08992C18.3246 -2.97861 31.2155 4.69872 38.9335 18.1992C46.0473 30.5886 47.0215 44.1351 41.2368 50.3796L41.1764 50.4332L37.5213 53Z" fill="#081E7A"/>
<path d="M21.3916 29H21.2758C21.1976 28.9756 21.1296 28.9288 21.0811 28.866C21.0326 28.8033 21.0062 28.7278 21.0055 28.6501C20.9982 28.614 20.9982 28.5769 21.0055 28.5408L27.2453 10.2512C27.2771 10.1594 27.3462 10.0833 27.4374 10.0395C27.5286 9.99578 27.6345 9.98801 27.7318 10.0179C27.8091 10.0425 27.8762 10.0897 27.9234 10.1526C27.9705 10.2154 27.9954 10.2908 27.9944 10.3678C28.0019 10.4039 28.0019 10.441 27.9944 10.4771L21.7391 28.7522C21.7143 28.8217 21.6679 28.8825 21.6059 28.9267C21.5439 28.971 21.4692 28.9965 21.3916 29Z" fill="#081E7A"/>
<path d="M4.27266 26.6507L4.1582 27.4004L38.1051 32.5829L38.2195 31.8332L4.27266 26.6507Z" fill="#081E7A"/>
<defs>
<linearGradient id="paint0_linear_2912_15089" x1="38" y1="87" x2="51.7931" y2="121.483" gradientUnits="userSpaceOnUse">
<stop stop-color="#E64C4E"/>
<stop offset="1" stop-color="#EF33F9"/>
</linearGradient>
<linearGradient id="paint1_linear_2912_15089" x1="6" y1="0" x2="55.5429" y2="36.2044" gradientUnits="userSpaceOnUse">
<stop stop-color="#E64C4E"/>
<stop offset="1" stop-color="#EF33F9"/>
</linearGradient>
</defs>
</svg>
