<svg width="118" height="181" viewBox="0 0 118 181" fill="none" xmlns="http://www.w3.org/2000/svg">
<path opacity="0.08" d="M9.97411 179.989C12.1378 181.234 14.8009 181.232 16.9632 179.985L89.7176 138.015C91.7201 136.86 91.7185 133.969 89.7148 132.816L80.25 127.369C79.3227 126.836 78.1814 126.837 77.2547 127.371L1.00062 171.36C-0.33437 172.13 -0.333332 174.057 1.00249 174.826L9.97411 179.989Z" fill="black"/>
<path d="M117.622 109.627L83.3514 89.6893L83.5662 59.6058C86.1517 57.6933 88.1446 54.0086 88.1446 50.9293C88.4335 53.9347 90.7078 55.7143 93.4786 54.1193C96.3826 52.4505 98.1013 48.9946 98.168 45.6422C98.168 45.6422 98.6348 52.4209 104.154 48.1233C106.843 46.0335 108.54 43.3383 108.54 39.9563V32.3874L83.3514 18.0619L83.2921 5.10994C83.2921 3.7217 81.5882 3.33772 80.8548 2.89466C80.8548 2.89466 77.7877 0.945215 77.1506 0.472622C76.7773 0.23631 76.3417 0.116402 75.8995 0.128241C75.4574 0.14008 75.0289 0.283127 74.6688 0.539081C74.6688 0.539081 10.335 37.6893 10.2164 37.7558C8.73476 38.7527 7.58647 39.2326 7.18642 41.2559C7.09011 41.7211 7.02344 170.185 7.02344 170.185C7.02344 171.529 7.46053 172.489 8.14209 172.94C8.54214 173.198 13.6243 177.038 15.1281 176.174L43.1835 160.239L70.4609 176.351L116.17 150.056V125.422L117.652 124.528L117.622 109.627Z" fill="white"/>
<path fill-rule="evenodd" clip-rule="evenodd" d="M67.2829 10.707L66.2161 15.1376C65.09 19.7601 61.86 24.3162 58.2077 26.4207L38.4053 37.7925C34.7604 39.8896 31.5229 39.0552 30.4043 35.7249L29.3301 32.5423L67.2829 10.707Z" fill="white"/>
<path d="M13.2022 175.849C13.2022 175.849 8.75723 173.368 8.15715 172.961C7.76219 172.633 7.4543 172.212 7.26053 171.737C7.06677 171.262 6.99306 170.747 7.0459 170.237V44.1429C7.05457 43.6812 7.10665 43.2214 7.20148 42.7694C7.56355 40.7857 8.64457 39.0039 10.2389 37.7629C10.3352 37.6964 74.4764 0.738191 74.4764 0.738191C74.8304 0.48096 75.2543 0.336883 75.6922 0.325016C76.13 0.313149 76.5612 0.434052 76.9286 0.671732C77.5583 1.14433 81.5218 3.30792 81.5292 3.3153H79.8771L15.7136 40.2366C13.7949 41.3443 12.2317 44.298 12.2317 46.8382V173.345L13.2022 175.849Z" fill="url(#paint0_linear_2912_18470)"/>
<path d="M37.4355 73.1556V80.3183C37.4355 83.6043 39.7618 84.9261 42.6214 83.272C45.481 81.618 47.0664 77.7708 47.0664 74.4922C47.0664 77.7708 49.3926 79.0925 52.2522 77.4459C53.7596 76.4704 55.0149 75.1542 55.916 73.6043C56.8171 72.0543 57.3385 70.3143 57.438 68.5257V68.6734C57.438 71.9594 59.7642 73.2811 62.6238 71.6271C64.1161 70.6601 65.3617 69.3599 66.2619 67.8294C67.1621 66.2989 67.692 64.5804 67.8097 62.8102C67.8097 66.1258 70.1359 67.4476 72.9955 65.764C74.5035 64.7874 75.759 63.4699 76.6601 61.9187C77.5612 60.3674 78.0824 58.6262 78.1813 56.8364C78.1813 60.115 79.7667 61.5697 82.6263 59.923C84.1139 58.9582 85.3566 57.6623 86.2565 56.1375C87.1563 54.6127 87.6889 52.9005 87.8121 51.1357C87.8121 54.4291 90.1383 55.7509 92.998 54.0894C94.506 53.1128 95.7615 51.7954 96.6626 50.2441C97.5637 48.6929 98.0849 46.9516 98.1838 45.1618V45.3021C98.1838 48.5808 100.51 49.9099 103.37 48.2559C104.877 47.2804 106.132 45.9642 107.033 44.4143C107.934 42.8643 108.456 41.1243 108.555 39.3357V31.8037L37.4355 73.1556Z" fill="#FFECFA"/>
<path d="M12.2398 58.6753V60.9423L35.2056 74.1896V79.2479C35.2056 80.8207 36.3095 82.2459 37.8652 83.1837C38.0652 83.3092 37.3541 73.178 37.3541 73.178L12.2324 58.7344L12.2398 58.6753Z" fill="url(#paint1_linear_2912_18470)"/>
<path d="M70.7649 136.535L23.9072 109.568L70.7575 82.6006L117.615 109.568L70.7649 136.535Z" fill="white"/>
<path d="M37.435 73.156L12.5801 58.6755L83.3518 18.062L108.251 32.3875L37.435 73.156Z" fill="white"/>
<path d="M98.3986 98.986L90.4272 94.4077L70.9434 105.108L79.3888 109.568L98.3986 98.986Z" fill="url(#paint2_linear_2912_18470)"/>
<path d="M42.6651 98.8385L62.4009 109.863L42.6133 120.718L42.7022 135.974L51.5922 141.143L51.4959 125.488L70.9427 114.825L89.3746 125.983V141.143L98.2646 135.974V121.22L51.2514 94.2603L42.6651 98.8385Z" fill="url(#paint3_linear_2912_18470)"/>
<path d="M25.5742 125.289V150.108L70.7576 176.115V150.89L25.5742 125.289Z" fill="#FFECFA"/>
<path d="M14.3283 176.728C13.9489 176.734 13.575 176.637 13.2467 176.447C12.3651 175.945 11.8613 174.808 11.8613 173.346V46.8532C11.8613 44.1948 13.506 41.0861 15.5655 39.9267L79.729 3.0054C80.1128 2.73813 80.5623 2.57979 81.0294 2.54728C81.4965 2.51476 81.9637 2.6093 82.3812 2.82079C83.2627 3.32292 83.7591 4.45272 83.7591 5.92219V18.0619H83.0183V5.90742C83.0183 4.71117 82.6553 3.81029 82.0107 3.44107C81.7045 3.2995 81.3659 3.24198 81.0299 3.27443C80.6939 3.30688 80.3727 3.42814 80.0994 3.62568L15.9359 40.547C14.1209 41.5882 12.6392 44.409 12.6392 46.831V173.323C12.6392 174.52 13.0096 175.413 13.6541 175.782C13.9604 175.924 14.299 175.982 14.635 175.949C14.971 175.917 15.2922 175.795 15.5655 175.598L42.6651 160.002L43.0356 160.645L15.8989 176.262C15.4251 176.552 14.8836 176.712 14.3283 176.728Z" fill="#081E7A"/>
<path d="M83.7223 60.1523H82.9814V89.6894H83.7223V60.1523Z" fill="#081E7A"/>
<path d="M34.6276 39.3065C34.0362 39.3094 33.4491 39.2069 32.894 39.0037C32.2085 38.7275 31.5956 38.2983 31.1024 37.7492C30.6093 37.2 30.249 36.5455 30.0492 35.8359L28.9824 32.6606L29.7233 32.4317L30.7901 35.6069C30.9589 36.2102 31.2635 36.7671 31.6807 37.2354C32.0979 37.7038 32.6168 38.0711 33.1978 38.3096C34.5979 38.8412 36.3981 38.5459 38.2576 37.4678L58.0008 26.0739C61.579 24.0136 64.7276 19.5757 65.8314 14.9975L66.8982 10.5669L67.639 10.7441L66.5648 15.1747C65.4165 19.908 62.1198 24.5379 58.4157 26.6941L38.591 38.1102C37.3968 38.8459 36.0306 39.2582 34.6276 39.3065Z" fill="#081E7A"/>
<path fill-rule="evenodd" clip-rule="evenodd" d="M41.6204 31.7523L54.1479 24.5231C54.3243 24.3962 54.4684 24.23 54.5688 24.0376C54.6691 23.8453 54.7229 23.6322 54.7257 23.4154C54.7257 22.9871 54.4664 22.7952 54.1479 22.9798L41.6204 30.1868C41.4418 30.312 41.2956 30.4777 41.1938 30.6703C41.0921 30.8629 41.0377 31.0768 41.0352 31.2944C41.0352 31.7523 41.2944 31.9147 41.6204 31.7523Z" fill="#081E7A"/>
<path d="M13.3359 176.166C12.5358 176.166 8.00187 173.301 7.95001 173.264C7.12769 172.733 6.67578 171.655 6.67578 170.237V44.1431C6.6811 43.6467 6.73569 43.152 6.83876 42.6663C7.22269 40.5877 8.35892 38.7221 10.0318 37.4234L74.299 0.435637C74.7156 0.164689 75.1997 0.0149292 75.697 0.00318896C76.1944 -0.00855124 76.6851 0.118194 77.1141 0.369179C77.692 0.694086 81.3146 2.35555 81.9592 2.65092L81.6554 3.32289C81.6554 3.32289 77.4104 1.38821 76.7437 1.01161C76.4265 0.8235 76.062 0.7298 75.6931 0.741576C75.3242 0.753353 74.9664 0.870114 74.662 1.07807L10.4318 38.0732C8.93258 39.2612 7.91654 40.9508 7.57219 42.8287C7.47764 43.2583 7.42553 43.696 7.41661 44.1357V170.237C7.36941 170.686 7.43088 171.139 7.59588 171.559C7.76088 171.979 8.02459 172.354 8.36488 172.651C8.94273 173.028 13.1803 175.413 13.3803 175.524L13.2099 175.849L13.4396 176.144C13.4083 176.162 13.3719 176.17 13.3359 176.166Z" fill="#081E7A"/>
<path d="M97.9387 38.5384L72.817 24.0947C72.7611 24.0625 72.7145 24.0163 72.682 23.9606C72.6495 23.9049 72.6322 23.8417 72.6318 23.7772C72.6324 23.7118 72.6497 23.6477 72.6821 23.5908C72.7145 23.5339 72.761 23.4863 72.817 23.4523L82.9516 17.6261C83.0079 17.5937 83.0718 17.5767 83.1368 17.5767C83.2019 17.5767 83.2657 17.5937 83.322 17.6261L108.444 32.0697L108.073 32.7122L83.1294 18.3719L73.7357 23.7772L98.3091 37.8959L97.9387 38.5384Z" fill="#081E7A"/>
<path d="M87.8121 44.3576L62.6831 29.9139C62.6259 29.8828 62.5782 29.8369 62.5449 29.781C62.5117 29.7251 62.4941 29.6614 62.4941 29.5964C62.4941 29.5314 62.5117 29.4677 62.5449 29.4118C62.5782 29.3559 62.6259 29.31 62.6831 29.2789L72.8177 23.4453L73.1881 24.0877L63.6091 29.5964L88.1825 43.7225L87.8121 44.3576Z" fill="#081E7A"/>
<path d="M52.5564 35.1162L42.4248 40.9443L42.7951 41.5839L52.9267 35.7558L52.5564 35.1162Z" fill="#081E7A"/>
<path d="M101.035 49.6811C100.495 49.6878 99.963 49.5501 99.4944 49.2824C98.4053 48.6547 97.7979 47.3625 97.7979 45.6419V37.9992H98.5387V45.6419C98.5387 47.1188 99.0128 48.1526 99.8648 48.6473C100.717 49.1421 101.902 49.0091 103.169 48.2781C104.623 47.3378 105.834 46.0686 106.703 44.5737C107.572 43.0788 108.074 41.4005 108.17 39.6754V32.0918H108.91V39.6754C108.807 41.5287 108.266 43.3314 107.333 44.9377C106.4 46.5439 105.1 47.9084 103.539 48.9205C102.785 49.387 101.922 49.6492 101.035 49.6811Z" fill="#081E7A"/>
<path d="M90.6642 55.5076C90.1247 55.5166 89.5927 55.3815 89.1233 55.1163C88.0342 54.4886 87.4268 53.189 87.4268 51.4758H88.1676C88.1676 52.9527 88.6417 53.9865 89.4937 54.4738C90.3456 54.9612 91.531 54.8431 92.7978 54.112C94.2517 53.1697 95.4621 51.899 96.331 50.403C97.1998 48.907 97.7026 47.2279 97.7984 45.502H98.5392C98.4355 47.3552 97.8951 49.1579 96.962 50.7642C96.0288 52.3704 94.7291 53.7349 93.1682 54.7471C92.4157 55.2167 91.5516 55.4792 90.6642 55.5076Z" fill="#081E7A"/>
<path d="M80.4999 61.2893C80.0874 61.2933 79.6812 61.1888 79.322 60.9865C78.3293 60.4106 77.7959 59.0888 77.7959 57.1467H78.5367C78.5367 58.786 78.9516 59.9232 79.6924 60.3441C80.4333 60.765 81.6334 60.3441 82.4261 59.9158C83.879 58.9742 85.0889 57.7047 85.9577 56.2101C86.8265 54.7154 87.3297 53.0378 87.4267 51.3132V43.9067H88.1675V51.3279C88.0604 53.1773 87.5184 54.9757 86.5854 56.5778C85.6524 58.1799 84.3545 59.5409 82.7965 60.5509C82.1089 60.9928 81.317 61.2474 80.4999 61.2893Z" fill="#081E7A"/>
<path d="M70.6613 67.1969C70.1166 67.1982 69.5816 67.0528 69.113 66.776C68.024 66.1483 67.4165 64.8561 67.4165 63.1355H68.1573C68.1573 64.6124 68.6314 65.6462 69.4834 66.1336C70.3354 66.6209 71.5207 66.5028 72.7875 65.7717C74.2414 64.8294 75.4518 63.5587 76.3207 62.0627C77.1895 60.5667 77.6923 58.8876 77.7881 57.1617V50.0802L52.5554 35.7399C52.5011 35.7113 52.4554 35.6689 52.4229 35.6171C52.3904 35.5652 52.3722 35.5057 52.3702 35.4446C52.369 35.3798 52.3856 35.316 52.4183 35.26C52.4509 35.204 52.4984 35.158 52.5554 35.127L62.6826 29.2935L63.053 29.9359L53.4814 35.4446L78.3512 49.5633C78.4082 49.5961 78.4555 49.6435 78.4881 49.7006C78.5206 49.7578 78.5373 49.8225 78.5364 49.8882V57.1838C78.4326 59.037 77.8922 60.8398 76.9591 62.446C76.0259 64.0523 74.7262 65.4168 73.1653 66.4289C72.4132 66.9006 71.5493 67.1655 70.6613 67.1969Z" fill="#081E7A"/>
<path d="M57.4226 61.8508L32.2936 47.4146C32.2375 47.3806 32.1911 47.3329 32.1587 47.2761C32.1263 47.2192 32.109 47.1551 32.1084 47.0897C32.1088 47.0252 32.1261 46.962 32.1586 46.9063C32.1911 46.8506 32.2376 46.8044 32.2936 46.7721L42.443 40.946C42.4993 40.9135 42.5632 40.8965 42.6282 40.8965C42.6932 40.8965 42.7571 40.9135 42.8134 40.946L67.9202 55.3822L67.5498 56.0246L42.6134 41.6918L33.2196 47.0897L57.793 61.2158L57.4226 61.8508Z" fill="#081E7A"/>
<path d="M47.2957 67.6769L22.1667 53.2333C22.1107 53.201 22.0641 53.1548 22.0316 53.0991C21.9991 53.0434 21.9818 52.9802 21.9814 52.9157C21.982 52.8503 21.9993 52.7862 22.0317 52.7293C22.0641 52.6725 22.1106 52.6248 22.1667 52.5908L32.2938 46.7646L32.6642 47.4071L23.0927 52.9157L47.6661 67.0345L47.2957 67.6769Z" fill="#081E7A"/>
<path d="M37.3458 73.5472C37.2815 73.5467 37.2182 73.5315 37.1606 73.5029L12.0686 59.074C12.0116 59.0418 11.9642 58.9951 11.9312 58.9387C11.8982 58.8823 11.8809 58.8181 11.8809 58.7528C11.8809 58.6875 11.8982 58.6234 11.9312 58.5669C11.9642 58.5105 12.0116 58.4638 12.0686 58.4316L22.1958 52.6054L22.5662 53.2405L12.965 58.7344L37.3458 72.7645L108.066 32.0771L108.436 32.7196L37.531 73.5029C37.4741 73.5332 37.4104 73.5484 37.3458 73.5472Z" fill="#081E7A"/>
<path d="M60.2898 73.0009C59.7471 73.0089 59.2123 72.8712 58.7414 72.6021C57.6524 71.9744 57.0449 70.6822 57.0449 68.9617V61.6291H57.7858V68.9617C57.7858 70.4385 58.2599 71.4723 59.1118 71.9597C59.9638 72.447 61.1565 72.3658 62.4456 71.6274C63.8992 70.6797 65.1078 69.4032 65.9729 67.9019C66.838 66.4006 67.3352 64.7169 67.424 62.9878V55.7217H68.1648V62.9878C68.0622 64.8423 67.5224 66.6465 66.5892 68.2541C65.656 69.8617 64.3557 71.2274 62.7938 72.2403C62.0398 72.7068 61.1766 72.9689 60.2898 73.0009Z" fill="#081E7A"/>
<path d="M49.9181 78.8272C49.3779 78.8339 48.8458 78.6962 48.3772 78.4284C47.2881 77.8007 46.6807 76.5085 46.6807 74.788V67.5366H47.4215V74.788C47.4215 76.2648 47.8956 77.2986 48.7476 77.7934C49.5995 78.2881 50.7849 78.1552 52.0517 77.4241C53.5054 76.4834 54.7159 75.2141 55.5848 73.7193C56.4537 72.2245 56.9565 70.5464 57.0523 68.8215H57.7932C57.6894 70.6747 57.149 72.4775 56.2159 74.0837C55.2827 75.6899 53.983 77.0544 52.4221 78.0666C51.6681 78.5331 50.805 78.7952 49.9181 78.8272Z" fill="#081E7A"/>
<path d="M40.2868 84.6462C39.7449 84.6565 39.2101 84.5213 38.7385 84.2548C37.6495 83.6271 37.042 82.3275 37.042 80.6144V73.1562H37.7828V80.6144C37.7828 82.0912 38.257 83.125 39.1089 83.6124C39.9609 84.0997 41.1462 83.9816 42.413 83.2505C45.3764 81.5669 46.6728 77.6828 46.6728 74.7882H47.4136C47.4136 77.8896 45.932 82.0543 42.7834 83.8856C42.033 84.354 41.1717 84.6164 40.2868 84.6462Z" fill="#081E7A"/>
<path d="M38.739 84.2322L36.435 82.7923C35.4126 82.1573 34.8422 80.8946 34.8422 79.2479V74.4038L12.069 61.2893C12.0125 61.2577 11.9655 61.2116 11.933 61.1557C11.9004 61.0999 11.8834 61.0364 11.8838 60.9718V58.6753H12.6246V60.7281L35.3904 73.8426C35.4456 73.8769 35.491 73.9248 35.5221 73.9818C35.5533 74.0387 35.5691 74.1027 35.5682 74.1675V79.2257C35.5682 80.6066 36.0127 81.6478 36.8128 82.1794L39.1168 83.6563L38.739 84.2322Z" fill="#081E7A"/>
<path d="M22.6037 156.088C22.5393 156.088 22.476 156.073 22.4184 156.044C22.3624 156.01 22.3159 155.962 22.2835 155.906C22.2511 155.849 22.2338 155.785 22.2332 155.719V128.168L20.5664 129.128C20.5101 129.161 20.4462 129.178 20.3812 129.178C20.3161 129.178 20.2523 129.161 20.196 129.128C20.1409 129.095 20.0951 129.049 20.0628 128.993C20.0304 128.938 20.0125 128.875 20.0107 128.811V107.441C20.0111 107.376 20.0284 107.313 20.0609 107.257C20.0934 107.202 20.14 107.156 20.196 107.123L75.7584 75.142C75.8157 75.1129 75.8792 75.0977 75.9436 75.0977C76.008 75.0977 76.0714 75.1129 76.1288 75.142C76.1859 75.1749 76.2331 75.2223 76.2657 75.2794C76.2982 75.3365 76.3149 75.4013 76.314 75.4669V85.2585H75.5732V76.102L20.7516 107.655V128.168L22.4184 127.209C22.4746 127.176 22.5383 127.159 22.6031 127.159C22.6679 127.159 22.7317 127.176 22.7879 127.208C22.8441 127.24 22.8909 127.286 22.9236 127.342C22.9563 127.398 22.9737 127.461 22.9741 127.526V155.069L28.8341 151.695L29.2045 152.337L22.7889 156.029C22.7334 156.065 22.6695 156.085 22.6037 156.088Z" fill="#081E7A"/>
<path d="M98.5943 98.6551L79.0586 109.524L79.4197 110.169L98.9554 99.2999L98.5943 98.6551Z" fill="#081E7A"/>
<path d="M90.7611 94.7262L71.1836 105.37L71.5392 106.02L91.1167 95.376L90.7611 94.7262Z" fill="#081E7A"/>
<path d="M52.607 140.641H51.8662V165.459H52.607V140.641Z" fill="#081E7A"/>
<path d="M44.4586 135.944H43.7178V160.578H44.4586V135.944Z" fill="#081E7A"/>
<path d="M97.0572 136.21H96.3164V161.132H97.0572V136.21Z" fill="#081E7A"/>
<path d="M88.9078 141.143H88.167V165.895H88.9078V141.143Z" fill="#081E7A"/>
<path d="M51.4958 140.596C51.431 140.593 51.3677 140.575 51.3106 140.545L42.4873 135.427C42.4303 135.396 42.3828 135.35 42.3502 135.294C42.3175 135.238 42.3009 135.175 42.3021 135.11L42.2354 120.725C42.2344 120.659 42.2518 120.593 42.2858 120.536C42.3198 120.478 42.369 120.432 42.428 120.4L62.223 109.538L62.5786 110.188L42.9836 120.939L43.0429 134.896L51.1254 139.563V125.488C51.126 125.422 51.1441 125.357 51.1779 125.3C51.2117 125.243 51.2601 125.196 51.318 125.163L70.5945 114.456L70.9575 115.098L51.844 125.739V140.227C51.8436 140.292 51.8263 140.355 51.7938 140.41C51.7613 140.466 51.7148 140.512 51.6588 140.545C51.609 140.574 51.5533 140.591 51.4958 140.596Z" fill="#081E7A"/>
<path d="M89.2787 141.04C89.2156 141.041 89.1536 141.023 89.1009 140.988C89.0431 140.957 88.9946 140.912 88.9607 140.856C88.9268 140.8 88.9087 140.736 88.9083 140.67V125.695L42.3841 98.6539C42.3271 98.6217 42.2796 98.575 42.2467 98.5186C42.2137 98.4621 42.1963 98.398 42.1963 98.3327C42.1963 98.2674 42.2137 98.2032 42.2467 98.1468C42.2796 98.0904 42.3271 98.0437 42.3841 98.0115L50.9703 93.4332C51.0244 93.4021 51.0857 93.3857 51.1481 93.3857C51.2105 93.3857 51.2719 93.4021 51.3259 93.4332L98.3391 120.393C98.3967 120.424 98.4446 120.469 98.4773 120.526C98.5101 120.582 98.5263 120.646 98.5243 120.711V135.479C98.5247 135.543 98.5085 135.606 98.4774 135.661C98.4462 135.717 98.4011 135.764 98.3465 135.797L89.4565 140.966C89.4052 141.006 89.3437 141.032 89.2787 141.04ZM43.3472 98.3807L89.4862 125.193C89.5408 125.226 89.5859 125.273 89.617 125.328C89.6482 125.384 89.6643 125.447 89.664 125.51V140.028L97.8131 135.287V120.962L51.1407 94.2086L43.3472 98.3807Z" fill="#081E7A"/>
<path d="M70.3651 136.904C70.2997 136.905 70.2356 136.887 70.1799 136.853L23.9224 109.944C23.8652 109.913 23.8174 109.867 23.7842 109.811C23.7509 109.756 23.7334 109.692 23.7334 109.627C23.7334 109.562 23.7509 109.498 23.7842 109.442C23.8174 109.386 23.8652 109.34 23.9224 109.309L70.2021 82.2829C70.2585 82.2505 70.3223 82.2334 70.3874 82.2334C70.4524 82.2334 70.5163 82.2505 70.5726 82.2829L117.808 109.287C117.866 109.317 117.913 109.363 117.946 109.419C117.979 109.476 117.995 109.54 117.993 109.605C117.994 109.669 117.978 109.733 117.945 109.789C117.912 109.845 117.865 109.891 117.808 109.922L70.5503 136.853C70.4954 136.888 70.4307 136.906 70.3651 136.904ZM24.8262 109.627L70.3725 136.107L116.882 109.627L70.3651 83.0434L24.8262 109.627Z" fill="#081E7A"/>
<path d="M70.7577 176.484C70.6934 176.484 70.63 176.468 70.5725 176.44L25.404 150.432C25.3479 150.398 25.3014 150.351 25.269 150.294C25.2366 150.237 25.2193 150.173 25.2188 150.108V125.474H25.9596V149.901L70.4095 175.48V136.949H71.1503V176.085C71.1513 176.151 71.1346 176.216 71.102 176.273C71.0695 176.33 71.0222 176.377 70.9651 176.41C70.9049 176.455 70.8327 176.481 70.7577 176.484Z" fill="#081E7A"/>
<path d="M70.7573 151.725L24.0849 124.868C24.0303 124.834 23.9849 124.788 23.9526 124.732C23.9203 124.677 23.9021 124.614 23.8996 124.55L23.707 109.634H24.4479L24.6627 124.329L71.1277 151.082L70.7573 151.725Z" fill="#081E7A"/>
<path d="M70.9505 151.724L70.5801 151.082L117.067 124.336L117.253 109.619H117.993L117.801 124.535C117.802 124.6 117.785 124.664 117.753 124.72C117.72 124.776 117.673 124.822 117.616 124.853L70.9505 151.724Z" fill="#081E7A"/>
<path d="M71.2024 176.292L70.832 175.657L115.578 149.9V125.399H116.319V150.115C116.321 150.179 116.305 150.244 116.272 150.3C116.239 150.356 116.192 150.402 116.134 150.432L71.2024 176.292Z" fill="#081E7A"/>
<defs>
<linearGradient id="paint0_linear_2912_18470" x1="7.0293" y1="0.324219" x2="133.284" y2="53.912" gradientUnits="userSpaceOnUse">
<stop stop-color="#E64C4E"/>
<stop offset="1" stop-color="#EF33F9"/>
</linearGradient>
<linearGradient id="paint1_linear_2912_18470" x1="12.2324" y1="58.6753" x2="36.7158" y2="84.3162" gradientUnits="userSpaceOnUse">
<stop stop-color="#E64C4E"/>
<stop offset="1" stop-color="#EF33F9"/>
</linearGradient>
<linearGradient id="paint2_linear_2912_18470" x1="70.9434" y1="94.4077" x2="83.7733" y2="117.643" gradientUnits="userSpaceOnUse">
<stop stop-color="#E64C4E"/>
<stop offset="1" stop-color="#EF33F9"/>
</linearGradient>
<linearGradient id="paint3_linear_2912_18470" x1="42.6133" y1="94.2603" x2="88.8152" y2="149.103" gradientUnits="userSpaceOnUse">
<stop stop-color="#E64C4E"/>
<stop offset="1" stop-color="#EF33F9"/>
</linearGradient>
</defs>
</svg>
