<svg width="261" height="184" viewBox="0 0 261 184" fill="none" xmlns="http://www.w3.org/2000/svg">
<path opacity="0.08" d="M197.47 88.0373C143.853 54.867 85.3881 74.2164 62.858 88.0373L49.7943 58.5024L106.593 49.9826L152.032 44.3027L204.286 78.3818L197.47 88.0373Z" fill="black"/>
<path opacity="0.08" d="M247.885 148.812L262.005 129.694L261.846 106.974L236.957 102.351L262.516 89.5711L262.334 66.8517L242.341 64.9887L213.772 120.163C208.556 116.289 202.975 112.933 197.107 110.144L199.084 90.4574L165.686 120.163L142.58 127.797C134.68 127.14 126.745 127.003 118.827 127.388L96.1078 118.959L62.4945 88.1059L63.9826 107.849C58.0488 110.43 52.3769 113.576 47.0453 117.244L23.9851 59.4565L-0.0293266 62.3192L-0.26788 85.0386L24.9279 98.6702L-0.756348 102.487V125.207L12.8753 144.791L47.0453 144.382C51.9656 147.981 57.2054 151.122 62.699 153.765V174.644L95.1082 182.596L118.214 168.339C126.114 168.991 134.049 169.128 141.967 168.748L164.686 183.8L198.3 176.359L198.243 155.821C203.703 153.524 208.895 150.637 213.726 147.21L247.885 148.812Z" fill="black"/>
<path d="M257.598 58.9797L245.102 39.6682L212.738 40.0658C208.229 36.7386 203.44 33.8083 198.425 31.3075L197.437 11.1781L156.008 0.54541L138.593 16.2559C138.593 16.2559 127.688 14.6314 119.498 16.5853L102.345 1.13611L66.1298 9.29238L64.8007 29.3877C58.7005 32.0686 56.2241 33.9316 51.2372 37.3395L17.9533 36.0558L5.33265 53.9474L5.11681 76.0306L20.9295 84.6072L4.23076 92.8203L4.1626 115.188L17.9419 133.977L50.5329 133.579C55.0257 136.885 59.822 139.756 64.8575 142.155L65.63 162.705L96.8351 170.396L119.1 156.685C126.71 157.306 134.352 157.435 141.979 157.071L163.869 171.532L196.255 164.364L196.198 144.689C201.454 142.468 206.454 139.688 211.114 136.396L243.989 137.93L257.62 119.516V97.6254L241.558 88.6626L257.62 80.904L257.598 58.9797ZM130.846 116.346C98.1869 116.346 70.7191 103.737 62.6878 86.6292C70.7532 69.5102 98.2437 56.9009 130.914 56.9009C163.585 56.9009 191.018 69.4761 199.072 86.5838C191.018 103.714 163.528 116.346 130.846 116.346Z" fill="white"/>
<path d="M29.1877 80.6426V67.2608L5.33229 53.9473L5.11646 76.0305L20.9292 84.6071L29.1877 80.6426Z" fill="#FFECFA"/>
<path d="M243.886 115.29L210.943 114.154L194.529 123.242L195.983 142.349L163.233 149.426L141.649 134.988L118.93 134.658L96.2103 148.29L64.8007 140.656L65.7663 121.038L49.6469 111.325L17.6238 111.723L4.34435 92.7637H4.23076L4.1626 115.188L17.9419 133.977L50.5329 133.579C55.0257 136.885 59.822 139.756 64.8575 142.156L65.63 162.705L96.8351 170.396L119.1 156.685C126.71 157.306 134.352 157.436 141.979 157.071L163.869 171.532L196.255 164.364L196.198 144.689C201.454 142.468 206.454 139.688 211.114 136.396L243.989 137.93L257.62 119.516V97.6256L243.886 115.29Z" fill="#FFECFA"/>
<path d="M233.197 83.9368L241.535 88.6624L257.598 80.9037V58.9795L233.356 70.6686L233.197 83.9368Z" fill="#FFECFA"/>
<path d="M130.903 56.8895C163.539 56.8895 191.007 69.476 199.061 86.5724C200.619 83.3316 201.437 79.7853 201.458 76.1896C201.458 54.0155 169.844 36.0444 130.835 36.0444C91.8255 36.0444 60.2455 54.0155 60.2455 76.1896C60.2668 79.8036 61.0975 83.3669 62.6765 86.6178C70.7418 69.4988 98.2323 56.8895 130.903 56.8895Z" fill="url(#paint0_linear_2940_22640)"/>
<path d="M196.357 144.723L195.903 143.689C201.108 141.484 206.059 138.722 210.671 135.453C210.771 135.376 210.897 135.339 211.023 135.351L243.591 136.862L256.905 118.845L256.757 97.1255H257.893L258.041 119.038C258.042 119.16 258.006 119.278 257.938 119.379L244.307 137.793C244.252 137.871 244.179 137.934 244.094 137.976C244.008 138.018 243.913 138.037 243.818 138.032L211.148 136.498C206.528 139.764 201.569 142.522 196.357 144.723Z" fill="#081E7A"/>
<path d="M163.8 172.191C163.686 172.19 163.575 172.154 163.482 172.088L141.751 157.707C134.223 158.061 126.679 157.932 119.168 157.321L97.0618 170.952C96.9999 170.991 96.9308 171.017 96.8586 171.029C96.7864 171.041 96.7125 171.038 96.6415 171.02L65.3455 163.807C65.2203 163.777 65.1087 163.706 65.0285 163.605C64.9482 163.504 64.9039 163.379 64.9025 163.25V141.065H66.0384V162.785L96.7096 169.85L118.782 156.219C118.883 156.155 119.002 156.123 119.122 156.128C126.705 156.756 134.321 156.885 141.921 156.514C142.043 156.51 142.163 156.546 142.262 156.616L163.959 171.009L195.653 164V142.292H196.789V164.455C196.789 164.584 196.746 164.71 196.665 164.811C196.585 164.912 196.472 164.983 196.346 165.011L163.97 172.168L163.8 172.191Z" fill="#081E7A"/>
<path d="M64.5507 143.132C59.2588 140.557 54.2065 137.516 49.4536 134.045L17.2943 134.601C17.2018 134.601 17.1106 134.579 17.0279 134.538C16.9451 134.496 16.873 134.436 16.8172 134.363L3.69673 115.506C3.62951 115.413 3.59367 115.302 3.5945 115.188L3.66265 92.8203H4.79862L4.73047 114.994L17.5783 133.454L49.6354 132.886C49.7584 132.885 49.8783 132.925 49.9762 133C54.7153 136.499 59.7606 139.563 65.0505 142.156L64.5507 143.132Z" fill="#081E7A"/>
<path d="M20.6571 85.1069L5.06025 76.5304C4.97061 76.4813 4.89586 76.409 4.84388 76.321C4.7919 76.2331 4.76462 76.1327 4.76489 76.0305V53.9473H5.90087V75.7011L21.2024 84.0618L20.6571 85.1069Z" fill="#081E7A"/>
<path d="M197.88 11.8933L196.746 11.9556L197.825 31.6237L198.959 31.5615L197.88 11.8933Z" fill="#081E7A"/>
<path d="M65.3858 9.17909L64.2225 29.3545L65.3566 29.4199L66.5199 9.24448L65.3858 9.17909Z" fill="#081E7A"/>
<path d="M244.455 115.29H243.319V136.873H244.455V115.29Z" fill="#081E7A"/>
<path d="M211.511 114.154H210.375V135.737H211.511V114.154Z" fill="#081E7A"/>
<path d="M163.801 149.369H162.665V170.953H163.801V149.369Z" fill="#081E7A"/>
<path d="M142.217 134.93H141.081V156.684H142.217V134.93Z" fill="#081E7A"/>
<path d="M119.498 134.602H118.362V156.673H119.498V134.602Z" fill="#081E7A"/>
<path d="M96.7784 148.233H95.6425V169.816H96.7784V148.233Z" fill="#081E7A"/>
<path d="M50.2037 110.746H49.0677V133.466H50.2037V110.746Z" fill="#081E7A"/>
<path d="M18.3965 111.882H17.2605V133.465H18.3965V111.882Z" fill="#081E7A"/>
<path d="M241.797 89.1627L241.274 88.1517L256.951 80.0522V58.4688H258.087V80.393C258.088 80.4982 258.06 80.6018 258.006 80.692C257.951 80.7823 257.873 80.8558 257.78 80.9042L241.797 89.1627Z" fill="#081E7A"/>
<path d="M163.471 150.062C163.359 150.061 163.249 150.03 163.153 149.971L141.49 135.51C133.875 135.87 126.245 135.741 118.646 135.124L96.4492 148.812C96.3197 148.89 96.1648 148.915 96.0175 148.88L64.6647 141.144C64.5378 141.111 64.426 141.035 64.3475 140.93C64.2691 140.825 64.2287 140.696 64.2331 140.565L65.1873 121.333C59.6603 118.69 54.3962 115.529 49.4654 111.893L17.6583 112.279C17.5667 112.283 17.4757 112.263 17.3942 112.221C17.3126 112.179 17.2432 112.117 17.1925 112.041L3.78807 93.1496C3.74024 93.0831 3.70735 93.007 3.69167 92.9267C3.67598 92.8463 3.67787 92.7634 3.6972 92.6838C3.71893 92.6032 3.7575 92.5281 3.81036 92.4635C3.86323 92.3989 3.9292 92.3462 4.00391 92.309L28.6204 80.2222V67.5902L5.06036 54.4471C4.99156 54.4067 4.93183 54.3526 4.88492 54.2881C4.83801 54.2236 4.80492 54.1501 4.78773 54.0722C4.77557 53.9911 4.78149 53.9083 4.80506 53.8298C4.82862 53.7512 4.86925 53.6788 4.92404 53.6178L17.7946 35.3855C17.8488 35.3073 17.9222 35.2443 18.0077 35.2025C18.0932 35.1608 18.188 35.1416 18.2831 35.1469L50.9195 36.6805C55.932 33.2459 61.2567 30.2907 66.8231 27.854L65.3918 9.2468C65.3807 9.11121 65.4196 8.97625 65.5012 8.86741C65.5828 8.75858 65.7015 8.68341 65.8348 8.65609L102.618 0.545266L102.867 1.68124L66.5164 9.63303L67.9022 28.138C67.9113 28.2549 67.8846 28.3717 67.8258 28.4732C67.7669 28.5746 67.6787 28.6557 67.5728 28.706C61.9095 31.1863 56.4966 34.2028 51.408 37.7142C51.3078 37.7917 51.1819 37.8282 51.0558 37.8165L18.5557 36.3511L6.16225 53.7655L29.4724 66.761C29.5599 66.8115 29.6323 66.8845 29.6823 66.9723C29.7322 67.0602 29.7578 67.1598 29.7564 67.2608V80.6539C29.7564 80.8045 29.6965 80.949 29.59 81.0555C29.4835 81.162 29.339 81.2219 29.1884 81.2219L5.07172 93.036L17.9195 111.143L49.6472 110.746C49.7708 110.741 49.8919 110.782 49.988 110.859C55.0037 114.579 60.3723 117.798 66.0165 120.47C66.1166 120.52 66.1999 120.598 66.2564 120.695C66.3128 120.792 66.34 120.903 66.3346 121.015L65.3918 140.156L96.063 147.71L118.214 134.079C118.322 134.019 118.444 133.992 118.567 133.999C126.241 134.628 133.947 134.757 141.638 134.385C141.76 134.383 141.879 134.419 141.979 134.488L163.562 148.914L195.369 141.86L193.95 123.253C193.94 123.136 193.969 123.019 194.03 122.919C194.091 122.819 194.182 122.741 194.29 122.696C199.991 120.204 205.432 117.156 210.535 113.597C210.637 113.524 210.761 113.488 210.887 113.495L243.591 115.028L256.485 97.3867L232.925 84.4367C232.82 84.3758 232.737 84.2843 232.686 84.1746C232.635 84.0649 232.62 83.9423 232.641 83.8233C233.541 79.5238 233.592 75.0897 232.788 70.771C232.766 70.6493 232.783 70.5235 232.839 70.4127C232.894 70.302 232.984 70.2124 233.095 70.1575L256.701 58.2753L244.614 39.918L211.58 40.3156C211.453 40.3164 211.33 40.2766 211.228 40.202C206.245 36.5144 200.92 33.3151 195.324 30.6485C195.217 30.6006 195.128 30.5195 195.071 30.4172C195.014 30.3148 194.991 30.1968 195.006 30.0805L196.846 11.6323L155.588 1.13597L155.872 0L197.539 10.644C197.671 10.6787 197.786 10.7598 197.864 10.8724C197.941 10.9851 197.975 11.1218 197.959 11.2575L196.096 29.7965C201.57 32.43 206.784 35.5715 211.671 39.1796L244.83 38.782C244.923 38.7863 245.014 38.8108 245.096 38.854C245.178 38.8972 245.25 38.9579 245.307 39.0319L257.95 58.1844C257.994 58.2507 258.023 58.3252 258.037 58.4033C258.051 58.4815 258.048 58.5616 258.03 58.6388C258.01 58.7172 257.973 58.7903 257.922 58.8531C257.871 58.9159 257.807 58.9668 257.734 59.0023L233.879 70.9868C234.608 75.1782 234.558 79.4682 233.731 83.6415L257.587 96.7279C257.658 96.7659 257.721 96.8191 257.77 96.8839C257.819 96.9486 257.853 97.0233 257.871 97.1028C257.888 97.1832 257.887 97.2663 257.87 97.3466C257.852 97.4269 257.817 97.5026 257.768 97.5685L244.318 115.971C244.264 116.046 244.192 116.107 244.109 116.149C244.026 116.19 243.934 116.211 243.841 116.21L211.08 114.733C206.074 118.19 200.748 121.161 195.176 123.605L196.596 142.303C196.605 142.44 196.566 142.575 196.485 142.685C196.404 142.795 196.286 142.873 196.153 142.905L163.63 150.107L163.471 150.062Z" fill="#081E7A"/>
<path d="M130.857 117.005C91.5977 117.005 59.6542 98.7273 59.6542 76.2806C59.6542 53.8338 91.5977 35.5674 130.857 35.5674C170.116 35.5674 202.048 53.8224 202.048 76.2806C202.048 98.7387 170.116 117.005 130.857 117.005ZM130.857 36.7147C92.2338 36.7147 60.7901 54.4586 60.7901 76.2919C60.7901 98.1253 92.2225 115.869 130.857 115.869C169.491 115.869 200.912 98.1139 200.912 76.2919C200.912 54.4699 169.48 36.7034 130.857 36.7034V36.7147Z" fill="#081E7A"/>
<path d="M62.6531 87.1859C62.5438 87.1859 62.4368 87.155 62.3443 87.0967C62.2518 87.0384 62.1777 86.9551 62.1306 86.8565C60.5267 83.5277 59.6809 79.8847 59.6542 76.1897C59.6542 53.743 91.5977 35.4766 130.857 35.4766C170.116 35.4766 202.048 53.743 202.048 76.1897C202.024 79.8679 201.186 83.4951 199.594 86.8111C199.551 86.9109 199.48 86.996 199.389 87.0558C199.298 87.1156 199.192 87.1474 199.083 87.1474C198.974 87.1474 198.868 87.1156 198.777 87.0558C198.686 86.996 198.615 86.9109 198.572 86.8111C190.382 69.5216 162.55 57.4576 130.88 57.4576C99.2087 57.4576 71.3206 69.5443 63.1643 86.8565C63.1203 86.9551 63.0485 87.0387 62.9577 87.0972C62.8669 87.1557 62.7611 87.1865 62.6531 87.1859ZM130.811 36.6125C92.1884 36.6125 60.7447 54.3678 60.7447 76.1897C60.7627 79.3143 61.4037 82.4038 62.6304 85.2775C71.5932 68.1584 99.3563 56.3103 130.789 56.3103C162.221 56.3103 190.086 68.1584 199.049 85.198C200.272 82.3239 200.905 79.2336 200.912 76.1102C200.912 54.3678 169.48 36.6125 130.857 36.6125H130.811Z" fill="#081E7A"/>
<path d="M119.361 17.2214L101.969 1.60176L102.719 0.761143L119.656 15.9036C121.178 15.472 127.892 13.893 138.422 15.6083L155.632 0.125L156.393 0.976978L138.763 16.8806H138.491C126.824 14.9153 119.747 17.1532 119.679 17.1759L119.361 17.2214Z" fill="#081E7A"/>
<defs>
<linearGradient id="paint0_linear_2940_22640" x1="60.2455" y1="36.0444" x2="92.3519" y2="125.693" gradientUnits="userSpaceOnUse">
<stop stop-color="#E64C4E"/>
<stop offset="1" stop-color="#EF33F9"/>
</linearGradient>
</defs>
</svg>
