<svg width="135" height="184" viewBox="0 0 135 184" fill="none" xmlns="http://www.w3.org/2000/svg">
<path opacity="0.08" d="M68.0072 184C88.8286 184 105.708 174.183 105.708 162.072C105.708 149.962 88.8286 140.145 68.0072 140.145C47.1859 140.145 30.3069 149.962 30.3069 162.072C30.3069 174.183 47.1859 184 68.0072 184Z" fill="black"/>
<path d="M131.951 85.8251C131.99 85.625 132.036 85.425 132.075 85.2172C132.159 84.8095 132.236 84.394 132.313 83.9862C132.313 83.8785 132.352 83.7785 132.375 83.6707C132.459 83.1629 132.544 82.6628 132.621 82.132C132.621 81.955 132.675 81.7703 132.698 81.5857C132.752 81.2472 132.798 80.9086 132.844 80.5624C132.844 80.3547 132.898 80.1469 132.921 79.9315C132.944 79.7161 132.998 79.3006 133.029 78.9774L133.098 78.3235C133.098 78.008 133.152 77.6849 133.175 77.3694C133.198 77.0539 133.213 76.9308 133.229 76.7154C133.229 76.3846 133.275 76.0614 133.29 75.7306C133.29 75.5229 133.29 75.3151 133.329 75.1074C133.329 74.7458 133.329 74.3841 133.329 74.0148C133.329 73.8456 133.329 73.6686 133.329 73.4917C133.329 72.9531 133.329 72.4068 133.329 71.8682V70.1371C133.283 69.7986 133.283 69.4677 133.267 69.1292C133.267 69.0292 133.267 68.9291 133.267 68.8291C133.267 68.1213 133.198 67.4134 133.144 66.7056C133.147 66.6775 133.147 66.6491 133.144 66.621V66.344C133.144 66.2055 133.144 66.067 133.144 65.9285C133.106 65.4207 133.052 64.9206 132.998 64.3897C132.998 64.2128 132.959 64.0358 132.936 63.8588C132.844 63.0894 132.752 62.32 132.636 61.6045V61.4814C132.598 61.2352 132.559 60.989 132.513 60.712L132.467 60.435C132.405 60.058 132.336 59.6656 132.267 59.3194L132.175 58.8424C132.113 58.5192 132.051 58.2038 131.982 57.8806C131.982 57.8268 131.982 57.7652 131.982 57.7114C131.905 57.3498 131.828 56.942 131.744 56.6188C131.747 56.5804 131.747 56.5418 131.744 56.5034C131.582 55.7956 131.405 55.0877 131.213 54.3876C131.213 54.2568 131.144 54.126 131.105 54.0029C130.905 53.2335 130.69 52.5256 130.467 51.7947V51.7255C130.243 51.0099 130.005 50.2944 129.751 49.5943C129.751 49.4942 129.689 49.4019 129.651 49.3019C129.128 47.8246 128.543 46.3628 127.92 44.9317L127.851 44.7778C127.081 43.0775 126.312 41.4233 125.404 39.7999C125.221 35.9019 124.63 32.0339 123.642 28.2589C121.395 19.8571 117.164 13.248 111.332 8.94713L114.563 3.33824C114.567 3.33102 114.568 3.32314 114.568 3.31516C114.568 3.30717 114.567 3.29929 114.563 3.29207C113.601 -0.716473 109.631 -0.770331 108.269 1.53785L100.86 14.4329C96.2688 11.6854 91.3598 9.50734 86.2417 7.94691L86.0571 7.89305L84.5183 7.44681L84.1951 7.36217L82.7256 6.97747L82.364 6.92362L80.8252 6.5697L80.5944 6.52353C79.3864 6.26963 78.1554 6.04651 76.9243 5.86185L76.4935 5.8003C76.0395 5.73105 75.5779 5.6695 75.1163 5.61565L74.5007 5.5464L73.2389 5.38483L72.5619 5.32328L71.3693 5.23864L70.6922 5.19248L69.4151 5.13862H68.8226C68.1994 5.13862 67.5762 5.13862 66.953 5.13862C30.2529 5.08476 0.500366 34.9911 0.500366 71.8836V71.9683C0.500366 72.512 0.500366 73.0582 0.500366 73.6071C0.500366 74.6765 0.577306 75.7383 0.654245 76.7924C0.654245 76.8693 0.654245 76.9385 0.654245 77.0155C0.654245 77.454 0.731185 77.8926 0.769654 78.3235C0.769654 78.4543 0.769654 78.5774 0.769654 78.7082C0.823512 79.2083 0.885064 79.7084 0.946615 80.2469C0.946615 80.3008 0.946615 80.3547 0.946615 80.4085C1.00817 80.8702 1.06972 81.3318 1.13896 81.7857C1.13896 81.8858 1.13896 81.9781 1.13896 82.0781C2.68046 92.0519 6.46058 101.547 12.1957 109.851C17.9309 118.156 25.4721 125.053 34.2537 130.027L25.7904 144.645C25.7874 144.658 25.7874 144.671 25.7904 144.684C26.2597 147.046 27.7831 148.084 29.245 148.084C29.7928 148.089 30.3322 147.949 30.8089 147.679C31.2856 147.409 31.6829 147.018 31.9609 146.546L34.4691 142.199C35.8441 142.803 37.2641 143.3 38.7162 143.684C37.4843 145.361 36.7148 147.332 36.485 149.4H36.4619V159.341C36.7389 163.665 39.701 167.943 45.3945 171.243C57.2971 178.168 76.6089 178.168 88.4807 171.243C94.1665 167.943 97.1363 163.665 97.3902 159.341V149.377H97.3364C96.9286 145.192 93.9741 141.075 88.4576 137.836C87.3494 137.195 86.2035 136.623 85.0261 136.12C98.8694 132.156 111.053 123.809 119.749 112.331L119.995 112.008L120.572 111.238C120.672 111.092 120.772 110.953 120.88 110.815L121.411 110.046L121.734 109.592L122.242 108.822L122.557 108.353C122.726 108.091 122.888 107.83 123.057 107.584C123.227 107.337 123.25 107.268 123.342 107.114C123.619 106.668 123.896 106.229 124.15 105.768C124.259 105.586 124.38 105.411 124.511 105.245C124.791 104.921 125.012 104.551 125.165 104.152C125.388 103.58 125.645 103.023 125.935 102.482C126.073 102.221 126.196 101.967 126.327 101.713C126.458 101.459 126.52 101.328 126.612 101.128L126.981 100.359C127.027 100.251 127.081 100.143 127.135 100.036L127.266 99.7434C127.381 99.4972 127.489 99.2433 127.604 98.974L127.881 98.3354L128.205 97.566C128.297 97.3352 128.381 97.1121 128.474 96.8889L128.774 96.1196C128.866 95.8733 128.959 95.6194 129.059 95.3502C129.159 95.0809 129.312 94.6577 129.436 94.3115C129.559 93.9652 129.674 93.6421 129.789 93.3036C129.866 93.0881 129.936 92.865 130.005 92.6419C130.074 92.4188 130.151 92.211 130.22 91.9879L130.266 91.834L130.474 91.1493C130.559 90.88 130.636 90.6184 130.713 90.3799C130.79 90.1414 130.844 89.9182 130.905 89.6797C130.967 89.4412 131.059 89.1411 131.128 88.9103C131.197 88.6795 131.244 88.4487 131.305 88.2179C131.305 88.1102 131.359 88.0101 131.382 87.9024C131.405 87.7947 131.467 87.5562 131.505 87.3792L131.667 86.7022C131.821 86.4406 131.882 86.1713 131.951 85.8251ZM107.469 16.6411C111.316 19.6648 114.317 24.0888 116.194 29.6438C113 26.0553 109.428 22.823 105.538 20.0033L107.469 16.6411ZM39.3317 133.797C39.3714 133.725 39.4049 133.651 39.4317 133.574C42.3441 134.867 45.3446 135.952 48.4106 136.821C47.2368 137.316 46.0935 137.882 44.9868 138.513C44.7406 138.652 44.5174 138.798 44.2789 138.936C41.8759 138.76 39.5131 138.223 37.2697 137.344L39.3317 133.797Z" fill="white"/>
<path d="M100.452 25.1279C99.9116 25.1207 99.3818 24.975 98.9135 24.7047C98.1955 24.2882 97.6722 23.6036 97.4587 22.8015C97.2451 21.9993 97.3588 21.1452 97.7748 20.4268L108.4 2.03062C108.855 1.39898 109.529 0.959362 110.29 0.797483C111.051 0.635604 111.846 0.763067 112.518 1.15502C113.191 1.54697 113.693 2.17532 113.927 2.91755C114.162 3.65978 114.111 4.4627 113.786 5.16975L103.161 23.566C102.886 24.0413 102.491 24.4359 102.016 24.7101C101.54 24.9843 101.001 25.1284 100.452 25.1279V25.1279Z" fill="#FFECFA"/>
<path d="M61.0828 142.338V149.262C61.0828 150.601 62.3138 151.947 64.7759 152.67C66.6336 153.222 68.6116 153.222 70.4694 152.67C72.9314 151.947 74.1625 150.601 74.1625 149.262V137.306L61.0828 142.338Z" fill="url(#paint0_linear_2940_23525)"/>
<path d="M36.4622 149.785V160.518L36.5006 160.071C36.8699 164.311 39.8629 168.496 45.4718 171.736C57.4974 178.66 77.017 178.66 88.9964 171.736C94.3822 168.658 97.3521 164.665 97.9137 160.602L98.0137 160.518V149.785C98.0137 149.785 96.475 168.627 68.0073 168.627C35.6928 168.627 36.4622 149.785 36.4622 149.785Z" fill="url(#paint1_linear_2940_23525)"/>
<path d="M33.6153 130.073C18.6974 121.4 7.74659 107.256 3.08705 90.6409C-1.57248 74.0263 0.426127 56.2498 8.65867 41.0847C16.8912 25.9195 30.7096 14.5595 47.1808 9.41584C63.652 4.2722 81.4793 5.74986 96.8788 13.5352C112.278 21.3205 124.038 34.8006 129.661 51.1142C135.284 67.4279 134.329 85.2908 126.998 100.912C119.666 116.532 106.536 128.681 90.3937 134.779C74.2516 140.878 56.3684 140.445 40.5398 133.574L33.6153 130.073Z" fill="#FFECFA"/>
<path d="M90.4268 11.9405C90.4268 13.2638 88.1186 13.5408 88.1186 14.818C88.1186 16.0952 85.8104 19.619 85.8104 20.4577C85.8104 21.2963 90.4268 26.382 90.0344 27.6515C89.642 28.921 86.6491 29.7289 86.8645 32.8141C87.0799 35.8994 87.9186 40.1234 87.9186 40.5466C87.9186 40.9697 79.6399 51.5489 79.6399 53.0415C79.6399 54.5342 81.3326 55.9344 81.548 57.4502C81.7634 58.9659 80.7017 63.3129 81.548 64.3747C82.3943 65.4365 89.7959 76.1695 93.8121 76.2311C97.8284 76.2926 106.938 71.8609 108.2 71.8609C109.462 71.8609 109.469 78.3161 110.508 80.1627C111.547 82.0092 114.101 86.2486 113.678 88.2567C113.255 90.2648 109.239 97.4125 109.662 99.7976C110.085 102.183 111.354 106.799 111.354 107.853C111.354 108.907 106.276 114.585 108.184 118.094C108.954 119.448 113.509 117.417 118.856 114.416C125.474 106.365 130.109 96.872 132.387 86.702C134.666 76.532 134.524 65.969 131.974 55.8638C129.423 45.7585 124.536 36.3933 117.704 28.5223C110.873 20.6514 102.289 14.4946 92.6427 10.5479C91.3501 11.048 90.4268 11.5404 90.4268 11.9405Z" fill="url(#paint2_linear_2940_23525)"/>
<path d="M7.08658 51.3415C7.30201 54.9345 10.0487 58.0044 10.1642 59.0354C10.2565 59.9664 12.7109 62.9285 14.7344 64.852C14.7155 64.9718 14.7155 65.0938 14.7344 65.2136C14.9498 66.9679 12.4262 70.4301 12.4262 73.2461C12.4262 76.0621 13.0571 87.4876 16.0193 91.7116C18.9814 95.9356 21.7282 98.0129 22.9977 99.7287C24.2672 101.444 27.6525 111.808 29.9838 115.617C32.315 119.425 35.962 121.141 37.6777 120.295C39.3935 119.448 42.2941 115.824 42.2941 114.347C42.2941 112.87 42.9327 105.038 45.6794 104.614C48.4262 104.191 53.2964 101.821 53.9273 99.7287C54.5582 97.6359 53.9273 95.0354 53.9273 93.4812C53.9273 91.927 59.6208 88.811 58.3513 87.5876C57.7281 86.9875 54.8352 81.7172 51.496 81.1324C47.9876 80.5169 43.8021 81.4633 42.0863 80.1322C38.701 77.5393 40.6014 75.2004 38.9087 73.8309C37.2161 72.4613 32.5612 66.6678 30.2377 66.3908C27.9141 66.1138 21.3896 60.0895 19.6585 61.005C18.7175 61.457 17.8076 61.9711 16.9348 62.5438L13.7418 60.0356C13.7418 60.0356 11.8337 53.4804 11.4337 52.3417C11.0336 51.203 11.0105 41.2393 11.8568 40.393C12.7032 39.5466 15.5576 37.854 16.5117 37.854C17.4657 37.854 16.7348 44.5169 17.5734 44.7323C18.4121 44.9478 19.8816 44.0938 19.8816 44.0938C19.8816 44.0938 21.2588 36.4767 21.8897 35.8458C22.5206 35.2149 26.5446 33.73 27.4986 32.9914C28.4527 32.2528 36.9083 25.4821 38.2701 25.3744C39.632 25.2667 43.3482 25.1666 44.7177 24.4203C46.0872 23.674 49.2648 18.6037 49.688 17.8651C50.1111 17.1265 47.6952 12.21 46.1564 12.6332C44.6177 13.0564 38.8549 14.5336 38.324 14.1104C37.9361 13.7099 37.5762 13.2831 37.2469 12.8332C24.827 19.183 14.7037 29.2578 8.29453 41.6471C7.63285 45.3402 6.98656 49.5257 7.08658 51.3415Z" fill="url(#paint3_linear_2940_23525)"/>
<path d="M29.4367 147.762C28.8867 147.762 28.3466 147.616 27.8705 147.341C27.3944 147.066 26.9992 146.67 26.7247 146.194C26.4502 145.717 26.306 145.177 26.3066 144.627C26.3073 144.077 26.4528 143.537 26.7284 143.061L34.4223 129.712C34.6049 129.315 34.8684 128.961 35.1959 128.672C35.5234 128.384 35.9077 128.166 36.324 128.035C36.7404 127.904 37.1796 127.861 37.6136 127.909C38.0475 127.957 38.4666 128.096 38.8438 128.316C39.221 128.536 39.5481 128.832 39.804 129.186C40.06 129.539 40.2391 129.943 40.3299 130.37C40.4207 130.797 40.4212 131.238 40.3313 131.666C40.2415 132.093 40.0632 132.497 39.8081 132.851L32.1449 146.185C31.8725 146.663 31.4785 147.06 31.0029 147.337C30.5273 147.614 29.987 147.761 29.4367 147.762V147.762Z" fill="#FFECFA"/>
<path d="M109.154 118.879C108.9 118.914 108.64 118.872 108.41 118.758C108.179 118.644 107.988 118.464 107.862 118.24C106.392 115.539 108.7 111.754 110.085 109.492C110.448 108.969 110.75 108.406 110.985 107.815C110.785 106.383 110.497 104.964 110.124 103.568C109.808 102.214 109.477 100.821 109.3 99.8284C109.008 98.2127 110.524 94.8196 111.855 91.819C112.433 90.6435 112.924 89.4272 113.324 88.1798C113.686 86.4332 111.462 82.5632 110.393 80.7013L110.193 80.355C109.693 79.4856 109.423 77.7468 109.17 76.0618C108.954 74.6846 108.6 72.3841 108.192 72.2148C106.972 72.5469 105.781 72.9766 104.63 73.4997C101.237 74.8154 96.613 76.6235 93.9279 76.6235H93.8278C91.2504 76.6235 87.2649 72.838 81.656 65.1826L81.2405 64.6286C80.625 63.8592 80.8251 61.8972 81.0251 60.0122C81.1515 59.167 81.1979 58.3118 81.1636 57.4578C80.9921 56.7593 80.6863 56.1008 80.2634 55.519C79.7076 54.7991 79.3543 53.9438 79.2401 53.0415C79.2401 52.1259 81.2636 49.1945 85.2337 43.6857C86.2493 42.2854 87.3034 40.8389 87.488 40.4927C87.488 40.285 87.3726 39.7233 87.2726 39.1462C87.0187 37.569 86.5801 34.9377 86.434 32.8449C86.2801 30.629 87.6419 29.4673 88.6344 28.6209C89.0426 28.3353 89.3817 27.962 89.6269 27.5284C89.8193 26.959 88.0343 24.5354 87.0802 23.2352C85.8569 21.5425 85.3953 20.8808 85.3953 20.4576C85.5896 19.5822 85.9332 18.7468 86.4109 17.9879C86.9956 16.8492 87.7188 15.4335 87.7188 14.818C87.7188 13.9793 88.419 13.5023 89.0345 13.0868C89.65 12.6714 90.0424 12.3713 90.0424 11.9404C90.0424 11.5096 90.3579 11.2249 91.0657 10.8325L91.4427 11.5019C90.8811 11.8173 90.8118 11.9712 90.8118 11.9789C90.8118 12.8176 90.0963 13.2946 89.4654 13.7254C88.8345 14.1563 88.4882 14.4179 88.4882 14.818C88.4882 15.5874 87.7804 17.0031 87.0956 18.3418C86.7066 19.0098 86.3943 19.7195 86.1647 20.4576C86.6036 21.2739 87.1189 22.0467 87.7035 22.7658C89.5038 25.2125 90.6579 26.8744 90.3656 27.7592C90.0959 28.3491 89.6769 28.8583 89.1499 29.2364C88.1805 30.0597 87.0956 30.9907 87.2187 32.8218C87.3572 34.8761 87.7881 37.492 88.0497 39.0462C88.2036 39.9926 88.2728 40.4157 88.2728 40.585C88.2728 40.7543 88.1266 41.0697 85.8723 44.1781C83.8565 46.9325 80.0095 52.2106 80.0095 53.0415C80.1221 53.8113 80.4293 54.5395 80.902 55.1574C81.3908 55.825 81.7342 56.5877 81.9099 57.3963C81.9597 58.3114 81.9159 59.2292 81.7791 60.1353C81.6175 61.6049 81.4098 63.6207 81.833 64.1823C81.9176 64.2824 82.0484 64.467 82.2331 64.7209C88.9422 73.869 92.2352 75.8233 93.774 75.8464H93.8586C96.3976 75.8464 100.945 74.0691 104.276 72.7688C106.477 71.9148 107.654 71.4685 108.123 71.4685C109.116 71.4685 109.408 73.0842 109.847 75.9387C109.976 77.3156 110.289 78.6689 110.778 79.9626L110.978 80.3089C112.186 82.4016 114.425 86.2948 113.994 88.326C113.58 89.6309 113.066 90.9017 112.455 92.1268C111.293 94.735 109.7 98.2819 109.947 99.6822C110.124 100.652 110.447 102.037 110.762 103.383C111.16 104.835 111.456 106.313 111.647 107.807C111.647 108.199 111.316 108.761 110.631 109.884C109.339 112.008 107.177 115.555 108.431 117.871C108.539 118.063 109.416 118.879 116.125 115.37L116.487 116.055C112.47 118.217 110.316 118.879 109.154 118.879Z" fill="#081E7A"/>
<path d="M36.6076 120.917C34.5687 120.917 31.6219 119.148 29.6061 115.847C28.3289 113.754 26.7593 109.769 25.3744 106.253C24.2511 103.414 23.197 100.736 22.6431 99.9898C22.0495 99.2452 21.4069 98.5409 20.7196 97.8817C18.8605 96.063 17.1663 94.083 15.657 91.965C12.6179 87.6179 11.9947 76.1155 11.9947 73.2687C11.9947 71.73 12.7641 69.9834 13.3642 68.4677C13.9028 67.2059 14.4106 66.0133 14.3182 65.2824C14.3104 65.1928 14.3104 65.1027 14.3182 65.0131C12.4794 63.2358 9.88652 60.2044 9.77111 59.0965C9.58361 58.5519 9.3249 58.0345 9.00172 57.5577C8.14769 56.0881 6.8551 53.8569 6.69353 51.4025C6.6089 49.8637 7.01668 46.5784 7.90918 41.6158L8.67857 41.7466C7.80146 46.5477 7.38599 49.8714 7.47062 51.3179C7.60911 53.6261 8.79398 55.6419 9.6557 57.1345C10.0556 57.7081 10.3548 58.3455 10.5405 59.0195C10.6098 59.7889 12.8487 62.5742 14.9953 64.5977C15.0441 64.6443 15.0797 64.7031 15.0986 64.7679C15.1175 64.8327 15.1191 64.9014 15.103 64.967C15.0922 65.041 15.0922 65.1161 15.103 65.1901C15.2107 66.1211 14.6952 67.3444 14.0874 68.7678C13.3762 70.174 12.9326 71.7003 12.7794 73.2687C12.7794 75.8924 13.4027 87.3794 16.3033 91.5188C17.7858 93.6068 19.4546 95.5562 21.289 97.3431C21.9967 98.0282 22.6597 98.7581 23.274 99.5282C23.8895 100.359 24.9128 102.96 26.1054 105.976C27.4749 109.461 29.0368 113.408 30.2755 115.447C32.5837 119.24 36.0767 120.671 37.4539 119.979C39.0927 119.163 41.8318 115.655 41.8318 114.378C41.8318 114.277 42.1088 104.791 45.5403 104.268C48.1254 103.868 52.9111 101.544 53.4804 99.6513C53.8009 98.1895 53.8375 96.6798 53.5881 95.2042C53.5266 94.581 53.465 93.9962 53.465 93.5115C53.465 92.6344 54.5884 91.6496 55.8886 90.4955C56.8581 89.6492 58.0583 88.5874 58.0737 88.0488C58.0741 88.0197 58.0681 87.9908 58.0561 87.9642C58.0441 87.9376 58.0265 87.914 58.0045 87.8949C57.7447 87.5934 57.5057 87.2747 57.2889 86.9409C56.1733 85.3328 53.8343 81.9783 51.3492 81.5551C49.9124 81.3504 48.4603 81.2732 47.0098 81.3243C44.8017 81.3243 42.9012 81.3243 41.7702 80.478C41.047 79.9835 40.4497 79.3264 40.0262 78.5595C39.6026 77.7926 39.3646 76.9371 39.3313 76.0616C39.346 75.7095 39.2849 75.3582 39.1522 75.0317C39.0194 74.7052 38.8181 74.411 38.5619 74.1689C37.7808 73.4768 37.0385 72.7422 36.3383 71.9685C34.4379 69.9911 31.5758 66.9905 30.0831 66.8135C28.9675 66.6827 27.1287 65.444 25.1898 64.136C23.2509 62.8281 20.5042 60.9815 19.7348 61.4047C18.8068 61.8579 17.9098 62.3719 17.0496 62.9435C16.9842 62.9928 16.9045 63.0194 16.8226 63.0194C16.7407 63.0194 16.661 62.9928 16.5956 62.9435L13.395 60.4275C13.3322 60.3788 13.2864 60.3115 13.2642 60.2352C13.2642 60.1659 11.3561 53.6723 10.956 52.5412C10.5559 51.4102 10.4251 41.2388 11.4715 40.2309C12.3024 39.3923 15.2646 37.5765 16.3956 37.5765C17.2265 37.5765 17.2958 38.9153 17.3573 41.4773C17.3262 42.4844 17.414 43.4915 17.6189 44.478C18.2586 44.4596 18.8833 44.2796 19.4347 43.9548C19.7963 41.9544 20.8735 36.3301 21.5198 35.6838C22.4178 35.0505 23.3924 34.5335 24.4204 34.145C25.3673 33.7567 26.283 33.2963 27.1594 32.7678L27.6057 32.4216C35.8382 25.9356 37.6078 25.12 38.1541 25.0738L38.9235 25.0277C40.4623 24.9277 43.3475 24.7584 44.44 24.166C45.6557 23.512 48.7256 18.6956 49.2565 17.7569C49.3719 17.3799 48.4871 14.8871 47.2176 13.5945C46.8175 13.1713 46.4482 12.9636 46.202 13.0328C38.7542 15.0179 38.231 14.5716 38.031 14.4408L38.5157 13.8407C38.8542 13.9407 41.3702 13.5252 46.0019 12.3019C46.6713 12.1249 47.4099 12.5558 48.1947 13.5714C49.1795 14.8486 50.3644 17.4184 49.9258 18.1878C49.9258 18.2416 46.4097 24.0275 44.8017 24.8969C43.5629 25.5586 40.6854 25.7355 38.9696 25.8356L38.2002 25.8894C37.854 25.8894 36.1921 26.6588 28.0596 33.0756L27.6134 33.4218C26.6955 33.998 25.7272 34.4899 24.7205 34.8913C23.7975 35.2354 22.9067 35.6602 22.0583 36.1608C21.7044 36.584 20.8119 40.5848 20.1579 44.2087C20.1483 44.2642 20.1268 44.317 20.095 44.3635C20.0631 44.4099 20.0216 44.449 19.9733 44.478C19.804 44.5703 18.3268 45.3936 17.365 45.1474C16.7034 44.9858 16.6495 43.824 16.5956 41.4312C16.6263 40.3776 16.5333 39.324 16.3187 38.2921C15.4339 38.3921 12.8256 39.9078 12.0254 40.7079C11.3715 41.4773 11.256 51.1179 11.6869 52.2489C12.1178 53.3799 13.7181 58.958 13.9951 59.8736L16.8803 62.1356C17.6959 61.6036 18.5439 61.1231 19.4193 60.6968C20.4965 60.1121 22.4969 61.3508 25.6437 63.4743C27.4287 64.6746 29.2753 65.9133 30.2062 66.0287C31.9681 66.2365 34.7149 69.1063 36.9231 71.4145C37.604 72.1615 38.3231 72.8729 39.0774 73.5457C39.4066 73.8518 39.6678 74.2237 39.8441 74.6372C40.0204 75.0508 40.1078 75.4967 40.1007 75.9462C40.123 76.7193 40.3285 77.4761 40.7004 78.1542C41.0722 78.8324 41.5997 79.4126 42.2396 79.8471C43.1628 80.5549 45.0325 80.5395 47.0098 80.5318C48.5065 80.4805 50.0049 80.5604 51.4877 80.7703C54.2883 81.2628 56.7427 84.7866 57.9198 86.4869C58.1891 86.8639 58.4353 87.2563 58.5353 87.3256C58.6363 87.4164 58.7161 87.5282 58.7693 87.6531C58.8225 87.7781 58.8476 87.9131 58.8431 88.0488C58.8431 88.9259 57.6967 89.9107 56.3964 91.0571C55.4347 91.9112 54.2344 92.9729 54.2344 93.4961C54.2344 94.0193 54.296 94.5117 54.3575 95.1119C54.6141 96.6861 54.5671 98.2948 54.219 99.8513C53.5266 102.16 48.5486 104.568 45.6634 105.006C43.3552 105.36 42.5858 112.477 42.5858 114.362C42.5858 116.039 39.5621 119.748 37.7848 120.656C37.4168 120.83 37.0146 120.919 36.6076 120.917V120.917Z" fill="#081E7A"/>
<path d="M67.2687 177.076C59.3978 177.076 51.5269 175.344 45.5333 171.882C40.0783 168.728 36.8545 164.527 36.4622 160.033V153.994H37.2316V160.033C37.5932 164.227 40.6861 168.228 45.918 171.251C57.6898 178.045 76.84 178.045 88.6117 171.251C93.6205 168.358 96.6827 164.542 97.2443 160.48V151.686H98.0137V160.534C97.4136 164.858 94.2129 168.874 88.9964 171.882C83.0028 175.344 75.1396 177.076 67.2687 177.076Z" fill="#081E7A"/>
<path d="M67.076 168.797C59.1667 168.797 51.265 167.058 45.2406 163.58C36.9696 158.81 34.0074 151.801 37.5467 145.299L38.2237 145.661C34.9307 151.762 37.7775 158.371 45.6484 162.919C57.4817 169.743 76.7242 169.743 88.5498 162.919C94.2049 159.649 97.3209 155.332 97.3209 150.754C97.3209 146.177 94.2434 141.86 88.5498 138.598C88.0574 138.313 87.5573 138.044 87.0495 137.782L87.3957 137.098C87.9189 137.359 88.4344 137.636 88.9345 137.929C94.8358 141.337 98.0903 145.892 98.0903 150.754C98.0903 155.617 94.8358 160.172 88.9345 163.58C83.0333 166.989 74.9854 168.797 67.076 168.797Z" fill="#081E7A"/>
<path d="M67.2379 153.786C66.2318 153.786 65.2312 153.638 64.268 153.347C61.7906 152.616 60.3134 151.2 60.3134 149.569V142.452H61.0827V149.569C61.0827 150.823 62.383 151.985 64.4835 152.608C66.2776 153.147 68.1905 153.147 69.9846 152.608C72.0851 151.985 73.3931 150.823 73.3931 149.569V138.605H74.1625V149.569C74.1625 151.2 72.6852 152.647 70.2078 153.347C69.2446 153.638 68.244 153.786 67.2379 153.786V153.786Z" fill="#081E7A"/>
<path d="M116.087 26.59C114.584 22.5928 112.143 19.0149 108.97 16.157L109.478 15.5723C112.747 18.5239 115.259 22.2182 116.803 26.3438L116.087 26.59Z" fill="#081E7A"/>
<path d="M46.9254 139.167C44.118 139.186 41.3266 138.744 38.6621 137.859L38.9083 137.136C43.2232 138.493 47.8074 138.757 52.2496 137.906L52.3804 138.675C50.5795 138.995 48.7545 139.159 46.9254 139.167V139.167Z" fill="#081E7A"/>
<path d="M46.7875 145.415C42.9554 145.441 39.151 144.765 35.562 143.422L35.8313 142.699C39.334 144.011 43.0472 144.67 46.7875 144.645C53.4966 144.645 60.6366 142.745 68.1151 138.99L68.4613 139.675C60.9059 143.522 53.612 145.415 46.7952 145.415H46.7875Z" fill="#081E7A"/>
<path d="M125.096 38.2764C124.83 35.1402 124.291 32.0331 123.488 28.9898C121.403 21.2959 117.533 14.9407 112.293 10.709L112.778 10.1089C118.164 14.4406 122.103 20.8804 124.227 28.7898C125.044 31.8752 125.59 35.0264 125.858 38.2072L125.096 38.2764Z" fill="#081E7A"/>
<path d="M107.446 17.3569L106.784 16.9722L113.655 5.10818C114.02 4.47442 114.119 3.72151 113.93 3.0147C113.742 2.30789 113.28 1.70493 112.647 1.33814C112.019 0.969704 111.271 0.864855 110.566 1.04651C109.861 1.22818 109.256 1.68157 108.884 2.30758L102.237 13.8485L101.575 13.4638L108.215 1.99213C108.68 1.17733 109.449 0.580291 110.353 0.332157C111.258 0.0840228 112.224 0.205093 113.039 0.66877C113.44 0.901201 113.792 1.21049 114.073 1.57891C114.354 1.94734 114.56 2.36766 114.679 2.81579C114.797 3.26392 114.827 3.73106 114.764 4.19045C114.702 4.64983 114.55 5.09242 114.316 5.49287L107.446 17.3569Z" fill="#081E7A"/>
<path d="M29.2291 148.854C28.6104 148.851 28.0031 148.686 27.4672 148.377C26.659 147.906 26.0701 147.134 25.8293 146.23C25.5885 145.326 25.7155 144.364 26.1823 143.553L33.9455 130.15C34.1773 129.749 34.4858 129.398 34.8533 129.117C35.2209 128.835 35.6402 128.629 36.0875 128.51C36.5348 128.39 37.0012 128.36 37.4601 128.421C37.919 128.482 38.3614 128.633 38.7619 128.865C39.5723 129.336 40.164 130.107 40.4084 131.012C40.5285 131.46 40.5584 131.927 40.4964 132.387C40.4343 132.846 40.2815 133.289 40.0468 133.689L32.3067 147.092C31.9947 147.631 31.5456 148.078 31.0051 148.387C30.4646 148.697 29.8519 148.858 29.2291 148.854V148.854ZM37 129.158C36.7582 129.161 36.5178 129.194 36.2845 129.258C35.935 129.351 35.6074 129.512 35.3208 129.733C35.0342 129.953 34.7943 130.228 34.6149 130.542L26.921 143.938C26.5534 144.57 26.4511 145.323 26.6363 146.03C26.7911 146.606 27.1267 147.116 27.5935 147.486C28.0604 147.855 28.6338 148.066 29.2291 148.085C29.7134 148.084 30.1891 147.956 30.6088 147.714C31.0285 147.473 31.3778 147.126 31.622 146.707L39.3852 133.305C39.6258 132.885 39.7522 132.409 39.7518 131.925C39.7515 131.441 39.6243 130.966 39.3831 130.546C39.1418 130.127 38.7948 129.778 38.3767 129.534C37.9586 129.291 37.484 129.161 37 129.158V129.158Z" fill="#081E7A"/>
<path d="M67.0764 139.444C57.8946 139.464 48.8079 137.586 40.3861 133.928L40.6939 133.22C53.7898 138.9 68.3688 140.203 82.2645 136.936C96.1602 133.669 108.631 126.005 117.823 115.084C127.016 104.164 132.44 90.5683 133.289 76.3189C134.137 62.0695 130.366 47.9265 122.535 35.9916C114.704 24.0566 103.232 14.9667 89.8223 10.0727C76.4128 5.17869 61.7822 4.74174 48.1045 8.82678C34.4268 12.9118 22.4322 21.3008 13.903 32.7472C5.3738 44.1935 0.765281 58.0863 0.762287 72.361C0.79118 83.9806 3.86003 95.3904 9.66392 105.457C15.4678 115.523 23.8047 123.896 33.8463 129.742L33.4616 130.404C19.3805 122.246 8.74413 109.248 3.53307 93.8315C-1.67798 78.4147 -1.10857 61.6295 5.13526 46.6013C11.3791 31.573 22.8718 19.3261 37.4734 12.141C52.075 4.95582 68.7902 3.32212 84.5067 7.54408C100.223 11.766 113.87 21.5559 122.905 35.0908C131.941 48.6256 135.749 64.983 133.622 81.117C131.495 97.2511 123.576 112.062 111.341 122.792C99.1063 133.523 83.3886 139.441 67.1149 139.444H67.0764Z" fill="#081E7A"/>
<defs>
<linearGradient id="paint0_linear_2940_23525" x1="61.0828" y1="137.306" x2="76.5876" y2="150.159" gradientUnits="userSpaceOnUse">
<stop stop-color="#E64C4E"/>
<stop offset="1" stop-color="#EF33F9"/>
</linearGradient>
<linearGradient id="paint1_linear_2940_23525" x1="36.4606" y1="149.785" x2="56.5034" y2="195.235" gradientUnits="userSpaceOnUse">
<stop stop-color="#E64C4E"/>
<stop offset="1" stop-color="#EF33F9"/>
</linearGradient>
<linearGradient id="paint2_linear_2940_23525" x1="79.6399" y1="10.5479" x2="166.373" y2="54.2116" gradientUnits="userSpaceOnUse">
<stop stop-color="#E64C4E"/>
<stop offset="1" stop-color="#EF33F9"/>
</linearGradient>
<linearGradient id="paint3_linear_2940_23525" x1="7.07629" y1="12.6074" x2="90.9239" y2="52.5964" gradientUnits="userSpaceOnUse">
<stop stop-color="#E64C4E"/>
<stop offset="1" stop-color="#EF33F9"/>
</linearGradient>
</defs>
</svg>
