<svg width="32" height="32" viewBox="0 0 32 32" fill="none" xmlns="http://www.w3.org/2000/svg">
<path d="M27.6804 5.30029C27.8679 5.81075 28.1107 6.24581 28.1356 6.80872C28.2122 8.53889 26.89 10.1581 25.0923 10.2389C24.5699 10.2624 24.0407 10.1925 23.5699 9.9667C23.3211 9.84734 23.1021 9.65894 22.8467 9.56161C23.2732 10.2463 23.586 10.8825 23.5284 11.7111C23.4217 13.2466 21.8878 14.6855 20.2967 14.533C19.7486 14.4805 19.1818 14.3112 18.7362 13.9828C18.3385 13.6897 18.0178 13.2912 17.6324 12.9787C16.8634 12.3551 15.982 11.8165 15.0443 11.4796C14.1686 11.165 13.2365 10.9119 12.304 10.8471C8.4844 10.5819 4.73164 12.5942 3.00785 16.0101C2.62567 16.7675 2.30092 17.5836 2.15842 18.4236C1.70875 21.0744 2.20013 23.7815 3.8405 25.9658C4.09124 26.2997 4.37106 26.5983 4.64894 26.9086C4.74355 27.0142 4.81123 27.1443 4.92232 27.2348C6.4621 28.4895 8.91151 28.2451 10.069 26.6069C10.2756 26.3144 10.4298 25.977 10.5043 25.6264C10.6521 24.9303 10.5183 24.22 10.2004 23.59C10.0679 23.3275 9.79177 23.0742 9.71588 22.7981C9.41132 22.5855 9.1597 22.2747 8.95482 21.9684C8.63965 21.4973 8.42864 20.8793 8.42864 20.3092C8.42864 18.0899 11.042 16.5327 12.9891 17.6492C13.3692 17.8672 13.6892 18.1818 13.9406 18.5368C14.2587 18.6087 14.5888 18.9967 14.854 19.1918C15.3712 19.5723 15.9436 19.8813 16.5287 20.1467C18.7683 21.1628 21.4538 21.2205 23.7602 20.3826C24.6119 20.0732 25.4311 19.6457 26.158 19.1064C29.373 16.7209 30.7239 12.5761 29.6215 8.76968C29.3569 7.85618 28.9486 6.99633 28.4162 6.20535C28.207 5.89458 27.9867 5.52373 27.6804 5.30029Z" fill="#5BB974"/>
<path d="M10.8901 10.8494C11.1832 10.8434 11.4695 10.8002 11.7647 10.8131C13.2977 10.8798 14.8297 11.2983 16.1757 12.0336C16.7977 12.3733 17.31 12.8325 17.8869 13.2319C17.8162 13.0463 17.6949 12.8855 17.6159 12.7025C17.4293 12.2706 17.3353 11.8106 17.356 11.341C17.432 9.61779 19.068 8.25366 20.7768 8.43564C21.2866 8.4899 21.8102 8.7032 22.2218 9.00234C22.4304 9.15395 22.595 9.34947 22.7922 9.51349C23.1018 9.7711 23.4722 9.98636 23.8569 10.1112C25.2598 10.5664 26.9176 10.0039 27.6803 8.7316C28.1193 7.99918 28.2239 7.13992 28.0713 6.31125C27.8911 5.33248 27.1536 4.63625 26.4046 4.04231C24.6737 2.66973 22.5554 2 20.3585 2C16.6763 2 13.2762 4.19022 11.7385 7.52142C11.4335 8.18199 11.201 8.88658 11.0655 9.60141C10.987 10.0152 10.9671 10.4371 10.8901 10.8494Z" fill="#1E8E3E"/>
<path d="M13.9785 18.502C14.0509 18.6919 14.1832 18.8484 14.2708 19.0317C14.4898 19.4898 14.6085 19.9999 14.586 20.5075C14.512 22.1713 12.9311 23.5332 11.2763 23.4179C10.6655 23.3753 10.2257 23.0598 9.67786 22.8536C10.0592 23.4275 10.4752 23.9966 10.5467 24.7078C10.727 26.4998 9.1665 27.9541 7.43238 28.0723C6.82721 28.1135 6.22325 27.9737 5.68167 27.7045C5.45609 27.5923 5.26306 27.4199 5.03467 27.3188C5.24 27.6741 5.73 27.9505 6.06226 28.1837C7.17244 28.9629 8.4916 29.4854 9.83009 29.7058C12.9657 30.2222 16.2721 29.2443 18.466 26.9026C19.1988 26.1205 19.7991 25.2252 20.2465 24.2537C20.7232 23.2186 20.9678 22.0915 21.0575 20.9616C20.6184 20.9616 20.1626 20.9965 19.7254 20.9552C18.3399 20.8241 17.0314 20.4377 15.8053 19.7768C15.3752 19.545 14.9744 19.2658 14.5875 18.9692C14.3877 18.8161 14.2068 18.6078 13.9785 18.502Z" fill="#34A853"/>
</svg>
