<svg width="32" height="32" viewBox="0 0 32 32" fill="none" xmlns="http://www.w3.org/2000/svg">
<path d="M19.6931 10.4551C20.8716 8.39701 20.1723 5.76541 18.1311 4.5772C16.0899 3.38899 13.4798 4.09412 12.3013 6.15217L3.48849 21.5424C2.31 23.6005 3.00937 26.2321 5.05056 27.4203C7.09176 28.6085 9.70182 27.9034 10.8803 25.8453L19.6931 10.4551Z" fill="#F8BB2D"/>
<path d="M11.4469 23.6962C11.4469 26.0733 9.53568 28.0003 7.17805 28.0003C4.82042 28.0003 2.90918 26.0733 2.90918 23.6962C2.90918 21.3191 4.82042 19.3921 7.17805 19.3921C9.53568 19.3921 11.4469 21.3191 11.4469 23.6962Z" fill="#3BA757"/>
<path d="M12.3147 10.4551C11.1362 8.39701 11.8355 5.76541 13.8767 4.5772C15.9179 3.38899 18.528 4.09412 19.7065 6.15217L28.5193 21.5424C29.6978 23.6005 28.9984 26.2321 26.9572 27.4203C24.916 28.6085 22.306 27.9034 21.1275 25.8453L12.3147 10.4551Z" fill="#4689F2"/>
</svg>
