<svg width="235" height="183" viewBox="0 0 235 183" fill="none" xmlns="http://www.w3.org/2000/svg">
<path opacity="0.08" fill-rule="evenodd" clip-rule="evenodd" d="M81.4981 182.064L1.55625 135.743C-0.747373 134.416 -0.462756 132.082 2.20553 130.541L144.514 48.2676C147.182 46.7354 151.203 46.5662 153.506 47.9023L233.439 94.2947C235.752 95.6309 235.458 97.9648 232.799 99.4969L90.4903 181.77C87.8309 183.267 83.8018 183.436 81.4981 182.064Z" fill="black"/>
<path d="M223.981 91.9683V85.5348C224.035 85.0722 223.973 84.6036 223.8 84.1714C223.627 83.7392 223.349 83.357 222.992 83.0596L207.836 74.3029L177.578 56.7894L176.954 56.977L181.955 41.9208C182.279 41.1763 182.449 40.3739 182.455 39.5618C182.455 37.0778 180.903 34.7546 178.184 33.1819L139.626 10.8433C136.158 8.83282 131.264 8.26989 127.002 9.16343C126.948 8.3541 126.758 7.55972 126.441 6.81341C125.891 5.88322 124.996 5.20941 123.951 4.93974C122.907 4.67006 121.798 4.82651 120.869 5.3748L116.714 7.83205L119.728 5.91986C120.125 5.1349 120.259 4.24191 120.108 3.37457C119.957 2.50724 119.53 1.71223 118.89 1.10857C118.251 0.504904 117.434 0.125067 116.561 0.0259222C115.688 -0.0732224 114.807 0.113659 114.049 0.558589L98.465 9.78891C97.6548 10.2672 97.0347 11.0117 96.7097 11.896C96.3847 12.7803 96.3749 13.7501 96.682 14.6409L61.0749 46.5494L47.5238 54.2339C44.8047 55.7976 43.2446 58.1297 43.2446 60.6138C43.2534 61.6054 43.5012 62.5802 43.9667 63.4552L55.0126 93.8983L54.1211 94.1664L12.4962 118.239C11.9741 118.468 11.5146 118.82 11.1563 119.265C10.7979 119.71 10.5512 120.234 10.4368 120.794L10 120.866V127.933C10.0175 128.386 10.1603 128.824 10.4122 129.2C10.6641 129.575 11.0152 129.873 11.4264 130.06L82.4356 171.163C82.9472 171.457 83.5003 171.671 84.0759 171.798C85.4629 172.082 86.8943 172.067 88.275 171.753C89.1349 171.579 89.9642 171.278 90.7356 170.859L221.922 94.908C223.42 94.0502 224.088 92.969 223.981 91.9683ZM98.2778 16.9551C98.8795 17.2551 99.5469 17.3985 100.218 17.3719C100.89 17.3454 101.544 17.1498 102.12 16.8032L103.449 15.9633C103.049 16.5923 102.83 17.3196 102.816 18.0652C102.802 18.8109 102.993 19.546 103.368 20.1898C103.694 20.7466 104.15 21.2157 104.697 21.5569L73.244 39.4278L98.2778 16.9551ZM74.3495 80.3343H59.3453V58.1476H74.3495V80.3343ZM91.5914 72.2924L81.4103 78.029L80.2959 44.5925H95.4517L91.5914 72.2924ZM113.772 59.336L103.395 65.4479L102.735 32.3867H120.566L113.772 59.336Z" fill="white"/>
<path d="M175.63 37.9122C175.63 37.9122 137.296 13.3863 130.152 14.0118C124.124 14.5389 51.7593 57.1487 51.7593 57.1487C49.2501 58.614 48 59.4092 48 61.7054C48 62.5989 86.8436 86.419 94.0319 86.9908C100.658 87.509 134.465 65.9852 134.465 65.9852L161.254 50.4834L176.166 42.049C176.461 41.3253 178.166 39.3686 175.63 37.9122ZM61.5372 69.9254L61.2604 67.6917C61.1439 66.7405 61.3095 65.7759 61.7366 64.9181C62.1636 64.0602 62.8334 63.3469 63.6624 62.867L67.3593 60.7316C67.598 60.5938 67.8672 60.5173 68.1426 60.5089C68.4181 60.5005 68.6914 60.5605 68.9381 60.6835C69.1848 60.8064 69.3972 60.9886 69.5564 61.2137C69.7157 61.4388 69.8167 61.6998 69.8506 61.9735L71.2168 75.5007L61.5372 69.9254ZM91.8084 77.6004C91.808 78.4831 91.5749 79.3501 91.1329 80.1141C90.6908 80.878 90.0552 81.5118 89.2903 81.9516L85.263 83.6492L83.245 82.4609L82.8788 53.968C82.8779 53.1101 83.1028 52.267 83.5307 51.5236C83.9586 50.7802 84.5745 50.1626 85.3166 49.7329L89.2992 47.4099C89.5525 47.2625 89.8402 47.1844 90.1332 47.1834C90.4263 47.1825 90.7144 47.2587 90.9687 47.4045C91.223 47.5503 91.4345 47.7604 91.5818 48.0139C91.7292 48.2673 91.8074 48.5551 91.8084 48.8483V77.6004ZM109.016 70.2292L105.444 72.3199C105.172 72.4878 104.858 72.5742 104.539 72.5689C104.22 72.5636 103.909 72.4668 103.643 72.29C103.377 72.1132 103.167 71.8638 103.038 71.5714C102.91 71.279 102.867 70.9558 102.917 70.6402L107.56 38.8504L109.98 69.5412C109.69 69.8113 109.366 70.0426 109.016 70.2292ZM115.909 35.7947L112.293 60.6333L110.507 35.8483L113.489 34.0613C113.763 33.9194 114.07 33.8559 114.377 33.8779C114.685 33.8999 114.98 34.0065 115.23 34.1859C115.481 34.3653 115.677 34.6105 115.797 34.8945C115.916 35.1784 115.955 35.4899 115.909 35.7947Z" fill="url(#paint0_linear_3156_19045)"/>
<path d="M98.1379 13L62.5113 45.2594C62.2247 45.5231 62.0449 45.8868 62.0073 46.2791C61.9698 46.6714 62.0772 47.0639 62.3083 47.3794L62.3878 47.4696C62.5207 47.6242 62.6822 47.7504 62.863 47.8409C63.0438 47.9314 63.2403 47.9845 63.4413 47.9971C63.6422 48.0097 63.8436 47.9815 64.0339 47.9142C64.2242 47.8469 64.3995 47.7417 64.5499 47.6049L100 15.4988L98.1379 13Z" fill="#FFECFA"/>
<path fill-rule="evenodd" clip-rule="evenodd" d="M10 120.809V127.884C10.0194 128.338 10.1638 128.777 10.4173 129.153C10.6708 129.529 11.0234 129.827 11.4357 130.013L82.4616 171.162C82.9694 171.458 83.52 171.672 84.0934 171.797C85.4837 172.082 86.9184 172.067 88.3024 171.753C89.1591 171.577 89.9854 171.275 90.7546 170.858L221.981 94.8221C223.426 93.9812 224.103 92.8988 223.987 91.8969V85L223.158 86.9501L91.1827 163.773C88.7215 165.196 85.0119 165.348 82.8807 164.113L11.4178 122.812L10 120.809Z" fill="url(#paint1_linear_3156_19045)"/>
<path d="M177.229 45.9856L102.345 88.9676C99.6898 90.3299 96.7446 91.0407 93.756 91.0407C90.7674 91.0407 87.8222 90.3299 85.1667 88.9676L46.6105 66.8256C45.0782 66.0005 43.8229 64.7472 43 63.2209V63.3183L60.3926 110.906C61.375 113.6 63.2856 115.863 65.786 117.292L92.6105 132.685C94.3324 133.549 96.2349 134 98.1643 134C100.094 134 101.996 133.549 103.718 132.685L157.741 101.686C160.387 100.171 162.368 97.7297 163.295 94.8396L181 42C180.217 43.7034 178.892 45.1038 177.229 45.9856Z" fill="#FFECFA"/>
<path d="M86.355 164.998C85.0279 165.03 83.7143 164.726 82.5386 164.112L11.6814 123.382C11.208 123.165 10.802 122.825 10.5061 122.398C10.2103 121.971 10.0354 121.473 10 120.956C10 119.822 10.8184 118.707 12.2507 117.883L53.7598 94.0293L54.2046 94.7996L12.7222 118.653C11.5746 119.309 10.943 120.15 10.943 120.956C10.9725 121.319 11.1006 121.667 11.3137 121.964C11.5269 122.26 11.8169 122.493 12.1528 122.638L83.0101 163.368C85.0028 164.511 88.5167 164.36 90.8386 163.023L221.727 87.7869C222.104 87.5636 222.426 87.2564 222.665 86.8894C222.904 86.5223 223.055 86.1052 223.105 85.6707C223.125 85.31 223.06 84.9498 222.917 84.6181C222.773 84.2863 222.555 83.992 222.278 83.7581L177.015 57.7615L177.46 57L222.767 83.0143L222.839 83.0675C223.225 83.3903 223.532 83.7984 223.732 84.2595C223.933 84.7207 224.023 85.222 223.995 85.7238C223.93 86.2926 223.737 86.8393 223.429 87.3226C223.12 87.8058 222.706 88.2129 222.216 88.513L91.2745 163.776C89.7668 164.595 88.0729 165.016 86.355 164.998Z" fill="#081E7A"/>
<path d="M85.569 172C84.8758 172.004 84.1842 171.93 83.508 171.777C82.8822 171.648 82.2802 171.423 81.7236 171.109L10.6595 130.164C10.1774 129.941 9.76746 129.587 9.47584 129.144C9.18422 128.7 9.02251 128.184 9.00892 127.654H9.06245C9 127.174 9 126.186 9 124.138V120.578H9.8922C9.8922 123.248 9.8922 127.334 9.8922 127.592C9.9028 127.972 10.0217 128.341 10.235 128.657C10.4483 128.972 10.7472 129.22 11.0967 129.372L82.1608 170.317C82.6344 170.585 83.1457 170.78 83.6776 170.896C85.0012 171.176 86.3689 171.176 87.6925 170.896C88.5089 170.717 89.2938 170.417 90.0211 170.006L221.309 94.3462C222.531 93.643 223.201 92.7173 223.094 91.8628V85H223.986V91.845C224.12 93.0199 223.308 94.2483 221.755 95.1473L90.4583 170.807C89.6475 171.254 88.7759 171.58 87.8709 171.777C87.1136 171.931 86.342 172.006 85.569 172Z" fill="#081E7A"/>
<path d="M196.065 76.9965C192.753 77.06 189.479 76.2646 186.557 74.6861L173 66.7791L173.443 66L187.001 73.9071C190.935 76.2085 196.934 76.7547 201.914 75.2682L206.743 73.8265L207 74.722L202.162 76.1637C200.179 76.7334 198.126 77.0138 196.065 76.9965Z" fill="#081E7A"/>
<path d="M175.513 62.2432L175.068 63.0142L188.954 71.0308L189.399 70.2598L175.513 62.2432Z" fill="#081E7A"/>
<path d="M109 22.218L109.131 24L125 15.5657L123.607 14L109 22.218Z" fill="white"/>
<path d="M177.756 33.3785L139.433 11.0869C135.986 9.08062 131.122 8.51887 126.886 9.41053L126 11.6575L127.861 14.172C130.949 13.4963 134.174 13.9086 136.996 15.3401L175.319 37.6317C176.462 38.2915 177.144 39.094 177.144 39.7717C177.144 40.4494 176.462 41.2519 175.319 41.9206L157.757 52.0767L160.646 56L177.756 46.1114C180.458 44.551 182 42.2238 182 39.745C182 37.2661 180.414 34.9478 177.756 33.3785Z" fill="white"/>
<path d="M100.941 84.7045C99.017 85.6535 96.8978 86.1474 94.7493 86.1474C92.6008 86.1474 90.4815 85.6535 88.5577 84.7045L49.748 62.4458C48.5994 61.7869 47.9533 60.9856 47.9533 60.309C47.9533 59.6323 48.6442 58.831 49.748 58.1721L106.854 25.4607L106.657 22.2198L104.808 21L47.2982 53.9429C44.5614 55.5011 43 57.8249 43 60.3C43 62.7752 44.5614 65.0901 47.2982 66.6571L86.1079 88.9159C88.7809 90.2854 91.7455 91 94.7538 91C97.762 91 100.727 90.2854 103.4 88.9159L111 84.6333L110.668 79.1131L100.941 84.7045Z" fill="white"/>
<path d="M114 77.6365L114.364 83L158 57.9586L155.174 54L114 77.6365Z" fill="white"/>
<path d="M99 17L75 38L99 17Z" fill="#67DAFF"/>
<path d="M98.2593 17.0601L74.6572 38.0371L75.2486 38.7025L98.8508 17.7255L98.2593 17.0601Z" fill="#081E7A"/>
<path d="M63 45L96 15L63 45Z" fill="#67DAFF"/>
<path d="M96.1292 14.8244L62.4395 44.7671L63.0309 45.4325L96.7206 15.4898L96.1292 14.8244Z" fill="#081E7A"/>
<path d="M104 66L109 62L104 66Z" fill="#67DAFF"/>
<path d="M108.968 61.9764L103.283 65.252L103.728 66.0233L109.413 62.7477L108.968 61.9764Z" fill="#081E7A"/>
<path d="M83 77L92 72L83 77Z" fill="#67DAFF"/>
<path d="M91.4902 72.0606L82.8887 77.0146L83.333 77.7861L91.9345 72.832L91.4902 72.0606Z" fill="#081E7A"/>
<path d="M98.5947 134.997C96.5845 135.038 94.5972 134.568 92.8204 133.633L65.9899 118.233C63.4025 116.745 61.4246 114.399 60.4028 111.606L43 64.0266L43.8376 63.7253L61.2405 111.305C62.1771 113.92 64.0185 116.118 66.4355 117.507L93.2482 132.862C94.905 133.698 96.7367 134.133 98.5947 134.133C100.453 134.133 102.284 133.698 103.941 132.862L157.941 101.851C160.49 100.389 162.397 98.0308 163.287 95.2412L181.109 42L182 42.2835L164.178 95.5159C163.217 98.5075 161.167 101.035 158.431 102.604L104.431 133.615C102.637 134.566 100.627 135.042 98.5947 134.997Z" fill="#081E7A"/>
<path d="M151.034 96.9632L155.555 69.8383C155.674 69.1167 155.946 68.4309 156.353 67.8301C156.76 67.2293 157.292 66.7284 157.909 66.3633L161.507 64.2291C161.78 64.067 162.092 63.9881 162.407 64.0015C162.722 64.0148 163.027 64.1199 163.286 64.3045C163.545 64.4891 163.748 64.7456 163.87 65.0439C163.992 65.3423 164.029 65.6702 163.977 65.9894L159.473 93.1142C159.351 93.8358 159.076 94.5211 158.668 95.1216C158.26 95.7221 157.728 96.2231 157.11 96.5892L153.557 98.7235C153.283 98.9067 152.964 99.0029 152.638 98.9999C152.311 98.9969 151.993 98.8949 151.724 98.7067C151.454 98.5184 151.244 98.2524 151.122 97.9422C150.999 97.6319 150.968 97.2913 151.034 96.9632Z" fill="url(#paint2_linear_3156_19045)"/>
<path d="M153.122 98.9999C152.813 99.0004 152.508 98.9338 152.228 98.8046C151.948 98.6755 151.699 98.487 151.5 98.2524C151.301 98.0178 151.156 97.7426 151.074 97.4463C150.993 97.1499 150.978 96.8395 151.03 96.5367L155.562 70.0911C155.696 69.3236 155.998 68.5947 156.446 67.9557C156.894 67.3166 157.477 66.7828 158.154 66.3919L161.774 64.3111C162.123 64.0981 162.527 63.9903 162.936 64.0007C163.345 64.0111 163.743 64.1393 164.08 64.3698C164.418 64.6003 164.681 64.9232 164.838 65.2995C164.995 65.6757 165.039 66.0891 164.965 66.4897L160.389 92.9176C160.26 93.6869 159.96 94.418 159.512 95.0578C159.063 95.6976 158.477 96.2301 157.797 96.6167L154.221 98.6975C153.891 98.8995 153.51 99.0043 153.122 98.9999ZM151.915 96.6879C151.873 96.9156 151.898 97.1508 151.989 97.3642C152.079 97.5776 152.231 97.7599 152.425 97.8883C152.612 98.0254 152.836 98.1045 153.068 98.1156C153.3 98.1266 153.53 98.0692 153.73 97.9506L157.305 95.8698C157.87 95.544 158.357 95.0989 158.731 94.5658C159.104 94.0327 159.356 93.4245 159.468 92.7842L164.071 66.3385C164.104 66.1154 164.075 65.8874 163.985 65.68C163.896 65.4726 163.751 65.2939 163.565 65.1639C163.38 65.0339 163.162 64.9576 162.936 64.9437C162.709 64.9297 162.484 64.9785 162.283 65.0847L158.601 67.1299C158.038 67.4558 157.554 67.8999 157.182 68.4314C156.81 68.9628 156.559 69.5687 156.447 70.2067L151.915 96.6879Z" fill="#081E7A"/>
<path d="M133.76 79.5446L138.22 77.2136C138.504 77.0708 138.824 76.9972 139.148 77.0001C139.473 77.0029 139.791 77.0821 140.072 77.2298C140.352 77.3775 140.585 77.5886 140.748 77.8424C140.911 78.0962 140.998 78.3839 141 78.6773V103.172C141.001 104.039 140.748 104.891 140.267 105.642C139.786 106.392 139.093 107.015 138.26 107.445L133.8 109.776C133.516 109.923 133.194 110.001 132.866 110C132.539 109.999 132.217 109.921 131.934 109.773C131.65 109.625 131.415 109.412 131.251 109.155C131.087 108.899 131 108.609 131 108.313V83.8183C131.003 82.9494 131.259 82.0966 131.744 81.3462C132.229 80.5958 132.924 79.9743 133.76 79.5446Z" fill="url(#paint3_linear_3156_19045)"/>
<path d="M133.14 110C132.764 109.997 132.396 109.9 132.07 109.719C131.742 109.536 131.471 109.272 131.283 108.954C131.095 108.636 130.997 108.275 131 107.909V84.0771C131.004 83.1555 131.258 82.251 131.735 81.4539C132.212 80.6568 132.896 79.9948 133.72 79.534L137.772 77.2756C138.096 77.0963 138.462 77.0013 138.835 77C139.208 76.9987 139.575 77.091 139.9 77.268C140.225 77.4451 140.497 77.7007 140.69 78.01C140.883 78.3194 140.99 78.6718 141 79.0331V102.9C140.996 103.821 140.743 104.726 140.265 105.523C139.788 106.32 139.104 106.982 138.28 107.443L134.237 109.71C133.904 109.899 133.525 109.999 133.14 110ZM134.146 80.2985C133.464 80.6841 132.898 81.2355 132.504 81.8983C132.11 82.561 131.901 83.312 131.898 84.0771V107.909C131.897 108.12 131.955 108.327 132.063 108.51C132.172 108.692 132.328 108.844 132.516 108.95C132.704 109.056 132.918 109.112 133.136 109.113C133.353 109.114 133.567 109.059 133.756 108.954L137.8 106.687C138.483 106.303 139.051 105.752 139.447 105.089C139.843 104.426 140.053 103.674 140.057 102.909V79.077C140.058 78.8646 140.001 78.6557 139.891 78.4719C139.781 78.2881 139.622 78.136 139.432 78.0313C139.244 77.923 139.029 77.8659 138.811 77.8659C138.592 77.8659 138.377 77.923 138.19 78.0313L134.146 80.2985Z" fill="#081E7A"/>
<path d="M111.606 92.4321L115.506 90.2304C115.758 90.0883 116.042 90.0095 116.332 90.0008C116.623 89.9921 116.911 90.054 117.171 90.1808C117.432 90.3076 117.656 90.4954 117.824 90.7275C117.992 90.9596 118.098 91.2287 118.134 91.5109L120.96 113.62C121.086 114.601 120.912 115.597 120.461 116.482C120.011 117.367 119.303 118.102 118.426 118.595L114.488 120.769C114.237 120.911 113.954 120.99 113.664 120.999C113.374 121.008 113.086 120.947 112.826 120.821C112.566 120.696 112.342 120.509 112.173 120.278C112.005 120.047 111.897 119.779 111.86 119.498L109.034 97.3883C108.918 96.4066 109.101 95.4133 109.558 94.5321C110.015 93.6509 110.727 92.9206 111.606 92.4321Z" fill="url(#paint4_linear_3156_19045)"/>
<path d="M113.676 121C113.372 120.99 113.074 120.914 112.801 120.776C112.494 120.621 112.229 120.39 112.03 120.105C111.832 119.819 111.706 119.488 111.663 119.141L109.037 97.6952C108.915 96.6559 109.094 95.6029 109.551 94.6661C110.009 93.7292 110.724 92.9495 111.611 92.4231L115.234 90.2875C115.53 90.1104 115.864 90.0119 116.207 90.001C116.549 89.9901 116.889 90.0671 117.195 90.225C117.502 90.3803 117.767 90.611 117.965 90.8963C118.164 91.1817 118.29 91.5128 118.332 91.8602L120.958 113.306C121.088 114.345 120.914 115.4 120.457 116.338C120.001 117.276 119.283 118.056 118.394 118.578L114.77 120.714C114.438 120.909 114.06 121.008 113.676 121ZM116.241 90.9219C116.032 90.9234 115.827 90.9787 115.645 91.0828L112.022 93.2184C111.286 93.6579 110.692 94.3072 110.313 95.0866C109.933 95.8661 109.785 96.7417 109.886 97.6059L112.512 119.052C112.539 119.246 112.612 119.431 112.725 119.59C112.837 119.749 112.986 119.879 113.158 119.966C113.33 120.054 113.521 120.098 113.713 120.095C113.905 120.091 114.094 120.04 114.263 119.945L117.886 117.809C118.622 117.37 119.216 116.721 119.595 115.941C119.975 115.162 120.123 114.286 120.022 113.422L117.396 91.9764C117.374 91.7758 117.304 91.5839 117.19 91.4185C117.077 91.253 116.925 91.1191 116.748 91.0292C116.588 90.9596 116.415 90.9231 116.241 90.9219Z" fill="#081E7A"/>
<path d="M85.3915 84L85.0471 83.1632L89.0119 81.4625C89.6906 81.0559 90.2535 80.4761 90.6453 79.7803C91.037 79.0844 91.2441 78.2965 91.246 77.4943V48.5651C91.2428 48.3496 91.1846 48.1386 91.0772 47.953C90.9697 47.7673 90.8167 47.6133 90.6332 47.5062C90.4497 47.3991 90.242 47.3425 90.0305 47.342C89.8189 47.3415 89.611 47.397 89.4269 47.5033L85.4798 49.8248C84.8171 50.2189 84.2666 50.7821 83.8826 51.459C83.4985 52.1359 83.2943 52.9032 83.2899 53.685L83.6519 82.3803H82.7689L82.4069 53.685C82.4109 52.7413 82.6576 51.8152 83.1224 50.9989C83.5873 50.1827 84.2539 49.5048 85.0559 49.033L89.0119 46.7204C89.3304 46.5351 89.691 46.438 90.0578 46.4386C90.4246 46.4393 90.7848 46.5378 91.1027 46.7243C91.4205 46.9109 91.6849 47.1789 91.8696 47.5018C92.0543 47.8247 92.1529 48.1913 92.1555 48.5651V77.4943C92.1528 78.4604 91.902 79.409 91.4279 80.2456C90.9539 81.0823 90.2731 81.7779 89.4534 82.2633L85.3915 84ZM70.8569 75.4247L69.5324 61.7924C69.503 61.5976 69.4282 61.4129 69.3143 61.2536C69.2004 61.0944 69.0506 60.9653 68.8777 60.8771C68.7047 60.789 68.5135 60.7444 68.3201 60.7471C68.1268 60.7498 67.9369 60.7997 67.7663 60.8926L64.1106 63.0432C63.3665 63.4845 62.7653 64.1378 62.381 64.9228C61.9966 65.7078 61.8458 66.5901 61.9472 67.4613L62.2209 69.7108L61.3379 69.8188L61.0376 67.5963C60.9146 66.5497 61.0948 65.4893 61.5561 64.5459C62.0175 63.6026 62.7397 62.8174 63.6337 62.2873L67.2895 60.1367C67.5892 59.9622 67.9267 59.8659 68.2718 59.8565C68.6169 59.8471 68.959 59.9248 69.2674 60.0828C69.5771 60.2362 69.8437 60.4667 70.0428 60.7529C70.2419 61.0392 70.367 61.3719 70.4065 61.7204L71.7399 75.3347L70.8569 75.4247ZM104.297 72.8512C103.995 72.8463 103.697 72.775 103.424 72.6422C103.152 72.5094 102.91 72.3181 102.716 72.0815C102.523 71.8449 102.382 71.5685 102.302 71.2712C102.223 70.9739 102.208 70.6626 102.257 70.3587L106.849 38.3611L107.732 38.4871L103.14 70.5027C103.099 70.7335 103.124 70.9716 103.211 71.1886C103.299 71.4055 103.446 71.5922 103.635 71.7264C103.822 71.8646 104.045 71.9434 104.276 71.953C104.507 71.9626 104.735 71.9026 104.933 71.7804L108.465 69.6748C108.789 69.4963 109.086 69.2722 109.348 69.009L109.966 69.6569C109.65 69.9638 109.301 70.2326 108.924 70.4577L105.392 72.5633C105.059 72.7581 104.681 72.8576 104.297 72.8512ZM112.377 60.4787L111.494 60.3437L115.079 35.3377C115.122 35.1059 115.097 34.8664 115.007 34.6489C114.918 34.4314 114.768 34.2454 114.576 34.1139C114.39 33.9766 114.168 33.8982 113.939 33.8886C113.71 33.879 113.483 33.9386 113.286 34.0599L110.346 35.8596L109.895 35.0857L112.836 33.2861C113.182 33.083 113.577 32.9845 113.976 33.002C114.375 33.0195 114.76 33.1524 115.088 33.3851C115.418 33.6126 115.676 33.9322 115.833 34.3055C115.99 34.6789 116.037 35.0903 115.971 35.4907L112.377 60.4787Z" fill="#081E7A"/>
<path d="M94.4769 91.9973C91.4291 92.0508 88.4188 91.3175 85.7352 89.8676L47.4682 67.684C44.628 66.0335 43 63.5844 43 60.9579C43 58.3314 44.628 55.8734 47.4682 54.2318L104.174 21.4L104.617 22.172L47.9106 55.0038C45.3535 56.4768 43.8848 58.6508 43.8848 60.9579C43.8848 63.265 45.3535 65.3946 47.9106 66.912L86.1599 89.0868C88.7289 90.4102 91.5755 91.1005 94.4636 91.1005C97.3518 91.1005 100.198 90.4102 102.767 89.0868L110.261 84.8186L110.704 85.5906L103.201 89.8588C100.525 91.3121 97.5199 92.0487 94.4769 91.9973ZM94.4769 87.1435C92.2776 87.1899 90.1019 86.6803 88.1507 85.6616L49.8836 63.478C48.5919 62.7237 47.8486 61.8009 47.8486 60.9579C47.8486 60.1149 48.5919 59.1832 49.8836 58.4378L106.191 25.8367L106.634 26.6087L50.3083 59.2365C49.1316 59.9197 48.7157 60.603 48.7157 61.0111C48.7157 61.4193 49.1316 62.076 50.3083 62.7858L88.5754 84.9695C90.4048 85.8769 92.4182 86.349 94.4592 86.349C96.5002 86.349 98.5136 85.8769 100.343 84.9695L109.97 79.326L110.412 80.098L100.785 85.6705C98.839 86.6843 96.6696 87.1908 94.4769 87.1435ZM114.208 83.4965L113.765 82.7245L157.208 57.5682L157.651 58.3402L114.208 83.4965ZM113.836 78.1014L113.394 77.3294L154.395 53.5929L154.837 54.3649L113.836 78.1014ZM160.535 56.672L160.093 55.9L177.134 46.0327C179.691 44.5597 181.151 42.3857 181.151 40.0786C181.151 37.7715 179.691 35.6419 177.134 34.1246L138.867 11.9409C135.109 9.98223 130.784 9.4106 126.648 10.3259L126.471 9.43859C130.819 8.48635 135.363 9.0956 139.309 11.16L177.576 33.3437C180.407 34.9853 182 37.4344 182 40.0609C182 42.6874 180.372 45.1454 177.576 46.787L160.535 56.672ZM157.651 52.7056L157.208 51.9336L174.709 41.8001C175.895 41.1168 176.311 40.4336 176.311 40.0254C176.311 39.6172 175.895 38.9606 174.709 38.2507L136.442 16.0671C133.706 14.694 130.58 14.3116 127.594 14.9845L127.409 14.0972C130.627 13.4353 133.974 13.9086 136.885 15.437L175.152 37.6207C176.452 38.3661 177.196 39.2889 177.196 40.1319C177.196 40.9749 176.452 41.9066 175.152 42.652L157.651 52.7056ZM109.872 24.7098L109.43 23.9378L124.029 15.4903L124.471 16.2623L109.872 24.7098Z" fill="#081E7A"/>
<path d="M109.103 22L113.996 87.3335C114.026 87.7443 113.891 88.1502 113.621 88.4624C113.352 88.7747 112.969 88.9679 112.557 89H112.44C112.047 89.0011 111.668 88.8539 111.379 88.5879C111.09 88.322 110.913 87.957 110.884 87.5665L106 22.4569L109.103 22Z" fill="#FFECFA"/>
<path d="M112.966 88.9733C112.447 88.9719 111.948 88.7769 111.572 88.4281C111.195 88.0793 110.968 87.603 110.938 87.0964L106 22.4626L106.909 22.3914L111.847 87.0964C111.868 87.3725 111.995 87.6306 112.203 87.8188C112.41 88.007 112.683 88.1112 112.966 88.1105C113.12 88.1084 113.272 88.0756 113.413 88.0143C113.554 87.9529 113.68 87.8643 113.785 87.7536C113.889 87.643 113.97 87.5127 114.021 87.3706C114.073 87.2286 114.094 87.0778 114.085 86.9274L109.137 22.0712L110.047 22L114.994 86.8651C115.015 87.1266 114.982 87.3895 114.898 87.6384C114.813 87.8874 114.679 88.1174 114.503 88.3151C114.152 88.7118 113.655 88.9578 113.121 89L112.966 88.9733Z" fill="#081E7A"/>
<path d="M125.51 12L161.717 57.56C161.946 57.8841 162.041 58.2833 161.984 58.6754C161.926 59.0676 161.72 59.4228 161.407 59.668C161.095 59.9132 160.7 60.0297 160.304 59.9935C159.908 59.9574 159.541 59.7713 159.279 59.4735L123 13.8245L125.51 12Z" fill="#FFECFA"/>
<path d="M161 61C160.696 61.0011 160.397 60.9333 160.124 60.8016C159.85 60.6699 159.611 60.4779 159.423 60.2401L123 14.387L123.708 13.8327L160.122 59.6858C160.212 59.8005 160.324 59.8963 160.451 59.9675C160.578 60.0387 160.719 60.0839 160.864 60.1005C161.009 60.1172 161.156 60.1049 161.296 60.0644C161.436 60.0239 161.567 59.956 161.681 59.8646C161.797 59.7779 161.893 59.6679 161.964 59.5416C162.035 59.4153 162.079 59.2757 162.093 59.1315C162.112 58.9872 162.101 58.8406 162.061 58.7007C162.021 58.5607 161.952 58.4305 161.86 58.318L125.517 12.5543L126.216 12L162.567 57.7637C162.731 57.9695 162.852 58.2055 162.924 58.4582C162.996 58.7108 163.017 58.9752 162.986 59.236C162.955 59.4969 162.873 59.7491 162.745 59.9782C162.616 60.2073 162.443 60.4087 162.236 60.5709C161.883 60.8472 161.448 60.9982 161 61Z" fill="#081E7A"/>
<path d="M119.555 6.13182C119.957 5.31876 120.091 4.39379 119.939 3.4954C119.787 2.59701 119.355 1.77353 118.71 1.14826C118.064 0.522982 117.238 0.129545 116.357 0.0268504C115.476 -0.0758441 114.586 0.117729 113.82 0.578589L98.0745 10.1116C97.601 10.3887 97.186 10.7598 96.8534 11.2035C96.5209 11.6471 96.2776 12.1543 96.1377 12.6956C95.9978 13.2368 95.9641 13.8013 96.0385 14.3561C96.1129 14.9109 96.294 15.445 96.5712 15.9271C96.8484 16.4092 97.2162 16.8298 97.6531 17.1643C98.09 17.4989 98.5872 17.7407 99.1159 17.8756C99.6447 18.0106 100.194 18.036 100.733 17.9504C101.271 17.8648 101.787 17.67 102.252 17.3771L119.555 6.13182Z" fill="url(#paint5_linear_3156_19045)"/>
<path d="M100.416 17.9999C99.4475 18.0051 98.5043 17.6854 97.7332 17.0906C96.9622 16.4957 96.4067 15.6592 96.1532 14.711C95.8996 13.7629 95.9622 12.7564 96.3312 11.848C96.7003 10.9397 97.355 10.1806 98.1936 9.6887L113.37 0.620284C114.191 0.128073 115.148 -0.0799345 116.096 0.0276746C117.043 0.135284 117.931 0.552665 118.624 1.21679C119.317 1.88091 119.778 2.75571 119.938 3.70908C120.098 4.66244 119.947 5.64261 119.509 6.50154L118.736 6.09655C118.978 5.61921 119.112 5.09268 119.126 4.55604C119.14 4.0194 119.034 3.48644 118.818 2.99673C118.601 2.50701 118.278 2.07311 117.873 1.72724C117.468 1.38138 116.992 1.13242 116.479 0.998868C116.031 0.880253 115.565 0.853419 115.108 0.919942C114.65 0.986464 114.21 1.145 113.813 1.38626L98.6277 10.4635C98.2272 10.6993 97.8772 11.0139 97.5984 11.3889C97.3196 11.7639 97.1175 12.1916 97.0041 12.6469C96.8871 13.1016 96.8598 13.5752 96.9239 14.0406C96.988 14.506 97.1421 14.9539 97.3775 15.3587C97.6909 15.8933 98.1355 16.3365 98.6681 16.6451C99.2007 16.9537 99.803 17.1171 100.416 17.1195C101.046 17.1198 101.665 16.9464 102.205 16.6177L102.648 17.3836C101.97 17.7843 101.201 17.9969 100.416 17.9999Z" fill="#081E7A"/>
<path d="M107.122 23C107.856 23.0004 108.576 22.7989 109.207 22.4165L124.975 12.8671C125.916 12.2972 126.597 11.3671 126.87 10.2815C127.142 9.19584 126.983 8.04358 126.428 7.07818C126.153 6.60016 125.789 6.1824 125.357 5.84876C124.924 5.51511 124.432 5.27212 123.908 5.13364C122.851 4.85399 121.728 5.01705 120.787 5.58696L105.028 15.1363C104.25 15.6067 103.643 16.3269 103.303 17.186C102.963 18.0451 102.907 18.9952 103.146 19.8897C103.384 20.7843 103.902 21.5735 104.621 22.1356C105.34 22.6977 106.219 23.0015 107.122 23Z" fill="url(#paint6_linear_3156_19045)"/>
<path d="M107.409 23C106.443 23.0023 105.503 22.6824 104.735 22.0895C103.966 21.4967 103.411 20.6638 103.156 19.7197C102.901 18.7755 102.96 17.7724 103.323 16.8654C103.686 15.9583 104.334 15.1977 105.166 14.7009L120.368 5.61763C121.117 5.17004 121.981 4.95756 122.849 5.00703C123.717 5.05651 124.551 5.36572 125.246 5.8956C125.941 6.42547 126.465 7.15223 126.753 7.98404C127.04 8.81584 127.078 9.71536 126.861 10.5689C126.57 11.7154 125.841 12.6977 124.836 13.3001L109.634 22.3833C108.96 22.7883 108.192 23.0013 107.409 23ZM122.593 5.87313C121.966 5.87698 121.351 6.05033 120.812 6.3753L105.609 15.4585C104.803 15.9399 104.217 16.7264 103.983 17.645C103.748 18.5636 103.883 19.5391 104.358 20.357C104.833 21.1748 105.609 21.7679 106.515 22.0058C107.421 22.2437 108.384 22.1069 109.191 21.6256L124.393 12.5688C124.994 12.2113 125.478 11.6816 125.783 11.0464C126.088 10.4112 126.201 9.69875 126.109 8.99848C126.016 8.29822 125.721 7.64137 125.261 7.11041C124.801 6.57945 124.197 6.19805 123.524 6.01409C123.22 5.92841 122.908 5.88107 122.593 5.87313Z" fill="#081E7A"/>
<defs>
<linearGradient id="paint0_linear_3156_19045" x1="48" y1="14" x2="110.58" y2="124.587" gradientUnits="userSpaceOnUse">
<stop stop-color="#E64C4E"/>
<stop offset="1" stop-color="#EF33F9"/>
</linearGradient>
<linearGradient id="paint1_linear_3156_19045" x1="10" y1="85" x2="70.7052" y2="234.321" gradientUnits="userSpaceOnUse">
<stop stop-color="#E64C4E"/>
<stop offset="1" stop-color="#EF33F9"/>
</linearGradient>
<linearGradient id="paint2_linear_3156_19045" x1="151" y1="64" x2="173.848" y2="72.4864" gradientUnits="userSpaceOnUse">
<stop stop-color="#E64C4E"/>
<stop offset="1" stop-color="#EF33F9"/>
</linearGradient>
<linearGradient id="paint3_linear_3156_19045" x1="131" y1="77" x2="149.318" y2="82.5509" gradientUnits="userSpaceOnUse">
<stop stop-color="#E64C4E"/>
<stop offset="1" stop-color="#EF33F9"/>
</linearGradient>
<linearGradient id="paint4_linear_3156_19045" x1="109" y1="90" x2="129.872" y2="98.0796" gradientUnits="userSpaceOnUse">
<stop stop-color="#E64C4E"/>
<stop offset="1" stop-color="#EF33F9"/>
</linearGradient>
<linearGradient id="paint5_linear_3156_19045" x1="96" y1="0" x2="113.28" y2="23.04" gradientUnits="userSpaceOnUse">
<stop stop-color="#E64C4E"/>
<stop offset="1" stop-color="#EF33F9"/>
</linearGradient>
<linearGradient id="paint6_linear_3156_19045" x1="103" y1="5" x2="120.28" y2="28.04" gradientUnits="userSpaceOnUse">
<stop stop-color="#E64C4E"/>
<stop offset="1" stop-color="#EF33F9"/>
</linearGradient>
</defs>
</svg>
