<svg width="149" height="184" viewBox="0 0 149 184" fill="none" xmlns="http://www.w3.org/2000/svg">
<path d="M38.5649 21.2345C60.2858 13.5683 70.5074 28.9007 70.5074 28.9007C70.5074 28.9007 78.1736 7.17978 99.8945 2.06897C129.282 -4.85616 150.836 13.811 135.67 46.7885L89.6729 178.392C85.3032 187.91 67.952 181.969 62.8412 175.836L4.92306 100.784C-1.0438 91.508 -7.96894 37.6657 38.5649 21.2345Z" fill="url(#paint0_linear_2940_22388)"/>
<path d="M80.512 183.988C73.7146 183.988 65.6906 180.155 62.4069 176.207L4.42491 101.18C0.591808 95.3027 -2.89631 74.3484 3.69662 55.1829C9.36961 38.5728 21.3544 26.6902 38.3606 20.685L38.5651 21.2855L38.3478 20.6339C57.1045 14.0154 67.6072 24.3903 70.2904 27.6357C72.1941 23.1765 80.6781 5.91479 99.6775 1.45562C115.01 -2.13472 128.464 1.0212 135.734 9.91399C143.004 18.8068 143.183 31.9927 136.258 47.0567L90.2608 178.66C89.5665 180.141 88.4904 181.41 87.1431 182.338C85.7958 183.265 84.2258 183.817 82.5946 183.937C81.9021 183.997 81.2066 184.014 80.512 183.988ZM50.3199 19.714C46.3943 19.7639 42.5057 20.4811 38.8206 21.8349C21.9294 27.789 10.5323 39.1222 4.91043 55.5407C-1.55473 74.4123 1.83118 94.8044 5.45985 100.439L63.3524 175.453C66.6872 179.478 75.7589 183.49 82.4285 182.621C83.8409 182.536 85.2047 182.074 86.3778 181.283C87.5509 180.492 88.4903 179.401 89.0981 178.123L135.095 46.584C141.842 31.9415 141.688 19.1645 134.75 10.7317C127.812 2.2989 114.818 -0.767583 100.048 2.69498C78.9276 7.66524 71.1847 28.9006 71.1081 29.1178L70.6864 30.3189L69.9837 29.2584C67.691 26.2294 64.7144 23.7858 61.2969 22.127C57.8794 20.4682 54.118 19.6414 50.3199 19.714Z" fill="black"/>
<path d="M43.9815 31.1624L45.8086 30.4596C79.2971 18.4748 80.7281 50.1362 80.7281 50.1362C80.7281 50.1362 79.2971 18.4748 112.786 6.47721C113.399 6.26 114.063 6.04279 114.613 5.86391C141.317 -2.49225 157.173 32.7723 142.007 65.7625L95.7411 172.489C91.3714 182.008 82.1975 185.266 77.1123 179.171L22.81 108.45C5.19051 87.2151 17.3798 41.8951 43.9815 31.1624Z" fill="white"/>
<path d="M83.4889 182.864C82.1765 182.853 80.8833 182.548 79.7046 181.971C78.5259 181.394 77.4918 180.559 76.6788 179.529L22.2999 108.834C14.1481 99.0084 11.7333 83.2799 15.9114 66.8998C20.23 49.6636 30.8988 35.775 43.7397 30.5748C44.353 30.3192 45.0174 30.0892 45.5923 29.8593C56.3378 26.0262 64.9751 26.205 71.2741 30.4214C76.8449 34.1523 79.3492 40.1959 80.4736 44.6039C81.7896 34.8423 87.5776 14.8207 112.569 5.87682C113.195 5.64684 113.847 5.44241 114.422 5.25075C124.094 2.2226 132.987 4.62468 139.478 11.997C148.319 22.0525 153.06 43.2368 142.583 66.031L96.3298 172.693C93.7744 178.315 89.2897 182.174 84.7155 182.787C84.3086 182.838 83.899 182.863 83.4889 182.864ZM44.2124 31.7503C31.7549 36.7844 21.3672 50.3663 17.1252 67.2064C13.0749 83.2416 15.3875 98.4973 23.3093 108.093L77.6243 178.775C78.4289 179.811 79.4939 180.614 80.7106 181.103C81.9272 181.593 83.2519 181.751 84.5494 181.561C88.702 181.024 92.765 177.446 95.1671 172.233L141.42 65.5582C150.198 46.3927 149.009 24.8123 138.519 12.9042C132.387 5.91516 123.966 3.65363 114.805 6.51567L112.991 7.12897C95.9209 13.198 88.1781 24.5696 84.7922 33.0407C82.5562 38.4509 81.3932 44.2441 81.3679 50.098H80.0902C80.0902 49.868 79.362 37.321 70.5586 31.4181C64.6173 27.4316 56.3634 27.3039 46.0268 30.9964L44.2124 31.7503Z" fill="black"/>
<defs>
<linearGradient id="paint0_linear_2940_22388" x1="0.638794" y1="0.634277" x2="177.093" y2="135.832" gradientUnits="userSpaceOnUse">
<stop stop-color="#E64C4E"/>
<stop offset="1" stop-color="#EF33F9"/>
</linearGradient>
</defs>
</svg>
