<svg width="172" height="181" viewBox="0 0 172 181" fill="none" xmlns="http://www.w3.org/2000/svg">
<path opacity="0.08" d="M119.942 90.5552L150.076 107.846C153.416 109.763 153.427 114.578 150.095 116.509L41.3203 179.554C39.776 180.449 37.8718 180.453 36.3238 179.565L8.68941 163.702C5.34959 161.785 5.33963 156.97 8.67149 155.04L119.942 90.5552Z" fill="black"/>
<path d="M22.7655 82.3496C26.6691 53.3533 46.796 21.2222 71.0997 7.16284C84.8247 -0.783728 97.2226 -1.46553 106.123 3.86353C106.802 4.27888 122.627 13.5185 123.299 13.9417C131.106 11.1831 138.249 11.4653 143.636 14.6079L159.016 23.6829C166.753 27.3819 171.609 36.3159 171.609 49.3721C171.609 74.1053 154.231 104.23 132.8 116.644L52.3859 163.242C42.6972 168.853 33.9297 169.433 27.5513 165.836C27.5513 165.836 27.5122 165.836 27.4654 165.796L27.3951 165.749C26.0757 164.966 16.4026 159.417 10.4457 155.844C4.2 152.105 0.374475 144.284 0.374475 133.195C0.39009 115.985 9.66503 95.8839 22.7655 82.3496Z" fill="#FFECFA"/>
<path d="M87.128 116.229C87.128 120.884 90.3758 122.772 94.3809 120.453C98.386 118.133 101.626 112.475 101.626 107.82C101.626 103.165 98.3782 101.276 94.3731 103.596C90.368 105.915 87.128 111.573 87.128 116.229Z" fill="url(#paint0_linear_2912_18490)"/>
<path d="M67.0246 95.4764C83.2401 71.1821 105.475 58.2513 121.675 63.7606C123.299 64.3092 123.01 67.6791 121.675 70.0301C120.113 72.7965 117.935 73.6899 116.311 73.1649C103.609 68.8468 85.0826 79.6068 72.3647 98.6581C70.7486 101.088 68.5939 102.694 67.0012 101.793C65.6662 101.009 65.3773 97.992 67.0012 95.5234L67.0246 95.4764Z" fill="url(#paint1_linear_2912_18490)"/>
<path d="M57.6326 88.5567C68.1021 72.5617 80.8122 59.6779 94.3264 51.7235C107.841 43.7691 120.699 42.1625 131.02 45.9712C132.628 46.559 132.371 49.8897 131.02 52.2407C129.459 54.9836 127.257 55.9397 125.657 55.3755C107.669 48.6906 81.0386 64.1371 62.9962 91.6915C61.4348 94.1366 59.2097 95.7196 57.6326 94.8262C56.282 94.0425 56.0244 91.041 57.6326 88.5567Z" fill="url(#paint2_linear_2912_18490)"/>
<path d="M77.1813 101.229C87.2838 86.6681 101.438 78.4551 111.533 81.292C113.196 81.7544 114.031 83.643 112.899 86.5348C111.939 88.9956 109.378 91.5975 107.707 91.1272C99.5333 88.831 89.1653 94.8498 80.999 106.621C79.3283 109.027 76.7675 109.403 75.8073 108.055C74.6752 106.487 75.5106 103.619 77.1657 101.229H77.1813Z" fill="url(#paint3_linear_2912_18490)"/>
<path d="M22.7653 82.3417C26.6689 53.3453 46.7958 21.2142 71.0996 7.16273C84.8246 -0.78384 97.2224 -1.47348 106.123 3.86341L121.112 12.7034L121.229 12.7661C112.47 8.41663 100.728 9.45109 87.8148 16.9353C63.511 31.0416 43.3138 63.1022 39.4805 92.1142C26.38 105.656 17.1051 125.75 17.1051 142.975C17.1051 154.198 21.0087 162.082 27.4028 165.757C26.0834 164.973 16.4181 159.417 10.4612 155.844C4.21545 152.113 0.389938 144.284 0.389938 133.203C0.389938 115.985 9.66487 95.8838 22.7653 82.3417Z" fill="white"/>
<path d="M133.565 26.6454C131.223 20.9872 127.71 16.6926 123.299 13.9105C131.106 11.152 138.249 11.4341 143.636 14.5688L159.017 23.6752C152.287 20.4621 143.371 21.2066 133.565 26.6454Z" fill="white"/>
<path d="M27.5669 166.236C27.6155 166.234 27.6632 166.223 27.7075 166.203C27.7517 166.183 27.7915 166.154 27.8245 166.118C27.8667 166.075 27.8985 166.023 27.9175 165.966C27.9364 165.909 27.942 165.848 27.9338 165.789C27.9268 165.73 27.9062 165.674 27.8736 165.625C27.8411 165.576 27.7975 165.536 27.7465 165.507H27.684C27.5927 165.456 27.4851 165.443 27.3843 165.47C27.2835 165.498 27.1977 165.565 27.1453 165.656C27.1197 165.698 27.1025 165.745 27.0949 165.793C27.0873 165.842 27.0894 165.892 27.101 165.94C27.1126 165.988 27.1335 166.034 27.1625 166.073C27.1916 166.113 27.2282 166.147 27.2702 166.173L27.3561 166.212C27.4235 166.237 27.4958 166.245 27.5669 166.236Z" fill="#081E7A"/>
<path d="M27.372 166.188L27.7546 165.507C27.6531 165.444 16.9885 159.308 10.6568 155.507C4.3252 151.706 0.780748 143.752 0.780748 133.203C0.780748 116.456 9.52479 96.5972 23.0468 82.6162C23.1014 82.5537 23.139 82.4781 23.1561 82.3968C27.0988 52.8754 47.3584 21.3791 71.2952 7.5C84.4581 -0.125262 96.7544 -1.30079 105.92 4.20068L120.918 13.0407L123.111 14.2789C123.162 14.3002 123.217 14.3112 123.272 14.3112C123.326 14.3112 123.381 14.3002 123.432 14.2789C131.036 11.5987 138.14 11.8259 143.441 14.9137L161.609 25.6658L162.007 24.9919L143.832 14.2632C138.367 11.0814 131.106 10.815 123.338 13.4795L121.308 12.3353L106.318 3.52671C96.895 -2.12366 84.3176 -0.955969 70.9048 6.81819C46.7963 20.7913 26.4039 52.46 22.3988 82.1617C8.79092 96.268 2.97541e-05 116.299 2.97541e-05 133.203C2.97541e-05 144.057 3.64598 152.215 10.2587 156.181C16.5981 159.982 27.2627 166.141 27.372 166.188Z" fill="#081E7A"/>
<path d="M22.9653 82.002L39.6738 91.791L39.2803 92.4679L22.5718 82.6788L22.9653 82.002Z" fill="#081E7A"/>
<path d="M91.149 121.84C92.362 121.795 93.5428 121.436 94.5764 120.798C98.6751 118.447 102.017 112.592 102.017 107.82C102.017 105.422 101.189 103.619 99.6744 102.749C98.1599 101.879 96.2237 102.067 94.1704 103.259C90.0638 105.61 86.7301 111.464 86.7301 116.229C86.7301 118.635 87.5577 120.437 89.0723 121.299C89.705 121.66 90.4214 121.846 91.149 121.84V121.84ZM97.6055 103.031C98.1982 103.023 98.7825 103.172 99.2997 103.462C100.541 104.183 101.236 105.743 101.236 107.851C101.236 112.373 98.113 117.89 94.2094 120.147C92.3982 121.197 90.7196 121.378 89.4783 120.657C88.2369 119.936 87.5421 118.376 87.5421 116.26C87.5421 111.738 90.665 106.229 94.5685 103.972C95.4784 103.386 96.5258 103.051 97.6055 103V103.031Z" fill="#081E7A"/>
<path d="M68.0001 102.365C69.4679 102.365 71.2011 101.088 72.6844 98.8151C85.3399 79.8656 103.64 69.2074 116.209 73.4785C118.216 74.1603 120.472 72.8829 122.034 70.1949C123.095 68.3375 123.486 65.9787 122.963 64.5837C122.875 64.3101 122.726 64.0603 122.527 63.8538C122.328 63.6472 122.085 63.4894 121.815 63.3925C105.295 57.7735 83.1382 70.5867 66.6885 95.2571C66.198 95.9745 65.8532 96.7818 65.6737 97.633C65.4942 98.4842 65.4835 99.3626 65.6423 100.218C65.7047 100.588 65.8413 100.941 66.044 101.256C66.2467 101.572 66.5111 101.842 66.8212 102.052C67.1787 102.261 67.5861 102.37 68.0001 102.365V102.365ZM110.323 71.7701C98.1046 71.7701 82.9977 82.0129 72.0677 98.4154C70.678 100.5 68.6403 102.232 67.2194 101.401C67.0083 101.242 66.8306 101.042 66.6966 100.813C66.5627 100.585 66.475 100.332 66.4387 100.069C66.3006 99.3186 66.313 98.5481 66.4752 97.8026C66.6374 97.0571 66.9461 96.3516 67.3833 95.7274C83.3412 71.6996 105.639 58.7217 121.573 64.1292C121.732 64.194 121.876 64.2938 121.992 64.4213C122.108 64.5487 122.194 64.7006 122.244 64.8658C122.682 66.0335 122.307 68.1573 121.362 69.803C120.019 72.1541 118.099 73.2904 116.459 72.734C114.48 72.0791 112.407 71.7535 110.323 71.7701V71.7701Z" fill="#081E7A"/>
<path d="M58.6239 95.4766C60.0995 95.4766 61.8326 94.1992 63.3082 91.9187C71.9976 78.596 83.0916 67.6636 94.5369 61.0258C105.982 54.388 116.967 52.5071 125.586 55.6889C127.21 56.2845 129.646 55.5008 131.426 52.4053C132.472 50.5793 132.87 48.2439 132.363 46.8489C132.276 46.5684 132.128 46.3109 131.93 46.0953C131.731 45.8797 131.487 45.7114 131.215 45.6029C120.394 41.6296 107.2 43.6829 94.1544 51.3865C80.6558 59.3252 67.9379 72.0993 57.3045 88.3686C56.3146 89.8236 55.9385 91.6126 56.2583 93.345C56.3228 93.711 56.4605 94.0602 56.6631 94.3713C56.8657 94.6825 57.129 94.9492 57.4372 95.1553C57.7972 95.3665 58.2069 95.4775 58.6239 95.4766V95.4766ZM116.616 53.377C99.3227 53.377 78.056 67.9849 62.668 91.4877C61.0519 93.9641 59.0611 95.1945 57.8276 94.4735C57.6172 94.3185 57.4397 94.1229 57.3057 93.8982C57.1716 93.6734 57.0836 93.4241 57.0468 93.1647C56.9074 92.4103 56.9178 91.6357 57.0772 90.8853C57.2366 90.1349 57.542 89.4235 57.9759 88.7918C68.5468 72.64 81.2023 59.9365 94.5682 52.0605C107.442 44.4744 120.332 42.4446 130.973 46.3395C131.138 46.4107 131.284 46.5181 131.402 46.6537C131.519 46.7894 131.605 46.9498 131.652 47.1232C132.082 48.2988 131.699 50.4069 130.77 52.0213C129.209 54.725 127.202 55.446 125.883 54.9601C122.911 53.8872 119.774 53.3513 116.616 53.377V53.377Z" fill="#081E7A"/>
<path d="M77.4624 109.214C78.2522 109.161 79.0181 108.921 79.6969 108.512C80.3757 108.103 80.9478 107.538 81.366 106.863C89.3761 95.3117 99.705 89.293 107.653 91.5187C109.558 92.0516 112.267 89.3714 113.313 86.6912C114.148 84.5439 113.867 83.1803 113.485 82.4123C113.309 82.0505 113.057 81.731 112.748 81.4754C112.438 81.2199 112.077 81.0342 111.689 80.9311C101.399 78.0393 87.0964 86.3072 76.8924 101.025C75.4013 103.164 74.1521 106.362 75.534 108.297C75.7601 108.593 76.0529 108.83 76.3881 108.989C76.7234 109.149 77.0916 109.226 77.4624 109.214V109.214ZM104.077 90.2413C96.465 90.2413 87.8147 96.1189 80.6555 106.401C80.315 106.968 79.8466 107.448 79.2879 107.8C78.7292 108.153 78.0959 108.369 77.4389 108.431C77.183 108.449 76.9265 108.403 76.6923 108.298C76.4581 108.192 76.2533 108.031 76.0961 107.827C75.1749 106.526 75.7214 103.964 77.4624 101.456C87.518 86.989 101.477 78.87 111.447 81.6678C111.731 81.7418 111.995 81.8769 112.221 82.0637C112.448 82.2504 112.631 82.4843 112.759 82.7492C113.196 83.627 113.126 84.9201 112.548 86.3934C111.58 88.8855 109.152 91.0955 107.864 90.7507C106.63 90.408 105.356 90.2366 104.077 90.2413V90.2413Z" fill="#081E7A"/>
<path d="M42.8459 78.3922L43.0645 77.6477L42.3228 77.4126L42.0964 78.1649L42.8459 78.3922Z" fill="#081E7A"/>
<path d="M43.541 76.1275L44.0329 74.6306L43.299 74.3799C43.1272 74.8814 42.9555 75.383 42.7993 75.8924L43.541 76.1275ZM44.5482 73.1338L45.0869 71.6448L44.353 71.3705L43.8143 72.8674L44.5482 73.1338ZM45.649 70.1636C45.8363 69.6699 46.0315 69.1762 46.2267 68.6903L45.5084 68.4003C45.3055 68.8915 45.1103 69.3852 44.9229 69.8815L45.649 70.1636ZM46.8279 67.2248C47.0308 66.7389 47.2416 66.253 47.4524 65.7672L46.7342 65.4537C46.5234 65.9396 46.3126 66.4333 46.1096 66.9192L46.8279 67.2248ZM48.0926 64.3173C48.3112 63.8393 48.5298 63.3612 48.7562 62.8832L48.0458 62.5462C47.8272 63.0321 47.6008 63.518 47.3822 63.996L48.0926 64.3173ZM49.4276 61.4491C49.6541 60.9788 49.8883 60.5008 50.1303 60.0306L49.4276 59.6779L48.725 61.1121L49.4276 61.4491ZM50.8486 58.62C51.0906 58.1497 51.3326 57.6795 51.5824 57.2172L50.8954 56.8488C50.6456 57.319 50.3957 57.7892 50.1537 58.2595L50.8486 58.62ZM52.3397 55.8222C52.5896 55.3598 52.855 54.8974 53.1204 54.4429L52.4412 54.0511C52.1758 54.5134 51.9181 54.9758 51.6605 55.446L52.3397 55.8222ZM53.9012 53.0715C54.1666 52.6091 54.432 52.1624 54.6819 51.7078L54.0183 51.3003C53.7372 51.7549 53.4718 52.2094 53.1985 52.6718L53.9012 53.0715ZM55.5329 50.3521C55.8139 49.9054 56.095 49.4587 56.3838 49.012L55.728 48.5888C55.4392 49.0355 55.1503 49.49 54.8771 49.9367L55.5329 50.3521ZM57.2348 47.6875C57.5315 47.2408 57.8204 46.802 58.117 46.3709L57.4768 45.9242C57.1724 46.3631 56.8757 46.8098 56.5868 47.2565L57.2348 47.6875ZM59.0149 45.0622C59.3193 44.6233 59.6238 44.1923 59.9361 43.7691L59.2959 43.3067L58.3747 44.6155L59.0149 45.0622ZM60.8652 42.4839L61.8176 41.2143L61.2009 40.7441C60.873 41.1673 60.5607 41.5905 60.2406 42.0215L60.8652 42.4839ZM62.8091 39.9682C63.1371 39.5529 63.465 39.1375 63.8007 38.73L63.1917 38.2363L62.2002 39.4824L62.8091 39.9682ZM64.8 37.4996C65.1357 37.0921 65.4792 36.7159 65.8227 36.2849L65.2294 35.7755L64.1988 36.9981L64.8 37.4996ZM66.8611 35.0859L67.915 33.9103L67.3373 33.3774L66.2755 34.5686L66.8611 35.0859Z" fill="#081E7A"/>
<path d="M68.9916 32.7349L69.5303 32.1707L68.9604 31.6221L68.4217 32.1942L68.9916 32.7349Z" fill="#081E7A"/>
<path d="M36.5844 168.493C41.4952 168.493 46.9524 166.839 52.597 163.571L132.964 116.989C154.504 104.528 172 74.1996 172 49.3725C172 37.4056 167.964 28.4245 160.641 24.0986C153.458 19.8432 143.894 20.572 133.745 26.1205C130.552 18.6677 125.274 13.5032 118.443 11.1835C109.589 8.16628 98.9248 10.0393 87.6122 16.5987C80.7076 20.6899 74.4216 25.7516 68.9452 31.6298L69.5151 32.1706C74.9369 26.3489 81.1597 21.3348 87.9947 17.2805C99.12 10.8308 109.543 8.98131 118.201 11.928C124.931 14.2163 130.122 19.3651 133.206 26.818C133.227 26.8683 133.257 26.9138 133.296 26.9516C133.335 26.9894 133.382 27.0186 133.433 27.0374C133.483 27.0588 133.538 27.0697 133.593 27.0697C133.648 27.0697 133.702 27.0588 133.753 27.0374C143.808 21.4262 153.216 20.6347 160.25 24.7882C167.284 28.9418 171.219 37.6877 171.219 49.3725C171.219 73.941 153.895 103.964 132.605 116.299L52.191 162.897C42.8614 168.305 34.1174 169.167 27.5672 165.397C21.0169 161.628 17.4803 153.642 17.4803 142.968C17.4803 126.221 26.2243 106.362 39.7464 92.3811C39.8044 92.3219 39.8402 92.2444 39.8478 92.1617C40.493 87.4936 41.4953 82.8824 42.8458 78.3688L42.0651 78.1415C40.7235 82.6512 39.7265 87.2569 39.0827 91.9187C25.4748 106.025 16.6839 126.048 16.6839 142.952C16.6839 153.924 20.408 162.153 27.1612 166.063C30.0303 167.702 33.2838 168.541 36.5844 168.493V168.493Z" fill="#081E7A"/>
<defs>
<linearGradient id="paint0_linear_2912_18490" x1="101.626" y1="102.604" x2="83.4144" y2="116.618" gradientUnits="userSpaceOnUse">
<stop stop-color="#E64C4E"/>
<stop offset="1" stop-color="#EF33F9"/>
</linearGradient>
<linearGradient id="paint1_linear_2912_18490" x1="122.787" y1="62.5015" x2="85.7222" y2="115.831" gradientUnits="userSpaceOnUse">
<stop stop-color="#E64C4E"/>
<stop offset="1" stop-color="#EF33F9"/>
</linearGradient>
<linearGradient id="paint2_linear_2912_18490" x1="132.132" y1="44.001" x2="84.7469" y2="114.146" gradientUnits="userSpaceOnUse">
<stop stop-color="#E64C4E"/>
<stop offset="1" stop-color="#EF33F9"/>
</linearGradient>
<linearGradient id="paint3_linear_2912_18490" x1="113.419" y1="80.7354" x2="86.5886" y2="117.154" gradientUnits="userSpaceOnUse">
<stop stop-color="#E64C4E"/>
<stop offset="1" stop-color="#EF33F9"/>
</linearGradient>
</defs>
</svg>
