<svg width="94" height="180" viewBox="0 0 94 180" fill="none" xmlns="http://www.w3.org/2000/svg">
<path d="M20.968 25L1 111.375L12.1791 117L24.5 110L11 172.5L21.5 179L92.5 42.5L82 36L59.5 49L72.5 7L62.5 1L20.968 25Z" fill="url(#paint0_linear_3156_18870)"/>
<path d="M92.5 42.5L55.4019 63.8359L73.0425 8L31.976 31.1161L12 117.079L39.2653 101.438L22.4239 179L92.5 42.5Z" fill="white"/>
<path d="M73 7.5L31.5377 31.4782C31.5137 31.4921 31.4965 31.5154 31.4903 31.5425L12 117M73 7.5L55.5761 63.2566C55.5489 63.3434 55.6424 63.4184 55.7213 63.3731L92.7058 42.1687C92.7923 42.1191 92.8902 42.2127 92.8444 42.3013L22.3482 178.826C22.2945 178.93 22.1367 178.873 22.1616 178.759L38.952 101.72C38.9705 101.636 38.8797 101.569 38.8045 101.612L12 117M73 7.5L62.5509 1.0315C62.5196 1.01211 62.4801 1.01151 62.4482 1.02996L21.0375 24.9783C21.0136 24.9921 20.9964 25.0153 20.9902 25.0422L1.01722 110.926C1.00704 110.97 1.0273 111.015 1.06673 111.036L12 117" stroke="#081E7A" stroke-width="0.4"/>
<path d="M24.5 110L11 172.5L22 179" stroke="#081E7A" stroke-width="0.4"/>
<path d="M92.5 42.5L81.5 36L60 48.5" stroke="#081E7A" stroke-width="0.4"/>
<defs>
<linearGradient id="paint0_linear_3156_18870" x1="1" y1="1" x2="145.751" y2="75.4084" gradientUnits="userSpaceOnUse">
<stop stop-color="#E64C4E"/>
<stop offset="1" stop-color="#EF33F9"/>
</linearGradient>
</defs>
</svg>
