<svg width="32" height="32" viewBox="0 0 32 32" fill="none" xmlns="http://www.w3.org/2000/svg">
<rect x="2" y="2" width="28" height="28" rx="2" fill="#0071DA"/>
<path d="M11.5835 9.17562C11.5835 10.3772 10.5575 11.3512 9.29175 11.3512C8.02605 11.3512 7 10.3772 7 9.17562C7 7.97406 8.02605 7 9.29175 7C10.5575 7 11.5835 7.97406 11.5835 9.17562Z" fill="white"/>
<path d="M7.3134 12.9504H11.2309V25H7.3134V12.9504Z" fill="white"/>
<path d="M17.5381 12.9504H13.6206V25H17.5381C17.5381 25 17.5381 21.2066 17.5381 18.8348C17.5381 17.4112 18.017 15.9814 19.9278 15.9814C22.0873 15.9814 22.0743 17.8444 22.0642 19.2877C22.0511 21.1743 22.0825 23.0995 22.0825 25H26V18.6405C25.9668 14.5798 24.9244 12.7087 21.4948 12.7087C19.4582 12.7087 18.1957 13.6472 17.5381 14.4963V12.9504Z" fill="white"/>
</svg>
