<svg width="206" height="183" viewBox="0 0 206 183" fill="none" xmlns="http://www.w3.org/2000/svg">
<path opacity="0.08" d="M100.69 175.834C56.4675 148.728 5.52583 86.5787 11.4763 77.0792C17.4268 67.5796 109.061 92.1885 153.283 119.295C197.505 146.402 144.903 202.924 100.69 175.834Z" fill="black"/>
<path d="M188.416 34.5234C179.572 29.4421 168.624 29.1283 156.86 33.4339C139.048 32.7454 123.814 31.6908 109.412 29.5554C108.741 29.3525 108.045 29.244 107.343 29.2329C87.6734 26.0865 69.4234 20.6566 48.0442 10.7903C46.8855 7.09058 44.3865 3.95042 41.0317 1.97865C35.7461 -1.07188 29.0316 -0.583792 22.1594 3.36446C9.73857 10.494 0 27.2196 0 41.4001C0 49.2443 2.91017 55.2059 8.20459 58.239C10.513 59.5579 13.1333 60.2409 15.7956 60.2175C17.0086 60.2141 18.2183 60.0915 19.407 59.8515C20.0381 60.3134 20.6692 60.7753 21.3004 61.2634V73.3435C21.3004 79.9849 25.2098 87.8204 30.8198 92.3875L66.9077 121.847C70.2386 124.566 73.701 125.961 76.8917 125.961C77.813 125.963 78.7302 125.84 79.6178 125.595C83.6587 131.556 87.5682 137.736 91.3023 144.081C93.222 156.954 99.0423 166.663 108.176 171.91C113.021 174.65 118.512 176.061 124.086 175.998C132.159 175.998 141.029 173.383 150.154 168.11C180.948 150.435 206 107.422 206 72.2366C206 54.4128 199.759 41.0254 188.416 34.5234ZM35.1149 86.7222C31.2405 83.5584 28.3128 77.8234 28.3128 73.3784V67.2773C43.302 80.0372 59.2028 97.5036 73.815 117.829C72.8721 117.353 71.9894 116.768 71.1853 116.086L35.1149 86.7222Z" fill="#FFECFA"/>
<path d="M71.2131 116.124L34.8917 86.5354C33.0539 84.9995 31.5749 83.085 30.5575 80.9248C29.5401 78.7646 29.0086 76.4105 28.9999 74.026V67.8982C32.4485 70.8395 21 61 21 61V73.133C21 79.8036 24.9338 87.6647 30.5699 92.2605L66.8912 121.849C70.2341 124.572 73.718 125.981 76.9285 125.981C77.8584 125.983 78.7842 125.859 79.6804 125.613C81.3651 128.108 76.073 117.778 71.2131 116.124Z" fill="url(#paint0_linear_2912_18508)"/>
<path d="M172.043 38.0028C165.332 38.0028 157.766 40.3069 149.843 44.8544C121.255 61.2516 98 101.157 98 133.804C98 148.772 102.898 159.79 111.789 164.927C120.679 170.064 132.952 168.73 146.157 161.159C174.737 144.753 198 104.856 198 72.2003C198 57.2324 193.102 46.2143 184.202 41.0778C180.495 38.9996 176.299 37.9384 172.043 38.0028Z" fill="white"/>
<path d="M86.1296 25.496C81.7684 24.3381 74.3804 25.1504 68.4753 28.5376C54.9554 36.2628 44 55.0052 44 70.3949C44 76.6511 45.1863 83.1318 48.2391 86.0352L63.8001 104C60.4157 100.544 60.25 92.084 60.25 84.9897C60.25 66.8435 73.1418 44.8433 89.0342 35.7356C95.4801 32.0459 104.203 28.7796 109 30.1103L86.1296 25.496Z" fill="white"/>
<path d="M103 104.778C105.353 105.421 107.768 105.827 110.207 105.99C113.886 106.089 117.55 105.483 120.988 104.209C124.426 102.934 127.572 101.014 130.245 98.5592C132.919 96.1044 135.068 93.1625 136.57 89.9016C138.072 86.6406 138.898 83.1245 138.999 79.554C139.043 72.328 136.29 65.3495 131.284 60C131.284 60 118.36 74.8105 114.756 80.1772C109.547 87.9244 103 104.778 103 104.778Z" fill="url(#paint1_linear_2912_18508)"/>
<path d="M124.325 175.998C118.771 176.061 113.299 174.655 108.471 171.926C97.1758 165.44 91 152.103 91 134.365C91 99.3043 115.965 56.4468 146.652 38.8558C162.262 29.8954 177.112 28.5496 188.477 35.0789C199.842 41.6082 206 54.8927 206 72.6313C206 107.7 181.035 150.549 150.348 168.14C141.21 173.358 132.37 175.998 124.325 175.998ZM172.553 38.3349C165.826 38.3349 158.244 40.6445 150.304 45.2028C121.652 61.6391 98.3464 101.64 98.3464 134.365C98.3464 149.368 103.256 160.413 112.166 165.561C121.076 170.71 133.375 169.373 146.609 161.785C175.252 145.34 198.566 105.347 198.566 72.6139C198.566 57.6103 193.657 46.566 184.738 41.4172C181.023 39.3341 176.818 38.2704 172.553 38.3349Z" fill="url(#paint2_linear_2912_18508)"/>
<path d="M132.548 82.5621C131.327 86.8965 128.072 89.6822 125.292 88.8545C122.511 88.0268 121.24 83.7815 122.469 79.4382C123.698 75.0949 126.936 72.3181 129.725 73.1458C132.514 73.9735 133.735 78.2189 132.548 82.5621Z" fill="white"/>
<path d="M11.621 54.3286C7.85247 51.9578 4.94285 48.0412 4.94285 41.3023C4.94285 28.9012 13.7681 13.8081 24.6529 7.58148C29.8149 4.62885 34.4948 4.22069 38.0179 5.88806L43.3727 8.58016C44.9326 9.32701 46.4751 10.0507 48 10.7512C46.8423 7.0645 44.3436 3.93547 40.9889 1.97148C35.7393 -1.06799 29.0349 -0.581677 22.164 3.35227C9.73672 10.456 0 27.1209 0 41.2502C0 49.0659 2.91839 55.0059 8.21179 58.028C10.5193 59.3433 13.1395 60.0239 15.8014 59.9994C17.0141 59.996 18.2236 59.8738 19.4121 59.6346C16.7654 57.7501 14.1625 55.9265 11.621 54.3286Z" fill="url(#paint3_linear_2912_18508)"/>
<path d="M16.2602 60.9994C13.5173 61.0233 10.8173 60.3237 8.43738 58.9725C2.99391 55.8582 0 49.7513 0 41.7568C0 27.4553 9.84214 10.6049 22.4148 3.41938C29.4386 -0.599655 36.3132 -1.09551 41.783 2.0362C45.2414 4.0809 47.8125 7.32266 49 11.1356L48.122 11.4052C47.0129 7.8018 44.5989 4.73154 41.344 2.78433C36.1639 -0.173395 29.5967 0.313761 22.8274 4.16751C10.5357 11.2226 0.877979 27.7424 0.877979 41.7568C0.877979 49.4034 3.72263 55.2405 8.87637 58.1896C12.2355 60.0579 16.1786 60.6134 19.9301 59.7467L20.1057 60.6166C18.8406 60.875 17.5519 61.0033 16.2602 60.9994Z" fill="#081E7A"/>
<path d="M77.1704 126C73.8311 126 70.2721 124.553 66.8889 121.816L30.6664 92.5428C24.9544 87.9265 21 80.0019 21 73.2811V61H21.8788V73.2811C21.8788 79.7594 25.7365 87.4069 31.2639 91.8759L67.4513 121.15C71.6078 124.51 76.0632 125.826 79.7539 124.787L80 125.653C79.0765 125.891 78.125 126.008 77.1704 126ZM74.0947 117.295C62.5039 109.553 36.1498 87.0951 35.8862 86.8699C31.9142 83.6567 28.9088 77.8107 28.9088 73.2811V67.435H29.7876V73.2811C29.7876 77.6115 32.6524 83.1371 36.4486 86.203C36.721 86.4369 63.0399 108.86 74.5868 116.577L74.0947 117.295Z" fill="#081E7A"/>
<path d="M91.2001 144C68.6489 105.754 38.2454 71.6856 11.8642 55.0763C7.30846 52.2157 5 47.7253 5 41.7525C5 29.2522 13.9191 14.0127 24.8843 7.7105C29.9384 4.81515 34.8176 4.24301 38.6214 5.97676L44.0078 8.62938C83.2079 27.4405 111.679 31.5581 157 33.2485V34.1154C111.53 32.3817 82.998 28.29 43.6493 9.40957L38.2454 6.78295C34.7477 5.11855 30.1133 5.71669 25.3215 8.46468C14.6011 14.6021 5.87442 29.521 5.87442 41.7525C5.87442 47.4132 8.04297 51.6522 12.3276 54.3482C38.8225 71.0181 69.3309 105.208 91.9608 143.567L91.2001 144Z" fill="#081E7A"/>
<path d="M48.3761 87C45.6279 84.3663 44 78.2212 44 70.5485C44 54.7992 55.1154 35.5472 68.7777 27.6375C74.9831 24.0469 82.6414 23.3534 87 24.521L86.7724 25.3989C82.6764 24.2752 75.1319 24.9599 69.1978 28.4012C55.7718 36.1705 44.8577 55.0801 44.8577 70.5397C44.8577 77.9666 46.3981 83.8747 48.9801 86.3416L48.3761 87Z" fill="#081E7A"/>
<path d="M63.4838 104C60 100.463 60 92.1398 60 84.8052V84.6058C60 66.3388 72.9947 44.0056 88.968 34.8243C94.9689 31.3564 103.496 28.2874 109 29.1457L108.869 30.0126C103.539 29.1457 95.2389 32.2147 89.3774 35.5873C73.6827 44.6211 60.8797 66.6162 60.8797 84.6058V84.8052C60.8797 91.6196 60.8797 100.107 64.1022 103.402L63.4838 104Z" fill="#081E7A"/>
<path d="M111.175 106H110.391C108.232 105.938 106.088 105.631 104 105.085L104.227 104.222C106.248 104.751 108.326 105.041 110.417 105.085C115.686 105.226 120.881 103.833 125.359 101.079C129.836 98.3259 133.399 94.333 135.606 89.5952C137.813 84.8575 138.567 79.583 137.775 74.4252C136.983 69.2673 134.679 64.4529 131.149 60.5781L131.794 60C135.411 63.9484 137.792 68.8513 138.647 74.1133C139.502 79.3753 138.795 84.7698 136.611 89.6415C134.428 94.5133 130.861 98.6525 126.346 101.556C121.831 104.46 116.56 106.004 111.175 106Z" fill="#081E7A"/>
<path d="M123.845 175.998C118.207 176.064 112.652 174.636 107.753 171.862C96.3055 165.294 90 151.818 90 133.903C90 98.681 115.091 55.6307 145.971 37.9327C161.713 28.8883 176.764 27.5068 188.282 34.1534C199.799 40.7999 206 54.2059 206 72.1124C206 107.343 180.909 150.394 150.029 168.083C140.916 173.331 132.092 175.998 123.845 175.998ZM172.155 30.9039C164.179 30.9039 155.407 33.5104 146.373 38.7234C115.764 56.2737 90.8745 98.9938 90.8745 133.938C90.8745 151.523 96.9964 164.738 108.191 171.141C112.957 173.839 118.36 175.228 123.845 175.164C131.935 175.164 140.61 172.557 149.635 167.344C180.245 149.794 205.134 107.083 205.134 72.1297C205.134 54.5447 199.012 41.3299 187.809 34.9266C183.045 32.2229 177.642 30.8285 172.155 30.8866V30.9039ZM123.871 168.639C119.524 168.704 115.238 167.619 111.453 165.494C102.392 160.281 97.3987 149.073 97.3987 133.903C97.3987 101.018 120.828 60.8263 149.635 44.3012C157.646 39.7138 165.22 37.3506 172.129 37.3506C176.478 37.2931 180.765 38.3877 184.547 40.5218C193.616 45.7348 198.61 56.9427 198.61 72.1124C198.61 104.997 175.172 145.189 146.373 161.714C138.354 166.31 130.693 168.639 123.871 168.639ZM172.129 38.2455C165.369 38.2455 157.952 40.5392 150.073 45.0571C121.51 61.4432 98.2732 101.34 98.2732 133.903C98.2732 148.751 103.109 159.707 111.89 164.738C120.67 169.768 132.827 168.474 145.936 160.958C174.499 144.581 197.736 104.719 197.736 72.1124C197.736 57.2641 192.899 46.3169 184.11 41.2777C180.458 39.2277 176.323 38.1811 172.129 38.2455Z" fill="#081E7A"/>
<path d="M126.189 89C125.769 89.0018 125.351 88.9445 124.947 88.8299C124.314 88.6351 123.727 88.3192 123.223 87.901C122.718 87.4827 122.306 86.9707 122.01 86.3954C120.848 84.018 120.682 81.2983 121.547 78.8054C122.956 74.2139 126.773 71.2334 130.053 72.1732C130.686 72.3679 131.273 72.6838 131.777 73.1021C132.282 73.5203 132.694 74.0323 132.99 74.6077C134.152 76.9851 134.318 79.7047 133.453 82.1976C132.221 86.2164 129.135 89 126.189 89ZM128.792 72.8892C126.254 72.8892 123.548 75.4311 122.437 79.065C121.643 81.3303 121.779 83.8033 122.817 85.9747C123.057 86.4446 123.392 86.8633 123.803 87.2061C124.213 87.5489 124.691 87.8088 125.207 87.9707C127.986 88.7672 131.303 86.0642 132.563 81.9381C133.357 79.6758 133.221 77.2055 132.183 75.0373C131.944 74.5654 131.61 74.1448 131.199 73.8004C130.788 73.456 130.31 73.1948 129.793 73.0324C129.469 72.9367 129.132 72.8885 128.792 72.8892Z" fill="#081E7A"/>
<defs>
<linearGradient id="paint0_linear_2912_18508" x1="21" y1="61" x2="85.6963" y2="119.724" gradientUnits="userSpaceOnUse">
<stop stop-color="#E64C4E"/>
<stop offset="1" stop-color="#EF33F9"/>
</linearGradient>
<linearGradient id="paint1_linear_2912_18508" x1="103" y1="60" x2="147.652" y2="94.9449" gradientUnits="userSpaceOnUse">
<stop stop-color="#E64C4E"/>
<stop offset="1" stop-color="#EF33F9"/>
</linearGradient>
<linearGradient id="paint2_linear_2912_18508" x1="91" y1="31" x2="232.19" y2="142.978" gradientUnits="userSpaceOnUse">
<stop stop-color="#E64C4E"/>
<stop offset="1" stop-color="#EF33F9"/>
</linearGradient>
<linearGradient id="paint3_linear_2912_18508" x1="0" y1="0" x2="58.5366" y2="46.8293" gradientUnits="userSpaceOnUse">
<stop stop-color="#E64C4E"/>
<stop offset="1" stop-color="#EF33F9"/>
</linearGradient>
</defs>
</svg>
