<svg width="32" height="32" viewBox="0 0 32 32" fill="none" xmlns="http://www.w3.org/2000/svg">
<path d="M5.02432 19.2508C5.02432 20.3187 5.25889 21.1386 5.56571 21.6346C5.96788 22.2843 6.56768 22.5601 7.1792 22.5601C7.96783 22.5601 8.68937 22.3646 10.0798 20.4436C11.194 18.904 12.5063 16.743 13.3895 15.3881L14.8851 13.0928C15.924 11.4987 17.1265 9.7267 18.5053 8.52555C19.6313 7.54512 20.8452 7.00049 22.0672 7.00049C24.1188 7.00049 26.0731 8.18804 27.5687 10.4153C29.2055 12.8545 30 15.927 30 19.0976C30 20.9825 29.6281 22.3675 28.9951 23.4617C28.3837 24.5198 27.1918 25.5771 25.187 25.5771V22.5596C26.9037 22.5596 27.332 20.9839 27.332 19.1807C27.332 16.6112 26.7322 13.7596 25.4109 11.722C24.4733 10.2767 23.2581 9.39364 21.9212 9.39364C20.4751 9.39364 19.3116 10.4831 18.0038 12.4251C17.3086 13.4571 16.5949 14.7146 15.7935 16.1337L14.9112 17.6947C13.1393 20.8337 12.6903 21.5484 11.8042 22.7278C10.2513 24.7934 8.925 25.5766 7.1792 25.5766C5.10806 25.5766 3.79845 24.6807 2.98731 23.3308C2.32523 22.2309 2 20.7875 2 19.1429L5.02432 19.2508Z" fill="#0081FB"/>
<path d="M4.38379 10.6278C5.77034 8.49297 7.77134 7 10.0664 7C11.3955 7 12.717 7.39292 14.0965 8.51827C15.6058 9.74835 17.2143 11.7751 19.2212 15.1138L19.9408 16.3117C21.6779 19.2023 22.6661 20.6894 23.2446 21.3907C23.9884 22.2912 24.5094 22.5597 25.1861 22.5597C26.9028 22.5597 27.3312 20.984 27.3312 19.1808L29.9992 19.0972C29.9992 20.9822 29.6273 22.3671 28.9943 23.4613C28.3829 24.5194 27.191 25.5767 25.1861 25.5767C23.9397 25.5767 22.8356 25.3063 21.6145 24.1556C20.6763 23.2726 19.5785 21.7038 18.7342 20.2935L16.223 16.1037C14.9632 14.0009 13.807 12.4331 13.1384 11.723C12.4188 10.9595 11.4937 10.0375 10.0176 10.0375C8.82293 10.0375 7.80829 10.8749 6.95926 12.1558L4.38379 10.6278Z" fill="url(#paint0_linear_3133_18791)"/>
<path d="M10.0184 10.0375C8.82378 10.0375 7.80914 10.8749 6.96011 12.1558C5.75946 13.9658 5.02491 16.6618 5.02491 19.2508C5.02491 20.3187 5.25948 21.1386 5.5663 21.6346L2.98731 23.3308C2.32523 22.2309 2 20.7875 2 19.1429C2 16.1522 2.82182 13.035 4.38465 10.6278C5.77119 8.49297 7.7722 7 10.0672 7L10.0184 10.0375Z" fill="url(#paint1_linear_3133_18791)"/>
<defs>
<linearGradient id="paint0_linear_3133_18791" x1="8.0689" y1="15.8069" x2="27.3482" y2="16.7817" gradientUnits="userSpaceOnUse">
<stop stop-color="#0064E1"/>
<stop offset="0.4" stop-color="#0064E1"/>
<stop offset="0.83" stop-color="#0073EE"/>
<stop offset="1" stop-color="#0082FB"/>
</linearGradient>
<linearGradient id="paint1_linear_3133_18791" x1="6.03356" y1="20.5191" x2="6.03356" y2="13.4191" gradientUnits="userSpaceOnUse">
<stop stop-color="#0082FB"/>
<stop offset="1" stop-color="#0064E0"/>
</linearGradient>
</defs>
</svg>
