<svg width="260" height="172" viewBox="0 0 260 172" fill="none" xmlns="http://www.w3.org/2000/svg">
<path opacity="0.08" d="M237.92 107.998C231.372 108.059 224.863 106.983 218.678 104.817C215.28 103.609 212.226 101.584 209.78 98.9199C207.334 96.2553 205.571 93.0307 204.643 89.5255L202.863 88.4864C202.642 88.3607 202.428 88.2231 202.222 88.0743C195.538 86.2826 182.348 82.5112 174.267 77.7902C160.249 69.6023 140.446 55.8961 123.875 42.8528C116.877 37.4753 110.161 31.7373 103.752 25.6618C97.9309 19.9823 90.179 11.5525 96.1509 7.87066C99.7555 5.61316 108.905 8.23795 113.337 10.1729C131.751 18.1996 234.636 81.8931 234.636 81.8931C264.006 105.059 246.597 107.998 237.92 107.998Z" fill="black"/>
<path opacity="0.08" d="M114.125 166.783L7.29654 104.975C-2.43218 99.3525 -2.43218 90.2349 7.29654 84.6125L54.5089 57.3066C64.2376 51.6843 80 51.6843 89.7194 57.3066L196.586 119.153C206.314 124.775 206.314 133.893 196.586 139.515L149.364 166.83C139.645 172.406 123.882 172.406 114.125 166.783Z" fill="black"/>
<path d="M198.513 110.832C198.373 107.458 196.081 104.113 191.628 101.536L90.6178 43.0729C81.4223 37.7504 66.5205 37.7504 57.3344 43.0729L12.7039 68.8796C8.10143 71.5408 5.80957 75.0267 5.80957 78.5032V88.4547C5.80957 91.9406 8.10143 95.4265 12.7039 98.0783L113.733 156.495C122.891 161.789 137.886 161.789 147.054 156.495L191.666 130.688C196.343 127.971 198.672 124.372 198.56 120.811C198.466 118.16 198.513 113.568 198.56 111.666C198.558 111.387 198.543 111.109 198.513 110.832Z" fill="white"/>
<path d="M246.539 82.6073C233.443 72.7494 232.507 64.5502 224.182 61.5984C220.241 60.1987 215.911 60.3971 212.114 62.1513C211.958 62.0101 211.789 61.8845 211.609 61.7765L207.465 59.3682C206.931 59.0597 206.323 58.9011 205.706 58.9091C202.124 54.786 192.61 44.4221 182.853 38.7435C153.218 21.5297 91.8148 -4.81103 88.4472 0.980003C85.0796 6.77103 138.372 47.1396 168.017 64.3721C176.642 69.3948 192.208 73.5553 197.203 74.811C197.447 75.1126 197.741 75.3694 198.073 75.57L202.217 77.9782C202.386 78.0782 202.564 78.1599 202.75 78.2219C203.013 81.3225 204.165 84.2811 206.066 86.7415C207.968 89.202 210.54 91.0594 213.471 92.0903C221.89 95.0515 235.847 97.5721 259.579 90.085C254.939 88.1451 250.558 85.6331 246.539 82.6073Z" fill="#FFECFA"/>
<path d="M125.079 136.469C134.637 136.469 142.385 132.064 142.385 126.63C142.385 121.196 134.637 116.791 125.079 116.791C115.522 116.791 107.773 121.196 107.773 126.63C107.773 132.064 115.522 136.469 125.079 136.469Z" fill="#FFECFA"/>
<path d="M118.335 96.3916C127.893 96.3916 135.641 91.9865 135.641 86.5525C135.641 81.1185 127.893 76.7134 118.335 76.7134C108.777 76.7134 101.029 81.1185 101.029 86.5525C101.029 91.9865 108.777 96.3916 118.335 96.3916Z" fill="#FFECFA"/>
<path d="M49.1116 92.6431C58.6693 92.6431 66.4175 88.238 66.4175 82.804C66.4175 77.37 58.6693 72.9648 49.1116 72.9648C39.5538 72.9648 31.8057 77.37 31.8057 82.804C31.8057 88.238 39.5538 92.6431 49.1116 92.6431Z" fill="#FFECFA"/>
<path d="M202.993 71.4004C204.535 67.5144 207.38 64.2873 211.038 62.2734L210.86 61.8424L206.735 59.4622C205.566 58.7782 203.929 58.8719 202.142 59.912C200.242 61.1471 198.659 62.8129 197.522 64.7745C196.384 66.7362 195.724 68.9387 195.594 71.2036C195.594 73.2839 196.314 74.7551 197.465 75.4391L201.534 77.8192L202.002 77.0134C201.99 75.0977 202.326 73.1958 202.993 71.4004Z" fill="white"/>
<path d="M81.1135 74.6236C90.6713 74.6236 98.4194 70.2184 98.4194 64.7844C98.4194 59.3504 90.6713 54.9453 81.1135 54.9453C71.5557 54.9453 63.8076 59.3504 63.8076 64.7844C63.8076 70.2184 71.5557 74.6236 81.1135 74.6236Z" fill="#FFECFA"/>
<path d="M155.949 117.728C165.507 117.728 173.255 113.323 173.255 107.889C173.255 102.455 165.507 98.0498 155.949 98.0498C146.392 98.0498 138.644 102.455 138.644 107.889C138.644 113.323 146.392 117.728 155.949 117.728Z" fill="#FFECFA"/>
<path d="M86.7258 113.98C96.2836 113.98 104.032 109.575 104.032 104.141C104.032 98.7069 96.2836 94.3018 86.7258 94.3018C77.168 94.3018 69.4199 98.7069 69.4199 104.141C69.4199 109.575 77.168 113.98 86.7258 113.98Z" fill="url(#paint0_linear_2912_18320)"/>
<path d="M224.63 62.395C220.625 61.0204 216.24 61.2863 212.43 63.135C208.62 64.9836 205.693 68.2653 204.287 72.2654C202.88 76.2655 203.108 80.6602 204.921 84.4926C206.734 88.325 209.985 91.2848 213.966 92.7276C222.273 95.6513 236.071 98.1251 259.532 90.6286C254.957 88.7211 250.636 86.2501 246.67 83.2727C233.761 73.4523 232.928 65.3092 224.63 62.395Z" fill="url(#paint1_linear_2912_18320)"/>
<path d="M131.253 161.189C125.163 161.189 119.092 159.849 114.415 157.169L13.8442 98.9871C9.26051 96.3353 6.74414 92.7932 6.74414 88.9981V83.0571H7.67959V88.9981C7.67959 92.4371 10.0369 95.6981 14.312 98.1719L114.911 156.363C123.928 161.573 138.587 161.583 147.595 156.363L192.048 130.66C196.435 128.12 198.793 124.775 198.681 121.242C198.681 120.202 198.624 118.862 198.624 117.494H199.56C199.56 118.843 199.56 120.174 199.56 121.242C199.691 125.14 197.174 128.786 192.469 131.503L148.016 157.216C143.433 159.849 137.343 161.189 131.253 161.189Z" fill="#081E7A"/>
<path d="M97.8858 137.941L95.4537 136.535L95.9214 135.73L98.3536 137.135L97.8858 137.941ZM93.0215 135.13L90.5893 133.724L91.057 132.918L93.4892 134.324L93.0215 135.13ZM88.1571 132.319L85.7343 130.913L86.202 130.107L88.6249 131.513L88.1571 132.319ZM83.3021 129.507L80.8699 128.102L81.3844 127.315L83.8166 128.72L83.3021 129.507ZM78.4378 126.696L76.0056 125.291L76.4733 124.485L78.9055 125.89L78.4378 126.696ZM73.5828 123.885L71.1506 122.48L71.6183 121.674L74.0505 123.079L73.5828 123.885ZM68.7184 121.074L66.2862 119.668L66.754 118.862L69.1861 120.268L68.7184 121.074ZM63.854 118.263L61.4312 116.857L61.8989 116.051L64.3218 117.457L63.854 118.263ZM58.999 115.452L56.5669 114.046L57.0627 113.259L59.4948 114.664L58.999 115.452ZM54.1347 112.64L51.7025 111.235L52.1702 110.429L54.6024 111.835L54.1347 112.64ZM49.2703 109.829L46.8475 108.424L47.3152 107.618L49.738 109.023L49.2703 109.829ZM44.4153 107.018L41.9831 105.612L42.4509 104.807L44.883 106.212L44.4153 107.018ZM39.551 104.207L37.1188 102.801L37.5865 101.995L40.0187 103.401L39.551 104.207ZM34.696 101.396L32.2638 99.9901L32.7409 99.203L35.173 100.609L34.696 101.396ZM29.8316 98.5845L27.3994 97.1789L27.8671 96.373L30.2993 97.7786L29.8316 98.5845Z" fill="#081E7A"/>
<path d="M130.795 151.275C124.705 151.275 118.634 149.935 113.957 147.255L97.8577 137.941L98.3254 137.135L114.425 146.45C123.433 151.66 138.101 151.66 147.109 146.45L191.59 120.755C195.865 118.281 198.223 115.021 198.223 111.582C198.223 108.143 195.865 104.872 191.59 102.398L90.9821 44.1975C81.9737 38.9875 67.3151 38.9875 58.3067 44.1975L13.854 69.9011C9.57893 72.3749 7.22159 75.6359 7.22159 79.0843C7.22159 82.5327 9.57893 85.7936 13.854 88.2675L25.5565 95.033L25.0888 95.8483L13.3862 89.0733C8.8025 86.4308 6.28613 82.8794 6.28613 79.0843C6.28613 75.2892 8.8025 71.7377 13.3862 69.0952L57.839 43.3823C67.1 38.0223 82.1608 38.0223 91.4498 43.3823L192.058 101.564C196.632 104.216 199.158 107.768 199.158 111.563C199.158 115.358 196.632 118.9 192.058 121.552L147.605 147.255C142.975 149.935 136.885 151.275 130.795 151.275Z" fill="#081E7A"/>
<path d="M80.6457 74.6143C76.3091 74.7025 72.0203 73.6937 68.1761 71.6813C64.7523 69.7415 62.8721 67.1178 62.8721 64.316C62.8721 61.5142 64.743 58.8998 68.1761 56.9507C75.0517 53.0431 86.2397 53.0431 93.1153 56.9507C96.5297 58.8998 98.4193 61.5142 98.4193 64.316C98.4193 67.1178 96.5484 69.7415 93.1153 71.6813C89.2707 73.6926 84.9822 74.7013 80.6457 74.6143ZM80.6457 54.936C76.4699 54.8488 72.3394 55.8155 68.6345 57.7472C65.5194 59.5182 63.8075 61.8421 63.8075 64.3066C63.8075 66.7711 65.5194 69.0856 68.6345 70.866C75.2575 74.6143 86.0339 74.6143 92.6476 70.866C95.7626 69.095 97.4839 66.7711 97.4839 64.3066C97.4839 61.8421 95.7626 59.5276 92.6476 57.7472C88.9452 55.8188 84.8177 54.8553 80.6457 54.9454V54.936Z" fill="#081E7A"/>
<path d="M118.064 96.1665C113.727 96.2548 109.438 95.246 105.594 93.2335C102.17 91.2938 100.29 88.67 100.29 85.8682C100.29 83.0664 102.161 80.452 105.594 78.5029C112.47 74.5954 123.658 74.5954 130.533 78.5029C133.948 80.452 135.837 83.0664 135.837 85.8682C135.837 88.67 133.966 91.2938 130.533 93.2335C126.689 95.2449 122.4 96.2536 118.064 96.1665ZM118.064 76.4882C113.888 76.4011 109.757 77.3678 106.052 79.2994C102.937 81.0705 101.225 83.3944 101.225 85.8588C101.225 88.3233 102.937 90.6378 106.052 92.4183C112.675 96.1665 123.452 96.1665 130.066 92.4183C133.181 90.6472 134.902 88.3233 134.902 85.8588C134.902 83.3944 133.181 81.0798 130.066 79.2994C126.363 77.3711 122.236 76.4075 118.064 76.4976V76.4882Z" fill="#081E7A"/>
<path d="M156.417 118.656C152.081 118.744 147.792 117.735 143.948 115.723C140.524 113.783 138.644 111.159 138.644 108.357C138.644 105.556 140.514 102.941 143.948 100.992C150.823 97.0846 162.011 97.0846 168.887 100.992C172.301 102.941 174.191 105.556 174.191 108.357C174.191 111.159 172.32 113.783 168.887 115.723C165.042 117.733 160.754 118.742 156.417 118.656ZM156.417 98.9775C152.241 98.8903 148.111 99.857 144.406 101.789C141.291 103.56 139.579 105.884 139.579 108.348C139.579 110.813 141.291 113.127 144.406 114.908C151.029 118.656 161.805 118.656 168.419 114.908C171.534 113.136 173.255 110.813 173.255 108.348C173.255 105.884 171.534 103.569 168.419 101.789C164.717 99.8603 160.589 98.8968 156.417 98.9869V98.9775Z" fill="#081E7A"/>
<path d="M48.84 93.3555C44.5034 93.4437 40.2146 92.435 36.3704 90.4225C32.9467 88.4828 31.0664 85.859 31.0664 83.0572C31.0664 80.2554 32.9373 77.641 36.3704 75.6919C43.246 71.7843 54.434 71.7843 61.3096 75.6919C64.724 77.641 66.6136 80.2554 66.6136 83.0572C66.6136 85.859 64.7427 88.4828 61.3096 90.4225C57.465 92.4338 53.1765 93.4425 48.84 93.3555ZM48.84 73.6772C44.6643 73.59 40.5337 74.5568 36.8288 76.4884C33.7137 78.2594 32.0019 80.5833 32.0019 83.0478C32.0019 85.5123 33.7137 87.8268 36.8288 89.6072C43.4518 93.3555 54.2282 93.3555 60.8419 89.6072C63.957 87.8362 65.6782 85.5123 65.6782 83.0478C65.6782 80.5833 63.957 78.2688 60.8419 76.4884C57.1395 74.56 53.012 73.5965 48.84 73.6866V73.6772Z" fill="#081E7A"/>
<path d="M87.1935 114.908C82.8569 114.996 78.5681 113.987 74.7239 111.975C71.3002 110.035 69.4199 107.411 69.4199 104.609C69.4199 101.808 71.2908 99.1932 74.7239 97.2441C81.5995 93.3366 92.7876 93.3366 99.6631 97.2441C103.078 99.1932 104.967 101.808 104.967 104.609C104.967 107.411 103.096 110.035 99.6631 111.975C95.8185 113.986 91.53 114.995 87.1935 114.908ZM87.1935 95.2295C83.0178 95.1423 78.8872 96.109 75.1823 98.0406C72.0673 99.8117 70.3554 102.136 70.3554 104.6C70.3554 107.065 72.0673 109.379 75.1823 111.159C81.8053 114.908 92.5818 114.908 99.1954 111.159C102.31 109.388 104.032 107.065 104.032 104.6C104.032 102.136 102.31 99.821 99.1954 98.0406C95.493 96.1123 91.3655 95.1487 87.1935 95.2388V95.2295Z" fill="#081E7A"/>
<path d="M124.612 136.46C120.275 136.549 115.986 135.54 112.142 133.527C108.718 131.588 106.838 128.964 106.838 126.162C106.838 123.36 108.709 120.746 112.142 118.797C119.017 114.889 130.206 114.889 137.081 118.797C140.496 120.746 142.385 123.36 142.385 126.162C142.385 128.964 140.514 131.588 137.081 133.527C133.237 135.539 128.948 136.547 124.612 136.46ZM124.612 116.782C120.436 116.695 116.305 117.662 112.6 119.593C109.485 121.364 107.773 123.688 107.773 126.153C107.773 128.617 109.485 130.932 112.6 132.712C119.223 136.46 130 136.46 136.613 132.712C139.728 130.941 141.45 128.617 141.45 126.153C141.45 123.688 139.728 121.374 136.613 119.593C132.911 117.664 128.784 116.7 124.612 116.792V116.782Z" fill="#081E7A"/>
<path d="M194.817 75.2794C189.541 73.9019 176.389 70.2099 168.213 65.4683C153.798 57.0348 133.414 42.9789 116.277 29.6258C102.6 18.9433 86.7536 5.44027 88.8677 1.74826C92.6095 -4.81116 156.089 23.3006 183.423 39.1744C190.131 43.0726 197.408 49.3509 204.462 57.3159L203.76 57.9344C196.772 50.0443 189.579 43.8785 182.946 39.9803C152.563 22.2886 92.6095 -2.86208 89.7003 2.21679C88.69 3.95972 95.2007 11.9809 116.828 28.8855C133.938 42.248 154.247 56.2758 168.662 64.6437C176.735 69.329 189.794 73.0117 195.032 74.3704L194.817 75.2794Z" fill="#081E7A"/>
<path d="M201.394 78.016L197.38 75.6546C196.005 74.8487 195.248 73.2089 195.257 71.0349C195.389 68.6991 196.068 66.4274 197.24 64.4037C198.412 62.38 200.043 60.6614 202.002 59.3872C203.872 58.3002 205.687 58.1503 207.062 58.9468L211.122 61.3082L210.655 62.1234L206.585 59.762C205.519 59.1342 204.05 59.2935 202.469 60.2025C200.648 61.3877 199.13 62.9859 198.04 64.8679C196.949 66.7498 196.316 68.8624 196.192 71.0349C196.192 72.909 196.772 74.2209 197.848 74.8393L201.908 77.2007L201.394 78.016Z" fill="#081E7A"/>
<path d="M201.974 78.2879C200.253 77.6507 199.252 75.8796 199.252 73.3964C199.382 71.0531 200.063 68.7738 201.24 66.7447C202.417 64.7155 204.057 62.9939 206.025 61.7207C208.204 60.465 210.262 60.4556 211.637 61.7207L211.02 62.4234C209.935 61.4864 208.279 61.4864 206.474 62.5546C204.649 63.7397 203.129 65.339 202.037 67.2227C200.944 69.1064 200.311 71.2215 200.187 73.3964C200.187 75.4673 200.945 76.9198 202.273 77.407L201.974 78.2879Z" fill="#081E7A"/>
<path d="M231.553 96.045C225.508 96.111 219.496 95.138 213.779 93.1682C211.733 92.4471 209.848 91.3293 208.232 89.8785C206.617 88.4277 205.303 86.6725 204.365 84.7129C202.47 80.7554 202.222 76.2061 203.676 72.0657C205.13 67.9252 208.166 64.5329 212.117 62.635C216.068 60.7371 220.609 60.4891 224.743 61.9454C229.149 63.5009 231.534 66.5183 234.537 70.3789C238.087 75.0877 242.267 79.2846 246.96 82.8512C250.894 85.8237 255.183 88.2917 259.729 90.1978C259.816 90.2344 259.89 90.2974 259.94 90.378C259.991 90.4585 260.015 90.5527 260.009 90.6476C260.009 90.7428 259.978 90.8355 259.92 90.9115C259.863 90.9875 259.783 91.0429 259.691 91.0692C249.298 94.3864 239.972 96.045 231.553 96.045ZM219.392 61.9641C215.727 61.977 212.183 63.2818 209.382 65.6499C206.581 68.0179 204.702 71.298 204.074 74.9151C203.446 78.5322 204.109 82.2554 205.946 85.4319C207.784 88.6083 210.68 91.0354 214.125 92.2874C226.23 96.551 240.655 95.9888 258.194 90.5538C254.008 88.6945 250.047 86.3616 246.389 83.6009C241.648 79.9718 237.433 75.7019 233.863 70.9131C230.832 67.0711 228.643 64.2974 224.509 62.8356C222.865 62.2561 221.135 61.9614 219.392 61.9641Z" fill="#081E7A"/>
<defs>
<linearGradient id="paint0_linear_2912_18320" x1="69.4199" y1="94.3018" x2="86.3298" y2="124.044" gradientUnits="userSpaceOnUse">
<stop stop-color="#E64C4E"/>
<stop offset="1" stop-color="#EF33F9"/>
</linearGradient>
<linearGradient id="paint1_linear_2912_18320" x1="203.375" y1="61.5269" x2="233.58" y2="111.327" gradientUnits="userSpaceOnUse">
<stop stop-color="#E64C4E"/>
<stop offset="1" stop-color="#EF33F9"/>
</linearGradient>
</defs>
</svg>
