<svg width="183" height="183" viewBox="0 0 183 183" fill="none" xmlns="http://www.w3.org/2000/svg">
<path opacity="0.08" d="M87.496 83L67.9826 94.1496L30.0066 115.85L4.55812 130.392C2.5427 131.543 2.5426 134.449 4.55794 135.601L83.5267 180.732C85.9863 182.137 89.0058 182.137 91.4654 180.732L170.442 135.601C172.457 134.449 172.457 131.543 170.441 130.391L87.496 83Z" fill="black"/>
<path d="M183 41.4422L111.413 0C111.413 0 103.024 6.43328 101.357 12.4685L83.7936 72.478C83.658 72.9218 83.6424 73.3938 83.7484 73.8457C83.8543 74.2976 84.0781 74.7131 84.3968 75.0497L84.1825 74.9382L11 117.439V131.89L87.1905 176L163.381 131.867V117.439L161.23 115.847L183 41.4422Z" fill="white"/>
<path d="M121.13 111.395C97.6978 98.4527 68.3155 102.155 51.7979 111.194C43.1523 115.927 38.5822 122.462 38 128.596L86.8509 157L135 128.942C134.601 123.34 130.717 116.691 121.13 111.395Z" fill="url(#paint0_linear_3156_18992)"/>
<path d="M116.679 114.789C100.282 105.737 73.6952 105.737 57.2982 114.789C48.7157 119.528 44.6304 125.807 45.0262 132.013L87.2735 157L128.84 132.521C129.838 125.928 126.219 120.06 116.679 114.789Z" fill="white"/>
<path d="M87 161.126V176L163 131.537V117L87 161.126Z" fill="url(#paint1_linear_3156_18992)"/>
<path d="M87 78V88.201L146.395 122L155 116.848L87 78Z" fill="#FFECFA"/>
<path d="M19 116.831L27.7785 122L87 88.0402L86.8189 78L19 116.831Z" fill="url(#paint2_linear_3156_18992)"/>
<path d="M87.1824 73L11 117.06L87 161L163 117.052L87.1824 73ZM18.692 117.06L87 77.599L155.3 117.099L87 156.6L18.692 117.06Z" fill="white"/>
<path d="M110 1C105.643 3.68662 102.436 7.84917 100.986 12.7018L83.1103 72.5775C82.9573 73.089 82.9636 73.6339 83.1283 74.1418C83.2931 74.6498 83.6087 75.0976 84.0345 75.4275C84.4604 75.7575 84.977 75.9544 85.5177 75.993C86.0584 76.0316 86.5984 75.91 87.0682 75.644L89.1118 74.4841L108.926 8.08625L110 1Z" fill="#FFECFA"/>
<path d="M111.4 0L110.185 0.683129C109.521 1.07088 108.969 1.62898 108.586 2.30125C108.202 2.97352 108 3.73625 108 4.51267C108 5.28909 108.202 6.05182 108.586 6.72409C108.969 7.39636 109.521 7.95445 110.185 8.34221L167.735 41.9682C170.012 43.2993 172.595 44 175.225 44C177.854 44 180.437 43.2993 182.714 41.9682L183 41.7994L111.4 0Z" fill="url(#paint3_linear_3156_18992)"/>
<path d="M161.038 115.523L159.116 116.631C158.642 116.905 158.096 117.031 157.55 116.993C157.003 116.956 156.48 116.756 156.049 116.419C155.618 116.083 155.298 115.625 155.131 115.106C154.963 114.586 154.957 114.029 155.111 113.506L173.156 52.3363C174.435 47.9671 177.355 44.2559 181.31 41.9726L183 41L161.038 115.523Z" fill="#FFECFA"/>
<path d="M86.9883 161C86.9189 160.999 86.8511 160.98 86.7911 160.945L11.1974 117.375C11.1361 117.342 11.0851 117.293 11.0502 117.234C11.0154 117.174 10.998 117.105 11.0002 117.036C10.9989 116.967 11.0167 116.899 11.0514 116.84C11.0862 116.78 11.1367 116.731 11.1974 116.698L83.5887 75L83.9831 75.6766L12.207 117.028L87.0119 160.111L161.817 117.028L160.176 116.084L160.571 115.408L162.803 116.69C162.862 116.724 162.912 116.774 162.947 116.833C162.981 116.892 163 116.96 163 117.028C163 117.097 162.982 117.165 162.948 117.224C162.913 117.284 162.863 117.333 162.803 117.367L87.2091 160.906C87.145 160.956 87.0689 160.988 86.9883 161Z" fill="#081E7A"/>
<path d="M89.2796 74.1174L88.8828 74.8047L154.884 112.911L155.281 112.223L89.2796 74.1174Z" fill="#081E7A"/>
<path d="M134.234 129C133.215 122.621 128.327 116.553 120.477 111.976C101.737 101.052 71.2468 101.052 52.5149 111.976C44.752 116.497 39.8795 122.47 38.7897 128.785L38 128.649C39.1293 122.095 44.136 115.891 52.1042 111.283C71.0572 100.239 101.903 100.239 120.856 111.283C128.919 115.987 133.942 122.23 135 128.872L134.234 129Z" fill="#081E7A"/>
<path d="M128.927 133L128.133 132.919C128.816 126.461 124.418 120.14 116.084 115.546C99.7726 106.553 73.2217 106.553 56.9182 115.546C48.8219 120.011 44.4166 126.154 44.8214 132.419L44.0277 132.467C43.5991 125.88 48.1631 119.454 56.5372 114.836C73.063 105.721 99.9393 105.721 116.457 114.836C125.093 119.567 129.641 126.186 128.927 133Z" fill="#081E7A"/>
<path d="M107.091 116C110.403 116 113.047 117.512 112.999 119.44C112.952 121.368 110.22 122.968 106.909 123C103.597 123.032 100.945 121.48 101.001 119.552C101.056 117.624 103.78 116 107.091 116Z" fill="#FFECFA"/>
<path d="M107.31 123C105.043 123 103.017 122.303 101.888 121.129C101.605 120.862 101.381 120.538 101.228 120.178C101.075 119.818 100.997 119.429 101 119.037C101.057 116.805 103.954 115.033 107.585 115C109.893 115 111.958 115.673 113.112 116.863C113.392 117.132 113.614 117.457 113.767 117.816C113.92 118.176 113.999 118.563 114 118.955C113.944 121.187 111.047 122.967 107.407 123H107.31ZM107.682 115.821H107.593C104.502 115.821 101.847 117.33 101.807 119.062C101.808 119.343 101.866 119.621 101.979 119.878C102.091 120.136 102.255 120.366 102.461 120.555C103.839 121.725 105.607 122.312 107.399 122.196C110.498 122.196 113.145 120.678 113.193 118.914C113.191 118.634 113.132 118.357 113.019 118.102C112.907 117.846 112.743 117.617 112.539 117.429C111.17 116.285 109.426 115.711 107.657 115.821H107.682Z" fill="#081E7A"/>
<path d="M80.5023 119.998C78.9213 120.028 77.361 119.646 75.9828 118.894C75.3954 118.655 74.8938 118.253 74.541 117.738C74.1882 117.223 74 116.618 74 116C74 115.382 74.1882 114.777 74.541 114.262C74.8938 113.747 75.3954 113.345 75.9828 113.106C77.3732 112.38 78.9274 112 80.5063 112C82.0851 112 83.6393 112.38 85.0297 113.106C85.6141 113.348 86.1125 113.751 86.4629 114.266C86.8132 114.78 87 115.383 87 116C87 116.617 86.8132 117.22 86.4629 117.734C86.1125 118.249 85.6141 118.652 85.0297 118.894C83.6483 119.646 82.0857 120.027 80.5023 119.998ZM80.5023 112.759C79.065 112.732 77.6469 113.082 76.3966 113.771C75.9289 113.941 75.5258 114.245 75.2412 114.644C74.9566 115.042 74.804 115.515 74.804 116C74.804 116.485 74.9566 116.958 75.2412 117.356C75.5258 117.755 75.9289 118.059 76.3966 118.229C77.6577 118.891 79.0687 119.238 80.5023 119.238C81.9359 119.238 83.3469 118.891 84.608 118.229C85.0756 118.059 85.4788 117.755 85.7634 117.356C86.048 116.958 86.2005 116.485 86.2005 116C86.2005 115.515 86.048 115.042 85.7634 114.644C85.4788 114.245 85.0756 113.941 84.608 113.771C83.3577 113.082 81.9396 112.732 80.5023 112.759Z" fill="#081E7A"/>
<path d="M51.0717 127.398C50.5033 125.208 53.377 123.222 57.4745 123.018C61.572 122.813 65.3694 124.397 65.93 126.602C66.4905 128.807 63.6247 130.778 59.5193 130.982C55.4139 131.187 51.6322 129.61 51.0717 127.398Z" fill="#FFECFA"/>
<path d="M58.2279 132C54.1617 132 50.6638 130.142 50.0795 127.567C49.9742 127.093 49.9735 126.599 50.0775 126.125C50.1815 125.65 50.3874 125.206 50.6798 124.826C51.8004 123.251 54.1457 122.201 56.9392 122.026C61.3496 121.751 65.2957 123.692 65.9201 126.434C66.0253 126.908 66.0266 127.4 65.9241 127.875C65.8216 128.349 65.6177 128.794 65.3277 129.175C64.1991 130.758 61.8539 131.8 59.0603 131.975L58.2279 132ZM57.7636 122.834H56.9632C54.4418 122.993 52.2646 123.934 51.2961 125.334C51.073 125.616 50.9152 125.947 50.8347 126.303C50.7542 126.658 50.7532 127.028 50.8319 127.384C51.3601 129.709 55.0261 131.4 58.9883 131.15C61.5097 131 63.6869 130.05 64.6634 128.692C64.8835 128.409 65.0389 128.077 65.118 127.722C65.197 127.367 65.1976 126.998 65.1196 126.642C64.6474 124.442 61.4216 122.834 57.7636 122.834Z" fill="#081E7A"/>
<path d="M67.3538 146V145.162C71.0195 145.162 74.1604 143.178 74.2129 140.908C74.2145 140.538 74.149 140.171 74.0201 139.83C73.8913 139.488 73.7018 139.18 73.4633 138.923C72.2938 137.591 70.075 136.771 67.6162 136.812C63.9505 136.812 60.8096 138.797 60.7496 141.067H60C60.0675 138.27 63.4108 136.042 67.6087 136C70.2998 136 72.6687 136.838 73.9955 138.362C74.313 138.693 74.566 139.094 74.7389 139.539C74.9117 139.984 75.0006 140.464 75 140.95C74.8876 143.73 71.5517 145.958 67.3538 146Z" fill="#081E7A"/>
<path d="M98.2433 147.976C96.9395 148.648 95.4814 149 94 149C92.5186 149 91.0605 148.648 89.7567 147.976C87.4144 146.611 87.4144 144.389 89.7567 143.024C91.0605 142.352 92.5186 142 94 142C95.4814 142 96.9395 142.352 98.2433 143.024C100.586 144.389 100.586 146.611 98.2433 147.976Z" fill="#FFECFA"/>
<path d="M94.503 148.999C92.921 149.027 91.3597 148.646 89.9795 147.895C89.4193 147.621 88.9423 147.21 88.5953 146.703C88.2482 146.196 88.0431 145.61 88 145.002C88.04 144.394 88.2438 143.807 88.5912 143.299C88.9386 142.791 89.4174 142.381 89.9795 142.109C91.3707 141.381 92.9264 141 94.5069 141C96.0874 141 97.6432 141.381 99.0344 142.109C99.6178 142.352 100.115 142.755 100.464 143.269C100.814 143.784 101 144.386 101 145.002C101 145.618 100.814 146.221 100.464 146.735C100.115 147.249 99.6178 147.653 99.0344 147.895C97.6513 148.646 96.0875 149.027 94.503 148.999ZM94.503 141.762C93.0646 141.737 91.6454 142.086 90.3929 142.773C89.923 142.941 89.5175 143.244 89.231 143.643C88.9446 144.042 88.791 144.516 88.791 145.002C88.791 145.488 88.9446 145.962 89.231 146.361C89.5175 146.76 89.923 147.064 90.3929 147.232C91.655 147.899 93.0689 148.249 94.5059 148.25C95.943 148.252 97.3576 147.904 98.621 147.239C99.0909 147.071 99.4964 146.768 99.7828 146.369C100.069 145.97 100.223 145.496 100.223 145.01C100.223 144.524 100.069 144.05 99.7828 143.651C99.4964 143.252 99.0909 142.948 98.621 142.78C97.3678 142.087 95.9451 141.735 94.503 141.762Z" fill="#081E7A"/>
<path d="M112.87 138C110.255 138 107.736 137.164 106.595 135.8C106.321 135.507 106.132 135.149 106.049 134.762C105.965 134.375 105.99 133.974 106.119 133.599C106.547 132.457 107.958 131.583 109.97 131.2C113.242 130.578 116.942 131.453 118.408 133.193C118.683 133.487 118.871 133.847 118.953 134.235C119.036 134.623 119.009 135.026 118.875 135.401C118.447 136.543 117.045 137.417 115.025 137.801C114.314 137.932 113.593 137.999 112.87 138ZM112.125 131.767C111.455 131.766 110.786 131.828 110.128 131.951C108.433 132.273 107.189 133.001 106.864 133.86C106.78 134.11 106.768 134.378 106.829 134.635C106.891 134.892 107.023 135.127 107.213 135.317C108.48 136.85 111.919 137.617 114.874 137.049C116.562 136.727 117.814 135.991 118.131 135.133C118.218 134.883 118.232 134.615 118.172 134.358C118.112 134.101 117.98 133.865 117.79 133.676C116.8 132.495 114.494 131.767 112.125 131.767Z" fill="#081E7A"/>
<path d="M92.8039 128.175C95.732 129.775 95.732 132.271 92.8039 133.83C91.1391 134.601 89.3303 135 87.5 135C85.6697 135 83.8609 134.601 82.1961 133.83C79.268 132.231 79.268 129.735 82.1961 128.175C83.8599 127.401 85.6691 127 87.5 127C89.3309 127 91.1401 127.401 92.8039 128.175Z" fill="#FFECFA"/>
<path d="M87.5188 134.997C85.6994 135.043 83.8957 134.62 82.2556 133.764C80.7519 132.947 80 131.763 80 130.497C80 129.232 80.812 128.097 82.2556 127.231C83.8964 126.42 85.6783 126 87.4812 126C89.2841 126 91.066 126.42 92.7068 127.231C94.2105 128.048 95 129.232 95 130.497C95 131.763 94.188 132.947 92.7068 133.764C91.0895 134.608 89.3129 135.03 87.5188 134.997ZM87.5188 126.831C85.834 126.794 84.1649 127.189 82.6466 127.983C81.4211 128.677 80.7519 129.616 80.7519 130.506C80.7519 131.396 81.4211 132.335 82.6466 133.037C84.18 133.8 85.847 134.195 87.5338 134.195C89.2207 134.195 90.8876 133.8 92.4211 133.037C93.6466 132.335 94.3158 131.404 94.3158 130.506C94.3158 129.607 93.6466 128.677 92.4211 127.983C90.8937 127.184 89.2137 126.789 87.5188 126.831Z" fill="#081E7A"/>
<path d="M86.5553 131.294C87.1482 131.684 87.1482 132.296 86.5553 132.706C86.2214 132.9 85.8612 133 85.4972 133C85.1331 133 84.773 132.9 84.439 132.706C83.8537 132.316 83.8537 131.704 84.439 131.294C84.773 131.1 85.1331 131 85.4972 131C85.8612 131 86.2214 131.1 86.5553 131.294Z" fill="#081E7A"/>
<path d="M87.7059 128.146C88.098 128.341 88.098 128.659 87.7059 128.854C87.4852 128.95 87.2441 129 87 129C86.7559 129 86.5148 128.95 86.2941 128.854C85.902 128.659 85.902 128.341 86.2941 128.146C86.5148 128.05 86.7559 128 87 128C87.2441 128 87.4852 128.05 87.7059 128.146Z" fill="#081E7A"/>
<path d="M91.7038 129.291C91.7926 129.356 91.8675 129.457 91.9199 129.582C91.9722 129.708 92 129.852 92 130C92 130.148 91.9722 130.292 91.9199 130.418C91.8675 130.543 91.7926 130.644 91.7038 130.709C91.4897 130.899 91.2451 131 90.9959 131C90.7467 131 90.5021 130.899 90.2881 130.709C90.2012 130.641 90.1285 130.54 90.0777 130.415C90.0269 130.29 90 130.146 90 130C90 129.854 90.0269 129.71 90.0777 129.585C90.1285 129.46 90.2012 129.359 90.2881 129.291C90.5021 129.101 90.7467 129 90.9959 129C91.2451 129 91.4897 129.101 91.7038 129.291Z" fill="#081E7A"/>
<path d="M80.0364 145C77.5438 143.75 77.3049 141.581 79.5108 140.166C81.7167 138.751 85.5074 138.594 88 139.859L80.0364 145Z" fill="url(#paint4_linear_3156_18992)"/>
<path d="M80.2509 145C80.192 145.003 80.1335 144.989 80.0811 144.959C78.797 144.236 78.0517 143.213 78 142.068C78.0086 141.49 78.1575 140.924 78.4313 140.43C78.705 139.936 79.0937 139.532 79.5572 139.258C81.6899 137.723 85.3873 137.569 87.8005 138.925C87.8584 138.957 87.9075 139.006 87.9425 139.066C87.9776 139.126 87.9974 139.195 87.9997 139.266C88.0022 139.337 87.9878 139.407 87.958 139.47C87.9282 139.533 87.8841 139.586 87.83 139.624L80.4501 144.935C80.3917 144.979 80.3219 145.002 80.2509 145ZM83.9408 138.795C82.5446 138.76 81.1672 139.154 79.963 139.932C79.6093 140.132 79.3098 140.431 79.0947 140.799C78.8796 141.167 78.7565 141.59 78.738 142.027C78.8071 142.484 78.9781 142.914 79.2357 143.28C79.4934 143.646 79.8295 143.935 80.214 144.123L86.8559 139.356C85.9223 138.979 84.9351 138.789 83.9408 138.795Z" fill="#081E7A"/>
<path d="M91.5057 117C90.2035 115.221 91.5057 113.117 94.3844 112.312C97.2631 111.508 100.69 112.312 102 114.092L91.5057 117Z" fill="url(#paint5_linear_3156_18992)"/>
<path d="M90.9763 117C90.913 117 90.8504 116.988 90.7934 116.965C90.7365 116.942 90.6867 116.909 90.6479 116.867C90.3467 116.573 90.1413 116.219 90.0513 115.84C89.9614 115.461 89.99 115.069 90.1343 114.702C90.5806 113.595 92.0119 112.712 94.0579 112.27C97.4257 111.57 101.349 112.27 102.907 113.924C102.952 113.969 102.983 114.023 102.994 114.081C103.006 114.139 102.999 114.198 102.974 114.253C102.953 114.308 102.916 114.357 102.866 114.396C102.816 114.436 102.755 114.463 102.688 114.477L91.0858 116.993L90.9763 117ZM96.7942 112.684C95.942 112.681 95.093 112.771 94.2683 112.95C92.5255 113.321 91.2794 114.064 90.9005 114.926C90.8095 115.145 90.7818 115.38 90.8199 115.61C90.8579 115.84 90.9605 116.059 91.1194 116.25L101.745 113.952C100.321 113.08 98.586 112.633 96.8195 112.684H96.7942Z" fill="#081E7A"/>
<path d="M77 126.996C74.0204 127.086 70.9708 125.604 70.1851 123.67C69.3993 121.735 71.1886 120.099 74.1682 120L77 126.996Z" fill="url(#paint6_linear_3156_18992)"/>
<path d="M77.3045 127C74.1066 127 71.0846 125.643 70.2292 123.807C70.066 123.493 69.9876 123.141 70.0016 122.787C70.0156 122.433 70.1216 122.089 70.3091 121.788C70.9647 120.726 72.5956 120.056 74.6662 120C74.7441 120 74.8204 120.022 74.8867 120.063C74.953 120.104 75.0067 120.162 75.042 120.231L77.952 126.401C77.9835 126.46 78 126.526 78 126.593C78 126.66 77.9835 126.726 77.952 126.785C77.9166 126.84 77.8683 126.887 77.8113 126.92C77.7543 126.953 77.6902 126.972 77.6242 126.976L77.3045 127ZM74.4344 120.838C72.7795 120.926 71.4684 121.453 70.9887 122.235C70.8786 122.427 70.8207 122.644 70.8207 122.865C70.8207 123.087 70.8786 123.304 70.9887 123.496C71.6602 124.925 74.3225 126.098 76.9927 126.194L74.4344 120.838Z" fill="#081E7A"/>
<path d="M108.643 125C109.735 126.96 108.238 128.739 105.299 128.974C102.36 129.21 99.0918 127.799 98 125.839L108.643 125Z" fill="url(#paint7_linear_3156_18992)"/>
<path d="M104.198 130C101.253 130 98.1451 128.508 97.0467 126.492C97.0161 126.432 97 126.364 97 126.296C97 126.227 97.0161 126.159 97.0467 126.099C97.0755 126.036 97.1195 125.983 97.1742 125.944C97.2289 125.905 97.2925 125.882 97.3583 125.878L108.217 125.001C108.291 124.996 108.365 125.013 108.431 125.049C108.497 125.085 108.552 125.139 108.591 125.206C108.834 125.606 108.973 126.065 108.997 126.539C109.02 127.013 108.926 127.486 108.724 127.91C108.14 129.066 106.737 129.82 104.868 129.967C104.645 129.99 104.422 130.001 104.198 130ZM98.0984 126.64C99.3993 128.279 102.235 129.361 104.805 129.156C106.363 129.025 107.586 128.418 108.038 127.517C108.167 127.257 108.234 126.969 108.234 126.677C108.234 126.384 108.167 126.096 108.038 125.837L98.0984 126.64Z" fill="#081E7A"/>
<path d="M93.6449 125.988C92.5459 125.808 91.4822 125.451 90.4938 124.929C89.3 124.407 88.1224 123.828 88.0006 122.934C87.9919 122.639 88.0845 122.35 88.2624 122.117C88.4404 121.884 88.6924 121.722 88.9751 121.659C89.1704 121.587 89.3766 121.551 89.5842 121.551C89.402 121.275 89.3057 120.949 89.3081 120.616C89.3305 120.337 89.4291 120.071 89.5928 119.847C89.7565 119.623 89.9787 119.451 90.2339 119.349C90.7619 119.107 91.3363 118.988 91.9152 119.001C92.494 119.014 93.0628 119.158 93.5799 119.424C93.8266 119.569 94.0315 119.778 94.174 120.029C94.3166 120.28 94.3918 120.566 94.3921 120.856H94.4895C94.8263 120.73 95.1871 120.686 95.5435 120.726C95.9 120.766 96.2425 120.89 96.5442 121.088C96.6817 121.176 96.7954 121.298 96.8748 121.443C96.9543 121.587 96.9969 121.75 96.999 121.915C97.0477 123.05 95.3179 124.755 93.856 125.972C93.7898 126.002 93.715 126.008 93.6449 125.988ZM89.6329 122.379C89.4982 122.377 89.3639 122.397 89.235 122.437C88.9264 122.545 88.7964 122.743 88.8046 122.818C88.8777 123.323 90.2827 123.935 90.8105 124.167C91.0867 124.283 92.9546 124.995 93.5068 125.169C95.1798 123.745 96.2356 122.47 96.2112 121.899C96.2082 121.866 96.1978 121.833 96.1809 121.805C96.1641 121.776 96.1411 121.752 96.1138 121.733C95.9149 121.613 95.6925 121.539 95.4623 121.516C95.2321 121.493 94.9998 121.522 94.7819 121.601C94.6635 121.627 94.5525 121.681 94.457 121.756C94.3614 121.832 94.2837 121.929 94.2296 122.04C94.1973 122.149 94.1235 122.242 94.0245 122.296C93.9256 122.35 93.8094 122.362 93.7017 122.329C93.594 122.296 93.5036 122.221 93.4503 122.12C93.397 122.019 93.3852 121.901 93.4175 121.791C93.6936 120.906 93.6124 120.425 93.1251 120.136C92.7268 119.946 92.2938 119.845 91.8544 119.838C91.415 119.831 90.9791 119.918 90.575 120.094C90.2583 120.26 90.0959 120.45 90.0877 120.657C90.0877 121.021 90.4776 121.526 91.0542 121.891C91.1334 121.945 91.1913 122.026 91.2177 122.12C91.2441 122.213 91.2373 122.313 91.1986 122.402C91.1598 122.491 91.0915 122.563 91.0056 122.606C90.9198 122.649 90.822 122.659 90.7293 122.636H90.6319C90.3132 122.5 89.9765 122.414 89.6329 122.379Z" fill="#081E7A"/>
<path d="M71.3362 133.995C70.9343 134.016 70.5317 133.965 70.1526 133.846C69.7734 133.726 69.4255 133.539 69.1295 133.298C68.9699 133.131 68.8692 132.927 68.8398 132.71C68.8103 132.493 68.8535 132.273 68.964 132.077C68.8068 132.091 68.6484 132.091 68.4912 132.077C68.237 132.078 67.9859 132.029 67.7556 131.934C67.5254 131.838 67.3218 131.699 67.1593 131.526C67.0847 131.439 67.0343 131.337 67.0124 131.229C66.9905 131.121 66.9976 131.01 67.0332 130.905C67.2539 130.173 68.8931 129.197 71.9036 128.018C72.3371 127.843 74.0315 128.994 74.5438 129.35C75.1979 129.81 76.3012 130.578 75.9229 131.443C75.7871 131.664 75.5902 131.852 75.3505 131.989C75.1108 132.125 74.836 132.206 74.5517 132.224C74.2884 132.257 74.0204 132.242 73.7636 132.182C73.8044 132.401 73.7855 132.626 73.7084 132.838C73.5926 133.114 73.3946 133.358 73.1352 133.544C72.8758 133.729 72.5647 133.849 72.2346 133.891C71.9413 133.959 71.6394 133.994 71.3362 133.995ZM70.0516 130.975C70.1506 130.975 70.2463 131.007 70.3196 131.066C70.3563 131.098 70.3854 131.136 70.4053 131.178C70.4252 131.22 70.4355 131.265 70.4355 131.31C70.4355 131.356 70.4252 131.401 70.4053 131.442C70.3854 131.484 70.3563 131.522 70.3196 131.554C69.4448 132.412 69.5315 132.726 69.7048 132.886C70.0346 133.096 70.4129 133.238 70.8123 133.302C71.2117 133.365 71.6222 133.35 72.014 133.256C72.211 133.232 72.3983 133.166 72.5592 133.062C72.72 132.959 72.8495 132.822 72.936 132.663C72.9729 132.498 72.9642 132.328 72.9107 132.166C72.8572 132.005 72.7604 131.857 72.6287 131.736C72.5691 131.672 72.5365 131.592 72.5365 131.509C72.5365 131.426 72.5691 131.346 72.6287 131.282C72.6904 131.221 72.774 131.179 72.8657 131.166C72.9573 131.152 73.0516 131.166 73.1331 131.205L73.204 131.247C73.5556 131.484 73.9923 131.601 74.4334 131.575C74.5783 131.569 74.7198 131.534 74.8479 131.474C74.976 131.414 75.0874 131.329 75.1742 131.226C75.3397 130.864 74.3861 130.229 74.0394 129.957C73.8502 129.824 72.4632 128.973 72.0613 128.764C68.9089 130.027 67.7504 130.905 67.774 131.164C67.8686 131.253 67.9834 131.324 68.111 131.372C68.2386 131.421 68.3762 131.444 68.5148 131.443C68.9616 131.472 69.4033 131.344 69.7442 131.087C69.7829 131.049 69.8305 131.02 69.8837 131C69.9369 130.981 69.9942 130.972 70.0516 130.975Z" fill="#081E7A"/>
<path d="M98.1802 140C97.9955 140.002 97.8109 139.988 97.6284 139.957C97.3466 139.933 97.0749 139.831 96.8384 139.66C96.602 139.489 96.4085 139.255 96.2759 138.98C96.2379 138.835 96.2379 138.681 96.2759 138.535C95.0867 138.621 93.7653 138.415 93.2057 137.524C93.0995 137.362 93.0319 137.172 93.0088 136.973C92.9858 136.774 93.008 136.572 93.0735 136.385C93.2027 136.081 93.3953 135.814 93.6358 135.607C93.8762 135.4 94.1576 135.259 94.4571 135.195C95.2281 135.016 96.0263 135.037 96.7889 135.255V135.152C96.7889 134.904 96.9366 134.296 97.9393 134.047C99.626 133.653 102.362 135.82 103.854 137.156C103.909 137.203 103.95 137.265 103.975 137.336C103.999 137.407 104.006 137.484 103.994 137.559C103.994 137.679 103.924 138.038 101.173 139.22C100.227 139.681 99.2128 139.945 98.1802 140ZM97.4962 137.43C97.5749 137.431 97.6517 137.457 97.7168 137.506C97.7818 137.555 97.8322 137.624 97.8616 137.704C97.8949 137.803 97.8944 137.911 97.86 138.009C97.8256 138.107 97.7598 138.187 97.675 138.235L97.5973 138.278C97.4263 138.381 97.061 138.586 97.0143 138.706C97.2141 138.92 97.4752 139.05 97.7527 139.075C98.8111 139.119 99.8638 138.884 100.823 138.389C101.041 138.295 102.207 137.739 102.859 137.396C101.149 135.94 99.1052 134.595 98.0481 134.827C97.6439 134.921 97.504 135.075 97.504 135.135C97.504 135.195 97.6672 135.46 98.087 135.614C98.1842 135.653 98.2642 135.732 98.3105 135.834C98.3568 135.936 98.3658 136.054 98.3357 136.163C98.3191 136.216 98.293 136.266 98.259 136.308C98.2249 136.351 98.1835 136.385 98.1373 136.41C98.091 136.435 98.0408 136.449 97.9894 136.452C97.9381 136.455 97.8867 136.447 97.8382 136.428C96.823 135.969 95.7164 135.809 94.6281 135.966C94.4499 135.995 94.2803 136.07 94.1332 136.184C93.986 136.299 93.8653 136.45 93.7808 136.625C93.7577 136.682 93.7491 136.745 93.756 136.807C93.7628 136.869 93.7849 136.927 93.8197 136.976C94.2783 137.704 96.0738 137.833 97.403 137.413L97.4962 137.43Z" fill="#081E7A"/>
<path d="M83.7364 152H83.5811C82.9533 151.978 82.3496 151.784 81.8561 151.447C81.6749 151.315 81.5528 151.133 81.5111 150.931C80.901 151.076 80.2636 151.112 79.6369 151.039C79.0101 150.966 78.4067 150.784 77.8625 150.505C77.6068 150.377 77.3932 150.195 77.2421 149.975C77.0911 149.755 77.0077 149.505 77 149.249C77.0159 149.069 77.0864 148.895 77.2045 148.745C77.3226 148.595 77.4841 148.475 77.6728 148.397C78.2475 148.19 78.8747 148.115 79.4927 148.18C79.4516 148.105 79.4254 148.024 79.4151 147.941C79.382 147.76 79.4269 147.574 79.5415 147.42C79.656 147.266 79.8321 147.153 80.0361 147.104C81.2695 146.626 84.9094 147.889 87.7472 149.033C87.8144 149.062 87.8723 149.106 87.9159 149.159C87.9594 149.212 87.9874 149.274 87.9973 149.339C88.075 149.795 86.4361 150.991 86.4189 150.998C85.6985 151.608 84.7427 151.965 83.7364 152ZM82.3477 150.841C82.3656 150.867 82.389 150.89 82.4167 150.909C82.7646 151.133 83.1825 151.26 83.6156 151.275C84.4541 151.272 85.2572 150.982 85.8496 150.468C85.9704 150.37 86.5483 149.892 86.9019 149.563C83.1326 148.068 80.9159 147.612 80.3725 147.829C80.3196 147.848 80.2702 147.873 80.2259 147.904C80.5441 148.203 80.9755 148.394 81.4421 148.442C81.5539 148.46 81.653 148.516 81.7176 148.597C81.7823 148.678 81.8072 148.778 81.7871 148.876C81.7641 148.973 81.698 149.059 81.6029 149.115C81.5078 149.171 81.3913 149.192 81.2782 149.175C80.6571 149.07 78.7682 148.748 78.035 149.085C77.8367 149.175 77.828 149.279 77.828 149.309C77.828 149.451 77.9488 149.69 78.3283 149.907C78.893 150.174 79.5228 150.322 80.166 150.337C80.8092 150.353 81.4475 150.236 82.0286 149.997C82.116 149.956 82.217 149.943 82.3144 149.959C82.4118 149.976 82.4997 150.02 82.5634 150.086C82.6257 150.153 82.6597 150.236 82.6597 150.322C82.6597 150.408 82.6257 150.491 82.5634 150.557C82.474 150.643 82.3985 150.738 82.3391 150.841H82.3477Z" fill="#081E7A"/>
<path d="M64.8944 120.968C63.9339 120.769 63.0066 120.397 62.1467 119.867C61.1091 119.333 60.093 118.741 60 117.845C60.0053 117.552 60.0965 117.269 60.2587 117.043C60.421 116.816 60.6449 116.659 60.8945 116.596C61.0728 116.532 61.2585 116.499 61.4454 116.498C61.299 116.227 61.2244 115.913 61.2308 115.594C61.253 115.312 61.345 115.043 61.4958 114.818C61.6467 114.594 61.8501 114.424 62.0823 114.328C62.5488 114.094 63.0552 113.982 63.5641 114.002C64.0731 114.022 64.5717 114.173 65.0232 114.443C65.2416 114.588 65.4228 114.797 65.5485 115.048C65.6741 115.299 65.7398 115.584 65.7388 115.873H65.8461C66.1416 115.76 66.4555 115.726 66.7642 115.773C67.0729 115.82 67.3682 115.947 67.6279 116.144C67.7437 116.236 67.8383 116.359 67.9032 116.502C67.968 116.645 68.0013 116.805 68 116.966C68 118.1 66.44 119.768 65.1377 120.968C65.0998 120.989 65.0582 121 65.0161 121C64.9739 121 64.9324 120.989 64.8944 120.968ZM61.4311 117.319C61.3197 117.322 61.209 117.341 61.102 117.377C60.8229 117.484 60.6941 117.681 60.7013 117.763C60.7442 118.256 61.9535 118.881 62.4114 119.111C62.6547 119.242 64.2719 119.982 64.7513 120.146C66.6046 118.453 67.2629 117.352 67.2486 116.925C67.25 116.894 67.2441 116.863 67.2315 116.836C67.2189 116.808 67.2001 116.785 67.1771 116.769C67.007 116.647 66.8151 116.57 66.6157 116.544C66.4163 116.519 66.2144 116.545 66.025 116.621C65.9163 116.648 65.8136 116.7 65.7236 116.775C65.6336 116.85 65.5583 116.946 65.5027 117.056C65.4872 117.11 65.4625 117.16 65.4302 117.203C65.3979 117.246 65.3586 117.282 65.3144 117.307C65.2702 117.333 65.2221 117.348 65.1727 117.352C65.1234 117.357 65.0738 117.35 65.0268 117.332C64.9798 117.314 64.9364 117.286 64.8989 117.249C64.8614 117.211 64.8307 117.166 64.8084 117.116C64.7861 117.065 64.7728 117.01 64.7691 116.953C64.7655 116.896 64.7716 116.839 64.7871 116.785C65.059 115.914 65.0018 115.438 64.5939 115.142C64.2455 114.947 63.8649 114.839 63.4774 114.827C63.09 114.814 62.7046 114.896 62.347 115.068C62.0537 115.224 61.9034 115.421 61.8962 115.635C61.8962 115.996 62.2111 116.457 62.6977 116.851C62.7722 116.903 62.8274 116.984 62.8526 117.08C62.8777 117.175 62.8709 117.278 62.8336 117.369C62.7974 117.461 62.7328 117.535 62.6523 117.575C62.5718 117.616 62.4809 117.622 62.3971 117.591H62.3184C62.0366 117.448 61.7373 117.357 61.4311 117.319Z" fill="#081E7A"/>
<path d="M115.619 129.987H115.45C113.464 129.87 112.39 126.596 112.014 125.194C111.999 125.128 111.996 125.06 112.006 124.994C112.015 124.927 112.037 124.863 112.07 124.807C112.262 124.492 114.153 124.24 115.707 124.096C117.012 123.971 118.494 123.881 119.456 124.411C119.726 124.52 119.948 124.741 120.075 125.03C120.202 125.319 120.224 125.651 120.137 125.958C120.095 126.051 120.044 126.139 119.984 126.219C120.623 126.35 121.215 126.684 121.691 127.181C121.802 127.321 121.886 127.485 121.939 127.663C121.991 127.841 122.01 128.029 121.995 128.215C121.899 129.115 120.769 129.897 119.512 129.897H119.456C118.664 129.859 117.897 129.579 117.237 129.088C117.074 129.398 116.834 129.648 116.547 129.808C116.26 129.967 115.937 130.03 115.619 129.987ZM112.911 125.391C113.456 127.19 114.377 128.989 115.49 129.088C116.131 129.088 116.452 128.89 116.508 128.719C116.564 128.548 116.412 128.413 116.348 128.35C116.266 128.274 116.214 128.164 116.205 128.045C116.195 127.926 116.228 127.808 116.295 127.716C116.363 127.624 116.461 127.567 116.567 127.556C116.673 127.545 116.778 127.581 116.86 127.658C117.567 128.429 118.49 128.902 119.472 128.998C120.385 128.998 121.162 128.476 121.194 128.098C121.2 128.038 121.194 127.976 121.176 127.919C121.158 127.861 121.128 127.809 121.09 127.766C120.274 127.13 119.294 126.814 118.302 126.866C118.196 126.876 118.091 126.838 118.01 126.76C117.928 126.682 117.878 126.572 117.87 126.453C117.861 126.333 117.895 126.215 117.964 126.124C118.033 126.033 118.132 125.977 118.238 125.967H118.342C118.639 125.913 119.327 125.778 119.4 125.589C119.472 125.4 119.327 125.346 119.103 125.221C118.262 124.753 116.644 124.906 115.771 124.987C115.482 125.023 113.712 125.248 112.927 125.391H112.911Z" fill="#081E7A"/>
<path d="M87.3969 175.986C87.3273 175.983 87.2592 175.964 87.1985 175.93C87.1385 175.895 87.0886 175.845 87.0538 175.785C87.019 175.725 87.0004 175.657 87 175.587V160.841H87.7938V174.933L163.206 131.212V117H164V131.428C164 131.497 163.981 131.565 163.946 131.625C163.911 131.686 163.862 131.736 163.802 131.77L87.6192 175.986C87.5463 176.005 87.4698 176.005 87.3969 175.986Z" fill="#081E7A"/>
<path d="M86.6066 176L11.1968 131.818C11.1362 131.784 11.0859 131.735 11.0512 131.674C11.0165 131.614 10.9988 131.545 11.0001 131.475V117H11.7869V131.259L87 175.281L86.6066 176Z" fill="#081E7A"/>
<path d="M27.4013 123L27 122.308L87.1974 87.4728V75H88V87.7222C87.9994 87.7935 87.9806 87.8634 87.9455 87.9254C87.9104 87.9873 87.8601 88.0393 87.7993 88.0763L27.4013 123Z" fill="#081E7A"/>
<path d="M87.1712 87.5998L86.7744 88.2871L145.594 122.246L145.99 121.559L87.1712 87.5998Z" fill="#081E7A"/>
<path d="M87.004 157C86.9346 157.001 86.8661 156.985 86.8049 156.952L18.1993 117.325C18.1374 117.292 18.0859 117.243 18.0507 117.182C18.0155 117.122 17.998 117.053 18.0002 116.983C17.9989 116.913 18.0168 116.844 18.0519 116.784C18.087 116.724 18.138 116.674 18.1993 116.641L86.8049 77.0533C86.8654 77.0184 86.9341 77 87.004 77C87.0739 77 87.1426 77.0184 87.2031 77.0533L155.801 116.641C155.862 116.674 155.913 116.724 155.948 116.784C155.983 116.844 156.001 116.913 156 116.983C156.002 117.053 155.984 117.122 155.949 117.182C155.914 117.243 155.863 117.292 155.801 117.325L87.2031 156.92C87.144 156.962 87.0758 156.99 87.004 157ZM19.1948 117.015L87.004 156.148L154.805 117.015L87.004 77.8892L19.1948 117.015Z" fill="#081E7A"/>
<path d="M86.0404 76C85.5647 75.997 85.0962 75.8833 84.6722 75.6682C84.2482 75.453 83.8804 75.1422 83.5979 74.7604C83.3154 74.3786 83.126 73.9364 83.0449 73.4689C82.9637 73.0014 82.9929 72.5214 83.1303 72.0671L100.583 12.7986C102.034 7.8999 105.236 3.70193 109.582 1L110 1.66859C105.814 4.27051 102.732 8.31536 101.34 13.0346L83.8874 72.3267C83.7481 72.76 83.7444 73.2253 83.8766 73.6608C84.0089 74.0963 84.2709 74.4814 84.6278 74.7648C84.9847 75.0482 85.4197 75.2166 85.8749 75.2476C86.3301 75.2785 86.7839 75.1706 87.1761 74.9381L89.0295 73.8684L108.336 8.29942L109.125 8.51966L89.7472 74.2066C89.7175 74.3026 89.6527 74.384 89.5658 74.4347L87.5704 75.5831C87.1052 75.8517 86.578 75.9954 86.0404 76Z" fill="#081E7A"/>
<path d="M174.778 43.9995C172.07 44.0025 169.409 43.2972 167.065 41.9546L109.388 8.92748C108.661 8.51144 108.058 7.91293 107.639 7.19219C107.22 6.47144 106.999 5.65389 107 4.8218C107.005 3.99507 107.228 3.18404 107.647 2.46932C108.066 1.75459 108.666 1.16105 109.388 0.747698L110.606 0.0528901C110.666 0.0182412 110.735 0 110.805 0C110.875 0 110.943 0.0182412 111.004 0.0528901L182.801 41.1492C182.861 41.1837 182.911 41.2331 182.946 41.2927C182.981 41.3522 183 41.4198 183 41.4887C182.999 41.5586 182.981 41.6273 182.946 41.688C182.911 41.7488 182.861 41.7998 182.801 41.8361L182.514 41.994C180.16 43.3293 177.49 44.0213 174.778 43.9995ZM110.773 0.810863L109.754 1.39513C109.154 1.74626 108.657 2.24758 108.313 2.84893C107.97 3.45027 107.791 4.13058 107.796 4.8218C107.796 5.51476 107.98 6.19551 108.329 6.79563C108.679 7.39575 109.181 7.89409 109.786 8.24057L167.494 41.2755C169.668 42.5179 172.127 43.1863 174.635 43.2167C177.144 43.2471 179.618 42.6386 181.822 41.4492L110.773 0.810863Z" fill="#081E7A"/>
<path d="M157.16 118C156.454 117.995 155.769 117.756 155.216 117.32C154.714 116.937 154.341 116.411 154.148 115.812C153.955 115.214 153.951 114.571 154.136 113.97L172.302 52.6167C173.618 48.1458 176.625 44.3523 180.695 42.0287L182.396 41.0531C182.466 41.0135 182.545 40.9954 182.625 41.001C182.705 41.0066 182.782 41.0358 182.845 41.0847C182.908 41.1336 182.955 41.2001 182.98 41.2757C183.005 41.3512 183.007 41.4324 182.985 41.5089L160.877 116.225C160.864 116.274 160.842 116.321 160.81 116.361C160.778 116.401 160.737 116.434 160.691 116.457L158.764 117.568C158.276 117.849 157.723 117.998 157.16 118ZM181.928 42.2446L181.122 42.7245C177.218 44.9365 174.328 48.5619 173.059 52.8406L154.91 114.201C154.78 114.648 154.788 115.123 154.932 115.566C155.077 116.008 155.351 116.398 155.72 116.685C156.089 116.972 156.536 117.143 157.003 117.176C157.471 117.21 157.938 117.104 158.345 116.872L160.135 115.849L181.928 42.2446Z" fill="#081E7A"/>
<defs>
<linearGradient id="paint0_linear_3156_18992" x1="38" y1="103" x2="83.8989" y2="185.448" gradientUnits="userSpaceOnUse">
<stop stop-color="#E64C4E"/>
<stop offset="1" stop-color="#EF33F9"/>
</linearGradient>
<linearGradient id="paint1_linear_3156_18992" x1="87" y1="117" x2="144.158" y2="190.627" gradientUnits="userSpaceOnUse">
<stop stop-color="#E64C4E"/>
<stop offset="1" stop-color="#EF33F9"/>
</linearGradient>
<linearGradient id="paint2_linear_3156_18992" x1="19" y1="78" x2="59.1366" y2="140.029" gradientUnits="userSpaceOnUse">
<stop stop-color="#E64C4E"/>
<stop offset="1" stop-color="#EF33F9"/>
</linearGradient>
<linearGradient id="paint3_linear_3156_18992" x1="108" y1="0" x2="146.408" y2="65.4675" gradientUnits="userSpaceOnUse">
<stop stop-color="#E64C4E"/>
<stop offset="1" stop-color="#EF33F9"/>
</linearGradient>
<linearGradient id="paint4_linear_3156_18992" x1="78" y1="139" x2="83.2941" y2="147.824" gradientUnits="userSpaceOnUse">
<stop stop-color="#E64C4E"/>
<stop offset="1" stop-color="#EF33F9"/>
</linearGradient>
<linearGradient id="paint5_linear_3156_18992" x1="91" y1="112" x2="94.7671" y2="120.288" gradientUnits="userSpaceOnUse">
<stop stop-color="#E64C4E"/>
<stop offset="1" stop-color="#EF33F9"/>
</linearGradient>
<linearGradient id="paint6_linear_3156_18992" x1="70" y1="120" x2="77" y2="127" gradientUnits="userSpaceOnUse">
<stop stop-color="#E64C4E"/>
<stop offset="1" stop-color="#EF33F9"/>
</linearGradient>
<linearGradient id="paint7_linear_3156_18992" x1="98" y1="125" x2="100.569" y2="132.066" gradientUnits="userSpaceOnUse">
<stop stop-color="#E64C4E"/>
<stop offset="1" stop-color="#EF33F9"/>
</linearGradient>
</defs>
</svg>
