<svg width="261" height="184" viewBox="0 0 261 184" fill="none" xmlns="http://www.w3.org/2000/svg">
<path d="M260.265 18.7462C260.265 18.7462 248.891 3.11377 232.378 15.503L150.006 70.8327L93.2912 45.903L107.824 23.503C108.127 23.0347 108.331 22.5096 108.423 21.9599C108.516 21.4102 108.495 20.8475 108.362 20.3061C108.23 19.7647 107.988 19.256 107.651 18.8112C107.315 18.3664 106.892 17.9948 106.407 17.7192L102.803 15.6543C102.407 15.4265 101.952 15.3232 101.496 15.3579C101.041 15.3926 100.606 15.5637 100.249 15.8489L78.9096 32.8435C77.9465 30.757 77.07 28.6381 76.3017 26.4759L70.0253 8.64891C69.181 6.25786 67.5376 4.23054 65.3721 2.90837L62.3962 1.08134C61.8492 0.746442 61.2227 0.563503 60.5812 0.551421C59.9398 0.539339 59.3068 0.698552 58.7475 1.01261C58.1883 1.32668 57.7231 1.7842 57.4 2.33793C57.077 2.89165 56.9077 3.5215 56.9098 4.16242L56.4878 29.0273C48.5233 25.3084 38.9572 21.4381 36.7929 22.703C32.367 25.2111 42.2036 39.8057 50.3954 48.8111L22.617 60.0543C22.4852 60.1028 22.3701 60.1878 22.2851 60.2995C22.2002 60.4112 22.1491 60.5448 22.1377 60.6846C22.1263 60.8244 22.1552 60.9646 22.2209 61.0885C22.2867 61.2124 22.3866 61.315 22.5088 61.384L26.491 63.6759C28.1613 64.665 30.1225 65.047 32.0424 64.757L63.2295 59.8165L109.296 94.9192L112.348 96.9408L11.8281 146.746C2.87884 150.703 0.000359058 154.303 0.638818 157.092V162C3.54976 168.271 19.8359 167.546 23.9588 166.325L156.261 126.184L159.247 128.162C176.269 136.725 195.845 143.146 215.951 149.179L201.115 174.768C199.102 178.249 199.102 182.011 201.115 183.168C203.128 184.325 206.418 182.433 208.43 178.941L225.431 149.633L242.42 159.362C244.444 160.519 247.712 158.627 249.735 155.146C251.759 151.665 251.748 147.903 249.735 146.746L232.746 137.016L249.735 107.698C251.748 104.216 251.748 100.454 249.735 99.2976C247.723 98.1408 244.444 100.033 242.42 103.514L226.632 130.757C222.725 126.671 216.687 120.735 214.295 118.054C208.463 111.514 209.826 104.508 197.468 94.6813L258.295 28.0976C260.492 25.6651 260.708 21.4273 260.265 18.7462Z" fill="white"/>
<path d="M197.533 117.698L204.924 113.092C205.903 112.413 206.702 111.505 207.252 110.449C207.803 109.393 208.088 108.218 208.084 107.027C206.898 104.705 205.445 102.528 203.755 100.541C202.627 100.355 201.471 100.594 200.509 101.211L193.118 105.827C191.744 106.822 190.736 108.24 190.247 109.863C189.759 111.486 189.817 113.224 190.412 114.811C191.614 118.13 194.784 119.395 197.533 117.698Z" fill="#FFECFA"/>
<path d="M106.407 17.7082L102.803 15.6433C102.404 15.4175 101.946 15.3164 101.489 15.353C101.032 15.3896 100.596 15.5623 100.238 15.8487L78.5957 33.146L83.5411 41.546L93.6049 45.4055L107.824 23.4595C108.12 22.992 108.318 22.4696 108.407 21.9236C108.496 21.3777 108.473 20.8194 108.341 20.2823C108.209 19.7453 107.969 19.2404 107.637 18.7981C107.304 18.3558 106.886 17.9851 106.407 17.7082Z" fill="#FFECFA"/>
<path d="M260.274 18.7354L260.166 18.8651C259.862 20.2176 259.213 21.4688 258.283 22.4975L248.609 32.4975L192.446 90.6597L197.219 94.4218L258.283 28.0435C260.502 25.6651 260.718 21.4272 260.274 18.7354Z" fill="url(#paint0_linear_2912_18511)"/>
<path d="M22.6165 60.0545L57.472 46.7031L76.4851 57.6653L32.0419 64.7031C30.122 64.9931 28.1608 64.6112 26.4905 63.622L22.5083 61.3842C22.3861 61.3151 22.2862 61.2126 22.2205 61.0887C22.1547 60.9647 22.1258 60.8246 22.1372 60.6848C22.1486 60.545 22.1997 60.4114 22.2847 60.2997C22.3696 60.188 22.4847 60.1029 22.6165 60.0545Z" fill="#FFECFA"/>
<path d="M0.638672 157.103V162C3.54961 168.27 19.8357 167.546 23.9587 166.324L164.063 123.816V116.53L23.9046 161.687C14.2519 164.465 1.80738 162.076 0.638672 157.103Z" fill="url(#paint1_linear_2912_18511)"/>
<path d="M56.9092 33.8057V4.1516C56.909 3.5116 57.0797 2.88313 57.4035 2.33092C57.7274 1.77872 58.1927 1.32275 58.7516 1.00997C59.3105 0.697197 59.9428 0.53893 60.5833 0.551473C61.2238 0.564016 61.8494 0.746914 62.3956 1.08133L65.3715 2.88674C67.5409 4.21433 69.1846 6.24985 70.0246 8.6489L76.301 26.4867C78.158 31.7409 80.578 36.7792 83.5189 41.5138L95.563 56.2813C94.3274 56.1554 93.119 55.8381 91.9812 55.3408C89.687 54.3786 73.9853 46.6921 66.2913 41.9354C62.8543 39.6041 59.7052 36.8752 56.9092 33.8057Z" fill="url(#paint2_linear_2912_18511)"/>
<path d="M201.104 183.114C199.08 181.957 199.08 178.206 201.104 174.714L242.398 103.471C244.411 99.9787 247.69 98.0652 249.713 99.2436C251.737 100.422 251.726 104.163 249.713 107.644L208.419 178.898C206.395 182.379 203.127 184.271 201.104 183.114Z" fill="#FFECFA"/>
<path d="M201.104 127.287C203.127 123.806 206.395 121.881 208.419 123.071L249.724 146.671C251.737 147.827 251.737 151.59 249.724 155.071C247.711 158.552 244.422 160.476 242.409 159.298L201.104 135.687C199.113 134.53 199.113 130.811 201.104 127.287Z" fill="#FFECFA"/>
<path d="M231.653 144.725C230.657 146.455 222.844 148.563 221.914 148.109C220.983 147.655 220.117 146.314 220.117 144.465C220.222 142.559 220.775 140.703 221.732 139.05C222.689 137.397 224.023 135.993 225.625 134.952C226.182 134.544 226.838 134.293 227.524 134.222C228.211 134.152 228.904 134.266 229.532 134.552C230.495 135.136 232.659 143.006 231.653 144.725Z" fill="#399EFF"/>
<path d="M195.022 118.995C194.485 118.994 193.951 118.906 193.442 118.735C192.611 118.423 191.86 117.93 191.242 117.292C190.625 116.655 190.157 115.889 189.871 115.049C188.562 111.557 189.871 107.232 192.804 105.405L200.195 100.8C201.27 100.105 202.567 99.835 203.831 100.043C203.954 100.065 204.065 100.13 204.144 100.227C205.863 102.246 207.345 104.455 208.56 106.811C208.602 106.895 208.624 106.987 208.624 107.081C208.625 108.357 208.315 109.615 207.722 110.745C207.128 111.875 206.268 112.843 205.216 113.568L197.825 118.184C196.985 118.711 196.014 118.991 195.022 118.995ZM202.976 101.059C202.206 101.07 201.456 101.299 200.811 101.719L193.42 106.324C192.149 107.252 191.217 108.57 190.767 110.078C190.318 111.585 190.375 113.199 190.932 114.67C191.161 115.359 191.54 115.988 192.042 116.513C192.543 117.038 193.154 117.446 193.832 117.708C194.407 117.894 195.017 117.949 195.616 117.868C196.215 117.788 196.789 117.574 197.295 117.243L204.685 112.627C205.56 112.017 206.278 111.209 206.781 110.27C207.285 109.331 207.561 108.287 207.586 107.222C206.431 105.031 205.041 102.972 203.441 101.081C203.287 101.063 203.131 101.056 202.976 101.059Z" fill="#081E7A"/>
<path d="M96.5479 41.9028L95.6389 41.319L107.369 23.2109C107.63 22.8037 107.806 22.3479 107.886 21.871C107.965 21.3941 107.948 20.9061 107.833 20.4362C107.719 19.9664 107.511 19.5246 107.221 19.1375C106.931 18.7504 106.565 18.4259 106.146 18.1838L102.521 16.119C102.218 15.943 101.868 15.8632 101.518 15.8903C101.169 15.9173 100.835 16.0498 100.563 16.2703L78.9199 33.5676L78.249 32.7244L99.8917 15.4271C100.326 15.0623 100.861 14.8389 101.426 14.7867C101.991 14.7345 102.558 14.8561 103.052 15.1352L106.677 17.2973C107.218 17.6087 107.691 18.0264 108.067 18.5251C108.442 19.0238 108.713 19.5933 108.863 20.1992C109.012 20.8052 109.038 21.4352 108.937 22.0512C108.837 22.6672 108.613 23.2566 108.278 23.7838L96.5479 41.9028Z" fill="#081E7A"/>
<path d="M197.619 94.7895L196.818 94.0651L257.883 27.676C259.831 25.5787 260.221 21.7192 259.734 18.8327L260.816 18.6489C261.346 21.8057 260.892 26.0543 258.652 28.3787L197.619 94.7895Z" fill="#081E7A"/>
<path d="M197.305 86.2919L196.526 85.5459L257.894 22.1297C259.106 20.8983 259.785 19.2405 259.785 17.5135C259.785 15.7865 259.106 14.1286 257.894 12.8973C253.565 8.27024 243.534 7.83781 232.723 15.9675L150.319 71.2865L149.713 70.3892L232.085 15.1351C243.913 6.227 254.171 7.37294 258.684 12.2054C261.606 15.3405 261.606 19.5351 258.684 22.8973L197.305 86.2919Z" fill="#081E7A"/>
<path d="M48.1011 47.0487C42.8744 40.9514 34.2931 29.2757 35.1912 24.1838C35.2413 23.7782 35.3858 23.3898 35.6132 23.05C35.8406 22.7102 36.1445 22.4284 36.5006 22.2271C37.2365 21.8163 39.4873 20.5406 56.7149 28.4865L56.2604 29.4703C41.1213 22.5082 37.7884 22.7027 37.0309 23.1676C36.8183 23.2954 36.6377 23.4699 36.5027 23.6778C36.3677 23.8857 36.2819 24.1216 36.2517 24.3676C35.57 28.2811 42.1061 38.4217 48.9235 46.346L48.1011 47.0487Z" fill="#081E7A"/>
<path d="M66.4594 61.5816L65.8027 62.4409L108.946 95.347L109.603 94.4877L66.4594 61.5816Z" fill="#081E7A"/>
<path d="M212.153 148.303C192.555 142.422 176.193 137.297 158.987 128.649L159.474 127.687C176.604 136.335 192.923 141.459 212.499 147.319L212.153 148.303Z" fill="#081E7A"/>
<path d="M224.478 129.319C222.682 127.352 220.744 125.406 218.862 123.525C216.979 121.644 215.258 119.903 213.873 118.357C211.918 116.018 210.334 113.393 209.176 110.573C206.395 104.617 203.246 97.8707 187.923 88.8004L83.3242 42.0112L83.7679 41.0166L188.443 87.849C204.112 97.1139 207.337 104.065 210.172 110.108C211.284 112.849 212.814 115.402 214.706 117.676C216.059 119.2 217.812 120.919 219.652 122.8C221.491 124.681 223.482 126.638 225.3 128.627L224.478 129.319Z" fill="#081E7A"/>
<path d="M16.3074 167.665C10.0743 167.665 2.61844 166.454 0.659778 162.26C0.643355 162.185 0.643355 162.107 0.659778 162.033V156.433H1.74191V161.903C4.6745 167.795 20.6143 166.941 24.3585 165.784L164.084 123.384V116.422H165.166V123.784C165.167 123.9 165.13 124.012 165.062 124.106C164.994 124.199 164.897 124.268 164.787 124.303L24.6291 166.789C21.9035 167.432 19.1072 167.727 16.3074 167.665Z" fill="#081E7A"/>
<path d="M30.7331 65.3514C29.1498 65.3523 27.5939 64.9385 26.2206 64.1514L22.2383 61.8487C22.0275 61.7286 21.8554 61.5511 21.7419 61.3369C21.6285 61.1226 21.5785 60.8805 21.5978 60.6389C21.6171 60.3973 21.7049 60.1662 21.8509 59.9726C21.9969 59.7791 22.1951 59.6311 22.4223 59.546L57.2778 46.1946C57.3505 46.16 57.43 46.1421 57.5105 46.1421C57.591 46.1421 57.6705 46.16 57.7431 46.1946L76.7562 57.2C76.8531 57.2547 76.9303 57.3384 76.9769 57.4392C77.0235 57.5401 77.0372 57.6531 77.016 57.7622C76.9946 57.8725 76.9393 57.9735 76.8579 58.051C76.7764 58.1285 76.6728 58.1787 76.5615 58.1946L32.129 65.2433C31.6668 65.3115 31.2003 65.3476 30.7331 65.3514ZM57.4293 47.2973L22.8118 60.5406C22.7755 60.5499 22.7433 60.5708 22.7198 60.6C22.6964 60.6293 22.6831 60.6653 22.682 60.7027C22.6777 60.7396 22.6848 60.7769 22.7022 60.8097C22.7195 60.8425 22.7465 60.8693 22.7794 60.8865L26.7616 63.1892C28.3337 64.0893 30.1653 64.4286 31.9559 64.1514L74.8842 57.373L57.4293 47.2973Z" fill="#081E7A"/>
<path d="M15.1495 163.416C8.02904 163.416 1.56869 161.254 0.280954 157.676C-0.63886 155.167 0.583952 151.189 11.6325 146.249L121.837 91.6215C121.915 91.579 122.003 91.5566 122.091 91.5566C122.18 91.5566 122.268 91.579 122.346 91.6215L164.311 115.989C164.402 116.042 164.476 116.119 164.523 116.213C164.571 116.307 164.59 116.412 164.578 116.516C164.567 116.621 164.525 116.719 164.458 116.8C164.392 116.881 164.303 116.941 164.203 116.973L87.6525 141.697L87.3279 140.67L162.753 116.335L122.054 92.7242L12.0654 147.232C4.01432 150.789 0.16192 154.367 1.24405 157.308C2.86726 161.773 14.6301 163.795 23.7308 161.167L73.6713 145.059L74.0068 146.086L24.0663 162.162C21.1664 162.99 18.1655 163.412 15.1495 163.416Z" fill="#081E7A"/>
<path d="M96.104 56.8218C94.7827 56.7002 93.4894 56.3681 92.2732 55.838C91.1911 55.3732 87.1656 53.4489 82.6531 51.1678L83.14 50.2056C87.6309 52.4759 91.6023 54.3786 92.6953 54.8434C93.3743 55.1299 94.0767 55.3577 94.7946 55.5245L83.6486 41.8597C80.6608 37.0719 78.2077 31.9711 76.3334 26.6489L70.057 8.81102C69.2524 6.53781 67.6897 4.61019 65.6311 3.35156L62.6552 1.53534C62.1899 1.25409 61.6581 1.10126 61.1143 1.09244C60.5705 1.08363 60.0341 1.21916 59.5598 1.48518C59.0856 1.7512 58.6905 2.13819 58.4149 2.60664C58.1393 3.07508 57.9931 3.6082 57.9912 4.15156V33.6002C60.7087 36.5709 63.7628 39.2157 67.092 41.4813C68.8667 42.5624 71.1933 43.9029 74.0068 45.4272L73.4874 46.3786C70.6522 44.8434 68.3148 43.5029 66.5185 42.4002C63.0512 40.0413 59.8764 37.2796 57.0606 34.1732C56.9717 34.0711 56.9219 33.9409 56.9199 33.8056V4.15156C56.9238 3.41831 57.122 2.69916 57.4943 2.06727C57.8667 1.43538 58.3999 0.913287 59.0398 0.554112C59.6797 0.194936 60.4034 0.0114906 61.1373 0.0224352C61.8712 0.0333798 62.5891 0.238324 63.2179 0.616421L66.1938 2.42183C68.4604 3.81422 70.1825 5.93892 71.0742 8.44345L77.3614 26.2921C79.1987 31.5176 81.6008 36.5274 84.5252 41.2326L96.526 55.9461C96.5946 56.0255 96.6376 56.1238 96.6491 56.228C96.6607 56.3322 96.6404 56.4375 96.591 56.5299C96.5448 56.6189 96.4749 56.6933 96.3889 56.7448C96.3029 56.7964 96.2043 56.823 96.104 56.8218Z" fill="#081E7A"/>
<path d="M202.446 184C201.881 184.002 201.325 183.857 200.833 183.578C200.438 183.341 200.093 183.028 199.82 182.657C199.547 182.286 199.351 181.864 199.242 181.416C198.809 179.013 199.308 176.535 200.638 174.486L241.943 103.232C244.108 99.4378 247.679 97.5027 249.995 98.8216C250.389 99.0594 250.733 99.3728 251.006 99.7439C251.279 100.115 251.476 100.536 251.585 100.984C252.019 103.383 251.519 105.858 250.189 107.903L208.852 179.168C207.153 182.162 204.588 184 202.446 184ZM248.382 99.4594C246.662 99.4594 244.378 101.157 242.874 103.784L201.569 175.027C200.397 176.833 199.942 179.011 200.292 181.135C200.358 181.454 200.488 181.756 200.674 182.024C200.86 182.291 201.098 182.518 201.374 182.692C203.106 183.676 206.114 181.838 207.954 178.67L249.248 107.416C250.421 105.614 250.88 103.441 250.536 101.319C250.471 100.999 250.342 100.696 250.156 100.429C249.97 100.161 249.731 99.9341 249.453 99.7621C249.13 99.5667 248.76 99.4621 248.382 99.4594Z" fill="#081E7A"/>
<path d="M243.751 160.173C243.187 160.179 242.631 160.037 242.138 159.762L228.568 152.011L229.109 151.071L242.679 158.822C244.4 159.817 247.419 157.968 249.248 154.8C250.421 152.998 250.88 150.825 250.536 148.703C250.471 148.384 250.342 148.081 250.156 147.813C249.97 147.545 249.731 147.318 249.454 147.146L232.464 137.417L232.994 136.487L249.995 146.217C250.389 146.454 250.733 146.768 251.006 147.139C251.279 147.51 251.476 147.931 251.585 148.379C252.019 150.778 251.519 153.253 250.189 155.298C248.458 158.335 245.893 160.173 243.751 160.173Z" fill="#081E7A"/>
<path d="M213.592 143.449L200.833 136.152C200.438 135.915 200.093 135.602 199.82 135.231C199.547 134.859 199.351 134.437 199.242 133.99C198.809 131.586 199.308 129.108 200.638 127.06C202.803 123.265 206.374 121.319 208.689 122.649L225.528 132.271L224.986 133.2L208.148 123.579C206.417 122.595 203.409 124.433 201.569 127.6C200.397 129.407 199.942 131.585 200.292 133.709C200.358 134.027 200.488 134.33 200.674 134.597C200.86 134.865 201.098 135.092 201.374 135.265L214.133 142.552L213.592 143.449Z" fill="#081E7A"/>
<path d="M231.653 144.725C230.657 146.455 222.844 148.563 221.914 148.109C220.983 147.655 220.117 146.314 220.117 144.465C220.222 142.559 220.775 140.703 221.732 139.05C222.689 137.397 224.023 135.993 225.625 134.952C226.182 134.544 226.838 134.293 227.524 134.222C228.211 134.152 228.904 134.266 229.532 134.552C230.495 135.136 232.659 143.006 231.653 144.725Z" fill="#081E7A"/>
<defs>
<linearGradient id="paint0_linear_2912_18511" x1="192.446" y1="18.7354" x2="267.703" y2="86.3659" gradientUnits="userSpaceOnUse">
<stop stop-color="#E64C4E"/>
<stop offset="1" stop-color="#EF33F9"/>
</linearGradient>
<linearGradient id="paint1_linear_2912_18511" x1="0.638672" y1="116.53" x2="29.2497" y2="208.903" gradientUnits="userSpaceOnUse">
<stop stop-color="#E64C4E"/>
<stop offset="1" stop-color="#EF33F9"/>
</linearGradient>
<linearGradient id="paint2_linear_2912_18511" x1="56.9092" y1="0.550781" x2="109.107" y2="36.7542" gradientUnits="userSpaceOnUse">
<stop stop-color="#E64C4E"/>
<stop offset="1" stop-color="#EF33F9"/>
</linearGradient>
</defs>
</svg>
