<svg width="134" height="165" viewBox="0 0 134 165" fill="none" xmlns="http://www.w3.org/2000/svg">
<path opacity="0.08" d="M29.0517 165L107 119.927L94.9483 113L17 158.08L29.0517 165Z" fill="black"/>
<path d="M23 81.5998V39.9129L90.8158 1L98 5.10537V38.4966V66.9275V121.1L30.1842 160L23 155.588V109.756V81.5998Z" fill="white"/>
<path d="M30.9301 44.0854L30.5004 160.5L23.0001 155.491L24.0001 40L30.9301 44.0854Z" fill="url(#paint0_linear_3156_18798)"/>
<path d="M98 5.11681L31.1404 44L24 39.8241L90.9311 1L98 5.11681Z" fill="white"/>
<path d="M55.8267 79.57C52.1467 78.9121 49.72 75.5237 49.72 70.1352C49.72 61.5821 55.84 51.1539 63.3867 46.851C70.9333 42.5481 77.0533 46.0023 77.0533 54.5685C77.0533 59.707 74.8333 65.5166 71.4333 70.2734C77.6667 69.9313 82 74.5763 82 82.8465V99.4856L46 120V103.361C46 95.413 49.9933 86.2678 55.8267 79.57Z" fill="#FFECFA"/>
<path d="M30.6395 161L31 160.44L23.6803 156.004V39.901L30.5782 43.7502L30.9184 43.1768L23.5102 39.0442C23.4582 39.015 23.3991 38.9998 23.339 39C23.2789 39.0002 23.2199 39.0158 23.168 39.0453C23.1162 39.0748 23.0733 39.117 23.0438 39.1678C23.0143 39.2185 22.9992 39.2759 23 39.3342V156.156C23.0001 156.211 23.0145 156.265 23.0418 156.313C23.0692 156.362 23.1086 156.403 23.1565 156.432L30.6395 161Z" fill="#081E7A"/>
<path d="M30.3318 161C30.3894 161 30.4461 160.986 30.4976 160.961L98.8341 121.743C98.8847 121.715 98.9268 121.674 98.956 121.624C98.9851 121.574 99.0003 121.517 99 121.46V4.32708C98.9984 4.26992 98.9824 4.21407 98.9534 4.16463C98.9244 4.1152 98.8834 4.07375 98.8341 4.04409C98.7837 4.0152 98.7265 4 98.6683 4C98.61 4 98.5528 4.0152 98.5024 4.04409L30.1659 43.2353C30.1158 43.2641 30.0741 43.3053 30.045 43.3549C30.0159 43.4046 30.0004 43.4609 30 43.5183V160.664C29.9992 160.723 30.0141 160.781 30.0433 160.831C30.0725 160.882 30.1148 160.925 30.1659 160.954C30.2166 160.982 30.2735 160.998 30.3318 161ZM98.3365 121.289L30.6635 160.118V43.7092L98.3365 4.8799V121.289Z" fill="#081E7A"/>
<path d="M23.3277 40L90.5675 0.711301L97.6854 4.63818L98 4.06207L90.7248 0.0424731C90.6758 0.0146269 90.6205 0 90.5642 0C90.508 0 90.4527 0.0146269 90.4037 0.0424731L23 39.4239L23.3277 40Z" fill="#081E7A"/>
<path d="M46.2819 120C46.3397 120 46.3965 119.985 46.4457 119.954L81.8362 99.6247C81.8858 99.5947 81.9269 99.5526 81.9555 99.5023C81.9842 99.4521 81.9995 99.3954 82 99.3377V82.8431C82 78.3232 80.7351 74.736 78.3364 72.4858C76.6004 70.8678 74.2983 69.9879 71.9203 70.0335C75.1972 65.2201 77.1633 59.598 77.1633 54.8107C77.1633 50.5973 75.7149 47.4471 73.0868 45.934C70.4588 44.4208 66.9394 44.7535 63.2562 46.8797C55.7586 51.1843 49.6571 61.6655 49.6571 70.2422C49.6571 75.3164 51.787 78.8384 55.3916 79.7907C49.585 86.6977 46 95.6135 46 103.179V119.674C45.999 119.731 46.0137 119.787 46.0426 119.837C46.0715 119.886 46.1134 119.927 46.1639 119.954C46.1994 119.978 46.2397 119.993 46.2819 120ZM81.3446 99.129L46.6096 119.087V103.179C46.6096 95.6135 50.2797 86.652 56.1912 79.8037C56.2275 79.7601 56.2518 79.7079 56.2616 79.6521C56.2715 79.5963 56.2666 79.539 56.2474 79.4857C56.2282 79.4324 56.1954 79.3849 56.1523 79.3481C56.1091 79.3112 56.057 79.2862 56.0011 79.2754C52.4097 78.6232 50.2666 75.2251 50.2666 70.2422C50.2666 61.8742 56.224 51.6474 63.538 47.4471C67.0311 45.4383 70.2949 45.0991 72.7133 46.5014C75.1316 47.9037 76.462 50.8387 76.462 54.8107C76.462 59.6175 74.4173 65.3636 70.9962 70.19C70.9644 70.2421 70.9475 70.3019 70.9475 70.3628C70.9475 70.4238 70.9644 70.4836 70.9962 70.5357C71.026 70.5902 71.0708 70.6351 71.1254 70.6651C71.1799 70.6952 71.242 70.7091 71.3042 70.7053C72.4936 70.6095 73.6899 70.76 74.8179 71.1473C75.9459 71.5346 76.981 72.1502 77.858 72.9554C80.1191 75.0882 81.3119 78.5058 81.3119 82.8431L81.3446 99.129Z" fill="#081E7A"/>
<path d="M81.8446 114.641L82.173 115.209L46.9884 135.564L46.66 134.996L81.8446 114.641Z" fill="#081E7A"/>
<path d="M81.844 108.15L82.1724 108.718L46.9878 129.073L46.6594 128.505L81.844 108.15Z" fill="#081E7A"/>
<path d="M104 98V93L127.5 81.5L128.5 81H129.5C129.833 81.1667 130.8 81.8 132 83C133.2 84.2 132.833 86.1667 132.5 87C125.5 91.8333 111.2 101.7 110 102.5C108.8 103.3 107.833 103.167 107.5 103L107 102L102.5 104.5L104 98Z" fill="white"/>
<path d="M124.305 80.7042C124.759 80.5485 125.243 80.5023 125.719 80.5696C126.194 80.6368 126.647 80.8156 127.04 81.0912C128.237 81.8702 129.234 82.9205 129.949 84.1568C130.665 85.3931 131.079 86.7806 131.158 88.2069C131.158 89.5185 130.699 90.4301 129.951 90.8302C129.204 91.2302 109.719 102.714 109.719 102.714C109.719 102.714 112.152 101.776 109.955 96.5621C107.371 90.417 103.804 92.6993 103.804 92.6993C103.804 92.6993 124.22 80.7436 124.305 80.7042Z" fill="#FFECFA"/>
<path d="M67.0635 101.389C72.8413 88.3379 84.3838 79.2023 92.7981 81.0123C93.618 81.1883 94.4101 81.4751 95.1525 81.8649C95.6116 82.1076 98.4316 83.7209 98.4316 83.7209C97.6647 83.3082 96.8434 83.0057 95.992 82.8224C87.5646 81.0058 76.0221 90.1283 70.2442 103.192C65.1616 114.676 66.2109 125.405 72.2642 129.058C72.2642 129.058 69.8376 127.746 68.9851 127.202C63.017 123.49 62.0071 112.807 67.0635 101.389Z" fill="url(#paint1_linear_3156_18798)"/>
<path d="M93.5069 88.7119C99.8487 90.076 101.377 99.2773 97.0353 109.115C92.6937 118.952 83.8532 125.91 77.5048 124.546C76.3 124.242 75.2006 123.617 74.324 122.736C80.6724 124.107 89.4605 117.149 93.8545 107.311C97.3304 99.4609 97.0025 92.096 93.5069 88.7119Z" fill="url(#paint2_linear_3156_18798)"/>
<path d="M70.2712 102.904C76.049 89.853 87.5916 80.7174 96.0058 82.5275C104.42 84.3375 106.565 96.4375 100.787 109.482C95.009 122.526 83.4664 131.675 75.0325 129.858C66.5986 128.042 64.4934 115.955 70.2712 102.904ZM97.0355 108.675C101.39 98.8379 99.7703 89.7153 93.4284 88.3446C87.0866 86.974 78.3838 93.8667 74.0291 103.711C69.6744 113.555 71.1631 122.73 77.505 124.094C83.8468 125.458 92.6742 118.513 97.0355 108.675Z" fill="white"/>
<path d="M131.197 88.4101L132.292 87.7871C132.61 87.5729 132.865 87.2774 133.03 86.9314C133.195 86.5854 133.264 86.2014 133.23 85.8196C133.188 84.8424 132.912 83.8895 132.424 83.0414C131.937 82.1934 131.253 81.475 130.43 80.9468C130.133 80.7445 129.794 80.6153 129.438 80.5697C129.082 80.5241 128.721 80.5634 128.383 80.6845L127.236 81.3403L127.557 81.9109L128.665 81.2551C128.907 81.1836 129.163 81.1683 129.412 81.2104C129.66 81.2524 129.896 81.3507 130.102 81.4977C130.82 81.9651 131.418 82.5953 131.848 83.337C132.278 84.0788 132.526 84.9113 132.574 85.7671C132.608 86.0355 132.57 86.3081 132.464 86.557C132.358 86.8059 132.188 87.0221 131.971 87.1837L130.869 87.8396L131.197 88.4101Z" fill="#081E7A"/>
<path d="M109.882 103.061C110.079 102.943 129.38 91.5975 130.115 91.1777C131 90.6727 131.485 89.63 131.485 88.2396C131.402 86.757 130.971 85.3149 130.227 84.0297C129.483 82.7446 128.447 81.6525 127.203 80.8419C126.766 80.5398 126.263 80.346 125.736 80.2764C125.209 80.2068 124.673 80.2636 124.173 80.4419C124.107 80.4419 117.195 84.5211 103.632 92.4828L103.967 93.0468C104.17 92.9288 124.147 81.2026 124.461 81.0321C124.866 80.9036 125.294 80.871 125.713 80.937C126.132 81.0031 126.53 81.1659 126.875 81.4125C128.019 82.163 128.972 83.1718 129.655 84.3576C130.339 85.5434 130.734 86.8731 130.81 88.2396C130.81 89.3808 130.436 90.2071 129.767 90.6072C129.098 91.0072 109.725 102.412 109.528 102.497L109.882 103.061Z" fill="#081E7A"/>
<path d="M108.624 103.396C109.058 103.401 109.486 103.29 109.863 103.074C110.742 102.569 111.228 101.527 111.228 100.143C111.143 98.6605 110.711 97.2188 109.966 95.9347C109.221 94.6506 108.184 93.5601 106.938 92.7516C105.699 92.0368 104.525 91.945 103.659 92.4958L104.007 93.0533C104.663 92.6336 105.62 92.7319 106.63 93.3222C107.775 94.0719 108.728 95.0805 109.412 96.2665C110.095 97.4524 110.49 98.7825 110.565 100.149C110.565 101.29 110.191 102.117 109.529 102.51C108.867 102.904 107.935 102.799 106.906 102.222L106.578 102.792C107.195 103.171 107.901 103.379 108.624 103.396Z" fill="#081E7A"/>
<path d="M102.905 104.878L108.401 101.736C108.718 101.522 108.973 101.227 109.138 100.881C109.303 100.535 109.372 100.151 109.338 99.7689C109.292 98.7914 109.011 97.8394 108.519 96.9935C108.027 96.1476 107.339 95.4327 106.512 94.9092C106.216 94.7069 105.876 94.5777 105.52 94.5321C105.164 94.4865 104.803 94.5258 104.466 94.6469L104.728 95.2437C104.972 95.1671 105.231 95.1486 105.484 95.1896C105.737 95.2305 105.976 95.3299 106.184 95.4798C106.902 95.9472 107.501 96.5773 107.93 97.3191C108.36 98.0609 108.608 98.8934 108.656 99.7492C108.69 100.018 108.652 100.29 108.546 100.539C108.44 100.788 108.27 101.004 108.053 101.166L102.551 104.314L102.905 104.878Z" fill="#081E7A"/>
<path d="M72.1337 129.478L72.4485 128.901C72.4485 128.901 70.0219 127.589 69.1693 127.045C63.2669 123.366 62.4865 112.682 67.3724 101.645C73.1109 88.7576 84.4894 79.7007 92.7397 81.4845C93.5274 81.6546 94.2885 81.9304 95.0023 82.3043C95.4549 82.5469 98.2356 84.1406 98.2815 84.1537L98.6094 83.5831C98.4913 83.5176 95.7893 81.9698 95.3302 81.7272C94.5637 81.3218 93.7449 81.0239 92.8971 80.8418C84.3386 78.9989 72.6321 88.2264 66.7953 101.408C61.7716 112.748 62.6308 123.772 68.8414 127.642C69.6874 128.166 72.0353 129.478 72.1337 129.478ZM75.9965 123.215C82.2924 123.215 90.0968 116.571 94.1498 107.416C97.5994 99.6312 97.4289 92.0039 93.7366 88.4494L93.2841 88.9216C96.7796 92.286 96.8911 99.6181 93.553 107.154C89.3098 116.735 80.5348 123.72 74.3963 122.395L74.2586 123.051C74.8292 123.177 75.412 123.241 75.9965 123.241V123.215Z" fill="#081E7A"/>
<path d="M77.2487 130.855C85.499 130.855 95.7496 122.113 101.088 110.059C104.826 101.605 105.416 93.3222 102.655 87.8985C102.037 86.5805 101.123 85.4222 99.9864 84.5126C98.8494 83.603 97.5189 82.9664 96.0972 82.6519C87.5714 80.8025 75.8322 90.03 69.9953 103.212C66.2505 111.666 65.6603 119.949 68.4213 125.372C69.0402 126.69 69.9533 127.849 71.0903 128.758C72.2273 129.668 73.5579 130.305 74.9796 130.619C75.725 130.781 76.486 130.86 77.2487 130.855ZM93.7756 83.0651C94.5031 83.0647 95.2285 83.1417 95.9398 83.2946C97.2698 83.587 98.5146 84.1815 99.578 85.0322C100.641 85.8828 101.495 86.9668 102.072 88.2002C104.695 93.3681 104.092 101.638 100.485 109.79C95.238 121.595 85.2695 130.206 77.2815 130.206C76.5543 130.208 75.8288 130.134 75.1173 129.983C73.7883 129.688 72.5445 129.093 71.4815 128.242C70.4185 127.392 69.5645 126.309 68.9853 125.077C66.362 119.903 66.9654 111.633 70.5724 103.481C75.8059 91.6564 85.7876 83.0651 93.7756 83.0651ZM79.1769 125.038C85.4728 125.038 93.2771 118.401 97.3301 109.246C100.163 102.845 100.609 96.5751 98.5172 92.4631C98.043 91.4567 97.344 90.5726 96.4741 89.879C95.6043 89.1854 94.5868 88.7008 93.5001 88.4625C87.014 87.0722 78.1407 94.0633 73.7204 104.025C70.8938 110.4 70.4413 116.873 72.4874 120.926C72.9558 121.916 73.6451 122.786 74.5024 123.468C75.3597 124.151 76.3621 124.627 77.4324 124.861C78.0059 124.982 78.5906 125.044 79.1769 125.045V125.038ZM91.7425 88.9675C92.2867 88.9652 92.8297 89.0202 93.3624 89.1315C94.3568 89.349 95.288 89.7921 96.0839 90.4266C96.8799 91.0611 97.5195 91.8701 97.9532 92.791C99.9206 96.6669 99.4616 102.878 96.753 109.003C92.4901 118.572 83.7086 125.543 77.5767 124.231C76.598 124.017 75.6818 123.58 74.8993 122.955C74.1167 122.329 73.4889 121.532 73.0646 120.624C71.0971 116.748 71.5693 110.485 74.3106 104.288C78.2587 95.3749 85.7482 88.9479 91.7425 88.9479V88.9675Z" fill="#081E7A"/>
<path d="M39.4287 17.2764L53.6482 11.4373C53.7247 11.4014 53.8081 11.3828 53.8926 11.3828C53.9771 11.3828 54.0605 11.4014 54.1371 11.4373L59.5825 14.4979C59.8581 14.7433 59.8737 15.3492 59.5045 15.9811L47.4018 36.6579C47.1936 36.9872 47.1003 37.3767 47.1365 37.7651L49.9815 55.4231C50.1115 56.2274 49.3105 57.3608 48.6292 57.3399L33.6816 56.8803C33.509 56.9007 33.3427 56.9578 33.1938 57.0479C33.0449 57.1379 32.9169 57.2588 32.8182 57.4025L17.8654 75.1598C17.4961 75.5985 17.1008 75.7291 16.8252 75.6142C16.8252 75.6142 11.3746 72.6059 11.3382 72.5746C11.2499 72.4753 11.1875 72.3556 11.1567 72.2261C11.1258 72.0967 11.1274 71.9616 11.1613 71.8329L14.0271 50.8741C14.0687 50.5503 14.0271 50.2579 13.871 50.1586C13.5122 49.9132 1.53995 43.2278 1.53995 43.2278C0.268188 41.5251 9.35808 35.3118 19.5 28C27.4931 22.8041 34.9523 18.6332 39.4287 17.2764Z" fill="white"/>
<path d="M19.0692 52.9745C19.1883 53.067 19.2773 53.1931 19.3246 53.3368C19.3719 53.4805 19.3754 53.6351 19.3347 53.7808L16.4658 74.7934C16.3356 75.7516 17.1323 75.9663 17.8196 75.1495L32.789 57.3466C32.8877 57.2026 33.0159 57.0814 33.165 56.9911C33.314 56.9008 33.4805 56.8435 33.6533 56.823L48.5967 57.2995C49.2788 57.2995 50.0806 56.179 49.9504 55.3726L47.1023 37.6693C47.0661 37.2799 47.1595 36.8894 47.3679 36.5592L59.5048 15.8242C60.0515 14.8869 59.7548 13.9601 59.0102 14.2743L42.2601 21.1703C42.1422 21.2378 42.0029 21.2564 41.8716 21.2222C41.7403 21.188 41.6275 21.1036 41.5572 20.987L34.0855 7.6977C33.7418 7.09031 32.7577 7.66105 32.4141 8.66639L24.9216 30.5953C24.795 31.0064 24.5505 31.3707 24.2187 31.6425L7.46333 44.1411C6.69793 44.7119 6.39594 45.9843 6.94265 46.288L19.0692 52.9745Z" fill="#FFECFA"/>
<path d="M19.7331 27.5775L27.1852 5.50425C27.4647 4.67228 28.184 4.1352 28.6135 4.31422C28.6963 4.35108 33.0175 6.79431 33.8352 7.25768C33.3258 8.37874 32.6937 8.92413 32.5 9.50036L25.4515 29.3889C25.2827 30.0077 25.0448 30.6048 24.7426 31.1686L19.4743 28.0988C19.5839 27.9381 19.671 27.7627 19.7331 27.5775Z" fill="url(#paint3_linear_3156_18798)"/>
<path d="M19.116 53.6946L16.38 74.2304C16.3425 74.3679 16.3446 74.5137 16.386 74.65C16.4275 74.7862 16.5064 74.9072 16.6133 74.998C16.0274 74.6654 11.4839 72.076 11.4492 72.0453C11.3649 71.9481 11.3053 71.8308 11.2759 71.7039C11.2464 71.5771 11.2479 71.4447 11.2803 71.3187L14.0164 50.7828C14.0426 50.6593 14.0406 50.5312 14.0104 50.4086C13.9803 50.286 13.9228 50.1724 13.8426 50.0767L18.9124 52.9372C18.9124 52.9372 19.1756 53.0856 19.116 53.6946Z" fill="url(#paint4_linear_3156_18798)"/>
<path d="M16.4528 75.6538L16.7096 75.198C14.572 74.0137 11.3499 72.2322 11.2137 72.1431C11.1296 71.9954 11.1052 71.821 11.1456 71.6558L14.0219 50.6282C14.0679 50.4333 14.054 50.2289 13.982 50.042C13.91 49.855 13.7833 49.6941 13.6185 49.5803L6.80756 45.8652L1.4479 42.868C1.40132 42.8301 1.36393 42.7821 1.33852 42.7276C1.31312 42.6732 1.30036 42.6137 1.3012 42.5536C1.30532 42.2839 1.37009 42.0185 1.49072 41.7773C1.61134 41.536 1.78473 41.3249 1.99802 41.1598L18.8353 28.9192C19.2042 28.6298 19.4824 28.2406 19.6369 27.7979L19.113 27.6249C18.9975 27.9698 18.7846 28.2737 18.5 28.5L1.66795 40.7354C1.38462 40.9542 1.15549 41.2354 0.998306 41.557C0.841125 41.8787 0.760124 42.2323 0.761574 42.5903C0.760777 42.738 0.798534 42.8834 0.871124 43.0121C0.943714 43.1407 1.04862 43.2482 1.17547 43.3239L6.56132 46.3054L13.3722 50.0204C13.4927 50.0833 13.5451 50.2929 13.5084 50.5444L10.6217 71.5772C10.5782 71.7489 10.5789 71.9289 10.6238 72.1002C10.6687 72.2716 10.7563 72.4287 10.8784 72.5571C10.9255 72.5885 10.957 72.6147 16.4528 75.6538ZM39.4527 17.1613L53.7766 11.3031C53.8673 11.2664 53.9688 11.2664 54.0595 11.3031L59.5344 14.3265L59.7859 13.8654L54.2848 10.8053C54.174 10.7538 54.0533 10.7271 53.9311 10.7271C53.809 10.7271 53.6883 10.7538 53.5775 10.8053L39.2536 16.6792L39.4527 17.1613Z" fill="#081E7A"/>
<path d="M16.5861 75.6541C16.7924 75.6347 16.9921 75.5718 17.1722 75.4697C17.3522 75.3676 17.5084 75.2286 17.6303 75.0618L32.6357 57.3815C32.7908 57.1659 33.0255 57.0202 33.2883 56.9763L48.2989 57.4335C48.5038 57.425 48.7041 57.3706 48.8849 57.2743C49.0657 57.1781 49.2223 57.0424 49.3431 56.8776C49.5502 56.6567 49.7083 56.3951 49.8072 56.1096C49.9061 55.8241 49.9437 55.5211 49.9174 55.2202L47.0615 37.6594C47.0386 37.3308 47.1208 37.0034 47.2965 36.7242L59.4616 16.1396C59.8532 15.4798 59.8949 14.7784 59.5608 14.3991C59.4448 14.2734 59.2905 14.189 59.1217 14.159C58.9529 14.129 58.7788 14.1549 58.6262 14.2329L41.8457 21.0753C41.6629 21.1481 41.5376 21.1273 41.4697 21.0026L33.9775 7.82679C33.9072 7.70007 33.8007 7.5969 33.6716 7.53033C33.5424 7.46375 33.3963 7.43674 33.2518 7.45272C32.9076 7.53735 32.5932 7.7136 32.3421 7.96255C32.091 8.21151 31.9127 8.52379 31.8264 8.86589L24.3133 30.6455C24.1968 30.988 23.9827 31.2894 23.6972 31.5131L6.91663 43.9408C6.63766 44.1553 6.41104 44.4299 6.25372 44.7439C6.09641 45.0578 6.01246 45.4032 6.00816 45.754C6.01041 45.9005 6.0499 46.044 6.12294 46.1712C6.19597 46.2984 6.30018 46.4051 6.42585 46.4814L18.5387 53.116C18.6536 53.1836 18.7058 53.3914 18.6745 53.6356L15.7977 74.4903C15.7399 74.6945 15.7528 74.912 15.8342 75.108C15.9156 75.304 16.0609 75.4671 16.2467 75.571C16.3512 75.626 16.4678 75.6546 16.5861 75.6541ZM33.2935 56.4308C33.0876 56.4496 32.8881 56.5116 32.7081 56.6128C32.5281 56.714 32.3717 56.8521 32.2493 57.0178L17.2335 74.6826C16.9307 75.0463 16.6331 75.1346 16.4869 75.0722C16.3407 75.0099 16.2989 74.8073 16.3407 74.5527L19.2175 53.7239C19.2641 53.5306 19.2506 53.3277 19.1788 53.1422C19.107 52.9566 18.9803 52.7971 18.8155 52.6848L6.68168 46.0449C6.63411 46.0095 6.59593 45.9631 6.57046 45.9097C6.54498 45.8563 6.53298 45.7975 6.53549 45.7384C6.53959 45.471 6.60413 45.2079 6.72434 44.9686C6.84455 44.7294 7.01733 44.5201 7.22989 44.3564L24.0104 31.9028C24.3779 31.6167 24.6536 31.2304 24.804 30.7909L32.3172 9.00617C32.3801 8.76496 32.503 8.54337 32.6745 8.36179C32.846 8.18021 33.0607 8.04447 33.2987 7.96707C33.343 7.95756 33.3891 7.96379 33.4292 7.98468C33.4693 8.00556 33.5007 8.03978 33.518 8.08137L40.9894 21.2624C41.0912 21.4365 41.2569 21.5645 41.4516 21.6198C41.6462 21.675 41.8548 21.653 42.0336 21.5585L58.8194 14.7316C58.9812 14.6641 59.0961 14.6745 59.164 14.7316C59.3206 14.9083 59.3049 15.3811 59.0126 15.8746L46.8631 36.4436C46.622 36.8241 46.5171 37.2745 46.5655 37.7217L49.4162 55.2826C49.4284 55.5077 49.3944 55.733 49.3163 55.9447C49.2382 56.1564 49.1177 56.35 48.962 56.5139C48.8899 56.6183 48.7963 56.7061 48.6873 56.7715C48.5784 56.8369 48.4566 56.8784 48.3302 56.8932L33.3248 56.436L33.2935 56.4308Z" fill="#081E7A"/>
<path d="M24.7783 31.0578C24.8031 31.0577 24.8274 31.051 24.8485 31.0382C24.8697 31.0255 24.887 31.0072 24.8984 30.9855C25.242 30.4098 25.5005 29.7886 25.6662 29.1405L32.7746 8.64922C32.9045 8.24852 33.1799 7.90971 33.5476 7.69831C33.6415 7.64196 33.7537 7.62346 33.861 7.64663C33.919 7.66641 33.9822 7.66533 34.0395 7.6436C34.0968 7.62186 34.1446 7.58085 34.1744 7.52776C34.2052 7.4751 34.2159 7.4132 34.2043 7.35341C34.1928 7.29362 34.1599 7.23993 34.1117 7.20218L34.0438 7.14533C32.4456 6.26159 28.8208 4.26156 28.7059 4.22022C28.5906 4.17967 28.4681 4.16289 28.3459 4.17089C28.2238 4.17888 28.1046 4.2115 27.9956 4.26673C27.4795 4.53485 27.091 4.99352 26.9145 5.54324L19.3986 27.2076C19.3421 27.3668 19.2649 27.5179 19.1688 27.6572C19.1487 27.6874 19.1351 27.7213 19.1289 27.7568C19.1226 27.7924 19.1237 27.8289 19.1323 27.864C19.1399 27.8981 19.1545 27.9304 19.1752 27.9589C19.1958 27.9873 19.2221 28.0113 19.2524 28.0293L21.9109 29.5384C24.068 30.7581 24.5902 31.0578 24.7783 31.0578ZM33.2238 7.28486C32.7737 7.57007 32.4405 8.00412 32.2837 8.50969L25.17 29.0113C25.016 29.518 24.8311 30.0151 24.6164 30.4997L19.7486 27.7348C19.8039 27.6275 19.8527 27.517 19.8948 27.404L27.4106 5.70861C27.5419 5.29567 27.8278 4.94804 28.2098 4.73702C28.3004 4.6869 28.4073 4.67391 28.5075 4.70085C28.6328 4.75769 31.2809 6.20991 33.2238 7.28486Z" fill="#081E7A"/>
<defs>
<linearGradient id="paint0_linear_3156_18798" x1="30.9301" y1="40" x2="15.1384" y2="41.0392" gradientUnits="userSpaceOnUse">
<stop stop-color="#E64C4E"/>
<stop offset="1" stop-color="#EF33F9"/>
</linearGradient>
<linearGradient id="paint1_linear_3156_18798" x1="98.4316" y1="80.7837" x2="52.7101" y2="113.567" gradientUnits="userSpaceOnUse">
<stop stop-color="#E64C4E"/>
<stop offset="1" stop-color="#EF33F9"/>
</linearGradient>
<linearGradient id="paint2_linear_3156_18798" x1="99.5" y1="88.7119" x2="65.6824" y2="112.358" gradientUnits="userSpaceOnUse">
<stop stop-color="#E64C4E"/>
<stop offset="1" stop-color="#EF33F9"/>
</linearGradient>
<linearGradient id="paint3_linear_3156_18798" x1="33.8352" y1="4.27979" x2="11.4879" y2="16.2151" gradientUnits="userSpaceOnUse">
<stop stop-color="#E64C4E"/>
<stop offset="1" stop-color="#EF33F9"/>
</linearGradient>
<linearGradient id="paint4_linear_3156_18798" x1="19.1248" y1="50.0767" x2="4.81222" y2="54.5964" gradientUnits="userSpaceOnUse">
<stop stop-color="#E64C4E"/>
<stop offset="1" stop-color="#EF33F9"/>
</linearGradient>
</defs>
</svg>
