<svg width="184" height="184" viewBox="0 0 184 184" fill="none" xmlns="http://www.w3.org/2000/svg">
<path opacity="0.08" d="M108.68 107.886L51.7118 140.808C51.516 140.679 51.3353 140.551 51.1245 140.431C45.1904 137.001 35.574 137.001 29.64 140.431C23.7059 143.861 23.7059 149.417 29.64 152.847C35.3556 156.149 44.4901 156.262 50.4542 153.194L115.683 191L184 151.528L108.68 107.886Z" fill="black"/>
<path d="M167.335 140.054V90.5245L170.347 92.3941L172.478 89.8536L137.989 68.504L78.8518 34.0824L78.4301 36.5626C71.6978 23.4906 61.6446 11.8509 50.4543 5.36005C39.8137 -0.753822 30.265 -1.09306 23.5554 3.33968L11.9735 10.034C4.81951 13.6451 0.338867 22.0733 0.338867 34.301C0.338867 37.4824 1.15216 41.8397 2.24408 46.2499C4.58499 55.4651 7.81572 64.4306 11.8906 73.0197L36.7789 126.311C36.898 126.463 37.0677 126.567 37.257 126.604C37.4463 126.641 37.6428 126.61 37.8106 126.514C37.8106 126.514 50.6124 118.93 51.3655 118.222L50.9664 145.255L116.128 182.949V183.303L174.866 149.379V144.743L167.335 140.054ZM53.4665 71.12C53.4665 71.12 44.204 68.0517 38.0892 56.4949C33.4881 47.7877 33.7893 41.8096 33.6989 36.5174C33.6989 35.7183 43.8726 42.4277 48.7599 50.087C56.7272 62.6616 53.4665 71.12 53.4665 71.12Z" fill="white"/>
<path d="M174.489 149.53L116.504 183.047V178.124L174.489 144.607V149.53Z" fill="#FFECFA"/>
<path d="M174.489 144.607L116.504 178.124L109.734 173.789L167.719 140.272L174.489 144.607Z" fill="white"/>
<path d="M116.451 182.994L50.9883 145.135V140.227L116.451 178.086V182.994Z" fill="url(#paint0_linear_2912_18510)"/>
<path d="M139.179 73.095L170.37 92.3864L172.501 89.8459L137.996 68.5039L104.704 127.585L107.98 128.451L139.179 73.095Z" fill="#FFECFA"/>
<path d="M148.133 108.994L136.084 115.96V102.097L148.133 95.1309V108.994Z" fill="url(#paint1_linear_2912_18510)"/>
<path d="M150.391 150.487L136.836 158.026V124.999L150.391 117.882V150.487Z" fill="#FFECFA"/>
<path d="M84.876 146.401L96.1717 152.93V129.68L84.876 123.152V146.401Z" fill="#FFECFA"/>
<path d="M60.0254 112.04V131.934L71.3211 138.47V115.214L61.9532 109.801L60.0254 112.04Z" fill="#FFECFA"/>
<path d="M109.727 73.5926V91.5271L102.196 86.6722V69.8232L109.727 73.5926Z" fill="url(#paint2_linear_2912_18510)"/>
<path d="M109.606 60.0605L118.416 65.1492L109.606 70.2453L100.795 65.1492L109.606 60.0605Z" fill="#FFECFA"/>
<path d="M109.606 62.2544L114.614 65.1492L109.606 68.0516L104.591 65.1492L109.606 62.2544Z" fill="url(#paint3_linear_2912_18510)"/>
<path d="M37.1024 126.077C37.1007 126.165 37.1231 126.253 37.1672 126.33C37.2112 126.407 37.2753 126.47 37.3526 126.514C37.4299 126.557 37.5175 126.578 37.6061 126.576C37.6946 126.573 37.7808 126.547 37.8554 126.499L50.0624 119.443C50.1425 119.395 50.2138 119.334 50.2732 119.262L75.6434 94.4218C80.0299 90.038 83.3331 84.6892 85.29 78.8017C86.4475 75.677 87.0909 72.3851 87.1952 69.0542C87.1952 45.6089 70.7486 17.0901 50.4615 5.3674C39.836 -0.754004 30.2873 -1.07817 23.5852 3.35458L10.3691 10.9913L37.1024 19.2838L71.3209 71.3007L37.1024 126.454V126.077Z" fill="white"/>
<path d="M37.1032 13.0794C16.8235 1.35679 0.376953 10.8555 0.376953 34.3084C0.376953 37.4897 1.19025 41.847 2.28217 46.2572C4.62506 55.4684 7.85312 64.431 11.9212 73.0195L36.8095 126.295C36.8437 126.361 36.8923 126.417 36.9515 126.461C37.0107 126.505 37.0791 126.535 37.1515 126.549C37.2239 126.563 37.2984 126.56 37.3696 126.541C37.4408 126.522 37.5067 126.487 37.5625 126.439L62.255 102.134C66.6399 97.7488 69.9429 92.4004 71.9016 86.5137C73.0619 83.3899 73.7054 80.0975 73.8068 76.7662C73.8369 53.3134 57.3903 24.8021 37.1032 13.0794ZM36.9827 77.3768C27.6675 71.9188 20.1294 58.8468 20.0617 48.0438C19.9939 37.4218 28.0816 32.7554 37.2312 38.1229C46.5464 43.5809 54.0844 56.653 54.1522 67.4559C54.22 78.0704 46.1322 82.7444 36.9827 77.3768Z" fill="url(#paint4_linear_2912_18510)"/>
<path d="M167.615 139.825L167.215 140.464L174.443 145.003L174.843 144.364L167.615 139.825Z" fill="#081E7A"/>
<path d="M137.213 158.026H136.46V125.715C136.46 125.649 136.478 125.585 136.511 125.528C136.544 125.471 136.591 125.424 136.648 125.391L150.203 117.55C150.26 117.517 150.325 117.5 150.391 117.5C150.457 117.5 150.522 117.517 150.58 117.55C150.637 117.585 150.684 117.634 150.717 117.692C150.75 117.75 150.767 117.815 150.768 117.882V150.487H150.015V118.531L137.213 125.934V158.026Z" fill="#081E7A"/>
<path d="M116.504 183.446C116.438 183.448 116.372 183.429 116.316 183.394C116.259 183.361 116.212 183.314 116.179 183.257C116.146 183.2 116.128 183.135 116.128 183.07V178.147C116.13 178.081 116.148 178.017 116.181 177.961C116.214 177.904 116.26 177.857 116.316 177.823L174.301 144.313C174.358 144.28 174.423 144.263 174.489 144.263C174.555 144.263 174.62 144.28 174.677 144.313C174.734 144.346 174.782 144.393 174.815 144.45C174.848 144.507 174.865 144.572 174.866 144.637V149.553C174.865 149.619 174.848 149.685 174.815 149.743C174.782 149.801 174.734 149.85 174.677 149.884L116.693 183.394C116.637 183.429 116.571 183.448 116.504 183.446ZM116.881 178.365V182.436L174.113 149.364V145.316L116.881 178.365Z" fill="#081E7A"/>
<path d="M116.263 183.348L50.8006 145.496C50.7436 145.462 50.6964 145.413 50.6634 145.355C50.6305 145.297 50.6129 145.231 50.6123 145.165V140.265C50.6129 140.198 50.6305 140.132 50.6634 140.074C50.6964 140.016 50.7436 139.967 50.8006 139.933C50.8578 139.9 50.9227 139.882 50.9888 139.882C51.0549 139.882 51.1199 139.9 51.1771 139.933L116.64 177.792L116.263 178.448L51.3654 140.905V144.946L116.64 182.692L116.263 183.348Z" fill="#081E7A"/>
<path d="M109.742 174.053C109.676 174.053 109.612 174.038 109.554 174.008C109.496 173.974 109.447 173.926 109.414 173.867C109.381 173.809 109.364 173.743 109.365 173.676V125.609H110.118V173.028L167.35 139.955V90.2002H168.103V140.197C168.103 140.263 168.085 140.327 168.052 140.384C168.019 140.441 167.972 140.488 167.915 140.521L109.93 174.03C109.87 174.052 109.805 174.06 109.742 174.053Z" fill="#081E7A"/>
<path d="M52.1183 120.333H51.3652V139.873H52.1183V120.333Z" fill="#081E7A"/>
<path d="M107.98 128.828H107.882L104.606 127.969C104.551 127.954 104.5 127.926 104.457 127.888C104.414 127.851 104.38 127.803 104.358 127.75C104.33 127.699 104.315 127.642 104.315 127.584C104.315 127.527 104.33 127.47 104.358 127.419L137.65 68.338C137.675 68.2926 137.71 68.253 137.751 68.2218C137.793 68.1906 137.84 68.1686 137.891 68.1571C137.939 68.1435 137.99 68.1405 138.039 68.1483C138.088 68.1561 138.135 68.1745 138.177 68.2023L172.682 89.5367C172.727 89.566 172.766 89.6045 172.795 89.6497C172.825 89.695 172.845 89.7459 172.853 89.7993C172.862 89.8526 172.859 89.9071 172.845 89.9593C172.831 90.0115 172.806 90.0602 172.772 90.1021L170.649 92.6427C170.59 92.7123 170.509 92.7588 170.419 92.774C170.329 92.7892 170.237 92.772 170.159 92.7256L139.314 73.6226L108.311 128.655C108.275 128.709 108.225 128.754 108.167 128.784C108.11 128.814 108.045 128.829 107.98 128.828ZM105.269 127.321L107.792 127.984L138.847 72.8763C138.872 72.8319 138.906 72.793 138.946 72.7619C138.986 72.7309 139.033 72.7083 139.082 72.6957C139.131 72.683 139.182 72.6804 139.233 72.6881C139.283 72.6959 139.331 72.7137 139.374 72.7406L170.295 91.8662L171.929 89.9061L138.132 69.0315L105.269 127.321Z" fill="#081E7A"/>
<path d="M104.674 127.961C104.606 127.962 104.539 127.946 104.478 127.916L66.6445 105.873L67.0211 105.217L104.561 127.079L137.484 68.6546L78.6783 34.414L79.0623 33.7656L138.184 68.1797C138.269 68.2302 138.332 68.3117 138.359 68.4072C138.385 68.5028 138.374 68.6049 138.327 68.6923L105.027 127.773C105.004 127.817 104.972 127.856 104.933 127.887C104.894 127.918 104.85 127.941 104.802 127.954L104.674 127.961Z" fill="#081E7A"/>
<path d="M136.084 116.337C136.017 116.338 135.952 116.32 135.895 116.284C135.838 116.251 135.791 116.204 135.758 116.147C135.725 116.09 135.707 116.026 135.707 115.96V102.096C135.707 102.03 135.725 101.966 135.758 101.909C135.791 101.852 135.838 101.805 135.895 101.772L147.944 94.8064C148.001 94.7733 148.066 94.7559 148.132 94.7559C148.198 94.7559 148.263 94.7733 148.321 94.8064C148.378 94.8392 148.425 94.8865 148.458 94.9433C148.491 95.0002 148.508 95.0647 148.509 95.1305V108.994C148.508 109.061 148.491 109.126 148.458 109.184C148.425 109.243 148.378 109.291 148.321 109.326L136.272 116.284C136.216 116.32 136.15 116.338 136.084 116.337ZM136.46 102.315V115.342L147.756 108.813V95.7864L136.46 102.315Z" fill="#081E7A"/>
<path d="M96.1723 153.035C96.1068 153.036 96.0422 153.02 95.984 152.99L84.6883 146.462C84.6313 146.427 84.5841 146.378 84.5511 146.32C84.5182 146.262 84.5006 146.197 84.5 146.13V122.881C84.5004 122.815 84.518 122.75 84.551 122.693C84.584 122.636 84.6314 122.589 84.6883 122.556C84.7455 122.523 84.8104 122.506 84.8765 122.506C84.9426 122.506 85.0075 122.523 85.0648 122.556L96.3605 129.085C96.4174 129.118 96.4648 129.165 96.4978 129.222C96.5308 129.279 96.5484 129.343 96.5488 129.409V152.658C96.5482 152.725 96.5306 152.791 96.4977 152.849C96.4647 152.907 96.4175 152.955 96.3605 152.99C96.3023 153.02 96.2377 153.036 96.1723 153.035ZM85.253 145.911L95.7957 152.01V129.665L85.253 123.574V145.911Z" fill="#081E7A"/>
<path d="M71.3207 138.84C71.2552 138.84 71.1906 138.825 71.1324 138.795L59.8367 132.266C59.7797 132.231 59.7325 132.183 59.6995 132.125C59.6666 132.067 59.649 132.001 59.6484 131.934V112.04H60.4015V131.723L70.9442 137.815V115.432L61.7645 110.155L62.141 109.507L71.5391 114.889C71.596 114.922 71.6433 114.97 71.6763 115.026C71.7094 115.083 71.727 115.148 71.7273 115.214V138.463C71.7268 138.53 71.7092 138.595 71.6762 138.653C71.6433 138.711 71.5961 138.76 71.5391 138.795C71.4719 138.83 71.3963 138.845 71.3207 138.84Z" fill="#081E7A"/>
<path d="M109.727 91.904C109.655 91.9062 109.584 91.8851 109.524 91.8437L101.994 86.9888C101.941 86.9538 101.898 86.9068 101.868 86.8517C101.838 86.7966 101.822 86.735 101.82 86.6722V69.8232H102.573V86.4611L109.351 90.8411V73.5926H110.104V91.5271C110.105 91.5951 110.087 91.662 110.053 91.7205C110.018 91.7791 109.968 91.8269 109.908 91.8588C109.852 91.8879 109.79 91.9035 109.727 91.904Z" fill="#081E7A"/>
<path d="M110.042 91.7306L109.402 91.3386L116.88 79.1561V69.8232H117.633V79.2843C117.632 79.3553 117.614 79.4251 117.58 79.4878L110.042 91.7306Z" fill="#081E7A"/>
<path d="M109.606 70.6224C109.539 70.6237 109.474 70.6053 109.418 70.5696L100.607 65.481C100.549 65.4481 100.501 65.4005 100.467 65.3428C100.434 65.2852 100.416 65.2198 100.416 65.1531C100.416 65.0864 100.434 65.0209 100.467 64.9633C100.501 64.9057 100.549 64.858 100.607 64.8251L109.418 59.7365C109.475 59.7035 109.54 59.686 109.606 59.686C109.672 59.686 109.737 59.7035 109.794 59.7365L118.605 64.8327C118.663 64.8656 118.711 64.9132 118.744 64.9708C118.778 65.0284 118.796 65.0939 118.796 65.1606C118.796 65.2273 118.778 65.2928 118.744 65.3504C118.711 65.408 118.663 65.4557 118.605 65.4885L109.794 70.5772C109.737 70.6095 109.672 70.6251 109.606 70.6224ZM101.548 65.1493L109.606 69.8082L117.663 65.1493L109.606 60.4979L101.548 65.1493Z" fill="#081E7A"/>
<path d="M109.727 74.4975C109.661 74.4952 109.596 74.4771 109.538 74.4447L100.502 69.2204C100.445 69.1875 100.398 69.1403 100.364 69.0834C100.331 69.0266 100.314 68.962 100.313 68.8962V65.3003H101.067V68.6776L109.35 73.4647V70.5774H110.103V74.1205C110.103 74.1863 110.085 74.2509 110.052 74.3077C110.019 74.3646 109.972 74.4118 109.915 74.4447C109.857 74.4771 109.793 74.4952 109.727 74.4975Z" fill="#081E7A"/>
<path d="M110.141 74.3316L109.765 73.6758L118.387 68.6927V65.3003H119.14V68.9113C119.14 68.9781 119.122 69.0436 119.089 69.1016C119.056 69.1597 119.009 69.2084 118.952 69.243L110.141 74.3316Z" fill="#081E7A"/>
<path d="M109.606 68.4287C109.54 68.4264 109.476 68.4083 109.418 68.3759L104.403 65.4811C104.345 65.4482 104.297 65.4005 104.263 65.3429C104.23 65.2853 104.212 65.2198 104.212 65.1532C104.212 65.0865 104.23 65.021 104.263 64.9634C104.297 64.9058 104.345 64.8581 104.403 64.8252L109.418 61.9304C109.475 61.8973 109.54 61.8799 109.606 61.8799C109.672 61.8799 109.737 61.8973 109.795 61.9304L114.802 64.8328C114.86 64.8656 114.909 64.9133 114.942 64.9709C114.976 65.0285 114.993 65.094 114.993 65.1607C114.993 65.2274 114.976 65.2929 114.942 65.3505C114.909 65.4081 114.86 65.4558 114.802 65.4886L109.795 68.3759C109.737 68.4073 109.672 68.4253 109.606 68.4287ZM105.344 65.1494L109.606 67.6145L113.861 65.1494L109.606 62.6918L105.344 65.1494Z" fill="#081E7A"/>
<path d="M37.5921 126.944C37.4381 126.945 37.2869 126.903 37.1553 126.823C37.0223 126.748 36.9121 126.639 36.8365 126.506C36.7609 126.373 36.7228 126.222 36.7261 126.069H37.4791C37.4787 126.089 37.4833 126.108 37.4926 126.125C37.5018 126.143 37.5153 126.157 37.5318 126.167C37.5492 126.177 37.5686 126.181 37.5883 126.181C37.608 126.181 37.6274 126.177 37.6448 126.167L49.8517 119.111C49.8923 119.085 49.928 119.052 49.9571 119.013L50.0023 118.968C50.5294 118.478 75.109 94.3919 75.3575 94.1431C79.7026 89.8018 82.9749 84.5047 84.9137 78.6737C86.0636 75.5896 86.6996 72.3373 86.7963 69.0468C86.7963 45.7598 70.4024 17.3315 50.2508 5.72191C40.2428 -0.0904109 30.5962 -0.829202 23.7962 3.67139L10.5425 11.3081L10.166 10.6597L23.3971 3.01553C30.4306 -1.62076 40.3633 -0.889511 50.6273 5.04343C70.9597 16.8113 87.5267 45.5261 87.5267 69.0544C87.4303 72.4275 86.779 75.7616 85.5989 78.9225C83.624 84.8666 80.2898 90.267 75.862 94.6934L63.2033 107.117C53.5492 116.578 51.1545 118.908 50.4918 119.466L50.537 119.503C50.4533 119.611 50.3482 119.701 50.2282 119.767L38.0213 126.823C37.8919 126.902 37.7435 126.944 37.5921 126.944ZM53.8579 71.6552L52.1786 71.0597C41.2067 66.0615 31.9593 50.0343 33.134 38.0553L33.3449 36.4722L34.0979 36.5702L33.8871 38.1458C32.7575 49.8307 41.7941 65.4961 52.4798 70.3586L54.129 70.9466L53.8579 71.6552Z" fill="#081E7A"/>
<path d="M37.2533 126.959H37.0952C36.9588 126.932 36.8306 126.874 36.7207 126.789C36.6109 126.704 36.5225 126.594 36.4626 126.469L11.612 73.1929C7.52099 64.5789 4.27274 55.5885 1.91274 46.3477C0.640092 41.2063 0 37.1581 0 34.3084C0 22.827 3.88573 14.2555 10.9493 10.1847C18.0129 6.11377 27.3583 7.01841 37.306 12.7629C57.6384 24.5232 74.2055 53.2381 74.2055 76.7738C74.1092 80.1431 73.4631 83.4739 72.2927 86.6344C70.312 92.5754 66.9756 97.9725 62.5482 102.398L37.8558 126.71C37.6954 126.869 37.479 126.958 37.2533 126.959ZM20.6863 8.42061C17.3973 8.3727 14.1553 9.20556 11.2957 10.833C4.51829 14.7682 0.753049 23.106 0.753049 34.3084C0.753049 37.0902 1.38561 41.0932 2.6432 46.1592C4.97952 55.351 8.20266 64.2937 12.2672 72.8612L37.1178 126.137C37.1247 126.154 37.1361 126.168 37.1507 126.179C37.1653 126.19 37.1826 126.196 37.2006 126.197C37.2152 126.207 37.2322 126.212 37.2496 126.212C37.2669 126.212 37.2839 126.207 37.2985 126.197L61.991 101.893C66.3362 97.5486 69.6084 92.249 71.5472 86.4158C72.6976 83.3344 73.3337 80.0846 73.4298 76.7964C73.4298 53.5019 57.0359 25.0811 36.8843 13.4715C31.1913 10.0942 25.6714 8.42061 20.7013 8.42061H20.6863ZM44.3696 79.9853C41.6891 79.9151 39.0751 79.1347 36.794 77.7237C27.426 72.2129 19.7525 58.9071 19.6847 48.0439C19.6847 42.8422 21.5899 38.7336 25.0012 36.7359C28.4125 34.7381 32.9384 35.1452 37.419 37.7687C46.7869 43.2644 54.4605 56.5702 54.5283 67.4334C54.5283 72.6275 52.6231 76.7437 49.2118 78.7414C47.7363 79.5781 46.0653 80.0074 44.3696 79.9853ZM29.8509 36.261C28.2847 36.2391 26.7409 36.6346 25.3778 37.4068C22.2074 39.2387 20.4076 43.1136 20.4377 48.0364C20.5055 58.6584 28.0134 71.6777 37.1705 77.0452C41.4177 79.533 45.6649 79.9099 48.8352 78.078C52.0056 76.2461 53.8054 72.3712 53.7752 67.4485C53.7075 56.834 46.1996 43.8147 37.0425 38.4472C34.8792 37.0985 32.3981 36.3469 29.8509 36.2685V36.261Z" fill="#081E7A"/>
<defs>
<linearGradient id="paint0_linear_2912_18510" x1="50.9883" y1="140.227" x2="90.1524" y2="200.175" gradientUnits="userSpaceOnUse">
<stop stop-color="#E64C4E"/>
<stop offset="1" stop-color="#EF33F9"/>
</linearGradient>
<linearGradient id="paint1_linear_2912_18510" x1="136.084" y1="95.1309" x2="154.14" y2="105.575" gradientUnits="userSpaceOnUse">
<stop stop-color="#E64C4E"/>
<stop offset="1" stop-color="#EF33F9"/>
</linearGradient>
<linearGradient id="paint2_linear_2912_18510" x1="102.196" y1="69.8232" x2="115.639" y2="74.4874" gradientUnits="userSpaceOnUse">
<stop stop-color="#E64C4E"/>
<stop offset="1" stop-color="#EF33F9"/>
</linearGradient>
<linearGradient id="paint3_linear_2912_18510" x1="104.591" y1="62.2544" x2="109.616" y2="70.9424" gradientUnits="userSpaceOnUse">
<stop stop-color="#E64C4E"/>
<stop offset="1" stop-color="#EF33F9"/>
</linearGradient>
<linearGradient id="paint4_linear_2912_18510" x1="0.376953" y1="8.05762" x2="106.491" y2="73.8124" gradientUnits="userSpaceOnUse">
<stop stop-color="#E64C4E"/>
<stop offset="1" stop-color="#EF33F9"/>
</linearGradient>
</defs>
</svg>
