<svg width="194" height="201" viewBox="0 0 194 201" fill="none" xmlns="http://www.w3.org/2000/svg">
<path fill-rule="evenodd" clip-rule="evenodd" d="M84.7735 169.492L79.5999 156.227L80.3178 155.77L92.8396 140.178C93.208 139.719 93.4764 139.188 93.6276 138.619C93.7788 138.05 93.8094 137.456 93.7175 136.874C93.6256 136.293 93.4132 135.737 93.094 135.243C92.7747 134.748 92.3556 134.326 91.8635 134.003L81.4209 127.139L81.0618 127.035C82.832 118.493 84.3138 109.95 85.6009 100.953C86.6837 93.2678 86.4674 85.4552 84.9609 77.8417L84.4271 76.0955C84.9661 75.631 85.3617 75.0226 85.5677 74.3415C85.9058 73.1831 86.1096 72.614 86.2055 72.3717C86.2055 72.3717 86.2173 72.3311 86.2241 72.308C86.2316 72.2871 86.2378 72.2658 86.2427 72.2442C86.6214 71.0976 86.3897 69.7162 85.5296 68.2268C85.3127 66.4286 84.2932 60.4675 79.4909 48.2352C68.8797 55.9685 64.7787 60.435 63.6286 61.8342C62.103 62.4952 61.1741 63.4813 60.8608 64.6407C60.5503 65.3847 60.2933 66.15 60.0918 66.9306C59.9632 67.688 59.9263 68.4581 59.9818 69.2243C54.1371 75.0791 49.3833 81.9292 45.9433 89.453C42.3118 97.4153 38.9324 105.483 35.8053 113.655L23.3567 113.793C22.7657 113.799 22.1826 113.929 21.645 114.174C21.1073 114.419 20.6272 114.775 20.2355 115.218C19.8439 115.66 19.5495 116.18 19.3714 116.743C19.1932 117.307 19.1353 117.902 19.2014 118.489L21.299 137.726L21.9803 139.333L10.0972 148.021C9.03605 148.799 8.25177 149.895 7.85933 151.151C7.46689 152.406 7.48692 153.754 7.91649 154.997L14.3841 173.756L16.5928 175.105L21.9978 155.166L27.3729 151.977L27.4588 152.178C26.7115 154.738 27.9162 157.868 31.2488 160.965C31.2952 160.979 32.0121 161.559 32.0459 161.594L32.3152 164.526C33.0953 173.956 35.3013 183.627 38.5796 188.827C45.1453 185.715 54.1897 178.762 60.0449 169.125C64.2207 168.257 66.754 166.319 67.4725 163.857L67.7194 163.011L71.9836 168.732L64.6637 189.136L67.3448 188.888L82.8882 176.554C83.9135 175.731 84.6493 174.602 84.9884 173.332C85.3276 172.061 85.2522 170.716 84.7735 169.492Z" fill="white"/>
<path fill-rule="evenodd" clip-rule="evenodd" d="M92.0984 134.04L81.2957 126.945L76.4265 147.525L79.3477 157.222L93.0761 140.209C93.4434 139.75 93.7109 139.219 93.8614 138.651C94.0119 138.082 94.0422 137.489 93.9501 136.908C93.8581 136.328 93.6459 135.772 93.327 135.279C93.0081 134.785 92.5897 134.363 92.0984 134.04Z" fill="white"/>
<path fill-rule="evenodd" clip-rule="evenodd" d="M23.5935 113.843C23.0049 113.851 22.4245 113.982 21.8893 114.227C21.3542 114.472 20.8762 114.826 20.486 115.267C20.0957 115.707 19.8019 116.225 19.6234 116.785C19.4448 117.346 19.3854 117.938 19.4491 118.524L21.7991 140.299L28.3207 135.916L36.044 113.656L23.5935 113.843Z" fill="white"/>
<path fill-rule="evenodd" clip-rule="evenodd" d="M31.5972 164.317C32.3715 173.746 35.5243 183.661 38.8027 188.861C45.3684 185.749 54.4461 178.768 60.2849 169.101L31.6748 160.153L31.5972 164.317Z" fill="url(#paint0_linear_3159_19086)"/>
<path fill-rule="evenodd" clip-rule="evenodd" d="M35.6684 166.24C35.5125 170.909 36.6217 175.4 37.8655 177.04C39.478 176.102 42.2234 172.145 44.2424 167.36L35.9299 163.406L35.6684 166.24Z" fill="#FFECFA"/>
<path fill-rule="evenodd" clip-rule="evenodd" d="M27.5057 152.148C26.7567 154.714 27.9615 157.844 31.3015 160.937C37.9742 167.128 50.6421 170.825 59.5973 169.196C64.0769 168.385 66.7762 166.395 67.5252 163.829L68.12 162.286L63.8239 162.749L47.3012 161.49L27.9673 150.566L27.5057 152.148Z" fill="#FFECFA"/>
<path fill-rule="evenodd" clip-rule="evenodd" d="M27.7218 151.494C28.5266 152.503 29.3964 153.458 30.3255 154.353C38.3396 161.784 53.5562 166.226 64.3093 164.273C65.5768 164.051 66.8208 163.711 68.0251 163.258L66.5265 159.778C66.5265 159.778 56.9968 161.717 47.1687 158.434C40.9987 156.403 35.2628 153.236 30.2568 149.097L27.7218 151.494Z" fill="white"/>
<path d="M54.8006 135.084C57.8397 135.971 61.0225 134.227 61.9096 131.188C62.7966 128.149 61.0521 124.966 58.013 124.079C54.9739 123.192 51.7911 124.936 50.9041 127.975C50.017 131.015 51.7615 134.197 54.8006 135.084Z" fill="url(#paint1_linear_3159_19086)"/>
<path fill-rule="evenodd" clip-rule="evenodd" d="M68.8342 86.6176C65.9197 85.7669 62.8185 85.7996 59.9225 86.7114C57.0266 87.6233 54.4661 89.3734 52.5649 91.7405C50.6636 94.1075 49.507 96.9852 49.2412 100.01C48.9755 103.034 49.6125 106.069 51.0718 108.732C52.5311 111.394 54.7471 113.564 57.4396 114.967C60.1321 116.37 63.1802 116.943 66.1984 116.614C69.2165 116.284 72.0692 115.067 74.3957 113.116C76.7223 111.166 78.4181 108.569 79.2688 105.655C79.8345 103.719 80.0132 101.692 79.7949 99.6876C79.5766 97.6834 78.9654 95.7418 77.9964 93.9738C77.0273 92.2059 75.7194 90.6462 74.1473 89.384C72.5752 88.1218 70.7698 87.1818 68.8342 86.6176ZM61.4965 111.757C59.4343 111.155 57.597 109.955 56.2168 108.309C54.8366 106.662 53.9756 104.644 53.7425 102.509C53.5095 100.373 53.9149 98.2164 54.9075 96.3113C55.9002 94.4063 57.4355 92.8383 59.3192 91.8058C61.203 90.7733 63.3506 90.3225 65.4905 90.5106C67.6304 90.6986 69.6666 91.517 71.3414 92.8622C73.0162 94.2075 74.2545 96.0191 74.8997 98.0681C75.5448 100.117 75.5679 102.311 74.966 104.374C74.5689 105.746 73.905 107.026 73.0123 108.141C72.1197 109.256 71.0159 110.184 69.7641 110.872C68.5124 111.56 67.1372 111.994 65.7173 112.15C64.2975 112.306 62.8608 112.18 61.4897 111.78L61.4965 111.757Z" fill="white"/>
<path fill-rule="evenodd" clip-rule="evenodd" d="M86.5076 72.2838C86.4987 72.3044 86.4924 72.326 86.4888 72.3481C86.4964 72.3271 86.5027 72.3056 86.5076 72.2838Z" fill="#67DAFF"/>
<path fill-rule="evenodd" clip-rule="evenodd" d="M81.5823 75.4851C75.8681 76.5201 67.7877 74.1615 63.5275 70.2151C61.4259 68.2628 60.6546 66.2965 61.0974 64.6719C60.7871 65.4161 60.5302 66.1813 60.3284 66.9618C59.6673 69.2266 61.4002 72.1839 65.8205 74.8068C69.2017 76.8183 73.0384 77.9382 76.9708 78.0614C82.1079 78.2283 85.1504 76.6774 85.8149 74.401C86.153 73.2425 86.3568 72.6734 86.451 72.4369C85.8932 73.8958 84.2715 74.994 81.5823 75.4851Z" fill="#FFECFA"/>
<path fill-rule="evenodd" clip-rule="evenodd" d="M85.8564 68.8754C85.8564 68.8754 85.6032 63.2825 79.7276 48.2665C66.6795 57.7589 63.4921 62.3475 63.4921 62.3475C61.6981 64.4451 62.9334 67.7286 67.7948 70.6059C70.8259 72.3958 74.2572 73.3974 77.7751 73.519C83.3979 73.7019 86.223 71.6036 85.8564 68.8754Z" fill="url(#paint2_linear_3159_19086)"/>
<path fill-rule="evenodd" clip-rule="evenodd" d="M33.9697 130.777L10.3316 148.059C9.27049 148.836 8.48622 149.933 8.09378 151.188C7.70134 152.443 7.72137 153.791 8.15093 155.034L14.6185 173.794L16.8272 175.142L15.3897 153.816L36.1476 132.575L33.9697 130.777Z" fill="url(#paint3_linear_3159_19086)"/>
<path fill-rule="evenodd" clip-rule="evenodd" d="M85.0098 169.523L74.3775 142.269L71.4813 142.889L76.7753 170.514L64.8868 189.17L67.5696 188.916L83.113 176.582C84.1396 175.761 84.8772 174.633 85.2184 173.363C85.5596 172.094 85.4865 170.748 85.0098 169.523Z" fill="url(#paint4_linear_3159_19086)"/>
<path fill-rule="evenodd" clip-rule="evenodd" d="M36.3453 132.633L31.4168 149.518L22.7323 155.582L17.0109 175.183L10.6984 156.84C10.2708 155.597 10.2517 154.25 10.644 152.995C11.0363 151.74 11.8194 150.643 12.8791 149.865L36.3453 132.633Z" fill="white"/>
<path fill-rule="evenodd" clip-rule="evenodd" d="M71.6777 142.946L66.7493 159.831L70.808 169.615L65.0866 189.216L80.2788 177.138C81.3081 176.32 82.049 175.194 82.3934 173.925C82.7377 172.656 82.6675 171.31 82.193 170.084L71.6777 142.946Z" fill="white"/>
<path d="M80.7923 155.996L80.3178 155.619L92.8396 140.027C93.1809 139.6 93.4295 139.107 93.5696 138.578C93.7097 138.05 93.7383 137.498 93.6534 136.959C93.5685 136.419 93.3721 135.902 93.0766 135.443C92.7811 134.983 92.3931 134.59 91.9373 134.288L82.7052 128.231L83.0422 127.7L92.2727 133.764C92.7973 134.109 93.2441 134.56 93.5847 135.088C93.9254 135.615 94.1523 136.208 94.251 136.829C94.3497 137.449 94.318 138.083 94.158 138.69C93.998 139.298 93.7132 139.865 93.3217 140.356L80.7923 155.996Z" fill="#081E7A"/>
<path d="M21.2468 137.799L19.1799 118.564C19.114 117.94 19.1791 117.308 19.371 116.71C19.5628 116.112 19.8772 115.561 20.2941 115.091C20.711 114.621 21.2212 114.244 21.7921 113.982C22.3631 113.72 22.9824 113.581 23.6104 113.572L33.8741 113.425L33.873 114.053L23.6129 114.145C23.0659 114.152 22.5264 114.273 22.029 114.501C21.5316 114.729 21.0873 115.058 20.7245 115.468C20.3617 115.877 20.0885 116.358 19.9224 116.879C19.7562 117.401 19.7008 117.951 19.7596 118.495L21.8573 137.732L21.2468 137.799Z" fill="#081E7A"/>
<path d="M38.7125 189.148C38.677 189.139 38.6438 189.122 38.6147 189.1C38.5857 189.077 38.5614 189.049 38.5433 189.017C35.007 183.409 32.0162 173.283 31.2888 164.34L31.8884 164.288C32.6071 173.003 35.4857 182.888 38.9103 188.47C45.0275 185.516 54.1341 178.695 60.0405 168.948L60.5758 169.267C54.5163 179.26 45.1437 186.217 38.9487 189.135C38.9125 189.154 38.8727 189.165 38.832 189.167C38.7912 189.169 38.7505 189.163 38.7125 189.148Z" fill="#081E7A"/>
<path d="M37.7808 177.329C37.7175 177.312 37.6621 177.273 37.6239 177.22C36.4097 175.609 35.2014 171.22 35.3699 166.228L35.9914 166.253C35.845 170.717 36.8554 174.922 37.9878 176.641C39.484 175.607 41.8613 172.523 43.8349 167.85L44.3938 168.089C42.293 173.133 39.6211 176.408 38.061 177.316C38.0186 177.34 37.9711 177.354 37.9224 177.356C37.8737 177.359 37.8251 177.349 37.7808 177.329Z" fill="#081E7A"/>
<path d="M44.7442 168.355C39.5716 166.846 34.6922 164.353 31.3282 161.234C27.9643 158.115 26.6372 154.93 27.4538 152.132L28.033 152.301C27.2857 154.862 28.6005 157.873 31.7427 160.783C38.3404 166.907 50.9214 170.58 59.7836 168.967C63.9919 168.203 66.726 166.374 67.4733 163.813L67.7827 162.753L68.3619 162.923L68.0525 163.983C67.2376 166.774 64.3394 168.757 59.8863 169.563C55.4332 170.369 49.9167 169.865 44.7442 168.355Z" fill="#081E7A"/>
<path d="M46.2056 163.112C40.0078 161.303 34.1423 158.334 30.1164 154.575L30.5292 154.13C38.4444 161.469 53.6031 165.893 64.2582 163.975L64.3609 164.571C58.952 165.55 52.4093 164.923 46.2056 163.112Z" fill="#081E7A"/>
<path d="M60.5636 114.703C57.9555 113.942 55.6318 112.424 53.8863 110.342C52.1408 108.26 51.052 105.707 50.7575 103.006C50.463 100.306 50.9761 97.578 52.2319 95.1687C53.4877 92.7595 55.4297 90.7768 57.8125 89.4713C60.1952 88.1659 62.9115 87.5964 65.6179 87.8349C68.3243 88.0734 70.8992 89.1091 73.017 90.8111C75.1347 92.5131 76.7001 94.8049 77.5152 97.3966C78.3303 99.9883 78.3586 102.764 77.5963 105.371C76.5671 108.862 74.1976 111.804 71.0058 113.552C67.814 115.301 64.0596 115.715 60.5636 114.703ZM68.1111 88.8455C65.6038 88.1136 62.9358 88.1417 60.4444 88.9262C57.9531 89.7107 55.7503 91.2163 54.1146 93.2527C52.479 95.2891 51.4839 97.7648 51.2553 100.367C51.0266 102.969 51.5747 105.58 52.8301 107.87C54.0856 110.161 55.992 112.027 58.3084 113.234C60.6247 114.441 63.247 114.934 65.8435 114.651C68.44 114.368 70.8942 113.321 72.8957 111.642C74.8972 109.964 76.3561 107.73 77.088 105.223C78.0606 101.861 77.6622 98.2505 75.9799 95.1814C74.2977 92.1122 71.4685 89.8342 68.1111 88.8455Z" stroke="#FFECFA" stroke-width="5"/>
<path d="M47.4969 158.687C41.299 156.878 35.4335 153.908 31.4093 150.144C31.2016 149.951 30.9996 149.76 30.8051 149.565L31.2319 149.137C31.4206 149.33 31.6185 149.514 31.8205 149.705C39.7357 157.044 54.8943 161.468 65.5495 159.55L65.6538 160.14C60.2432 161.125 53.7005 160.498 47.4969 158.687Z" fill="#081E7A"/>
<path d="M76.5035 146.14C80.3604 131.254 83.3643 116.159 85.5006 100.93C86.5892 93.2851 86.3827 85.5111 84.8898 77.9344L85.4831 77.8184C86.9887 85.4619 87.1964 93.3043 86.0977 101.017C83.9604 116.268 80.9522 131.384 77.0878 146.291L76.5035 146.14Z" fill="#081E7A"/>
<path d="M29.5638 132.734L28.9845 132.565C33.8478 117.868 39.5053 103.446 45.9322 89.3622C49.3886 81.8059 54.1639 74.926 60.0341 69.0452L60.4627 69.472C54.6411 75.3013 49.9078 82.1239 46.4861 89.6182C40.0683 103.673 34.4192 118.066 29.5638 132.734Z" fill="#081E7A"/>
<path d="M54.3423 135.579C53.1967 135.245 52.176 134.578 51.4092 133.664C50.6424 132.749 50.1641 131.628 50.0346 130.441C49.9051 129.255 50.1304 128.057 50.6818 126.999C51.2333 125.94 52.0862 125.069 53.1327 124.495C54.1793 123.922 55.3724 123.671 56.5613 123.776C57.7501 123.88 58.8813 124.335 59.8117 125.082C60.7422 125.83 61.4301 126.836 61.7885 127.975C62.147 129.113 62.1598 130.332 61.8254 131.478C61.377 133.014 60.3367 134.309 58.9334 135.078C57.53 135.847 55.8786 136.028 54.3423 135.579ZM57.5547 124.574C56.5236 124.273 55.4265 124.284 54.402 124.607C53.3775 124.929 52.4717 125.549 51.7991 126.386C51.1264 127.223 50.7172 128.241 50.6232 129.311C50.5292 130.381 50.7546 131.455 51.2708 132.397C51.7871 133.339 52.5711 134.107 53.5236 134.603C54.4761 135.099 55.5545 135.302 56.6222 135.185C57.69 135.069 58.6992 134.638 59.5222 133.948C60.3453 133.258 60.9452 132.34 61.2462 131.308C61.6498 129.926 61.4876 128.44 60.7953 127.177C60.103 125.914 58.9373 124.977 57.5547 124.574Z" fill="#081E7A"/>
<path d="M60.1495 116.373C57.1775 115.506 54.5295 113.776 52.5404 111.404C50.5514 109.031 49.3106 106.122 48.975 103.044C48.6394 99.9665 49.2241 96.8583 50.6551 94.1129C52.0862 91.3675 54.2992 89.1081 57.0145 87.6205C59.7297 86.1329 62.825 85.4839 65.9091 85.7557C68.9932 86.0274 71.9274 87.2077 74.3406 89.1472C76.7538 91.0867 78.5377 93.6983 79.4665 96.6517C80.3954 99.605 80.4276 102.768 79.5589 105.739C78.3862 109.717 75.686 113.069 72.0488 115.062C68.4116 117.055 64.1333 117.526 60.1495 116.373ZM68.7502 86.9073C65.893 86.0733 62.8527 86.1053 60.0137 86.9993C57.1747 87.8932 54.6645 89.6089 52.8006 91.9295C50.9367 94.25 49.8028 97.0712 49.5423 100.036C49.2817 103.001 49.9063 105.977 51.3369 108.587C52.7675 111.197 54.94 113.324 57.5796 114.699C60.2191 116.075 63.2073 116.637 66.1661 116.314C69.125 115.991 71.9216 114.798 74.2024 112.885C76.4832 110.973 78.1457 108.427 78.9797 105.57C80.088 101.739 79.634 97.6247 77.717 94.1273C75.8 90.6299 72.576 88.034 68.7502 86.9073Z" fill="#081E7A"/>
<path d="M75.0452 105.051L74.4659 104.882C74.5217 104.691 74.5758 104.505 74.635 104.303L75.2142 104.472C75.1683 104.672 75.1051 104.867 75.0452 105.051Z" fill="#081E7A"/>
<path d="M63.2519 112.419L63.3225 111.811C63.7138 111.858 64.1074 111.883 64.5015 111.885L64.4946 112.512C64.0791 112.503 63.6642 112.472 63.2519 112.419ZM65.7633 112.43L65.6987 111.832C66.0895 111.788 66.4777 111.723 66.8619 111.638L66.9986 112.224C66.5856 112.317 66.1672 112.384 65.7459 112.425L65.7633 112.43ZM68.1982 111.883L68.0009 111.31C68.3688 111.179 68.7284 111.026 69.0777 110.851L69.339 111.399C68.9616 111.579 68.575 111.739 68.1809 111.878L68.1982 111.883ZM70.4489 110.805L70.1261 110.296C70.462 110.088 70.7862 109.862 71.0972 109.618L71.4684 110.091C71.1355 110.345 70.7894 110.582 70.4316 110.8L70.4489 110.805ZM72.4031 109.257L71.9803 108.832C72.2585 108.554 72.5221 108.262 72.7702 107.956L73.2389 108.332C72.9748 108.657 72.6898 108.964 72.3857 109.252L72.4031 109.257ZM73.9699 107.313L73.4363 106.988C73.6466 106.652 73.8382 106.305 74.01 105.949L74.5605 106.216C74.3772 106.591 74.1742 106.955 73.9526 107.308L73.9699 107.313Z" fill="#081E7A"/>
<path d="M61.4122 112.046L61.5813 111.467C61.7724 111.523 61.9578 111.577 62.1605 111.636L61.9915 112.215C61.8136 112.157 61.615 112.105 61.4122 112.046Z" fill="#081E7A"/>
<path d="M61.4124 112.047C59.2956 111.43 57.4093 110.2 55.992 108.511C54.5748 106.822 53.6903 104.75 53.4505 102.559C53.2107 100.367 53.6264 98.1535 54.6449 96.1981C55.6635 94.2427 57.2391 92.6333 59.1725 91.5736C61.1059 90.5138 63.3102 90.0513 65.5065 90.2446C67.7027 90.4379 69.7924 91.2783 71.5109 92.6595C73.2295 94.0406 74.4998 95.9004 75.1611 98.0037C75.8225 100.107 75.8451 102.359 75.2262 104.475L74.647 104.306C75.2296 102.306 75.206 100.178 74.5793 98.1907C73.9525 96.2037 72.7507 94.4472 71.1258 93.1432C69.5009 91.8391 67.5258 91.0462 65.4503 90.8646C63.3747 90.6829 61.2919 91.1208 59.4652 92.1227C57.6385 93.1247 56.1498 94.6457 55.1875 96.4936C54.2251 98.3415 53.8323 100.433 54.0586 102.504C54.2849 104.576 55.1203 106.533 56.459 108.13C57.7977 109.726 59.5798 110.89 61.5798 111.473L61.4124 112.047Z" fill="#081E7A"/>
<path d="M71.1085 77.4064C69.2034 76.8509 67.3758 76.0577 65.6689 75.0455C61.3949 72.5031 59.2896 69.4434 60.0453 66.8542C60.256 66.0765 60.5108 65.3114 60.8085 64.5626L61.3675 64.8012C61.082 65.5287 60.834 66.2704 60.6246 67.0233C59.9618 69.2939 62.0143 72.1685 65.9777 74.5259C69.3171 76.5065 73.1027 77.6115 76.9832 77.7383C81.5925 77.8831 84.869 76.564 85.5318 74.2934C85.7216 73.5684 85.9568 72.8561 86.236 72.1606L86.7916 72.4108C86.5269 73.0815 86.2997 73.7665 86.111 74.4625C85.3553 77.0516 81.9346 78.4984 76.964 78.3424C74.9806 78.2774 73.0133 77.963 71.1085 77.4064Z" fill="#081E7A"/>
<path d="M71.9247 74.9982C68.7536 74.1387 65.8149 72.5808 63.3239 70.4386C61.3451 68.6038 60.4295 66.6582 60.7236 64.94C60.9597 63.5066 62.0024 62.3464 63.7324 61.5879L63.9729 62.1421C62.444 62.8147 61.5232 63.8157 61.3156 65.0437C61.0575 66.5524 61.9203 68.3128 63.7309 69.9917C67.9202 73.8797 75.9021 76.2095 81.5251 75.1856C83.9014 74.754 85.4799 73.8256 86.0792 72.5045C86.5911 71.3967 86.407 69.9601 85.5198 68.4125L86.0412 68.1121C87.0343 69.8352 87.2324 71.4393 86.6215 72.757C85.9241 74.2632 84.1933 75.3044 81.6162 75.7779C78.3679 76.2422 75.0569 75.9758 71.9247 74.9982Z" fill="#081E7A"/>
<path d="M72.5141 72.9766C70.8058 72.4804 69.1672 71.7698 67.6375 70.8617C64.6298 69.0849 62.7966 67.0098 62.4622 65.0327C62.3674 64.5187 62.3906 63.9898 62.53 63.4861C62.6694 62.9823 62.9214 62.5168 63.267 62.1247C63.3774 61.962 66.6075 57.4424 79.5532 48.0208C79.5912 47.996 79.634 47.9797 79.6788 47.9731C79.7236 47.9664 79.7693 47.9696 79.8128 47.9823C79.8563 47.9949 79.8965 48.0169 79.9307 48.0466C79.9648 48.0763 79.9922 48.1131 80.0108 48.1543C85.3017 61.6418 86.0883 67.6042 86.0829 68.8283L86.1235 68.8402C86.2124 69.3554 86.1825 69.8842 86.036 70.3861C85.8895 70.888 85.6303 71.3499 85.2781 71.7364C83.9368 73.2306 81.2768 73.988 77.7781 73.8719C75.9925 73.7984 74.2236 73.4975 72.5141 72.9766ZM79.5881 48.7413C67.0151 57.9197 63.769 62.4723 63.7364 62.5194C63.444 62.8401 63.2288 63.2234 63.1072 63.6401C62.9856 64.0567 62.9608 64.4956 63.0348 64.9232C63.3378 66.7277 65.0856 68.6648 67.9232 70.3353C70.9111 72.1074 74.2982 73.0961 77.7702 73.2096C81.0817 73.3213 83.5937 72.6402 84.7967 71.2753C85.0864 70.9577 85.2997 70.5781 85.4201 70.1655C85.5406 69.7529 85.565 69.3181 85.4916 68.8946L85.5051 68.8483C85.5245 68.6528 85.2536 63.2495 79.5881 48.7413Z" fill="#081E7A"/>
<path d="M16.6567 175.382L14.448 174.033C14.3853 173.998 14.3392 173.939 14.3197 173.87L7.87764 155.131C7.42242 153.828 7.39895 152.412 7.81072 151.095C8.22248 149.777 9.04759 148.627 10.1639 147.815L33.7993 130.564C33.8529 130.524 33.9181 130.503 33.9849 130.504C34.0516 130.506 34.116 130.529 34.1681 130.571L36.347 132.344L35.9713 132.813L33.9698 131.185L10.501 148.297C9.49047 149.035 8.74354 150.078 8.37 151.273C7.99646 152.467 8.01603 153.75 8.42582 154.933L14.8459 173.596L16.9819 174.892L16.6567 175.382Z" fill="#081E7A"/>
<path d="M64.9187 189.469L64.8617 188.867L67.4474 188.623L82.9068 176.339C83.8892 175.563 84.5963 174.493 84.924 173.285C85.2518 172.076 85.1827 170.795 84.7271 169.629L74.1937 142.618L71.5167 143.175L71.3874 142.585L74.2894 141.967C74.3589 141.952 74.4313 141.962 74.494 141.996C74.5568 142.029 74.6058 142.083 74.6324 142.149L85.2572 169.407C85.7613 170.692 85.8382 172.105 85.4766 173.437C85.1149 174.77 84.3338 175.95 83.249 176.804L67.7056 189.138C67.6607 189.175 67.6058 189.199 67.5477 189.205L64.9187 189.469Z" fill="#081E7A"/>
<path d="M16.6401 175.376C16.5932 175.362 16.5505 175.337 16.5156 175.302C16.4807 175.268 16.4547 175.226 16.4398 175.179L10.1222 156.854C9.66894 155.55 9.64647 154.136 10.0581 152.819C10.4697 151.501 11.2937 150.351 12.4084 149.538L35.8763 132.301C35.928 132.265 35.9893 132.245 36.0523 132.244C36.1153 132.244 36.177 132.262 36.2294 132.297C36.281 132.334 36.3198 132.386 36.3406 132.446C36.3613 132.506 36.3629 132.571 36.3452 132.632L31.4168 149.517C31.3972 149.584 31.3557 149.643 31.2989 149.684L22.6984 155.697L17.0075 175.194C16.9897 175.255 16.9526 175.309 16.9017 175.348C16.8509 175.386 16.789 175.407 16.7253 175.407C16.6951 175.402 16.6662 175.392 16.6401 175.376ZM35.5242 133.291L12.7629 150.025C11.7516 150.764 11.0044 151.809 10.6316 153.005C10.2587 154.201 10.2799 155.485 10.6919 156.668L16.6886 174.133L22.1496 155.424C22.1695 155.359 22.2103 155.302 22.2657 155.263L30.8629 149.261L35.5242 133.291Z" fill="#081E7A"/>
<path d="M64.7158 189.409C64.6855 189.406 64.656 189.397 64.6289 189.383C64.5754 189.349 64.5345 189.298 64.5123 189.238C64.49 189.178 64.4877 189.113 64.5056 189.052L70.1949 169.561L66.2052 159.885C66.1794 159.82 66.176 159.748 66.1956 159.681L71.1274 142.785C71.1441 142.723 71.1799 142.668 71.2296 142.628C71.2794 142.588 71.3405 142.565 71.4043 142.562C71.4681 142.559 71.5312 142.576 71.5845 142.611C71.6379 142.646 71.6787 142.698 71.7012 142.757L82.2113 169.913C82.7125 171.198 82.7879 172.611 82.4264 173.942C82.0649 175.274 81.2856 176.454 80.2031 177.31L65.0127 189.382C64.9697 189.412 64.9198 189.43 64.8677 189.435C64.8157 189.439 64.7633 189.43 64.7158 189.409ZM66.7814 159.72L70.8 169.404C70.8256 169.467 70.8296 169.537 70.8113 169.602L65.3435 188.335L79.7939 176.838C80.7762 176.062 81.4834 174.991 81.8111 173.783C82.1388 172.575 82.0698 171.294 81.6142 170.128L71.4292 143.797L66.7814 159.72Z" fill="#081E7A"/>
<path fill-rule="evenodd" clip-rule="evenodd" d="M172.833 158.592L169.537 150.345L169.982 150.056L177.711 140.266C177.938 139.977 178.103 139.645 178.194 139.289C178.285 138.934 178.301 138.563 178.241 138.201C178.181 137.839 178.045 137.493 177.843 137.186C177.642 136.88 177.378 136.618 177.07 136.419L170.52 132.193L170.296 132.129C171.355 126.793 172.235 121.456 172.991 115.838C173.626 111.039 173.45 106.167 172.471 101.426L172.129 100.34C172.462 100.047 172.706 99.6658 172.831 99.2399C173.036 98.5156 173.16 98.1595 173.218 98.0079C173.218 98.0079 173.225 97.9825 173.23 97.9681C173.234 97.955 173.238 97.9417 173.241 97.9282C173.471 97.2111 173.319 96.3507 172.775 95.4262C172.63 94.3057 171.963 90.5929 168.904 82.9884C162.326 87.8674 159.791 90.6747 159.081 91.5534C158.133 91.9737 157.559 92.5936 157.37 93.3184C157.18 93.7841 157.024 94.2627 156.902 94.7507C156.826 95.2237 156.807 95.7042 156.845 96.1818C153.231 99.8642 150.301 104.162 148.195 108.872C145.972 113.858 143.906 118.907 141.998 124.021L134.234 124.172C133.866 124.179 133.503 124.263 133.169 124.419C132.835 124.574 132.537 124.799 132.295 125.077C132.053 125.355 131.872 125.681 131.764 126.033C131.656 126.385 131.623 126.757 131.667 127.123L133.076 139.11L133.509 140.109L126.143 145.59C125.485 146.081 125.002 146.769 124.764 147.554C124.525 148.339 124.545 149.18 124.819 149.953L128.951 161.619L130.336 162.449L133.603 149.984L136.939 147.967L136.994 148.092C136.541 149.693 137.309 151.639 139.403 153.553C139.432 153.561 139.883 153.92 139.904 153.941L140.087 155.769C140.623 161.647 142.05 167.667 144.121 170.893C148.2 168.917 153.805 164.534 157.407 158.492C160.007 157.929 161.577 156.707 162.012 155.168L162.162 154.639L164.851 158.184L160.392 170.95L162.063 170.781L171.694 163.006C172.329 162.488 172.782 161.78 172.987 160.986C173.192 160.192 173.138 159.353 172.833 158.592Z" fill="white"/>
<path fill-rule="evenodd" clip-rule="evenodd" d="M177.216 136.441L170.441 132.072L167.512 144.934L169.384 150.967L177.858 140.283C178.085 139.995 178.249 139.663 178.34 139.308C178.431 138.952 178.447 138.582 178.386 138.22C178.326 137.859 178.19 137.513 177.989 137.207C177.788 136.901 177.524 136.64 177.216 136.441Z" fill="white"/>
<path fill-rule="evenodd" clip-rule="evenodd" d="M134.382 124.201C134.015 124.209 133.653 124.294 133.321 124.449C132.988 124.605 132.692 124.828 132.451 125.105C132.21 125.382 132.029 125.706 131.921 126.057C131.812 126.408 131.779 126.778 131.821 127.142L133.401 140.712L137.446 137.944L142.147 124.019L134.382 124.201Z" fill="white"/>
<path fill-rule="evenodd" clip-rule="evenodd" d="M139.638 155.641C140.17 161.518 142.188 167.686 144.26 170.912C148.339 168.937 153.965 164.536 157.556 158.476L139.664 153.044L139.638 155.641Z" fill="url(#paint5_linear_3159_19086)"/>
<path fill-rule="evenodd" clip-rule="evenodd" d="M142.187 156.82C142.114 159.733 142.83 162.528 143.614 163.544C144.615 162.951 146.307 160.469 147.541 157.473L142.335 155.051L142.187 156.82Z" fill="#FFECFA"/>
<path fill-rule="evenodd" clip-rule="evenodd" d="M137.022 148.073C136.568 149.677 137.336 151.623 139.436 153.535C143.63 157.361 151.551 159.601 157.128 158.539C159.917 158.009 161.591 156.754 162.044 155.149L162.407 154.184L159.73 154.495L149.418 153.796L137.302 147.084L137.022 148.073Z" fill="#FFECFA"/>
<path fill-rule="evenodd" clip-rule="evenodd" d="M137.153 147.664C137.661 148.289 138.208 148.88 138.792 149.434C143.83 154.026 153.344 156.717 160.041 155.443C160.83 155.298 161.604 155.08 162.353 154.791L161.4 152.628C161.4 152.628 155.466 153.887 149.319 151.891C145.46 150.656 141.866 148.711 138.722 146.156L137.153 147.664Z" fill="white"/>
<path d="M153.958 137.287C155.858 137.824 157.834 136.72 158.371 134.819C158.909 132.919 157.804 130.943 155.904 130.406C154.004 129.868 152.027 130.973 151.49 132.873C150.953 134.773 152.057 136.749 153.958 137.287Z" fill="url(#paint6_linear_3159_19086)"/>
<path fill-rule="evenodd" clip-rule="evenodd" d="M162.457 106.984C160.635 106.468 158.701 106.505 156.9 107.089C155.098 107.673 153.51 108.778 152.337 110.264C151.163 111.75 150.457 113.551 150.307 115.439C150.157 117.327 150.57 119.217 151.494 120.87C152.418 122.523 153.812 123.864 155.499 124.725C157.185 125.586 159.089 125.928 160.97 125.707C162.851 125.485 164.624 124.712 166.065 123.483C167.506 122.254 168.55 120.625 169.065 118.803C169.408 117.593 169.509 116.327 169.362 115.078C169.216 113.83 168.824 112.622 168.211 111.524C167.597 110.426 166.773 109.46 165.786 108.681C164.799 107.902 163.668 107.325 162.457 106.984ZM158.012 122.702C156.723 122.337 155.571 121.598 154.701 120.579C153.832 119.559 153.284 118.305 153.127 116.974C152.971 115.643 153.213 114.296 153.822 113.103C154.431 111.909 155.38 110.923 156.55 110.269C157.719 109.616 159.057 109.323 160.392 109.429C161.728 109.535 163.002 110.035 164.054 110.866C165.106 111.696 165.887 112.819 166.301 114.094C166.714 115.369 166.74 116.737 166.375 118.026C166.134 118.884 165.727 119.686 165.176 120.386C164.625 121.087 163.941 121.671 163.164 122.107C162.387 122.543 161.532 122.821 160.647 122.925C159.762 123.03 158.865 122.959 158.008 122.716L158.012 122.702Z" fill="white"/>
<path fill-rule="evenodd" clip-rule="evenodd" d="M173.406 97.9515C173.401 97.9644 173.397 97.9779 173.395 97.9918C173.399 97.9786 173.403 97.9652 173.406 97.9515Z" fill="#67DAFF"/>
<path fill-rule="evenodd" clip-rule="evenodd" d="M170.351 99.9735C166.792 100.649 161.74 99.2201 159.062 96.7809C157.741 95.5741 157.25 94.3517 157.517 93.3361C157.328 93.8019 157.172 94.2805 157.05 94.7684C156.649 96.1845 157.746 98.02 160.516 99.6328C162.636 100.87 165.035 101.548 167.488 101.605C170.693 101.682 172.583 100.699 172.985 99.2752C173.19 98.5509 173.314 98.1949 173.372 98.0468C173.031 98.9597 172.026 99.6531 170.351 99.9735Z" fill="#FFECFA"/>
<path fill-rule="evenodd" clip-rule="evenodd" d="M172.982 95.828C172.982 95.828 172.795 92.3409 169.052 83.0058C160.963 88.9946 158.999 91.8733 158.999 91.8733C157.891 93.191 158.678 95.2325 161.726 97.0018C163.625 98.1023 165.771 98.7091 167.966 98.7666C171.474 98.8513 173.225 97.5277 172.982 95.828Z" fill="url(#paint7_linear_3159_19086)"/>
<path fill-rule="evenodd" clip-rule="evenodd" d="M140.942 134.709L126.289 145.612C125.631 146.102 125.148 146.79 124.909 147.575C124.671 148.36 124.691 149.201 124.965 149.974L129.097 161.641L130.482 162.47L129.474 149.176L142.31 135.819L140.942 134.709Z" fill="url(#paint8_linear_3159_19086)"/>
<path fill-rule="evenodd" clip-rule="evenodd" d="M172.98 158.609L166.206 141.666L164.403 142.067L167.849 159.27L160.532 170.969L162.204 170.796L171.834 163.022C172.47 162.504 172.924 161.797 173.13 161.004C173.337 160.21 173.284 159.371 172.98 158.609Z" fill="url(#paint9_linear_3159_19086)"/>
<path fill-rule="evenodd" clip-rule="evenodd" d="M142.434 135.854L139.448 146.412L134.063 150.239L130.597 162.495L126.564 151.087C126.29 150.314 126.272 149.474 126.51 148.689C126.748 147.904 127.231 147.216 127.887 146.725L142.434 135.854Z" fill="white"/>
<path fill-rule="evenodd" clip-rule="evenodd" d="M164.525 142.103L161.54 152.66L164.122 158.741L160.656 170.997L170.069 163.384C170.707 162.868 171.163 162.162 171.371 161.369C171.579 160.576 171.528 159.737 171.226 158.974L164.525 142.103Z" fill="white"/>
<path d="M170.279 150.195L169.981 149.962L177.709 140.172C177.92 139.904 178.073 139.595 178.157 139.264C178.242 138.934 178.257 138.59 178.201 138.254C178.145 137.917 178.02 137.596 177.833 137.311C177.647 137.026 177.403 136.783 177.117 136.597L171.327 132.867L171.534 132.535L177.323 136.268C177.652 136.481 177.933 136.76 178.148 137.087C178.364 137.415 178.508 137.783 178.573 138.169C178.638 138.556 178.621 138.951 178.525 139.331C178.428 139.711 178.254 140.066 178.012 140.374L170.279 150.195Z" fill="#081E7A"/>
<path d="M133.044 139.156L131.654 127.17C131.609 126.78 131.647 126.386 131.763 126.012C131.88 125.638 132.073 125.292 132.331 124.997C132.588 124.702 132.904 124.464 133.259 124.298C133.614 124.132 133.999 124.041 134.391 124.032L140.792 123.887L140.795 124.279L134.396 124.39C134.055 124.397 133.719 124.476 133.41 124.62C133.101 124.765 132.825 124.973 132.601 125.23C132.377 125.487 132.209 125.789 132.108 126.115C132.007 126.441 131.975 126.784 132.015 127.123L133.424 139.111L133.044 139.156Z" fill="#081E7A"/>
<path d="M144.206 171.093C144.183 171.087 144.163 171.077 144.144 171.063C144.126 171.049 144.111 171.032 144.099 171.012C141.864 167.532 139.946 161.232 139.446 155.658L139.819 155.623C140.313 161.054 142.16 167.205 144.325 170.669C148.125 168.795 153.77 164.493 157.403 158.382L157.738 158.578C154.011 164.842 148.202 169.231 144.353 171.084C144.33 171.095 144.306 171.102 144.28 171.104C144.255 171.105 144.229 171.102 144.206 171.093Z" fill="#081E7A"/>
<path d="M143.563 163.725C143.524 163.715 143.489 163.691 143.465 163.658C142.699 162.659 141.922 159.929 142.001 156.814L142.389 156.826C142.321 159.611 142.973 162.229 143.689 163.295C144.616 162.642 146.083 160.706 147.29 157.782L147.64 157.928C146.356 161.085 144.706 163.141 143.738 163.716C143.712 163.731 143.682 163.74 143.652 163.742C143.621 163.743 143.591 163.738 143.563 163.725Z" fill="#081E7A"/>
<path d="M147.859 158.092C144.625 157.177 141.568 155.648 139.454 153.72C137.339 151.792 136.495 149.812 136.99 148.063L137.352 148.166C136.899 149.766 137.735 151.638 139.71 153.436C143.857 157.222 151.724 159.447 157.243 158.395C159.864 157.896 161.559 156.741 162.012 155.14L162.2 154.477L162.562 154.58L162.374 155.242C161.881 156.988 160.083 158.24 157.31 158.766C154.537 159.292 151.093 159.006 147.859 158.092Z" fill="#081E7A"/>
<path d="M148.743 154.814C144.868 153.718 141.194 151.896 138.663 149.573L138.918 149.293C143.894 153.829 153.372 156.51 160.007 155.257L160.075 155.629C156.706 156.268 152.622 155.911 148.743 154.814Z" fill="#081E7A"/>
<path d="M157.446 124.545C155.815 124.084 154.358 123.149 153.258 121.86C152.159 120.57 151.466 118.984 151.268 117.3C151.071 115.617 151.376 113.913 152.147 112.404C152.918 110.895 154.119 109.648 155.598 108.821C157.077 107.995 158.769 107.625 160.458 107.76C162.147 107.895 163.759 108.527 165.088 109.578C166.418 110.628 167.407 112.049 167.929 113.662C168.45 115.274 168.483 117.005 168.021 118.635C167.397 120.818 165.935 122.665 163.953 123.772C161.971 124.88 159.632 125.157 157.446 124.545ZM162.018 108.377C160.451 107.934 158.787 107.965 157.237 108.468C155.687 108.97 154.321 109.921 153.311 111.199C152.302 112.478 151.694 114.027 151.565 115.651C151.436 117.275 151.792 118.901 152.587 120.323C153.382 121.745 154.58 122.9 156.031 123.64C157.483 124.381 159.121 124.675 160.739 124.485C162.357 124.294 163.882 123.628 165.122 122.571C166.361 121.514 167.26 120.113 167.703 118.545C168.292 116.443 168.025 114.193 166.959 112.288C165.894 110.382 164.117 108.976 162.018 108.377Z" stroke="#FFECFA" stroke-width="5"/>
<path d="M149.526 152.047C145.65 150.951 141.976 149.129 139.447 146.802C139.316 146.683 139.189 146.565 139.067 146.445L139.331 146.175C139.45 146.295 139.574 146.408 139.701 146.526C144.676 151.062 154.154 153.743 160.79 152.491L160.858 152.858C157.489 153.501 153.404 153.144 149.526 152.047Z" fill="#081E7A"/>
<path d="M167.553 144.069C169.88 134.764 171.675 125.334 172.928 115.824C173.567 111.05 173.398 106.202 172.427 101.484L172.796 101.409C173.775 106.168 173.946 111.059 173.301 115.875C172.047 125.398 170.25 134.843 167.918 144.161L167.553 144.069Z" fill="#081E7A"/>
<path d="M138.204 135.953L137.842 135.851C140.799 126.659 144.252 117.633 148.187 108.816C150.303 104.084 153.246 99.7682 156.877 96.0696L157.146 96.3335C153.545 99.9998 150.629 104.28 148.534 108.972C144.604 117.772 141.156 126.779 138.204 135.953Z" fill="#081E7A"/>
<path d="M153.674 137.598C152.958 137.395 152.318 136.985 151.835 136.418C151.352 135.852 151.048 135.155 150.961 134.416C150.874 133.676 151.008 132.928 151.346 132.265C151.685 131.602 152.212 131.054 152.862 130.691C153.512 130.328 154.255 130.165 154.997 130.224C155.739 130.283 156.447 130.561 157.031 131.022C157.615 131.483 158.05 132.107 158.279 132.816C158.509 133.524 158.523 134.284 158.32 135C158.049 135.961 157.407 136.774 156.535 137.261C155.664 137.748 154.635 137.869 153.674 137.598ZM155.621 130.717C154.976 130.534 154.292 130.547 153.654 130.754C153.017 130.96 152.455 131.351 152.04 131.877C151.625 132.403 151.375 133.04 151.322 133.708C151.269 134.376 151.415 135.044 151.742 135.629C152.069 136.214 152.562 136.689 153.159 136.993C153.755 137.298 154.429 137.418 155.094 137.34C155.76 137.262 156.387 136.988 156.897 136.553C157.407 136.119 157.776 135.543 157.958 134.898C158.203 134.033 158.094 133.107 157.655 132.323C157.217 131.539 156.485 130.961 155.621 130.717Z" fill="#081E7A"/>
<path d="M157.196 125.589C155.338 125.063 153.678 123.999 152.425 122.529C151.172 121.06 150.382 119.252 150.157 117.334C149.932 115.416 150.28 113.474 151.158 111.754C152.036 110.034 153.405 108.614 155.091 107.672C156.777 106.729 158.704 106.309 160.629 106.462C162.554 106.615 164.39 107.336 165.906 108.533C167.421 109.73 168.547 111.35 169.142 113.187C169.737 115.024 169.773 116.997 169.247 118.855C168.536 121.342 166.87 123.447 164.612 124.709C162.353 125.971 159.687 126.287 157.196 125.589ZM162.407 107.165C160.62 106.66 158.724 106.696 156.958 107.268C155.192 107.841 153.635 108.924 152.485 110.381C151.335 111.838 150.642 113.604 150.495 115.455C150.348 117.305 150.753 119.158 151.659 120.778C152.565 122.399 153.931 123.714 155.585 124.558C157.238 125.402 159.105 125.737 160.949 125.52C162.793 125.303 164.531 124.545 165.943 123.34C167.356 122.135 168.38 120.539 168.885 118.752C169.556 116.357 169.252 113.793 168.038 111.622C166.824 109.45 164.799 107.848 162.407 107.165Z" fill="#081E7A"/>
<path d="M166.428 118.448L166.066 118.346C166.099 118.226 166.132 118.11 166.168 117.983L166.53 118.086C166.503 118.211 166.464 118.333 166.428 118.448Z" fill="#081E7A"/>
<path d="M159.11 123.107L159.151 122.727C159.396 122.754 159.641 122.767 159.887 122.767L159.886 123.158C159.627 123.154 159.368 123.137 159.11 123.107ZM160.677 123.1L160.634 122.728C160.877 122.698 161.119 122.655 161.358 122.6L161.446 122.966C161.189 123.025 160.929 123.069 160.666 123.097L160.677 123.1ZM162.193 122.746L162.067 122.39C162.296 122.306 162.519 122.209 162.736 122.098L162.902 122.438C162.667 122.553 162.427 122.654 162.182 122.743L162.193 122.746ZM163.591 122.062L163.387 121.746C163.595 121.615 163.796 121.472 163.989 121.318L164.223 121.611C164.017 121.772 163.802 121.921 163.58 122.059L163.591 122.062ZM164.802 121.087L164.536 120.824C164.708 120.649 164.871 120.465 165.024 120.273L165.318 120.505C165.155 120.709 164.979 120.902 164.791 121.084L164.802 121.087ZM165.769 119.866L165.434 119.666C165.564 119.455 165.681 119.238 165.787 119.014L166.132 119.178C166.019 119.413 165.894 119.641 165.758 119.863L165.769 119.866Z" fill="#081E7A"/>
<path d="M157.961 122.883L158.064 122.521C158.183 122.554 158.299 122.587 158.426 122.623L158.323 122.985C158.212 122.95 158.088 122.919 157.961 122.883Z" fill="#081E7A"/>
<path d="M157.961 122.883C156.638 122.509 155.455 121.751 154.562 120.705C153.669 119.659 153.107 118.372 152.946 117.006C152.785 115.641 153.032 114.258 153.657 113.033C154.282 111.808 155.257 110.796 156.457 110.125C157.658 109.454 159.03 109.154 160.401 109.263C161.772 109.372 163.079 109.885 164.159 110.737C165.238 111.59 166.04 112.743 166.463 114.052C166.887 115.36 166.913 116.765 166.538 118.088L166.176 117.985C166.528 116.735 166.503 115.407 166.101 114.171C165.7 112.935 164.941 111.846 163.921 111.041C162.901 110.236 161.665 109.752 160.369 109.65C159.074 109.547 157.777 109.831 156.643 110.466C155.508 111.1 154.588 112.057 153.997 113.214C153.407 114.372 153.173 115.679 153.325 116.969C153.477 118.26 154.008 119.477 154.851 120.465C155.695 121.454 156.812 122.171 158.063 122.524L157.961 122.883Z" fill="#081E7A"/>
<path d="M163.828 101.226C162.637 100.89 161.493 100.404 160.423 99.782C157.744 98.2186 156.415 96.3212 156.872 94.7023C157 94.2161 157.155 93.7376 157.337 93.269L157.686 93.4149C157.512 93.8701 157.361 94.334 157.235 94.8047C156.833 96.2244 158.128 98.0066 160.613 99.4563C162.706 100.674 165.073 101.344 167.494 101.402C170.37 101.469 172.406 100.629 172.808 99.2091C172.923 98.7559 173.066 98.3104 173.236 97.8751L173.584 98.0283C173.422 98.448 173.284 98.8764 173.17 99.3115C172.712 100.93 170.586 101.851 167.485 101.779C166.248 101.749 165.019 101.563 163.828 101.226Z" fill="#081E7A"/>
<path d="M164.325 99.7205C162.342 99.2009 160.501 98.2446 158.936 96.9215C157.692 95.7874 157.111 94.5787 157.286 93.5055C157.425 92.6102 158.07 91.881 159.145 91.3989L159.298 91.7433C158.348 92.1709 157.779 92.8 157.655 93.567C157.502 94.5094 158.05 95.6029 159.188 96.6406C161.821 99.0437 166.812 100.455 170.314 99.7871C171.794 99.5056 172.773 98.9182 173.14 98.0911C173.454 97.3975 173.331 96.5024 172.77 95.5417L173.094 95.3517C173.722 96.4212 173.854 97.4207 173.48 98.2458C173.053 99.1889 171.979 99.8473 170.374 100.156C168.35 100.463 166.283 100.314 164.325 99.7205Z" fill="#081E7A"/>
<path d="M164.682 98.4566C163.614 98.1561 162.588 97.7214 161.629 97.163C159.744 96.0705 158.589 94.7857 158.371 93.5543C158.309 93.2342 158.32 92.9043 158.405 92.5893C158.489 92.2744 158.644 91.9827 158.857 91.7363C158.925 91.6343 160.916 88.7984 168.942 82.8542C168.965 82.8386 168.992 82.8282 169.02 82.8238C169.048 82.8194 169.076 82.8212 169.103 82.8288C169.131 82.8365 169.156 82.85 169.177 82.8684C169.199 82.8867 169.216 82.9095 169.228 82.9352C172.598 91.32 173.12 95.0347 173.123 95.7983L173.149 95.8055C173.207 96.1264 173.191 96.4564 173.102 96.7702C173.013 97.084 172.854 97.3734 172.637 97.6163C171.808 98.5554 170.153 99.0416 167.97 98.9875C166.856 98.951 165.751 98.7726 164.682 98.4566ZM168.967 83.3034C161.173 89.094 159.172 91.9505 159.152 91.9801C158.972 92.1816 158.839 92.4219 158.766 92.6823C158.692 92.9428 158.679 93.2167 158.727 93.4831C158.926 94.607 160.026 95.8061 161.804 96.8332C163.677 97.9229 165.795 98.5218 167.961 98.5745C170.027 98.6268 171.591 98.1889 172.334 97.3313C172.513 97.1317 172.644 96.8938 172.717 96.6358C172.79 96.3778 172.803 96.1065 172.755 95.8427L172.763 95.8138C172.774 95.6917 172.577 92.323 168.967 83.3034Z" fill="#081E7A"/>
<path d="M130.377 162.621L128.992 161.791C128.953 161.77 128.924 161.733 128.911 161.69L124.795 150.036C124.505 149.225 124.483 148.343 124.733 147.519C124.982 146.695 125.491 145.973 126.183 145.461L140.835 134.577C140.868 134.552 140.909 134.539 140.95 134.539C140.992 134.54 141.032 134.554 141.065 134.58L142.433 135.675L142.201 135.969L140.945 134.964L126.396 145.76C125.769 146.226 125.309 146.88 125.082 147.627C124.856 148.374 124.874 149.174 125.136 149.909L129.238 161.517L130.577 162.314L130.377 162.621Z" fill="#081E7A"/>
<path d="M160.553 171.155L160.514 170.78L162.126 170.614L171.704 162.872C172.312 162.383 172.748 161.711 172.946 160.956C173.144 160.201 173.094 159.402 172.804 158.677L166.093 141.884L164.426 142.246L164.342 141.878L166.149 141.478C166.192 141.468 166.238 141.474 166.277 141.495C166.316 141.515 166.347 141.549 166.364 141.59L173.133 158.535C173.455 159.334 173.51 160.215 173.291 161.048C173.073 161.881 172.592 162.621 171.92 163.16L162.289 170.934C162.261 170.958 162.227 170.973 162.191 170.977L160.553 171.155Z" fill="#081E7A"/>
<path d="M130.366 162.618C130.337 162.609 130.31 162.594 130.288 162.573C130.266 162.552 130.25 162.525 130.24 162.496L126.204 151.099C125.915 150.289 125.893 149.406 126.143 148.583C126.393 147.759 126.901 147.037 127.592 146.524L142.139 135.65C142.171 135.627 142.21 135.615 142.249 135.614C142.288 135.613 142.327 135.624 142.36 135.646C142.392 135.669 142.416 135.701 142.43 135.738C142.443 135.776 142.444 135.816 142.434 135.855L139.448 146.412C139.436 146.454 139.41 146.491 139.375 146.516L134.042 150.312L130.595 162.503C130.584 162.541 130.561 162.575 130.529 162.599C130.498 162.623 130.459 162.636 130.42 162.637C130.401 162.634 130.383 162.628 130.366 162.618ZM141.925 136.27L127.816 146.826C127.189 147.293 126.728 147.948 126.502 148.696C126.275 149.444 126.295 150.245 126.559 150.98L130.39 161.842L133.699 150.144C133.711 150.104 133.736 150.068 133.77 150.043L139.101 146.255L141.925 136.27Z" fill="#081E7A"/>
<path d="M160.426 171.119C160.407 171.118 160.389 171.112 160.372 171.104C160.338 171.083 160.313 171.051 160.298 171.014C160.284 170.977 160.282 170.936 160.293 170.898L163.74 158.711L161.201 152.697C161.184 152.656 161.182 152.612 161.194 152.57L164.182 142.005C164.192 141.967 164.214 141.932 164.245 141.907C164.275 141.882 164.313 141.867 164.353 141.865C164.393 141.862 164.432 141.873 164.466 141.895C164.499 141.916 164.525 141.948 164.539 141.985L171.237 158.868C171.556 159.667 171.611 160.547 171.392 161.38C171.173 162.212 170.694 162.952 170.023 163.492L160.611 171.101C160.585 171.12 160.554 171.131 160.521 171.135C160.489 171.138 160.456 171.132 160.426 171.119ZM161.559 152.591L164.117 158.61C164.133 158.649 164.136 158.693 164.125 158.734L160.812 170.446L169.765 163.2C170.374 162.711 170.809 162.039 171.007 161.284C171.205 160.529 171.156 159.73 170.865 159.005L164.375 142.635L161.559 152.591Z" fill="#081E7A"/>
<path fill-rule="evenodd" clip-rule="evenodd" d="M141.291 61.1725L138.727 55.0713L139.055 54.8504L144.685 47.4535C144.85 47.2357 144.969 46.9857 145.032 46.7196C145.095 46.4534 145.102 46.1769 145.053 45.9079C145.003 45.6388 144.898 45.3832 144.743 45.1573C144.589 44.9313 144.389 44.7402 144.156 44.596L139.221 41.5331L139.053 41.4887C139.772 37.4984 140.357 33.5105 140.846 29.3144C141.256 25.7302 141.061 22.1025 140.269 18.5829L140 17.778C140.245 17.5556 140.421 17.2681 140.509 16.9491C140.652 16.4067 140.74 16.1398 140.781 16.0261C140.781 16.0261 140.786 16.0071 140.789 15.9962C140.792 15.9865 140.795 15.9765 140.797 15.9664C140.959 15.429 140.835 14.7899 140.417 14.1083C140.294 13.2753 139.749 10.5177 137.369 4.89177C132.532 8.61366 130.68 10.7388 130.163 11.4029C129.462 11.7285 129.042 12.1979 128.911 12.7405C128.775 13.09 128.665 13.4487 128.581 13.8138C128.531 14.1673 128.523 14.5256 128.558 14.881C125.913 17.6723 123.787 20.9129 122.279 24.4506C120.688 28.1945 119.216 31.9841 117.861 35.8194L112.078 36.0342C111.804 36.0441 111.535 36.1115 111.288 36.232C111.041 36.3525 110.822 36.5235 110.645 36.7339C110.469 36.9443 110.338 37.1894 110.262 37.4534C110.186 37.7174 110.167 37.9944 110.204 38.2665L111.412 47.1802L111.748 47.9186L106.331 52.0997C105.848 52.4737 105.497 52.9927 105.329 53.5808C105.162 54.1689 105.188 54.7951 105.403 55.3675L108.635 64.0061L109.678 64.6061L111.948 55.2756L114.407 53.7284L114.449 53.8208C114.133 55.0196 114.731 56.4594 116.317 57.8583C116.338 57.864 116.679 58.1249 116.695 58.1408L116.855 59.5001C117.332 63.8727 118.474 68.3396 120.06 70.7161C123.074 69.1905 127.192 65.8504 129.796 61.3015C131.726 60.8476 132.88 59.9163 133.184 58.7637L133.288 58.3677L135.339 60.9741L132.185 70.5442L133.428 70.3964L140.501 64.4768C140.967 64.082 141.296 63.5486 141.438 62.9542C141.58 62.3599 141.529 61.7356 141.291 61.1725Z" fill="white"/>
<path fill-rule="evenodd" clip-rule="evenodd" d="M144.266 44.6102L139.161 41.4443L137.147 51.0659L138.622 55.5365L144.795 47.4649C144.96 47.2471 145.078 46.9973 145.141 46.7314C145.204 46.4655 145.211 46.1894 145.161 45.9207C145.112 45.6519 145.006 45.3966 144.852 45.1709C144.698 44.9453 144.498 44.7543 144.266 44.6102Z" fill="white"/>
<path fill-rule="evenodd" clip-rule="evenodd" d="M112.188 36.054C111.915 36.0647 111.647 36.1324 111.401 36.2527C111.155 36.3731 110.938 36.5435 110.762 36.753C110.586 36.9625 110.455 37.2064 110.379 37.4692C110.303 37.732 110.283 38.0078 110.319 38.2789L111.675 48.3688L114.652 46.2535L117.972 35.8161L112.188 36.054Z" fill="white"/>
<path fill-rule="evenodd" clip-rule="evenodd" d="M116.518 59.4113C116.992 63.7831 118.577 68.3524 120.164 70.7289C123.177 69.2033 127.311 65.8498 129.907 61.2872L116.504 57.4756L116.518 59.4113Z" fill="url(#paint10_linear_3159_19086)"/>
<path fill-rule="evenodd" clip-rule="evenodd" d="M118.434 60.2556C118.418 62.427 118.988 64.5006 119.585 65.2472C120.323 64.7921 121.551 62.9201 122.431 60.6721L118.521 58.9355L118.434 60.2556Z" fill="#FFECFA"/>
<path fill-rule="evenodd" clip-rule="evenodd" d="M114.47 53.8058C114.153 55.0072 114.751 56.4471 116.341 57.844C119.516 60.6399 125.447 62.2047 129.589 61.3393C131.661 60.9084 132.891 59.9508 133.208 58.7494L133.466 58.0254L131.475 58.2921L123.782 57.9072L114.666 53.0654L114.47 53.8058Z" fill="#FFECFA"/>
<path fill-rule="evenodd" clip-rule="evenodd" d="M114.563 53.4998C114.949 53.9588 115.365 54.3921 115.807 54.797C119.621 58.1529 126.746 60.0326 131.719 58.995C132.305 58.8765 132.879 58.7036 133.433 58.4784L132.694 56.8796C132.694 56.8796 128.29 57.896 123.683 56.4891C120.791 55.6202 118.088 54.2182 115.712 52.3554L114.563 53.4998Z" fill="white"/>
<path d="M126.947 45.5465C128.37 45.9219 129.828 45.0727 130.203 43.6498C130.579 42.2269 129.73 40.769 128.307 40.3936C126.884 40.0182 125.426 40.8674 125.05 42.2903C124.675 43.7132 125.524 45.1711 126.947 45.5465Z" fill="url(#paint11_linear_3159_19086)"/>
<path fill-rule="evenodd" clip-rule="evenodd" d="M132.882 22.8554C131.517 22.4954 130.076 22.5481 128.742 23.0069C127.407 23.4657 126.238 24.3099 125.384 25.4328C124.529 26.5558 124.026 27.9069 123.939 29.3155C123.852 30.7241 124.185 32.1268 124.896 33.3463C125.606 34.5658 126.662 35.5472 127.93 36.1666C129.198 36.7859 130.621 37.0152 132.02 36.8257C133.418 36.6361 134.729 36.036 135.787 35.1015C136.844 34.1669 137.601 32.9397 137.961 31.5751C138.2 30.6691 138.259 29.7247 138.133 28.7961C138.007 27.8674 137.7 26.9726 137.228 26.1628C136.756 25.353 136.13 24.6441 135.384 24.0766C134.638 23.5091 133.788 23.0942 132.882 22.8554ZM129.776 34.6256C128.811 34.3709 127.942 33.8356 127.281 33.0874C126.62 32.3392 126.195 31.4117 126.061 30.4222C125.927 29.4327 126.089 28.4257 126.528 27.5284C126.966 26.6312 127.66 25.884 128.523 25.3814C129.386 24.8788 130.378 24.6434 131.375 24.7049C132.372 24.7664 133.328 25.122 134.122 25.7268C134.917 26.3316 135.514 27.1585 135.839 28.1028C136.163 29.0471 136.201 30.0664 135.946 31.0319C135.778 31.6743 135.485 32.2772 135.084 32.8062C134.682 33.3351 134.181 33.7798 133.607 34.1146C133.034 34.4494 132.4 34.6678 131.742 34.7574C131.084 34.847 130.415 34.8059 129.773 34.6365L129.776 34.6256Z" fill="white"/>
<path fill-rule="evenodd" clip-rule="evenodd" d="M140.921 15.9817C140.917 15.9913 140.914 16.0013 140.913 16.0115C140.916 16.0017 140.919 15.9918 140.921 15.9817Z" fill="#67DAFF"/>
<path fill-rule="evenodd" clip-rule="evenodd" d="M138.67 17.5283C136.027 18.0784 132.244 17.0803 130.217 15.298C129.217 14.4163 128.834 13.5119 129.02 12.7517C128.885 13.1012 128.775 13.4599 128.691 13.825C128.411 14.8854 129.252 16.2386 131.338 17.4039C132.933 18.2977 134.73 18.7716 136.558 18.7813C138.948 18.7966 140.343 18.0392 140.624 16.9733C140.767 16.4309 140.855 16.164 140.896 16.053C140.654 16.7377 139.914 17.2676 138.67 17.5283Z" fill="#FFECFA"/>
<path fill-rule="evenodd" clip-rule="evenodd" d="M140.576 14.405C140.576 14.405 140.391 11.8092 137.479 4.90279C131.531 9.47156 130.105 11.6424 130.105 11.6424C129.297 12.6388 129.911 14.1496 132.205 15.4277C133.635 16.2228 135.241 16.6466 136.877 16.6606C139.492 16.6775 140.78 15.6683 140.576 14.405Z" fill="url(#paint12_linear_3159_19086)"/>
<path fill-rule="evenodd" clip-rule="evenodd" d="M117.215 43.7967L106.441 52.1134C105.957 52.4873 105.606 53.0064 105.439 53.5945C105.272 54.1826 105.297 54.8087 105.512 55.3812L108.744 64.0197L109.787 64.6197L108.861 54.7273L118.249 44.6061L117.215 43.7967Z" fill="url(#paint13_linear_3159_19086)"/>
<path fill-rule="evenodd" clip-rule="evenodd" d="M141.402 61.1844L136.131 48.6489L134.793 48.9717L137.587 61.7444L132.289 70.5574L133.532 70.4068L140.606 64.4872C141.073 64.0932 141.402 63.5603 141.545 62.9663C141.688 62.3722 141.638 61.7479 141.402 61.1844Z" fill="url(#paint14_linear_3159_19086)"/>
<path fill-rule="evenodd" clip-rule="evenodd" d="M118.342 44.631L116.256 52.5366L112.294 55.4596L109.873 64.6371L106.717 56.19C106.503 55.6174 106.478 54.9915 106.645 54.4036C106.813 53.8158 107.163 53.2967 107.646 52.9222L118.342 44.631Z" fill="white"/>
<path fill-rule="evenodd" clip-rule="evenodd" d="M134.884 48.9961L132.798 56.9017L134.803 61.3988L132.381 70.5763L139.295 64.7798C139.763 64.3872 140.094 63.8552 140.238 63.2614C140.383 62.6676 140.334 62.0431 140.099 61.4791L134.884 48.9961Z" fill="white"/>
<path d="M139.278 54.9493L139.053 54.7797L144.682 47.3828C144.836 47.1803 144.945 46.9481 145.004 46.7009C145.063 46.4538 145.069 46.1971 145.024 45.9473C144.978 45.6974 144.88 45.4599 144.737 45.2499C144.594 45.0398 144.409 44.8618 144.194 44.7272L139.831 42.0241L139.981 41.7737L144.343 44.4795C144.591 44.6336 144.804 44.8377 144.969 45.0788C145.134 45.3199 145.246 45.5926 145.3 45.8796C145.353 46.1666 145.346 46.4616 145.279 46.7458C145.212 47.0299 145.087 47.297 144.911 47.53L139.278 54.9493Z" fill="#081E7A"/>
<path d="M111.389 47.2143L110.195 38.3014C110.157 38.012 110.18 37.7178 110.262 37.4376C110.344 37.1574 110.483 36.8973 110.671 36.674C110.859 36.4506 111.092 36.2689 111.354 36.1405C111.616 36.012 111.902 35.9396 112.194 35.9279L116.961 35.7353L116.968 36.0272L112.202 36.194C111.948 36.204 111.698 36.2669 111.47 36.3788C111.242 36.4907 111.039 36.6491 110.876 36.8438C110.712 37.0385 110.591 37.2652 110.52 37.5095C110.449 37.7537 110.43 38.01 110.464 38.2621L111.672 47.1757L111.389 47.2143Z" fill="#081E7A"/>
<path d="M120.125 70.8636C120.109 70.8596 120.093 70.8524 120.079 70.8423C120.065 70.8321 120.054 70.8194 120.045 70.8048C118.334 68.2415 116.822 63.5726 116.375 59.4256L116.653 59.3945C117.093 63.4353 118.55 67.994 120.209 70.5463C123.016 69.0997 127.165 65.8199 129.791 61.2189L130.044 61.361C127.349 66.0774 123.078 69.4236 120.235 70.8549C120.218 70.864 120.2 70.8695 120.181 70.871C120.162 70.8725 120.143 70.87 120.125 70.8636Z" fill="#081E7A"/>
<path d="M119.55 65.3828C119.52 65.3756 119.494 65.3585 119.476 65.3342C118.892 64.6 118.277 62.5755 118.295 60.2538L118.584 60.2576C118.57 62.3338 119.091 64.2754 119.638 65.0608C120.32 64.5621 121.388 63.1003 122.248 60.9052L122.511 61.0093C121.596 63.3785 120.394 64.9325 119.68 65.3736C119.661 65.3853 119.639 65.3923 119.616 65.3939C119.593 65.3955 119.571 65.3916 119.55 65.3828Z" fill="#081E7A"/>
<path d="M122.676 61.1282C120.255 60.4893 117.957 59.39 116.356 57.9813C114.755 56.5727 114.1 55.1089 114.446 53.799L114.717 53.8706C114.401 55.0693 115.048 56.4527 116.543 57.7667C119.683 60.5329 125.574 62.087 129.672 61.2306C131.619 60.8245 132.867 59.9413 133.183 58.7426L133.314 58.2463L133.585 58.3178L133.454 58.8141C133.109 60.1213 131.787 61.0777 129.727 61.5061C127.668 61.9345 125.098 61.7672 122.676 61.1282Z" fill="#081E7A"/>
<path d="M123.293 58.6744C120.391 57.9088 117.629 56.6001 115.713 54.9023L115.899 54.6904C119.666 58.0049 126.764 59.8774 131.692 58.8569L131.746 59.1325C129.245 59.6531 126.197 59.4407 123.293 58.6744Z" fill="#081E7A"/>
<path d="M129.378 36.0061C128.157 35.684 127.059 35.0069 126.223 34.0606C125.387 33.1142 124.85 31.9412 124.68 30.6897C124.511 29.4382 124.716 28.1646 125.27 27.0299C125.825 25.8952 126.703 24.9503 127.795 24.3149C128.886 23.6795 130.141 23.382 131.402 23.46C132.662 23.5381 133.871 23.9882 134.876 24.7534C135.881 25.5187 136.636 26.5646 137.046 27.7591C137.456 28.9535 137.503 30.2428 137.18 31.4638C136.744 33.0984 135.679 34.4938 134.217 35.345C132.755 36.1962 131.015 36.4339 129.378 36.0061ZM132.573 23.8994C131.399 23.5897 130.159 23.6351 129.011 24.0297C127.863 24.4244 126.857 25.1507 126.122 26.1168C125.387 27.0828 124.954 28.2452 124.88 29.457C124.805 30.6689 125.091 31.8756 125.702 32.9247C126.313 33.9738 127.222 34.8182 128.313 35.351C129.404 35.8838 130.628 36.0811 131.831 35.918C133.034 35.7549 134.162 35.2387 135.072 34.4347C135.981 33.6306 136.632 32.5749 136.942 31.401C137.353 29.8269 137.125 28.1541 136.306 26.7483C135.487 25.3425 134.145 24.3182 132.573 23.8994Z" stroke="#FFECFA" stroke-width="5"/>
<path d="M123.84 56.6022C120.938 55.8366 118.176 54.5279 116.261 52.8274C116.162 52.7404 116.066 52.6541 115.973 52.5658L116.166 52.3615C116.256 52.4491 116.35 52.5319 116.446 52.6182C120.213 55.9327 127.311 57.8052 132.239 56.7847L132.294 57.0576C129.792 57.5809 126.744 57.3686 123.84 56.6022Z" fill="#081E7A"/>
<path d="M137.166 50.4214C138.778 43.4575 139.991 36.4072 140.799 29.3049C141.213 25.7392 141.023 22.1293 140.237 18.6267L140.511 18.5656C141.304 22.0991 141.495 25.7408 141.078 29.3378C140.269 36.4505 139.054 43.511 137.439 50.4849L137.166 50.4214Z" fill="#081E7A"/>
<path d="M115.191 44.7604L114.92 44.6888C117.002 37.8006 119.456 31.0305 122.272 24.4084C123.787 20.8554 125.922 17.6006 128.579 14.7969L128.783 14.9901C126.149 17.7693 124.032 20.9968 122.533 24.5206C119.721 31.1292 117.27 37.8858 115.191 44.7604Z" fill="#081E7A"/>
<path d="M126.74 45.7822C126.204 45.6406 125.721 45.3432 125.354 44.9276C124.987 44.5119 124.751 43.9966 124.676 43.4469C124.602 42.8972 124.692 42.3377 124.935 41.8393C125.179 41.3408 125.565 40.9257 126.044 40.6465C126.523 40.3673 127.075 40.2365 127.628 40.2706C128.182 40.3048 128.713 40.5024 129.155 40.8384C129.596 41.1744 129.928 41.6337 130.108 42.1583C130.289 42.683 130.309 43.2493 130.168 43.7857C129.978 44.5049 129.51 45.1194 128.867 45.4938C128.225 45.8682 127.459 45.9719 126.74 45.7822ZM128.1 40.6293C127.617 40.5019 127.107 40.5206 126.635 40.6829C126.163 40.8452 125.75 41.1439 125.447 41.5411C125.145 41.9384 124.967 42.4164 124.936 42.9147C124.905 43.413 125.023 43.9093 125.274 44.3407C125.526 44.7721 125.899 45.1193 126.348 45.3384C126.797 45.5575 127.3 45.6387 127.795 45.5716C128.29 45.5045 128.753 45.2923 129.127 44.9616C129.502 44.631 129.769 44.1968 129.897 43.7141C130.067 43.0668 129.974 42.3781 129.637 41.7996C129.3 41.2211 128.747 40.8001 128.1 40.6293Z" fill="#081E7A"/>
<path d="M129.207 36.7874C127.815 36.4203 126.564 35.6487 125.611 34.5703C124.658 33.492 124.046 32.1552 123.853 30.7291C123.66 29.303 123.894 27.8516 124.525 26.5586C125.157 25.2655 126.158 24.1889 127.402 23.4648C128.646 22.7407 130.076 22.4016 131.512 22.4906C132.949 22.5795 134.327 23.0924 135.471 23.9645C136.616 24.8365 137.477 26.0284 137.944 27.3895C138.411 28.7507 138.465 30.2198 138.097 31.6112C137.6 33.4739 136.386 35.0641 134.72 36.034C133.054 37.004 131.072 37.2749 129.207 36.7874ZM132.847 22.9913C131.509 22.6384 130.096 22.69 128.788 23.1398C127.48 23.5895 126.334 24.4172 125.496 25.518C124.658 26.6189 124.165 27.9435 124.08 29.3244C123.995 30.7053 124.321 32.0805 125.017 33.276C125.714 34.4715 126.749 35.4337 127.992 36.0408C129.235 36.6479 130.631 36.8728 132.002 36.6869C133.373 36.5011 134.658 35.9129 135.694 34.9966C136.731 34.0804 137.473 32.8774 137.826 31.5396C138.294 29.7459 138.034 27.8397 137.101 26.2377C136.167 24.6358 134.638 23.4685 132.847 22.9913Z" fill="#081E7A"/>
<path d="M135.99 31.3457L135.719 31.2741C135.743 31.1846 135.766 31.0979 135.791 31.0029L136.062 31.0745C136.043 31.1681 136.016 31.2596 135.99 31.3457Z" fill="#081E7A"/>
<path d="M130.6 34.9128L130.626 34.6294C130.808 34.6463 130.991 34.6529 131.174 34.6494L131.179 34.9407C130.986 34.9415 130.793 34.9322 130.6 34.9128ZM131.767 34.8871L131.73 34.6104C131.911 34.5848 132.091 34.5499 132.268 34.5058L132.339 34.7768C132.148 34.8249 131.955 34.861 131.759 34.8849L131.767 34.8871ZM132.892 34.6037L132.794 34.3398C132.963 34.2745 133.128 34.1989 133.288 34.1136L133.416 34.3649C133.243 34.453 133.066 34.532 132.884 34.6016L132.892 34.6037ZM133.925 34.0756L133.769 33.8429C133.922 33.7421 134.07 33.633 134.212 33.516L134.39 33.7312C134.238 33.8535 134.081 33.9677 133.917 34.0734L133.925 34.0756ZM134.814 33.3326L134.613 33.1402C134.739 33.0076 134.858 32.8685 134.969 32.7237L135.191 32.8926C135.073 33.0468 134.944 33.1931 134.806 33.3305L134.814 33.3326ZM135.519 32.4104L135.267 32.2656C135.361 32.1071 135.445 31.9436 135.521 31.7757L135.78 31.8933C135.699 32.0696 135.609 32.2415 135.511 32.4082L135.519 32.4104Z" fill="#081E7A"/>
<path d="M129.741 34.7614L129.812 34.4902C129.902 34.5138 129.989 34.5367 130.084 34.5618L130.012 34.833C129.929 34.8081 129.836 34.7865 129.741 34.7614Z" fill="#081E7A"/>
<path d="M129.741 34.7614C128.749 34.5005 127.858 33.9515 127.179 33.1839C126.5 32.4162 126.064 31.4644 125.926 30.4489C125.788 29.4334 125.954 28.3998 126.404 27.4788C126.854 26.5579 127.566 25.7909 128.452 25.2751C129.337 24.7593 130.356 24.5177 131.379 24.5809C132.402 24.6442 133.383 25.0094 134.198 25.6304C135.014 26.2513 135.626 27.1002 135.959 28.0695C136.292 29.0388 136.33 30.0851 136.068 31.0759L135.797 31.0043C136.043 30.0678 136.006 29.0791 135.691 28.1634C135.376 27.2477 134.796 26.4461 134.025 25.8598C133.254 25.2735 132.327 24.929 131.36 24.8697C130.394 24.8104 129.431 25.0391 128.595 25.5267C127.758 26.0144 127.085 26.7393 126.66 27.6096C126.235 28.4799 126.078 29.4566 126.208 30.4163C126.338 31.376 126.75 32.2755 127.391 33.0011C128.033 33.7267 128.875 34.2459 129.811 34.4929L129.741 34.7614Z" fill="#081E7A"/>
<path d="M133.827 18.5481C132.935 18.313 132.076 17.9665 131.271 17.5169C129.254 16.3872 128.239 14.9909 128.558 13.7786C128.647 13.4147 128.756 13.0561 128.885 12.7046L129.148 12.8087C129.024 13.1502 128.918 13.4978 128.83 13.8502C128.549 14.9133 129.538 16.2242 131.408 17.2717C132.984 18.1516 134.756 18.6192 136.561 18.6312C138.704 18.6427 140.211 17.9901 140.491 16.9269C140.571 16.5878 140.671 16.2539 140.793 15.9274L141.054 16.0369C140.939 16.3518 140.842 16.6728 140.762 16.9985C140.443 18.2108 138.871 18.9244 136.559 18.9121C135.637 18.9059 134.719 18.7836 133.827 18.5481Z" fill="#081E7A"/>
<path d="M134.177 17.4193C132.693 17.0583 131.309 16.37 130.125 15.4047C129.184 14.5761 128.735 13.6831 128.85 12.8811C128.943 12.2122 129.413 11.6605 130.208 11.2871L130.326 11.5417C129.624 11.8727 129.208 12.349 129.127 12.9221C129.025 13.6263 129.447 14.4339 130.309 15.1921C132.303 16.948 136.04 17.934 138.64 17.3902C139.739 17.1609 140.462 16.7104 140.724 16.0892C140.949 15.5683 140.846 14.9029 140.415 14.1946L140.653 14.0487C141.136 14.8373 141.247 15.5803 140.979 16.2C140.673 16.9084 139.882 17.4131 138.69 17.6643C137.186 17.9194 135.644 17.8357 134.177 17.4193Z" fill="#081E7A"/>
<path d="M134.426 16.4731C133.627 16.2632 132.857 15.9529 132.135 15.5494C130.716 14.7602 129.839 13.8181 129.659 12.9035C129.609 12.6658 129.613 12.4197 129.672 12.184C129.731 11.9482 129.842 11.7288 129.998 11.5424C130.047 11.4655 131.494 9.3263 137.395 4.79162C137.412 4.77965 137.432 4.77157 137.453 4.76794C137.474 4.76431 137.495 4.76521 137.515 4.77058C137.536 4.77595 137.555 4.78566 137.571 4.79905C137.587 4.81244 137.6 4.82919 137.609 4.84815C140.231 11.0514 140.669 13.8124 140.681 14.3813L140.7 14.3863C140.748 14.6247 140.74 14.8707 140.678 15.1057C140.616 15.3407 140.501 15.5585 140.342 15.7423C139.737 16.4529 138.51 16.837 136.883 16.8254C136.053 16.8129 135.227 16.6945 134.426 16.4731ZM137.42 5.12598C131.689 9.54313 130.236 11.6979 130.221 11.7202C130.089 11.8728 129.994 12.0535 129.942 12.2485C129.891 12.4436 129.885 12.6479 129.924 12.8457C130.087 13.6805 130.922 14.5595 132.261 15.3014C133.671 16.0886 135.257 16.5071 136.872 16.5178C138.412 16.5296 139.571 16.1827 140.113 15.5339C140.244 15.3828 140.338 15.2039 140.389 15.0107C140.44 14.8175 140.446 14.6152 140.407 14.4193L140.413 14.3976C140.42 14.3065 140.228 11.799 137.42 5.12598Z" fill="#081E7A"/>
<path d="M109.711 64.7334L108.668 64.1334C108.638 64.1178 108.616 64.0911 108.606 64.0592L105.386 55.4296C105.159 54.8295 105.131 54.1722 105.306 53.555C105.481 52.9377 105.851 52.3934 106.36 52.0025L117.134 43.7001C117.158 43.681 117.188 43.6705 117.219 43.6703C117.25 43.67 117.281 43.6801 117.305 43.6989L118.339 44.4968L118.17 44.7191L117.22 43.987L106.522 52.2223C106.062 52.5776 105.727 53.0713 105.568 53.6309C105.409 54.1904 105.434 54.7863 105.638 55.3308L108.847 63.9255L109.856 64.5019L109.711 64.7334Z" fill="#081E7A"/>
<path d="M132.307 70.6949L132.273 70.4162L133.472 70.2712L140.507 64.3762C140.954 64.0039 141.269 63.4977 141.407 62.9324C141.545 62.3671 141.497 61.7725 141.271 61.2362L136.05 48.8124L134.812 49.1038L134.745 48.8308L136.086 48.5087C136.118 48.501 136.152 48.5048 136.182 48.5195C136.211 48.5342 136.235 48.5588 136.248 48.5891L141.515 61.1265C141.765 61.7175 141.817 62.3733 141.666 62.9967C141.514 63.6202 141.165 64.1781 140.671 64.5879L133.598 70.5075C133.577 70.5255 133.552 70.537 133.525 70.5406L132.307 70.6949Z" fill="#081E7A"/>
<path d="M109.703 64.7316C109.681 64.7256 109.661 64.7144 109.644 64.6989C109.627 64.6834 109.615 64.664 109.607 64.6426L106.45 56.2036C106.223 55.6035 106.196 54.9464 106.371 54.3294C106.546 53.7124 106.915 53.168 107.424 52.7765L118.12 44.4827C118.143 44.4653 118.172 44.4555 118.201 44.4544C118.23 44.4533 118.259 44.4611 118.284 44.4766C118.308 44.4933 118.327 44.5171 118.337 44.5447C118.348 44.5724 118.349 44.6026 118.342 44.6312L116.256 52.5367C116.248 52.5682 116.229 52.5959 116.203 52.6156L112.28 55.5139L109.871 64.6426C109.864 64.6713 109.847 64.6967 109.824 64.7152C109.801 64.7336 109.772 64.7441 109.743 64.745C109.729 64.7431 109.715 64.7386 109.703 64.7316ZM117.968 44.9474L107.594 52.9985C107.133 53.3543 106.799 53.8487 106.64 54.409C106.481 54.9693 106.506 55.5657 106.712 56.1104L109.71 64.1534L112.021 55.3936C112.03 55.3631 112.048 55.3363 112.073 55.3174L115.996 52.4245L117.968 44.9474Z" fill="#081E7A"/>
<path d="M132.212 70.67C132.198 70.669 132.184 70.6654 132.172 70.6593C132.146 70.6438 132.127 70.6207 132.116 70.5932C132.105 70.5657 132.103 70.5354 132.11 70.5067L134.518 61.3808L132.547 56.9331C132.534 56.9032 132.532 56.8698 132.54 56.8384L134.627 48.9274C134.634 48.8986 134.65 48.8727 134.673 48.8535C134.696 48.8343 134.724 48.8228 134.753 48.8206C134.783 48.8184 134.812 48.8257 134.838 48.8413C134.863 48.857 134.882 48.8802 134.894 48.9077L140.106 61.3989C140.355 61.9901 140.407 62.6455 140.255 63.2686C140.103 63.8917 139.755 64.4497 139.262 64.8603L132.35 70.6541C132.33 70.6684 132.307 70.6774 132.283 70.6802C132.259 70.683 132.235 70.6795 132.212 70.67ZM132.813 56.8494L134.797 61.3007C134.81 61.3297 134.813 61.362 134.805 61.3927L132.491 70.1634L139.067 64.6462C139.514 64.2738 139.829 63.7677 139.967 63.2023C140.105 62.637 140.057 62.0424 139.831 61.5062L134.78 49.3941L132.813 56.8494Z" fill="#081E7A"/>
<defs>
<linearGradient id="paint0_linear_3159_19086" x1="31.6748" y1="160.153" x2="47.6111" y2="195.635" gradientUnits="userSpaceOnUse">
<stop stop-color="#E64C4E"/>
<stop offset="1" stop-color="#EF33F9"/>
</linearGradient>
<linearGradient id="paint1_linear_3159_19086" x1="52.5103" y1="122.473" x2="60.3034" y2="136.691" gradientUnits="userSpaceOnUse">
<stop stop-color="#E64C4E"/>
<stop offset="1" stop-color="#EF33F9"/>
</linearGradient>
<linearGradient id="paint2_linear_3159_19086" x1="68.2688" y1="44.9219" x2="85.9623" y2="74.9162" gradientUnits="userSpaceOnUse">
<stop stop-color="#E64C4E"/>
<stop offset="1" stop-color="#EF33F9"/>
</linearGradient>
<linearGradient id="paint3_linear_3159_19086" x1="15.6143" y1="125.419" x2="45.4629" y2="151.266" gradientUnits="userSpaceOnUse">
<stop stop-color="#E64C4E"/>
<stop offset="1" stop-color="#EF33F9"/>
</linearGradient>
<linearGradient id="paint4_linear_3159_19086" x1="71.8752" y1="141.539" x2="101.822" y2="167.361" gradientUnits="userSpaceOnUse">
<stop stop-color="#E64C4E"/>
<stop offset="1" stop-color="#EF33F9"/>
</linearGradient>
<linearGradient id="paint5_linear_3159_19086" x1="139.664" y1="153.044" x2="149.79" y2="175.092" gradientUnits="userSpaceOnUse">
<stop stop-color="#E64C4E"/>
<stop offset="1" stop-color="#EF33F9"/>
</linearGradient>
<linearGradient id="paint6_linear_3159_19086" x1="152.463" y1="129.433" x2="157.398" y2="138.26" gradientUnits="userSpaceOnUse">
<stop stop-color="#E64C4E"/>
<stop offset="1" stop-color="#EF33F9"/>
</linearGradient>
<linearGradient id="paint7_linear_3159_19086" x1="161.887" y1="80.9795" x2="173.08" y2="99.5953" gradientUnits="userSpaceOnUse">
<stop stop-color="#E64C4E"/>
<stop offset="1" stop-color="#EF33F9"/>
</linearGradient>
<linearGradient id="paint8_linear_3159_19086" x1="129.465" y1="131.463" x2="148.218" y2="147.428" gradientUnits="userSpaceOnUse">
<stop stop-color="#E64C4E"/>
<stop offset="1" stop-color="#EF33F9"/>
</linearGradient>
<linearGradient id="paint9_linear_3159_19086" x1="164.642" y1="141.224" x2="183.455" y2="157.173" gradientUnits="userSpaceOnUse">
<stop stop-color="#E64C4E"/>
<stop offset="1" stop-color="#EF33F9"/>
</linearGradient>
<linearGradient id="paint10_linear_3159_19086" x1="116.504" y1="57.4756" x2="124.339" y2="73.7703" gradientUnits="userSpaceOnUse">
<stop stop-color="#E64C4E"/>
<stop offset="1" stop-color="#EF33F9"/>
</linearGradient>
<linearGradient id="paint11_linear_3159_19086" x1="125.73" y1="39.7139" x2="129.524" y2="46.2262" gradientUnits="userSpaceOnUse">
<stop stop-color="#E64C4E"/>
<stop offset="1" stop-color="#EF33F9"/>
</linearGradient>
<linearGradient id="paint12_linear_3159_19086" x1="132.114" y1="3.4873" x2="140.699" y2="17.2107" gradientUnits="userSpaceOnUse">
<stop stop-color="#E64C4E"/>
<stop offset="1" stop-color="#EF33F9"/>
</linearGradient>
<linearGradient id="paint13_linear_3159_19086" x1="108.621" y1="41.5293" x2="122.804" y2="53.1783" gradientUnits="userSpaceOnUse">
<stop stop-color="#E64C4E"/>
<stop offset="1" stop-color="#EF33F9"/>
</linearGradient>
<linearGradient id="paint14_linear_3159_19086" x1="134.96" y1="48.3398" x2="149.188" y2="59.9761" gradientUnits="userSpaceOnUse">
<stop stop-color="#E64C4E"/>
<stop offset="1" stop-color="#EF33F9"/>
</linearGradient>
</defs>
</svg>
