<svg width="131" height="210" viewBox="0 0 131 210" fill="none" xmlns="http://www.w3.org/2000/svg">
<path d="M104.131 174.998L117.565 85.3872L118.422 85.2402L118.452 85.0361L118.438 85.1341C118.455 84.1762 118.197 83.2335 117.693 82.4184C117.524 82.0779 117.331 81.7504 117.114 81.4385L106.916 64.1687L101.665 68.9651L102.985 60.1657C104.367 50.6074 103.715 40.8649 101.069 31.5765L100.612 31.5079C100.481 30.764 100.283 30.0333 100.021 29.3245C99.2324 26.7941 90.8831 9.66781 85.2916 8.82953C79.7001 7.99126 66.7062 21.9011 65.1991 24.1039C64.7947 24.6859 64.3972 25.2773 64.0148 25.8794C62.7292 27.8646 61.5496 29.9165 60.4809 32.0265L58.3329 32.3806L50.7071 19.1686L35.9962 32.8961C35.3904 33.394 34.8894 34.0071 34.5219 34.6998C34.1545 35.3925 33.9279 36.1512 33.8554 36.9319L26.8482 83.672L28.2566 83.4074C22.5231 88.2483 17.1354 94.5683 13.8839 105.457C12.4941 110.106 14.9459 117.301 19.1316 120.557L21.9279 122.337L21.3013 126.516L20.4189 126C18.5952 127.294 17.3563 129.256 16.9714 131.459L17.2236 131.447L16.3094 137.544C16.2019 138.608 16.3277 139.682 16.6779 140.691C17.0282 141.701 17.5946 142.622 18.3375 143.39L18.2176 143.856C17.6062 144.728 17.1748 145.714 16.9485 146.754C16.6303 148.877 17.6998 151.207 20.2047 153.26L20.0916 153.402C18.6234 155.168 17.6315 157.28 17.2103 159.538L16.4393 164.681L18.685 166.403C18.7258 166.409 42.6299 156.998 42.6299 156.998L42.6531 156.843L42.8241 156.927C43.8478 157.631 44.9319 158.243 46.0637 158.756L42.7709 165.465C40.399 162.247 27.124 161.275 25.4597 172.376C25.1353 174.549 25.4826 176.77 26.4551 178.74C27.4277 180.71 28.979 182.336 30.9014 183.4C30.9039 186.814 31.8693 190.16 33.6868 193.051C35.5043 195.942 38.1002 198.262 41.1765 199.744C44.2529 201.227 47.6849 201.812 51.0787 201.432C54.4725 201.053 57.6905 199.724 60.3632 197.598C63.0132 197.737 67.9475 196.724 72.7616 193.339C73.2205 195.845 75.4658 198.46 79.6473 200.464C83.9746 202.528 88.8419 203.176 93.5583 202.316C98.7081 201.369 101.582 198.904 102.006 196.071C102.085 194.941 101.938 193.806 101.572 192.734L101.286 192.691C101.286 192.691 105.077 189.337 104.838 187.256L105.695 181.542C106.778 179.493 104.131 174.998 104.131 174.998ZM62.762 169.238C62.1739 169.157 61.5812 169.113 60.9875 169.106L60.0171 160.881C62.2839 160.755 64.5184 160.285 66.6443 159.488L67.0132 159.309L77.0355 167.28L76.8556 167.646L76.4126 170.601L75.9963 170.538C74.4005 171.635 73.263 173.279 72.7997 175.158L68.3585 171.38C66.669 170.271 64.7599 169.541 62.762 169.238Z" fill="white"/>
<path d="M72.9155 175.501L68.4743 171.722C66.279 170.262 63.7094 169.465 61.0731 169.428L60.1027 161.203L52.9158 160.818L45.7394 158.582L42.5075 165.275C40.1356 162.057 26.8606 161.085 25.1963 172.187C24.8709 174.357 25.2161 176.576 26.1856 178.545C27.1551 180.515 28.7028 182.141 30.6216 183.207C30.6186 186.625 31.5803 189.975 33.3961 192.87C35.212 195.766 37.8082 198.09 40.8862 199.576C43.9643 201.062 47.3992 201.649 50.796 201.27C54.1928 200.89 57.4136 199.56 60.088 197.432C63.4755 197.606 71.96 194.847 76.0989 190.176C76.0989 190.176 72.5234 187.136 71.8947 184.204C71.4427 182.041 72.9155 175.501 72.9155 175.501Z" fill="url(#paint0_linear_3081_11835)"/>
<path d="M17.8951 143.832C17.2838 144.704 16.8524 145.69 16.6261 146.73C16.3018 148.893 17.4047 151.279 20.0227 153.357L24.0448 148.018L17.8951 143.832Z" fill="url(#paint1_linear_3081_11835)"/>
<path d="M20.8158 138.771C17.8856 136.437 16.8565 133.837 17.22 131.413L17.2114 131.47L16.2973 137.568C15.9216 140.074 17.1796 142.816 20.2237 145.226C21.5243 146.295 22.9782 147.163 24.5366 147.8L28.6649 142.644C25.803 141.926 23.1271 140.605 20.8158 138.771Z" fill="#FFECFA"/>
<path d="M61.1441 37.3428C60.9784 37.0028 60.7876 36.6756 60.573 36.3642L50.7067 19.169L35.9876 32.8953C32.9941 35.4929 33.2944 39.3355 37.2241 42.4619C42.1523 46.3889 50.9027 47.7008 56.7658 45.3916C61.085 43.6938 62.6152 40.5012 61.1441 37.3428Z" fill="#FFECFA"/>
<path d="M100.633 31.3682C100.526 30.6612 100.32 29.9729 100.021 29.3235C99.2239 26.7919 90.8827 9.66686 85.2912 8.82858C79.6997 7.9903 66.7058 21.9001 65.1988 24.1029C64.7944 24.685 64.3969 25.2764 64.0145 25.8784C62.5124 29.0501 63.6943 32.8579 67.7587 36.088L77.9126 40.7317C83.3984 41.9965 89.4274 41.8655 94.0347 40.0273C98.8921 38.1348 101.139 34.841 100.633 31.3682Z" fill="url(#paint2_linear_3081_11835)"/>
<path d="M101.308 192.545C101.308 192.545 94.0271 195.626 87.1296 194.592C80.0443 193.53 73.8648 188.43 73.8648 188.43C73.1983 189.347 72.7217 190.388 72.4627 191.492C72.1384 193.655 73.2426 196.032 75.8593 198.119C81.0837 202.241 90.3729 203.633 96.5845 201.226C99.6863 200.022 101.443 198.048 101.767 195.885C101.839 194.752 101.683 193.616 101.308 192.545Z" fill="url(#paint3_linear_3081_11835)"/>
<path d="M100.627 187.126C93.4434 189.946 82.7257 188.34 76.6854 183.536C73.8005 181.234 72.7706 178.584 73.0769 176.151L72.1468 182.355C71.6573 185.62 73.9762 189.248 79.2883 192.006C84.415 194.669 90.2826 195.548 95.9648 194.506C101.844 193.426 105.13 190.605 105.614 187.373L106.471 181.659C105.866 183.855 103.891 185.837 100.627 187.126Z" fill="#FFECFA"/>
<path d="M117.021 82.1673C116.859 81.8254 116.671 81.496 116.46 81.1817L106.563 63.9653L91.8197 77.6879C88.0782 80.9329 89.4736 86.0998 96.6227 89.4083C100.274 91.0994 104.326 91.7302 108.318 91.2285C115.847 90.279 119.431 86.3594 117.021 82.1673Z" fill="#FFECFA"/>
<path d="M73.167 31.6912L59.5528 45.508C59.5528 45.508 56.1532 53.4865 69.4451 55.738C81.5885 57.8005 82.273 48.113 82.273 48.113L73.167 31.6912Z" fill="white"/>
<path d="M102.162 170.146C103.098 135.516 84.3055 104.872 84.283 78.2443L78.8293 80.2728L82.5198 103.979C87.9496 124.657 97.3679 147.402 96.7005 172.173C96.628 175.05 95.5907 177.015 94.0431 177.818L94.0734 178.006C94.0734 178.006 97.7407 176.536 99.1993 175.937C100.906 175.241 102.071 173.204 102.162 170.146Z" fill="white"/>
<path d="M19.386 161.283C19.8097 159.026 20.8013 156.914 22.2674 155.146L47.5982 123.414L47.5896 123.471L47.5982 123.414L45.3549 121.675L20.0229 153.416C18.5547 155.182 17.5628 157.294 17.1415 159.552L16.3926 164.548L18.6383 166.27L19.386 161.283Z" fill="white"/>
<path d="M63.276 91.7123C62.3997 96.2215 58.6646 97.698 54.9352 94.9605C51.2059 92.223 48.8942 86.3763 49.7717 81.859C50.6493 77.3417 54.3832 75.8733 58.1031 78.6177C61.8231 81.3622 64.1536 87.195 63.276 91.7123Z" fill="url(#paint4_linear_3081_11835)"/>
<path d="M58.3238 181.084C58.9762 179.439 59.0367 177.618 58.4948 175.933C57.953 174.248 56.8425 172.803 55.3533 171.846C53.8641 170.89 52.0888 170.48 50.3309 170.688C48.5731 170.895 46.942 171.707 45.7167 172.984L45.5126 172.954C45.1513 172.122 44.6096 171.381 43.9268 170.785C43.2439 170.188 42.437 169.751 41.5643 169.505C40.6916 169.258 39.7751 169.209 38.8811 169.361C37.9871 169.512 37.138 169.86 36.3952 170.38C35.6524 170.9 35.0345 171.579 34.5862 172.367C34.138 173.155 33.8706 174.033 33.8034 174.938C33.7363 175.842 33.871 176.75 34.1979 177.596C34.5248 178.441 35.0356 179.204 35.6934 179.828C35.0402 182.166 35.3072 184.665 36.4398 186.812C37.5723 188.959 39.4843 190.59 41.7826 191.371C44.0809 192.151 46.591 192.022 48.7968 191.009C51.0025 189.996 52.7364 188.176 53.642 185.924C53.6677 185.753 53.7575 185.599 53.8065 185.44C54.8255 185.076 55.7555 184.5 56.5344 183.749C57.3133 182.998 57.9233 182.089 58.3238 181.084Z" fill="#FFECFA"/>
<path d="M82.7229 51.0682C82.6257 50.7699 82.5192 50.4785 82.4045 50.1859C82.2409 49.7551 82.0723 49.3209 81.8987 48.8831C81.8556 50.7295 80.5329 52.4258 77.8773 53.4382C73.1051 55.3185 65.9954 54.2526 61.9844 51.0555C59.7913 49.3163 59.021 47.2728 59.4756 45.5214C59.187 45.8872 58.8879 46.268 58.61 46.6186C58.4215 46.8741 58.2341 47.1214 58.055 47.37C56.6594 49.6646 57.3628 52.4325 60.3452 54.8076C64.8635 58.4062 72.8957 59.6104 78.3033 57.4999C81.8919 56.11 83.3904 53.6304 82.7229 51.0682Z" fill="#FFECFA"/>
<path d="M69.0076 58.7107C65.7972 58.2945 62.7466 57.0643 60.1456 55.1369C57.126 52.7312 56.2075 49.6723 57.761 47.1593C57.9614 46.8805 58.1499 46.625 58.3405 46.4116C58.5311 46.1981 58.8788 45.7161 59.1555 45.3736L59.2073 45.3063C59.2664 45.2315 59.3496 45.1796 59.4427 45.1592C59.5358 45.1388 59.6331 45.1513 59.7181 45.1945C59.803 45.2377 59.8704 45.309 59.9088 45.3962C59.9471 45.4835 59.9541 45.5813 59.9285 45.6731C59.4593 47.3555 60.3067 49.2186 62.2606 50.7718C66.1626 53.8606 73.1091 54.9021 77.7698 53.0969C80.0933 52.185 81.4743 50.656 81.4946 48.9063C81.497 48.811 81.5324 48.7196 81.5946 48.6474C81.6569 48.5752 81.7422 48.5268 81.8361 48.5104C81.93 48.494 82.0267 48.5106 82.1097 48.5574C82.1927 48.6042 82.257 48.6783 82.2916 48.7671L82.3214 48.8467C82.4855 49.2552 82.6496 49.6637 82.7962 50.078C82.9427 50.4922 83.015 50.6783 83.1228 50.9616C83.8756 53.8454 82.1086 56.5016 78.5081 57.9149C75.4605 58.9839 72.1906 59.2578 69.0076 58.7107ZM59.0119 46.8878C58.8258 47.127 58.6385 47.3743 58.4569 47.6392C57.1429 49.7792 57.9586 52.3553 60.6728 54.5149C65.0867 58.031 72.9474 59.2095 78.1983 57.1423C81.4184 55.8724 82.9569 53.6826 82.3273 51.2012C82.2277 50.9192 82.1281 50.6372 82.0252 50.3213C81.6413 51.1431 81.0921 51.8771 80.4119 52.4773C79.7317 53.0775 78.9352 53.5311 78.0719 53.8099C73.1851 55.7314 65.8794 54.6361 61.7464 51.3624C61.0068 50.8453 60.382 50.1809 59.9115 49.4109C59.4409 48.6409 59.1346 47.7819 59.0119 46.8878Z" fill="#081E7A"/>
<path d="M70.9748 174.025L68.236 172.029C66.5942 170.946 64.7345 170.237 62.7885 169.952C62.2171 169.871 61.6412 169.827 61.0641 169.819C60.966 169.816 60.8721 169.778 60.7994 169.712C60.7267 169.646 60.6799 169.556 60.6674 169.459L59.9086 163.386L60.7591 163.28L61.4853 169.014C61.9787 169.031 62.471 169.074 62.9599 169.143C65.0301 169.447 67.0083 170.202 68.7543 171.356L71.5069 173.371L70.9748 174.025Z" fill="#081E7A"/>
<path d="M46.0476 201.562C41.7004 200.888 37.7297 198.704 34.8342 195.392C31.9386 192.08 30.3036 187.854 30.2167 183.456C28.2883 182.317 26.7429 180.63 25.7778 178.609C24.8127 176.588 24.4717 174.326 24.7983 172.11C25.0239 169.954 25.9201 167.923 27.3608 166.304C28.8014 164.684 30.7139 163.557 32.8288 163.082C36.6946 162.126 40.6817 163.032 42.3793 164.514L44.2274 160.425L45.0106 160.768L42.903 165.418C42.8753 165.485 42.8301 165.543 42.7722 165.587C42.7143 165.63 42.6458 165.658 42.5738 165.666C42.5018 165.674 42.4291 165.662 42.363 165.632C42.297 165.602 42.2402 165.556 42.1985 165.496C41.0536 163.948 36.9004 162.924 33.0591 163.884C31.0986 164.317 29.3243 165.357 27.988 166.856C26.6518 168.354 25.8213 170.235 25.6146 172.233C25.3093 174.32 25.644 176.451 26.5746 178.344C27.5051 180.237 28.9877 181.804 30.8268 182.838C30.8915 182.872 30.9455 182.924 30.9831 182.987C31.0207 183.05 31.0405 183.122 31.0403 183.195C31.045 186.532 31.9902 189.801 33.7676 192.626C35.545 195.45 38.0826 197.717 41.0893 199.165C44.096 200.614 47.4501 201.185 50.7668 200.815C54.0836 200.444 57.2287 199.146 59.8414 197.069C59.8802 197.038 59.9248 197.014 59.9728 197C60.0208 196.986 60.0711 196.981 60.1209 196.986C62.0733 197.088 64.0255 196.783 65.8536 196.09C67.6817 195.397 69.3457 194.332 70.7398 192.961L71.3194 193.549C69.8639 194.984 68.1278 196.103 66.2198 196.837C64.3118 197.571 62.273 197.903 60.2308 197.812C58.2426 199.363 55.9608 200.495 53.5231 201.139C51.0854 201.783 48.5424 201.927 46.0476 201.562Z" fill="#081E7A"/>
<path d="M19.7422 153.675C17.0891 151.608 15.8319 149.082 16.1941 146.666C16.4328 145.565 16.8928 144.524 17.546 143.606L18.2374 144.06C17.6471 144.878 17.2246 145.804 16.9941 146.786C16.6783 148.892 17.8352 151.085 20.2311 153.03L19.7422 153.675Z" fill="#081E7A"/>
<path d="M23.9386 148.119C22.3436 147.455 20.8579 146.554 19.5317 145.447C16.4889 143.029 15.0402 140.166 15.4538 137.407L16.3374 131.514L17.1537 131.636L16.2701 137.53C15.903 139.978 17.2415 142.574 20.05 144.773C21.3185 145.827 22.7419 146.68 24.2699 147.3L23.9386 148.119Z" fill="#081E7A"/>
<path d="M28.2563 142.975C25.3515 142.25 22.6353 140.912 20.2897 139.051C17.7693 137.046 16.4431 134.702 16.4494 132.266C16.4558 129.83 17.7592 127.538 20.1148 125.688L20.6262 126.34C18.4702 128.029 17.2871 130.13 17.2759 132.265C17.2646 134.4 18.4847 136.561 20.8043 138.402C23.062 140.19 25.6741 141.478 28.4673 142.18L28.2563 142.975Z" fill="#081E7A"/>
<path d="M34.732 36.6546L33.9158 36.5322L27.1851 81.4275L28.0013 81.5498L34.732 36.6546Z" fill="#081E7A"/>
<path d="M30.6455 140.569C27.9478 139.962 25.4122 138.782 23.2103 137.109C20.6389 135.055 19.4306 132.536 19.9022 130.17L20.8445 123.885L21.6608 124.007L20.7148 130.317C20.3036 132.392 21.4008 134.593 23.7224 136.477C25.833 138.071 28.259 139.197 30.8389 139.78L30.6455 140.569Z" fill="#081E7A"/>
<path d="M46.5853 46.6603C43.0975 46.212 39.7832 44.876 36.9596 42.7801C34.8037 41.0714 33.5991 39.0296 33.5569 37.0286C33.5558 36.1721 33.7489 35.3265 34.1219 34.5555C34.4948 33.7845 35.0378 33.1081 35.7099 32.5773L50.4265 18.8673C50.4719 18.8254 50.5262 18.7942 50.5852 18.776C50.6443 18.7578 50.7067 18.7532 50.7678 18.7623C50.8289 18.7715 50.8872 18.7942 50.9383 18.8289C50.9895 18.8636 51.0321 18.9094 51.0632 18.9628L60.9402 36.1428C61.1579 36.4621 61.3503 36.7979 61.5157 37.1472C61.8495 37.825 62.0377 38.5652 62.0683 39.3201C62.0988 40.075 61.9711 40.8279 61.6932 41.5305C60.984 43.3104 59.3141 44.7627 56.891 45.7265C53.5909 46.908 50.0441 47.2294 46.5853 46.6603ZM50.6091 19.8211L36.2764 33.1964C35.6944 33.6485 35.2225 34.2268 34.8965 34.8878C34.5704 35.5488 34.3986 36.2751 34.394 37.0122C34.4321 38.7622 35.5285 40.5792 37.4893 42.1418C42.306 45.977 50.9095 47.2669 56.6147 45.009C58.841 44.1326 60.3453 42.8391 60.9724 41.2722C61.2026 40.6727 61.3051 40.0317 61.2734 39.3903C61.2417 38.7488 61.0764 38.1211 60.7881 37.5472L60.7954 37.4982C60.6399 37.1816 60.4626 36.8761 60.2648 36.5841L50.6091 19.8211Z" fill="#081E7A"/>
<path d="M67.5089 36.419C63.4376 33.1795 62.0014 29.175 63.641 25.6984L64.4218 26.0575C62.9528 29.1758 64.3134 32.7934 68.055 35.7831L67.5089 36.419Z" fill="#081E7A"/>
<path d="M80.4169 41.6263C79.6006 41.5039 78.6946 41.3681 77.8452 41.1323L78.0329 40.3258C83.6795 41.6314 89.484 41.3832 93.9096 39.643C98.3353 37.9027 100.725 34.8224 100.227 31.4092L101.079 31.2948C101.635 35.1007 99.0794 38.5067 94.2452 40.411C89.8164 41.9959 85.0543 42.4144 80.4169 41.6263Z" fill="#081E7A"/>
<path d="M60.8334 32.2881L60.0959 31.9188C61.1766 29.7812 62.3661 27.7003 63.6597 25.6843L64.3523 26.1304C63.0736 28.1207 61.8991 30.1761 60.8334 32.2881Z" fill="#081E7A"/>
<path d="M101.994 66.7698L101.178 66.6474L102.19 59.8968C103.563 50.4243 102.955 40.7701 100.406 31.5443L101.206 31.3304C103.786 40.6795 104.397 50.4625 103 60.06L101.994 66.7698Z" fill="#081E7A"/>
<path d="M64.3598 26.1396L63.659 25.6924C64.0495 25.0916 64.447 24.5002 64.8526 23.91C66.1487 22.001 79.394 7.52797 85.3528 8.42131C91.3116 9.31466 99.7385 27.0368 100.416 29.1999C100.727 29.8673 100.938 30.5767 101.043 31.3054L100.191 31.4197C100.106 30.7541 99.9219 30.105 99.6457 29.4934C98.8324 26.901 90.4709 10.0232 85.2304 9.23759C79.9899 8.45193 67.0466 22.1356 65.5396 24.3384C65.1351 24.9205 64.747 25.505 64.3598 26.1396Z" fill="#081E7A"/>
<path d="M85.7869 202.545C82.098 202.066 78.5926 200.652 75.6024 198.439C72.9494 196.372 71.6934 193.839 72.0544 191.431C72.3145 190.265 72.8147 189.166 73.523 188.204L74.205 188.665C73.5717 189.529 73.118 190.511 72.8707 191.553C72.5549 193.659 73.7118 195.852 76.1089 197.789C81.219 201.894 90.3124 203.257 96.426 200.835C99.2902 199.712 101.035 197.929 101.351 195.823C101.42 194.753 101.272 193.68 100.914 192.669L101.709 192.43C102.104 193.557 102.26 194.754 102.167 195.945C101.8 198.394 99.8355 200.361 96.7195 201.605C93.2145 202.843 89.4518 203.166 85.7869 202.545Z" fill="#081E7A"/>
<path d="M86.9449 194.989C84.0656 194.556 81.2769 193.653 78.6906 192.316C73.5344 189.632 70.7858 185.864 71.3304 182.232L72.291 175.824L73.1073 175.947L72.1466 182.354C71.6571 185.619 74.2446 189.07 79.1089 191.586C84.153 194.205 89.9256 195.071 95.5161 194.046C100.863 193.061 104.39 190.527 104.879 187.262L105.84 180.854L106.656 180.976L105.696 187.384C105.151 191.016 101.394 193.808 95.71 194.868C92.8151 195.392 89.8532 195.433 86.9449 194.989Z" fill="#081E7A"/>
<path d="M87.8854 188.546C83.6349 187.993 79.5959 186.365 76.1503 183.815C72.9218 181.244 72.2947 178.58 72.3292 176.791C72.3966 175.556 72.7476 174.353 73.3548 173.276C73.9621 172.199 74.8094 171.277 75.831 170.58L76.3155 171.245C75.3917 171.872 74.6251 172.703 74.0755 173.675C73.526 174.646 73.2082 175.732 73.1472 176.846C73.1033 179.143 74.3172 181.345 76.6576 183.215C82.5853 187.935 93.1398 189.517 100.191 186.743C103.26 185.534 105.182 183.736 105.753 181.543C106.264 179.583 105.622 177.35 103.937 175.336L104.576 174.806C106.425 177.061 107.131 179.529 106.544 181.778C105.908 184.237 103.815 186.227 100.488 187.547C96.4399 188.945 92.1027 189.289 87.8854 188.546Z" fill="#081E7A"/>
<path d="M90.5682 81.7484L89.752 81.626L87.7939 94.6864L88.6102 94.8088L90.5682 81.7484Z" fill="#081E7A"/>
<path d="M88.7834 186.401C87.0568 186.141 85.3669 185.677 83.749 185.02C78.0602 182.715 75.1083 179.302 75.6541 175.661L76.78 168.151L77.5963 168.274L76.4704 175.783C75.9809 179.048 78.7532 182.101 84.0636 184.258C88.0238 185.889 92.3975 186.229 96.5623 185.23C100.668 184.177 103.084 182.26 103.376 179.809L117.595 84.9655L118.411 85.0879L104.195 179.915C103.866 182.72 101.228 184.895 96.7681 186.029C94.1576 186.682 91.4433 186.808 88.7834 186.401Z" fill="#081E7A"/>
<path d="M102.431 91.5814C100.372 91.2728 98.3687 90.6688 96.4822 89.7881C92.4199 87.9355 89.853 85.2388 89.4728 82.4859C89.3577 81.5289 89.491 80.5585 89.8599 79.668C90.2287 78.7775 90.8207 77.997 91.5788 77.4016L106.28 63.6811C106.327 63.6391 106.381 63.608 106.441 63.5899C106.501 63.5718 106.564 63.5672 106.626 63.5764C106.687 63.5857 106.746 63.6086 106.798 63.6434C106.85 63.6782 106.893 63.7241 106.925 63.7777L116.794 80.9566C117.012 81.2803 117.206 81.6191 117.376 81.9703C117.842 82.6856 118.115 83.5091 118.169 84.3609C118.222 85.2127 118.055 86.0639 117.683 86.832C116.477 89.3054 113.067 91.0643 108.404 91.6589C106.419 91.9062 104.409 91.8801 102.431 91.5814ZM106.47 64.6443L92.1327 77.9938C91.4728 78.4966 90.9554 79.1627 90.6316 79.9265C90.3078 80.6903 90.1887 81.5253 90.2862 82.3491C90.639 84.8391 93.0198 87.2743 96.7956 89.0339C100.375 90.7022 104.354 91.3218 108.271 90.821C112.662 90.2607 115.806 88.6622 116.915 86.4415C117.226 85.8015 117.366 85.0922 117.322 84.3821C117.277 83.6721 117.05 82.9856 116.663 82.3891L116.625 82.3083C116.469 81.9915 116.292 81.686 116.094 81.3941L106.47 64.6443Z" fill="#081E7A"/>
<path d="M53.5993 161.321C49.5531 160.785 45.6786 159.349 42.261 157.117L42.7303 156.437C49.1257 160.876 59.6026 162.196 66.5741 159.452L66.8758 160.224C62.6146 161.707 58.0464 162.085 53.5993 161.321Z" fill="#081E7A"/>
<path d="M41.7177 123.668L40.9015 123.546L50.6585 58.4638C51.2716 54.4208 53.1974 50.6916 56.139 47.8511L73.1634 31.4407C73.2096 31.3988 73.2646 31.3676 73.3243 31.3495C73.384 31.3314 73.447 31.3269 73.5087 31.3361C73.5705 31.3454 73.6294 31.3682 73.6812 31.403C73.733 31.4379 73.7764 31.4838 73.8082 31.5374L85.2719 52.2187C87.2452 55.7986 87.9896 59.9271 87.391 63.9708L85.3437 77.6271L84.5274 77.5047L86.5747 63.8484C87.1478 59.9838 86.4343 56.038 84.5442 52.6187L73.3447 32.4027L56.75 48.4518C53.9403 51.1665 52.1011 54.7296 51.5156 58.5923L41.7177 123.668Z" fill="#081E7A"/>
<path d="M94.1828 178.223L93.9081 177.439C93.9081 177.439 97.615 176.151 99.0467 175.564C100.685 174.883 101.673 172.911 101.748 170.127C102.25 151.356 97.0273 134.031 91.9709 117.265C87.8717 103.688 84.0045 90.848 83.8693 78.8342L78.9632 80.661L78.6779 79.8921L84.1328 77.8555C84.1954 77.8341 84.2621 77.8281 84.3274 77.8379C84.3928 77.8477 84.4548 77.873 84.5083 77.9118C84.5633 77.9494 84.6086 77.9994 84.6404 78.0579C84.6723 78.1163 84.6898 78.1815 84.6916 78.2481C84.7028 90.3101 88.6145 103.299 92.7675 117.017C97.833 133.834 103.079 151.23 102.573 170.134C102.49 173.251 101.319 175.496 99.3578 176.328C97.9004 176.92 94.3326 178.171 94.1828 178.223Z" fill="#081E7A"/>
<path d="M91.4979 178.596C90.2512 178.364 89.088 177.807 88.1262 176.98L66.555 159.808C66.498 159.764 66.4539 159.705 66.4273 159.638C66.4006 159.571 66.3925 159.498 66.4036 159.426L78.2827 80.1904C78.2977 80.0876 78.3511 79.9942 78.4321 79.9289C78.513 79.8637 78.6156 79.8314 78.7193 79.8386C78.8245 79.8468 78.9228 79.8942 78.9947 79.9715C79.0666 80.0487 79.1068 80.1502 79.1075 80.2557C79.1186 92.3177 83.0316 105.298 87.1834 119.024C92.2488 135.842 97.4947 153.238 96.9881 172.149C96.9042 175.158 95.7951 177.379 93.9377 178.244C93.1771 178.6 92.3281 178.722 91.4979 178.596ZM67.2602 159.279L88.6445 176.307C90.4265 177.726 92.184 178.139 93.5928 177.483C95.1539 176.757 96.0896 174.802 96.1665 172.118C96.665 153.372 91.4175 136.043 86.417 119.294C82.755 107.143 79.2711 95.5872 78.472 84.7174L67.2602 159.279Z" fill="#081E7A"/>
<path d="M18.0018 166.559L15.7585 164.821C15.7001 164.775 15.6546 164.715 15.6268 164.646C15.599 164.578 15.5898 164.503 15.6002 164.43L16.3491 159.434C16.7773 157.103 17.8 154.922 19.3182 153.102L44.6257 121.358C44.6941 121.273 44.7931 121.219 44.9012 121.207C45.0092 121.195 45.1176 121.227 45.2028 121.294L47.4473 123.024L46.9396 123.683L44.9935 122.189L19.9345 153.612C18.5153 155.324 17.5541 157.368 17.1409 159.553L16.4274 164.312L18.5013 165.9L18.0018 166.559Z" fill="#081E7A"/>
<path d="M18.1668 166.634C18.0959 166.62 18.0291 166.59 17.9713 166.546C17.9149 166.501 17.8713 166.443 17.8447 166.376C17.8182 166.309 17.8096 166.236 17.8198 166.165L18.57 161.161C18.9992 158.83 20.0218 156.649 21.5391 154.829L46.8699 123.097C46.9268 123.027 47.005 122.978 47.0926 122.956C47.1801 122.935 47.2722 122.943 47.3547 122.979C47.4373 123.015 47.5058 123.077 47.5498 123.156C47.5938 123.234 47.6109 123.325 47.5984 123.414L42.581 156.882C42.5747 156.954 42.5489 157.023 42.5063 157.081C42.4637 157.139 42.406 157.185 42.3394 157.213L18.3957 166.61C18.323 166.639 18.2439 166.647 18.1668 166.634ZM46.5545 124.81L22.175 155.375C20.7634 157.079 19.8043 159.111 19.3863 161.283L18.7426 165.577L41.8014 156.515L46.5545 124.81Z" fill="#081E7A"/>
<path d="M57.8728 96.6864C56.7167 96.4825 55.6264 96.0042 54.6934 95.2916C50.8571 92.4881 48.5095 86.4356 49.3658 81.7816C49.8137 79.4617 50.998 77.8532 52.706 77.1494C54.414 76.4457 56.4281 76.8728 58.3783 78.2836C62.2146 81.0872 64.603 87.1457 63.7059 91.7936C63.258 94.1135 62.0737 95.7221 60.3645 96.434C59.5711 96.7381 58.7111 96.8252 57.8728 96.6864ZM55.0928 77.7076C54.405 77.5971 53.7003 77.67 53.0497 77.9187C51.5809 78.4747 50.5892 79.9118 50.1759 81.9448C49.3298 86.3082 51.5738 91.9946 55.1859 94.6227C56.87 95.86 58.6009 96.228 60.0383 95.659C61.4757 95.0899 62.4743 93.6622 62.8701 91.6349C63.7162 87.2715 61.4735 81.577 57.8613 78.9489C57.051 78.3197 56.1016 77.894 55.0928 77.7076Z" fill="#081E7A"/>
<path d="M43.374 192.23C42.6176 192.119 41.8772 191.918 41.1684 191.632C38.9208 190.751 37.0749 189.076 35.9805 186.924C34.8862 184.772 34.6197 182.294 35.2315 179.958C34.5839 179.285 34.0884 178.481 33.7785 177.6C33.4686 176.719 33.3516 175.782 33.4355 174.852C33.5193 173.921 33.8019 173.02 34.2643 172.209C34.7267 171.397 35.358 170.694 36.1155 170.148C36.873 169.602 37.739 169.225 38.6549 169.042C39.5709 168.859 40.5153 168.876 41.4244 169.09C42.3335 169.304 43.186 169.711 43.9242 170.283C44.6625 170.855 45.2691 171.579 45.7033 172.406C46.5675 171.593 47.601 170.981 48.7295 170.614C49.8581 170.247 51.0539 170.134 52.2312 170.283C53.4085 170.433 54.5382 170.841 55.5393 171.478C56.5405 172.115 57.3883 172.966 58.0221 173.969C58.6558 174.972 59.0599 176.103 59.2052 177.281C59.3506 178.459 59.2336 179.654 58.8628 180.782C58.4919 181.909 57.8764 182.94 57.0602 183.802C56.2439 184.663 55.2473 185.334 54.1417 185.765C54.1257 185.871 54.069 185.971 54.0274 186.081C53.2045 188.157 51.7045 189.894 49.7707 191.01C47.8369 192.126 45.5828 192.556 43.374 192.23ZM40.7475 169.777C39.5482 169.59 38.3206 169.791 37.2437 170.351C36.1668 170.911 35.297 171.8 34.761 172.889C34.2251 173.978 34.051 175.21 34.2643 176.405C34.4775 177.6 35.067 178.695 35.9466 179.531C36 179.583 36.0382 179.649 36.0568 179.721C36.0755 179.793 36.0739 179.868 36.0523 179.94C35.3985 182.185 35.6367 184.597 36.7171 186.671C37.7975 188.746 39.6369 190.323 41.8518 191.075C44.0667 191.827 46.4862 191.695 48.6062 190.706C50.7261 189.718 52.3829 187.95 53.2311 185.77C53.247 185.664 53.3037 185.564 53.336 185.46L53.3592 185.305C53.3793 185.246 53.4127 185.192 53.457 185.148C53.5012 185.104 53.5551 185.071 53.6143 185.051C54.6403 184.684 55.57 184.089 56.3336 183.312C57.0972 182.534 57.6749 181.594 58.0235 180.562C58.3721 179.529 58.4825 178.431 58.3464 177.35C58.2104 176.269 57.8314 175.232 57.2379 174.318C56.6444 173.404 55.8517 172.636 54.9193 172.072C53.9869 171.508 52.9389 171.162 51.8539 171.061C50.7689 170.959 49.6749 171.104 48.654 171.486C47.6331 171.867 46.7117 172.474 45.9588 173.262C45.9151 173.306 45.8625 173.34 45.8045 173.361C45.7466 173.383 45.6846 173.392 45.6229 173.387L45.427 173.358C45.3518 173.351 45.2797 173.324 45.2187 173.28C45.1577 173.236 45.11 173.175 45.0809 173.106C44.4667 171.745 43.3446 170.678 41.9544 170.133C41.5663 169.971 41.1616 169.851 40.7475 169.777Z" fill="#081E7A"/>
<path d="M34.2668 133.116L18.8379 120.846C14.5355 117.422 12.0352 110.161 13.4881 105.313C18.1531 89.729 26.9218 83.5153 35.4007 77.5085C39.9581 74.2774 44.2539 71.2324 47.5945 66.8757L48.2541 67.3752C44.8343 71.8702 40.4475 74.9099 35.884 78.1819C27.4838 84.1087 18.8605 90.244 14.2546 105.545C12.9139 110.034 15.331 117.015 19.3268 120.202L34.7242 132.459L34.2668 133.116Z" fill="#081E7A"/>
<defs>
<linearGradient id="paint0_linear_3081_11835" x1="27.6426" y1="155.869" x2="60.5147" y2="212.999" gradientUnits="userSpaceOnUse">
<stop stop-color="#E64C4E"/>
<stop offset="1" stop-color="#EF33F9"/>
</linearGradient>
<linearGradient id="paint1_linear_3081_11835" x1="17.0789" y1="143.71" x2="24.8258" y2="152.348" gradientUnits="userSpaceOnUse">
<stop stop-color="#E64C4E"/>
<stop offset="1" stop-color="#EF33F9"/>
</linearGradient>
<linearGradient id="paint2_linear_3081_11835" x1="66.7041" y1="6.04199" x2="93.2584" y2="47.6733" gradientUnits="userSpaceOnUse">
<stop stop-color="#E64C4E"/>
<stop offset="1" stop-color="#EF33F9"/>
</linearGradient>
<linearGradient id="paint3_linear_3081_11835" x1="72.9424" y1="188.292" x2="77.9068" y2="209.585" gradientUnits="userSpaceOnUse">
<stop stop-color="#E64C4E"/>
<stop offset="1" stop-color="#EF33F9"/>
</linearGradient>
<linearGradient id="paint4_linear_3081_11835" x1="50.5505" y1="76.6045" x2="66.1583" y2="93.6076" gradientUnits="userSpaceOnUse">
<stop stop-color="#E64C4E"/>
<stop offset="1" stop-color="#EF33F9"/>
</linearGradient>
</defs>
</svg>
