<svg width="163" height="184" viewBox="0 0 163 184" fill="none" xmlns="http://www.w3.org/2000/svg">
<path opacity="0.08" d="M23.85 124.607L118.453 179.399C123.661 182.413 129.568 184 135.581 184C141.594 184 147.501 182.413 152.709 179.399L158.15 176.248C159.625 175.394 160.849 174.165 161.7 172.686C162.552 171.207 163 169.529 163 167.821C163 166.112 162.552 164.434 161.7 162.955C160.849 161.476 159.625 160.247 158.15 159.393L63.5255 104.601C58.3187 101.587 52.4128 100 46.401 100C40.3893 100 34.4833 101.587 29.2766 104.601L23.8356 107.752C22.3635 108.609 21.1419 109.839 20.2932 111.319C19.4445 112.799 18.9986 114.476 19 116.184C19.0014 117.891 19.4503 119.568 20.3015 121.046C21.1527 122.525 22.3764 123.753 23.85 124.607Z" fill="black"/>
<path d="M0 22.7368V17.3018L28.8131 0L57.8866 17.0981V22.7004L60.7809 24.2065V29.8962L57.8866 31.5769V34.0871L60.0573 35.4185V41.1082L54.768 44.1858L70.3322 53.1423C72.2786 54.2701 74.6737 53.8699 78.458 54.1609C82.2424 54.452 86.1063 62.9719 87.7778 68.6616C87.7778 68.6616 92.2133 79.3424 90.8675 83.0604C89.963 85.5632 83.5376 89.5067 83.5376 89.5067C83.5376 89.5067 86.5766 100.544 88.0527 103.498C89.8255 107.034 100.831 112.789 100.831 112.789C100.831 112.789 103.4 106.467 102.351 99.6928C100.137 85.505 101.099 66.8426 101.099 66.8426L101.265 65.0237C100.691 64.6513 100.233 64.1229 99.9449 63.4997C99.6568 62.8764 99.5501 62.1839 99.6373 61.5022L100.86 52.0219C97.6836 51.7818 92.6041 51.2142 90.0064 50.9159C89.678 51.2526 89.2787 51.5109 88.838 51.6721C88.3972 51.8332 87.9262 51.8931 87.4594 51.8472L79.9269 51.3816C78.4798 51.2943 77.4089 50.4357 77.4089 49.3953V49.0897C77.4089 47.9911 78.6389 47.0962 80.1585 47.0962H87.7271C88.4435 47.0835 89.1445 47.3057 89.7242 47.7291V47.6273C92.9225 47.3144 98.769 46.7033 101.576 46.3176L101.974 43.2909C101.999 43.1401 102.056 42.9965 102.143 42.8707C102.229 42.7449 102.342 42.6399 102.474 42.5633L109.073 38.6926C109.577 38.4016 110.148 38.2484 110.73 38.2484C111.311 38.2484 111.883 38.4016 112.387 38.6926L114 39.6166C116.048 37.0628 119.55 32.5446 121.236 30.3327C121.154 29.9167 121.154 29.4884 121.237 29.0725C121.321 28.6566 121.485 28.2615 121.721 27.9099L125.78 21.3617C126.627 20.0084 128.016 19.4263 128.942 20.0084L129.203 20.1685C130.078 20.736 130.245 22.1257 129.521 23.4062L125.86 30.1945C125.497 30.8996 124.908 31.461 124.188 31.7879H124.138C123.074 34.0288 119.21 41.7121 117.843 44.4259L119.232 47.7291C119.456 47.8965 119.681 48.0784 119.89 48.2676C120.802 48.4858 121.612 49.2862 122.133 50.654C122.675 52.2638 122.815 53.983 122.539 55.6598L123.733 58.5701C123.979 59.1626 124.002 59.8254 123.797 60.4337C123.592 61.0421 123.173 61.554 122.618 61.8733L123.081 63.1174C124.422 64.6323 125.552 66.3237 126.439 68.145L144.673 97.6847C150.527 106.932 150.064 110.839 148.378 112.083C148.269 112.156 147.22 112.811 147.22 112.811L155.179 123.87C155.6 124.467 155.892 125.146 156.038 125.862C156.184 126.579 156.179 127.319 156.026 128.034C155.872 128.749 155.572 129.424 155.145 130.016C154.717 130.608 154.172 131.104 153.544 131.473C153.544 131.473 151.742 132.434 150.549 132.929C150.549 132.929 159 149.357 159 156.895C159 162.97 156.959 167.307 153.631 169.482C150.013 171.854 133.906 178.351 128.306 175.114C117.329 168.74 108.429 153.286 108.429 140.597C108.429 138.182 109.601 133.969 110.202 132.128L103.045 137.796C103.045 137.796 99.7893 142.831 92.1916 138.269L55.8099 117.235L48.1616 121.782C44.5437 123.805 39.6089 123.506 34.1386 120.327C25.4194 115.234 18.01 104.473 15.3255 93.8867L14.9926 92.4316C14.9926 92.4316 4.21124 81.9108 10.34 72.4013C11.5725 70.4277 13.3969 68.899 15.5498 68.0359L15.7886 66.4061L19.5801 57.6751L10.3689 52.342C10.3689 52.342 5.78867 45.9029 5.78867 43.371L6.18663 43.5092L6.13597 43.4364L2.17075 41.1446V35.3821L0 34.1234V28.4992L2.17075 27.146V23.9955L0 22.7368Z" fill="white"/>
<path d="M124.089 32C124.827 31.6651 125.428 31.0943 125.792 30.3811L129.538 23.615C130.279 22.3373 130.101 20.9362 129.205 20.3917L128.946 20.2247C127.991 19.644 126.547 20.2247 125.71 21.5533L121.557 28.087C121.073 28.7971 120.894 29.6661 121.061 30.5045L124.089 32Z" fill="url(#paint0_linear_2912_18509)"/>
<path fill-rule="evenodd" clip-rule="evenodd" d="M110.025 133.757C110.025 133.757 111.444 129.325 120.906 129.011C123.635 128.921 126.353 129.403 128.896 130.428C131.439 131.452 133.753 132.998 135.699 134.971C142.904 142.643 148 153.986 148 163.749C148 176.503 138.5 180.5 128.501 175.245C117.733 168.839 109.003 153.305 109.003 140.551C108.965 138.243 109.311 135.945 110.025 133.757Z" fill="url(#paint1_linear_2912_18509)"/>
<path fill-rule="evenodd" clip-rule="evenodd" d="M117 145.261C117 152.663 122.148 161.676 128.5 165.396C134.852 169.116 140 166.149 140 158.725C140 151.3 134.852 142.309 128.5 138.596C122.148 134.884 117 137.866 117 145.261Z" fill="white"/>
<path fill-rule="evenodd" clip-rule="evenodd" d="M56 116.959C55.4236 118.295 52.1168 118.999 51.2379 119.943C47.6357 123.754 41.7352 124.161 35.0423 120.262C26.361 115.216 18.9836 104.45 16.3108 93.8865C16.3108 93.8865 13.3282 86.0094 25.8423 85.0147C33.3781 84.4122 50.6111 102.482 50.6111 102.482L56 116.959Z" fill="url(#paint2_linear_2912_18509)"/>
<path fill-rule="evenodd" clip-rule="evenodd" d="M24.2846 88.3444C24.2846 88.3444 29.2587 85.5228 34.453 88.055C42.6674 92.0632 45.7087 100.948 45.7087 100.948C45.8987 101.973 45.9962 103.015 46 104.059C46 111.171 41.0757 114.036 35.0002 110.462C28.9247 106.888 24.0003 98.2346 24.0003 91.1226C23.9935 90.1887 24.0888 89.2569 24.2846 88.3444Z" fill="white"/>
<path d="M38.4426 55.029L53.7859 63.9479C55.7227 65.0719 59.0276 64.8326 62.498 65.8477C65.9684 66.8629 69.4604 73.7442 71.138 79.4146L73.2981 86.5788C74.8317 91.7416 73.7948 96.0705 70.7492 97.2815L66.4292 99C64.082 89.1747 57.2851 79.4799 49.6027 75.0204L11.5792 52.9697C11.5792 52.9697 7 46.5234 7 44L32.0202 58.2558L38.4426 55.029Z" fill="url(#paint3_linear_2912_18509)"/>
<path d="M123.105 62L148.952 104.612C149.465 105.456 149.799 106.398 149.933 107.38C150.067 108.361 149.999 109.36 149.733 110.313C149.466 111.267 149.007 112.154 148.384 112.918C147.762 113.683 146.989 114.308 146.115 114.756L131.954 122V116.968L125.09 97.3603L113 67.8642C114.4 66.1042 123.105 62 123.105 62Z" fill="white"/>
<path d="M103.033 137C102.543 134.718 107.416 122.64 119.703 120.721C123.89 120.067 128.618 122.015 128.618 122.015L129.896 121.855C129.896 121.855 146.5 112.407 147.078 112L155.019 123.047C155.447 123.647 155.744 124.331 155.892 125.055C156.04 125.778 156.036 126.525 155.878 127.247C155.721 127.968 155.415 128.649 154.98 129.244C154.544 129.838 153.989 130.334 153.351 130.699L153.272 130.743C149.879 132.719 140.277 136.44 133.174 132.153C115.349 121.31 103.033 137 103.033 137Z" fill="#FFECFA"/>
<path d="M58.9856 118.526C58.6147 118.77 58.1927 118.926 57.7524 118.979C57.3122 119.033 56.8656 118.983 56.4475 118.834C56.0293 118.686 55.651 118.442 55.3419 118.122C55.0327 117.802 54.8012 117.414 54.6653 116.989C52.03 109.125 44.2031 95.0857 31.5448 89.3598C21.097 84.6341 15.5023 92.259 15.5023 92.259C15.5023 92.259 4.78086 81.7711 10.8724 72.3053C15.1279 65.6878 23.6892 66.2169 30.1551 68.7537C38.45 72.0153 43.7711 78.698 48.401 86.1489C54.4427 95.6718 58.0652 106.544 58.9496 117.808C58.9496 118.062 58.9496 118.316 59 118.533L58.9856 118.526Z" fill="#FFECFA"/>
<path d="M110.684 59.9854C111.401 61.7606 112.469 62.7637 113.695 62.9729C114.92 63.1822 118.411 62.1575 119.63 60.6204C120.81 59.1734 121.585 57.4348 121.874 55.5849C122.162 53.7349 121.954 51.8409 121.271 50.0992C120.554 48.2013 117.429 46.1014 116.096 46.0076C114.913 45.921 113.63 46.5776 112.512 47.9992C110.096 51.0301 109.286 56.3917 110.684 59.9854Z" fill="#FFECFA"/>
<path d="M117.33 62.4361C115.215 62.1229 113.95 58.7989 114.503 55.0118C115.057 51.2247 117.22 48.4086 119.335 48.7219C121.45 49.0351 122.715 52.3591 122.162 56.1462C121.608 59.9333 119.445 62.7494 117.33 62.4361Z" fill="url(#paint4_linear_2912_18509)"/>
<path d="M102.559 44.3058L106.384 46.5444C106.896 46.8429 107.477 47 108.068 47C108.659 47 109.24 46.8429 109.753 46.5444L116.461 42.5746C116.625 42.4801 116.761 42.3433 116.856 42.1782C116.95 42.013 117 41.8254 117 41.6344C117 41.4434 116.95 41.2558 116.856 41.0906C116.761 40.9255 116.625 40.7887 116.461 40.6942L112.636 38.4556C112.124 38.1571 111.543 38 110.952 38C110.361 38 109.78 38.1571 109.267 38.4556L102.559 42.403C102.39 42.4958 102.249 42.6332 102.15 42.8007C102.052 42.9682 102 43.1595 102 43.3544C102 43.5493 102.052 43.7406 102.15 43.9081C102.249 44.0756 102.39 44.213 102.559 44.3058Z" fill="white"/>
<path d="M91 49.1141V49.8856C91 51.1277 89.6206 52.0998 88.0244 51.9918L80.5061 51.498C79.0617 51.4054 78 50.4951 78 49.3918V49.1141C78 47.9491 79.2206 47.0002 80.7372 47.0002H88.2556C89.7722 46.9848 91 47.9337 91 49.1141Z" fill="url(#paint5_linear_2912_18509)"/>
<path d="M0 17.0036L29.0036 34L58 17.0036L29.0036 0L0 17.0036Z" fill="white"/>
<path d="M1 22.7596L1.17919 17L29.6705 33.8939L29.8497 39.9368L32 41.1933V46.8076L29.8497 45.5511V51.1291L32 52.3856V58L3.32948 41.2223L2.89942 35.3465L1 34.1263L1.19352 28.1924L3.24346 27.023L3.15029 24.3284L1 22.7596Z" fill="url(#paint6_linear_2912_18509)"/>
<path d="M58 17V22.8395L29 40V34.2127L58 17Z" fill="#FFECFA"/>
<path d="M61 24V29.8594L32 47V41.2444L61 24Z" fill="#FFECFA"/>
<path d="M58 29L57.8731 33.996L30 51V45.248L58 29Z" fill="#FFECFA"/>
<path d="M60 36V40.8706L32.091 58L32 52.4552L60 36Z" fill="#FFECFA"/>
<path d="M101 112.745L92.5734 107.912C89.2855 106.022 86.375 101.933 85.3734 97.8142L83.3629 89C80.2202 90.8321 74.7258 94.4025 70.429 96.5736C68.7021 97.4347 66.8802 98.0931 65 98.5355L67.2863 107.948C68.2952 112.096 71.1984 116.185 74.4863 118.046L85.6637 124.466C89.8008 126.839 93.6113 126.435 95.5855 123.42L97.7629 120.124C99.2208 117.846 100.313 115.357 101 112.745Z" fill="#FFECFA"/>
<path d="M90.8386 79.8705C86.808 58.5612 80.4483 55.3381 80.4483 55.3381L71.3847 54.0288L55.5648 45C52.4354 46.8273 38 54.9568 38 54.9568L42.7013 57.7698L53.1853 63.8058C55.8388 65.1727 58.8961 64.7194 62.4725 65.9065C67.1377 67.4604 71.4496 82.0935 71.4496 82.0935C73.3964 86.8633 73.6127 90.0576 72.5167 95L89.1009 85.705C90.5286 83.5612 91.3722 82.6691 90.8386 79.8705Z" fill="white"/>
<path d="M118.385 44C119.745 41.9695 124.638 31.9347 124.824 31.5134C125.019 31.1285 125.053 30.6861 124.92 30.2774C124.787 29.8687 124.497 29.525 124.108 29.3172C123.762 29.0774 123.337 28.9676 122.913 29.0083C122.49 29.049 122.095 29.2373 121.805 29.5382C120.174 31.6101 116.082 36.6862 114 39.138L114.558 39.573C116.647 37.1213 120.739 32.0175 122.37 29.9595C122.553 29.7965 122.789 29.701 123.038 29.6897C123.286 29.6783 123.531 29.7518 123.729 29.8973C123.97 30.0133 124.154 30.2155 124.242 30.4606C124.33 30.7058 124.316 30.9745 124.201 31.2095C124.151 31.3131 119.122 41.6242 117.763 43.6409L118.385 44Z" fill="#081E7A"/>
<path d="M124.324 32C125.076 31.6586 125.693 31.0739 126.077 30.3388L129.543 23.9424C130.289 22.5638 130.104 21.0405 129.118 20.4202L128.871 20.2685C128.592 20.1051 128.278 20.0134 127.955 20.0014C127.633 19.9893 127.312 20.0574 127.022 20.1996C126.35 20.4988 125.785 20.9995 125.406 21.6333L121.57 27.8368C121.073 28.5913 120.891 29.5124 121.063 30.4009L121.748 30.2355C121.604 29.5204 121.746 28.7768 122.146 28.1676L125.981 21.9641C126.286 21.4513 126.741 21.0448 127.282 20.7993C127.47 20.6997 127.679 20.6476 127.892 20.6476C128.104 20.6476 128.314 20.6997 128.501 20.7993L128.748 20.9509C129.433 21.3714 129.495 22.5156 128.933 23.5564L125.467 29.9804C125.165 30.5871 124.668 31.0729 124.056 31.359L124.324 32Z" fill="#081E7A"/>
<path d="M142.376 176C142.449 175.949 149.877 171.395 153.468 169.059C157.06 166.724 159 162.17 159 156.208C159 148.839 156.06 140.39 150.942 133L150.348 133.413C155.315 140.557 158.276 149.072 158.276 156.186C158.276 161.894 156.43 166.245 153.07 168.428C149.45 170.764 142.072 175.311 142 175.355L142.376 176Z" fill="#081E7A"/>
<path d="M136.809 177.999C138.663 178.024 140.491 177.542 142.104 176.601C145.906 174.343 148 169.613 148 163.294C148 153.627 143.098 142.159 135.516 134.089L135.001 134.596C142.462 142.541 147.285 153.804 147.285 163.286C147.285 169.333 145.32 173.835 141.747 175.954C138.174 178.073 133.336 177.587 128.169 174.527C117.45 168.156 108.717 152.642 108.717 139.952C108.685 137.673 109.025 135.405 109.725 133.243L109.053 133C108.321 135.239 107.966 137.59 108.003 139.952C108.003 152.877 116.885 168.679 127.812 175.167C130.519 176.903 133.621 177.88 136.809 177.999Z" fill="#081E7A"/>
<path d="M133.494 166.999C134.571 167.021 135.634 166.749 136.574 166.212C138.784 164.911 140 162.199 140 158.582C140 151.231 134.919 142.293 128.68 138.617C125.578 136.787 122.649 136.5 120.426 137.809C118.202 139.117 117 141.822 117 145.439C117 152.79 122.081 161.728 128.32 165.411C129.88 166.391 131.664 166.938 133.494 166.999ZM123.506 137.706C125.212 137.773 126.872 138.295 128.32 139.22C134.365 142.785 139.28 151.459 139.28 158.553C139.28 161.897 138.194 164.382 136.215 165.551C134.236 166.719 131.551 166.44 128.709 164.742C122.664 161.177 117.748 152.51 117.748 145.409C117.748 142.065 118.835 139.58 120.814 138.419C121.634 137.943 122.563 137.697 123.506 137.706Z" fill="#081E7A"/>
<path fill-rule="evenodd" clip-rule="evenodd" d="M124 149.038C124.08 150.517 124.483 151.954 125.178 153.235C125.873 154.516 126.84 155.603 128 156.409C130.21 157.781 132 156.682 132 153.962C131.919 152.484 131.515 151.047 130.82 149.766C130.125 148.486 129.159 147.398 128 146.591C125.79 145.219 124 146.318 124 149.038Z" fill="#081E7A"/>
<path d="M49.3429 122C49.3429 122 51.7758 120.182 55 117.69L54.6506 117C51.4264 119.484 49 121.31 49 121.31L49.3429 122Z" fill="#081E7A"/>
<path d="M43.3377 123C44.5077 123.007 45.6713 122.824 46.784 122.458C48.1908 121.964 49.4749 121.167 50.5479 120.123C51.621 119.079 52.4575 117.813 53 116.411L52.3516 116.133C51.8481 117.441 51.0701 118.623 50.0713 119.598C49.0724 120.574 47.8764 121.318 46.5655 121.782C43.2179 122.9 39.1655 122.159 34.8594 119.645C26.663 114.865 19.3547 104.55 16.7048 94L16 94.171C18.7063 104.913 26.1345 115.406 34.4859 120.279C37.1497 121.954 40.2022 122.892 43.3377 123Z" fill="#081E7A"/>
<path d="M39.5047 111.999C40.5819 112.014 41.6435 111.741 42.5799 111.207C44.7857 109.932 46 107.273 46 103.728C45.9956 102.667 45.8946 101.608 45.6982 100.565L44.9797 100.695C45.1643 101.696 45.2605 102.711 45.2671 103.728C45.2671 107.006 44.1822 109.442 42.2063 110.587C40.2304 111.733 37.5432 111.452 34.6835 109.795C28.6481 106.3 23.7407 97.8058 23.7407 90.8459C23.7338 89.9448 23.8278 89.0458 24.0209 88.1657L23.3024 88C23.0923 88.9459 22.9911 89.9129 23.0006 90.8819C23.0006 98.0868 28.0661 106.848 34.3027 110.458C35.8718 111.42 37.6658 111.952 39.5047 111.999Z" fill="#081E7A"/>
<path fill-rule="evenodd" clip-rule="evenodd" d="M30 95.0388C30.0902 96.5177 30.5445 97.9557 31.3262 99.2367C32.1079 100.518 33.1951 101.606 34.5 102.413C36.9862 103.777 39 102.685 39 99.9644C38.9092 98.4856 38.4547 97.0479 37.673 95.767C36.8914 94.4862 35.8045 93.3982 34.5 92.5907C32.0138 91.2192 30 92.3179 30 95.0388Z" fill="#081E7A"/>
<path d="M103.564 138C103.678 137.844 115.752 122.355 132.921 133.127C139.814 137.465 149.177 134.115 153.158 131.701L153.23 131.656C153.901 131.254 154.484 130.709 154.94 130.057C155.396 129.405 155.715 128.661 155.878 127.872C156.04 127.083 156.041 126.268 155.881 125.479C155.721 124.69 155.404 123.945 154.95 123.291L147.1 112L146.522 112.431L154.372 123.715C154.766 124.284 155.042 124.933 155.181 125.619C155.319 126.306 155.318 127.015 155.177 127.702C155.035 128.388 154.757 129.035 154.361 129.603C153.964 130.17 153.457 130.644 152.873 130.995L152.802 131.039C149.705 132.904 140.164 136.789 133.292 132.481C115.574 121.338 103.128 137.361 103 137.525L103.564 138Z" fill="#081E7A"/>
<path d="M100.646 113L101 112.388L92.5128 107.466C89.3725 105.65 86.6212 101.719 85.6593 97.6955L83.7073 89L83 89.1567L84.9521 97.8593C85.9564 102.068 88.842 106.17 92.1379 108.086L100.646 113Z" fill="#081E7A"/>
<path d="M130.435 123C132.246 121.964 148.173 112.853 148.726 112.454C150.207 111.367 151.696 108.004 145.131 97.6243L127.026 68.2042C126.109 66.3134 124.932 64.5616 123.532 63L123 63.4929C124.363 65.0157 125.508 66.7235 126.401 68.5666L144.534 97.9867C151.192 108.525 149.1 111.258 148.302 111.845C147.835 112.186 134.986 119.543 130.082 122.348L130.435 123Z" fill="#081E7A"/>
<path d="M71.3666 96C74.2633 94.335 88.747 86.0025 89.1815 85.5319C91.1296 83.5122 91.5424 79.7767 90.2751 75.5417L88.1025 68.382C86.6541 63.4303 82.7001 53.983 78.4564 53.7007C77.3846 53.6283 76.4142 53.6066 75.5596 53.5849C73.3871 53.5342 71.8083 53.498 70.4903 52.7306L55.3621 44L55 44.6298L70.1427 53.346C71.5911 54.2002 73.2712 54.2364 75.5596 54.2943C76.4069 54.2943 77.3701 54.3377 78.4564 54.4101C82.0266 54.6418 85.7996 63.0104 87.458 68.5775L89.5943 75.7299C90.7675 79.6536 90.4127 83.2154 88.6746 85.018C88.1822 85.4306 77.8118 91.432 71.019 95.3629L71.3666 96Z" fill="#081E7A"/>
<path d="M66.0156 98.9352C66.0608 98.9459 66.1079 98.9459 66.1531 98.9352L70.4942 97.2351C73.7572 95.9528 74.8787 91.4722 73.2797 86.1631L71.1453 79.0458C69.38 73.1676 65.8347 66.3746 62.2099 65.3589C60.7401 64.9679 59.2431 64.6862 57.7314 64.516C56.0311 64.2927 54.5551 64.091 53.535 63.5075L38.1241 54.647L37.7623 55.2665L53.1732 64.127C54.3236 64.7898 55.8575 64.9915 57.6301 65.2292C59.1102 65.393 60.5759 65.6675 62.0146 66.0504C65.227 66.9797 68.6854 73.4126 70.4508 79.2836L72.6213 86.408C74.0683 91.3641 73.1639 95.463 70.2699 96.6012L66.3122 98.15C63.8378 88.4034 57.0513 78.9378 49.3386 74.5003L11.2166 52.6444C10.7463 51.9745 6.72352 46.2331 6.72352 44H6C6 46.5933 10.4786 52.8605 10.6739 53.127C10.7057 53.1677 10.745 53.2019 10.7897 53.2279L48.9768 75.127C56.6389 79.5357 63.3603 89.0157 65.7117 98.7191C65.7296 98.7979 65.7735 98.8684 65.8365 98.9194C65.8995 98.9703 65.9779 98.9987 66.059 99L66.0156 98.9352Z" fill="#081E7A"/>
<path d="M98.3492 139.998C99.3452 140.021 100.334 139.817 101.242 139.402C102.15 138.987 102.955 138.372 103.598 137.6C103.634 137.558 103.659 137.507 103.672 137.453C103.684 137.399 103.683 137.342 103.67 137.288C103.469 136.35 104.33 133.378 106.459 130.239C107.995 127.914 109.985 125.933 112.306 124.418C114.627 122.903 117.23 121.887 119.955 121.432C123.963 120.8 128.56 122.675 128.624 122.696C128.652 122.703 128.682 122.703 128.71 122.696C129.165 122.781 129.635 122.734 130.065 122.561C130.495 122.387 130.868 122.094 131.141 121.715C132.833 119.412 131.994 113.831 128.897 106.79L116.19 72.2292C115.449 70.7243 114.547 69.3061 113.501 68L112.942 68.4505C113.939 69.7185 114.798 71.0927 115.502 72.5489L128.208 107.102C131.743 115.132 131.729 119.702 130.546 121.316C130.356 121.589 130.093 121.802 129.789 121.931C129.484 122.059 129.15 122.098 128.825 122.042C128.301 121.832 123.863 120.117 119.826 120.749C117.01 121.219 114.319 122.269 111.919 123.833C109.519 125.398 107.461 127.445 105.871 129.847C103.82 132.877 102.802 135.914 102.938 137.273C100.665 139.853 96.872 139.962 92.7488 137.549L60.3585 118.598L60 119.223L92.3903 138.145C94.1823 139.281 96.2371 139.92 98.3492 139.998Z" fill="#081E7A"/>
<path d="M91.0877 126.998C92.11 127.023 93.1208 126.778 94.0207 126.29C94.9206 125.802 95.6785 125.087 96.2197 124.214L98.3943 120.891C102.367 114.761 103.838 105.767 102.54 95.5634C101.839 90.3423 101.471 85.0814 101.439 79.8131V70.2652C101.504 68.8804 101.576 67.8965 101.692 67.102L100.968 67C100.852 67.8236 100.772 68.8221 100.714 70.2506V79.8131C100.747 85.1129 101.115 90.4053 101.816 95.6581C103.099 105.687 101.663 114.506 97.7854 120.49L95.6108 123.821C93.7552 126.692 90.1381 127.049 86.1877 124.754L75.0248 118.274C71.8137 116.408 68.994 112.392 68.0082 108.274L65.7249 98.7338L65 98.9015L67.2833 108.442C68.3126 112.742 71.27 116.948 74.6479 118.901L85.8107 125.388C87.3994 126.379 89.2189 126.935 91.0877 126.998Z" fill="#081E7A"/>
<path d="M19.8661 57.6682L20.5254 57.958L16.7394 66.6859L16.0801 66.396L19.8661 57.6682Z" fill="#081E7A"/>
<path d="M57.0968 119C57.7138 119.001 58.3178 118.822 58.8363 118.485C58.889 118.451 58.9317 118.403 58.9603 118.346C58.989 118.29 59.0025 118.227 58.9996 118.164C58.9996 117.913 58.9996 117.663 58.9499 117.413C58.0744 106.242 54.4827 95.4603 48.4915 86.0171C44.3522 79.3833 38.9632 72.142 30.3295 68.7536C23.7336 66.1587 15.1567 65.7513 10.8895 72.3922C4.79058 81.8639 15.3981 92.4078 15.5046 92.5222C15.5415 92.5571 15.5851 92.584 15.6327 92.6012C15.6803 92.6184 15.731 92.6256 15.7815 92.6223C15.8316 92.6176 15.8802 92.6025 15.9243 92.5779C15.9683 92.5533 16.0067 92.5197 16.0371 92.4793C16.2572 92.1791 21.5183 85.2665 31.43 89.7486C44.0398 95.4673 51.5729 109.428 54.0296 116.784C54.1846 117.253 54.4445 117.68 54.7892 118.032C55.1338 118.384 55.5541 118.651 56.0176 118.814C56.3647 118.935 56.7294 118.998 57.0968 119ZM58.2683 117.985C57.9466 118.155 57.592 118.253 57.229 118.272C56.866 118.291 56.5033 118.23 56.1658 118.094C55.8284 117.958 55.5242 117.75 55.2743 117.485C55.0244 117.219 54.8347 116.902 54.7183 116.555C52.2191 109.092 44.5652 94.9026 31.7353 89.0981C22.5479 84.9377 16.9885 90.3205 15.746 91.7287C14.1627 90.0417 6.25319 80.9346 11.4859 72.7782C15.5259 66.5019 23.7336 66.9308 30.0739 69.4184C38.5088 72.7353 43.8126 79.8623 47.888 86.396C53.822 95.7373 57.3865 106.403 58.2683 117.456C58.2683 117.635 58.2683 117.813 58.2683 117.985Z" fill="#081E7A"/>
<path d="M108.603 70C109.442 69.9979 110.266 69.768 110.992 69.3331L122.514 62.4388C123.14 62.0593 123.613 61.4567 123.844 60.7428C124.075 60.0289 124.049 59.2523 123.77 58.557L122.016 54.1957L121.344 54.4804L123.106 58.8418C123.318 59.368 123.339 59.9565 123.163 60.4973C122.988 61.038 122.629 61.4938 122.153 61.7794L110.603 68.6811C109.958 69.0712 109.222 69.2679 108.477 69.2494C107.731 69.2309 107.005 68.9978 106.38 68.5762L101.197 65.0991C100.686 64.7487 100.28 64.257 100.025 63.6795C99.7698 63.1021 99.6755 62.462 99.7527 61.8318L100.951 52.0899L100.229 52L99.0309 61.7419C98.9381 62.5123 99.0554 63.2943 99.3693 63.999C99.6832 64.7037 100.181 65.3029 100.807 65.7286L106.011 69.1832C106.782 69.7069 107.682 69.9903 108.603 70Z" fill="#081E7A"/>
<path d="M117.008 41.6658L119.524 47.7031L118.861 47.9833L116.345 41.946L117.008 41.6658Z" fill="#081E7A"/>
<path d="M101.703 43.4412L102.417 43.5332L102.06 46.3348L101.347 46.2428L101.703 43.4412Z" fill="#081E7A"/>
<path d="M114.529 64C116.193 64 119.317 62.9306 120.505 61.451C121.747 59.9282 122.563 58.1029 122.867 56.162C123.171 54.221 122.953 52.2342 122.235 50.4051C121.421 48.3248 118.092 46.12 116.626 46.0102C115.159 45.9003 113.825 46.6841 112.637 48.171C110.107 51.328 109.249 56.9608 110.716 60.6965C111.449 62.557 112.644 63.7143 114.082 63.9561C114.229 63.9828 114.379 63.9975 114.529 64ZM116.399 46.7427H116.575C117.814 46.8232 120.849 48.8742 121.553 50.6688C122.223 52.377 122.426 54.2324 122.141 56.0447C121.857 57.8571 121.094 59.5611 119.933 60.9822C118.738 62.4471 115.321 63.414 114.199 63.2309C113.077 63.0478 112.036 62.0516 111.376 60.4401C109.99 56.9095 110.797 51.6503 113.18 48.6398C114.192 47.4092 115.313 46.7427 116.399 46.7427Z" fill="#081E7A"/>
<path d="M117.807 63C118.424 62.9473 119.021 62.7557 119.552 62.4397C120.083 62.1238 120.535 61.692 120.872 61.177C121.916 59.6757 122.599 57.9573 122.869 56.1537C123.14 54.3501 122.99 52.509 122.431 50.7718C121.856 49.1813 120.872 48.1911 119.631 48.026C118.39 47.861 117.171 48.4836 116.127 49.819C115.086 51.3161 114.404 53.029 114.133 54.827C113.861 56.625 114.007 58.4607 114.56 60.1943C115.173 61.7847 116.18 62.7599 117.398 62.94C117.532 62.9712 117.669 62.9913 117.807 63ZM119.23 48.7462C119.325 48.7388 119.421 48.7388 119.517 48.7462C120.456 48.8812 121.25 49.6915 121.788 50.9968C122.308 52.6123 122.448 54.3243 122.197 56.0018C121.947 57.6792 121.312 59.2776 120.342 60.6744C119.464 61.7847 118.473 62.3248 117.542 62.1748C116.611 62.0247 115.809 61.2295 115.272 59.9242C114.751 58.3071 114.611 56.5933 114.863 54.9143C115.115 53.2353 115.752 51.6359 116.725 50.2391C117.002 49.8193 117.371 49.467 117.805 49.2085C118.239 48.95 118.726 48.792 119.23 48.7462Z" fill="#081E7A"/>
<path d="M108.096 48C108.728 47.9995 109.349 47.8173 109.895 47.472L116.344 43.4013C116.545 43.2633 116.71 43.0724 116.825 42.8463C116.94 42.6202 117 42.3663 117 42.1082C117 41.8501 116.94 41.5962 116.825 41.3701C116.71 41.144 116.545 40.9531 116.344 40.8151L112.675 38.5196C112.13 38.1792 111.512 38 110.883 38C110.254 38 109.636 38.1792 109.091 38.5196L102.656 42.5903C102.455 42.7283 102.29 42.9192 102.175 43.1453C102.06 43.3714 102 43.6253 102 43.8834C102 44.1415 102.06 44.3954 102.175 44.6215C102.29 44.8476 102.455 45.0385 102.656 45.1765L106.325 47.472C106.862 47.8145 107.473 47.9967 108.096 48ZM110.918 38.818C111.414 38.819 111.9 38.9615 112.329 39.2312L115.998 41.5267C116.092 41.597 116.17 41.6912 116.223 41.8012C116.277 41.9111 116.305 42.0336 116.305 42.158C116.305 42.2823 116.277 42.4048 116.223 42.5147C116.17 42.6247 116.092 42.7189 115.998 42.7892L109.563 46.8523C109.125 47.1248 108.629 47.2681 108.124 47.2681C107.619 47.2681 107.123 47.1248 106.685 46.8523L103.016 44.5568C102.922 44.4865 102.844 44.3923 102.791 44.2823C102.737 44.1723 102.709 44.0498 102.709 43.9255C102.709 43.8011 102.737 43.6787 102.791 43.5687C102.844 43.4587 102.922 43.3645 103.016 43.2942L109.458 39.2312C109.89 38.9552 110.381 38.8074 110.883 38.8027L110.918 38.818Z" fill="#081E7A"/>
<path d="M103.57 52.9887C103.733 53.0038 103.897 53.0038 104.06 52.9887C104.823 52.8675 105.557 51.8449 105.845 50.4966C106.064 49.7383 106.051 48.927 105.808 48.1769C105.565 47.4268 105.105 46.7757 104.492 46.3153C104.098 46.0405 103.617 45.9398 103.153 46.035C101.339 46.3683 94.4562 47.1334 90.2736 47.55L90.3456 48.3075C94.5354 47.8681 101.447 47.1031 103.304 46.7925C103.584 46.7339 103.876 46.7908 104.117 46.9516C105.557 47.9742 105.284 49.8073 105.168 50.3451C104.938 51.451 104.369 52.1934 103.981 52.2615C103.016 52.413 96.1624 51.6783 90.0792 50.9359L90 51.6934C93.4556 52.0646 101.281 52.9887 103.57 52.9887Z" fill="#081E7A"/>
<path d="M87.8316 51.9934C88.7393 52.0138 89.6225 51.7271 90.3074 51.1899C90.5161 51.022 90.685 50.8178 90.8041 50.5896C90.9231 50.3614 90.9897 50.1139 91 49.8619V49.1514C91 47.9628 89.5779 47 87.8316 47H80.1611C78.4147 47 77 47.9628 77 49.1514V49.4303C77 50.5591 78.2453 51.4821 79.9032 51.575L87.5737 52L87.8316 51.9934ZM87.8316 47.6507C89.1726 47.6507 90.2632 48.3147 90.2632 49.1381V49.8154C90.257 49.9805 90.2126 50.1427 90.1326 50.2914C90.0526 50.44 89.939 50.572 89.7989 50.6786C89.4972 50.9126 89.1452 51.0882 88.7649 51.1945C88.3846 51.3007 87.9842 51.3353 87.5884 51.2962L79.9179 50.8712C78.6726 50.8048 77.7074 50.154 77.7074 49.3904V49.1514C77.7074 48.3347 78.7905 47.664 80.1316 47.664L87.8316 47.6507Z" fill="#081E7A"/>
<path d="M31.6463 57.9998C31.7088 58.0003 31.77 57.9827 31.8232 57.9492C31.8766 57.9177 31.9211 57.8724 31.9521 57.8179C31.9831 57.7634 31.9996 57.7015 32 57.6384V52.0511C31.9996 51.988 31.9831 51.9262 31.9521 51.8716C31.9211 51.8171 31.8766 51.7718 31.8232 51.7403L3.53052 35.0434C3.47577 35.0149 3.41517 35 3.35369 35C3.29222 35 3.23162 35.0149 3.17686 35.0434C3.12237 35.0756 3.07726 35.122 3.04618 35.1779C3.01509 35.2338 2.99916 35.2972 3.00003 35.3615V40.9488C3.00041 41.0119 3.01692 41.0737 3.04795 41.1283C3.07897 41.1828 3.12341 41.2281 3.17686 41.2596L31.4695 57.9492C31.5219 57.9843 31.5837 58.002 31.6463 57.9998ZM31.2927 52.2607V57.0096L3.70735 40.7392V35.9831L31.2927 52.2607Z" fill="#081E7A"/>
<path d="M31.3754 58L60.816 41.303C60.8721 41.2721 60.9188 41.2272 60.9511 41.1727C60.9835 41.1183 61.0004 41.0564 61 40.9934V35.3629C60.9994 35.2983 60.9814 35.235 60.9478 35.1794C60.9142 35.1237 60.8662 35.0778 60.8086 35.0461C60.7522 35.0159 60.689 35 60.6246 35C60.5603 35 60.497 35.0159 60.4406 35.0461L31 51.8079L31.3754 52.4271L60.264 35.9893V40.7846L31 57.3808L31.3754 58Z" fill="#081E7A"/>
<path d="M58.445 33.9856L60.6016 35.3081L60.2273 35.9266L58.0707 34.6041L58.445 33.9856Z" fill="#081E7A"/>
<path d="M29.6341 50.9866C29.6987 50.987 29.7621 50.9695 29.8171 50.936C29.8724 50.9044 29.9183 50.8591 29.9504 50.8046C29.9825 50.75 29.9996 50.6881 30 50.625V45.2376C29.9996 45.1745 29.9825 45.1126 29.9504 45.058C29.9183 45.0035 29.8724 44.9582 29.8171 44.9266L0.548817 28.0485C0.492823 28.0165 0.429264 27.9998 0.364605 28C0.299946 28.0002 0.2365 28.0174 0.180729 28.0497C0.12496 28.082 0.0788593 28.1284 0.0471191 28.1841C0.015379 28.2398 -0.000871658 28.3028 3.62396e-05 28.3666V33.9493C-0.000869751 34.0136 0.0156097 34.077 0.0477657 34.133C0.0799217 34.1889 0.126589 34.2353 0.182962 34.2675L29.4512 50.9866C29.5109 51.0045 29.5745 51.0045 29.6341 50.9866ZM29.2683 45.4184V49.9959L0.731743 33.7179V28.9958L29.2683 45.4184Z" fill="#081E7A"/>
<path d="M29.3637 52L58.8181 34.9468C58.8731 34.9149 58.9188 34.8692 58.9507 34.8142C58.9826 34.7592 58.9996 34.6968 59 34.6331V32H58.2726V34.4216L29 51.3654L29.3637 52Z" fill="#081E7A"/>
<path d="M2.56425 27.0631L2.96582 27.6641L0.906416 29.0587L0.504843 28.4578L2.56425 27.0631Z" fill="#081E7A"/>
<path d="M31.6463 46.9999C31.7056 47.0002 31.764 46.9853 31.8161 46.9566C31.8714 46.9248 31.9176 46.8786 31.9498 46.8228C31.9821 46.7669 31.9994 46.7033 32 46.6385V41.0506C31.9996 40.9875 31.9831 40.9256 31.9521 40.8711C31.9211 40.8166 31.8766 40.7713 31.8232 40.7398L3.53054 24.0484C3.47678 24.0167 3.41579 24 3.35371 24C3.29163 24 3.23065 24.0167 3.17688 24.0484C3.12244 24.0788 3.07717 24.1238 3.046 24.1786C3.01483 24.2334 2.99894 24.2959 3.00006 24.3593V29.7881C3.00037 29.8504 3.01611 29.9115 3.04579 29.9659C3.07548 30.0202 3.11814 30.066 3.16982 30.0989L31.4624 46.9493C31.5178 46.9838 31.5816 47.0013 31.6463 46.9999ZM31.2927 41.2602V46.0096L3.70737 29.5785V24.9882L31.2927 41.2602Z" fill="#081E7A"/>
<path d="M31.3521 47L60.8132 30.2829C60.8694 30.2513 60.9162 30.2053 60.949 30.1497C60.9819 30.0941 60.9994 30.0308 61 29.9662V24.3578C60.9996 24.295 60.9828 24.2334 60.9513 24.179C60.9198 24.1247 60.8747 24.0796 60.8204 24.0482C60.7657 24.0166 60.7038 24 60.6407 24C60.5777 24 60.5157 24.0166 60.4611 24.0482L31 40.8085L31.3521 41.4348L60.2814 24.977V29.779L31 46.3377L31.3521 47Z" fill="#081E7A"/>
<path d="M58.4209 22.5136L61.3125 24.1338L60.9626 24.7666L58.071 23.1464L58.4209 22.5136Z" fill="#081E7A"/>
<path d="M2.94778 24.1601L32.0781 41.084L31.7185 41.7113L2.58817 24.7873L2.94778 24.1601Z" fill="#081E7A"/>
<path d="M29.3459 34.9998C29.4092 35.0001 29.4717 34.985 29.528 34.9558L58.8153 17.9423C58.8714 17.9103 58.918 17.864 58.9505 17.8079C58.9829 17.7519 59 17.6883 59 17.6234C59 17.5586 58.9829 17.4949 58.9505 17.4389C58.918 17.3829 58.8714 17.3365 58.8153 17.3046L29.528 0.0491035C29.4727 0.0169352 29.4098 0 29.3459 0C29.2819 0 29.2191 0.0169352 29.1638 0.0491035L0.175156 17.0846C0.121456 17.1175 0.0771332 17.1639 0.0464935 17.2191C0.0158539 17.2743 -6.10352e-05 17.3366 0.000305176 17.3998C-0.00237656 17.4635 0.0125465 17.5267 0.0434151 17.5823C0.0742836 17.638 0.119892 17.6839 0.175156 17.715L29.1638 34.9485C29.2178 34.9841 29.2814 35.002 29.3459 34.9998ZM57.9047 17.5904L29.3459 34.1788L1.07854 17.3705L29.3459 0.789461L57.9047 17.5904Z" fill="#081E7A"/>
<path d="M29.6341 39.9998C29.6987 40.0003 29.7621 39.9826 29.8171 39.949C29.8724 39.9173 29.9183 39.8717 29.9504 39.8169C29.9825 39.7621 29.9996 39.6999 30 39.6365V33.7139H29.2683V38.9897L0.731743 22.6319V17H3.62396e-05V22.8499C-0.000869751 22.9145 0.0156097 22.9782 0.0477657 23.0344C0.0799217 23.0906 0.126589 23.1373 0.182962 23.1696L29.4512 39.949C29.5055 39.9842 29.5694 40.002 29.6341 39.9998Z" fill="#081E7A"/>
<path d="M29.3637 40L58.8181 23.0953C58.8731 23.0637 58.9188 23.0184 58.9507 22.9639C58.9826 22.9093 58.9996 22.8474 59 22.7843V17H58.2726V22.5457L29 39.342L29.3637 40Z" fill="#081E7A"/>
<path d="M14 25.1904L43.6056 8L45 8.81687L15.3944 26L14 25.1904Z" fill="#081E7A"/>
<path d="M15 50L14 49.1606V25L15 25.8394V50Z" fill="#081E7A"/>
<defs>
<linearGradient id="paint0_linear_2912_18509" x1="130" y1="20" x2="118.48" y2="28.64" gradientUnits="userSpaceOnUse">
<stop stop-color="#E64C4E"/>
<stop offset="1" stop-color="#EF33F9"/>
</linearGradient>
<linearGradient id="paint1_linear_2912_18509" x1="148" y1="129" x2="100.634" y2="167.092" gradientUnits="userSpaceOnUse">
<stop stop-color="#E64C4E"/>
<stop offset="1" stop-color="#EF33F9"/>
</linearGradient>
<linearGradient id="paint2_linear_2912_18509" x1="56" y1="85" x2="18.0499" y2="124.947" gradientUnits="userSpaceOnUse">
<stop stop-color="#E64C4E"/>
<stop offset="1" stop-color="#EF33F9"/>
</linearGradient>
<linearGradient id="paint3_linear_2912_18509" x1="74" y1="44" x2="20.054" y2="109.716" gradientUnits="userSpaceOnUse">
<stop stop-color="#E64C4E"/>
<stop offset="1" stop-color="#EF33F9"/>
</linearGradient>
<linearGradient id="paint4_linear_2912_18509" x1="123.164" y1="49.2891" x2="110.541" y2="54.0958" gradientUnits="userSpaceOnUse">
<stop stop-color="#E64C4E"/>
<stop offset="1" stop-color="#EF33F9"/>
</linearGradient>
<linearGradient id="paint5_linear_2912_18509" x1="91" y1="47" x2="87.6495" y2="55.7113" gradientUnits="userSpaceOnUse">
<stop stop-color="#E64C4E"/>
<stop offset="1" stop-color="#EF33F9"/>
</linearGradient>
<linearGradient id="paint6_linear_2912_18509" x1="32" y1="17" x2="-7.44815" y2="46.8266" gradientUnits="userSpaceOnUse">
<stop stop-color="#E64C4E"/>
<stop offset="1" stop-color="#EF33F9"/>
</linearGradient>
</defs>
</svg>
