<svg width="203" height="184" viewBox="0 0 203 184" fill="none" xmlns="http://www.w3.org/2000/svg">
<path opacity="0.08" d="M60.4409 109.807L86.9101 125.78L130.16 101.108L106.008 86.8948L129.322 73.458L203 143.932L131.732 184.52L92.6162 161.898L61.2327 179.238L0.561829 143.468L60.4409 109.807Z" fill="black"/>
<path d="M23.1198 43.5904L36.2785 35.9595C37.6562 31.3832 39.7812 26.4121 42.8403 24.3447C43.5981 23.8313 44.4583 23.4867 45.3623 23.3342C50.7183 22.18 56.1633 21.4806 61.6384 21.2435L98.3589 0L114.845 13.4964L131.367 18.9786L133.503 49.5024L154.52 37.3417L198.853 130.469L199.495 139.761L135.722 176.65L95.113 153.513L63.7517 171.702L15.4604 143.966L23.1198 43.5904Z" fill="white"/>
<path d="M114.487 28.9755C114.487 28.9755 57.435 38.305 52.7776 36.4968C48.1203 34.6886 38.6775 28.4652 42.7411 24.9819C46.8046 21.4986 96.7196 20.9883 96.7196 20.9883L114.487 28.9755Z" fill="url(#paint0_linear_2912_18424)"/>
<path d="M198.618 139.894L135.407 176.65L128.51 84.7954L191.64 48.0977L198.618 139.894Z" fill="white"/>
<path d="M14.5836 144.443L62.7832 172.277L55.174 62.7716L38.6834 48.5451L22.1929 43.7251L14.5836 144.443Z" fill="#FFECFA"/>
<path d="M93.4558 153.173L134.645 176.649L128.133 84.2686L114.05 72.2806L99.9673 68.2109L93.4558 153.173Z" fill="#FFECFA"/>
<path d="M163.785 31.4819L177.702 42.9824L191.607 47.6669L128.289 84.8267L114.372 72.7524L100.466 68.6535L163.785 31.4819Z" fill="url(#paint1_linear_2912_18424)"/>
<path d="M54.8444 37.5915C66.4446 37.5915 108.739 30.4576 114.005 29.537C114.127 29.52 114.24 29.4634 114.326 29.3759C114.412 29.2885 114.466 29.1752 114.481 29.0538C114.5 28.9326 114.478 28.8086 114.419 28.7006C114.361 28.5926 114.268 28.5066 114.156 28.4554L96.4889 20.1708C96.407 20.1396 96.3211 20.1202 96.2337 20.1133C91.1296 20.1708 46.1791 20.7576 42.0843 24.4052C41.6303 24.7691 41.2832 25.2472 41.0791 25.7897C40.8751 26.3321 40.8216 26.919 40.9243 27.4889C41.5971 31.4011 48.7196 35.8771 52.2112 37.3039C53.0672 37.5421 53.9567 37.6393 54.8444 37.5915ZM111.998 28.7431C95.0737 31.5852 56.19 37.7066 52.6868 36.2683C48.7196 34.6459 42.6295 30.354 42.0959 27.3163C42.0247 26.9409 42.0572 26.5534 42.1899 26.1949C42.3226 25.8364 42.5507 25.5201 42.8499 25.2797C45.7035 22.7483 76.2119 21.5056 96.1177 21.2869L111.998 28.7431Z" fill="#081E7A"/>
<path d="M35.7829 35.8212L36.3691 36.8252L23.1488 44.5126L22.5625 43.5086L35.7829 35.8212Z" fill="#081E7A"/>
<path d="M98.4685 0.416692L99.0508 1.41602L62.6785 22.518L62.0962 21.5187L98.4685 0.416692Z" fill="#081E7A"/>
<path d="M132.577 49.8467L133.769 49.765L131.623 19.4134C131.612 19.299 131.568 19.19 131.496 19.099C131.425 19.0081 131.328 18.939 131.218 18.8997L114.531 13.4248L97.7125 0L96.9616 0.910548L113.804 14.4404C113.86 14.4864 113.925 14.522 113.994 14.5454L130.455 19.9387L132.577 49.8467Z" fill="#081E7A"/>
<path d="M97.1748 0.411007L98.3369 0.484375L97.1348 19.4453L95.9727 19.3719L97.1748 0.411007Z" fill="#081E7A"/>
<path d="M113.611 13.9922H114.487V27.1097H113.611V13.9922Z" fill="#081E7A"/>
<path d="M63.0883 172.277C63.1675 172.279 63.2464 172.264 63.3195 172.234C63.3926 172.203 63.4582 172.157 63.5121 172.099C63.5659 172.041 63.6067 171.972 63.6317 171.897C63.6567 171.822 63.6654 171.743 63.6571 171.664L56.1228 63.1293C56.1103 62.9778 56.0396 62.8369 55.9254 62.7361L39.5217 48.6372C39.4562 48.5851 39.3813 48.5458 39.3011 48.5215L22.8974 43.7448C22.815 43.7233 22.729 43.7193 22.6449 43.7333C22.5609 43.7472 22.4808 43.7787 22.4099 43.8258C22.3374 43.873 22.2767 43.9361 22.2325 44.0103C22.1882 44.0845 22.1615 44.1677 22.1545 44.2537L14.5853 144.079C14.5787 144.188 14.6024 144.296 14.6536 144.392C14.7048 144.488 14.7816 144.568 14.8755 144.623L62.8561 172.208C62.9278 172.246 63.0069 172.27 63.0883 172.277ZM54.9619 63.4531L62.4381 170.658L15.7462 143.802L23.2341 45.0633L38.8368 49.5972L54.9619 63.4531Z" fill="#081E7A"/>
<path d="M63.0862 172.277C63.1652 172.279 63.2437 172.263 63.3159 172.232C63.3881 172.2 63.4523 172.153 63.5038 172.094C63.5933 172 63.6477 171.879 63.6583 171.751C63.6688 171.622 63.6348 171.494 63.5618 171.387L39.5963 137.541C39.5264 137.446 39.4296 137.374 39.3182 137.334C39.2067 137.293 39.0856 137.286 38.9699 137.313L15.0044 143.952C14.896 143.985 14.7993 144.048 14.7255 144.132C14.6516 144.217 14.6035 144.321 14.5868 144.431C14.5763 144.543 14.5979 144.656 14.6491 144.757C14.7004 144.858 14.7792 144.942 14.8768 145.001L62.8542 172.208C62.9259 172.247 63.0049 172.27 63.0862 172.277ZM38.8887 138.522L61.1142 169.938L16.6864 144.682L38.8887 138.522Z" fill="#081E7A"/>
<path d="M39.1217 48.9717H39.998V137.297H39.1217V48.9717Z" fill="#081E7A"/>
<path d="M130.368 18.9101L130.954 19.9141L56.0492 63.4701L55.4629 62.4661L130.368 18.9101Z" fill="#081E7A"/>
<path d="M94.3053 153.333L94.8916 154.337L63.6519 172.503L63.0656 171.499L94.3053 153.333Z" fill="#081E7A"/>
<path d="M99.5898 84.4693C99.0527 84.8917 98.4894 85.2799 97.9034 85.6315C96.8376 86.2489 95.6341 86.5901 94.4026 86.624C93.171 86.6578 91.9506 86.3833 90.8524 85.8254C89.7542 85.2674 88.8131 84.4438 88.1148 83.4296C87.4166 82.4153 86.9834 81.2426 86.8546 80.0183L84.6681 58.7855C84.6067 58.4624 84.4262 58.174 84.1622 57.9775C83.8983 57.781 83.5702 57.6906 83.2427 57.7242C82.9153 57.7578 82.6124 57.9129 82.3939 58.1589C82.1754 58.405 82.0573 58.724 82.0629 59.0528L84.2494 80.2275C84.4187 81.8882 85.0026 83.4799 85.9475 84.8566C86.8924 86.2333 88.1681 87.3509 89.6575 88.1069C91.1454 88.8679 92.8011 89.2422 94.4718 89.1955C96.1426 89.1488 97.7747 88.6825 99.2177 87.8396L99.5898 84.4693Z" fill="url(#paint2_linear_2912_18424)"/>
<path d="M93.8626 89.1994C95.7247 89.1967 97.5528 88.7062 99.1609 87.7777L98.5812 86.7801C97.2232 87.5528 95.6927 87.9803 94.1266 88.0244C92.5605 88.0684 91.0079 87.7276 89.6077 87.0324C88.2087 86.3323 87.0103 85.2953 86.1229 84.017C85.2355 82.7386 84.6876 81.26 84.5297 79.7173L82.3385 58.7694C82.322 58.5801 82.3805 58.3918 82.5016 58.2442C82.6227 58.0967 82.797 58.0013 82.9877 57.9783C83.0831 57.9672 83.1798 57.9751 83.272 58.0015C83.3642 58.028 83.4502 58.0724 83.5248 58.1323C83.5993 58.1921 83.661 58.2662 83.7062 58.35C83.7513 58.4338 83.779 58.5257 83.7877 58.6203L85.9789 79.5682C86.1222 80.8673 86.5914 82.1103 87.344 83.1844C88.0966 84.2585 89.1086 85.1296 90.2881 85.7185C91.4676 86.3075 92.7773 86.5956 94.098 86.5567C95.4188 86.5179 96.7088 86.1532 97.8508 85.496C98.4533 85.1488 99.034 84.7659 99.5898 84.3494L98.8942 83.4322C98.3722 83.8152 97.8305 84.1711 97.2711 84.4985C96.2923 85.0592 95.1873 85.3688 94.0566 85.3993C92.9259 85.4298 91.8054 85.1801 90.7972 84.673C89.789 84.1659 88.925 83.4175 88.2839 82.4959C87.6428 81.5743 87.245 80.5087 87.1267 79.3962L84.947 58.4484C84.8781 57.9694 84.6241 57.5356 84.2384 57.2381C83.8527 56.9405 83.3654 56.8025 82.8789 56.853C82.3924 56.9035 81.9447 57.1385 81.6298 57.5088C81.315 57.879 81.1576 58.3555 81.1907 58.8382L83.3819 79.7746C83.553 81.5099 84.1659 83.174 85.1634 84.6115C86.1609 86.0491 87.5104 87.2134 89.086 87.9955C90.5604 88.7626 92.1968 89.175 93.8626 89.1994Z" fill="#081E7A"/>
<path d="M108.354 63.6136L106.491 44.8636C106.449 44.5297 106.281 44.2253 106.021 44.014C105.762 43.8027 105.432 43.7009 105.1 43.73C104.936 43.747 104.777 43.7965 104.631 43.8758C104.486 43.9551 104.357 44.0626 104.253 44.1921C104.149 44.3216 104.071 44.4706 104.024 44.6305C103.977 44.7905 103.961 44.9583 103.978 45.1243L105.93 64.7132L108.354 63.6136Z" fill="url(#paint3_linear_2912_18424)"/>
<path d="M105.833 64.7132L106.905 64.5985L105.04 44.7807C105.025 44.5925 105.08 44.4056 105.192 44.2598C105.304 44.1141 105.465 44.0211 105.64 44.0008C105.818 43.9815 105.995 44.0383 106.134 44.1586C106.272 44.279 106.361 44.4531 106.38 44.643L108.158 63.6122L109.229 63.4975L107.44 44.5283C107.418 44.2851 107.351 44.049 107.243 43.8335C107.135 43.618 106.989 43.4273 106.812 43.2724C106.636 43.1174 106.432 43.0012 106.214 42.9304C105.995 42.8596 105.766 42.8356 105.539 42.8597C105.311 42.8838 105.091 42.9555 104.89 43.0709C104.688 43.1862 104.51 43.3429 104.365 43.5319C104.221 43.7209 104.112 43.9386 104.046 44.1726C103.98 44.4065 103.957 44.6521 103.98 44.8953L105.833 64.7132Z" fill="#081E7A"/>
<path d="M34.1446 47.2229C34.1446 47.0582 36.8084 29.4911 42.7267 25.4317C48.645 21.3723 95.2269 21.2899 96.084 21.2899V20.1133C94.173 20.1133 48.3438 20.1133 42.0665 24.4551C35.7891 28.7968 33.0906 46.3522 32.9864 47.0464L34.1446 47.2229Z" fill="#081E7A"/>
<path d="M101.092 69.0856L163.198 33.0511L160.741 65.4314L161.9 65.5237L164.438 32.0943C164.448 31.9899 164.429 31.8846 164.382 31.7907C164.335 31.6968 164.261 31.6182 164.171 31.5641C164.08 31.5103 163.976 31.4819 163.87 31.4819C163.764 31.4819 163.66 31.5103 163.569 31.5641L100.466 68.1519L101.092 69.0856Z" fill="#081E7A"/>
<path d="M177.587 43.7251H178.463V55.9682H177.587V43.7251Z" fill="#081E7A"/>
<path d="M134.57 177.524L135.521 176.839L115.239 147.176C115.174 147.073 115.078 146.994 114.965 146.952C114.852 146.909 114.728 146.905 114.613 146.94L94.3318 152.764L94.6449 153.945L114.532 148.239L134.57 177.524Z" fill="#081E7A"/>
<path d="M114.488 76.9561H115.364V147.791H114.488V76.9561Z" fill="#081E7A"/>
<path d="M134.936 177.523C135.047 177.52 135.156 177.488 135.251 177.431C135.338 177.375 135.409 177.298 135.457 177.206C135.504 177.114 135.525 177.012 135.52 176.909L129.077 84.7685C129.072 84.6929 129.052 84.6192 129.018 84.5515C128.984 84.4838 128.937 84.4235 128.879 84.3743L114.874 72.4089C114.811 72.3526 114.735 72.3128 114.652 72.2929L100.647 68.2349C100.565 68.21 100.478 68.2044 100.393 68.2185C100.308 68.2326 100.227 68.266 100.157 68.316C100.083 68.3621 100.021 68.425 99.9765 68.4996C99.9318 68.5742 99.9057 68.6584 99.9004 68.745L93.4582 153.465C93.4472 153.574 93.4691 153.684 93.521 153.781C93.573 153.878 93.6526 153.958 93.7499 154.01L134.598 177.419C134.695 177.492 134.814 177.529 134.936 177.523ZM127.934 85.1163L134.236 175.9L94.7303 153.175L101.091 69.5335L114.244 73.3596L127.934 85.1163Z" fill="#081E7A"/>
<path d="M135.224 177.524L198.338 140.7C198.431 140.644 198.506 140.564 198.555 140.467C198.604 140.371 198.625 140.263 198.616 140.155L192.174 47.95C192.164 47.8358 192.122 47.7268 192.052 47.6362C191.982 47.5455 191.888 47.4771 191.78 47.4393L178.014 42.7972L164.237 31.4819L163.507 32.3756L177.412 43.772L177.597 43.8649L191.096 48.391L197.434 139.841L134.644 176.491L135.224 177.524Z" fill="#081E7A"/>
<path d="M191.728 47.2558L192.314 48.2598L128.899 85.1347L128.313 84.1307L191.728 47.2558Z" fill="#081E7A"/>
<path d="M161.049 106.689C162.594 106.69 164.111 106.294 165.449 105.54C168.334 103.89 170.673 101.464 172.188 98.5529C173.702 95.6414 174.328 92.3663 173.991 89.1173L171.968 69.4998C171.966 69.3194 171.926 69.1412 171.851 68.9767C171.775 68.8122 171.665 68.6649 171.527 68.5442C171.39 68.4235 171.229 68.3321 171.053 68.2758C170.878 68.2195 170.692 68.1995 170.508 68.2172C170.324 68.2348 170.146 68.2896 169.985 68.3782C169.825 68.4668 169.684 68.5872 169.574 68.7316C169.463 68.8761 169.384 69.0415 169.343 69.2173C169.301 69.3931 169.298 69.5754 169.332 69.7526L171.356 89.3816C171.635 92.1363 171.099 94.9115 169.809 97.3768C168.52 99.842 166.533 101.894 164.085 103.287C163.198 103.792 162.197 104.07 161.171 104.096C160.146 104.123 159.131 103.896 158.218 103.438C157.306 102.98 156.527 102.305 155.952 101.475C155.378 100.646 155.027 99.6878 154.931 98.6904L153.06 80.9232C153.022 80.5823 152.846 80.2701 152.573 80.0548C152.3 79.8395 151.95 79.7385 151.601 79.774C151.253 79.8144 150.936 79.9862 150.716 80.2525C150.496 80.5188 150.391 80.8585 150.425 81.199L152.307 98.9662C152.451 100.387 152.957 101.75 153.779 102.931C154.601 104.111 155.713 105.072 157.013 105.724C158.261 106.354 159.644 106.685 161.049 106.689Z" fill="url(#paint4_linear_2912_18424)"/>
<path d="M161.463 107.564C163.096 107.567 164.701 107.132 166.11 106.303C169.06 104.577 171.454 102.035 173.007 98.981C174.56 95.9264 175.207 92.4878 174.87 89.0746L172.872 69.1493C172.86 68.8916 172.795 68.639 172.683 68.407C172.571 68.175 172.413 67.9684 172.218 67.7997C172.024 67.631 171.797 67.5039 171.553 67.4259C171.308 67.3479 171.05 67.3208 170.794 67.3461C170.539 67.3715 170.291 67.4488 170.066 67.5734C169.841 67.698 169.644 67.8672 169.486 68.0708C169.328 68.2744 169.213 68.5081 169.148 68.7578C169.083 69.0074 169.07 69.2677 169.108 69.5228L171.106 89.4598C171.372 92.1462 170.864 94.8527 169.642 97.2573C168.421 99.6619 166.538 101.663 164.217 103.023C163.429 103.474 162.543 103.721 161.637 103.742C160.731 103.762 159.834 103.556 159.027 103.141C158.22 102.727 157.529 102.117 157.015 101.367C156.501 100.617 156.181 99.7499 156.084 98.8446L154.226 80.7986C154.204 80.5493 154.133 80.3068 154.017 80.0854C153.9 79.864 153.741 79.6681 153.548 79.5094C153.356 79.3506 153.134 79.2322 152.895 79.1609C152.656 79.0896 152.405 79.067 152.158 79.0944C151.909 79.115 151.666 79.1849 151.444 79.3C151.222 79.4152 151.025 79.5733 150.864 79.7654C150.703 79.9574 150.582 80.1796 150.507 80.419C150.431 80.6585 150.404 80.9104 150.427 81.1605L152.274 99.2065C152.514 101.491 153.584 103.607 155.279 105.149C156.975 106.691 159.177 107.551 161.463 107.564ZM170.978 68.6007C171.16 68.6001 171.334 68.6683 171.468 68.7916C171.602 68.915 171.684 69.0844 171.698 69.266L173.697 89.1913C174.016 92.3765 173.42 95.587 171.979 98.4421C170.537 101.297 168.311 103.677 165.564 105.3C164.396 105.974 163.08 106.346 161.734 106.383C160.387 106.419 159.053 106.119 157.85 105.51C156.646 104.898 155.614 103.992 154.851 102.874C154.087 101.756 153.616 100.462 153.482 99.1131L151.623 81.0671C151.607 80.8743 151.665 80.6827 151.787 80.5324C151.908 80.3822 152.083 80.2852 152.274 80.2617C152.369 80.2504 152.466 80.2584 152.559 80.2854C152.651 80.3123 152.737 80.3576 152.812 80.4185C152.887 80.4794 152.949 80.5548 152.994 80.6401C153.039 80.7255 153.067 80.819 153.075 80.9154L154.923 98.9613C155.034 100.067 155.42 101.128 156.046 102.045C156.671 102.962 157.516 103.707 158.502 104.211C159.488 104.715 160.584 104.963 161.69 104.931C162.797 104.898 163.877 104.588 164.832 104.027C167.342 102.551 169.377 100.381 170.693 97.7751C172.009 95.1694 172.552 92.2383 172.256 89.3314L170.258 69.3944C170.247 69.299 170.255 69.2023 170.282 69.1101C170.309 69.018 170.354 68.9322 170.415 68.8581C170.475 68.7839 170.55 68.7229 170.635 68.6786C170.72 68.6344 170.813 68.6079 170.908 68.6007H170.978Z" fill="#081E7A"/>
<defs>
<linearGradient id="paint0_linear_2912_18424" x1="114.487" y1="20.9883" x2="107.979" y2="51.062" gradientUnits="userSpaceOnUse">
<stop stop-color="#E64C4E"/>
<stop offset="1" stop-color="#EF33F9"/>
</linearGradient>
<linearGradient id="paint1_linear_2912_18424" x1="191.607" y1="31.4819" x2="145.096" y2="110.948" gradientUnits="userSpaceOnUse">
<stop stop-color="#E64C4E"/>
<stop offset="1" stop-color="#EF33F9"/>
</linearGradient>
<linearGradient id="paint2_linear_2912_18424" x1="99.5898" y1="57.7173" x2="72.8299" y2="72.6154" gradientUnits="userSpaceOnUse">
<stop stop-color="#E64C4E"/>
<stop offset="1" stop-color="#EF33F9"/>
</linearGradient>
<linearGradient id="paint3_linear_2912_18424" x1="108.354" y1="43.7251" x2="99.956" y2="45.4783" gradientUnits="userSpaceOnUse">
<stop stop-color="#E64C4E"/>
<stop offset="1" stop-color="#EF33F9"/>
</linearGradient>
<linearGradient id="paint4_linear_2912_18424" x1="174.08" y1="68.2109" x2="139.742" y2="89.3268" gradientUnits="userSpaceOnUse">
<stop stop-color="#E64C4E"/>
<stop offset="1" stop-color="#EF33F9"/>
</linearGradient>
</defs>
</svg>
