<svg width="32" height="32" viewBox="0 0 32 32" fill="none" xmlns="http://www.w3.org/2000/svg">
<circle cx="16" cy="16" r="14" fill="#FFFA37"/>
<path fill-rule="evenodd" clip-rule="evenodd" d="M12.2023 9.60014C11.4809 10.4881 11.2337 11.5425 11.2337 12.1691C11.2337 12.7501 11.2838 13.5572 11.326 14.1359C11.34 14.3281 11.3 14.5522 11.1293 14.73C10.4997 14.5 10.7097 14.7816 10.4997 14.7816C10.1965 14.7816 10.2691 14.8594 10.1216 14.7896L9.81288 14.7816C9.64828 14.704 9.56174 14.6679 9.43451 14.6679C9.31877 14.6679 9.17746 14.7168 9.06541 14.8059C8.95182 14.8963 8.9189 14.9847 8.9189 15.0353C8.9189 15.1384 8.95756 15.212 9.09963 15.3024C9.26742 15.4091 9.50651 15.4893 9.81994 15.5904L9.84722 15.5992C10.1075 15.683 10.4299 15.7869 10.6843 15.9428C10.9699 16.1179 11.2337 16.3992 11.2337 16.8326C11.2337 16.9462 11.2018 17.0555 11.1718 17.1383C11.1393 17.2282 11.0953 17.3231 11.046 17.4178C10.9472 17.6075 10.8137 17.8217 10.6669 18.0348C10.3756 18.4577 10.0054 18.915 9.69765 19.2061C9.38655 19.5004 8.19167 19.8318 7.71847 20.0898C7.48016 20.2198 7.95839 20.3357 7.71847 20.4209C7.50372 20.4971 7.72174 20.4907 7.49971 20.5C7.49417 20.5023 7.48806 20.505 7.48166 20.5082C7.47142 20.5133 7.46185 20.5187 7.45349 20.5243L7.44922 20.5272C7.45006 20.5331 7.45102 20.5374 7.45181 20.5405C7.45359 20.5473 7.4557 20.5522 7.45854 20.5573C7.46724 20.5727 7.48097 20.59 7.53651 20.6485L7.55108 20.6639C7.65112 20.7697 7.4482 20.9732 7.83904 21.096C8.21126 21.213 8.65141 21.2975 9.06726 21.3363C9.27533 21.3557 9.39525 21.4835 9.44601 21.5524C9.49826 21.6233 9.52814 21.6981 9.54559 21.7478C9.57938 21.844 9.60489 21.9625 9.62501 22.0559L9.62807 22.0701C9.65555 22.1974 9.67958 22.3063 9.71093 22.3973C9.72201 22.4295 9.73223 22.454 9.74103 22.472C9.76087 22.4742 9.79129 22.4763 9.83537 22.4761C10.0266 22.4754 10.218 22.4474 10.4075 22.4249C10.7106 22.389 11.0857 22.3445 11.4828 22.3445C12.4039 22.3445 13.0117 22.7529 13.5988 23.1474L13.6318 23.1695C13.849 23.3154 14.0668 23.4615 14.3116 23.6037C15.0017 24.0047 15.5267 24.0018 15.9103 23.9997C15.9373 23.9995 15.9636 23.9994 15.9891 23.9994C16.0145 23.9994 16.0407 23.9995 16.0675 23.9997C16.4554 24.0017 16.998 24.0046 17.6879 23.6037C17.9327 23.4615 18.1504 23.3154 18.3677 23.1695L18.4007 23.1474C18.9878 22.7529 19.5956 22.3445 20.5167 22.3445C20.9138 22.3445 21.2889 22.389 21.592 22.4249L21.6012 22.426C21.8463 22.455 22.0256 22.4756 22.1641 22.4761C22.2082 22.4763 22.1443 22.3468 22.1641 22.3445C22.1729 22.3265 22.2775 22.4295 22.2886 22.3973C22.3199 22.3063 22.3439 22.1974 22.3714 22.0701L22.3745 22.0559C22.3946 21.9624 22.4201 21.844 22.4539 21.7478C22.4713 21.6981 22.5012 21.6233 22.5535 21.5524C22.6042 21.4835 22.7242 21.3557 22.9322 21.3363C23.3481 21.2975 23.7882 21.213 24.1604 21.096C24.5513 20.9732 24.181 20.6719 24.281 20.5661L24.5818 20.6066C24.1691 20.392 24.009 20.3767 24.4997 20.5C24.009 19.8767 24.2211 19.9677 24.7185 20.5743C24.2211 20.4677 24.8304 20.4267 24.8312 20.4209H24.508C24.0123 20.3305 24.6675 20.2674 24.8186 20.4209C24.8122 20.4177 24.5053 20.5023 24.4997 20.5C24.2777 20.4907 24.4958 20.4971 24.281 20.4209C24.0411 20.3357 24.738 20.13 24.4997 20C24.0265 19.7419 22.6129 19.5004 22.3018 19.2061C21.9941 18.915 21.6239 18.4577 21.3326 18.0348C21.1858 17.8217 21.0522 17.6075 20.9535 17.4178C20.9042 17.3231 20.8602 17.2282 20.8277 17.1383C20.7977 17.0555 20.7658 16.9462 20.7658 16.8326C20.7658 16.3992 21.0296 16.1179 21.3152 15.9428C21.5696 15.7869 21.892 15.683 22.1523 15.5992L22.1795 15.5904C22.493 15.4893 22.7321 15.4091 22.8999 15.3024C23.0419 15.212 23.0806 15.1384 23.0806 15.0353C23.0806 14.9847 23.0477 14.8963 22.9341 14.8059C22.822 14.7168 22.6807 14.6679 22.565 14.6679C22.4377 14.6679 22.3512 14.704 22.1866 14.7816L22.1695 14.7896C22.0219 14.8594 22.303 14.5 21.9997 14.5C21.7898 14.5 21.043 14.9101 20.8702 14.7301C20.6995 14.5522 20.6594 14.3281 20.6735 14.1359C20.7157 13.5572 20.7658 12.7501 20.7658 12.1691C20.7658 11.5408 20.5229 10.4864 19.8069 9.59903C19.1074 8.73223 17.9275 8.5 15.9997 8.5C14.0718 8.5 12.9072 8.73245 12.2023 9.60014Z" fill="white"/>
<path fill-rule="evenodd" clip-rule="evenodd" d="M20.1118 9.74841C19.3219 8.77504 18.0187 8 16.0096 8C14.2893 8.01657 10.8485 8.94756 10.8485 12.539C10.8485 13.0635 10.891 13.766 10.9281 14.2833C10.8844 14.2709 10.8306 14.2476 10.7454 14.2077L10.7336 14.2021C10.5829 14.1314 10.3539 14.0239 10.0353 14.0239C9.71346 14.0239 9.40228 14.1471 9.17125 14.3299C8.94162 14.5116 8.74545 14.7908 8.74545 15.1284C8.74545 15.5507 8.98852 15.8311 9.27273 16.0108C9.52517 16.1705 9.8435 16.2724 10.0955 16.3532L10.1204 16.3612C10.3901 16.4477 10.5878 16.5136 10.7241 16.5967C10.8302 16.6613 10.8463 16.7022 10.8483 16.7411C10.8469 16.7466 10.8437 16.7586 10.8366 16.778C10.8221 16.8179 10.7979 16.8719 10.7625 16.9395C10.692 17.0742 10.5891 17.2398 10.4667 17.4165C10.2199 17.7729 9.91859 18.1384 9.69355 18.3501C9.47158 18.5589 9.10733 18.8184 8.72649 19.0249C8.53764 19.1273 8.35295 19.2121 8.18773 19.2704C8.01718 19.3306 7.8922 19.3536 7.81497 19.3536C7.75384 19.3536 7.70093 19.3658 7.67784 19.3715C7.64538 19.3795 7.61179 19.3899 7.57856 19.4021C7.51265 19.4263 7.43409 19.4627 7.35629 19.5139C7.20763 19.6117 7 19.8089 7 20.1201C7 20.2826 7.039 20.4201 7.1064 20.5394C7.16541 20.6438 7.24126 20.723 7.28492 20.7686L7.29139 20.7754L7.30347 20.7881C7.54356 21.0406 7.94097 21.2164 8.32678 21.3369C8.65828 21.4405 9.02892 21.5177 9.39009 21.5641C9.39519 21.5868 9.40052 21.6114 9.40636 21.6383L9.40823 21.6469C9.43097 21.7518 9.46109 21.8907 9.50544 22.0187C9.54729 22.1395 9.62308 22.3182 9.77825 22.4454C9.97587 22.6075 10.2343 22.6239 10.403 22.6232C10.584 22.6225 10.7954 22.5976 10.996 22.5739L11.013 22.5719C11.2952 22.5387 11.5905 22.5043 11.8963 22.5043C12.4543 22.5043 12.8119 22.7323 13.3732 23.107L13.3769 23.1095C13.5713 23.2393 13.789 23.3847 14.0364 23.5276C14.8645 24.0061 15.5374 24.002 15.9188 23.9996C15.9439 23.9995 15.9678 23.9993 15.9904 23.9993C16.013 23.9993 16.0369 23.9995 16.0623 23.9996C16.4443 24.002 17.135 24.0064 17.9636 23.5276C18.211 23.3847 18.4287 23.2393 18.623 23.1095L18.6268 23.107C19.1881 22.7323 19.5457 22.5043 20.1037 22.5043C20.4095 22.5043 20.7048 22.5387 20.987 22.5719L21.004 22.5739C21.2046 22.5976 21.416 22.6225 21.597 22.6232C21.7657 22.6239 22.0241 22.6075 22.2218 22.4454C22.3769 22.3182 22.4527 22.1395 22.4946 22.0187C22.5389 21.8907 22.569 21.7518 22.5918 21.6469L22.5936 21.6383C22.5995 21.6114 22.6048 21.5868 22.6099 21.5641C22.9711 21.5177 23.3417 21.4405 23.6732 21.3369C24.059 21.2164 24.4565 21.0406 24.6966 20.788L24.7086 20.7754L24.7151 20.7686C24.7587 20.723 24.8346 20.6438 24.8936 20.5394C24.961 20.4201 25 20.2826 25 20.1201C25 19.8089 24.7924 19.6117 24.6437 19.5139C24.5659 19.4627 24.4873 19.4263 24.4214 19.4021C24.3882 19.3899 24.3546 19.3795 24.3222 19.3715C24.2991 19.3658 24.2462 19.3536 24.185 19.3536C24.1078 19.3536 23.9828 19.3306 23.8123 19.2704C23.6471 19.2121 23.4624 19.1273 23.2735 19.0249C22.8927 18.8184 22.5284 18.5589 22.3064 18.3501C22.0814 18.1384 21.7801 17.7729 21.5333 17.4165C21.4109 17.2398 21.308 17.0742 21.2375 16.9395C21.2021 16.8719 21.1779 16.8179 21.1634 16.778C21.1563 16.7586 21.1531 16.7466 21.1517 16.7411C21.1537 16.7022 21.1698 16.6613 21.2759 16.5967C21.4122 16.5136 21.6099 16.4477 21.8796 16.3612L21.9045 16.3532C22.1565 16.2724 22.4748 16.1705 22.7273 16.0108C23.0115 15.8311 23.2545 15.5507 23.2545 15.1284C23.2545 14.7908 23.0584 14.5116 22.8287 14.3299C22.5977 14.1471 22.2865 14.0239 21.9647 14.0239C21.6461 14.0239 21.4171 14.1314 21.2664 14.2021L21.2546 14.2077C21.1694 14.2476 21.1156 14.2709 21.0719 14.2833C21.109 13.766 21.1515 13.0635 21.1515 12.539C21.1515 11.827 20.8867 10.7032 20.1118 9.74841ZM12.5499 10.2182C11.8945 11.0204 11.6699 11.9729 11.6699 12.539C11.6699 13.0639 11.7154 13.7931 11.7538 14.3159C11.7665 14.4896 11.7301 14.692 11.575 14.8526C11.418 15.0153 11.2045 15.0681 11.0137 15.0681C10.7382 15.0681 10.5287 14.9695 10.3946 14.9065L10.3791 14.8992C10.2295 14.8291 10.1509 14.7965 10.0353 14.7965C9.93014 14.7965 9.80176 14.8406 9.69995 14.9212C9.59676 15.0028 9.56684 15.0827 9.56684 15.1284C9.56684 15.2215 9.60197 15.288 9.73105 15.3697C9.88349 15.4661 10.1007 15.5386 10.3855 15.6299L10.4103 15.6378C10.6467 15.7136 10.9396 15.8074 11.1708 15.9483C11.4302 16.1064 11.6699 16.3606 11.6699 16.7521C11.6699 16.8547 11.6409 16.9535 11.6137 17.0283C11.5841 17.1095 11.5442 17.1953 11.4994 17.2808C11.4097 17.4522 11.2883 17.6457 11.1549 17.8382C10.8903 18.2203 10.5539 18.6334 10.2744 18.8964C9.99172 19.1622 9.56666 19.4611 9.13675 19.6942C8.92024 19.8116 8.6942 19.9169 8.47623 19.9938C8.28112 20.0627 8.07083 20.1166 7.86911 20.125C7.86408 20.1271 7.85852 20.1296 7.85271 20.1324C7.84341 20.137 7.83471 20.1419 7.82712 20.1469L7.82324 20.1496C7.824 20.1549 7.82487 20.1588 7.82559 20.1616C7.82721 20.1678 7.82912 20.1722 7.8317 20.1767C7.83961 20.1907 7.85208 20.2063 7.90254 20.2592L7.91578 20.2731C8.00667 20.3687 8.23068 20.4928 8.58576 20.6037C8.92393 20.7094 9.32383 20.7858 9.70164 20.8208C9.89067 20.8383 9.99963 20.9538 10.0457 21.0161C10.0932 21.0801 10.1204 21.1477 10.1362 21.1926C10.1669 21.2795 10.1901 21.3865 10.2084 21.4709L10.2112 21.4838C10.2361 21.5988 10.258 21.6972 10.2864 21.7794C10.2965 21.8084 10.3058 21.8306 10.3138 21.8468C10.3318 21.8488 10.3594 21.8508 10.3995 21.8506C10.5732 21.8499 10.7471 21.8246 10.9193 21.8043C11.1946 21.7719 11.5354 21.7317 11.8963 21.7317C12.7331 21.7317 13.2853 22.1006 13.8187 22.457L13.8486 22.477C14.046 22.6088 14.2438 22.7407 14.4663 22.8693C15.0932 23.2315 15.5702 23.2289 15.9187 23.227C15.9432 23.2269 15.9671 23.2267 15.9904 23.2267C16.0134 23.2267 16.0372 23.2269 16.0616 23.227C16.4139 23.2288 16.9069 23.2314 17.5337 22.8693C17.7562 22.7407 17.954 22.6088 18.1514 22.477L18.1813 22.457C18.7147 22.1006 19.2669 21.7317 20.1037 21.7317C20.4646 21.7317 20.8054 21.7719 21.0807 21.8043L21.089 21.8053C21.3117 21.8315 21.4747 21.8501 21.6005 21.8506C21.6406 21.8508 21.6682 21.8488 21.6862 21.8468C21.6942 21.8306 21.7035 21.8084 21.7136 21.7794C21.742 21.6972 21.7639 21.5988 21.7888 21.4838L21.7916 21.4709C21.8099 21.3865 21.8331 21.2795 21.8638 21.1926C21.8796 21.1477 21.9068 21.0801 21.9543 21.016C22.0004 20.9538 22.1093 20.8383 22.2984 20.8208C22.6762 20.7858 23.0761 20.7094 23.4142 20.6037C23.7693 20.4928 23.9933 20.3687 24.0842 20.2731L24.0974 20.2592C24.1479 20.2063 24.1604 20.1907 24.1683 20.1767C24.1709 20.1722 24.1728 20.1678 24.1744 20.1616C24.1751 20.1588 24.176 20.1549 24.1768 20.1496L24.1729 20.1469C24.1653 20.1419 24.1566 20.137 24.1473 20.1324C24.1415 20.1296 24.1359 20.1271 24.1309 20.125C23.9292 20.1166 23.7189 20.0627 23.5238 19.9938C23.3058 19.9169 23.0798 19.8116 22.8632 19.6942C22.4333 19.4611 22.0083 19.1622 21.7256 18.8964C21.4461 18.6334 21.1097 18.2203 20.8451 17.8382C20.7117 17.6457 20.5903 17.4522 20.5006 17.2808C20.4558 17.1953 20.4159 17.1095 20.3863 17.0283C20.3591 16.9535 20.3301 16.8547 20.3301 16.7521C20.3301 16.3606 20.5698 16.1064 20.8292 15.9483C21.0604 15.8074 21.3533 15.7136 21.5897 15.6378L21.6145 15.6299C21.8993 15.5386 22.1165 15.4661 22.269 15.3697C22.398 15.288 22.4332 15.2215 22.4332 15.1284C22.4332 15.0827 22.4032 15.0028 22.3 14.9212C22.1982 14.8406 22.0699 14.7965 21.9647 14.7965C21.8491 14.7965 21.7705 14.8291 21.6209 14.8992L21.6054 14.9065C21.4713 14.9695 21.2618 15.0681 20.9863 15.0681C20.7955 15.0681 20.582 15.0153 20.425 14.8526C20.2699 14.692 20.2335 14.4896 20.2462 14.3159C20.2846 13.7931 20.3301 13.0639 20.3301 12.539C20.3301 11.9715 20.1095 11.0188 19.4589 10.2172C18.8234 9.43411 17.761 8.7726 16.0096 8.7726C14.2581 8.7726 13.1904 9.43431 12.5499 10.2182Z" fill="black"/>
</svg>
