<svg width="130" height="184" viewBox="0 0 130 184" fill="none" xmlns="http://www.w3.org/2000/svg">
<path opacity="0.08" d="M113.761 136.245L104.738 130.907C102.246 129.452 98.383 129.254 96.198 130.551L23.0896 172.549C20.8963 173.814 21.1705 176.003 23.7044 177.458L32.7266 182.797C35.2189 184.251 39.0821 184.408 41.267 183.152L114.375 141.146C116.527 139.89 116.253 137.691 113.761 136.245Z" fill="black"/>
<path fill-rule="evenodd" clip-rule="evenodd" d="M41.5945 179.164L103.59 143.559C105.453 142.496 106.958 139.64 106.958 137.195V6.23692C106.958 3.78378 105.43 2.65975 103.59 3.73062L41.5945 39.3353C39.739 40.3985 38.2347 43.2466 38.2347 45.6997V176.658C38.2347 179.111 39.7237 180.227 41.5945 179.164Z" fill="white"/>
<path fill-rule="evenodd" clip-rule="evenodd" d="M38.7604 176.699V45.5777C38.683 44.3372 38.928 43.0978 39.4716 41.9805C40.0151 40.8633 40.8387 39.9064 41.8616 39.2035L103.493 3.58082C103.872 3.35167 104.3 3.21654 104.742 3.1867C103.183 2.26202 100.029 0.397516 99.4467 0.154979C99.1201 0.0275369 98.7685 -0.0223606 98.4194 0.00919933C98.0703 0.0407592 97.7333 0.152918 97.4347 0.336882L36.0373 35.8838C34.1993 36.9449 32.7091 39.7871 32.7091 42.2352V172.887C32.6594 173.373 32.7276 173.864 32.9081 174.318C33.0885 174.772 33.3758 175.176 33.7454 175.494C33.8059 175.54 37.1039 177.435 38.8663 178.458C38.7328 178.187 38.6547 177.891 38.6365 177.589C38.6183 177.287 38.6604 176.985 38.7604 176.699Z" fill="url(#paint0_linear_2916_17641)"/>
<path fill-rule="evenodd" clip-rule="evenodd" d="M91.4403 11.0845L90.4075 15.2427C89.3292 19.5933 86.2083 23.8921 82.6924 25.8677L63.6098 36.6036C60.0939 38.5865 56.9805 37.7948 55.8947 34.6577L54.8619 31.6981L91.4403 11.0845Z" fill="#FFECFA"/>
<path d="M59.3148 38.7948C58.3016 38.8078 57.313 38.4864 56.5063 37.8818C55.6995 37.2772 55.1207 36.4239 54.8619 35.4577L55.5799 35.2167C55.7409 35.7892 56.0305 36.3187 56.4271 36.766C56.8238 37.2132 57.3173 37.5668 57.8712 37.8005C59.2231 38.3052 60.9263 38.0189 62.7594 36.9944L81.9837 26.0642C85.4513 24.0905 88.4987 19.8344 89.568 15.5181L90.3318 15.6913C89.2167 20.2111 86.0241 24.6856 82.3885 26.7572L63.1719 37.6423C62.0097 38.3509 60.6802 38.7481 59.3148 38.7948Z" fill="#081E7A"/>
<path d="M39.4686 179.566L33.8979 175.89C33.4794 175.537 33.1525 175.088 32.9453 174.581C32.7381 174.074 32.6568 173.523 32.7085 172.977V42.5699C32.7085 40.0129 34.2743 37.0171 36.209 35.8975L97.3359 0.447409C97.6699 0.220179 98.0521 0.0744902 98.452 0.0219536C98.8519 -0.030583 99.2585 0.0114851 99.6394 0.144805C100.468 0.485235 105.662 3.59449 105.85 3.73066L105.466 4.3737C103.96 3.48101 100.001 1.11314 99.3534 0.848359C99.0785 0.761633 98.7875 0.739724 98.5029 0.784332C98.2183 0.828939 97.9478 0.938865 97.7123 1.10557L36.6079 36.5556C34.884 37.5542 33.4838 40.255 33.4838 42.6077V172.977C33.4434 173.397 33.5006 173.82 33.6508 174.214C33.801 174.608 34.0402 174.961 34.3496 175.247L39.9052 178.908L39.4686 179.566Z" fill="#081E7A"/>
<path d="M40.6061 179.566C40.2408 179.568 39.8815 179.474 39.5639 179.294C38.7181 178.802 38.2347 177.706 38.2347 176.269V45.8933C38.2347 43.3372 39.8056 40.3425 41.7464 39.2232L103.061 3.77073C103.432 3.51352 103.866 3.36157 104.317 3.33095C104.768 3.30034 105.218 3.39219 105.621 3.5968C106.467 4.08835 106.958 5.17734 106.958 6.62176V136.997C106.958 139.553 105.379 142.541 103.438 143.66L42.124 179.09C41.6696 179.381 41.1455 179.546 40.6061 179.566V179.566ZM104.579 4.1186C104.174 4.13055 103.781 4.25066 103.438 4.46647L42.124 39.8812C40.3946 40.8794 38.9899 43.5792 38.9899 45.8933V176.292C38.9899 177.434 39.3373 178.288 39.9415 178.636C40.2305 178.771 40.5503 178.825 40.8676 178.795C41.1849 178.764 41.4883 178.649 41.7464 178.462L41.9352 178.787L41.7464 178.462L103.061 143.01C104.79 142.011 106.202 139.311 106.202 136.997V6.59907C106.202 5.45715 105.855 4.6026 105.243 4.24716C105.04 4.13384 104.811 4.07644 104.579 4.08079V4.1186Z" fill="#081E7A"/>
<path fill-rule="evenodd" clip-rule="evenodd" d="M66.5123 30.9778L78.6879 24.6861C78.8587 24.5751 78.9982 24.4299 79.0952 24.2622C79.1923 24.0944 79.2442 23.9086 79.2469 23.7197C79.2469 23.3496 78.9942 23.1783 78.6802 23.3359L66.5123 29.6276C66.3401 29.7379 66.1991 29.8827 66.1007 30.0505C66.0023 30.2184 65.9492 30.4045 65.9457 30.594C65.9457 30.9641 66.229 31.1354 66.5123 30.9778Z" fill="#081E7A"/>
<path fill-rule="evenodd" clip-rule="evenodd" d="M47.4984 149.452L97.696 120.866C98.1544 120.53 98.5291 120.091 98.7901 119.584C99.0511 119.076 99.1912 118.514 99.1993 117.942V50.1082C99.1993 48.9842 98.5153 48.4678 97.696 48.9538L47.4984 77.5394C47.0391 77.8742 46.6638 78.313 46.4027 78.8208C46.1416 79.3286 46.002 79.8911 45.995 80.4633V148.282C45.9725 149.429 46.6565 149.945 47.4984 149.452Z" fill="#FFECFA"/>
<path fill-rule="evenodd" clip-rule="evenodd" d="M47.499 68.5376L97.6951 40.2986C98.1543 39.967 98.5294 39.5327 98.7906 39.0303C99.0518 38.528 99.1918 37.9716 99.1993 37.4056V30.1467C99.1993 29.0271 98.5224 28.5161 97.6951 29.0045L47.499 57.251C47.0394 57.5823 46.6639 58.0165 46.4027 58.5189C46.1414 59.0213 46.0017 59.578 45.9948 60.1441V67.403C45.9797 68.5151 46.6641 69.0261 47.499 68.5376Z" fill="#FFECFA"/>
<path fill-rule="evenodd" clip-rule="evenodd" d="M47.499 166.08L97.6951 137.841C98.1543 137.509 98.5294 137.075 98.7906 136.572C99.0518 136.07 99.1918 135.514 99.1993 134.948V127.689C99.1993 126.569 98.5224 126.058 97.6951 126.547L47.499 154.793C47.0394 155.124 46.6639 155.558 46.4027 156.061C46.1414 156.563 46.0017 157.12 45.9948 157.686V164.945C45.9797 166.057 46.6641 166.568 47.499 166.08Z" fill="#FFECFA"/>
<path d="M0.459371 80.4384C0.481493 80.0565 0.592149 79.6852 0.782438 79.3544C0.972728 79.0235 1.23733 78.7424 1.55494 78.5337L59.9527 44.4856C60.0649 44.4028 60.1975 44.3526 60.336 44.3403C60.4745 44.3281 60.6137 44.3543 60.7385 44.4161L64.9257 46.4656C65.0459 46.5418 65.1425 46.6506 65.2044 46.7796C65.2662 46.9086 65.2909 47.0526 65.2756 47.195V104.175C65.2756 104.905 64.5701 105.733 64.0653 105.6L51.1709 102.091C50.2371 101.905 49.2683 102.099 48.475 102.63L6.64846 127.003C6.43329 127.159 6.18202 127.257 5.91882 127.286C5.65562 127.315 5.38935 127.276 5.14564 127.171C5.14564 127.171 5.11696 127.171 5.11696 127.171L1.10179 124.809C0.869916 124.655 0.684579 124.44 0.566176 124.187C0.447773 123.933 0.400893 123.652 0.43069 123.373L0.459371 80.4384Z" fill="#E3FFFF"/>
<path d="M4.97469 127.295L1.1009 125.02C0.869248 124.865 0.684089 124.649 0.565799 124.395C0.447509 124.141 0.400674 123.859 0.430442 123.58V80.538C0.452542 80.1551 0.563092 79.7827 0.7532 79.451C0.943307 79.1192 1.20766 78.8373 1.52496 78.628L59.8668 44.486C59.9789 44.403 60.1114 44.3526 60.2497 44.3403C60.3881 44.3281 60.5271 44.3543 60.6518 44.4163L64.5256 46.6746L4.97469 127.295Z" fill="url(#paint1_linear_2916_17641)"/>
<path d="M4.19278 82.7288V125.727C4.19278 127.124 5.18401 127.696 6.38846 126.997L48.4004 102.689C49.1974 102.159 50.1707 101.966 51.1089 102.152L64.064 105.651C64.5712 105.784 65.28 104.958 65.28 104.231V47.3833C65.28 46.6844 64.7902 46.4014 64.1851 46.748L5.29351 80.8229C4.97397 81.0321 4.7079 81.3135 4.51672 81.6445C4.32553 81.9755 4.21458 82.3469 4.19278 82.7288V82.7288Z" fill="white"/>
<path d="M5.12054 127.295L5.40723 126.794L1.53115 124.539C1.34432 124.409 1.1964 124.23 1.10341 124.022C1.01042 123.814 0.975922 123.584 1.00364 123.357V80.5862C1.02511 80.2561 1.1222 79.9354 1.28732 79.6493C1.45243 79.3632 1.68111 79.1194 1.95546 78.9369L60.3317 45.0237C60.4001 44.9708 60.4809 44.9366 60.5663 44.9245C60.6518 44.9123 60.7388 44.9227 60.8191 44.9545L65.0277 47.0132L65.28 46.4942L61.0943 44.4471C60.9288 44.3638 60.7441 44.3268 60.5595 44.34C60.3749 44.3532 60.1972 44.4161 60.045 44.522L1.66877 78.4237C1.30648 78.6552 1.00484 78.971 0.789297 79.3443C0.573752 79.7177 0.450615 80.1376 0.430258 80.5689V123.34C0.398501 123.669 0.458343 124.001 0.603115 124.298C0.747888 124.596 0.971899 124.847 1.25019 125.023L5.12054 127.295Z" fill="#081E7A"/>
<path d="M5.71392 127.296C6.11108 127.283 6.49776 127.166 6.83495 126.957L48.9604 102.827C49.6938 102.341 50.5894 102.157 51.4567 102.316L64.4469 105.82C64.5922 105.849 64.7423 105.844 64.8855 105.806C65.0287 105.769 65.1614 105.699 65.2732 105.602C65.5021 105.422 65.6885 105.194 65.8193 104.934C65.95 104.675 66.022 104.39 66.0302 104.1V47.6617C66.0449 47.4766 66.0098 47.291 65.9286 47.1237C65.8474 46.9565 65.7229 46.8137 65.5679 46.7097C65.3992 46.6265 65.2111 46.5896 65.0232 46.6027C64.8352 46.6158 64.6542 46.6785 64.4989 46.7843L5.44811 80.6174C5.08354 80.8496 4.7801 81.1648 4.56301 81.5368C4.34591 81.9089 4.22145 82.3269 4.19995 82.7563V125.449C4.16956 125.77 4.22705 126.094 4.36637 126.386C4.5057 126.677 4.72169 126.926 4.99161 127.106C5.21107 127.232 5.46046 127.298 5.71392 127.296V127.296ZM50.8847 101.668C50.1092 101.695 49.3543 101.923 48.6946 102.328L6.54603 126.464C6.37975 126.622 6.16613 126.723 5.93734 126.75C5.70855 126.778 5.47698 126.731 5.27749 126.616C5.07801 126.502 4.92141 126.326 4.83129 126.115C4.74117 125.905 4.7224 125.671 4.7778 125.449V82.7563C4.79944 82.4281 4.89728 82.1092 5.06368 81.8247C5.23009 81.5402 5.46055 81.2977 5.73704 81.1163L64.7878 47.2832C64.8562 47.2296 64.9374 47.1946 65.0235 47.1815C65.1096 47.1684 65.1976 47.1778 65.279 47.2086C65.3434 47.264 65.393 47.3344 65.4233 47.4134C65.4536 47.4925 65.4635 47.5778 65.4523 47.6617V104.1C65.4394 104.296 65.3854 104.488 65.2939 104.663C65.2024 104.837 65.0753 104.991 64.9207 105.115C64.8323 105.194 64.716 105.235 64.5971 105.23L51.607 101.789C51.373 101.716 51.1299 101.675 50.8847 101.668V101.668Z" fill="#081E7A"/>
<path d="M57.7976 82.5676L58.0858 83.0669L40.9467 92.9622L40.6585 92.4629L57.7976 82.5676Z" fill="#081E7A"/>
<path d="M21.8233 103.917L36.6211 95.3606L36.3299 94.8667L21.5378 103.423L21.8233 103.917Z" fill="#081E7A"/>
<path d="M57.8681 72.9537L58.1569 73.4526L13.7658 99.1438L13.4771 98.6449L57.8681 72.9537Z" fill="#081E7A"/>
<path d="M57.7987 63.4759L58.0878 63.9746L32.0335 79.0778L31.7444 78.579L57.7987 63.4759Z" fill="#081E7A"/>
<path d="M91.8658 73.297C99.1654 70.7309 102.601 75.8632 102.601 75.8632C102.601 75.8632 105.177 68.5924 112.477 66.8816C122.352 64.5635 129.596 70.8121 124.499 81.8509L109.041 125.903C107.573 129.09 101.742 127.101 100.024 125.048L80.5599 99.9252C78.5547 96.8202 76.2274 78.7972 91.8658 73.297Z" fill="url(#paint2_linear_2916_17641)" stroke="black" stroke-width="0.6" stroke-miterlimit="10"/>
<path d="M93.7964 76.2016L94.4154 75.967C105.76 71.967 106.245 82.5342 106.245 82.5342C106.245 82.5342 105.76 71.967 117.104 67.9628C117.312 67.8903 117.537 67.8178 117.728 67.7581C126.77 64.9691 132.137 76.7389 127.003 87.7496L111.33 123.37C109.85 126.547 106.742 127.635 105.02 125.6L86.6244 101.997C80.6556 94.9095 84.7849 79.7837 93.7964 76.2016Z" fill="white" stroke="black" stroke-width="0.6" stroke-miterlimit="10"/>
<defs>
<linearGradient id="paint0_linear_2916_17641" x1="32.6934" y1="0" x2="156.594" y2="50.0222" gradientUnits="userSpaceOnUse">
<stop stop-color="#E64C4E"/>
<stop offset="1" stop-color="#EF33F9"/>
</linearGradient>
<linearGradient id="paint1_linear_2916_17641" x1="64.5256" y1="44.3374" x2="-15.7494" y2="106.368" gradientUnits="userSpaceOnUse">
<stop stop-color="#E64C4E"/>
<stop offset="1" stop-color="#EF33F9"/>
</linearGradient>
<linearGradient id="paint2_linear_2916_17641" x1="79.1201" y1="66.4014" x2="138.246" y2="111.883" gradientUnits="userSpaceOnUse">
<stop stop-color="#E64C4E"/>
<stop offset="1" stop-color="#EF33F9"/>
</linearGradient>
</defs>
</svg>
