<svg width="151" height="181" viewBox="0 0 151 181" fill="none" xmlns="http://www.w3.org/2000/svg">
<path d="M98.6844 32.9469L135.227 18.1384C135.423 18.0473 135.638 18.0001 135.855 18.0001C136.072 18.0001 136.287 18.0473 136.483 18.1384L150.477 25.9003C151.186 26.5228 151.226 28.0593 150.277 29.662L119.174 82.1012C118.639 82.9365 118.4 83.9242 118.493 84.9092L125.804 129.692C126.138 131.732 124.08 134.607 122.329 134.554L83.9151 133.388C83.4715 133.44 83.0441 133.585 82.6615 133.813C82.2789 134.041 81.9499 134.348 81.6964 134.713L43.2694 179.747C42.3204 180.86 41.3046 181.191 40.5962 180.9C40.5962 180.9 26.5888 173.27 26.4952 173.191C26.2683 172.939 26.1081 172.635 26.0287 172.307C25.9494 171.979 25.9536 171.636 26.0408 171.31L33.4054 118.156C33.5123 117.334 33.4054 116.593 33.0044 116.341C32.0821 115.718 1.31499 98.7633 1.31499 98.7633C-1.95328 94.445 20.6955 80.2199 46.759 61.6761C50.5 51.5 66 2 68.5 1C93.5 8 92.9089 34.6746 98.6844 32.9469Z" fill="url(#paint0_linear_3156_18877)"/>
<path d="M46.5256 123.474C46.8284 123.709 47.0544 124.029 47.1747 124.394C47.2949 124.758 47.3039 125.15 47.2005 125.52L39.9096 178.817C39.5788 181.247 41.6033 181.792 43.3499 179.72L81.3921 134.564C81.6431 134.199 81.9688 133.891 82.3476 133.662C82.7264 133.433 83.1495 133.288 83.5886 133.236L121.565 134.445C123.298 134.445 125.336 131.603 125.005 129.557L117.767 84.6538C117.675 83.6661 117.912 82.6757 118.442 81.8382L149.286 29.245C150.675 26.8677 149.921 24.5169 148.029 25.3138L105.461 42.805C105.162 42.9763 104.808 43.0236 104.474 42.9367C104.14 42.8499 103.854 42.6359 103.675 42.3402L84.6869 8.63274C83.8136 7.09213 81.3127 8.53978 80.4394 11.0898L61.3985 66.711C61.0768 67.7538 60.4554 68.6779 59.6121 69.3672L17.0314 101.069C15.0863 102.517 14.3188 105.744 15.7082 106.514L46.5256 123.474Z" fill="white"/>
<path d="M46.9766 125.436L39.6758 178.998C39.5758 179.357 39.5815 179.737 39.6921 180.092C39.8026 180.448 40.0133 180.763 40.2985 181C38.735 180.132 26.6112 173.379 26.5185 173.299C26.2936 173.045 26.1347 172.739 26.0561 172.408C25.9775 172.078 25.9816 171.732 26.068 171.403L33.3688 117.842C33.4389 117.52 33.4335 117.185 33.353 116.866C33.2725 116.546 33.1191 116.25 32.905 116L46.4333 123.461C46.4333 123.461 47.1356 123.848 46.9766 125.436Z" fill="url(#paint1_linear_3156_18877)"/>
<path d="M39.8765 181L40.5289 179.856C35.0966 176.883 26.9083 172.41 26.5621 172.186C26.3483 171.815 26.2864 171.378 26.389 170.963L33.6986 118.173C33.8155 117.683 33.7802 117.17 33.5973 116.701C33.4144 116.231 33.0924 115.827 32.6734 115.542L15.3648 106.215L1.74419 98.6905C1.62581 98.5953 1.53078 98.4748 1.46622 98.3381C1.40166 98.2014 1.36923 98.0521 1.37138 97.9012C1.38184 97.2241 1.54643 96.5579 1.85298 95.9522C2.15953 95.3464 2.60016 94.8166 3.1422 94.4021L45.9479 62.9227C46.8853 62.1961 47.6074 60.6115 48 59.5L46.6685 59.0659C46.3751 59.9315 45.819 61.3022 45.0957 61.8703L2.30339 93.3365C1.58337 93.8859 1.00105 94.5918 0.601608 95.3993C0.202163 96.2069 -0.00368525 97.0945 0 97.9933C-0.00203056 98.3642 0.0939238 98.7292 0.278397 99.0521C0.462869 99.3751 0.729471 99.645 1.05183 99.835L14.739 107.32L32.0476 116.647C32.3539 116.805 32.487 117.331 32.3938 117.962L25.0576 170.766C24.947 171.197 24.9489 171.648 25.063 172.079C25.1771 172.509 25.3997 172.903 25.71 173.226C25.8298 173.304 25.9097 173.37 39.8765 181ZM98.3267 34.1532L135.558 19.3037C135.789 19.2116 136.047 19.2116 136.277 19.3037L150.191 26.894L150.83 25.7364L136.797 18.0002C136.516 17.8708 136.209 17.8037 135.899 17.8037C135.588 17.8037 135.281 17.8708 135 18.0002L97.8208 32.9429L98.3267 34.1532Z" fill="#081E7A"/>
<path d="M40.9475 181C41.473 180.951 41.982 180.791 42.4406 180.532C42.8992 180.273 43.297 179.921 43.6076 179.498L81.8342 134.653C82.2294 134.106 82.8272 133.736 83.4968 133.625L121.737 134.784C122.259 134.763 122.769 134.625 123.229 134.381C123.69 134.137 124.089 133.793 124.397 133.374C124.924 132.814 125.327 132.151 125.579 131.426C125.831 130.702 125.927 129.934 125.86 129.171L118.584 84.6287C118.526 83.7952 118.735 82.9648 119.183 82.2566L150.174 30.0451C151.171 28.3715 151.278 26.5924 150.427 25.6304C150.131 25.3116 149.738 25.0976 149.308 25.0214C148.878 24.9452 148.434 25.011 148.046 25.2087L105.297 42.5643C104.831 42.7488 104.512 42.696 104.339 42.3798L85.2525 8.96017C85.0734 8.63874 84.8022 8.37707 84.4732 8.20821C84.1442 8.03934 83.772 7.97084 83.4037 8.01135C82.5271 8.22602 81.726 8.67306 81.0863 9.30452C80.4466 9.93598 79.9925 10.7281 79.7726 11.5958L60.6327 66.8383C60.3359 67.7071 59.7906 68.4717 59.0632 69.039L16.3143 100.561C15.6037 101.105 15.0264 101.802 14.6256 102.598C14.2248 103.394 14.011 104.27 14 105.16C14.0058 105.532 14.1064 105.896 14.2924 106.218C14.4785 106.541 14.7439 106.812 15.0641 107.005L45.922 123.833C46.2146 124.005 46.3476 124.532 46.2678 125.151L38.939 178.048C38.7918 178.566 38.8246 179.118 39.032 179.615C39.2395 180.112 39.6096 180.526 40.0829 180.789C40.3493 180.929 40.6462 181.001 40.9475 181ZM83.5101 132.241C82.9856 132.289 82.4773 132.446 82.0188 132.703C81.5602 132.96 81.1618 133.31 80.8499 133.73L42.5968 178.536C41.8253 179.458 41.0672 179.682 40.6948 179.524C40.3223 179.366 40.2159 178.852 40.3223 178.206L47.6511 125.375C47.7697 124.885 47.7354 124.37 47.5525 123.9C47.3696 123.429 47.0469 123.025 46.6269 122.74L15.7158 105.898C15.5946 105.808 15.4974 105.691 15.4325 105.555C15.3676 105.42 15.337 105.27 15.3434 105.121C15.3538 104.442 15.5183 103.775 15.8245 103.168C16.1307 102.561 16.5709 102.031 17.1124 101.615L59.8612 70.0274C60.7973 69.3018 61.4998 68.3219 61.883 67.2073L81.0228 11.9516C81.1831 11.3398 81.4962 10.7777 81.9331 10.3171C82.3701 9.85658 82.917 9.51229 83.5234 9.31597C83.636 9.29185 83.7537 9.30765 83.8557 9.36063C83.9578 9.41361 84.0379 9.50041 84.082 9.60589L103.116 43.0387C103.375 43.4802 103.797 43.8051 104.293 43.9451C104.789 44.0852 105.32 44.0295 105.776 43.7898L148.538 26.4738C148.95 26.3025 149.243 26.3289 149.416 26.4738C149.815 26.9219 149.775 28.1211 149.03 29.373L118.079 81.545C117.465 82.51 117.197 83.6524 117.321 84.7868L124.583 129.329C124.614 129.9 124.527 130.471 124.328 131.008C124.13 131.545 123.822 132.036 123.426 132.452C123.242 132.717 123.004 132.939 122.726 133.105C122.449 133.271 122.138 133.376 121.816 133.414L83.5899 132.254L83.5101 132.241Z" fill="#081E7A"/>
<path d="M81.5184 7.99581C81.5184 7.99581 82.8533 8.8647 83.1236 8.92414C83.2698 8.9749 83.4291 8.97215 83.5734 8.91637C83.7178 8.86059 83.8381 8.75535 83.9131 8.61912C83.9908 8.48398 84.0176 8.32515 83.9886 8.17172C83.9596 8.01829 83.8768 7.88052 83.7552 7.78363L83.5842 7.63775C79.5579 5.36998 70.4264 0.237668 70.1369 0.131574C69.8463 0.0275327 69.5376 -0.0155462 69.2299 0.00497863C68.9222 0.0255034 68.6219 0.109204 68.3474 0.250936C67.0472 0.938954 66.0685 2.11596 65.6238 3.5266L46.6897 59.12C46.5473 59.5283 46.3527 59.9162 46.1107 60.2738C46.0602 60.3511 46.0259 60.4381 46.01 60.5293C45.9942 60.6206 45.9971 60.7142 46.0186 60.8042C46.0379 60.8919 46.0747 60.9748 46.1267 61.0477C46.1787 61.1207 46.2449 61.1822 46.3213 61.2286L47.5713 60.4727C73.7163 75.5995 73.1252 30.5405 81.5184 7.99581ZM81.5184 7.99581C73.1252 30.5405 73.7163 75.5995 47.5713 60.4727C47.7105 60.1973 47.8336 59.9139 47.9397 59.6239L66.8738 3.95097C67.2043 2.89131 67.9246 1.99926 68.8869 1.45775C69.1152 1.32914 69.3845 1.29581 69.6369 1.36492C69.9527 1.5108 76.6237 5.23736 81.5184 7.99581Z" fill="#081E7A"/>
<defs>
<linearGradient id="paint0_linear_3156_18877" x1="151" y1="1" x2="-26.0493" y2="148.541" gradientUnits="userSpaceOnUse">
<stop stop-color="#E64C4E"/>
<stop offset="1" stop-color="#EF33F9"/>
</linearGradient>
<linearGradient id="paint1_linear_3156_18877" x1="47" y1="116" x2="8.96957" y2="128.287" gradientUnits="userSpaceOnUse">
<stop stop-color="#E64C4E"/>
<stop offset="1" stop-color="#EF33F9"/>
</linearGradient>
</defs>
</svg>
