<svg width="157" height="184" viewBox="0 0 157 184" fill="none" xmlns="http://www.w3.org/2000/svg">
<path d="M147.962 38.1817L126.192 50.8363C123.625 44.2127 119.409 39.4426 113.993 36.8372C112.019 35.6295 109.117 33.8901 106.572 32.5228C101.909 30.0238 96.3028 29.1883 90.0895 30.1909V5.43623L81.9392 0.51416L66.5425 9.40123L66.9223 41.1668C47.7354 55.8799 31.9817 82.7234 28.6775 106.635L1.21875 122.875V140.391L9.76401 145.176L31.5108 132.506L31.7462 134.663C33.2355 137.847 35.3633 140.691 37.9976 143.019C39.1673 144.021 44.1805 146.817 47.7809 148.761C52.7866 152.559 59.2278 154.078 66.5425 153.053V178.24L75.422 182.957L90.0895 174.496V142.631C109.656 127.622 125.136 100.893 128.365 76.548L156.173 60.4829V43.0126L147.962 38.1817ZM101.483 92.2713L106.086 89.5292L104.613 92.8714C101.248 101.177 96.6042 108.904 90.8491 115.773V110.98L82.4937 106.058L66.5425 115.173V133.456C66.5425 133.456 63.3903 134.831 54.9362 135.036C54.6779 134.785 47.8037 131.405 47.5531 131.131V123.703L64.2638 113.752V96.2819L56.1211 91.0484L48.8519 95.34L61.8559 71.0335L66.9907 66.476L66.9223 73.0691L75.2777 77.3532L90.8491 68.2382V50.1299C95.604 48.5347 102.873 47.6916 102.873 47.6916C105.912 51.0869 108.859 60.7564 108.859 60.7564L109.087 60.8855L93.1278 70.3423V87.7518L101.483 92.2713Z" fill="url(#paint0_linear_2920_17190)"/>
<path d="M28.6157 106.734L0.837891 123.164L9.4819 128.055L37.3812 112.005L28.6157 106.734Z" fill="url(#paint1_linear_2920_17190)"/>
<path d="M64.5 96L56 91L48.5 95L47 106.5L64.5 96Z" fill="#FFECFA"/>
<path d="M103.481 49.6592C103.385 49.5377 103.286 49.4237 103.185 49.3174L103.481 49.6592Z" fill="#399EFF"/>
<path d="M67 133.5L55 135L57 141L69.5 143L88.5 136.5L109 116.5L119 88C118.667 81.6667 117.9 68.2 117.5 65C117 61 114 56 110.5 52.5C107.3 49.7 104.167 49 103 49C104.6 49.4 107.667 57.1667 109 61L93 70L92.5 87.5L102 92L106 89.5C104.8 96.7 95.5 109.5 91 115V111L82.5 105.5L67 115.5V133.5Z" fill="#FFECFA"/>
<path d="M117.131 65.5876C117.131 65.5876 113.72 50.396 109.535 48.1705C108.114 47.4109 103.192 49.3174 103.192 49.3174C106.117 52.8799 108.866 60.7795 108.866 60.7795L117.131 65.5876Z" fill="#FFECFA"/>
<path d="M75.657 13.9658L66.9219 9.33238L82.0679 0.582031L90.2789 5.42814L75.657 13.9658Z" fill="url(#paint2_linear_2920_17190)"/>
<path d="M31.7228 135.089C33.2221 138.32 35.3768 141.204 38.0501 143.558C39.9338 145.184 51.7909 151.435 51.7909 151.435L37.3589 128.807L31.2822 131.724L31.7228 135.089Z" fill="url(#paint3_linear_2920_17190)"/>
<path d="M147.962 38.1816L124.909 51.5806L127.811 59.5562L156.173 43.0278L147.962 38.1816Z" fill="url(#paint4_linear_2920_17190)"/>
<path d="M1.21875 123.543V140.664L9.57412 145.343L9.95391 128.055L1.21875 123.543Z" fill="url(#paint5_linear_2920_17190)"/>
<path d="M66.543 9.12012L66.9228 41.1668L75.6579 45.9825L75.9466 13.8827L66.543 9.12012Z" fill="url(#paint6_linear_2920_17190)"/>
<path d="M66.9219 54.5811V73.0692L75.2772 77.5811V58.0827L66.9219 54.5811Z" fill="#FFECFA"/>
<path d="M67.3021 152.445L67.2109 177.891L75.6575 182.373V151.883L67.3021 152.445Z" fill="url(#paint7_linear_2920_17190)"/>
<path d="M156.173 43.0276L128.365 59.0775C125.137 38.4549 109.656 29.621 90.0896 37.2168V5.64111L75.6576 13.9965V45.9824C56.1136 60.9688 40.6562 87.6681 37.428 111.99L9.57422 128.024L9.95401 145.305L37.428 129.422C40.6562 150.022 56.1136 158.871 75.6576 151.29V182.896L90.0896 174.541V142.639C109.656 127.629 125.137 100.9 128.365 76.5554L156.173 60.4827V43.0276ZM90.8492 129.62V110.98L74.898 120.186V138.416C61.856 142.798 51.5713 136.722 48.7153 122.935L64.2639 113.676V96.2665L48.7153 105.526C51.5713 88.3669 61.856 70.0458 74.898 58.9028V77.5656L90.8492 68.3595V50.1297C103.891 45.7469 114.176 51.8159 117.024 65.5795L101.483 74.8615V92.2711L117.024 83.0118C114.176 100.171 103.891 118.492 90.8492 129.635V129.62Z" fill="white"/>
<path d="M56.4022 135.241L56.3643 134.481C63.8309 134.17 66.7401 132.962 66.7705 132.917L67.0743 133.615C66.9528 133.684 64.036 134.914 56.4022 135.241Z" fill="#081E7A"/>
<path d="M66.9438 40.6599L66.5576 41.314L74.7662 46.1608L75.1524 45.5067L66.9438 40.6599Z" fill="#081E7A"/>
<path d="M66.9215 8.77853L66.582 9.45801L75.8705 14.0992L76.21 13.4197L66.9215 8.77853Z" fill="#081E7A"/>
<path d="M116.941 65.7086L108.669 60.9004C108.586 60.8545 108.523 60.7784 108.495 60.6878C108.495 60.6118 105.866 52.659 102.896 49.3624L103.466 48.8535C106.353 52.0665 108.783 59.1914 109.171 60.3156L117.321 65.0477L116.941 65.7086Z" fill="#081E7A"/>
<path d="M67.1149 114.565L66.7227 115.215L74.7625 120.063L75.1547 119.413L67.1149 114.565Z" fill="#081E7A"/>
<path d="M67.1111 132.947L66.7188 133.597L74.7577 138.447L75.1501 137.796L67.1111 132.947Z" fill="#081E7A"/>
<path d="M115.633 37.7259C115.588 37.7259 110.688 34.9611 106.389 32.652C101.839 30.3107 96.6748 29.4376 91.6078 30.1529L91.5166 29.3934C96.7505 28.6473 102.087 29.5499 106.784 31.9759C111.091 34.2547 115.998 37.0271 116.043 37.0575L115.633 37.7259Z" fill="#081E7A"/>
<path d="M41.5004 71L40.8623 70.5898C46.5 60.5 58.3544 46.9474 66.5427 40.6885L67.0061 41.2885C58.328 48.1258 47.2455 61 41.5004 71Z" fill="#081E7A"/>
<path d="M28.9885 106.574L28.5 106C29.9854 96.1941 35 81.5 41.0879 70.1978L41.5004 70.9997C36.5 79.79 30.458 96.8469 28.9885 106.574Z" fill="#081E7A"/>
<path d="M51.1299 151.61C50.6666 151.351 39.6907 145.267 37.7993 143.626C35.0875 141.245 32.9016 138.324 31.3809 135.051L32.0645 134.724C33.5412 137.91 35.662 140.754 38.293 143.079C40.1312 144.659 51.3882 150.911 51.5021 150.972L51.1299 151.61Z" fill="#081E7A"/>
<path d="M91.7604 115.089L91.168 114.61C96.6157 107.947 101.028 100.5 104.256 92.5215L104.962 92.8025C101.704 100.851 97.2534 108.364 91.7604 115.089Z" fill="#081E7A"/>
<path d="M67.3025 41.1668H66.543V9.11253C66.5448 9.04656 66.5632 8.9821 66.5963 8.92504C66.6295 8.86799 66.6764 8.82015 66.7329 8.78591L81.8789 0.0507526C81.938 0.0174792 82.0047 0 82.0726 0C82.1404 0 82.2071 0.0174792 82.2663 0.0507526L90.6672 5.10195L90.2722 5.75519L82.0688 0.817927L67.3025 9.3404V41.1668Z" fill="#081E7A"/>
<path d="M75.1034 77.6949L66.7481 73.3729C66.6867 73.3412 66.6352 73.2932 66.599 73.2344C66.5629 73.1755 66.5435 73.1078 66.543 73.0387V67.7217H67.3025V72.7729L75.4528 76.9885L75.1034 77.6949Z" fill="#081E7A"/>
<path d="M67.3025 133.266H66.543V114.899C66.5434 114.833 66.5611 114.768 66.5944 114.711C66.6277 114.653 66.6755 114.606 66.7329 114.572L82.4486 105.579C82.5077 105.546 82.5744 105.528 82.6422 105.528C82.7101 105.528 82.7768 105.546 82.8359 105.579L89.4671 109.499L89.0873 110.152L82.6384 106.354L67.3025 115.119V133.266Z" fill="#081E7A"/>
<path d="M74.9364 183.223L66.7329 178.377C66.6745 178.345 66.6258 178.298 66.5924 178.24C66.5589 178.183 66.5418 178.117 66.543 178.05V156.623H67.3026V177.838L75.3238 182.57L74.9364 183.223Z" fill="#081E7A"/>
<path d="M101.696 92.4001L92.5808 87.8426C92.5175 87.8126 92.464 87.7653 92.4263 87.7062C92.3887 87.647 92.3686 87.5785 92.3682 87.5084V70.1368C92.3687 70.0696 92.3865 70.0036 92.4197 69.9451C92.4529 69.8866 92.5006 69.8375 92.5581 69.8026L108.555 60.5737L108.935 61.227L93.1277 70.3495V87.3489L102.03 91.762L101.696 92.4001Z" fill="#081E7A"/>
<path d="M128.129 49.9403L127.749 49.287L147.772 37.6427C147.829 37.6093 147.895 37.5918 147.961 37.5918C148.028 37.5918 148.094 37.6093 148.151 37.6427L156.742 42.4888L156.362 43.1496L147.969 38.4099L128.129 49.9403Z" fill="#081E7A"/>
<path d="M64.4537 96.388L56.0983 91.4507L53.1208 93.1978L52.7334 92.5445L55.9084 90.6836C55.9676 90.6503 56.0343 90.6328 56.1021 90.6328C56.17 90.6328 56.2367 90.6503 56.2958 90.6836L64.8335 95.7044L64.4537 96.388Z" fill="#081E7A"/>
<path d="M9.77902 145.647L0.664071 141.014C0.602648 140.98 0.551285 140.931 0.515246 140.871C0.479207 140.811 0.45979 140.742 0.458984 140.672L0.458984 123.202H1.21856V140.444L10.1284 145.002L9.77902 145.647Z" fill="#081E7A"/>
<path d="M76.0369 183.056C75.9698 183.057 75.9038 183.039 75.8471 183.003C75.7891 182.97 75.741 182.923 75.7076 182.866C75.6742 182.808 75.6568 182.743 75.6572 182.676V151.686C66.1168 155.263 57.4273 155.05 50.5227 151.063C43.6181 147.075 39.1442 139.76 37.4731 129.886L10.1283 145.662C10.0705 145.695 10.0051 145.713 9.93838 145.713C9.87172 145.713 9.80622 145.695 9.74849 145.662C9.69109 145.629 9.64336 145.581 9.61005 145.524C9.57673 145.467 9.55899 145.402 9.55859 145.335V127.865C9.55899 127.799 9.57673 127.734 9.61005 127.677C9.64336 127.619 9.69109 127.572 9.74849 127.539L37.3896 111.587C40.7165 87.1213 56.0524 60.6272 75.6572 45.5116V13.7612C75.6576 13.6949 75.6753 13.6299 75.7086 13.5726C75.7419 13.5153 75.7897 13.4677 75.8471 13.4346L90.2791 5.0792C90.3368 5.04587 90.4023 5.02832 90.469 5.02832C90.5356 5.02832 90.6011 5.04587 90.6588 5.0792C90.7162 5.11234 90.764 5.15992 90.7973 5.21722C90.8306 5.27452 90.8483 5.33954 90.8487 5.40582V36.4574C100.389 32.8798 109.079 33.0925 115.983 37.0803C122.888 41.0681 127.377 48.3676 129.033 58.3029L156.378 42.5188C156.435 42.4855 156.501 42.468 156.568 42.468C156.634 42.468 156.7 42.4855 156.757 42.5188C156.815 42.5538 156.863 42.6028 156.896 42.6613C156.929 42.7198 156.947 42.7858 156.947 42.8531V60.3234C156.947 60.3906 156.929 60.4567 156.896 60.5151C156.863 60.5736 156.815 60.6227 156.757 60.6576L129.116 76.6087C125.789 101.022 110.453 127.501 90.8487 142.609V174.359C90.8482 174.426 90.8304 174.492 90.7972 174.551C90.764 174.609 90.7163 174.658 90.6588 174.693L76.2268 183.049C76.1655 183.069 76.0997 183.072 76.0369 183.056ZM76.0369 150.759C76.1121 150.759 76.1856 150.78 76.2496 150.82C76.3012 150.855 76.3434 150.903 76.3725 150.959C76.4016 151.014 76.4168 151.076 76.4167 151.139V182.023L90.0892 174.124V142.426C90.0886 142.367 90.102 142.309 90.1284 142.256C90.1548 142.203 90.1935 142.157 90.2411 142.122C109.815 127.106 125.136 100.649 128.372 76.2821C128.379 76.2245 128.399 76.1692 128.43 76.1204C128.462 76.0717 128.504 76.0309 128.554 76.0011L156.173 60.0499V43.4759L128.934 59.1992C128.88 59.2272 128.82 59.2418 128.759 59.2418C128.699 59.2418 128.639 59.2272 128.585 59.1992C128.528 59.1742 128.479 59.1352 128.442 59.0861C128.405 59.0369 128.381 58.9792 128.372 58.9182C126.807 48.9449 122.394 41.6074 115.603 37.6955C108.813 33.7837 100.131 33.6242 90.6057 37.3157C90.5479 37.3362 90.4861 37.3426 90.4253 37.3345C90.3646 37.3264 90.3066 37.3041 90.2562 37.2692C90.2058 37.2344 90.1644 37.188 90.1353 37.1341C90.1063 37.0801 90.0905 37.02 90.0892 36.9587V6.07425L76.4167 13.9815V45.7015C76.4174 45.7595 76.4039 45.8168 76.3774 45.8684C76.351 45.92 76.3123 45.9644 76.2648 45.9977C56.6677 61.0146 41.3622 87.4783 38.134 111.846C38.1271 111.903 38.1071 111.959 38.0755 112.007C38.0439 112.056 38.0015 112.097 37.9517 112.127L10.3334 128.07V144.644L37.5719 128.921C37.6252 128.891 37.6854 128.875 37.7466 128.875C37.8078 128.875 37.8679 128.891 37.9213 128.921C37.9764 128.948 38.0245 128.987 38.0614 129.036C38.0984 129.085 38.1233 129.142 38.134 129.202C39.6531 139.175 44.1118 146.513 50.9025 150.425C57.6931 154.336 66.3751 154.496 75.9002 150.804C75.9438 150.787 75.99 150.777 76.0369 150.774V150.759ZM67.3018 139.965C64.1802 140.007 61.1033 139.221 58.3843 137.686C53.5306 134.906 50.2037 129.756 48.7605 122.814C48.7451 122.736 48.7543 122.656 48.787 122.583C48.8197 122.511 48.8742 122.451 48.9428 122.411L64.3015 113.296V96.73L49.2922 105.647C49.23 105.685 49.1586 105.703 49.0862 105.701C49.0138 105.699 48.9436 105.676 48.8837 105.636C48.8239 105.595 48.7769 105.538 48.7483 105.471C48.7197 105.405 48.7108 105.332 48.7225 105.26C51.5937 88.0024 61.9164 69.613 75.0267 58.4016C75.0839 58.3565 75.1522 58.3277 75.2244 58.3184C75.2967 58.309 75.3701 58.3194 75.4369 58.3485C75.5028 58.3779 75.5587 58.4259 75.5978 58.4866C75.6369 58.5473 75.6576 58.6181 75.6572 58.6903V76.7151L90.8487 67.942V49.9475C90.8504 49.8688 90.876 49.7925 90.9222 49.7287C90.9683 49.665 91.0328 49.6167 91.107 49.5905C97.5254 47.4333 103.427 47.7296 108.16 50.4413C113.013 53.2289 116.34 58.3713 117.776 65.3214C117.792 65.3983 117.784 65.4784 117.752 65.5505C117.721 65.6226 117.668 65.6832 117.601 65.724L102.242 74.8693V91.3902L117.214 82.4803C117.276 82.4431 117.347 82.4245 117.42 82.4266C117.492 82.4287 117.562 82.4515 117.622 82.4922C117.682 82.5329 117.729 82.5899 117.758 82.6564C117.786 82.7229 117.795 82.7962 117.783 82.8677C114.912 100.118 104.59 118.507 91.4792 129.719C91.4241 129.767 91.3562 129.798 91.2837 129.809C91.2111 129.82 91.1371 129.809 91.0704 129.779C91.0038 129.748 90.9474 129.699 90.908 129.637C90.8687 129.575 90.8481 129.503 90.8487 129.43V111.428L75.6572 120.201V138.18C75.6555 138.259 75.6299 138.335 75.5837 138.399C75.5376 138.463 75.4731 138.511 75.3989 138.537C72.7941 139.445 70.06 139.927 67.3018 139.965ZM49.52 122.913C50.9481 129.513 54.1231 134.382 58.7261 137.026C63.2001 139.593 68.8209 139.897 74.8976 137.899V120.011C74.8972 119.945 74.9146 119.879 74.948 119.822C74.9814 119.764 75.0296 119.717 75.0875 119.684L91.0386 110.471C91.0964 110.437 91.1619 110.42 91.2285 110.42C91.2952 110.42 91.3607 110.437 91.4184 110.471C91.4748 110.505 91.5218 110.553 91.555 110.61C91.5881 110.667 91.6065 110.731 91.6083 110.797V128.632C104.088 117.664 113.917 100.156 116.895 83.5817L102.06 92.4156C102.002 92.4511 101.935 92.47 101.866 92.47C101.798 92.47 101.731 92.4511 101.673 92.4156C101.615 92.3807 101.568 92.3316 101.534 92.2731C101.501 92.2147 101.483 92.1487 101.483 92.0814V74.649C101.483 74.5836 101.5 74.5194 101.532 74.4623C101.564 74.4052 101.61 74.357 101.665 74.3224L116.978 65.2075C115.558 58.6143 112.375 53.7378 107.78 51.1021C103.306 48.5347 97.685 48.2309 91.6083 50.221V68.147C91.6079 68.2133 91.5902 68.2783 91.5569 68.3356C91.5236 68.3929 91.4758 68.4405 91.4184 68.4737L75.4673 77.6873C75.4095 77.7207 75.344 77.7382 75.2774 77.7382C75.2107 77.7382 75.1452 77.7207 75.0875 77.6873C75.03 77.6524 74.9824 77.6034 74.9491 77.5449C74.9159 77.4864 74.8982 77.4204 74.8976 77.3531V59.5258C62.4177 70.4941 52.5887 87.9948 49.6112 104.569L64.4458 95.7046C64.5049 95.6713 64.5716 95.6538 64.6395 95.6538C64.7073 95.6538 64.774 95.6713 64.8332 95.7046C64.8911 95.7371 64.9392 95.7846 64.9726 95.842C65.006 95.8994 65.0234 95.9648 65.0231 96.0312V113.441C65.0234 113.506 65.0068 113.571 64.9749 113.628C64.943 113.685 64.8967 113.733 64.8408 113.767L49.52 122.913Z" fill="#081E7A"/>
<path d="M83.2537 16.8604H82.4941V66.9926H83.2537V16.8604Z" fill="#081E7A"/>
<path d="M83.2537 122.442H82.4941V171.815H83.2537V122.442Z" fill="#081E7A"/>
<path d="M58.5553 108.682L14.1494 134.599L14.5323 135.255L58.9381 109.338L58.5553 108.682Z" fill="#081E7A"/>
<path d="M8.85239 128.108L0.648938 123.262C0.590472 123.23 0.541862 123.183 0.508385 123.125C0.474908 123.068 0.457843 123.002 0.459044 122.936C0.459444 122.869 0.477182 122.804 0.510495 122.747C0.543809 122.69 0.591538 122.642 0.648938 122.609L28.3736 106.605C28.4313 106.571 28.4968 106.554 28.5635 106.554C28.6301 106.554 28.6956 106.571 28.7534 106.605L36.9644 111.451L36.577 112.104L28.5635 107.372L1.59082 122.936L9.23978 127.493L8.85239 128.108Z" fill="#081E7A"/>
<path d="M93.0581 69.4826L92.6719 70.1367L100.88 74.9835L101.267 74.3295L93.0581 69.4826Z" fill="#081E7A"/>
<path d="M150.989 54.6006L106.583 80.5181L106.966 81.1741L151.372 55.2566L150.989 54.6006Z" fill="#081E7A"/>
<defs>
<linearGradient id="paint0_linear_2920_17190" x1="1.21875" y1="0.51416" x2="181.256" y2="153.425" gradientUnits="userSpaceOnUse">
<stop stop-color="#E64C4E"/>
<stop offset="1" stop-color="#EF33F9"/>
</linearGradient>
<linearGradient id="paint1_linear_2920_17190" x1="0.837891" y1="106.734" x2="19.3993" y2="138.547" gradientUnits="userSpaceOnUse">
<stop stop-color="#E64C4E"/>
<stop offset="1" stop-color="#EF33F9"/>
</linearGradient>
<linearGradient id="paint2_linear_2920_17190" x1="66.9219" y1="0.582031" x2="78.4687" y2="20.7332" gradientUnits="userSpaceOnUse">
<stop stop-color="#E64C4E"/>
<stop offset="1" stop-color="#EF33F9"/>
</linearGradient>
<linearGradient id="paint3_linear_2920_17190" x1="31.2822" y1="128.807" x2="53.8011" y2="149.217" gradientUnits="userSpaceOnUse">
<stop stop-color="#E64C4E"/>
<stop offset="1" stop-color="#EF33F9"/>
</linearGradient>
<linearGradient id="paint4_linear_2920_17190" x1="124.909" y1="38.1816" x2="144.826" y2="67.314" gradientUnits="userSpaceOnUse">
<stop stop-color="#E64C4E"/>
<stop offset="1" stop-color="#EF33F9"/>
</linearGradient>
<linearGradient id="paint5_linear_2920_17190" x1="1.21875" y1="123.543" x2="16.2721" y2="129.575" gradientUnits="userSpaceOnUse">
<stop stop-color="#E64C4E"/>
<stop offset="1" stop-color="#EF33F9"/>
</linearGradient>
<linearGradient id="paint6_linear_2920_17190" x1="66.543" y1="9.12012" x2="84.201" y2="13.6247" gradientUnits="userSpaceOnUse">
<stop stop-color="#E64C4E"/>
<stop offset="1" stop-color="#EF33F9"/>
</linearGradient>
<linearGradient id="paint7_linear_2920_17190" x1="67.2109" y1="151.883" x2="82.8999" y2="156.23" gradientUnits="userSpaceOnUse">
<stop stop-color="#E64C4E"/>
<stop offset="1" stop-color="#EF33F9"/>
</linearGradient>
</defs>
</svg>
