<svg width="141" height="175" viewBox="0 0 141 175" fill="none" xmlns="http://www.w3.org/2000/svg">
<path d="M5.07785 77.2848C5.1239 76.4884 5.35422 75.714 5.75031 75.0241C6.14639 74.3342 6.69716 73.748 7.35825 73.3126L128.911 2.30895C129.145 2.13637 129.421 2.03166 129.709 2.00613C129.997 1.98059 130.287 2.0352 130.547 2.16406L139.263 7.43805C139.513 7.59705 139.714 7.82401 139.843 8.093C139.971 8.36199 140.023 7.66219 139.991 7.9593V126.786C139.991 128.307 138.522 130.034 137.472 129.756L110.632 122.439C108.689 122.052 106.672 122.455 105.021 123.562L17.9602 174.391C17.5124 174.716 16.9894 174.919 16.4415 174.98C15.8937 175.042 15.3395 174.959 14.8322 174.741H14.7725L6.41504 169.815C5.93239 169.494 5.54663 169.045 5.30017 168.517C5.05371 167.989 4.95613 167.402 5.01816 166.821L5.07785 77.2848Z" fill="#E3FFFF"/>
<path d="M14.2079 175L3.42326 168.276C2.93781 167.955 2.54979 167.505 2.30191 166.976C2.05403 166.447 1.95589 165.86 2.01826 165.278V75.6504C2.06458 74.853 2.29623 74.0776 2.69461 73.3868C3.09299 72.696 3.64696 72.109 4.31187 71.6731L125.756 1.30928C125.991 1.13648 126.268 1.03164 126.558 1.00607C126.848 0.980501 127.14 1.03518 127.401 1.16421L139 7.12001L14.2079 175Z" fill="url(#paint0_linear_3156_18892)"/>
<path d="M14 82.7686V171.753C14 174.646 16.0445 175.829 18.5289 174.383L105.184 124.076C106.828 122.98 108.835 122.58 110.77 122.964L137.492 130.207C138.538 130.482 140 128.773 140 127.267V9.62075C140 8.17452 138.99 7.58886 137.742 8.306L16.2704 78.8244C15.6113 79.2572 15.0625 79.8396 14.6682 80.5247C14.2738 81.2098 14.045 81.9784 14 82.7686Z" fill="white"/>
<path d="M14.7799 175L15.3767 173.954L3.29987 167.827C2.91098 167.556 2.60309 167.183 2.40953 166.749C2.21597 166.314 2.14418 165.835 2.20187 165.362L2.40953 75.9537C2.45422 75.2653 2.6563 74.5966 2.99998 74C3.34367 73.4034 3.81964 72.8949 4.3907 72.5143L126.012 1.70713C126.154 1.59674 126.322 1.52542 126.5 1.50013C126.678 1.47483 126.859 1.49643 127.026 1.56282L140 8.5L140.525 7.4177L127.599 0.50457C127.254 0.330928 126.87 0.253817 126.486 0.281321C126.101 0.308824 125.732 0.439928 125.415 0.6609L3.79396 71.4441C3.03986 71.9269 2.41203 72.5854 1.96338 73.364C1.51472 74.1425 1.25842 75.0183 1.21605 75.9176L1.00839 165.326C0.942291 166.013 1.06685 166.705 1.36819 167.325C1.66954 167.945 2.1358 168.469 2.71506 168.837L14.7799 175Z" fill="#081E7A"/>
<path d="M16.15 175C16.9721 174.973 17.7724 174.73 18.4703 174.296L105.662 124.058C107.18 123.046 109.034 122.665 110.829 122.996L137.716 130.29C138.017 130.35 138.328 130.34 138.624 130.261C138.92 130.183 139.195 130.037 139.426 129.837C139.9 129.461 140.286 128.986 140.557 128.446C140.827 127.905 140.976 127.313 140.993 126.709V9.21007C141.024 8.82478 140.951 8.43835 140.783 8.09019C140.615 7.74203 140.357 7.44461 140.036 7.22827C139.687 7.05504 139.298 6.97809 138.909 7.00537C138.52 7.03266 138.145 7.1632 137.824 7.38348L15.5998 77.8206C14.8453 78.304 14.2172 78.9603 13.7678 79.7348C13.3185 80.5093 13.0609 81.3797 13.0164 82.2736V171.156C12.9535 171.825 13.0725 172.498 13.3608 173.105C13.6492 173.713 14.0963 174.231 14.655 174.606C15.1092 174.868 15.6254 175.004 16.15 175ZM109.645 121.647C108.04 121.703 106.477 122.176 105.112 123.02L17.8723 173.269C17.5281 173.598 17.086 173.808 16.6124 173.865C16.1389 173.922 15.6596 173.824 15.2467 173.585C14.8338 173.347 14.5097 172.981 14.3231 172.543C14.1366 172.105 14.0977 171.618 14.2124 171.156V82.2736C14.2572 81.5902 14.4597 80.9264 14.8041 80.3341C15.1486 79.7418 15.6256 79.237 16.1979 78.8592L138.422 8.42212C138.563 8.31056 138.731 8.2376 138.91 8.21039C139.088 8.18318 139.27 8.20267 139.438 8.26693C139.572 8.38214 139.674 8.52865 139.737 8.69328C139.8 8.85791 139.82 9.03549 139.797 9.21007V126.709C139.77 127.118 139.659 127.517 139.469 127.881C139.28 128.244 139.017 128.565 138.697 128.822C138.514 128.987 138.273 129.072 138.027 129.061L111.14 121.897C110.656 121.745 110.152 121.661 109.645 121.647Z" fill="#081E7A"/>
<path d="M124.6 81.942L125.198 82.9785L89.6144 103.523L89.016 102.486L124.6 81.942Z" fill="#081E7A"/>
<path d="M49.5867 127L80 109.037L79.4016 108L49 125.963L49.5867 127Z" fill="#081E7A"/>
<path d="M124.747 61.9817L125.346 63.0176L33.1828 116.357L32.5833 115.321L124.747 61.9817Z" fill="#081E7A"/>
<path d="M124.603 42.3029L125.203 43.3384L71.1096 74.6952L70.5093 73.6597L124.603 42.3029Z" fill="#081E7A"/>
<defs>
<linearGradient id="paint0_linear_3156_18892" x1="139" y1="1" x2="-30.1431" y2="134.176" gradientUnits="userSpaceOnUse">
<stop stop-color="#E64C4E"/>
<stop offset="1" stop-color="#EF33F9"/>
</linearGradient>
</defs>
</svg>
