<svg width="164" height="183" viewBox="0 0 164 183" fill="none" xmlns="http://www.w3.org/2000/svg">
<path opacity="0.08" fill-rule="evenodd" clip-rule="evenodd" d="M1.60327 149.74L47.9352 177.843C49.2001 178.613 50.645 179.038 52.1256 179.076C53.6063 179.114 55.0709 178.762 56.3733 178.057L57.0315 177.702L65.3439 182.524L81.5545 173.169L73.2939 168.391L139.808 129.987L147.943 134.713L163.998 125.476L156.1 120.654L160.537 118.169C161.054 117.88 161.485 117.457 161.785 116.946C162.085 116.434 162.243 115.852 162.243 115.259C162.243 114.666 162.085 114.084 161.785 113.573C161.485 113.061 161.054 112.639 160.537 112.349L108.193 83.2854C106.873 82.5508 105.382 82.182 103.872 82.2171C102.363 82.2522 100.89 82.69 99.6066 83.4851L1.58108 144.053C1.0958 144.353 0.695613 144.773 0.4188 145.272C0.141987 145.771 -0.00220052 146.332 2.53863e-05 146.903C0.0022513 147.473 0.150816 148.034 0.431513 148.531C0.712211 149.027 1.11565 149.444 1.60327 149.74Z" fill="black"/>
<path d="M154.562 25.7422L154.776 25.8605C154.708 25.8157 154.636 25.7761 154.562 25.7422Z" fill="#E3FFFF"/>
<path d="M159.324 109.864V103.527L157.845 100.021V97.6103C157.855 97.3179 157.78 97.029 157.629 96.7784C157.478 96.5277 157.258 96.3261 156.995 96.1978L145.643 89.6456L146.013 38.7137L154.51 29.928C155.205 29.1885 154.961 28.0718 154.961 27.0808C154.961 27.0808 154.806 25.9345 154.222 25.5647L112.09 0.930774C111.429 0.546553 110.674 0.350369 109.909 0.363403C109.144 0.376436 108.397 0.598191 107.749 1.00473L81.9541 29.573L53.3784 45.584C52.9897 45.7995 52.6836 46.1382 52.5084 46.5468C52.3332 46.9553 52.2988 47.4105 52.4106 47.8407C52.5224 48.2709 52.7741 48.6518 53.126 48.9233C53.4779 49.1949 53.9101 49.3418 54.3546 49.3408C54.7244 49.3408 82.1464 34.0102 82.1464 34.0102L103.12 46.1238V67.4521L96.1384 71.3272C95.7469 71.5438 95.4388 71.8848 95.2628 72.2961C95.0867 72.7075 95.0529 73.1658 95.1666 73.5986C95.2803 74.0313 95.5351 74.4138 95.8906 74.6855C96.246 74.9573 96.682 75.1027 97.1294 75.0989C97.4736 75.0954 97.8116 75.0064 98.113 74.84L93.9124 77.6799V80.8229L8.46639 134.069C7.17543 134.988 6.10675 136.185 5.33888 137.571C4.57101 138.957 4.12348 140.497 4.02917 142.079V145.776C4.02917 147.255 4.56904 148.35 5.43429 148.838L50.583 175.506C51.4187 176.578 52.9125 176.763 54.6209 175.772L57.4385 174.145L65.9358 179.07L74.0189 174.419C74.0644 173.939 73.9903 173.455 73.8032 173.012C73.616 172.568 73.3217 172.177 72.9466 171.875L67.1782 168.524L141.598 125.557L149.991 130.424L158.075 125.772C158.12 125.292 158.046 124.809 157.859 124.365C157.672 123.921 157.377 123.53 157.002 123.228C157.002 123.228 154.089 121.527 151.337 119.937L154.577 118.059C155.958 117.163 157.108 115.955 157.933 114.531C158.758 113.107 159.235 111.508 159.324 109.864ZM140.096 86.4803L108.023 67.6L109.036 48.801L125.091 56.4773L140.096 44.519V86.4803Z" fill="white"/>
<path d="M74.1373 174.418C74.1373 171.83 72.3329 170.795 70.0995 172.089C68.9236 172.852 67.9444 173.882 67.2415 175.095C66.5386 176.309 66.1318 177.67 66.0542 179.07C66.0542 179.07 74.1373 174.418 74.1373 174.418Z" fill="url(#paint0_linear_2940_24098)"/>
<path d="M158.201 125.772C158.201 123.191 156.389 122.148 154.155 123.442C152.979 124.205 152 125.236 151.297 126.449C150.594 127.662 150.188 129.023 150.11 130.423L158.201 125.772Z" fill="url(#paint1_linear_2940_24098)"/>
<path d="M98.586 83.0708L12.7184 136.665C11.4377 137.582 10.3784 138.774 9.61828 140.153C8.85815 141.533 8.41645 143.065 8.32556 144.637L45.1988 166.387C45.2899 164.814 45.7308 163.282 46.4895 161.901C47.2482 160.521 48.3055 159.327 49.5843 158.407L135.881 104.606L98.586 83.0708Z" fill="#FFECFA"/>
<path d="M94.2454 77.6797V80.5195L140.836 107.357V104.517L94.2454 77.6797Z" fill="url(#paint2_linear_2940_24098)"/>
<path d="M139.357 45.5323V96.368C139.357 97.2185 140.148 98.0763 141.731 98.4387C142.359 98.5792 143.011 98.5792 143.639 98.4387C145.222 98.0763 146.013 97.2185 146.013 96.368V38.8765L139.357 45.5323Z" fill="#FFECFA"/>
<path d="M109.776 64.0205V49.7844L103.12 45.3472V67.7181L109.776 64.0205Z" fill="#FFECFA"/>
<path d="M125.321 54.5396L81.7027 29.5729L53.127 45.5838C52.7377 45.7997 52.4313 46.139 52.2562 46.5483C52.0812 46.9576 52.0473 47.4135 52.1601 47.8442C52.2728 48.2748 52.5257 48.6557 52.8789 48.9266C53.2321 49.1976 53.6654 49.3433 54.1106 49.3407C54.4531 49.3415 54.7897 49.2522 55.0868 49.0818L81.9246 34.0101C83.9879 35.2007 113.836 52.4319 121.756 56.9949L95.8722 71.3049C95.4867 71.5225 95.184 71.8617 95.0116 72.2694C94.8391 72.6771 94.8065 73.1305 94.9188 73.5587C95.0311 73.987 95.2821 74.3659 95.6325 74.6365C95.9829 74.9071 96.4131 75.054 96.8558 75.0543C97.1971 75.0535 97.5327 74.967 97.832 74.8029L125.417 59.1691L154.259 29.8761C154.992 29.2361 155.444 28.3326 155.516 27.3617C155.516 26.3559 153.179 23.982 151.079 26.2302C138.943 39.0463 125.321 54.5396 125.321 54.5396Z" fill="url(#paint3_linear_2940_24098)"/>
<path d="M88.3066 29.5359L108.681 5.29395L143.72 25.683L123.568 49.8436L88.3066 29.5359Z" fill="white"/>
<path d="M111.669 36.5097L116.66 30.0684L128.168 36.8573L123.102 43.0842L111.669 36.5097Z" fill="url(#paint4_linear_2940_24098)"/>
<path d="M135.067 26.0822C135.202 26.2049 135.31 26.3544 135.384 26.5213C135.458 26.6881 135.496 26.8685 135.496 27.051C135.496 27.2334 135.458 27.4138 135.384 27.5807C135.31 27.7475 135.202 27.8971 135.067 28.0198C134.781 28.277 134.41 28.4193 134.025 28.4193C133.64 28.4193 133.268 28.277 132.982 28.0198C132.846 27.8977 132.737 27.7483 132.663 27.5814C132.588 27.4145 132.55 27.2338 132.55 27.051C132.55 26.8682 132.588 26.6874 132.663 26.5205C132.737 26.3536 132.846 26.2042 132.982 26.0822C133.268 25.8249 133.64 25.6826 134.025 25.6826C134.41 25.6826 134.781 25.8249 135.067 26.0822Z" fill="#081E7A"/>
<path d="M132.568 29.0703C132.703 29.1923 132.811 29.3412 132.885 29.5074C132.958 29.6737 132.996 29.8535 132.996 30.0354C132.996 30.2172 132.958 30.397 132.885 30.5633C132.811 30.7295 132.703 30.8784 132.568 31.0004C132.283 31.2608 131.911 31.4052 131.525 31.4052C131.14 31.4052 130.768 31.2608 130.483 31.0004C130.347 30.8791 130.238 30.7303 130.164 30.564C130.089 30.3977 130.051 30.2176 130.051 30.0354C130.051 29.8531 130.089 29.673 130.164 29.5067C130.238 29.3404 130.347 29.1917 130.483 29.0703C130.768 28.8099 131.14 28.6655 131.525 28.6655C131.911 28.6655 132.283 28.8099 132.568 29.0703Z" fill="#081E7A"/>
<path d="M130.157 31.9616C130.292 32.0843 130.4 32.2338 130.474 32.4007C130.548 32.5675 130.586 32.7479 130.586 32.9304C130.586 33.1128 130.548 33.2932 130.474 33.4601C130.4 33.6269 130.292 33.7765 130.157 33.8992C129.871 34.1564 129.499 34.2987 129.115 34.2987C128.73 34.2987 128.358 34.1564 128.072 33.8992C127.936 33.7771 127.827 33.6277 127.752 33.4608C127.678 33.2939 127.639 33.1132 127.639 32.9304C127.639 32.7476 127.678 32.5668 127.752 32.3999C127.827 32.233 127.936 32.0836 128.072 31.9616C128.358 31.7043 128.73 31.562 129.115 31.562C129.499 31.562 129.871 31.7043 130.157 31.9616Z" fill="#081E7A"/>
<path d="M154.155 118.132L54.5988 175.609C51.9882 177.088 49.8732 175.905 49.8732 172.902V169.138C49.9627 167.574 50.4019 166.05 51.1583 164.678C51.9146 163.306 52.969 162.121 54.2438 161.21L140.097 107.668L140.407 104.665L151.966 97.3217C158.881 93.7054 158.045 99.5404 158.045 99.5404C158.045 99.5404 160.19 100.494 159.613 110.944C159.45 113.917 156.781 116.624 154.155 118.132Z" fill="url(#paint5_linear_2940_24098)"/>
<path d="M54.1107 49.7103C53.5873 49.7091 53.079 49.535 52.6648 49.215C52.2507 48.895 51.9539 48.4471 51.8206 47.9409C51.6873 47.4348 51.725 46.8988 51.9279 46.4163C52.1307 45.9338 52.4873 45.5319 52.9423 45.2731L81.5179 29.2695L81.8803 29.9203L53.3046 45.9091C52.9291 46.1219 52.653 46.4747 52.5366 46.8903C52.4202 47.306 52.473 47.7508 52.6834 48.1277C52.903 48.496 53.2552 48.7663 53.6677 48.8832C54.0803 49.0001 54.5219 48.9547 54.902 48.7563L80.2016 34.5646L80.5639 35.208L55.2644 49.4071C54.9125 49.6063 54.515 49.7107 54.1107 49.7103Z" fill="#081E7A"/>
<path d="M66.6334 168.263L66.2637 168.899L71.905 172.179L72.2748 171.543L66.6334 168.263Z" fill="#081E7A"/>
<path d="M57.7393 173.808L57.3683 174.448L65.8705 179.379L66.2415 178.739L57.7393 173.808Z" fill="#081E7A"/>
<path d="M65.9655 179.425C65.9386 179.43 65.911 179.43 65.8841 179.425C65.8233 179.394 65.7724 179.346 65.7371 179.287C65.7019 179.228 65.6836 179.161 65.6845 179.092C65.7669 177.628 66.1928 176.203 66.9277 174.934C67.6625 173.665 68.6857 172.586 69.9146 171.786C70.3578 171.411 70.9059 171.182 71.4842 171.13C72.0625 171.078 72.6426 171.206 73.1452 171.497C73.6478 171.787 74.0484 172.226 74.2922 172.753C74.536 173.28 74.6111 173.869 74.5071 174.441C74.5068 174.505 74.4895 174.568 74.4571 174.624C74.4246 174.68 74.3781 174.726 74.3223 174.759C67.1044 178.9 66.2021 179.425 65.9655 179.425ZM71.8818 171.904C71.3075 171.929 70.7494 172.102 70.2622 172.407C69.2345 173.078 68.3618 173.961 67.7025 174.997C67.0432 176.032 66.6123 177.197 66.4388 178.412L73.7454 174.204C73.7693 173.801 73.6909 173.399 73.5177 173.034C73.3445 172.669 73.0819 172.354 72.7544 172.118C72.4943 171.974 72.2013 171.901 71.904 171.904H71.8818Z" fill="#081E7A"/>
<path d="M151.744 119.678L151.372 120.317L156.943 123.551L157.315 122.911L151.744 119.678Z" fill="#081E7A"/>
<path d="M141.996 125.289L141.625 125.929L149.916 130.737L150.287 130.097L141.996 125.289Z" fill="#081E7A"/>
<path d="M150.021 130.778C149.994 130.783 149.967 130.783 149.94 130.778C149.88 130.746 149.83 130.697 149.795 130.639C149.76 130.58 149.741 130.514 149.74 130.445C149.824 128.982 150.25 127.559 150.985 126.292C151.72 125.024 152.742 123.946 153.97 123.146C155.176 122.451 156.322 122.348 157.202 122.858C157.675 123.183 158.051 123.629 158.292 124.149C158.533 124.67 158.629 125.246 158.57 125.816C158.57 125.881 158.553 125.944 158.52 126C158.488 126.055 158.441 126.102 158.385 126.134C151.16 130.261 150.265 130.778 150.021 130.778ZM155.938 123.257C155.361 123.282 154.801 123.455 154.311 123.76C153.284 124.433 152.412 125.316 151.753 126.352C151.094 127.387 150.663 128.55 150.487 129.765L157.794 125.557C157.818 125.155 157.74 124.753 157.567 124.39C157.394 124.026 157.131 123.713 156.803 123.479C156.548 123.335 156.26 123.259 155.967 123.257H155.938Z" fill="#081E7A"/>
<path d="M51.4632 176.445L5.61198 149.082C4.58402 148.506 4.02197 147.307 4.02197 145.703V141.916C4.10772 140.282 4.56203 138.687 5.35092 137.253C6.13981 135.819 7.24285 134.581 8.57752 133.633L93.247 80.7788L93.6316 81.4L8.97687 134.277C7.75045 135.162 6.73604 136.308 6.00702 137.633C5.27799 138.958 4.85256 140.429 4.76151 141.938V145.725C4.76151 147.049 5.19044 148.025 5.97435 148.461L51.8256 175.824L51.4632 176.445Z" fill="#081E7A"/>
<path d="M8.69535 144.637H7.95581C8.04262 143.003 8.49739 141.409 9.28619 139.975C10.075 138.541 11.1775 137.303 12.5114 136.354L98.3937 82.7603L98.7857 83.3815L12.9107 136.976C11.6843 137.861 10.6699 139.007 9.94085 140.332C9.21183 141.657 8.7864 143.128 8.69535 144.637Z" fill="#081E7A"/>
<path d="M45.5689 166.387H44.8293C44.9151 164.751 45.3693 163.156 46.1582 161.721C46.947 160.285 48.0501 159.046 49.3849 158.097L135.689 104.266L136.081 104.895L49.7842 158.711C48.5567 159.598 47.5417 160.747 46.8127 162.075C46.0837 163.402 45.6588 164.875 45.5689 166.387Z" fill="#081E7A"/>
<path d="M158.585 99.5182H157.845V97.8173C157.854 97.5708 157.788 97.3275 157.656 97.119C157.524 96.9106 157.332 96.7468 157.106 96.6488L157.446 95.998C157.787 96.162 158.073 96.4209 158.27 96.7437C158.466 97.0665 158.566 97.4394 158.555 97.8173L158.585 99.5182Z" fill="#081E7A"/>
<path d="M111.544 69.2657L111.172 69.9053L138.04 85.5049L138.411 84.8654L111.544 69.2657Z" fill="#081E7A"/>
<path d="M140.466 104.887C140.401 104.888 140.337 104.87 140.281 104.835L93.6905 77.9976C93.6378 77.9673 93.5933 77.9245 93.561 77.8729C93.5288 77.8213 93.5098 77.7625 93.5057 77.7018C93.5023 77.6389 93.5148 77.5762 93.5419 77.5194C93.569 77.4625 93.61 77.4134 93.661 77.3764L95.3989 76.1636L95.8278 76.7626L94.5558 77.6426L140.466 104.081L152.543 96.9076C153.46 96.2652 154.517 95.8495 155.627 95.6947L146.375 90.3257L146.745 89.6897L157.616 95.9979C157.696 96.0488 157.753 96.1283 157.776 96.22C157.799 96.3117 157.786 96.4088 157.739 96.4912C157.693 96.5735 157.617 96.635 157.526 96.663C157.436 96.6909 157.339 96.6832 157.254 96.6413C157.157 96.5894 157.056 96.5472 156.95 96.5156C155.812 96.205 154.384 96.5674 152.935 97.5362L140.658 104.828C140.6 104.862 140.534 104.883 140.466 104.887Z" fill="#081E7A"/>
<path d="M140.466 107.727C140.402 107.727 140.339 107.711 140.282 107.683L93.6907 80.8449C93.6348 80.8109 93.5884 80.7632 93.556 80.7062C93.5237 80.6493 93.5064 80.585 93.5059 80.5195V77.6797H94.2454V80.3124L140.097 106.721V104.503H140.836V107.342C140.837 107.408 140.82 107.473 140.788 107.53C140.755 107.588 140.708 107.635 140.651 107.668C140.595 107.703 140.532 107.723 140.466 107.727Z" fill="#081E7A"/>
<path d="M142.315 98.912C141.967 98.9121 141.62 98.8749 141.28 98.8011C139.32 98.35 138.618 97.2481 138.618 96.368V45.5323H139.357V96.368C139.357 97.1076 140.178 97.7879 141.443 98.0764C142.017 98.2096 142.614 98.2096 143.188 98.0764C144.452 97.7879 145.273 97.115 145.273 96.368V38.8765H146.013V96.368C146.013 97.2481 145.318 98.35 143.351 98.8011C143.01 98.8749 142.663 98.9121 142.315 98.912Z" fill="#081E7A"/>
<path d="M109.776 49.9692H109.036V64.0204H109.776V49.9692Z" fill="#081E7A"/>
<path d="M103.12 46.2715H102.38V67.718H103.12V46.2715Z" fill="#081E7A"/>
<path d="M125.424 55.1388C125.359 55.1401 125.295 55.1221 125.239 55.0871L81.5179 29.9428C81.4701 29.9158 81.4288 29.8786 81.3968 29.8339C81.3649 29.7892 81.3431 29.738 81.333 29.684C81.3264 29.6284 81.3315 29.572 81.3481 29.5185C81.3646 29.465 81.3923 29.4155 81.4292 29.3734L107.232 0.731152L107.313 0.664593C108.017 0.221877 108.83 -0.0191166 109.662 -0.0321561C110.494 -0.0451956 111.313 0.170219 112.031 0.59064L154.739 25.3799C154.84 25.4246 154.934 25.4818 155.02 25.55C155.095 25.6061 155.146 25.6884 155.162 25.7803C155.179 25.8722 155.16 25.9669 155.109 26.0455C155.056 26.1236 154.976 26.179 154.884 26.2009C154.793 26.2228 154.696 26.2096 154.614 26.1638L154.377 26.0233C153.904 25.8014 152.587 25.4539 150.679 26.9625L125.72 55.0131C125.684 55.0559 125.639 55.0895 125.587 55.1114C125.536 55.1332 125.48 55.1426 125.424 55.1388ZM82.2796 29.4917L125.35 54.3032L150.125 26.467C150.125 26.467 150.125 26.467 150.169 26.4226C150.925 25.7664 151.841 25.3224 152.824 25.1359L111.669 1.24883C111.073 0.903222 110.395 0.724906 109.707 0.732716C109.018 0.740526 108.344 0.934173 107.757 1.2932L82.2796 29.4917Z" fill="#081E7A"/>
<path d="M119.804 56.1963L81.8581 34.2839C81.8021 34.2499 81.7558 34.2021 81.7234 34.1452C81.691 34.0882 81.6738 34.024 81.6732 33.9585V30.002H82.4128V33.7514L120.181 55.5455L119.804 56.1963Z" fill="#081E7A"/>
<path d="M96.878 75.4243C96.3553 75.4215 95.8481 75.2462 95.4351 74.9256C95.0222 74.605 94.7266 74.1571 94.5943 73.6514C94.462 73.1456 94.5003 72.6103 94.7033 72.1286C94.9063 71.6469 95.2626 71.2456 95.717 70.9871L123.701 55.5234L124.056 56.1668L96.0572 71.6527C95.6818 71.8656 95.4054 72.2178 95.2878 72.633C95.1701 73.0482 95.2207 73.4931 95.4285 73.8713C95.6481 74.2396 96.0003 74.5099 96.4128 74.6268C96.8254 74.7437 97.267 74.6983 97.6472 74.4999L125.187 58.8957L153.992 29.647C154.306 29.3333 154.554 28.9607 154.723 28.5508C154.891 28.1409 154.978 27.7016 154.976 27.2583H155.716C155.725 28.3405 155.311 29.3834 154.562 30.1647L125.72 59.4577L125.639 59.5169L98.0539 75.1507C97.6917 75.3407 97.2869 75.435 96.878 75.4243Z" fill="#081E7A"/>
<path d="M123.567 50.2136C123.502 50.2149 123.438 50.1969 123.382 50.1618L88.1214 29.8541C88.0753 29.8269 88.0357 29.79 88.0053 29.7459C87.9749 29.7019 87.9544 29.6518 87.9453 29.599C87.9361 29.5463 87.9385 29.4922 87.9523 29.4405C87.9661 29.3888 87.991 29.3407 88.0252 29.2995L108.399 5.05009C108.457 4.98484 108.536 4.94124 108.622 4.92646C108.708 4.91167 108.796 4.92659 108.873 4.96875L143.905 25.3578C143.951 25.3858 143.991 25.4234 144.021 25.4681C144.051 25.5128 144.072 25.5635 144.081 25.6168C144.09 25.6701 144.088 25.7248 144.074 25.7771C144.06 25.8293 144.035 25.878 144.001 25.9198L123.848 50.0805C123.814 50.1221 123.771 50.1557 123.723 50.1787C123.674 50.2017 123.621 50.2136 123.567 50.2136ZM88.8757 29.4326L123.479 49.4001L143.15 25.8089L108.769 5.76745L88.8757 29.4326Z" fill="#081E7A"/>
<path d="M101.168 20.5217L100.792 21.1587L114.754 29.396L115.13 28.759L101.168 20.5217Z" fill="#081E7A"/>
<path d="M99.1416 23.2597L98.7606 23.8936L103.375 26.6672L103.756 26.0334L99.1416 23.2597Z" fill="#081E7A"/>
<path d="M105.266 26.9324L104.885 27.5664L112.714 32.269L113.095 31.6351L105.266 26.9324Z" fill="#081E7A"/>
<path d="M97.0449 26.03L96.6691 26.667L110.631 34.9043L111.007 34.2673L97.0449 26.03Z" fill="#081E7A"/>
<path d="M123.102 43.4539C123.036 43.4552 122.972 43.4372 122.917 43.4021L111.483 36.8277C111.436 36.8031 111.395 36.7675 111.364 36.7237C111.333 36.6799 111.313 36.6293 111.306 36.5762C111.294 36.525 111.295 36.472 111.306 36.4208C111.318 36.3697 111.34 36.3217 111.372 36.2804L116.372 29.839C116.427 29.7683 116.507 29.7202 116.595 29.7039C116.684 29.6876 116.775 29.7041 116.852 29.7503L128.36 36.5318C128.405 36.5601 128.444 36.5979 128.473 36.6426C128.502 36.6873 128.522 36.7378 128.53 36.7907C128.54 36.8424 128.539 36.8958 128.526 36.9469C128.513 36.9981 128.489 37.0458 128.456 37.0865L123.39 43.3134C123.355 43.3562 123.311 43.3909 123.261 43.4152C123.211 43.4394 123.157 43.4526 123.102 43.4539ZM112.216 36.3987L123.013 42.6034L127.613 36.9682L116.756 30.5638L112.216 36.3987Z" fill="#081E7A"/>
<path d="M123.116 27.5319L122.651 21.5046L116.978 22.503C116.88 22.5182 116.779 22.4943 116.697 22.4365C116.655 22.407 116.62 22.3685 116.594 22.3237C116.569 22.2789 116.553 22.229 116.549 22.1776L116.239 19.3156L113.096 19.6262C113.042 19.6302 112.988 19.6231 112.937 19.6053C112.886 19.5875 112.839 19.5594 112.8 19.5227C112.761 19.4861 112.731 19.4411 112.711 19.3912C112.692 19.3412 112.685 19.2876 112.689 19.2343L113.111 13.1405L104.628 15.9138L104.399 15.1742L113.399 12.2161C113.457 12.1964 113.519 12.1913 113.579 12.2013C113.639 12.2113 113.696 12.2361 113.744 12.2735C113.793 12.3108 113.831 12.3596 113.856 12.4154C113.881 12.4712 113.892 12.5323 113.887 12.5932L113.458 18.8053L116.527 18.5021C116.624 18.4917 116.721 18.5201 116.798 18.5811C116.874 18.642 116.923 18.7306 116.934 18.8275L117.237 21.6599L122.924 20.6986C123.029 20.6847 123.134 20.7111 123.22 20.7725C123.26 20.8052 123.293 20.8456 123.317 20.8913C123.342 20.937 123.356 20.9872 123.361 21.0387L123.856 27.4801L123.116 27.5319Z" fill="#081E7A"/>
<path d="M52.8609 176.792C52.3639 176.799 51.874 176.674 51.441 176.43C50.4278 175.846 49.8732 174.648 49.8732 173.058V169.279C49.9596 167.645 50.4135 166.052 51.201 164.618C51.9884 163.184 53.0892 161.946 54.4213 160.996L152.558 99.8289C154.503 98.5347 156.463 98.2315 157.905 99.008C159.347 99.7845 160.064 101.36 160.064 103.527V109.879C159.969 111.587 159.473 113.248 158.616 114.728C157.759 116.209 156.565 117.466 155.131 118.399L55.1756 176.082C54.4808 176.521 53.6819 176.766 52.8609 176.792ZM156.137 99.3112C154.991 99.3694 153.886 99.76 152.957 100.435L54.8281 161.617C53.6016 162.502 52.5872 163.649 51.8582 164.974C51.1292 166.299 50.7038 167.769 50.6127 169.279V173.043C50.6127 174.359 51.0416 175.328 51.8108 175.772C52.5799 176.216 53.6522 176.105 54.7689 175.439L154.725 117.755C156.051 116.894 157.156 115.732 157.949 114.363C158.742 112.995 159.2 111.458 159.288 109.879V103.527C159.288 101.641 158.659 100.273 157.52 99.6588C157.094 99.4336 156.619 99.3144 156.137 99.3112Z" fill="#081E7A"/>
<defs>
<linearGradient id="paint0_linear_2940_24098" x1="66.0542" y1="171.532" x2="73.5743" y2="179.595" gradientUnits="userSpaceOnUse">
<stop stop-color="#E64C4E"/>
<stop offset="1" stop-color="#EF33F9"/>
</linearGradient>
<linearGradient id="paint1_linear_2940_24098" x1="150.11" y1="122.886" x2="157.628" y2="130.956" gradientUnits="userSpaceOnUse">
<stop stop-color="#E64C4E"/>
<stop offset="1" stop-color="#EF33F9"/>
</linearGradient>
<linearGradient id="paint2_linear_2940_24098" x1="94.2454" y1="77.6797" x2="121.141" y2="119.903" gradientUnits="userSpaceOnUse">
<stop stop-color="#E64C4E"/>
<stop offset="1" stop-color="#EF33F9"/>
</linearGradient>
<linearGradient id="paint3_linear_2940_24098" x1="52.0947" y1="25.293" x2="90.9785" y2="106.107" gradientUnits="userSpaceOnUse">
<stop stop-color="#E64C4E"/>
<stop offset="1" stop-color="#EF33F9"/>
</linearGradient>
<linearGradient id="paint4_linear_2940_24098" x1="111.669" y1="30.0684" x2="124.327" y2="46.1141" gradientUnits="userSpaceOnUse">
<stop stop-color="#E64C4E"/>
<stop offset="1" stop-color="#EF33F9"/>
</linearGradient>
<linearGradient id="paint5_linear_2940_24098" x1="49.8732" y1="96.1396" x2="126.146" y2="200.724" gradientUnits="userSpaceOnUse">
<stop stop-color="#E64C4E"/>
<stop offset="1" stop-color="#EF33F9"/>
</linearGradient>
</defs>
</svg>
