<svg width="32" height="32" viewBox="0 0 32 32" fill="none" xmlns="http://www.w3.org/2000/svg">
<path d="M10.7887 28C7.55374 28 4.53817 27.0591 2 25.4356C4.15499 25.5751 7.95807 25.2411 10.3236 22.9848C6.76508 22.8215 5.16026 20.0923 4.95094 18.926C5.25329 19.0426 6.6953 19.1826 7.50934 18.856C3.4159 17.8296 2.78793 14.2373 2.92748 13.141C3.695 13.6775 4.99745 13.8641 5.50913 13.8174C1.69479 11.0882 3.06703 6.98276 3.74151 6.09635C6.47882 9.88867 10.5812 12.0186 15.6564 12.137C15.5607 11.7174 15.5102 11.2804 15.5102 10.8316C15.5102 7.61092 18.1134 5 21.3247 5C23.0025 5 24.5144 5.71275 25.5757 6.85284C26.6969 6.59011 28.3843 5.97507 29.2092 5.4432C28.7934 6.93611 27.4989 8.18149 26.7159 8.64308C26.7224 8.65878 26.7095 8.62731 26.7159 8.64308C27.4037 8.53904 29.2648 8.18137 30 7.68256C29.6364 8.52125 28.264 9.91573 27.1377 10.6964C27.3473 19.9381 20.2765 28 10.7887 28Z" fill="#47ACDF"/>
</svg>
