<svg width="125" height="181" viewBox="0 0 125 181" fill="none" xmlns="http://www.w3.org/2000/svg">
<path opacity="0.08" d="M12.2365 170.231L29.3751 180.126C30.4456 180.738 31.6576 181.061 32.8909 181.061C34.1243 181.061 35.3363 180.738 36.4067 180.126L56.0701 168.8C56.3887 168.616 56.6533 168.352 56.8373 168.034C57.0212 167.715 57.1181 167.354 57.1181 166.987C57.1181 166.619 57.0212 166.258 56.8373 165.94C56.6533 165.621 56.3887 165.357 56.0701 165.174L38.9551 155.271C37.8846 154.659 36.6727 154.336 35.4393 154.336C34.2059 154.336 32.994 154.659 31.9235 155.271L12.2601 166.597C11.9405 166.78 11.6744 167.043 11.4886 167.361C11.3028 167.678 11.2037 168.039 11.2013 168.407C11.1989 168.775 11.2933 169.138 11.475 169.458C11.6567 169.778 11.9193 170.045 12.2365 170.231V170.231Z" fill="black"/>
<path opacity="0.08" d="M79.4459 150.238L96.5924 160.133C97.6629 160.745 98.8749 161.067 100.108 161.067C101.342 161.067 102.554 160.745 103.624 160.133L123.287 148.807C123.606 148.622 123.87 148.357 124.054 148.038C124.238 147.719 124.334 147.358 124.334 146.99C124.334 146.622 124.238 146.26 124.054 145.941C123.87 145.622 123.606 145.357 123.287 145.173L106.149 135.278C105.078 134.666 103.866 134.343 102.633 134.343C101.4 134.343 100.188 134.666 99.1172 135.278L79.4538 146.604C79.135 146.788 78.8701 147.052 78.6857 147.371C78.5013 147.689 78.4038 148.051 78.403 148.419C78.4022 148.787 78.4981 149.149 78.6811 149.468C78.8642 149.787 79.1279 150.053 79.4459 150.238Z" fill="black"/>
<path d="M32.9463 131.358L22.3831 137.084C19.1111 139.342 19.6145 142.338 19.7325 144.234C20.0707 149.543 21.7539 154.703 25.4978 158.47C29.4305 162.403 33.1901 163.331 35.6284 161.923L46.168 155.741C47.741 154.734 48.7006 152.736 48.7006 149.905C48.7006 149.905 48.4411 140.396 43.1162 134.764C39.2307 130.611 35.3452 129.785 32.9463 131.358Z" fill="#E3FFFF"/>
<path d="M105.3 1.85532C102.452 0.211459 99.8961 0.00695942 97.9849 0.990129L87.1149 7.28242C85.1014 8.54874 83.9688 11.2151 84.1497 14.9983L89.1363 99.9442L100.478 106.496L110.955 100.408L115.957 21.2434C116.413 14.3219 111.498 5.42619 105.3 1.85532Z" fill="#E3FFFF"/>
<path d="M98.6683 109.288L87.9006 115.628C85.25 117.429 85.25 122.47 85.25 122.47C85.2211 125.431 85.8331 128.363 87.0442 131.065C88.2552 133.766 90.0365 136.174 92.2659 138.123C95.5536 140.938 98.6447 141.599 100.816 140.577L112.299 134.426C113.872 133.388 114.957 130.493 114.91 127.3C114.912 124.534 114.37 121.795 113.313 119.239C112.256 116.683 110.706 114.36 108.752 112.403C104.819 108.549 101.067 107.762 98.6683 109.288Z" fill="#E3FFFF"/>
<path d="M35.6832 161.986L46.4116 155.741C47.9847 154.734 48.9442 152.736 48.9442 149.905V148.796C48.9875 143.57 46.9863 138.534 43.3677 134.764C39.435 130.729 35.5967 129.856 33.1899 131.366L22.965 136.872L35.6832 161.986Z" fill="url(#paint0_linear_2920_17381)"/>
<path d="M19.8259 142.527V144.258C19.7912 149.242 21.6106 154.061 24.9305 157.778C31.915 165.455 38.7028 163.575 38.7028 155.946V153.751C38.7028 147.459 34.1173 139.798 28.6115 137.045C23.7979 134.646 19.8259 137.155 19.8259 142.527Z" fill="white"/>
<path d="M66.7589 46.8333C61.189 37.3018 53.2048 29.4072 43.6112 23.9451C33.4177 18.0461 25.5209 16.8322 19.9207 20.3034L9.4834 26.1946L29.0445 31.6453C29.0445 31.6453 51.681 48.8783 59.3498 76.407C61.033 82.4476 45.4753 95.2839 41.2594 104.416C34.7863 118.439 37.665 128.499 37.665 128.499L48.2124 122.553L48.1495 117.425C48.1495 113.057 48.6739 109.871 49.7226 107.868C50.4619 106.453 55.0081 104.974 55.0081 104.974L65.2331 99.0278C68.6938 96.9356 71.0691 94.5445 72.3119 91.8231C74.3176 87.3108 75.311 82.4139 75.2221 77.4767C75.2368 66.6831 72.311 56.0894 66.7589 46.8333V46.8333Z" fill="url(#paint1_linear_2920_17381)"/>
<path d="M14.1077 57.6403L24.5922 51.702H24.6551C25.2394 51.2971 25.7348 50.7771 26.1108 50.1739C26.4868 49.5706 26.7355 48.8969 26.8417 48.194C27.1253 46.8296 27.5118 45.4887 27.9979 44.1827L20.219 41.4141L14.1077 57.6403Z" fill="url(#paint2_linear_2920_17381)"/>
<path d="M56.4472 52.8191C50.8781 43.2876 42.8972 35.3908 33.3073 29.9231C15.4791 19.6457 4.69835 23.5993 0.964923 41.784C0.0525417 46.1965 2.94699 52.7247 7.23361 56.1383C11.5202 59.5519 15.5866 58.5923 16.5226 54.1405C18.6987 43.9365 23.9423 41.2308 32.2533 46.0234C36.6245 48.5478 40.2249 52.2161 42.6671 56.6338C45.2895 61.4553 46.6097 66.8771 46.4975 72.3645C46.4975 77.6081 45.5825 81.394 43.7525 83.7221C41.9225 86.0503 38.5876 88.2316 33.7477 90.2661C28.8607 92.3058 25.7985 94.7729 24.561 97.6674C23.3235 100.562 22.7048 106.592 22.7048 115.758L22.6261 119.635L37.9164 128.5L37.8377 123.403C37.8377 119.045 38.3621 115.863 39.4108 113.854C40.4595 111.846 43.4405 109.911 48.3537 108.05C55.5322 105.396 60.0914 101.97 62.0316 97.7696C64.0389 93.2603 65.0349 88.3663 64.9496 83.4311C64.9503 72.644 62.0108 62.0607 56.4472 52.8191V52.8191Z" fill="white"/>
<path d="M101.138 140.899L112.15 134.528L112.236 134.481L112.346 134.418C113.959 133.38 114.958 131.319 114.958 128.401V127.269C115.007 121.875 112.94 116.676 109.2 112.789C105.118 108.628 101.193 107.739 98.7156 109.288L88.1918 115.376L101.138 140.899Z" fill="url(#paint3_linear_2920_17381)"/>
<path d="M100.477 106.488L110.954 100.4L115.956 21.2434C116.396 14.3534 111.496 5.45765 105.298 1.88678C102.451 0.211455 99.895 0.00695535 97.9837 0.990125L87.2239 7.1723L100.477 106.488Z" fill="url(#paint4_linear_2920_17381)"/>
<path d="M94.8059 7.92768C88.608 4.34894 83.7157 7.58947 84.1483 15.0065L89.135 99.9524L100.477 106.504L105.471 27.3001C105.904 20.3943 101.004 11.5064 94.8059 7.92768Z" fill="white"/>
<path d="M85.1085 121.369V122.541C85.0651 127.94 87.144 133.14 90.8974 137.021C97.6301 143.849 103.985 141.851 103.985 134.473V132.271C103.985 126.23 99.7223 118.9 94.484 115.887C89.2456 112.875 85.1085 115.455 85.1085 121.369Z" fill="white"/>
<path d="M35.3453 162.6L34.9363 161.923L45.9478 155.364C47.2299 154.577 48.0715 153.146 48.3074 148.741C48.3888 146.198 47.9455 143.666 47.005 141.302C46.0645 138.937 44.647 136.792 42.841 135C39.3173 131.406 35.597 130.124 33.1509 131.658H33.0958L22.6506 136.943L22.2888 136.243L27.535 133.624C30.8778 131.925 32.207 131.264 32.7812 131.052V130.989C35.5655 129.251 39.6477 130.58 43.4466 134.45C45.3306 136.318 46.8087 138.555 47.7885 141.021C48.7684 143.487 49.2288 146.129 49.1412 148.78C48.9288 152.933 48.1973 154.9 46.4276 156.032L35.3453 162.6Z" fill="#081E7A"/>
<path d="M33.0793 163.079C30.3815 163.079 27.2197 161.31 24.2465 158.038C20.8534 154.254 18.9964 149.34 19.0397 144.258V142.527C19.0397 139.774 20.0307 137.635 21.8397 136.526C23.6488 135.417 25.9533 135.48 28.3916 136.691C33.9839 139.483 38.7031 147.294 38.7031 153.751V155.946C38.7031 159.359 37.3738 161.829 35.0614 162.725C34.4277 162.963 33.7561 163.083 33.0793 163.079ZM24.7027 136.526C23.8382 136.514 22.9877 136.746 22.2487 137.195C20.6757 138.154 19.8262 140.057 19.8262 142.527V144.258C19.7831 149.144 21.5672 153.871 24.8286 157.511C28.3365 161.365 32.0568 163.016 34.7783 161.994C36.7761 161.207 37.9244 159.013 37.9244 155.946V153.751C37.9244 147.561 33.4018 140.073 28.0455 137.399C27.0139 136.853 25.8696 136.554 24.7027 136.526Z" fill="#081E7A"/>
<path d="M55.0633 105.217L54.6779 104.533L65.0523 98.6104C68.4423 96.5654 70.7783 94.1979 71.9896 91.5866C73.9585 87.1304 74.938 82.3002 74.8604 77.429C74.8446 66.722 71.9281 56.2193 66.4209 47.0372C60.8768 37.5688 52.9435 29.7223 43.4147 24.2827C33.4021 18.4938 25.5604 17.2747 20.1333 20.6332L9.6802 26.5401L9.2948 25.8558C17.0422 21.4748 19.1186 20.3029 19.74 20.0118V19.9647C25.4424 16.441 33.5437 17.6601 43.8316 23.5985C53.4683 29.1106 61.4905 37.0542 67.0973 46.6361C72.6801 55.9409 75.6349 66.5857 75.647 77.4368C75.7293 82.4308 74.7228 87.3828 72.6975 91.9484C71.4233 94.7092 68.985 97.1868 65.4535 99.3261L55.0633 105.217Z" fill="#081E7A"/>
<path d="M37.8535 128.797L37.4681 128.113L47.819 122.277C47.819 121.546 47.8189 119.084 47.756 117.385C47.6435 114.458 48.0265 111.532 48.8886 108.733L49.628 109.008C48.7986 111.714 48.4317 114.541 48.5426 117.369C48.6212 122.552 48.6212 122.552 48.5426 122.67C48.5098 122.741 48.4545 122.799 48.3853 122.836L37.8535 128.797Z" fill="#081E7A"/>
<path d="M14.2962 57.9777L13.9108 57.2934L24.3874 51.3551C24.9379 50.9786 25.4054 50.4933 25.7611 49.9292C26.1169 49.3651 26.3534 48.7342 26.456 48.0752C26.7376 46.6881 27.1295 45.3257 27.628 44.001L28.3594 44.2841C27.8797 45.5641 27.4985 46.8788 27.219 48.2168C27.1021 48.97 26.8325 49.6913 26.4267 50.3364C26.0209 50.9816 25.4876 51.537 24.8593 51.9686L24.7807 52.0158L14.2962 57.9777Z" fill="#081E7A"/>
<path d="M37.523 128.853C37.4542 128.85 37.3871 128.831 37.3264 128.798L22.0283 119.966C21.9665 119.932 21.9154 119.882 21.8807 119.82C21.8459 119.759 21.8289 119.69 21.8317 119.619L21.9103 115.742C21.9103 106.587 22.5474 100.452 23.798 97.5099C25.0486 94.5683 28.2262 92.0042 33.2364 89.9041C37.9556 87.9378 41.2984 85.7905 43.076 83.5096C44.8536 81.2286 45.7423 77.5083 45.7423 72.3958C45.8522 66.9645 44.5485 61.598 41.9591 56.8224C39.5325 52.4688 35.9718 48.8538 31.6555 46.3615C27.8251 44.1513 24.6475 43.5771 22.2171 44.6547C19.5271 45.8424 17.6237 49.0593 16.5225 54.219C16.0742 56.3269 14.9495 57.8056 13.3292 58.3797C11.3707 59.0719 8.97966 58.3797 6.58072 56.4763C2.12106 52.8819 -0.781254 46.2592 0.186185 41.7052C1.97949 32.9825 5.45598 27.4138 10.4977 25.1879C16.0742 22.6868 23.68 24.1812 33.1106 29.624C42.7519 35.1354 50.7794 43.0788 56.392 52.6616C61.9783 61.9654 64.9359 72.6104 64.9496 83.4624C65.028 88.4535 64.0217 93.4021 62 97.9661C60.018 102.253 55.3459 105.776 48.102 108.451C43.3119 110.244 40.3703 112.124 39.3714 114.035C38.3725 115.946 37.8377 119.061 37.8377 123.363L37.9163 128.452C37.9173 128.521 37.9004 128.589 37.8674 128.65C37.8343 128.711 37.7861 128.762 37.7275 128.798C37.6645 128.832 37.5945 128.851 37.523 128.853V128.853ZM22.6261 119.415L37.1219 127.776L37.0511 123.379C37.0511 118.967 37.5938 115.695 38.6714 113.634C39.7489 111.573 42.7771 109.575 47.8267 107.68C54.9055 105.084 59.3966 101.694 61.2843 97.6043C63.2608 93.1502 64.2431 88.3189 64.163 83.4466C64.1542 72.7178 61.2347 62.1924 55.7156 52.992C50.1667 43.5382 42.2372 35.7036 32.7173 30.269C23.5148 24.952 16.1529 23.4811 10.8202 25.8644C6.02228 28.0195 2.7031 33.4072 0.949125 41.8704C0.0839354 46.0862 2.89187 52.4965 7.0841 55.8628C9.22348 57.5853 11.4101 58.2224 13.0696 57.6404C14.4146 57.1606 15.3663 55.8864 15.7596 54.0617C16.9079 48.6346 18.9687 45.2289 21.871 43.9389C24.5373 42.7513 27.9588 43.3333 32.0173 45.6772C36.4577 48.2386 40.1195 51.9575 42.6119 56.437C45.2699 61.3293 46.609 66.8292 46.4974 72.3958C46.4974 77.6892 45.5457 81.5904 43.6659 83.9894C41.7861 86.3883 38.3882 88.6142 33.5038 90.6277C28.6195 92.6412 25.7093 95.0323 24.5295 97.8167C23.3497 100.601 22.7047 106.697 22.7047 115.75L22.6261 119.415Z" fill="#081E7A"/>
<path d="M101.342 141.237L100.941 140.561L111.795 134.08C113.368 133.081 114.21 131.059 114.21 128.401V127.268C114.242 121.977 112.21 116.882 108.547 113.063C104.913 109.359 101.083 108.037 98.5578 109.626C98.2432 109.799 91.8015 113.677 88.4194 115.714L88.0104 115.038C95.569 110.491 97.5668 109.288 98.1646 108.997C101.02 107.204 105.243 108.572 109.176 112.552C112.997 116.507 115.105 121.809 115.044 127.308V128.44C115.044 131.382 114.053 133.631 112.251 134.788L101.342 141.237Z" fill="#081E7A"/>
<path d="M100.683 106.827L100.289 106.142L110.585 100.165C110.876 95.7993 115.524 21.9514 115.58 21.1885C116.004 14.4086 111.206 5.70947 105.111 2.19366C102.507 0.691372 100.045 0.384623 98.1735 1.33633C97.7645 1.55656 90.3081 5.85891 87.4294 7.51064L87.0361 6.82635C95.0273 2.22512 97.1746 0.98239 97.8431 0.691372V0.636314C99.951 -0.44124 102.688 -0.150221 105.528 1.50937C111.82 5.16676 116.83 14.1962 116.382 21.2357L112.166 88.0912C111.379 100.676 111.379 100.676 111.175 100.786L100.683 106.827Z" fill="#081E7A"/>
<path d="M100.477 106.881C100.408 106.879 100.341 106.86 100.281 106.826L88.9389 100.274C88.8828 100.242 88.8354 100.197 88.8011 100.142C88.7668 100.087 88.7466 100.024 88.7423 99.9597L83.7556 15.0138C83.5354 11.2542 84.6837 8.31253 86.9018 6.93609C89.1198 5.55965 91.9356 5.83494 94.9874 7.59678C101.319 11.2542 106.29 20.2915 105.842 27.3231L100.855 106.527C100.851 106.594 100.83 106.659 100.794 106.715C100.759 106.771 100.709 106.818 100.65 106.85C100.596 106.872 100.537 106.883 100.477 106.881V106.881ZM89.5209 99.7001L100.123 105.827L105.079 27.2602C105.503 20.4566 100.682 11.8047 94.6098 8.26533C91.8176 6.65294 89.2299 6.40911 87.3344 7.58891C85.4388 8.76872 84.3377 11.5216 84.5422 14.9509L89.5209 99.7001Z" fill="#081E7A"/>
<path d="M99.1635 141.583C96.678 141.583 93.7678 140.073 91.0071 137.281C87.1961 133.317 85.08 128.024 85.1081 122.525V121.369C85.1081 118.349 86.162 116.076 88.0812 114.967C90.0003 113.858 92.47 114.062 95.0735 115.549C100.422 118.593 104.771 126.096 104.771 132.271V134.504C104.771 137.863 103.482 140.317 101.224 141.245C100.565 141.489 99.8657 141.604 99.1635 141.583V141.583ZM90.779 115.03C89.9715 115.022 89.1765 115.229 88.4744 115.628C86.8149 116.595 85.8946 118.624 85.8946 121.354V122.525C85.8627 127.816 87.8975 132.91 91.5655 136.722C94.9004 140.105 98.4005 141.505 100.925 140.466C102.868 139.68 103.985 137.478 103.985 134.457V132.255C103.985 126.332 99.8163 119.135 94.6802 116.217C93.5024 115.497 92.1586 115.094 90.779 115.046V115.03Z" fill="#081E7A"/>
<defs>
<linearGradient id="paint0_linear_2920_17381" x1="22.965" y1="130.671" x2="53.7412" y2="156.205" gradientUnits="userSpaceOnUse">
<stop stop-color="#E64C4E"/>
<stop offset="1" stop-color="#EF33F9"/>
</linearGradient>
<linearGradient id="paint1_linear_2920_17381" x1="9.4834" y1="18.3745" x2="106.422" y2="76.2467" gradientUnits="userSpaceOnUse">
<stop stop-color="#E64C4E"/>
<stop offset="1" stop-color="#EF33F9"/>
</linearGradient>
<linearGradient id="paint2_linear_2920_17381" x1="14.1077" y1="41.4141" x2="30.1398" y2="55.1381" gradientUnits="userSpaceOnUse">
<stop stop-color="#E64C4E"/>
<stop offset="1" stop-color="#EF33F9"/>
</linearGradient>
<linearGradient id="paint3_linear_2920_17381" x1="88.1918" y1="108.575" x2="119.949" y2="134.872" gradientUnits="userSpaceOnUse">
<stop stop-color="#E64C4E"/>
<stop offset="1" stop-color="#EF33F9"/>
</linearGradient>
<linearGradient id="paint4_linear_2920_17381" x1="87.2239" y1="0.398437" x2="140.806" y2="14.9238" gradientUnits="userSpaceOnUse">
<stop stop-color="#E64C4E"/>
<stop offset="1" stop-color="#EF33F9"/>
</linearGradient>
</defs>
</svg>
