<svg width="116" height="174" viewBox="0 0 116 174" fill="none" xmlns="http://www.w3.org/2000/svg">
<path opacity="0.08" d="M4.57639 161.215C2.56081 162.361 2.55121 165.263 4.55916 166.422L12.8899 171.231C15.3484 172.65 18.3749 172.66 20.8428 171.257L111.354 119.807C113.369 118.661 113.379 115.759 111.371 114.6L100.559 108.36C99.6375 107.827 98.5026 107.824 97.5771 108.35L4.57639 161.215Z" fill="black"/>
<path d="M103.169 4.51568C103.169 4.51568 97.6781 1.78628 96.2852 0.997245C94.6749 0.0713403 92.4528 0.19211 89.9971 1.6333L14.7895 44.1766C9.87009 47.0107 5.93298 53.8865 5.93298 59.5386V156.195C5.93298 158.9 6.84279 160.833 8.34839 161.831C9.95866 162.886 14.7895 165.857 14.7895 165.857C16.3997 166.903 18.7346 166.831 21.303 165.341L96.8568 122.597C101.784 119.755 105.778 112.863 105.778 107.195V10.216C105.729 7.42222 104.747 5.44964 103.169 4.51568Z" fill="white"/>
<path d="M12.3338 160.221V63.2664C12.3338 57.6304 16.3595 50.7063 21.2547 47.8561L96.8085 5.11954C98.1543 4.25769 99.738 3.84342 101.333 3.93599C99.6748 2.96177 97.3077 1.56889 96.2852 0.997245C94.6749 0.0713403 92.4528 0.19211 89.9971 1.6333L14.7895 44.1766C9.87009 47.0107 5.93298 53.8865 5.93298 59.5386V156.195C5.93298 158.9 6.84279 160.833 8.34839 161.831C9.48363 162.572 12.3016 164.166 13.8877 165.052C12.7998 163.684 12.2474 161.966 12.3338 160.221Z" fill="url(#paint0_linear_2916_17697)"/>
<path d="M93.6526 108.112L26.0212 146.284V140.898L93.6526 102.726V108.112Z" fill="#FFECFA"/>
<path d="M55.0061 134.311L48.5651 138.031V124.215L55.0061 120.495V134.311Z" fill="#081E7A"/>
<path d="M80.2457 89.2979C91.7081 69.7842 91.8483 48.5893 80.5588 41.9578C69.2694 35.3264 50.8253 45.7696 39.3629 65.2834C27.9005 84.7972 27.7603 105.992 39.0498 112.623C50.3393 119.255 68.7833 108.812 80.2457 89.2979Z" fill="#FFECFA"/>
<path d="M53 89.5236V72.4982C53 69.5276 55.6175 66 57.8508 66H72.1441C74.6186 66 74.6186 70.2053 72.1441 73.1574L57.8508 90.2199C55.6175 92.8656 53 92.5036 53 89.5236Z" fill="url(#paint1_linear_2916_17697)"/>
<path d="M15.1439 166.307C15.0956 166.307 10.0877 163.2 8.47743 162.153C6.86716 161.106 5.89294 158.932 5.89294 156.211V59.5304C5.89294 53.7657 9.97498 46.7127 14.991 43.8222L90.1986 1.27892C92.7026 -0.170323 95.0777 -0.395761 96.8893 0.642863C98.4995 1.56072 103.669 4.59608 103.669 4.59608L103.266 5.28849C103.266 5.28849 98.097 2.26118 96.4867 1.33528C94.8764 0.409374 92.8475 0.675068 90.6012 1.97134L15.3935 44.5147C10.5627 47.2843 6.69808 54.0153 6.69808 59.5304V156.195C6.69808 158.667 7.50321 160.535 8.92025 161.46C10.5305 162.499 15.5143 165.575 15.5707 165.607L15.1439 166.307Z" fill="#081E7A"/>
<path d="M17.6559 166.952C16.7728 166.962 15.9028 166.737 15.1359 166.299C13.3243 165.261 12.334 163.079 12.334 160.221V63.2583C12.334 57.4774 16.4241 50.3761 21.4562 47.5018L97.01 4.76525C99.5301 3.30795 101.921 3.08252 103.733 4.12919C105.544 5.17587 106.535 7.34973 106.535 10.216V107.17C106.535 112.959 102.445 120.052 97.4126 122.927L21.8587 165.671C20.5938 166.458 19.1447 166.9 17.6559 166.952ZM101.205 4.31437C99.8737 4.36443 98.5784 4.75831 97.4448 5.45766L21.8587 48.2023C17.0279 50.98 13.1391 57.7351 13.1391 63.2583V160.221C13.1391 162.797 13.9926 164.713 15.5545 165.599C17.1165 166.485 19.2098 166.275 21.4723 164.971L97.0261 122.226C101.857 119.457 105.746 112.702 105.746 107.17V10.216C105.746 7.63153 104.892 5.72336 103.33 4.82966C102.683 4.4621 101.949 4.27316 101.205 4.28217V4.31437Z" fill="#081E7A"/>
<path d="M54.8611 129.851L54.4586 129.159L92.8474 107.887V103.435L54.7726 124.545L54.37 123.853L93.0889 102.372C93.1501 102.336 93.2195 102.318 93.2902 102.318C93.3609 102.318 93.4303 102.336 93.4915 102.372C93.5523 102.407 93.6029 102.457 93.6382 102.518C93.6735 102.579 93.6924 102.648 93.6928 102.718V108.104C93.6922 108.176 93.6734 108.246 93.6381 108.308C93.6029 108.37 93.5524 108.422 93.4915 108.459L54.8611 129.851Z" fill="#081E7A"/>
<path d="M25.6188 146.678C25.5476 146.68 25.4776 146.66 25.4175 146.622C25.3556 146.588 25.304 146.538 25.2685 146.477C25.2331 146.416 25.215 146.346 25.2162 146.276V140.898C25.215 140.827 25.2331 140.757 25.2685 140.696C25.304 140.635 25.3556 140.585 25.4175 140.551L47.8244 127.613L48.227 128.305L26.0214 141.123V145.575L47.8888 132.951L48.2914 133.651L25.7879 146.622C25.7368 146.654 25.6789 146.673 25.6188 146.678Z" fill="#081E7A"/>
<path d="M46.4746 114.999C43.7338 115.034 41.0331 114.333 38.6503 112.966C33.068 109.716 30 102.896 30 93.8411C30 75.2012 43.1343 52.4232 59.2731 43.0666C67.2154 38.489 74.7038 37.7292 80.3406 41.025C85.9774 44.3209 89 51.0957 89 60.1502C89 78.7901 75.8657 101.568 59.7269 110.925C55.0523 113.598 50.5502 114.999 46.4746 114.999ZM72.5163 39.9264C68.6042 39.9264 64.2472 41.2539 59.7269 43.8723C43.8332 53.0915 30.9077 75.5125 30.9077 93.8595C30.9077 102.593 33.8214 109.112 39.0769 112.17C44.3325 115.228 51.594 114.559 59.2459 110.128C75.1395 100.909 88.0651 78.4879 88.0651 60.141C88.0651 51.407 85.1514 44.8885 79.8959 41.8307C77.6496 40.5386 75.102 39.8749 72.5163 39.9081V39.9264Z" fill="#081E7A"/>
<path d="M55.332 91.9999C55.0571 92.002 54.7839 91.9547 54.5245 91.8603C54.0226 91.6178 53.6069 91.2176 53.3363 90.7163C53.0658 90.215 52.9541 89.6381 53.0172 89.0673V71.9745C53.0172 68.7254 55.8524 65.0108 58.3378 65.0015H72.6937C73.1206 64.9851 73.542 65.1048 73.9014 65.3445C74.2607 65.5842 74.5406 65.9323 74.7035 66.3421C75.4662 68.0644 74.7035 70.9039 73.0346 72.9521L58.6788 90.0635C58.2805 90.6091 57.7774 91.0629 57.2013 91.3962C56.6252 91.7295 55.9887 91.9351 55.332 91.9999ZM72.6578 65.9325H58.3019C56.319 65.9325 53.8785 69.2747 53.8785 71.9745V89.0487C53.8785 90.0635 54.2015 90.7431 54.7757 90.9759C55.673 91.3017 56.8663 90.6966 57.934 89.4211L72.2899 72.3097C73.9319 70.3453 74.3536 67.9061 73.8152 66.7238C73.7268 66.4804 73.5682 66.2712 73.3611 66.1246C73.154 65.978 72.9085 65.9012 72.6578 65.9045V65.9325Z" fill="#081E7A"/>
<defs>
<linearGradient id="paint0_linear_2916_17697" x1="5.93298" y1="0.404785" x2="148.777" y2="83.1719" gradientUnits="userSpaceOnUse">
<stop stop-color="#E64C4E"/>
<stop offset="1" stop-color="#EF33F9"/>
</linearGradient>
<linearGradient id="paint1_linear_2916_17697" x1="53" y1="66" x2="78.4181" y2="86.53" gradientUnits="userSpaceOnUse">
<stop stop-color="#E64C4E"/>
<stop offset="1" stop-color="#EF33F9"/>
</linearGradient>
</defs>
</svg>
