<svg width="145" height="164" viewBox="0 0 145 164" fill="none" xmlns="http://www.w3.org/2000/svg">
<path opacity="0.08" d="M128.194 129.335C130.194 128.181 130.194 125.294 128.194 124.139L73.6649 92.6587L14.791 126.65C12.791 127.805 12.791 130.692 14.7911 131.846L65.3204 161.017C67.7956 162.446 70.8451 162.446 73.3203 161.017L128.194 129.335Z" fill="black"/>
<path d="M117.017 126.206L125.268 75.8123L144.28 64.8381L141.091 60.0684L128.018 58.8461L139.218 47.8188L136.747 37.19L114.533 24.2894L114.28 24.1565L126.118 9.6881C126.189 9.56002 126.226 9.41601 126.226 9.26959C126.226 9.12317 126.189 8.97916 126.118 8.85108C125.942 8.47634 125.681 8.14785 125.356 7.89181C125.031 7.63577 124.65 7.45926 124.245 7.37634L123.713 7.29662C123.562 7.25805 123.404 7.26525 123.257 7.3173C123.11 7.36936 122.982 7.46391 122.89 7.58891L111.251 22.416L100.516 16.2248L106.747 3.39055C106.795 3.25136 106.806 3.1019 106.778 2.95727C106.75 2.81263 106.684 2.67795 106.588 2.56682C106.329 2.24355 105.999 1.98512 105.623 1.81212C105.247 1.63912 104.836 1.55634 104.422 1.57038H103.891C103.734 1.56485 103.58 1.60617 103.447 1.68904C103.315 1.7719 103.21 1.89252 103.147 2.03539L97.4602 14.4046L93.315 12.0131L83.0051 15.3346L71.8449 26.4151L60.698 15.3878L50.3748 12.0663L7.02271 37.19L4.5648 47.8188L15.7117 58.8461L2.58519 59.8957L0.765015 66.2331L18.5682 76.5032L26.8321 127.415L71.1806 152.778L117.017 126.206Z" fill="white"/>
<path d="M18.5687 77.207L26.8326 128.185L64.2326 149.775L71.4734 152.777V91.6356L58.772 92.3264L39.2682 88.4602L18.5687 77.207Z" fill="url(#paint0_linear_2940_23972)"/>
<path d="M71.8708 26.4148L60.7239 15.3874L50.4007 12.0659L7.00881 37.1232L4.5509 47.8184L15.6978 58.8458L71.8708 26.4148Z" fill="#FFECFA"/>
<path d="M2.57213 59.8953L0.751953 66.2327L39.2547 88.4601L58.7584 92.3263L71.8451 91.2767L15.6721 58.8457L2.57213 59.8953Z" fill="#FFECFA"/>
<path d="M71.8448 91.2767L85.6755 92.313L106.415 86.7329L144.333 64.8377L141.144 60.068L128.058 58.8457L71.8448 91.2767Z" fill="#FFECFA"/>
<path d="M83.0447 15.3874L72.6285 26.3749L128.058 58.8458L139.045 47.0611L136.747 37.1232L93.3546 12.0659L83.0447 15.3874Z" fill="#FFECFA"/>
<path d="M109.935 69.6623C107.357 62.262 98.9474 52.2577 92.145 48.5775L82.619 46.186C81.4627 46.0637 80.3008 46.0017 79.1381 46C71.5786 45.9923 64.2757 48.7415 58.598 53.7324C57.1769 53.4803 55.7366 53.3514 54.2933 53.3471C49.9516 53.3582 45.6918 54.5292 41.9544 56.7389C38.2171 58.9486 35.138 62.1168 33.0358 65.9157L31.9995 67.9617L71.2994 92.1156L109.935 69.6623Z" fill="#FFECFA"/>
<path d="M64.0458 86.6135L66.3044 88.075L106.787 3.39032L103.359 2.85889L64.0458 86.6135Z" fill="url(#paint1_linear_2940_23972)"/>
<path d="M68.404 77.9112L67.7928 81.6711L124.989 10.0731L121.734 8.89062L68.404 77.9112Z" fill="url(#paint2_linear_2940_23972)"/>
<path d="M71.8448 91.6621H70.5162V152.778H71.8448V91.6621Z" fill="#081E7A"/>
<path d="M70.5163 153.442L26.5004 128C26.4152 127.947 26.3418 127.877 26.2847 127.795C26.2275 127.713 26.1879 127.619 26.1683 127.521L17.9044 76.5563L19.233 76.3438L27.4437 127.003L71.8449 152.778L70.5163 153.442Z" fill="#081E7A"/>
<path d="M124.616 76.0519L116.37 125.993L117.681 126.206L125.928 76.2647L124.616 76.0519Z" fill="#081E7A"/>
<path d="M71.8449 91.9406C71.7277 91.9414 71.6126 91.9092 71.5128 91.8476L15.3796 59.4166C15.2774 59.3608 15.1923 59.2781 15.1338 59.1774C15.0752 59.0766 15.0454 58.9618 15.0475 58.8453C15.0458 58.7272 15.0757 58.6107 15.1341 58.5079C15.1925 58.4051 15.2773 58.3198 15.3796 58.2607L71.5526 25.8297C71.6536 25.7714 71.7682 25.7407 71.8848 25.7407C72.0014 25.7407 72.1159 25.7714 72.2169 25.8297L87.8944 34.8775L87.2301 36.0333L71.8449 27.1716L17.0404 58.8453L71.8449 90.5058L126.743 58.8453L99.3601 43.035L100.024 41.8792L128.403 58.2607C128.504 58.3218 128.587 58.4076 128.645 58.5099C128.703 58.6122 128.734 58.7277 128.735 58.8453C128.735 58.9613 128.704 59.075 128.645 59.1752C128.587 59.2754 128.504 59.3587 128.403 59.4166L72.2169 91.8476C72.1073 91.9206 71.9759 91.9534 71.8449 91.9406Z" fill="#081E7A"/>
<path d="M90.8345 36.5877L90.1702 37.7383L96.2913 41.2723L96.9556 40.1217L90.8345 36.5877Z" fill="#081E7A"/>
<path d="M72.1367 30.52H70.8081V46.4632H72.1367V30.52Z" fill="#081E7A"/>
<path d="M84.9716 93.1632L71.8451 91.9408C71.7061 91.9254 71.5753 91.8673 71.4706 91.7745C71.366 91.6817 71.2926 91.5588 71.2605 91.4227C71.2305 91.2847 71.2453 91.1408 71.3026 91.0118C71.3599 90.8828 71.4569 90.7754 71.5794 90.7053L127.726 58.2742C127.846 58.2029 127.985 58.1704 128.124 58.1812L141.211 59.4035C141.308 59.4167 141.402 59.4494 141.487 59.4996C141.571 59.5498 141.645 59.6166 141.703 59.6958L144.891 64.4655C144.989 64.6192 145.023 64.8054 144.984 64.9836C144.963 65.0723 144.923 65.1557 144.868 65.2288C144.813 65.3018 144.744 65.3631 144.665 65.4088L106.747 87.3041H106.588L85.1311 93.1499L84.9716 93.1632ZM74.024 90.8115L84.9185 91.8346L106.176 86.1083L143.377 64.6116L140.719 60.7056L128.151 59.5231L74.024 90.8115Z" fill="#081E7A"/>
<path d="M71.116 153.229C70.977 153.214 70.8462 153.156 70.7415 153.063C70.6368 152.97 70.5634 152.847 70.5314 152.711C70.5014 152.573 70.5162 152.429 70.5735 152.3C70.6308 152.171 70.7278 152.064 70.8502 151.994L117.256 124.957L117.681 126.206C117.283 126.299 71.116 153.229 71.116 153.229Z" fill="#081E7A"/>
<path d="M15.2468 59.3239L4.08665 48.2966C4.00352 48.218 3.94256 48.1189 3.9099 48.0093C3.87725 47.8997 3.87406 47.7834 3.90064 47.6721L6.37183 37.0434C6.38723 36.9367 6.42943 36.8356 6.49449 36.7497C6.55954 36.6637 6.64533 36.5956 6.74384 36.5518L50.0826 11.4945C50.2482 11.401 50.4441 11.3771 50.6273 11.4281L60.9373 14.7495C61.0395 14.7828 61.1311 14.8423 61.203 14.9223L72.3499 25.9363L71.4199 26.8796L60.3792 15.932L50.4945 12.7434L7.60742 37.5482L5.29567 47.6057L16.1769 58.3673L15.2468 59.3239Z" fill="#081E7A"/>
<path d="M72.3626 26.8795L71.4193 25.9362L82.5662 14.9221C82.64 14.8475 82.7314 14.7927 82.8319 14.7627L93.102 11.4412C93.1851 11.4021 93.2758 11.3818 93.3677 11.3818C93.4596 11.3818 93.5503 11.4021 93.6334 11.4412L97.8185 13.846L97.1542 15.0018L93.1684 12.7432L83.39 15.9318L72.3626 26.8795Z" fill="#081E7A"/>
<path d="M101.151 15.7967L100.486 16.9473L110.692 22.8396L111.356 21.689L101.151 15.7967Z" fill="#081E7A"/>
<path d="M128.536 59.3237L127.646 58.4468L138.54 47.6852L136.215 37.6144L114.2 24.8732L114.865 23.7173L137.079 36.5515C137.159 36.596 137.229 36.6568 137.284 36.7301C137.338 36.8033 137.377 36.8874 137.398 36.9767L139.856 47.6054C139.882 47.7156 139.881 47.8308 139.85 47.9401C139.82 48.0494 139.762 48.1492 139.683 48.2299L128.536 59.3237Z" fill="#081E7A"/>
<path d="M58.7715 92.991H58.6386L39.1481 89.1115C39.0727 89.099 39.0005 89.072 38.9355 89.0317L0.432833 66.8043C0.300019 66.7342 0.194876 66.6212 0.134555 66.4837C0.0742344 66.3461 0.0622949 66.1922 0.100684 66.047L1.94743 59.7761C1.98793 59.6482 2.06477 59.5349 2.16857 59.45C2.27238 59.365 2.39866 59.3122 2.53201 59.2978L15.632 58.2482C15.7662 58.2457 15.8989 58.2777 16.0173 58.3412L72.1903 90.7058C72.3122 90.777 72.4082 90.8851 72.4645 91.0146C72.5208 91.144 72.5344 91.2881 72.5033 91.4258C72.4722 91.5634 72.3981 91.6877 72.2916 91.7804C72.1852 91.8731 72.0519 91.9295 71.9113 91.9414L58.8246 92.991H58.7715ZM39.5068 87.8227L58.8113 91.6624L69.6792 90.7855L15.5257 59.5236L3.10331 60.5201L1.54885 65.9142L39.5068 87.8227Z" fill="#081E7A"/>
<path d="M110.002 101.826C110.002 110.342 104.05 120.718 96.7158 125.01C89.3819 129.301 83.4298 125.847 83.4298 117.331C83.4298 108.814 89.3819 98.4246 96.7158 94.1465C104.05 89.8684 110.002 93.2962 110.002 101.826Z" fill="url(#paint3_linear_2940_23972)"/>
<path d="M90.7636 127.534C89.4464 127.55 88.1486 127.216 87.0037 126.564C84.2668 124.996 82.7655 121.715 82.7655 117.344C82.7655 108.615 88.877 97.9594 96.3836 93.5883C100.13 91.3828 103.731 91.0374 106.388 92.5919C109.045 94.1463 110.626 97.4412 110.626 101.892C110.626 110.608 104.515 121.263 97.008 125.647C95.1271 126.811 92.9742 127.461 90.7636 127.534ZM102.721 92.9905C100.724 93.0619 98.7814 93.6576 97.0878 94.7176C89.9399 98.8894 84.134 109.027 84.134 117.304C84.134 121.183 85.4626 124.053 87.7079 125.368C89.9532 126.684 93.0223 126.351 96.4235 124.398C103.571 120.24 109.377 110.089 109.377 101.812C109.377 97.9328 108.049 95.0631 105.803 93.7345C104.842 93.214 103.76 92.9573 102.668 92.9905H102.721Z" fill="#081E7A"/>
<path d="M59.3566 53.7836L58.4797 52.7872C61.8056 49.8653 65.7052 47.6706 69.9287 46.3436C74.1522 45.0166 78.6063 44.5867 83.0056 45.0813L82.8595 46.4099C81.7254 46.288 80.5856 46.2259 79.445 46.2239C72.0519 46.2149 64.9095 48.9028 59.3566 53.7836Z" fill="#081E7A"/>
<path d="M90.8174 48.403C89.3488 47.8056 87.8335 47.3301 86.2869 46.9814L86.5791 45.6528C88.1913 46.0279 89.7725 46.5254 91.309 47.1409L90.8174 48.403Z" fill="#081E7A"/>
<path d="M108.221 66.6312C105.705 59.4253 100.575 53.4271 93.8458 49.8244L94.4703 48.6553C101.495 52.4099 106.85 58.6706 109.47 66.1927L108.221 66.6312Z" fill="#081E7A"/>
<path d="M33.8603 65.7945L32.7045 65.0903C34.785 61.3273 37.7998 58.1637 41.4583 55.9045C45.1168 53.6452 49.2956 52.3665 53.5919 52.1916C57.8882 52.0167 62.1571 52.9515 65.9872 54.9059C69.8172 56.8603 73.0792 59.7684 75.4587 63.3499L74.3559 64.0939C72.1033 60.7 69.0141 57.944 65.3862 56.0917C61.7584 54.2393 57.7144 53.3532 53.6444 53.5188C49.5744 53.6844 45.6158 54.896 42.1504 57.0369C38.685 59.1779 35.8298 62.1757 33.8603 65.7413V65.7945Z" fill="#081E7A"/>
<path d="M78.6073 84.4343L77.2788 84.0622C78.6971 79.3872 78.6554 74.3907 77.1592 69.74L78.4081 69.3281C79.2856 71.8943 79.7345 74.5876 79.7367 77.2997C79.7053 79.7198 79.3249 82.1228 78.6073 84.4343Z" fill="#081E7A"/>
<path d="M49.671 75.0946L48.6879 74.2045C51.6732 70.9191 55.3116 68.2933 59.3701 66.495C63.4287 64.6968 67.8181 63.7659 72.2572 63.7617C73.1606 63.7617 74.0773 63.7617 74.9143 63.868L74.7948 65.1966C73.9976 65.0903 73.1739 65.0903 72.2572 65.0903C68.0034 65.094 63.7974 65.9857 59.9081 67.7085C56.0189 69.4312 52.5321 71.9469 49.671 75.0946Z" fill="#081E7A"/>
<path d="M94.6031 74.8284C90.8114 70.7404 85.9733 67.7677 80.613 66.2324L80.9718 64.9038C86.5732 66.497 91.6289 69.5994 95.5863 73.8718L94.6031 74.8284Z" fill="#081E7A"/>
<path d="M125.595 9.24039L71.3674 75.6118L72.3963 76.4524L126.624 10.081L125.595 9.24039Z" fill="#081E7A"/>
<path d="M122.398 7.17055L75.4739 67.1011L76.52 67.9201L123.444 7.98961L122.398 7.17055Z" fill="#081E7A"/>
<path d="M125.507 10.6181H125.202L124.67 10.5383C124.153 10.4309 123.671 10.1993 123.263 9.86374C122.856 9.52813 122.536 9.0985 122.332 8.61187C122.215 8.37556 122.166 8.11169 122.189 7.8492C122.213 7.58672 122.308 7.33576 122.465 7.12385C122.632 6.92522 122.85 6.77495 123.095 6.68854C123.341 6.60213 123.604 6.58271 123.86 6.63227H124.391C124.911 6.72984 125.399 6.95264 125.814 7.28136C126.228 7.61009 126.556 8.03485 126.769 8.51887C126.883 8.75828 126.93 9.02366 126.907 9.28759C126.884 9.55153 126.79 9.80443 126.636 10.0202C126.508 10.2011 126.339 10.3493 126.143 10.4532C125.947 10.557 125.729 10.6134 125.507 10.6181ZM123.461 7.96086L123.528 8.13358C123.656 8.39837 123.842 8.63117 124.072 8.81503C124.302 8.9989 124.57 9.1292 124.856 9.19646L125.388 9.27617H125.587C125.587 9.27617 125.587 9.19646 125.587 9.10345C125.458 8.83867 125.272 8.60586 125.043 8.422C124.813 8.23813 124.545 8.10783 124.258 8.04058L123.66 7.96086H123.461Z" fill="#081E7A"/>
<path d="M102.578 1.81787L64.4961 84.8418L65.7037 85.3957L103.785 2.37179L102.578 1.81787Z" fill="#081E7A"/>
<path d="M106.213 3.10631L66.2191 85.5068L67.4144 86.087L107.408 3.68644L106.213 3.10631Z" fill="#081E7A"/>
<path d="M105.352 4.5327C104.856 4.51651 104.371 4.38863 103.931 4.15858C103.492 3.92854 103.11 3.60227 102.814 3.20411C102.644 3.0006 102.533 2.75417 102.493 2.49174C102.453 2.22932 102.486 1.96099 102.588 1.71608C102.715 1.47401 102.906 1.27156 103.141 1.13094C103.375 0.990321 103.644 0.916968 103.917 0.918925H104.462C104.996 0.896321 105.528 1.00572 106.01 1.23745C106.492 1.46917 106.909 1.81609 107.225 2.24752C107.391 2.45371 107.498 2.70062 107.535 2.96242C107.573 3.22421 107.539 3.49124 107.438 3.73555C107.315 3.9806 107.124 4.18562 106.889 4.32675C106.654 4.46787 106.383 4.53929 106.109 4.5327H105.578H105.352ZM103.797 2.32724L103.89 2.48667C104.083 2.71284 104.324 2.89334 104.595 3.01512C104.866 3.1369 105.161 3.19691 105.458 3.19082H105.99C106.051 3.20657 106.115 3.20657 106.176 3.19082L106.083 3.04468C105.896 2.81413 105.658 2.62956 105.389 2.50518C105.119 2.3808 104.825 2.31992 104.528 2.32724H103.997C103.931 2.3124 103.863 2.3124 103.797 2.32724Z" fill="#081E7A"/>
<defs>
<linearGradient id="paint0_linear_2940_23972" x1="18.5687" y1="77.207" x2="89.5769" y2="126.918" gradientUnits="userSpaceOnUse">
<stop stop-color="#E64C4E"/>
<stop offset="1" stop-color="#EF33F9"/>
</linearGradient>
<linearGradient id="paint1_linear_2940_23972" x1="64.0458" y1="2.85889" x2="132.346" y2="37.1155" gradientUnits="userSpaceOnUse">
<stop stop-color="#E64C4E"/>
<stop offset="1" stop-color="#EF33F9"/>
</linearGradient>
<linearGradient id="paint2_linear_2940_23972" x1="67.7928" y1="8.89062" x2="138.51" y2="64.4654" gradientUnits="userSpaceOnUse">
<stop stop-color="#E64C4E"/>
<stop offset="1" stop-color="#EF33F9"/>
</linearGradient>
<linearGradient id="paint3_linear_2940_23972" x1="83.4298" y1="92.3052" x2="116.822" y2="117.987" gradientUnits="userSpaceOnUse">
<stop stop-color="#E64C4E"/>
<stop offset="1" stop-color="#EF33F9"/>
</linearGradient>
</defs>
</svg>
